{
    "header": {
      "keySignatures": [
        {
          "key": "C",
          "scale": "major",
          "ticks": 0
        }
      ],
      "meta": [],
      "name": "Beastie Boys",
      "ppq": 384,
      "tempos": [
        {
          "bpm": 135.19999459200022,
          "ticks": 0
        }
      ],
      "timeSignatures": [
        {
          "ticks": 0,
          "timeSignature": [
            4,
            4
          ],
          "measures": 0
        }
      ]
    },
    "tracks": [
      {
        "channel": 0,
        "controlChanges": {
          "0": [
            {
              "number": 0,
              "ticks": 0,
              "time": 0,
              "value": 0
            }
          ],
          "32": [
            {
              "number": 32,
              "ticks": 0,
              "time": 0,
              "value": 0
            }
          ]
        },
        "pitchBends": [],
        "instrument": {
          "family": "piano",
          "name": "acoustic grand piano",
          "number": 0
        },
        "name": "",
        "notes": [],
        "endOfTrackTicks": 168960
      },
      {
        "channel": 0,
        "controlChanges": {
          "7": [
            {
              "number": 7,
              "ticks": 0,
              "time": 0,
              "value": 0.84251968503937
            }
          ],
          "10": [
            {
              "number": 10,
              "ticks": 0,
              "time": 0,
              "value": 0.49606299212598426
            }
          ]
        },
        "pitchBends": [],
        "instrument": {
          "family": "guitar",
          "name": "overdriven guitar",
          "number": 29
        },
        "name": "",
        "notes": [
          {
            "duration": 0.2218935,
            "durationTicks": 192,
            "midi": 39,
            "name": "D#2",
            "ticks": 0,
            "time": 0,
            "velocity": 1
          },
          {
            "duration": 0.2218935,
            "durationTicks": 192,
            "midi": 51,
            "name": "D#3",
            "ticks": 0,
            "time": 0,
            "velocity": 1
          },
          {
            "duration": 0.2218935,
            "durationTicks": 192,
            "midi": 46,
            "name": "A#2",
            "ticks": 0,
            "time": 0,
            "velocity": 1
          },
          {
            "duration": 3.1065089999999995,
            "durationTicks": 2688,
            "midi": 44,
            "name": "G#2",
            "ticks": 192,
            "time": 0.2218935,
            "velocity": 1
          },
          {
            "duration": 3.1065089999999995,
            "durationTicks": 2688,
            "midi": 56,
            "name": "G#3",
            "ticks": 192,
            "time": 0.2218935,
            "velocity": 1
          },
          {
            "duration": 3.1065089999999995,
            "durationTicks": 2688,
            "midi": 51,
            "name": "D#3",
            "ticks": 192,
            "time": 0.2218935,
            "velocity": 1
          },
          {
            "duration": 0.4437870000000004,
            "durationTicks": 384,
            "midi": 44,
            "name": "G#2",
            "ticks": 2880,
            "time": 3.3284024999999997,
            "velocity": 1
          },
          {
            "duration": 0.4437870000000004,
            "durationTicks": 384,
            "midi": 51,
            "name": "D#3",
            "ticks": 2880,
            "time": 3.3284024999999997,
            "velocity": 1
          },
          {
            "duration": 0.4437870000000004,
            "durationTicks": 384,
            "midi": 56,
            "name": "G#3",
            "ticks": 2880,
            "time": 3.3284024999999997,
            "velocity": 1
          },
          {
            "duration": 0.22189349999999974,
            "durationTicks": 192,
            "midi": 44,
            "name": "G#2",
            "ticks": 3264,
            "time": 3.7721895,
            "velocity": 1
          },
          {
            "duration": 0.22189349999999974,
            "durationTicks": 192,
            "midi": 56,
            "name": "G#3",
            "ticks": 3264,
            "time": 3.7721895,
            "velocity": 1
          },
          {
            "duration": 0.22189349999999974,
            "durationTicks": 192,
            "midi": 51,
            "name": "D#3",
            "ticks": 3264,
            "time": 3.7721895,
            "velocity": 1
          },
          {
            "duration": 0.4437870000000004,
            "durationTicks": 384,
            "midi": 47,
            "name": "B2",
            "ticks": 3456,
            "time": 3.994083,
            "velocity": 1
          },
          {
            "duration": 0.4437870000000004,
            "durationTicks": 384,
            "midi": 59,
            "name": "B3",
            "ticks": 3456,
            "time": 3.994083,
            "velocity": 1
          },
          {
            "duration": 0.4437870000000004,
            "durationTicks": 384,
            "midi": 54,
            "name": "F#3",
            "ticks": 3456,
            "time": 3.994083,
            "velocity": 1
          },
          {
            "duration": 0.6656804999999997,
            "durationTicks": 576,
            "midi": 49,
            "name": "C#3",
            "ticks": 3840,
            "time": 4.43787,
            "velocity": 1
          },
          {
            "duration": 0.6656804999999997,
            "durationTicks": 576,
            "midi": 61,
            "name": "C#4",
            "ticks": 3840,
            "time": 4.43787,
            "velocity": 1
          },
          {
            "duration": 0.6656804999999997,
            "durationTicks": 576,
            "midi": 56,
            "name": "G#3",
            "ticks": 3840,
            "time": 4.43787,
            "velocity": 1
          },
          {
            "duration": 0.4437870000000004,
            "durationTicks": 384,
            "midi": 44,
            "name": "G#2",
            "ticks": 4416,
            "time": 5.1035505,
            "velocity": 1
          },
          {
            "duration": 0.4437870000000004,
            "durationTicks": 384,
            "midi": 56,
            "name": "G#3",
            "ticks": 4416,
            "time": 5.1035505,
            "velocity": 1
          },
          {
            "duration": 0.4437870000000004,
            "durationTicks": 384,
            "midi": 51,
            "name": "D#3",
            "ticks": 4416,
            "time": 5.1035505,
            "velocity": 1
          },
          {
            "duration": 0.2218934999999993,
            "durationTicks": 192,
            "midi": 44,
            "name": "G#2",
            "ticks": 4800,
            "time": 5.5473375,
            "velocity": 1
          },
          {
            "duration": 0.2218934999999993,
            "durationTicks": 192,
            "midi": 56,
            "name": "G#3",
            "ticks": 4800,
            "time": 5.5473375,
            "velocity": 1
          },
          {
            "duration": 0.2218934999999993,
            "durationTicks": 192,
            "midi": 51,
            "name": "D#3",
            "ticks": 4800,
            "time": 5.5473375,
            "velocity": 1
          },
          {
            "duration": 0.4437870000000004,
            "durationTicks": 384,
            "midi": 47,
            "name": "B2",
            "ticks": 4992,
            "time": 5.7692309999999996,
            "velocity": 1
          },
          {
            "duration": 0.4437870000000004,
            "durationTicks": 384,
            "midi": 59,
            "name": "B3",
            "ticks": 4992,
            "time": 5.7692309999999996,
            "velocity": 1
          },
          {
            "duration": 0.4437870000000004,
            "durationTicks": 384,
            "midi": 54,
            "name": "F#3",
            "ticks": 4992,
            "time": 5.7692309999999996,
            "velocity": 1
          },
          {
            "duration": 0.6656804999999997,
            "durationTicks": 576,
            "midi": 49,
            "name": "C#3",
            "ticks": 5376,
            "time": 6.213018,
            "velocity": 1
          },
          {
            "duration": 0.6656804999999997,
            "durationTicks": 576,
            "midi": 61,
            "name": "C#4",
            "ticks": 5376,
            "time": 6.213018,
            "velocity": 1
          },
          {
            "duration": 0.6656804999999997,
            "durationTicks": 576,
            "midi": 56,
            "name": "G#3",
            "ticks": 5376,
            "time": 6.213018,
            "velocity": 1
          },
          {
            "duration": 0.4437870000000004,
            "durationTicks": 384,
            "midi": 44,
            "name": "G#2",
            "ticks": 5952,
            "time": 6.8786985,
            "velocity": 1
          },
          {
            "duration": 0.4437870000000004,
            "durationTicks": 384,
            "midi": 56,
            "name": "G#3",
            "ticks": 5952,
            "time": 6.8786985,
            "velocity": 1
          },
          {
            "duration": 0.4437870000000004,
            "durationTicks": 384,
            "midi": 51,
            "name": "D#3",
            "ticks": 5952,
            "time": 6.8786985,
            "velocity": 1
          },
          {
            "duration": 0.2218935000000002,
            "durationTicks": 192,
            "midi": 44,
            "name": "G#2",
            "ticks": 6336,
            "time": 7.3224855,
            "velocity": 1
          },
          {
            "duration": 0.2218935000000002,
            "durationTicks": 192,
            "midi": 56,
            "name": "G#3",
            "ticks": 6336,
            "time": 7.3224855,
            "velocity": 1
          },
          {
            "duration": 0.2218935000000002,
            "durationTicks": 192,
            "midi": 51,
            "name": "D#3",
            "ticks": 6336,
            "time": 7.3224855,
            "velocity": 1
          },
          {
            "duration": 0.4437869999999995,
            "durationTicks": 384,
            "midi": 47,
            "name": "B2",
            "ticks": 6528,
            "time": 7.544379,
            "velocity": 1
          },
          {
            "duration": 0.4437869999999995,
            "durationTicks": 384,
            "midi": 59,
            "name": "B3",
            "ticks": 6528,
            "time": 7.544379,
            "velocity": 1
          },
          {
            "duration": 0.4437869999999995,
            "durationTicks": 384,
            "midi": 54,
            "name": "F#3",
            "ticks": 6528,
            "time": 7.544379,
            "velocity": 1
          },
          {
            "duration": 0.6656805000000006,
            "durationTicks": 576,
            "midi": 49,
            "name": "C#3",
            "ticks": 6912,
            "time": 7.988166,
            "velocity": 1
          },
          {
            "duration": 0.6656805000000006,
            "durationTicks": 576,
            "midi": 61,
            "name": "C#4",
            "ticks": 6912,
            "time": 7.988166,
            "velocity": 1
          },
          {
            "duration": 0.6656805000000006,
            "durationTicks": 576,
            "midi": 56,
            "name": "G#3",
            "ticks": 6912,
            "time": 7.988166,
            "velocity": 1
          },
          {
            "duration": 0.4437870000000004,
            "durationTicks": 384,
            "midi": 44,
            "name": "G#2",
            "ticks": 7488,
            "time": 8.6538465,
            "velocity": 1
          },
          {
            "duration": 0.4437870000000004,
            "durationTicks": 384,
            "midi": 56,
            "name": "G#3",
            "ticks": 7488,
            "time": 8.6538465,
            "velocity": 1
          },
          {
            "duration": 0.4437870000000004,
            "durationTicks": 384,
            "midi": 51,
            "name": "D#3",
            "ticks": 7488,
            "time": 8.6538465,
            "velocity": 1
          },
          {
            "duration": 0.2218934999999984,
            "durationTicks": 192,
            "midi": 44,
            "name": "G#2",
            "ticks": 7872,
            "time": 9.0976335,
            "velocity": 1
          },
          {
            "duration": 0.2218934999999984,
            "durationTicks": 192,
            "midi": 56,
            "name": "G#3",
            "ticks": 7872,
            "time": 9.0976335,
            "velocity": 1
          },
          {
            "duration": 0.2218934999999984,
            "durationTicks": 192,
            "midi": 51,
            "name": "D#3",
            "ticks": 7872,
            "time": 9.0976335,
            "velocity": 1
          },
          {
            "duration": 0.4437870000000004,
            "durationTicks": 384,
            "midi": 47,
            "name": "B2",
            "ticks": 8064,
            "time": 9.319526999999999,
            "velocity": 1
          },
          {
            "duration": 0.4437870000000004,
            "durationTicks": 384,
            "midi": 59,
            "name": "B3",
            "ticks": 8064,
            "time": 9.319526999999999,
            "velocity": 1
          },
          {
            "duration": 0.4437870000000004,
            "durationTicks": 384,
            "midi": 54,
            "name": "F#3",
            "ticks": 8064,
            "time": 9.319526999999999,
            "velocity": 1
          },
          {
            "duration": 0.6656805000000006,
            "durationTicks": 576,
            "midi": 49,
            "name": "C#3",
            "ticks": 8448,
            "time": 9.763314,
            "velocity": 1
          },
          {
            "duration": 0.6656805000000006,
            "durationTicks": 576,
            "midi": 61,
            "name": "C#4",
            "ticks": 8448,
            "time": 9.763314,
            "velocity": 1
          },
          {
            "duration": 0.6656805000000006,
            "durationTicks": 576,
            "midi": 56,
            "name": "G#3",
            "ticks": 8448,
            "time": 9.763314,
            "velocity": 1
          },
          {
            "duration": 0.4437870000000004,
            "durationTicks": 384,
            "midi": 44,
            "name": "G#2",
            "ticks": 9024,
            "time": 10.4289945,
            "velocity": 1
          },
          {
            "duration": 0.4437870000000004,
            "durationTicks": 384,
            "midi": 56,
            "name": "G#3",
            "ticks": 9024,
            "time": 10.4289945,
            "velocity": 1
          },
          {
            "duration": 0.4437870000000004,
            "durationTicks": 384,
            "midi": 51,
            "name": "D#3",
            "ticks": 9024,
            "time": 10.4289945,
            "velocity": 1
          },
          {
            "duration": 0.2218935000000002,
            "durationTicks": 192,
            "midi": 44,
            "name": "G#2",
            "ticks": 9408,
            "time": 10.8727815,
            "velocity": 1
          },
          {
            "duration": 0.2218935000000002,
            "durationTicks": 192,
            "midi": 56,
            "name": "G#3",
            "ticks": 9408,
            "time": 10.8727815,
            "velocity": 1
          },
          {
            "duration": 0.2218935000000002,
            "durationTicks": 192,
            "midi": 51,
            "name": "D#3",
            "ticks": 9408,
            "time": 10.8727815,
            "velocity": 1
          },
          {
            "duration": 0.4437869999999986,
            "durationTicks": 384,
            "midi": 47,
            "name": "B2",
            "ticks": 9600,
            "time": 11.094675,
            "velocity": 1
          },
          {
            "duration": 0.4437869999999986,
            "durationTicks": 384,
            "midi": 59,
            "name": "B3",
            "ticks": 9600,
            "time": 11.094675,
            "velocity": 1
          },
          {
            "duration": 0.4437869999999986,
            "durationTicks": 384,
            "midi": 54,
            "name": "F#3",
            "ticks": 9600,
            "time": 11.094675,
            "velocity": 1
          },
          {
            "duration": 0.6656805000000006,
            "durationTicks": 576,
            "midi": 49,
            "name": "C#3",
            "ticks": 9984,
            "time": 11.538461999999999,
            "velocity": 1
          },
          {
            "duration": 0.6656805000000006,
            "durationTicks": 576,
            "midi": 61,
            "name": "C#4",
            "ticks": 9984,
            "time": 11.538461999999999,
            "velocity": 1
          },
          {
            "duration": 0.6656805000000006,
            "durationTicks": 576,
            "midi": 56,
            "name": "G#3",
            "ticks": 9984,
            "time": 11.538461999999999,
            "velocity": 1
          },
          {
            "duration": 0.4437870000000004,
            "durationTicks": 384,
            "midi": 44,
            "name": "G#2",
            "ticks": 10560,
            "time": 12.2041425,
            "velocity": 1
          },
          {
            "duration": 0.4437870000000004,
            "durationTicks": 384,
            "midi": 56,
            "name": "G#3",
            "ticks": 10560,
            "time": 12.2041425,
            "velocity": 1
          },
          {
            "duration": 0.4437870000000004,
            "durationTicks": 384,
            "midi": 51,
            "name": "D#3",
            "ticks": 10560,
            "time": 12.2041425,
            "velocity": 1
          },
          {
            "duration": 0.2218935000000002,
            "durationTicks": 192,
            "midi": 44,
            "name": "G#2",
            "ticks": 10944,
            "time": 12.6479295,
            "velocity": 1
          },
          {
            "duration": 0.2218935000000002,
            "durationTicks": 192,
            "midi": 56,
            "name": "G#3",
            "ticks": 10944,
            "time": 12.6479295,
            "velocity": 1
          },
          {
            "duration": 0.2218935000000002,
            "durationTicks": 192,
            "midi": 51,
            "name": "D#3",
            "ticks": 10944,
            "time": 12.6479295,
            "velocity": 1
          },
          {
            "duration": 0.4437869999999986,
            "durationTicks": 384,
            "midi": 47,
            "name": "B2",
            "ticks": 11136,
            "time": 12.869823,
            "velocity": 1
          },
          {
            "duration": 0.4437869999999986,
            "durationTicks": 384,
            "midi": 59,
            "name": "B3",
            "ticks": 11136,
            "time": 12.869823,
            "velocity": 1
          },
          {
            "duration": 0.4437869999999986,
            "durationTicks": 384,
            "midi": 54,
            "name": "F#3",
            "ticks": 11136,
            "time": 12.869823,
            "velocity": 1
          },
          {
            "duration": 0.6656805000000006,
            "durationTicks": 576,
            "midi": 49,
            "name": "C#3",
            "ticks": 11520,
            "time": 13.313609999999999,
            "velocity": 1
          },
          {
            "duration": 0.6656805000000006,
            "durationTicks": 576,
            "midi": 61,
            "name": "C#4",
            "ticks": 11520,
            "time": 13.313609999999999,
            "velocity": 1
          },
          {
            "duration": 0.6656805000000006,
            "durationTicks": 576,
            "midi": 56,
            "name": "G#3",
            "ticks": 11520,
            "time": 13.313609999999999,
            "velocity": 1
          },
          {
            "duration": 0.4437870000000004,
            "durationTicks": 384,
            "midi": 44,
            "name": "G#2",
            "ticks": 12096,
            "time": 13.9792905,
            "velocity": 1
          },
          {
            "duration": 0.4437870000000004,
            "durationTicks": 384,
            "midi": 56,
            "name": "G#3",
            "ticks": 12096,
            "time": 13.9792905,
            "velocity": 1
          },
          {
            "duration": 0.4437870000000004,
            "durationTicks": 384,
            "midi": 51,
            "name": "D#3",
            "ticks": 12096,
            "time": 13.9792905,
            "velocity": 1
          },
          {
            "duration": 0.2218935000000002,
            "durationTicks": 192,
            "midi": 44,
            "name": "G#2",
            "ticks": 12480,
            "time": 14.4230775,
            "velocity": 1
          },
          {
            "duration": 0.2218935000000002,
            "durationTicks": 192,
            "midi": 56,
            "name": "G#3",
            "ticks": 12480,
            "time": 14.4230775,
            "velocity": 1
          },
          {
            "duration": 0.2218935000000002,
            "durationTicks": 192,
            "midi": 51,
            "name": "D#3",
            "ticks": 12480,
            "time": 14.4230775,
            "velocity": 1
          },
          {
            "duration": 0.4437870000000004,
            "durationTicks": 384,
            "midi": 47,
            "name": "B2",
            "ticks": 12672,
            "time": 14.644971,
            "velocity": 1
          },
          {
            "duration": 0.4437870000000004,
            "durationTicks": 384,
            "midi": 59,
            "name": "B3",
            "ticks": 12672,
            "time": 14.644971,
            "velocity": 1
          },
          {
            "duration": 0.4437870000000004,
            "durationTicks": 384,
            "midi": 54,
            "name": "F#3",
            "ticks": 12672,
            "time": 14.644971,
            "velocity": 1
          },
          {
            "duration": 0.6656804999999988,
            "durationTicks": 576,
            "midi": 49,
            "name": "C#3",
            "ticks": 13056,
            "time": 15.088758,
            "velocity": 1
          },
          {
            "duration": 0.6656804999999988,
            "durationTicks": 576,
            "midi": 61,
            "name": "C#4",
            "ticks": 13056,
            "time": 15.088758,
            "velocity": 1
          },
          {
            "duration": 0.6656804999999988,
            "durationTicks": 576,
            "midi": 56,
            "name": "G#3",
            "ticks": 13056,
            "time": 15.088758,
            "velocity": 1
          },
          {
            "duration": 0.4437870000000004,
            "durationTicks": 384,
            "midi": 44,
            "name": "G#2",
            "ticks": 13632,
            "time": 15.7544385,
            "velocity": 1
          },
          {
            "duration": 0.4437870000000004,
            "durationTicks": 384,
            "midi": 56,
            "name": "G#3",
            "ticks": 13632,
            "time": 15.7544385,
            "velocity": 1
          },
          {
            "duration": 0.4437870000000004,
            "durationTicks": 384,
            "midi": 51,
            "name": "D#3",
            "ticks": 13632,
            "time": 15.7544385,
            "velocity": 1
          },
          {
            "duration": 0.2218935000000002,
            "durationTicks": 192,
            "midi": 44,
            "name": "G#2",
            "ticks": 14016,
            "time": 16.1982255,
            "velocity": 1
          },
          {
            "duration": 0.2218935000000002,
            "durationTicks": 192,
            "midi": 56,
            "name": "G#3",
            "ticks": 14016,
            "time": 16.1982255,
            "velocity": 1
          },
          {
            "duration": 0.2218935000000002,
            "durationTicks": 192,
            "midi": 51,
            "name": "D#3",
            "ticks": 14016,
            "time": 16.1982255,
            "velocity": 1
          },
          {
            "duration": 0.4437870000000004,
            "durationTicks": 384,
            "midi": 47,
            "name": "B2",
            "ticks": 14208,
            "time": 16.420119,
            "velocity": 1
          },
          {
            "duration": 0.4437870000000004,
            "durationTicks": 384,
            "midi": 59,
            "name": "B3",
            "ticks": 14208,
            "time": 16.420119,
            "velocity": 1
          },
          {
            "duration": 0.4437870000000004,
            "durationTicks": 384,
            "midi": 54,
            "name": "F#3",
            "ticks": 14208,
            "time": 16.420119,
            "velocity": 1
          },
          {
            "duration": 0.6656805000000006,
            "durationTicks": 576,
            "midi": 49,
            "name": "C#3",
            "ticks": 14592,
            "time": 16.863906,
            "velocity": 1
          },
          {
            "duration": 0.6656805000000006,
            "durationTicks": 576,
            "midi": 61,
            "name": "C#4",
            "ticks": 14592,
            "time": 16.863906,
            "velocity": 1
          },
          {
            "duration": 0.6656805000000006,
            "durationTicks": 576,
            "midi": 56,
            "name": "G#3",
            "ticks": 14592,
            "time": 16.863906,
            "velocity": 1
          },
          {
            "duration": 0.2218935000000002,
            "durationTicks": 192,
            "midi": 44,
            "name": "G#2",
            "ticks": 15168,
            "time": 17.5295865,
            "velocity": 1
          },
          {
            "duration": 0.2218935000000002,
            "durationTicks": 192,
            "midi": 56,
            "name": "G#3",
            "ticks": 15168,
            "time": 17.5295865,
            "velocity": 1
          },
          {
            "duration": 0.2218935000000002,
            "durationTicks": 192,
            "midi": 51,
            "name": "D#3",
            "ticks": 15168,
            "time": 17.5295865,
            "velocity": 1
          },
          {
            "duration": 0.1109467500000001,
            "durationTicks": 96,
            "midi": 44,
            "name": "G#2",
            "ticks": 15360,
            "time": 17.75148,
            "velocity": 1
          },
          {
            "duration": 0.1109467500000001,
            "durationTicks": 96,
            "midi": 56,
            "name": "G#3",
            "ticks": 15360,
            "time": 17.75148,
            "velocity": 1
          },
          {
            "duration": 0.1109467500000001,
            "durationTicks": 96,
            "midi": 51,
            "name": "D#3",
            "ticks": 15360,
            "time": 17.75148,
            "velocity": 1
          },
          {
            "duration": 0.1109467500000001,
            "durationTicks": 96,
            "midi": 44,
            "name": "G#2",
            "ticks": 15552,
            "time": 17.9733735,
            "velocity": 1
          },
          {
            "duration": 0.1109467500000001,
            "durationTicks": 96,
            "midi": 56,
            "name": "G#3",
            "ticks": 15552,
            "time": 17.9733735,
            "velocity": 1
          },
          {
            "duration": 0.1109467500000001,
            "durationTicks": 96,
            "midi": 51,
            "name": "D#3",
            "ticks": 15552,
            "time": 17.9733735,
            "velocity": 1
          },
          {
            "duration": 0.11094674999999654,
            "durationTicks": 96,
            "midi": 44,
            "name": "G#2",
            "ticks": 15744,
            "time": 18.195267,
            "velocity": 1
          },
          {
            "duration": 0.11094674999999654,
            "durationTicks": 96,
            "midi": 56,
            "name": "G#3",
            "ticks": 15744,
            "time": 18.195267,
            "velocity": 1
          },
          {
            "duration": 0.11094674999999654,
            "durationTicks": 96,
            "midi": 51,
            "name": "D#3",
            "ticks": 15744,
            "time": 18.195267,
            "velocity": 1
          },
          {
            "duration": 0.1109467500000001,
            "durationTicks": 96,
            "midi": 44,
            "name": "G#2",
            "ticks": 15936,
            "time": 18.417160499999998,
            "velocity": 1
          },
          {
            "duration": 0.1109467500000001,
            "durationTicks": 96,
            "midi": 56,
            "name": "G#3",
            "ticks": 15936,
            "time": 18.417160499999998,
            "velocity": 1
          },
          {
            "duration": 0.1109467500000001,
            "durationTicks": 96,
            "midi": 51,
            "name": "D#3",
            "ticks": 15936,
            "time": 18.417160499999998,
            "velocity": 1
          },
          {
            "duration": 0.1109467500000001,
            "durationTicks": 96,
            "midi": 44,
            "name": "G#2",
            "ticks": 16128,
            "time": 18.639053999999998,
            "velocity": 1
          },
          {
            "duration": 0.1109467500000001,
            "durationTicks": 96,
            "midi": 56,
            "name": "G#3",
            "ticks": 16128,
            "time": 18.639053999999998,
            "velocity": 1
          },
          {
            "duration": 0.1109467500000001,
            "durationTicks": 96,
            "midi": 51,
            "name": "D#3",
            "ticks": 16128,
            "time": 18.639053999999998,
            "velocity": 1
          },
          {
            "duration": 0.1109467500000001,
            "durationTicks": 96,
            "midi": 44,
            "name": "G#2",
            "ticks": 16320,
            "time": 18.860947499999998,
            "velocity": 1
          },
          {
            "duration": 0.1109467500000001,
            "durationTicks": 96,
            "midi": 56,
            "name": "G#3",
            "ticks": 16320,
            "time": 18.860947499999998,
            "velocity": 1
          },
          {
            "duration": 0.1109467500000001,
            "durationTicks": 96,
            "midi": 51,
            "name": "D#3",
            "ticks": 16320,
            "time": 18.860947499999998,
            "velocity": 1
          },
          {
            "duration": 0.1109467500000001,
            "durationTicks": 96,
            "midi": 44,
            "name": "G#2",
            "ticks": 16512,
            "time": 19.082841,
            "velocity": 1
          },
          {
            "duration": 0.1109467500000001,
            "durationTicks": 96,
            "midi": 56,
            "name": "G#3",
            "ticks": 16512,
            "time": 19.082841,
            "velocity": 1
          },
          {
            "duration": 0.1109467500000001,
            "durationTicks": 96,
            "midi": 51,
            "name": "D#3",
            "ticks": 16512,
            "time": 19.082841,
            "velocity": 1
          },
          {
            "duration": 0.1109467500000001,
            "durationTicks": 96,
            "midi": 44,
            "name": "G#2",
            "ticks": 16704,
            "time": 19.3047345,
            "velocity": 1
          },
          {
            "duration": 0.1109467500000001,
            "durationTicks": 96,
            "midi": 56,
            "name": "G#3",
            "ticks": 16704,
            "time": 19.3047345,
            "velocity": 1
          },
          {
            "duration": 0.1109467500000001,
            "durationTicks": 96,
            "midi": 51,
            "name": "D#3",
            "ticks": 16704,
            "time": 19.3047345,
            "velocity": 1
          },
          {
            "duration": 0.1109467500000001,
            "durationTicks": 96,
            "midi": 44,
            "name": "G#2",
            "ticks": 16896,
            "time": 19.526628,
            "velocity": 1
          },
          {
            "duration": 0.1109467500000001,
            "durationTicks": 96,
            "midi": 56,
            "name": "G#3",
            "ticks": 16896,
            "time": 19.526628,
            "velocity": 1
          },
          {
            "duration": 0.1109467500000001,
            "durationTicks": 96,
            "midi": 51,
            "name": "D#3",
            "ticks": 16896,
            "time": 19.526628,
            "velocity": 1
          },
          {
            "duration": 0.1109467500000001,
            "durationTicks": 96,
            "midi": 44,
            "name": "G#2",
            "ticks": 17088,
            "time": 19.7485215,
            "velocity": 1
          },
          {
            "duration": 0.1109467500000001,
            "durationTicks": 96,
            "midi": 56,
            "name": "G#3",
            "ticks": 17088,
            "time": 19.7485215,
            "velocity": 1
          },
          {
            "duration": 0.1109467500000001,
            "durationTicks": 96,
            "midi": 51,
            "name": "D#3",
            "ticks": 17088,
            "time": 19.7485215,
            "velocity": 1
          },
          {
            "duration": 0.1109467500000001,
            "durationTicks": 96,
            "midi": 44,
            "name": "G#2",
            "ticks": 17280,
            "time": 19.970415,
            "velocity": 1
          },
          {
            "duration": 0.1109467500000001,
            "durationTicks": 96,
            "midi": 56,
            "name": "G#3",
            "ticks": 17280,
            "time": 19.970415,
            "velocity": 1
          },
          {
            "duration": 0.1109467500000001,
            "durationTicks": 96,
            "midi": 51,
            "name": "D#3",
            "ticks": 17280,
            "time": 19.970415,
            "velocity": 1
          },
          {
            "duration": 0.1109467500000001,
            "durationTicks": 96,
            "midi": 44,
            "name": "G#2",
            "ticks": 17472,
            "time": 20.1923085,
            "velocity": 1
          },
          {
            "duration": 0.1109467500000001,
            "durationTicks": 96,
            "midi": 56,
            "name": "G#3",
            "ticks": 17472,
            "time": 20.1923085,
            "velocity": 1
          },
          {
            "duration": 0.1109467500000001,
            "durationTicks": 96,
            "midi": 51,
            "name": "D#3",
            "ticks": 17472,
            "time": 20.1923085,
            "velocity": 1
          },
          {
            "duration": 0.1109467500000001,
            "durationTicks": 96,
            "midi": 44,
            "name": "G#2",
            "ticks": 17664,
            "time": 20.414202,
            "velocity": 1
          },
          {
            "duration": 0.1109467500000001,
            "durationTicks": 96,
            "midi": 56,
            "name": "G#3",
            "ticks": 17664,
            "time": 20.414202,
            "velocity": 1
          },
          {
            "duration": 0.1109467500000001,
            "durationTicks": 96,
            "midi": 51,
            "name": "D#3",
            "ticks": 17664,
            "time": 20.414202,
            "velocity": 1
          },
          {
            "duration": 0.1109467500000001,
            "durationTicks": 96,
            "midi": 44,
            "name": "G#2",
            "ticks": 17856,
            "time": 20.6360955,
            "velocity": 1
          },
          {
            "duration": 0.1109467500000001,
            "durationTicks": 96,
            "midi": 56,
            "name": "G#3",
            "ticks": 17856,
            "time": 20.6360955,
            "velocity": 1
          },
          {
            "duration": 0.1109467500000001,
            "durationTicks": 96,
            "midi": 51,
            "name": "D#3",
            "ticks": 17856,
            "time": 20.6360955,
            "velocity": 1
          },
          {
            "duration": 0.1109467500000001,
            "durationTicks": 96,
            "midi": 44,
            "name": "G#2",
            "ticks": 18048,
            "time": 20.857989,
            "velocity": 1
          },
          {
            "duration": 0.1109467500000001,
            "durationTicks": 96,
            "midi": 56,
            "name": "G#3",
            "ticks": 18048,
            "time": 20.857989,
            "velocity": 1
          },
          {
            "duration": 0.1109467500000001,
            "durationTicks": 96,
            "midi": 51,
            "name": "D#3",
            "ticks": 18048,
            "time": 20.857989,
            "velocity": 1
          },
          {
            "duration": 0.4437870000000004,
            "durationTicks": 384,
            "midi": 44,
            "name": "G#2",
            "ticks": 18240,
            "time": 21.0798825,
            "velocity": 1
          },
          {
            "duration": 0.4437870000000004,
            "durationTicks": 384,
            "midi": 56,
            "name": "G#3",
            "ticks": 18240,
            "time": 21.0798825,
            "velocity": 1
          },
          {
            "duration": 0.4437870000000004,
            "durationTicks": 384,
            "midi": 51,
            "name": "D#3",
            "ticks": 18240,
            "time": 21.0798825,
            "velocity": 1
          },
          {
            "duration": 0.2218935000000002,
            "durationTicks": 192,
            "midi": 44,
            "name": "G#2",
            "ticks": 18624,
            "time": 21.5236695,
            "velocity": 1
          },
          {
            "duration": 0.2218935000000002,
            "durationTicks": 192,
            "midi": 56,
            "name": "G#3",
            "ticks": 18624,
            "time": 21.5236695,
            "velocity": 1
          },
          {
            "duration": 0.2218935000000002,
            "durationTicks": 192,
            "midi": 51,
            "name": "D#3",
            "ticks": 18624,
            "time": 21.5236695,
            "velocity": 1
          },
          {
            "duration": 0.4437870000000004,
            "durationTicks": 384,
            "midi": 47,
            "name": "B2",
            "ticks": 18816,
            "time": 21.745563,
            "velocity": 1
          },
          {
            "duration": 0.4437870000000004,
            "durationTicks": 384,
            "midi": 59,
            "name": "B3",
            "ticks": 18816,
            "time": 21.745563,
            "velocity": 1
          },
          {
            "duration": 0.4437870000000004,
            "durationTicks": 384,
            "midi": 54,
            "name": "F#3",
            "ticks": 18816,
            "time": 21.745563,
            "velocity": 1
          },
          {
            "duration": 0.665680499999997,
            "durationTicks": 576,
            "midi": 49,
            "name": "C#3",
            "ticks": 19200,
            "time": 22.18935,
            "velocity": 1
          },
          {
            "duration": 0.665680499999997,
            "durationTicks": 576,
            "midi": 61,
            "name": "C#4",
            "ticks": 19200,
            "time": 22.18935,
            "velocity": 1
          },
          {
            "duration": 0.665680499999997,
            "durationTicks": 576,
            "midi": 56,
            "name": "G#3",
            "ticks": 19200,
            "time": 22.18935,
            "velocity": 1
          },
          {
            "duration": 0.4437870000000004,
            "durationTicks": 384,
            "midi": 44,
            "name": "G#2",
            "ticks": 19776,
            "time": 22.855030499999998,
            "velocity": 1
          },
          {
            "duration": 0.4437870000000004,
            "durationTicks": 384,
            "midi": 56,
            "name": "G#3",
            "ticks": 19776,
            "time": 22.855030499999998,
            "velocity": 1
          },
          {
            "duration": 0.4437870000000004,
            "durationTicks": 384,
            "midi": 51,
            "name": "D#3",
            "ticks": 19776,
            "time": 22.855030499999998,
            "velocity": 1
          },
          {
            "duration": 0.2218935000000002,
            "durationTicks": 192,
            "midi": 44,
            "name": "G#2",
            "ticks": 20160,
            "time": 23.2988175,
            "velocity": 1
          },
          {
            "duration": 0.2218935000000002,
            "durationTicks": 192,
            "midi": 56,
            "name": "G#3",
            "ticks": 20160,
            "time": 23.2988175,
            "velocity": 1
          },
          {
            "duration": 0.2218935000000002,
            "durationTicks": 192,
            "midi": 51,
            "name": "D#3",
            "ticks": 20160,
            "time": 23.2988175,
            "velocity": 1
          },
          {
            "duration": 0.4437870000000004,
            "durationTicks": 384,
            "midi": 47,
            "name": "B2",
            "ticks": 20352,
            "time": 23.520711,
            "velocity": 1
          },
          {
            "duration": 0.4437870000000004,
            "durationTicks": 384,
            "midi": 59,
            "name": "B3",
            "ticks": 20352,
            "time": 23.520711,
            "velocity": 1
          },
          {
            "duration": 0.4437870000000004,
            "durationTicks": 384,
            "midi": 54,
            "name": "F#3",
            "ticks": 20352,
            "time": 23.520711,
            "velocity": 1
          },
          {
            "duration": 0.8875740000000008,
            "durationTicks": 768,
            "midi": 49,
            "name": "C#3",
            "ticks": 20736,
            "time": 23.964498,
            "velocity": 1
          },
          {
            "duration": 0.8875740000000008,
            "durationTicks": 768,
            "midi": 61,
            "name": "C#4",
            "ticks": 20736,
            "time": 23.964498,
            "velocity": 1
          },
          {
            "duration": 0.8875740000000008,
            "durationTicks": 768,
            "midi": 56,
            "name": "G#3",
            "ticks": 20736,
            "time": 23.964498,
            "velocity": 1
          },
          {
            "duration": 0.1109467500000001,
            "durationTicks": 96,
            "midi": 44,
            "name": "G#2",
            "ticks": 21504,
            "time": 24.852072,
            "velocity": 1
          },
          {
            "duration": 0.1109467500000001,
            "durationTicks": 96,
            "midi": 56,
            "name": "G#3",
            "ticks": 21504,
            "time": 24.852072,
            "velocity": 1
          },
          {
            "duration": 0.1109467500000001,
            "durationTicks": 96,
            "midi": 51,
            "name": "D#3",
            "ticks": 21504,
            "time": 24.852072,
            "velocity": 1
          },
          {
            "duration": 0.1109467500000001,
            "durationTicks": 96,
            "midi": 44,
            "name": "G#2",
            "ticks": 21696,
            "time": 25.0739655,
            "velocity": 1
          },
          {
            "duration": 0.1109467500000001,
            "durationTicks": 96,
            "midi": 56,
            "name": "G#3",
            "ticks": 21696,
            "time": 25.0739655,
            "velocity": 1
          },
          {
            "duration": 0.1109467500000001,
            "durationTicks": 96,
            "midi": 51,
            "name": "D#3",
            "ticks": 21696,
            "time": 25.0739655,
            "velocity": 1
          },
          {
            "duration": 0.1109467500000001,
            "durationTicks": 96,
            "midi": 44,
            "name": "G#2",
            "ticks": 21888,
            "time": 25.295859,
            "velocity": 1
          },
          {
            "duration": 0.1109467500000001,
            "durationTicks": 96,
            "midi": 56,
            "name": "G#3",
            "ticks": 21888,
            "time": 25.295859,
            "velocity": 1
          },
          {
            "duration": 0.1109467500000001,
            "durationTicks": 96,
            "midi": 51,
            "name": "D#3",
            "ticks": 21888,
            "time": 25.295859,
            "velocity": 1
          },
          {
            "duration": 0.1109467500000001,
            "durationTicks": 96,
            "midi": 44,
            "name": "G#2",
            "ticks": 22080,
            "time": 25.5177525,
            "velocity": 1
          },
          {
            "duration": 0.1109467500000001,
            "durationTicks": 96,
            "midi": 56,
            "name": "G#3",
            "ticks": 22080,
            "time": 25.5177525,
            "velocity": 1
          },
          {
            "duration": 0.1109467500000001,
            "durationTicks": 96,
            "midi": 51,
            "name": "D#3",
            "ticks": 22080,
            "time": 25.5177525,
            "velocity": 1
          },
          {
            "duration": 0.1109467500000001,
            "durationTicks": 96,
            "midi": 44,
            "name": "G#2",
            "ticks": 22272,
            "time": 25.739646,
            "velocity": 1
          },
          {
            "duration": 0.1109467500000001,
            "durationTicks": 96,
            "midi": 56,
            "name": "G#3",
            "ticks": 22272,
            "time": 25.739646,
            "velocity": 1
          },
          {
            "duration": 0.1109467500000001,
            "durationTicks": 96,
            "midi": 51,
            "name": "D#3",
            "ticks": 22272,
            "time": 25.739646,
            "velocity": 1
          },
          {
            "duration": 0.1109467500000001,
            "durationTicks": 96,
            "midi": 44,
            "name": "G#2",
            "ticks": 22464,
            "time": 25.9615395,
            "velocity": 1
          },
          {
            "duration": 0.1109467500000001,
            "durationTicks": 96,
            "midi": 56,
            "name": "G#3",
            "ticks": 22464,
            "time": 25.9615395,
            "velocity": 1
          },
          {
            "duration": 0.1109467500000001,
            "durationTicks": 96,
            "midi": 51,
            "name": "D#3",
            "ticks": 22464,
            "time": 25.9615395,
            "velocity": 1
          },
          {
            "duration": 0.1109467500000001,
            "durationTicks": 96,
            "midi": 44,
            "name": "G#2",
            "ticks": 22656,
            "time": 26.183433,
            "velocity": 1
          },
          {
            "duration": 0.1109467500000001,
            "durationTicks": 96,
            "midi": 56,
            "name": "G#3",
            "ticks": 22656,
            "time": 26.183433,
            "velocity": 1
          },
          {
            "duration": 0.1109467500000001,
            "durationTicks": 96,
            "midi": 51,
            "name": "D#3",
            "ticks": 22656,
            "time": 26.183433,
            "velocity": 1
          },
          {
            "duration": 0.1109467500000001,
            "durationTicks": 96,
            "midi": 44,
            "name": "G#2",
            "ticks": 22848,
            "time": 26.405326499999997,
            "velocity": 1
          },
          {
            "duration": 0.1109467500000001,
            "durationTicks": 96,
            "midi": 56,
            "name": "G#3",
            "ticks": 22848,
            "time": 26.405326499999997,
            "velocity": 1
          },
          {
            "duration": 0.1109467500000001,
            "durationTicks": 96,
            "midi": 51,
            "name": "D#3",
            "ticks": 22848,
            "time": 26.405326499999997,
            "velocity": 1
          },
          {
            "duration": 0.1109467500000001,
            "durationTicks": 96,
            "midi": 44,
            "name": "G#2",
            "ticks": 23040,
            "time": 26.627219999999998,
            "velocity": 1
          },
          {
            "duration": 0.1109467500000001,
            "durationTicks": 96,
            "midi": 56,
            "name": "G#3",
            "ticks": 23040,
            "time": 26.627219999999998,
            "velocity": 1
          },
          {
            "duration": 0.1109467500000001,
            "durationTicks": 96,
            "midi": 51,
            "name": "D#3",
            "ticks": 23040,
            "time": 26.627219999999998,
            "velocity": 1
          },
          {
            "duration": 0.1109467500000001,
            "durationTicks": 96,
            "midi": 44,
            "name": "G#2",
            "ticks": 23232,
            "time": 26.849113499999998,
            "velocity": 1
          },
          {
            "duration": 0.1109467500000001,
            "durationTicks": 96,
            "midi": 56,
            "name": "G#3",
            "ticks": 23232,
            "time": 26.849113499999998,
            "velocity": 1
          },
          {
            "duration": 0.1109467500000001,
            "durationTicks": 96,
            "midi": 51,
            "name": "D#3",
            "ticks": 23232,
            "time": 26.849113499999998,
            "velocity": 1
          },
          {
            "duration": 0.1109467500000001,
            "durationTicks": 96,
            "midi": 44,
            "name": "G#2",
            "ticks": 23424,
            "time": 27.071006999999998,
            "velocity": 1
          },
          {
            "duration": 0.1109467500000001,
            "durationTicks": 96,
            "midi": 56,
            "name": "G#3",
            "ticks": 23424,
            "time": 27.071006999999998,
            "velocity": 1
          },
          {
            "duration": 0.1109467500000001,
            "durationTicks": 96,
            "midi": 51,
            "name": "D#3",
            "ticks": 23424,
            "time": 27.071006999999998,
            "velocity": 1
          },
          {
            "duration": 0.1109467500000001,
            "durationTicks": 96,
            "midi": 44,
            "name": "G#2",
            "ticks": 23616,
            "time": 27.2929005,
            "velocity": 1
          },
          {
            "duration": 0.1109467500000001,
            "durationTicks": 96,
            "midi": 56,
            "name": "G#3",
            "ticks": 23616,
            "time": 27.2929005,
            "velocity": 1
          },
          {
            "duration": 0.1109467500000001,
            "durationTicks": 96,
            "midi": 51,
            "name": "D#3",
            "ticks": 23616,
            "time": 27.2929005,
            "velocity": 1
          },
          {
            "duration": 0.1109467500000001,
            "durationTicks": 96,
            "midi": 44,
            "name": "G#2",
            "ticks": 23808,
            "time": 27.514794,
            "velocity": 1
          },
          {
            "duration": 0.1109467500000001,
            "durationTicks": 96,
            "midi": 56,
            "name": "G#3",
            "ticks": 23808,
            "time": 27.514794,
            "velocity": 1
          },
          {
            "duration": 0.1109467500000001,
            "durationTicks": 96,
            "midi": 51,
            "name": "D#3",
            "ticks": 23808,
            "time": 27.514794,
            "velocity": 1
          },
          {
            "duration": 0.1109467500000001,
            "durationTicks": 96,
            "midi": 44,
            "name": "G#2",
            "ticks": 24000,
            "time": 27.7366875,
            "velocity": 1
          },
          {
            "duration": 0.1109467500000001,
            "durationTicks": 96,
            "midi": 56,
            "name": "G#3",
            "ticks": 24000,
            "time": 27.7366875,
            "velocity": 1
          },
          {
            "duration": 0.1109467500000001,
            "durationTicks": 96,
            "midi": 51,
            "name": "D#3",
            "ticks": 24000,
            "time": 27.7366875,
            "velocity": 1
          },
          {
            "duration": 0.1109467500000001,
            "durationTicks": 96,
            "midi": 44,
            "name": "G#2",
            "ticks": 24192,
            "time": 27.958581,
            "velocity": 1
          },
          {
            "duration": 0.1109467500000001,
            "durationTicks": 96,
            "midi": 56,
            "name": "G#3",
            "ticks": 24192,
            "time": 27.958581,
            "velocity": 1
          },
          {
            "duration": 0.1109467500000001,
            "durationTicks": 96,
            "midi": 51,
            "name": "D#3",
            "ticks": 24192,
            "time": 27.958581,
            "velocity": 1
          },
          {
            "duration": 0.4437870000000004,
            "durationTicks": 384,
            "midi": 44,
            "name": "G#2",
            "ticks": 24384,
            "time": 28.1804745,
            "velocity": 1
          },
          {
            "duration": 0.4437870000000004,
            "durationTicks": 384,
            "midi": 56,
            "name": "G#3",
            "ticks": 24384,
            "time": 28.1804745,
            "velocity": 1
          },
          {
            "duration": 0.4437870000000004,
            "durationTicks": 384,
            "midi": 51,
            "name": "D#3",
            "ticks": 24384,
            "time": 28.1804745,
            "velocity": 1
          },
          {
            "duration": 0.2218935000000002,
            "durationTicks": 192,
            "midi": 44,
            "name": "G#2",
            "ticks": 24768,
            "time": 28.6242615,
            "velocity": 1
          },
          {
            "duration": 0.2218935000000002,
            "durationTicks": 192,
            "midi": 56,
            "name": "G#3",
            "ticks": 24768,
            "time": 28.6242615,
            "velocity": 1
          },
          {
            "duration": 0.2218935000000002,
            "durationTicks": 192,
            "midi": 51,
            "name": "D#3",
            "ticks": 24768,
            "time": 28.6242615,
            "velocity": 1
          },
          {
            "duration": 0.4437870000000004,
            "durationTicks": 384,
            "midi": 47,
            "name": "B2",
            "ticks": 24960,
            "time": 28.846155,
            "velocity": 1
          },
          {
            "duration": 0.4437870000000004,
            "durationTicks": 384,
            "midi": 59,
            "name": "B3",
            "ticks": 24960,
            "time": 28.846155,
            "velocity": 1
          },
          {
            "duration": 0.4437870000000004,
            "durationTicks": 384,
            "midi": 54,
            "name": "F#3",
            "ticks": 24960,
            "time": 28.846155,
            "velocity": 1
          },
          {
            "duration": 0.6656805000000006,
            "durationTicks": 576,
            "midi": 49,
            "name": "C#3",
            "ticks": 25344,
            "time": 29.289942,
            "velocity": 1
          },
          {
            "duration": 0.6656805000000006,
            "durationTicks": 576,
            "midi": 61,
            "name": "C#4",
            "ticks": 25344,
            "time": 29.289942,
            "velocity": 1
          },
          {
            "duration": 0.6656805000000006,
            "durationTicks": 576,
            "midi": 56,
            "name": "G#3",
            "ticks": 25344,
            "time": 29.289942,
            "velocity": 1
          },
          {
            "duration": 0.4437870000000004,
            "durationTicks": 384,
            "midi": 44,
            "name": "G#2",
            "ticks": 25920,
            "time": 29.9556225,
            "velocity": 1
          },
          {
            "duration": 0.4437870000000004,
            "durationTicks": 384,
            "midi": 56,
            "name": "G#3",
            "ticks": 25920,
            "time": 29.9556225,
            "velocity": 1
          },
          {
            "duration": 0.4437870000000004,
            "durationTicks": 384,
            "midi": 51,
            "name": "D#3",
            "ticks": 25920,
            "time": 29.9556225,
            "velocity": 1
          },
          {
            "duration": 0.22189349999999664,
            "durationTicks": 192,
            "midi": 44,
            "name": "G#2",
            "ticks": 26304,
            "time": 30.3994095,
            "velocity": 1
          },
          {
            "duration": 0.22189349999999664,
            "durationTicks": 192,
            "midi": 56,
            "name": "G#3",
            "ticks": 26304,
            "time": 30.3994095,
            "velocity": 1
          },
          {
            "duration": 0.22189349999999664,
            "durationTicks": 192,
            "midi": 51,
            "name": "D#3",
            "ticks": 26304,
            "time": 30.3994095,
            "velocity": 1
          },
          {
            "duration": 0.4437870000000004,
            "durationTicks": 384,
            "midi": 47,
            "name": "B2",
            "ticks": 26496,
            "time": 30.621302999999997,
            "velocity": 1
          },
          {
            "duration": 0.4437870000000004,
            "durationTicks": 384,
            "midi": 59,
            "name": "B3",
            "ticks": 26496,
            "time": 30.621302999999997,
            "velocity": 1
          },
          {
            "duration": 0.4437870000000004,
            "durationTicks": 384,
            "midi": 54,
            "name": "F#3",
            "ticks": 26496,
            "time": 30.621302999999997,
            "velocity": 1
          },
          {
            "duration": 0.8875740000000008,
            "durationTicks": 768,
            "midi": 49,
            "name": "C#3",
            "ticks": 26880,
            "time": 31.065089999999998,
            "velocity": 1
          },
          {
            "duration": 0.8875740000000008,
            "durationTicks": 768,
            "midi": 61,
            "name": "C#4",
            "ticks": 26880,
            "time": 31.065089999999998,
            "velocity": 1
          },
          {
            "duration": 0.8875740000000008,
            "durationTicks": 768,
            "midi": 56,
            "name": "G#3",
            "ticks": 26880,
            "time": 31.065089999999998,
            "velocity": 1
          },
          {
            "duration": 0.11094675000000365,
            "durationTicks": 96,
            "midi": 44,
            "name": "G#2",
            "ticks": 27648,
            "time": 31.952664,
            "velocity": 1
          },
          {
            "duration": 0.11094675000000365,
            "durationTicks": 96,
            "midi": 56,
            "name": "G#3",
            "ticks": 27648,
            "time": 31.952664,
            "velocity": 1
          },
          {
            "duration": 0.11094675000000365,
            "durationTicks": 96,
            "midi": 51,
            "name": "D#3",
            "ticks": 27648,
            "time": 31.952664,
            "velocity": 1
          },
          {
            "duration": 0.11094675000000365,
            "durationTicks": 96,
            "midi": 44,
            "name": "G#2",
            "ticks": 27840,
            "time": 32.1745575,
            "velocity": 1
          },
          {
            "duration": 0.11094675000000365,
            "durationTicks": 96,
            "midi": 56,
            "name": "G#3",
            "ticks": 27840,
            "time": 32.1745575,
            "velocity": 1
          },
          {
            "duration": 0.11094675000000365,
            "durationTicks": 96,
            "midi": 51,
            "name": "D#3",
            "ticks": 27840,
            "time": 32.1745575,
            "velocity": 1
          },
          {
            "duration": 0.11094674999999654,
            "durationTicks": 96,
            "midi": 44,
            "name": "G#2",
            "ticks": 28032,
            "time": 32.396451,
            "velocity": 1
          },
          {
            "duration": 0.11094674999999654,
            "durationTicks": 96,
            "midi": 56,
            "name": "G#3",
            "ticks": 28032,
            "time": 32.396451,
            "velocity": 1
          },
          {
            "duration": 0.11094674999999654,
            "durationTicks": 96,
            "midi": 51,
            "name": "D#3",
            "ticks": 28032,
            "time": 32.396451,
            "velocity": 1
          },
          {
            "duration": 0.11094674999999654,
            "durationTicks": 96,
            "midi": 44,
            "name": "G#2",
            "ticks": 28224,
            "time": 32.6183445,
            "velocity": 1
          },
          {
            "duration": 0.11094674999999654,
            "durationTicks": 96,
            "midi": 56,
            "name": "G#3",
            "ticks": 28224,
            "time": 32.6183445,
            "velocity": 1
          },
          {
            "duration": 0.11094674999999654,
            "durationTicks": 96,
            "midi": 51,
            "name": "D#3",
            "ticks": 28224,
            "time": 32.6183445,
            "velocity": 1
          },
          {
            "duration": 0.11094674999999654,
            "durationTicks": 96,
            "midi": 44,
            "name": "G#2",
            "ticks": 28416,
            "time": 32.840238,
            "velocity": 1
          },
          {
            "duration": 0.11094674999999654,
            "durationTicks": 96,
            "midi": 56,
            "name": "G#3",
            "ticks": 28416,
            "time": 32.840238,
            "velocity": 1
          },
          {
            "duration": 0.11094674999999654,
            "durationTicks": 96,
            "midi": 51,
            "name": "D#3",
            "ticks": 28416,
            "time": 32.840238,
            "velocity": 1
          },
          {
            "duration": 0.11094674999999654,
            "durationTicks": 96,
            "midi": 44,
            "name": "G#2",
            "ticks": 28608,
            "time": 33.0621315,
            "velocity": 1
          },
          {
            "duration": 0.11094674999999654,
            "durationTicks": 96,
            "midi": 56,
            "name": "G#3",
            "ticks": 28608,
            "time": 33.0621315,
            "velocity": 1
          },
          {
            "duration": 0.11094674999999654,
            "durationTicks": 96,
            "midi": 51,
            "name": "D#3",
            "ticks": 28608,
            "time": 33.0621315,
            "velocity": 1
          },
          {
            "duration": 0.11094674999999654,
            "durationTicks": 96,
            "midi": 44,
            "name": "G#2",
            "ticks": 28800,
            "time": 33.284025,
            "velocity": 1
          },
          {
            "duration": 0.11094674999999654,
            "durationTicks": 96,
            "midi": 56,
            "name": "G#3",
            "ticks": 28800,
            "time": 33.284025,
            "velocity": 1
          },
          {
            "duration": 0.11094674999999654,
            "durationTicks": 96,
            "midi": 51,
            "name": "D#3",
            "ticks": 28800,
            "time": 33.284025,
            "velocity": 1
          },
          {
            "duration": 0.11094674999999654,
            "durationTicks": 96,
            "midi": 44,
            "name": "G#2",
            "ticks": 28992,
            "time": 33.5059185,
            "velocity": 1
          },
          {
            "duration": 0.11094674999999654,
            "durationTicks": 96,
            "midi": 56,
            "name": "G#3",
            "ticks": 28992,
            "time": 33.5059185,
            "velocity": 1
          },
          {
            "duration": 0.11094674999999654,
            "durationTicks": 96,
            "midi": 51,
            "name": "D#3",
            "ticks": 28992,
            "time": 33.5059185,
            "velocity": 1
          },
          {
            "duration": 0.11094674999999654,
            "durationTicks": 96,
            "midi": 44,
            "name": "G#2",
            "ticks": 29184,
            "time": 33.727812,
            "velocity": 1
          },
          {
            "duration": 0.11094674999999654,
            "durationTicks": 96,
            "midi": 56,
            "name": "G#3",
            "ticks": 29184,
            "time": 33.727812,
            "velocity": 1
          },
          {
            "duration": 0.11094674999999654,
            "durationTicks": 96,
            "midi": 51,
            "name": "D#3",
            "ticks": 29184,
            "time": 33.727812,
            "velocity": 1
          },
          {
            "duration": 0.11094674999999654,
            "durationTicks": 96,
            "midi": 44,
            "name": "G#2",
            "ticks": 29376,
            "time": 33.9497055,
            "velocity": 1
          },
          {
            "duration": 0.11094674999999654,
            "durationTicks": 96,
            "midi": 56,
            "name": "G#3",
            "ticks": 29376,
            "time": 33.9497055,
            "velocity": 1
          },
          {
            "duration": 0.11094674999999654,
            "durationTicks": 96,
            "midi": 51,
            "name": "D#3",
            "ticks": 29376,
            "time": 33.9497055,
            "velocity": 1
          },
          {
            "duration": 0.11094674999999654,
            "durationTicks": 96,
            "midi": 44,
            "name": "G#2",
            "ticks": 29568,
            "time": 34.171599,
            "velocity": 1
          },
          {
            "duration": 0.11094674999999654,
            "durationTicks": 96,
            "midi": 56,
            "name": "G#3",
            "ticks": 29568,
            "time": 34.171599,
            "velocity": 1
          },
          {
            "duration": 0.11094674999999654,
            "durationTicks": 96,
            "midi": 51,
            "name": "D#3",
            "ticks": 29568,
            "time": 34.171599,
            "velocity": 1
          },
          {
            "duration": 0.11094674999999654,
            "durationTicks": 96,
            "midi": 44,
            "name": "G#2",
            "ticks": 29760,
            "time": 34.3934925,
            "velocity": 1
          },
          {
            "duration": 0.11094674999999654,
            "durationTicks": 96,
            "midi": 56,
            "name": "G#3",
            "ticks": 29760,
            "time": 34.3934925,
            "velocity": 1
          },
          {
            "duration": 0.11094674999999654,
            "durationTicks": 96,
            "midi": 51,
            "name": "D#3",
            "ticks": 29760,
            "time": 34.3934925,
            "velocity": 1
          },
          {
            "duration": 0.11094674999999654,
            "durationTicks": 96,
            "midi": 44,
            "name": "G#2",
            "ticks": 29952,
            "time": 34.615386,
            "velocity": 1
          },
          {
            "duration": 0.11094674999999654,
            "durationTicks": 96,
            "midi": 56,
            "name": "G#3",
            "ticks": 29952,
            "time": 34.615386,
            "velocity": 1
          },
          {
            "duration": 0.11094674999999654,
            "durationTicks": 96,
            "midi": 51,
            "name": "D#3",
            "ticks": 29952,
            "time": 34.615386,
            "velocity": 1
          },
          {
            "duration": 0.11094674999999654,
            "durationTicks": 96,
            "midi": 44,
            "name": "G#2",
            "ticks": 30144,
            "time": 34.8372795,
            "velocity": 1
          },
          {
            "duration": 0.11094674999999654,
            "durationTicks": 96,
            "midi": 56,
            "name": "G#3",
            "ticks": 30144,
            "time": 34.8372795,
            "velocity": 1
          },
          {
            "duration": 0.11094674999999654,
            "durationTicks": 96,
            "midi": 51,
            "name": "D#3",
            "ticks": 30144,
            "time": 34.8372795,
            "velocity": 1
          },
          {
            "duration": 0.11094674999999654,
            "durationTicks": 96,
            "midi": 44,
            "name": "G#2",
            "ticks": 30336,
            "time": 35.059173,
            "velocity": 1
          },
          {
            "duration": 0.11094674999999654,
            "durationTicks": 96,
            "midi": 56,
            "name": "G#3",
            "ticks": 30336,
            "time": 35.059173,
            "velocity": 1
          },
          {
            "duration": 0.11094674999999654,
            "durationTicks": 96,
            "midi": 51,
            "name": "D#3",
            "ticks": 30336,
            "time": 35.059173,
            "velocity": 1
          },
          {
            "duration": 0.4437870000000004,
            "durationTicks": 384,
            "midi": 44,
            "name": "G#2",
            "ticks": 30528,
            "time": 35.2810665,
            "velocity": 1
          },
          {
            "duration": 0.4437870000000004,
            "durationTicks": 384,
            "midi": 56,
            "name": "G#3",
            "ticks": 30528,
            "time": 35.2810665,
            "velocity": 1
          },
          {
            "duration": 0.4437870000000004,
            "durationTicks": 384,
            "midi": 51,
            "name": "D#3",
            "ticks": 30528,
            "time": 35.2810665,
            "velocity": 1
          },
          {
            "duration": 0.2218935000000002,
            "durationTicks": 192,
            "midi": 44,
            "name": "G#2",
            "ticks": 30912,
            "time": 35.7248535,
            "velocity": 1
          },
          {
            "duration": 0.2218935000000002,
            "durationTicks": 192,
            "midi": 56,
            "name": "G#3",
            "ticks": 30912,
            "time": 35.7248535,
            "velocity": 1
          },
          {
            "duration": 0.2218935000000002,
            "durationTicks": 192,
            "midi": 51,
            "name": "D#3",
            "ticks": 30912,
            "time": 35.7248535,
            "velocity": 1
          },
          {
            "duration": 0.4437870000000004,
            "durationTicks": 384,
            "midi": 47,
            "name": "B2",
            "ticks": 31104,
            "time": 35.946747,
            "velocity": 1
          },
          {
            "duration": 0.4437870000000004,
            "durationTicks": 384,
            "midi": 59,
            "name": "B3",
            "ticks": 31104,
            "time": 35.946747,
            "velocity": 1
          },
          {
            "duration": 0.4437870000000004,
            "durationTicks": 384,
            "midi": 54,
            "name": "F#3",
            "ticks": 31104,
            "time": 35.946747,
            "velocity": 1
          },
          {
            "duration": 0.6656804999999935,
            "durationTicks": 576,
            "midi": 49,
            "name": "C#3",
            "ticks": 31488,
            "time": 36.390534,
            "velocity": 1
          },
          {
            "duration": 0.6656804999999935,
            "durationTicks": 576,
            "midi": 61,
            "name": "C#4",
            "ticks": 31488,
            "time": 36.390534,
            "velocity": 1
          },
          {
            "duration": 0.6656804999999935,
            "durationTicks": 576,
            "midi": 56,
            "name": "G#3",
            "ticks": 31488,
            "time": 36.390534,
            "velocity": 1
          },
          {
            "duration": 0.4437870000000004,
            "durationTicks": 384,
            "midi": 44,
            "name": "G#2",
            "ticks": 32064,
            "time": 37.056214499999996,
            "velocity": 1
          },
          {
            "duration": 0.4437870000000004,
            "durationTicks": 384,
            "midi": 56,
            "name": "G#3",
            "ticks": 32064,
            "time": 37.056214499999996,
            "velocity": 1
          },
          {
            "duration": 0.4437870000000004,
            "durationTicks": 384,
            "midi": 51,
            "name": "D#3",
            "ticks": 32064,
            "time": 37.056214499999996,
            "velocity": 1
          },
          {
            "duration": 0.2218935000000002,
            "durationTicks": 192,
            "midi": 44,
            "name": "G#2",
            "ticks": 32448,
            "time": 37.500001499999996,
            "velocity": 1
          },
          {
            "duration": 0.2218935000000002,
            "durationTicks": 192,
            "midi": 56,
            "name": "G#3",
            "ticks": 32448,
            "time": 37.500001499999996,
            "velocity": 1
          },
          {
            "duration": 0.2218935000000002,
            "durationTicks": 192,
            "midi": 51,
            "name": "D#3",
            "ticks": 32448,
            "time": 37.500001499999996,
            "velocity": 1
          },
          {
            "duration": 0.4437870000000004,
            "durationTicks": 384,
            "midi": 47,
            "name": "B2",
            "ticks": 32640,
            "time": 37.721894999999996,
            "velocity": 1
          },
          {
            "duration": 0.4437870000000004,
            "durationTicks": 384,
            "midi": 59,
            "name": "B3",
            "ticks": 32640,
            "time": 37.721894999999996,
            "velocity": 1
          },
          {
            "duration": 0.4437870000000004,
            "durationTicks": 384,
            "midi": 54,
            "name": "F#3",
            "ticks": 32640,
            "time": 37.721894999999996,
            "velocity": 1
          },
          {
            "duration": 0.8875740000000008,
            "durationTicks": 768,
            "midi": 49,
            "name": "C#3",
            "ticks": 33024,
            "time": 38.165682,
            "velocity": 1
          },
          {
            "duration": 0.8875740000000008,
            "durationTicks": 768,
            "midi": 61,
            "name": "C#4",
            "ticks": 33024,
            "time": 38.165682,
            "velocity": 1
          },
          {
            "duration": 0.8875740000000008,
            "durationTicks": 768,
            "midi": 56,
            "name": "G#3",
            "ticks": 33024,
            "time": 38.165682,
            "velocity": 1
          },
          {
            "duration": 0.11094675000000365,
            "durationTicks": 96,
            "midi": 44,
            "name": "G#2",
            "ticks": 33792,
            "time": 39.053256,
            "velocity": 1
          },
          {
            "duration": 0.11094675000000365,
            "durationTicks": 96,
            "midi": 56,
            "name": "G#3",
            "ticks": 33792,
            "time": 39.053256,
            "velocity": 1
          },
          {
            "duration": 0.11094675000000365,
            "durationTicks": 96,
            "midi": 51,
            "name": "D#3",
            "ticks": 33792,
            "time": 39.053256,
            "velocity": 1
          },
          {
            "duration": 0.11094675000000365,
            "durationTicks": 96,
            "midi": 44,
            "name": "G#2",
            "ticks": 33984,
            "time": 39.2751495,
            "velocity": 1
          },
          {
            "duration": 0.11094675000000365,
            "durationTicks": 96,
            "midi": 56,
            "name": "G#3",
            "ticks": 33984,
            "time": 39.2751495,
            "velocity": 1
          },
          {
            "duration": 0.11094675000000365,
            "durationTicks": 96,
            "midi": 51,
            "name": "D#3",
            "ticks": 33984,
            "time": 39.2751495,
            "velocity": 1
          },
          {
            "duration": 0.11094675000000365,
            "durationTicks": 96,
            "midi": 44,
            "name": "G#2",
            "ticks": 34176,
            "time": 39.497043,
            "velocity": 1
          },
          {
            "duration": 0.11094675000000365,
            "durationTicks": 96,
            "midi": 56,
            "name": "G#3",
            "ticks": 34176,
            "time": 39.497043,
            "velocity": 1
          },
          {
            "duration": 0.11094675000000365,
            "durationTicks": 96,
            "midi": 51,
            "name": "D#3",
            "ticks": 34176,
            "time": 39.497043,
            "velocity": 1
          },
          {
            "duration": 0.11094675000000365,
            "durationTicks": 96,
            "midi": 44,
            "name": "G#2",
            "ticks": 34368,
            "time": 39.7189365,
            "velocity": 1
          },
          {
            "duration": 0.11094675000000365,
            "durationTicks": 96,
            "midi": 56,
            "name": "G#3",
            "ticks": 34368,
            "time": 39.7189365,
            "velocity": 1
          },
          {
            "duration": 0.11094675000000365,
            "durationTicks": 96,
            "midi": 51,
            "name": "D#3",
            "ticks": 34368,
            "time": 39.7189365,
            "velocity": 1
          },
          {
            "duration": 0.11094675000000365,
            "durationTicks": 96,
            "midi": 44,
            "name": "G#2",
            "ticks": 34560,
            "time": 39.94083,
            "velocity": 1
          },
          {
            "duration": 0.11094675000000365,
            "durationTicks": 96,
            "midi": 56,
            "name": "G#3",
            "ticks": 34560,
            "time": 39.94083,
            "velocity": 1
          },
          {
            "duration": 0.11094675000000365,
            "durationTicks": 96,
            "midi": 51,
            "name": "D#3",
            "ticks": 34560,
            "time": 39.94083,
            "velocity": 1
          },
          {
            "duration": 0.11094675000000365,
            "durationTicks": 96,
            "midi": 44,
            "name": "G#2",
            "ticks": 34752,
            "time": 40.1627235,
            "velocity": 1
          },
          {
            "duration": 0.11094675000000365,
            "durationTicks": 96,
            "midi": 56,
            "name": "G#3",
            "ticks": 34752,
            "time": 40.1627235,
            "velocity": 1
          },
          {
            "duration": 0.11094675000000365,
            "durationTicks": 96,
            "midi": 51,
            "name": "D#3",
            "ticks": 34752,
            "time": 40.1627235,
            "velocity": 1
          },
          {
            "duration": 0.11094675000000365,
            "durationTicks": 96,
            "midi": 44,
            "name": "G#2",
            "ticks": 34944,
            "time": 40.384617,
            "velocity": 1
          },
          {
            "duration": 0.11094675000000365,
            "durationTicks": 96,
            "midi": 56,
            "name": "G#3",
            "ticks": 34944,
            "time": 40.384617,
            "velocity": 1
          },
          {
            "duration": 0.11094675000000365,
            "durationTicks": 96,
            "midi": 51,
            "name": "D#3",
            "ticks": 34944,
            "time": 40.384617,
            "velocity": 1
          },
          {
            "duration": 0.11094674999999654,
            "durationTicks": 96,
            "midi": 44,
            "name": "G#2",
            "ticks": 35136,
            "time": 40.6065105,
            "velocity": 1
          },
          {
            "duration": 0.11094674999999654,
            "durationTicks": 96,
            "midi": 56,
            "name": "G#3",
            "ticks": 35136,
            "time": 40.6065105,
            "velocity": 1
          },
          {
            "duration": 0.11094674999999654,
            "durationTicks": 96,
            "midi": 51,
            "name": "D#3",
            "ticks": 35136,
            "time": 40.6065105,
            "velocity": 1
          },
          {
            "duration": 0.11094674999999654,
            "durationTicks": 96,
            "midi": 44,
            "name": "G#2",
            "ticks": 35328,
            "time": 40.828404,
            "velocity": 1
          },
          {
            "duration": 0.11094674999999654,
            "durationTicks": 96,
            "midi": 56,
            "name": "G#3",
            "ticks": 35328,
            "time": 40.828404,
            "velocity": 1
          },
          {
            "duration": 0.11094674999999654,
            "durationTicks": 96,
            "midi": 51,
            "name": "D#3",
            "ticks": 35328,
            "time": 40.828404,
            "velocity": 1
          },
          {
            "duration": 0.11094674999999654,
            "durationTicks": 96,
            "midi": 44,
            "name": "G#2",
            "ticks": 35520,
            "time": 41.0502975,
            "velocity": 1
          },
          {
            "duration": 0.11094674999999654,
            "durationTicks": 96,
            "midi": 56,
            "name": "G#3",
            "ticks": 35520,
            "time": 41.0502975,
            "velocity": 1
          },
          {
            "duration": 0.11094674999999654,
            "durationTicks": 96,
            "midi": 51,
            "name": "D#3",
            "ticks": 35520,
            "time": 41.0502975,
            "velocity": 1
          },
          {
            "duration": 0.11094674999999654,
            "durationTicks": 96,
            "midi": 44,
            "name": "G#2",
            "ticks": 35712,
            "time": 41.272191,
            "velocity": 1
          },
          {
            "duration": 0.11094674999999654,
            "durationTicks": 96,
            "midi": 56,
            "name": "G#3",
            "ticks": 35712,
            "time": 41.272191,
            "velocity": 1
          },
          {
            "duration": 0.11094674999999654,
            "durationTicks": 96,
            "midi": 51,
            "name": "D#3",
            "ticks": 35712,
            "time": 41.272191,
            "velocity": 1
          },
          {
            "duration": 0.11094674999999654,
            "durationTicks": 96,
            "midi": 44,
            "name": "G#2",
            "ticks": 35904,
            "time": 41.4940845,
            "velocity": 1
          },
          {
            "duration": 0.11094674999999654,
            "durationTicks": 96,
            "midi": 56,
            "name": "G#3",
            "ticks": 35904,
            "time": 41.4940845,
            "velocity": 1
          },
          {
            "duration": 0.11094674999999654,
            "durationTicks": 96,
            "midi": 51,
            "name": "D#3",
            "ticks": 35904,
            "time": 41.4940845,
            "velocity": 1
          },
          {
            "duration": 0.11094674999999654,
            "durationTicks": 96,
            "midi": 44,
            "name": "G#2",
            "ticks": 36096,
            "time": 41.715978,
            "velocity": 1
          },
          {
            "duration": 0.11094674999999654,
            "durationTicks": 96,
            "midi": 56,
            "name": "G#3",
            "ticks": 36096,
            "time": 41.715978,
            "velocity": 1
          },
          {
            "duration": 0.11094674999999654,
            "durationTicks": 96,
            "midi": 51,
            "name": "D#3",
            "ticks": 36096,
            "time": 41.715978,
            "velocity": 1
          },
          {
            "duration": 0.11094674999999654,
            "durationTicks": 96,
            "midi": 44,
            "name": "G#2",
            "ticks": 36288,
            "time": 41.9378715,
            "velocity": 1
          },
          {
            "duration": 0.11094674999999654,
            "durationTicks": 96,
            "midi": 56,
            "name": "G#3",
            "ticks": 36288,
            "time": 41.9378715,
            "velocity": 1
          },
          {
            "duration": 0.11094674999999654,
            "durationTicks": 96,
            "midi": 51,
            "name": "D#3",
            "ticks": 36288,
            "time": 41.9378715,
            "velocity": 1
          },
          {
            "duration": 0.11094674999999654,
            "durationTicks": 96,
            "midi": 44,
            "name": "G#2",
            "ticks": 36480,
            "time": 42.159765,
            "velocity": 1
          },
          {
            "duration": 0.11094674999999654,
            "durationTicks": 96,
            "midi": 56,
            "name": "G#3",
            "ticks": 36480,
            "time": 42.159765,
            "velocity": 1
          },
          {
            "duration": 0.11094674999999654,
            "durationTicks": 96,
            "midi": 51,
            "name": "D#3",
            "ticks": 36480,
            "time": 42.159765,
            "velocity": 1
          },
          {
            "duration": 0.4437870000000004,
            "durationTicks": 384,
            "midi": 44,
            "name": "G#2",
            "ticks": 36672,
            "time": 42.3816585,
            "velocity": 1
          },
          {
            "duration": 0.4437870000000004,
            "durationTicks": 384,
            "midi": 56,
            "name": "G#3",
            "ticks": 36672,
            "time": 42.3816585,
            "velocity": 1
          },
          {
            "duration": 0.4437870000000004,
            "durationTicks": 384,
            "midi": 51,
            "name": "D#3",
            "ticks": 36672,
            "time": 42.3816585,
            "velocity": 1
          },
          {
            "duration": 0.2218935000000002,
            "durationTicks": 192,
            "midi": 44,
            "name": "G#2",
            "ticks": 37056,
            "time": 42.8254455,
            "velocity": 1
          },
          {
            "duration": 0.2218935000000002,
            "durationTicks": 192,
            "midi": 56,
            "name": "G#3",
            "ticks": 37056,
            "time": 42.8254455,
            "velocity": 1
          },
          {
            "duration": 0.2218935000000002,
            "durationTicks": 192,
            "midi": 51,
            "name": "D#3",
            "ticks": 37056,
            "time": 42.8254455,
            "velocity": 1
          },
          {
            "duration": 0.4437870000000004,
            "durationTicks": 384,
            "midi": 47,
            "name": "B2",
            "ticks": 37248,
            "time": 43.047339,
            "velocity": 1
          },
          {
            "duration": 0.4437870000000004,
            "durationTicks": 384,
            "midi": 59,
            "name": "B3",
            "ticks": 37248,
            "time": 43.047339,
            "velocity": 1
          },
          {
            "duration": 0.4437870000000004,
            "durationTicks": 384,
            "midi": 54,
            "name": "F#3",
            "ticks": 37248,
            "time": 43.047339,
            "velocity": 1
          },
          {
            "duration": 0.6656805000000006,
            "durationTicks": 576,
            "midi": 49,
            "name": "C#3",
            "ticks": 37632,
            "time": 43.491126,
            "velocity": 1
          },
          {
            "duration": 0.6656805000000006,
            "durationTicks": 576,
            "midi": 61,
            "name": "C#4",
            "ticks": 37632,
            "time": 43.491126,
            "velocity": 1
          },
          {
            "duration": 0.6656805000000006,
            "durationTicks": 576,
            "midi": 56,
            "name": "G#3",
            "ticks": 37632,
            "time": 43.491126,
            "velocity": 1
          },
          {
            "duration": 0.2218935000000002,
            "durationTicks": 192,
            "midi": 44,
            "name": "G#2",
            "ticks": 38208,
            "time": 44.1568065,
            "velocity": 1
          },
          {
            "duration": 0.2218935000000002,
            "durationTicks": 192,
            "midi": 56,
            "name": "G#3",
            "ticks": 38208,
            "time": 44.1568065,
            "velocity": 1
          },
          {
            "duration": 0.2218935000000002,
            "durationTicks": 192,
            "midi": 51,
            "name": "D#3",
            "ticks": 38208,
            "time": 44.1568065,
            "velocity": 1
          },
          {
            "duration": 0.2218935000000002,
            "durationTicks": 192,
            "midi": 49,
            "name": "C#3",
            "ticks": 40320,
            "time": 46.597635,
            "velocity": 1
          },
          {
            "duration": 0.2218935000000002,
            "durationTicks": 192,
            "midi": 61,
            "name": "C#4",
            "ticks": 40320,
            "time": 46.597635,
            "velocity": 1
          },
          {
            "duration": 0.2218935000000002,
            "durationTicks": 192,
            "midi": 56,
            "name": "G#3",
            "ticks": 40320,
            "time": 46.597635,
            "velocity": 1
          },
          {
            "duration": 0.2218935000000002,
            "durationTicks": 192,
            "midi": 49,
            "name": "C#3",
            "ticks": 40704,
            "time": 47.041422,
            "velocity": 1
          },
          {
            "duration": 0.2218935000000002,
            "durationTicks": 192,
            "midi": 61,
            "name": "C#4",
            "ticks": 40704,
            "time": 47.041422,
            "velocity": 1
          },
          {
            "duration": 0.2218935000000002,
            "durationTicks": 192,
            "midi": 56,
            "name": "G#3",
            "ticks": 40704,
            "time": 47.041422,
            "velocity": 1
          },
          {
            "duration": 0.2218935000000002,
            "durationTicks": 192,
            "midi": 49,
            "name": "C#3",
            "ticks": 42240,
            "time": 48.81657,
            "velocity": 1
          },
          {
            "duration": 0.2218935000000002,
            "durationTicks": 192,
            "midi": 61,
            "name": "C#4",
            "ticks": 42240,
            "time": 48.81657,
            "velocity": 1
          },
          {
            "duration": 0.2218935000000002,
            "durationTicks": 192,
            "midi": 56,
            "name": "G#3",
            "ticks": 42240,
            "time": 48.81657,
            "velocity": 1
          },
          {
            "duration": 0.4437870000000004,
            "durationTicks": 384,
            "midi": 44,
            "name": "G#2",
            "ticks": 42816,
            "time": 49.4822505,
            "velocity": 1
          },
          {
            "duration": 0.4437870000000004,
            "durationTicks": 384,
            "midi": 56,
            "name": "G#3",
            "ticks": 42816,
            "time": 49.4822505,
            "velocity": 1
          },
          {
            "duration": 0.4437870000000004,
            "durationTicks": 384,
            "midi": 51,
            "name": "D#3",
            "ticks": 42816,
            "time": 49.4822505,
            "velocity": 1
          },
          {
            "duration": 0.2218935000000002,
            "durationTicks": 192,
            "midi": 44,
            "name": "G#2",
            "ticks": 43200,
            "time": 49.9260375,
            "velocity": 1
          },
          {
            "duration": 0.2218935000000002,
            "durationTicks": 192,
            "midi": 56,
            "name": "G#3",
            "ticks": 43200,
            "time": 49.9260375,
            "velocity": 1
          },
          {
            "duration": 0.2218935000000002,
            "durationTicks": 192,
            "midi": 51,
            "name": "D#3",
            "ticks": 43200,
            "time": 49.9260375,
            "velocity": 1
          },
          {
            "duration": 0.4437870000000004,
            "durationTicks": 384,
            "midi": 47,
            "name": "B2",
            "ticks": 43392,
            "time": 50.147931,
            "velocity": 1
          },
          {
            "duration": 0.4437870000000004,
            "durationTicks": 384,
            "midi": 59,
            "name": "B3",
            "ticks": 43392,
            "time": 50.147931,
            "velocity": 1
          },
          {
            "duration": 0.4437870000000004,
            "durationTicks": 384,
            "midi": 54,
            "name": "F#3",
            "ticks": 43392,
            "time": 50.147931,
            "velocity": 1
          },
          {
            "duration": 0.6656805000000006,
            "durationTicks": 576,
            "midi": 49,
            "name": "C#3",
            "ticks": 43776,
            "time": 50.591718,
            "velocity": 1
          },
          {
            "duration": 0.6656805000000006,
            "durationTicks": 576,
            "midi": 61,
            "name": "C#4",
            "ticks": 43776,
            "time": 50.591718,
            "velocity": 1
          },
          {
            "duration": 0.6656805000000006,
            "durationTicks": 576,
            "midi": 56,
            "name": "G#3",
            "ticks": 43776,
            "time": 50.591718,
            "velocity": 1
          },
          {
            "duration": 0.4437870000000004,
            "durationTicks": 384,
            "midi": 44,
            "name": "G#2",
            "ticks": 44352,
            "time": 51.2573985,
            "velocity": 1
          },
          {
            "duration": 0.4437870000000004,
            "durationTicks": 384,
            "midi": 56,
            "name": "G#3",
            "ticks": 44352,
            "time": 51.2573985,
            "velocity": 1
          },
          {
            "duration": 0.4437870000000004,
            "durationTicks": 384,
            "midi": 51,
            "name": "D#3",
            "ticks": 44352,
            "time": 51.2573985,
            "velocity": 1
          },
          {
            "duration": 0.2218935000000002,
            "durationTicks": 192,
            "midi": 44,
            "name": "G#2",
            "ticks": 44736,
            "time": 51.7011855,
            "velocity": 1
          },
          {
            "duration": 0.2218935000000002,
            "durationTicks": 192,
            "midi": 56,
            "name": "G#3",
            "ticks": 44736,
            "time": 51.7011855,
            "velocity": 1
          },
          {
            "duration": 0.2218935000000002,
            "durationTicks": 192,
            "midi": 51,
            "name": "D#3",
            "ticks": 44736,
            "time": 51.7011855,
            "velocity": 1
          },
          {
            "duration": 0.4437870000000004,
            "durationTicks": 384,
            "midi": 47,
            "name": "B2",
            "ticks": 44928,
            "time": 51.923079,
            "velocity": 1
          },
          {
            "duration": 0.4437870000000004,
            "durationTicks": 384,
            "midi": 59,
            "name": "B3",
            "ticks": 44928,
            "time": 51.923079,
            "velocity": 1
          },
          {
            "duration": 0.4437870000000004,
            "durationTicks": 384,
            "midi": 54,
            "name": "F#3",
            "ticks": 44928,
            "time": 51.923079,
            "velocity": 1
          },
          {
            "duration": 0.6656804999999935,
            "durationTicks": 576,
            "midi": 49,
            "name": "C#3",
            "ticks": 45312,
            "time": 52.366866,
            "velocity": 1
          },
          {
            "duration": 0.6656804999999935,
            "durationTicks": 576,
            "midi": 61,
            "name": "C#4",
            "ticks": 45312,
            "time": 52.366866,
            "velocity": 1
          },
          {
            "duration": 0.6656804999999935,
            "durationTicks": 576,
            "midi": 56,
            "name": "G#3",
            "ticks": 45312,
            "time": 52.366866,
            "velocity": 1
          },
          {
            "duration": 0.4437870000000004,
            "durationTicks": 384,
            "midi": 44,
            "name": "G#2",
            "ticks": 45888,
            "time": 53.032546499999995,
            "velocity": 1
          },
          {
            "duration": 0.4437870000000004,
            "durationTicks": 384,
            "midi": 56,
            "name": "G#3",
            "ticks": 45888,
            "time": 53.032546499999995,
            "velocity": 1
          },
          {
            "duration": 0.4437870000000004,
            "durationTicks": 384,
            "midi": 51,
            "name": "D#3",
            "ticks": 45888,
            "time": 53.032546499999995,
            "velocity": 1
          },
          {
            "duration": 0.2218935000000002,
            "durationTicks": 192,
            "midi": 44,
            "name": "G#2",
            "ticks": 46272,
            "time": 53.476333499999996,
            "velocity": 1
          },
          {
            "duration": 0.2218935000000002,
            "durationTicks": 192,
            "midi": 56,
            "name": "G#3",
            "ticks": 46272,
            "time": 53.476333499999996,
            "velocity": 1
          },
          {
            "duration": 0.2218935000000002,
            "durationTicks": 192,
            "midi": 51,
            "name": "D#3",
            "ticks": 46272,
            "time": 53.476333499999996,
            "velocity": 1
          },
          {
            "duration": 0.4437870000000004,
            "durationTicks": 384,
            "midi": 47,
            "name": "B2",
            "ticks": 46464,
            "time": 53.698226999999996,
            "velocity": 1
          },
          {
            "duration": 0.4437870000000004,
            "durationTicks": 384,
            "midi": 59,
            "name": "B3",
            "ticks": 46464,
            "time": 53.698226999999996,
            "velocity": 1
          },
          {
            "duration": 0.4437870000000004,
            "durationTicks": 384,
            "midi": 54,
            "name": "F#3",
            "ticks": 46464,
            "time": 53.698226999999996,
            "velocity": 1
          },
          {
            "duration": 0.6656805000000006,
            "durationTicks": 576,
            "midi": 49,
            "name": "C#3",
            "ticks": 46848,
            "time": 54.142013999999996,
            "velocity": 1
          },
          {
            "duration": 0.6656805000000006,
            "durationTicks": 576,
            "midi": 61,
            "name": "C#4",
            "ticks": 46848,
            "time": 54.142013999999996,
            "velocity": 1
          },
          {
            "duration": 0.6656805000000006,
            "durationTicks": 576,
            "midi": 56,
            "name": "G#3",
            "ticks": 46848,
            "time": 54.142013999999996,
            "velocity": 1
          },
          {
            "duration": 0.4437870000000004,
            "durationTicks": 384,
            "midi": 44,
            "name": "G#2",
            "ticks": 47424,
            "time": 54.8076945,
            "velocity": 1
          },
          {
            "duration": 0.4437870000000004,
            "durationTicks": 384,
            "midi": 56,
            "name": "G#3",
            "ticks": 47424,
            "time": 54.8076945,
            "velocity": 1
          },
          {
            "duration": 0.4437870000000004,
            "durationTicks": 384,
            "midi": 51,
            "name": "D#3",
            "ticks": 47424,
            "time": 54.8076945,
            "velocity": 1
          },
          {
            "duration": 0.2218935000000002,
            "durationTicks": 192,
            "midi": 44,
            "name": "G#2",
            "ticks": 47808,
            "time": 55.2514815,
            "velocity": 1
          },
          {
            "duration": 0.2218935000000002,
            "durationTicks": 192,
            "midi": 56,
            "name": "G#3",
            "ticks": 47808,
            "time": 55.2514815,
            "velocity": 1
          },
          {
            "duration": 0.2218935000000002,
            "durationTicks": 192,
            "midi": 51,
            "name": "D#3",
            "ticks": 47808,
            "time": 55.2514815,
            "velocity": 1
          },
          {
            "duration": 0.4437870000000004,
            "durationTicks": 384,
            "midi": 47,
            "name": "B2",
            "ticks": 48000,
            "time": 55.473375,
            "velocity": 1
          },
          {
            "duration": 0.4437870000000004,
            "durationTicks": 384,
            "midi": 59,
            "name": "B3",
            "ticks": 48000,
            "time": 55.473375,
            "velocity": 1
          },
          {
            "duration": 0.4437870000000004,
            "durationTicks": 384,
            "midi": 54,
            "name": "F#3",
            "ticks": 48000,
            "time": 55.473375,
            "velocity": 1
          },
          {
            "duration": 0.6656805000000006,
            "durationTicks": 576,
            "midi": 49,
            "name": "C#3",
            "ticks": 48384,
            "time": 55.917162,
            "velocity": 1
          },
          {
            "duration": 0.6656805000000006,
            "durationTicks": 576,
            "midi": 61,
            "name": "C#4",
            "ticks": 48384,
            "time": 55.917162,
            "velocity": 1
          },
          {
            "duration": 0.6656805000000006,
            "durationTicks": 576,
            "midi": 56,
            "name": "G#3",
            "ticks": 48384,
            "time": 55.917162,
            "velocity": 1
          },
          {
            "duration": 0.2218935000000002,
            "durationTicks": 192,
            "midi": 44,
            "name": "G#2",
            "ticks": 48960,
            "time": 56.5828425,
            "velocity": 1
          },
          {
            "duration": 0.2218935000000002,
            "durationTicks": 192,
            "midi": 56,
            "name": "G#3",
            "ticks": 48960,
            "time": 56.5828425,
            "velocity": 1
          },
          {
            "duration": 0.2218935000000002,
            "durationTicks": 192,
            "midi": 51,
            "name": "D#3",
            "ticks": 48960,
            "time": 56.5828425,
            "velocity": 1
          },
          {
            "duration": 0.11094674999999654,
            "durationTicks": 96,
            "midi": 44,
            "name": "G#2",
            "ticks": 49152,
            "time": 56.804736,
            "velocity": 1
          },
          {
            "duration": 0.11094674999999654,
            "durationTicks": 96,
            "midi": 56,
            "name": "G#3",
            "ticks": 49152,
            "time": 56.804736,
            "velocity": 1
          },
          {
            "duration": 0.11094674999999654,
            "durationTicks": 96,
            "midi": 51,
            "name": "D#3",
            "ticks": 49152,
            "time": 56.804736,
            "velocity": 1
          },
          {
            "duration": 0.11094674999999654,
            "durationTicks": 96,
            "midi": 44,
            "name": "G#2",
            "ticks": 49344,
            "time": 57.0266295,
            "velocity": 1
          },
          {
            "duration": 0.11094674999999654,
            "durationTicks": 96,
            "midi": 56,
            "name": "G#3",
            "ticks": 49344,
            "time": 57.0266295,
            "velocity": 1
          },
          {
            "duration": 0.11094674999999654,
            "durationTicks": 96,
            "midi": 51,
            "name": "D#3",
            "ticks": 49344,
            "time": 57.0266295,
            "velocity": 1
          },
          {
            "duration": 0.11094674999999654,
            "durationTicks": 96,
            "midi": 44,
            "name": "G#2",
            "ticks": 49536,
            "time": 57.248523,
            "velocity": 1
          },
          {
            "duration": 0.11094674999999654,
            "durationTicks": 96,
            "midi": 56,
            "name": "G#3",
            "ticks": 49536,
            "time": 57.248523,
            "velocity": 1
          },
          {
            "duration": 0.11094674999999654,
            "durationTicks": 96,
            "midi": 51,
            "name": "D#3",
            "ticks": 49536,
            "time": 57.248523,
            "velocity": 1
          },
          {
            "duration": 0.11094674999999654,
            "durationTicks": 96,
            "midi": 44,
            "name": "G#2",
            "ticks": 49728,
            "time": 57.4704165,
            "velocity": 1
          },
          {
            "duration": 0.11094674999999654,
            "durationTicks": 96,
            "midi": 56,
            "name": "G#3",
            "ticks": 49728,
            "time": 57.4704165,
            "velocity": 1
          },
          {
            "duration": 0.11094674999999654,
            "durationTicks": 96,
            "midi": 51,
            "name": "D#3",
            "ticks": 49728,
            "time": 57.4704165,
            "velocity": 1
          },
          {
            "duration": 0.11094674999999654,
            "durationTicks": 96,
            "midi": 44,
            "name": "G#2",
            "ticks": 49920,
            "time": 57.69231,
            "velocity": 1
          },
          {
            "duration": 0.11094674999999654,
            "durationTicks": 96,
            "midi": 56,
            "name": "G#3",
            "ticks": 49920,
            "time": 57.69231,
            "velocity": 1
          },
          {
            "duration": 0.11094674999999654,
            "durationTicks": 96,
            "midi": 51,
            "name": "D#3",
            "ticks": 49920,
            "time": 57.69231,
            "velocity": 1
          },
          {
            "duration": 0.11094674999999654,
            "durationTicks": 96,
            "midi": 44,
            "name": "G#2",
            "ticks": 50112,
            "time": 57.9142035,
            "velocity": 1
          },
          {
            "duration": 0.11094674999999654,
            "durationTicks": 96,
            "midi": 56,
            "name": "G#3",
            "ticks": 50112,
            "time": 57.9142035,
            "velocity": 1
          },
          {
            "duration": 0.11094674999999654,
            "durationTicks": 96,
            "midi": 51,
            "name": "D#3",
            "ticks": 50112,
            "time": 57.9142035,
            "velocity": 1
          },
          {
            "duration": 0.11094674999999654,
            "durationTicks": 96,
            "midi": 44,
            "name": "G#2",
            "ticks": 50304,
            "time": 58.136097,
            "velocity": 1
          },
          {
            "duration": 0.11094674999999654,
            "durationTicks": 96,
            "midi": 56,
            "name": "G#3",
            "ticks": 50304,
            "time": 58.136097,
            "velocity": 1
          },
          {
            "duration": 0.11094674999999654,
            "durationTicks": 96,
            "midi": 51,
            "name": "D#3",
            "ticks": 50304,
            "time": 58.136097,
            "velocity": 1
          },
          {
            "duration": 0.11094674999999654,
            "durationTicks": 96,
            "midi": 44,
            "name": "G#2",
            "ticks": 50496,
            "time": 58.3579905,
            "velocity": 1
          },
          {
            "duration": 0.11094674999999654,
            "durationTicks": 96,
            "midi": 56,
            "name": "G#3",
            "ticks": 50496,
            "time": 58.3579905,
            "velocity": 1
          },
          {
            "duration": 0.11094674999999654,
            "durationTicks": 96,
            "midi": 51,
            "name": "D#3",
            "ticks": 50496,
            "time": 58.3579905,
            "velocity": 1
          },
          {
            "duration": 0.11094674999999654,
            "durationTicks": 96,
            "midi": 44,
            "name": "G#2",
            "ticks": 50688,
            "time": 58.579884,
            "velocity": 1
          },
          {
            "duration": 0.11094674999999654,
            "durationTicks": 96,
            "midi": 56,
            "name": "G#3",
            "ticks": 50688,
            "time": 58.579884,
            "velocity": 1
          },
          {
            "duration": 0.11094674999999654,
            "durationTicks": 96,
            "midi": 51,
            "name": "D#3",
            "ticks": 50688,
            "time": 58.579884,
            "velocity": 1
          },
          {
            "duration": 0.11094674999999654,
            "durationTicks": 96,
            "midi": 44,
            "name": "G#2",
            "ticks": 50880,
            "time": 58.8017775,
            "velocity": 1
          },
          {
            "duration": 0.11094674999999654,
            "durationTicks": 96,
            "midi": 56,
            "name": "G#3",
            "ticks": 50880,
            "time": 58.8017775,
            "velocity": 1
          },
          {
            "duration": 0.11094674999999654,
            "durationTicks": 96,
            "midi": 51,
            "name": "D#3",
            "ticks": 50880,
            "time": 58.8017775,
            "velocity": 1
          },
          {
            "duration": 0.11094674999999654,
            "durationTicks": 96,
            "midi": 44,
            "name": "G#2",
            "ticks": 51072,
            "time": 59.023671,
            "velocity": 1
          },
          {
            "duration": 0.11094674999999654,
            "durationTicks": 96,
            "midi": 56,
            "name": "G#3",
            "ticks": 51072,
            "time": 59.023671,
            "velocity": 1
          },
          {
            "duration": 0.11094674999999654,
            "durationTicks": 96,
            "midi": 51,
            "name": "D#3",
            "ticks": 51072,
            "time": 59.023671,
            "velocity": 1
          },
          {
            "duration": 0.11094674999999654,
            "durationTicks": 96,
            "midi": 44,
            "name": "G#2",
            "ticks": 51264,
            "time": 59.2455645,
            "velocity": 1
          },
          {
            "duration": 0.11094674999999654,
            "durationTicks": 96,
            "midi": 56,
            "name": "G#3",
            "ticks": 51264,
            "time": 59.2455645,
            "velocity": 1
          },
          {
            "duration": 0.11094674999999654,
            "durationTicks": 96,
            "midi": 51,
            "name": "D#3",
            "ticks": 51264,
            "time": 59.2455645,
            "velocity": 1
          },
          {
            "duration": 0.11094674999999654,
            "durationTicks": 96,
            "midi": 44,
            "name": "G#2",
            "ticks": 51456,
            "time": 59.467458,
            "velocity": 1
          },
          {
            "duration": 0.11094674999999654,
            "durationTicks": 96,
            "midi": 56,
            "name": "G#3",
            "ticks": 51456,
            "time": 59.467458,
            "velocity": 1
          },
          {
            "duration": 0.11094674999999654,
            "durationTicks": 96,
            "midi": 51,
            "name": "D#3",
            "ticks": 51456,
            "time": 59.467458,
            "velocity": 1
          },
          {
            "duration": 0.11094674999999654,
            "durationTicks": 96,
            "midi": 44,
            "name": "G#2",
            "ticks": 51648,
            "time": 59.6893515,
            "velocity": 1
          },
          {
            "duration": 0.11094674999999654,
            "durationTicks": 96,
            "midi": 56,
            "name": "G#3",
            "ticks": 51648,
            "time": 59.6893515,
            "velocity": 1
          },
          {
            "duration": 0.11094674999999654,
            "durationTicks": 96,
            "midi": 51,
            "name": "D#3",
            "ticks": 51648,
            "time": 59.6893515,
            "velocity": 1
          },
          {
            "duration": 0.11094674999999654,
            "durationTicks": 96,
            "midi": 44,
            "name": "G#2",
            "ticks": 51840,
            "time": 59.911245,
            "velocity": 1
          },
          {
            "duration": 0.11094674999999654,
            "durationTicks": 96,
            "midi": 56,
            "name": "G#3",
            "ticks": 51840,
            "time": 59.911245,
            "velocity": 1
          },
          {
            "duration": 0.11094674999999654,
            "durationTicks": 96,
            "midi": 51,
            "name": "D#3",
            "ticks": 51840,
            "time": 59.911245,
            "velocity": 1
          },
          {
            "duration": 0.4437870000000004,
            "durationTicks": 384,
            "midi": 44,
            "name": "G#2",
            "ticks": 52032,
            "time": 60.1331385,
            "velocity": 1
          },
          {
            "duration": 0.4437870000000004,
            "durationTicks": 384,
            "midi": 56,
            "name": "G#3",
            "ticks": 52032,
            "time": 60.1331385,
            "velocity": 1
          },
          {
            "duration": 0.4437870000000004,
            "durationTicks": 384,
            "midi": 51,
            "name": "D#3",
            "ticks": 52032,
            "time": 60.1331385,
            "velocity": 1
          },
          {
            "duration": 0.2218935000000002,
            "durationTicks": 192,
            "midi": 44,
            "name": "G#2",
            "ticks": 52416,
            "time": 60.5769255,
            "velocity": 1
          },
          {
            "duration": 0.2218935000000002,
            "durationTicks": 192,
            "midi": 56,
            "name": "G#3",
            "ticks": 52416,
            "time": 60.5769255,
            "velocity": 1
          },
          {
            "duration": 0.2218935000000002,
            "durationTicks": 192,
            "midi": 51,
            "name": "D#3",
            "ticks": 52416,
            "time": 60.5769255,
            "velocity": 1
          },
          {
            "duration": 0.44378699999999327,
            "durationTicks": 384,
            "midi": 47,
            "name": "B2",
            "ticks": 52608,
            "time": 60.798819,
            "velocity": 1
          },
          {
            "duration": 0.44378699999999327,
            "durationTicks": 384,
            "midi": 59,
            "name": "B3",
            "ticks": 52608,
            "time": 60.798819,
            "velocity": 1
          },
          {
            "duration": 0.44378699999999327,
            "durationTicks": 384,
            "midi": 54,
            "name": "F#3",
            "ticks": 52608,
            "time": 60.798819,
            "velocity": 1
          },
          {
            "duration": 0.6656805000000006,
            "durationTicks": 576,
            "midi": 49,
            "name": "C#3",
            "ticks": 52992,
            "time": 61.242605999999995,
            "velocity": 1
          },
          {
            "duration": 0.6656805000000006,
            "durationTicks": 576,
            "midi": 61,
            "name": "C#4",
            "ticks": 52992,
            "time": 61.242605999999995,
            "velocity": 1
          },
          {
            "duration": 0.6656805000000006,
            "durationTicks": 576,
            "midi": 56,
            "name": "G#3",
            "ticks": 52992,
            "time": 61.242605999999995,
            "velocity": 1
          },
          {
            "duration": 0.4437870000000004,
            "durationTicks": 384,
            "midi": 44,
            "name": "G#2",
            "ticks": 53568,
            "time": 61.908286499999996,
            "velocity": 1
          },
          {
            "duration": 0.4437870000000004,
            "durationTicks": 384,
            "midi": 56,
            "name": "G#3",
            "ticks": 53568,
            "time": 61.908286499999996,
            "velocity": 1
          },
          {
            "duration": 0.4437870000000004,
            "durationTicks": 384,
            "midi": 51,
            "name": "D#3",
            "ticks": 53568,
            "time": 61.908286499999996,
            "velocity": 1
          },
          {
            "duration": 0.2218935000000002,
            "durationTicks": 192,
            "midi": 44,
            "name": "G#2",
            "ticks": 53952,
            "time": 62.352073499999996,
            "velocity": 1
          },
          {
            "duration": 0.2218935000000002,
            "durationTicks": 192,
            "midi": 56,
            "name": "G#3",
            "ticks": 53952,
            "time": 62.352073499999996,
            "velocity": 1
          },
          {
            "duration": 0.2218935000000002,
            "durationTicks": 192,
            "midi": 51,
            "name": "D#3",
            "ticks": 53952,
            "time": 62.352073499999996,
            "velocity": 1
          },
          {
            "duration": 0.4437870000000004,
            "durationTicks": 384,
            "midi": 47,
            "name": "B2",
            "ticks": 54144,
            "time": 62.573966999999996,
            "velocity": 1
          },
          {
            "duration": 0.4437870000000004,
            "durationTicks": 384,
            "midi": 59,
            "name": "B3",
            "ticks": 54144,
            "time": 62.573966999999996,
            "velocity": 1
          },
          {
            "duration": 0.4437870000000004,
            "durationTicks": 384,
            "midi": 54,
            "name": "F#3",
            "ticks": 54144,
            "time": 62.573966999999996,
            "velocity": 1
          },
          {
            "duration": 0.8875740000000008,
            "durationTicks": 768,
            "midi": 49,
            "name": "C#3",
            "ticks": 54528,
            "time": 63.017754,
            "velocity": 1
          },
          {
            "duration": 0.8875740000000008,
            "durationTicks": 768,
            "midi": 61,
            "name": "C#4",
            "ticks": 54528,
            "time": 63.017754,
            "velocity": 1
          },
          {
            "duration": 0.8875740000000008,
            "durationTicks": 768,
            "midi": 56,
            "name": "G#3",
            "ticks": 54528,
            "time": 63.017754,
            "velocity": 1
          },
          {
            "duration": 0.11094674999999654,
            "durationTicks": 96,
            "midi": 44,
            "name": "G#2",
            "ticks": 55296,
            "time": 63.905328,
            "velocity": 1
          },
          {
            "duration": 0.11094674999999654,
            "durationTicks": 96,
            "midi": 56,
            "name": "G#3",
            "ticks": 55296,
            "time": 63.905328,
            "velocity": 1
          },
          {
            "duration": 0.11094674999999654,
            "durationTicks": 96,
            "midi": 51,
            "name": "D#3",
            "ticks": 55296,
            "time": 63.905328,
            "velocity": 1
          },
          {
            "duration": 0.11094674999999654,
            "durationTicks": 96,
            "midi": 44,
            "name": "G#2",
            "ticks": 55488,
            "time": 64.1272215,
            "velocity": 1
          },
          {
            "duration": 0.11094674999999654,
            "durationTicks": 96,
            "midi": 56,
            "name": "G#3",
            "ticks": 55488,
            "time": 64.1272215,
            "velocity": 1
          },
          {
            "duration": 0.11094674999999654,
            "durationTicks": 96,
            "midi": 51,
            "name": "D#3",
            "ticks": 55488,
            "time": 64.1272215,
            "velocity": 1
          },
          {
            "duration": 0.11094674999999654,
            "durationTicks": 96,
            "midi": 44,
            "name": "G#2",
            "ticks": 55680,
            "time": 64.349115,
            "velocity": 1
          },
          {
            "duration": 0.11094674999999654,
            "durationTicks": 96,
            "midi": 56,
            "name": "G#3",
            "ticks": 55680,
            "time": 64.349115,
            "velocity": 1
          },
          {
            "duration": 0.11094674999999654,
            "durationTicks": 96,
            "midi": 51,
            "name": "D#3",
            "ticks": 55680,
            "time": 64.349115,
            "velocity": 1
          },
          {
            "duration": 0.11094674999999654,
            "durationTicks": 96,
            "midi": 44,
            "name": "G#2",
            "ticks": 55872,
            "time": 64.5710085,
            "velocity": 1
          },
          {
            "duration": 0.11094674999999654,
            "durationTicks": 96,
            "midi": 56,
            "name": "G#3",
            "ticks": 55872,
            "time": 64.5710085,
            "velocity": 1
          },
          {
            "duration": 0.11094674999999654,
            "durationTicks": 96,
            "midi": 51,
            "name": "D#3",
            "ticks": 55872,
            "time": 64.5710085,
            "velocity": 1
          },
          {
            "duration": 0.11094674999999654,
            "durationTicks": 96,
            "midi": 44,
            "name": "G#2",
            "ticks": 56064,
            "time": 64.792902,
            "velocity": 1
          },
          {
            "duration": 0.11094674999999654,
            "durationTicks": 96,
            "midi": 56,
            "name": "G#3",
            "ticks": 56064,
            "time": 64.792902,
            "velocity": 1
          },
          {
            "duration": 0.11094674999999654,
            "durationTicks": 96,
            "midi": 51,
            "name": "D#3",
            "ticks": 56064,
            "time": 64.792902,
            "velocity": 1
          },
          {
            "duration": 0.11094675000001075,
            "durationTicks": 96,
            "midi": 44,
            "name": "G#2",
            "ticks": 56256,
            "time": 65.01479549999999,
            "velocity": 1
          },
          {
            "duration": 0.11094675000001075,
            "durationTicks": 96,
            "midi": 56,
            "name": "G#3",
            "ticks": 56256,
            "time": 65.01479549999999,
            "velocity": 1
          },
          {
            "duration": 0.11094675000001075,
            "durationTicks": 96,
            "midi": 51,
            "name": "D#3",
            "ticks": 56256,
            "time": 65.01479549999999,
            "velocity": 1
          },
          {
            "duration": 0.11094674999999654,
            "durationTicks": 96,
            "midi": 44,
            "name": "G#2",
            "ticks": 56448,
            "time": 65.236689,
            "velocity": 1
          },
          {
            "duration": 0.11094674999999654,
            "durationTicks": 96,
            "midi": 56,
            "name": "G#3",
            "ticks": 56448,
            "time": 65.236689,
            "velocity": 1
          },
          {
            "duration": 0.11094674999999654,
            "durationTicks": 96,
            "midi": 51,
            "name": "D#3",
            "ticks": 56448,
            "time": 65.236689,
            "velocity": 1
          },
          {
            "duration": 0.11094675000001075,
            "durationTicks": 96,
            "midi": 44,
            "name": "G#2",
            "ticks": 56640,
            "time": 65.45858249999999,
            "velocity": 1
          },
          {
            "duration": 0.11094675000001075,
            "durationTicks": 96,
            "midi": 56,
            "name": "G#3",
            "ticks": 56640,
            "time": 65.45858249999999,
            "velocity": 1
          },
          {
            "duration": 0.11094675000001075,
            "durationTicks": 96,
            "midi": 51,
            "name": "D#3",
            "ticks": 56640,
            "time": 65.45858249999999,
            "velocity": 1
          },
          {
            "duration": 0.11094674999999654,
            "durationTicks": 96,
            "midi": 44,
            "name": "G#2",
            "ticks": 56832,
            "time": 65.680476,
            "velocity": 1
          },
          {
            "duration": 0.11094674999999654,
            "durationTicks": 96,
            "midi": 56,
            "name": "G#3",
            "ticks": 56832,
            "time": 65.680476,
            "velocity": 1
          },
          {
            "duration": 0.11094674999999654,
            "durationTicks": 96,
            "midi": 51,
            "name": "D#3",
            "ticks": 56832,
            "time": 65.680476,
            "velocity": 1
          },
          {
            "duration": 0.11094675000001075,
            "durationTicks": 96,
            "midi": 44,
            "name": "G#2",
            "ticks": 57024,
            "time": 65.90236949999999,
            "velocity": 1
          },
          {
            "duration": 0.11094675000001075,
            "durationTicks": 96,
            "midi": 56,
            "name": "G#3",
            "ticks": 57024,
            "time": 65.90236949999999,
            "velocity": 1
          },
          {
            "duration": 0.11094675000001075,
            "durationTicks": 96,
            "midi": 51,
            "name": "D#3",
            "ticks": 57024,
            "time": 65.90236949999999,
            "velocity": 1
          },
          {
            "duration": 0.11094674999999654,
            "durationTicks": 96,
            "midi": 44,
            "name": "G#2",
            "ticks": 57216,
            "time": 66.124263,
            "velocity": 1
          },
          {
            "duration": 0.11094674999999654,
            "durationTicks": 96,
            "midi": 56,
            "name": "G#3",
            "ticks": 57216,
            "time": 66.124263,
            "velocity": 1
          },
          {
            "duration": 0.11094674999999654,
            "durationTicks": 96,
            "midi": 51,
            "name": "D#3",
            "ticks": 57216,
            "time": 66.124263,
            "velocity": 1
          },
          {
            "duration": 0.11094675000001075,
            "durationTicks": 96,
            "midi": 44,
            "name": "G#2",
            "ticks": 57408,
            "time": 66.34615649999999,
            "velocity": 1
          },
          {
            "duration": 0.11094675000001075,
            "durationTicks": 96,
            "midi": 56,
            "name": "G#3",
            "ticks": 57408,
            "time": 66.34615649999999,
            "velocity": 1
          },
          {
            "duration": 0.11094675000001075,
            "durationTicks": 96,
            "midi": 51,
            "name": "D#3",
            "ticks": 57408,
            "time": 66.34615649999999,
            "velocity": 1
          },
          {
            "duration": 0.11094674999999654,
            "durationTicks": 96,
            "midi": 44,
            "name": "G#2",
            "ticks": 57600,
            "time": 66.56805,
            "velocity": 1
          },
          {
            "duration": 0.11094674999999654,
            "durationTicks": 96,
            "midi": 56,
            "name": "G#3",
            "ticks": 57600,
            "time": 66.56805,
            "velocity": 1
          },
          {
            "duration": 0.11094674999999654,
            "durationTicks": 96,
            "midi": 51,
            "name": "D#3",
            "ticks": 57600,
            "time": 66.56805,
            "velocity": 1
          },
          {
            "duration": 0.11094675000001075,
            "durationTicks": 96,
            "midi": 44,
            "name": "G#2",
            "ticks": 57792,
            "time": 66.78994349999999,
            "velocity": 1
          },
          {
            "duration": 0.11094675000001075,
            "durationTicks": 96,
            "midi": 56,
            "name": "G#3",
            "ticks": 57792,
            "time": 66.78994349999999,
            "velocity": 1
          },
          {
            "duration": 0.11094675000001075,
            "durationTicks": 96,
            "midi": 51,
            "name": "D#3",
            "ticks": 57792,
            "time": 66.78994349999999,
            "velocity": 1
          },
          {
            "duration": 0.11094674999999654,
            "durationTicks": 96,
            "midi": 44,
            "name": "G#2",
            "ticks": 57984,
            "time": 67.011837,
            "velocity": 1
          },
          {
            "duration": 0.11094674999999654,
            "durationTicks": 96,
            "midi": 56,
            "name": "G#3",
            "ticks": 57984,
            "time": 67.011837,
            "velocity": 1
          },
          {
            "duration": 0.11094674999999654,
            "durationTicks": 96,
            "midi": 51,
            "name": "D#3",
            "ticks": 57984,
            "time": 67.011837,
            "velocity": 1
          },
          {
            "duration": 0.4437870000000004,
            "durationTicks": 384,
            "midi": 44,
            "name": "G#2",
            "ticks": 58176,
            "time": 67.2337305,
            "velocity": 1
          },
          {
            "duration": 0.4437870000000004,
            "durationTicks": 384,
            "midi": 56,
            "name": "G#3",
            "ticks": 58176,
            "time": 67.2337305,
            "velocity": 1
          },
          {
            "duration": 0.4437870000000004,
            "durationTicks": 384,
            "midi": 51,
            "name": "D#3",
            "ticks": 58176,
            "time": 67.2337305,
            "velocity": 1
          },
          {
            "duration": 0.2218935000000073,
            "durationTicks": 192,
            "midi": 44,
            "name": "G#2",
            "ticks": 58560,
            "time": 67.6775175,
            "velocity": 1
          },
          {
            "duration": 0.2218935000000073,
            "durationTicks": 192,
            "midi": 56,
            "name": "G#3",
            "ticks": 58560,
            "time": 67.6775175,
            "velocity": 1
          },
          {
            "duration": 0.2218935000000073,
            "durationTicks": 192,
            "midi": 51,
            "name": "D#3",
            "ticks": 58560,
            "time": 67.6775175,
            "velocity": 1
          },
          {
            "duration": 0.4437870000000004,
            "durationTicks": 384,
            "midi": 47,
            "name": "B2",
            "ticks": 58752,
            "time": 67.899411,
            "velocity": 1
          },
          {
            "duration": 0.4437870000000004,
            "durationTicks": 384,
            "midi": 59,
            "name": "B3",
            "ticks": 58752,
            "time": 67.899411,
            "velocity": 1
          },
          {
            "duration": 0.4437870000000004,
            "durationTicks": 384,
            "midi": 54,
            "name": "F#3",
            "ticks": 58752,
            "time": 67.899411,
            "velocity": 1
          },
          {
            "duration": 0.6656804999999935,
            "durationTicks": 576,
            "midi": 49,
            "name": "C#3",
            "ticks": 59136,
            "time": 68.343198,
            "velocity": 1
          },
          {
            "duration": 0.6656804999999935,
            "durationTicks": 576,
            "midi": 61,
            "name": "C#4",
            "ticks": 59136,
            "time": 68.343198,
            "velocity": 1
          },
          {
            "duration": 0.6656804999999935,
            "durationTicks": 576,
            "midi": 56,
            "name": "G#3",
            "ticks": 59136,
            "time": 68.343198,
            "velocity": 1
          },
          {
            "duration": 0.4437870000000004,
            "durationTicks": 384,
            "midi": 44,
            "name": "G#2",
            "ticks": 59712,
            "time": 69.0088785,
            "velocity": 1
          },
          {
            "duration": 0.4437870000000004,
            "durationTicks": 384,
            "midi": 56,
            "name": "G#3",
            "ticks": 59712,
            "time": 69.0088785,
            "velocity": 1
          },
          {
            "duration": 0.4437870000000004,
            "durationTicks": 384,
            "midi": 51,
            "name": "D#3",
            "ticks": 59712,
            "time": 69.0088785,
            "velocity": 1
          },
          {
            "duration": 0.2218935000000073,
            "durationTicks": 192,
            "midi": 44,
            "name": "G#2",
            "ticks": 60096,
            "time": 69.4526655,
            "velocity": 1
          },
          {
            "duration": 0.2218935000000073,
            "durationTicks": 192,
            "midi": 56,
            "name": "G#3",
            "ticks": 60096,
            "time": 69.4526655,
            "velocity": 1
          },
          {
            "duration": 0.2218935000000073,
            "durationTicks": 192,
            "midi": 51,
            "name": "D#3",
            "ticks": 60096,
            "time": 69.4526655,
            "velocity": 1
          },
          {
            "duration": 0.4437870000000004,
            "durationTicks": 384,
            "midi": 47,
            "name": "B2",
            "ticks": 60288,
            "time": 69.674559,
            "velocity": 1
          },
          {
            "duration": 0.4437870000000004,
            "durationTicks": 384,
            "midi": 59,
            "name": "B3",
            "ticks": 60288,
            "time": 69.674559,
            "velocity": 1
          },
          {
            "duration": 0.4437870000000004,
            "durationTicks": 384,
            "midi": 54,
            "name": "F#3",
            "ticks": 60288,
            "time": 69.674559,
            "velocity": 1
          },
          {
            "duration": 0.8875740000000008,
            "durationTicks": 768,
            "midi": 49,
            "name": "C#3",
            "ticks": 60672,
            "time": 70.118346,
            "velocity": 1
          },
          {
            "duration": 0.8875740000000008,
            "durationTicks": 768,
            "midi": 61,
            "name": "C#4",
            "ticks": 60672,
            "time": 70.118346,
            "velocity": 1
          },
          {
            "duration": 0.8875740000000008,
            "durationTicks": 768,
            "midi": 56,
            "name": "G#3",
            "ticks": 60672,
            "time": 70.118346,
            "velocity": 1
          },
          {
            "duration": 0.11094674999999654,
            "durationTicks": 96,
            "midi": 44,
            "name": "G#2",
            "ticks": 61440,
            "time": 71.00592,
            "velocity": 1
          },
          {
            "duration": 0.11094674999999654,
            "durationTicks": 96,
            "midi": 56,
            "name": "G#3",
            "ticks": 61440,
            "time": 71.00592,
            "velocity": 1
          },
          {
            "duration": 0.11094674999999654,
            "durationTicks": 96,
            "midi": 51,
            "name": "D#3",
            "ticks": 61440,
            "time": 71.00592,
            "velocity": 1
          },
          {
            "duration": 0.11094674999999654,
            "durationTicks": 96,
            "midi": 44,
            "name": "G#2",
            "ticks": 61632,
            "time": 71.2278135,
            "velocity": 1
          },
          {
            "duration": 0.11094674999999654,
            "durationTicks": 96,
            "midi": 56,
            "name": "G#3",
            "ticks": 61632,
            "time": 71.2278135,
            "velocity": 1
          },
          {
            "duration": 0.11094674999999654,
            "durationTicks": 96,
            "midi": 51,
            "name": "D#3",
            "ticks": 61632,
            "time": 71.2278135,
            "velocity": 1
          },
          {
            "duration": 0.11094674999999654,
            "durationTicks": 96,
            "midi": 44,
            "name": "G#2",
            "ticks": 61824,
            "time": 71.449707,
            "velocity": 1
          },
          {
            "duration": 0.11094674999999654,
            "durationTicks": 96,
            "midi": 56,
            "name": "G#3",
            "ticks": 61824,
            "time": 71.449707,
            "velocity": 1
          },
          {
            "duration": 0.11094674999999654,
            "durationTicks": 96,
            "midi": 51,
            "name": "D#3",
            "ticks": 61824,
            "time": 71.449707,
            "velocity": 1
          },
          {
            "duration": 0.11094674999999654,
            "durationTicks": 96,
            "midi": 44,
            "name": "G#2",
            "ticks": 62016,
            "time": 71.6716005,
            "velocity": 1
          },
          {
            "duration": 0.11094674999999654,
            "durationTicks": 96,
            "midi": 56,
            "name": "G#3",
            "ticks": 62016,
            "time": 71.6716005,
            "velocity": 1
          },
          {
            "duration": 0.11094674999999654,
            "durationTicks": 96,
            "midi": 51,
            "name": "D#3",
            "ticks": 62016,
            "time": 71.6716005,
            "velocity": 1
          },
          {
            "duration": 0.11094674999999654,
            "durationTicks": 96,
            "midi": 44,
            "name": "G#2",
            "ticks": 62208,
            "time": 71.893494,
            "velocity": 1
          },
          {
            "duration": 0.11094674999999654,
            "durationTicks": 96,
            "midi": 56,
            "name": "G#3",
            "ticks": 62208,
            "time": 71.893494,
            "velocity": 1
          },
          {
            "duration": 0.11094674999999654,
            "durationTicks": 96,
            "midi": 51,
            "name": "D#3",
            "ticks": 62208,
            "time": 71.893494,
            "velocity": 1
          },
          {
            "duration": 0.11094674999999654,
            "durationTicks": 96,
            "midi": 44,
            "name": "G#2",
            "ticks": 62400,
            "time": 72.1153875,
            "velocity": 1
          },
          {
            "duration": 0.11094674999999654,
            "durationTicks": 96,
            "midi": 56,
            "name": "G#3",
            "ticks": 62400,
            "time": 72.1153875,
            "velocity": 1
          },
          {
            "duration": 0.11094674999999654,
            "durationTicks": 96,
            "midi": 51,
            "name": "D#3",
            "ticks": 62400,
            "time": 72.1153875,
            "velocity": 1
          },
          {
            "duration": 0.11094674999999654,
            "durationTicks": 96,
            "midi": 44,
            "name": "G#2",
            "ticks": 62592,
            "time": 72.337281,
            "velocity": 1
          },
          {
            "duration": 0.11094674999999654,
            "durationTicks": 96,
            "midi": 56,
            "name": "G#3",
            "ticks": 62592,
            "time": 72.337281,
            "velocity": 1
          },
          {
            "duration": 0.11094674999999654,
            "durationTicks": 96,
            "midi": 51,
            "name": "D#3",
            "ticks": 62592,
            "time": 72.337281,
            "velocity": 1
          },
          {
            "duration": 0.11094674999999654,
            "durationTicks": 96,
            "midi": 44,
            "name": "G#2",
            "ticks": 62784,
            "time": 72.5591745,
            "velocity": 1
          },
          {
            "duration": 0.11094674999999654,
            "durationTicks": 96,
            "midi": 56,
            "name": "G#3",
            "ticks": 62784,
            "time": 72.5591745,
            "velocity": 1
          },
          {
            "duration": 0.11094674999999654,
            "durationTicks": 96,
            "midi": 51,
            "name": "D#3",
            "ticks": 62784,
            "time": 72.5591745,
            "velocity": 1
          },
          {
            "duration": 0.11094674999999654,
            "durationTicks": 96,
            "midi": 44,
            "name": "G#2",
            "ticks": 62976,
            "time": 72.781068,
            "velocity": 1
          },
          {
            "duration": 0.11094674999999654,
            "durationTicks": 96,
            "midi": 56,
            "name": "G#3",
            "ticks": 62976,
            "time": 72.781068,
            "velocity": 1
          },
          {
            "duration": 0.11094674999999654,
            "durationTicks": 96,
            "midi": 51,
            "name": "D#3",
            "ticks": 62976,
            "time": 72.781068,
            "velocity": 1
          },
          {
            "duration": 0.11094674999999654,
            "durationTicks": 96,
            "midi": 44,
            "name": "G#2",
            "ticks": 63168,
            "time": 73.0029615,
            "velocity": 1
          },
          {
            "duration": 0.11094674999999654,
            "durationTicks": 96,
            "midi": 56,
            "name": "G#3",
            "ticks": 63168,
            "time": 73.0029615,
            "velocity": 1
          },
          {
            "duration": 0.11094674999999654,
            "durationTicks": 96,
            "midi": 51,
            "name": "D#3",
            "ticks": 63168,
            "time": 73.0029615,
            "velocity": 1
          },
          {
            "duration": 0.11094675000001075,
            "durationTicks": 96,
            "midi": 44,
            "name": "G#2",
            "ticks": 63360,
            "time": 73.22485499999999,
            "velocity": 1
          },
          {
            "duration": 0.11094675000001075,
            "durationTicks": 96,
            "midi": 56,
            "name": "G#3",
            "ticks": 63360,
            "time": 73.22485499999999,
            "velocity": 1
          },
          {
            "duration": 0.11094675000001075,
            "durationTicks": 96,
            "midi": 51,
            "name": "D#3",
            "ticks": 63360,
            "time": 73.22485499999999,
            "velocity": 1
          },
          {
            "duration": 0.11094674999999654,
            "durationTicks": 96,
            "midi": 44,
            "name": "G#2",
            "ticks": 63552,
            "time": 73.4467485,
            "velocity": 1
          },
          {
            "duration": 0.11094674999999654,
            "durationTicks": 96,
            "midi": 56,
            "name": "G#3",
            "ticks": 63552,
            "time": 73.4467485,
            "velocity": 1
          },
          {
            "duration": 0.11094674999999654,
            "durationTicks": 96,
            "midi": 51,
            "name": "D#3",
            "ticks": 63552,
            "time": 73.4467485,
            "velocity": 1
          },
          {
            "duration": 0.11094675000001075,
            "durationTicks": 96,
            "midi": 44,
            "name": "G#2",
            "ticks": 63744,
            "time": 73.66864199999999,
            "velocity": 1
          },
          {
            "duration": 0.11094675000001075,
            "durationTicks": 96,
            "midi": 56,
            "name": "G#3",
            "ticks": 63744,
            "time": 73.66864199999999,
            "velocity": 1
          },
          {
            "duration": 0.11094675000001075,
            "durationTicks": 96,
            "midi": 51,
            "name": "D#3",
            "ticks": 63744,
            "time": 73.66864199999999,
            "velocity": 1
          },
          {
            "duration": 0.11094674999999654,
            "durationTicks": 96,
            "midi": 44,
            "name": "G#2",
            "ticks": 63936,
            "time": 73.8905355,
            "velocity": 1
          },
          {
            "duration": 0.11094674999999654,
            "durationTicks": 96,
            "midi": 56,
            "name": "G#3",
            "ticks": 63936,
            "time": 73.8905355,
            "velocity": 1
          },
          {
            "duration": 0.11094674999999654,
            "durationTicks": 96,
            "midi": 51,
            "name": "D#3",
            "ticks": 63936,
            "time": 73.8905355,
            "velocity": 1
          },
          {
            "duration": 0.11094675000001075,
            "durationTicks": 96,
            "midi": 44,
            "name": "G#2",
            "ticks": 64128,
            "time": 74.11242899999999,
            "velocity": 1
          },
          {
            "duration": 0.11094675000001075,
            "durationTicks": 96,
            "midi": 56,
            "name": "G#3",
            "ticks": 64128,
            "time": 74.11242899999999,
            "velocity": 1
          },
          {
            "duration": 0.11094675000001075,
            "durationTicks": 96,
            "midi": 51,
            "name": "D#3",
            "ticks": 64128,
            "time": 74.11242899999999,
            "velocity": 1
          },
          {
            "duration": 0.4437870000000004,
            "durationTicks": 384,
            "midi": 44,
            "name": "G#2",
            "ticks": 64320,
            "time": 74.3343225,
            "velocity": 1
          },
          {
            "duration": 0.4437870000000004,
            "durationTicks": 384,
            "midi": 56,
            "name": "G#3",
            "ticks": 64320,
            "time": 74.3343225,
            "velocity": 1
          },
          {
            "duration": 0.4437870000000004,
            "durationTicks": 384,
            "midi": 51,
            "name": "D#3",
            "ticks": 64320,
            "time": 74.3343225,
            "velocity": 1
          },
          {
            "duration": 0.22189349999999308,
            "durationTicks": 192,
            "midi": 44,
            "name": "G#2",
            "ticks": 64704,
            "time": 74.7781095,
            "velocity": 1
          },
          {
            "duration": 0.22189349999999308,
            "durationTicks": 192,
            "midi": 56,
            "name": "G#3",
            "ticks": 64704,
            "time": 74.7781095,
            "velocity": 1
          },
          {
            "duration": 0.22189349999999308,
            "durationTicks": 192,
            "midi": 51,
            "name": "D#3",
            "ticks": 64704,
            "time": 74.7781095,
            "velocity": 1
          },
          {
            "duration": 0.4437870000000004,
            "durationTicks": 384,
            "midi": 47,
            "name": "B2",
            "ticks": 64896,
            "time": 75.00000299999999,
            "velocity": 1
          },
          {
            "duration": 0.4437870000000004,
            "durationTicks": 384,
            "midi": 59,
            "name": "B3",
            "ticks": 64896,
            "time": 75.00000299999999,
            "velocity": 1
          },
          {
            "duration": 0.4437870000000004,
            "durationTicks": 384,
            "midi": 54,
            "name": "F#3",
            "ticks": 64896,
            "time": 75.00000299999999,
            "velocity": 1
          },
          {
            "duration": 0.6656805000000077,
            "durationTicks": 576,
            "midi": 49,
            "name": "C#3",
            "ticks": 65280,
            "time": 75.44378999999999,
            "velocity": 1
          },
          {
            "duration": 0.6656805000000077,
            "durationTicks": 576,
            "midi": 61,
            "name": "C#4",
            "ticks": 65280,
            "time": 75.44378999999999,
            "velocity": 1
          },
          {
            "duration": 0.6656805000000077,
            "durationTicks": 576,
            "midi": 56,
            "name": "G#3",
            "ticks": 65280,
            "time": 75.44378999999999,
            "velocity": 1
          },
          {
            "duration": 0.4437870000000004,
            "durationTicks": 384,
            "midi": 44,
            "name": "G#2",
            "ticks": 65856,
            "time": 76.1094705,
            "velocity": 1
          },
          {
            "duration": 0.4437870000000004,
            "durationTicks": 384,
            "midi": 56,
            "name": "G#3",
            "ticks": 65856,
            "time": 76.1094705,
            "velocity": 1
          },
          {
            "duration": 0.4437870000000004,
            "durationTicks": 384,
            "midi": 51,
            "name": "D#3",
            "ticks": 65856,
            "time": 76.1094705,
            "velocity": 1
          },
          {
            "duration": 0.22189349999999308,
            "durationTicks": 192,
            "midi": 44,
            "name": "G#2",
            "ticks": 66240,
            "time": 76.5532575,
            "velocity": 1
          },
          {
            "duration": 0.22189349999999308,
            "durationTicks": 192,
            "midi": 56,
            "name": "G#3",
            "ticks": 66240,
            "time": 76.5532575,
            "velocity": 1
          },
          {
            "duration": 0.22189349999999308,
            "durationTicks": 192,
            "midi": 51,
            "name": "D#3",
            "ticks": 66240,
            "time": 76.5532575,
            "velocity": 1
          },
          {
            "duration": 0.4437870000000004,
            "durationTicks": 384,
            "midi": 47,
            "name": "B2",
            "ticks": 66432,
            "time": 76.775151,
            "velocity": 1
          },
          {
            "duration": 0.4437870000000004,
            "durationTicks": 384,
            "midi": 59,
            "name": "B3",
            "ticks": 66432,
            "time": 76.775151,
            "velocity": 1
          },
          {
            "duration": 0.4437870000000004,
            "durationTicks": 384,
            "midi": 54,
            "name": "F#3",
            "ticks": 66432,
            "time": 76.775151,
            "velocity": 1
          },
          {
            "duration": 0.8875740000000008,
            "durationTicks": 768,
            "midi": 49,
            "name": "C#3",
            "ticks": 66816,
            "time": 77.218938,
            "velocity": 1
          },
          {
            "duration": 0.8875740000000008,
            "durationTicks": 768,
            "midi": 61,
            "name": "C#4",
            "ticks": 66816,
            "time": 77.218938,
            "velocity": 1
          },
          {
            "duration": 0.8875740000000008,
            "durationTicks": 768,
            "midi": 56,
            "name": "G#3",
            "ticks": 66816,
            "time": 77.218938,
            "velocity": 1
          },
          {
            "duration": 0.11094674999999654,
            "durationTicks": 96,
            "midi": 44,
            "name": "G#2",
            "ticks": 67584,
            "time": 78.106512,
            "velocity": 1
          },
          {
            "duration": 0.11094674999999654,
            "durationTicks": 96,
            "midi": 56,
            "name": "G#3",
            "ticks": 67584,
            "time": 78.106512,
            "velocity": 1
          },
          {
            "duration": 0.11094674999999654,
            "durationTicks": 96,
            "midi": 51,
            "name": "D#3",
            "ticks": 67584,
            "time": 78.106512,
            "velocity": 1
          },
          {
            "duration": 0.11094674999999654,
            "durationTicks": 96,
            "midi": 44,
            "name": "G#2",
            "ticks": 67776,
            "time": 78.3284055,
            "velocity": 1
          },
          {
            "duration": 0.11094674999999654,
            "durationTicks": 96,
            "midi": 56,
            "name": "G#3",
            "ticks": 67776,
            "time": 78.3284055,
            "velocity": 1
          },
          {
            "duration": 0.11094674999999654,
            "durationTicks": 96,
            "midi": 51,
            "name": "D#3",
            "ticks": 67776,
            "time": 78.3284055,
            "velocity": 1
          },
          {
            "duration": 0.11094674999999654,
            "durationTicks": 96,
            "midi": 44,
            "name": "G#2",
            "ticks": 67968,
            "time": 78.550299,
            "velocity": 1
          },
          {
            "duration": 0.11094674999999654,
            "durationTicks": 96,
            "midi": 56,
            "name": "G#3",
            "ticks": 67968,
            "time": 78.550299,
            "velocity": 1
          },
          {
            "duration": 0.11094674999999654,
            "durationTicks": 96,
            "midi": 51,
            "name": "D#3",
            "ticks": 67968,
            "time": 78.550299,
            "velocity": 1
          },
          {
            "duration": 0.11094674999999654,
            "durationTicks": 96,
            "midi": 44,
            "name": "G#2",
            "ticks": 68160,
            "time": 78.7721925,
            "velocity": 1
          },
          {
            "duration": 0.11094674999999654,
            "durationTicks": 96,
            "midi": 56,
            "name": "G#3",
            "ticks": 68160,
            "time": 78.7721925,
            "velocity": 1
          },
          {
            "duration": 0.11094674999999654,
            "durationTicks": 96,
            "midi": 51,
            "name": "D#3",
            "ticks": 68160,
            "time": 78.7721925,
            "velocity": 1
          },
          {
            "duration": 0.11094674999999654,
            "durationTicks": 96,
            "midi": 44,
            "name": "G#2",
            "ticks": 68352,
            "time": 78.994086,
            "velocity": 1
          },
          {
            "duration": 0.11094674999999654,
            "durationTicks": 96,
            "midi": 56,
            "name": "G#3",
            "ticks": 68352,
            "time": 78.994086,
            "velocity": 1
          },
          {
            "duration": 0.11094674999999654,
            "durationTicks": 96,
            "midi": 51,
            "name": "D#3",
            "ticks": 68352,
            "time": 78.994086,
            "velocity": 1
          },
          {
            "duration": 0.11094674999999654,
            "durationTicks": 96,
            "midi": 44,
            "name": "G#2",
            "ticks": 68544,
            "time": 79.2159795,
            "velocity": 1
          },
          {
            "duration": 0.11094674999999654,
            "durationTicks": 96,
            "midi": 56,
            "name": "G#3",
            "ticks": 68544,
            "time": 79.2159795,
            "velocity": 1
          },
          {
            "duration": 0.11094674999999654,
            "durationTicks": 96,
            "midi": 51,
            "name": "D#3",
            "ticks": 68544,
            "time": 79.2159795,
            "velocity": 1
          },
          {
            "duration": 0.11094674999999654,
            "durationTicks": 96,
            "midi": 44,
            "name": "G#2",
            "ticks": 68736,
            "time": 79.437873,
            "velocity": 1
          },
          {
            "duration": 0.11094674999999654,
            "durationTicks": 96,
            "midi": 56,
            "name": "G#3",
            "ticks": 68736,
            "time": 79.437873,
            "velocity": 1
          },
          {
            "duration": 0.11094674999999654,
            "durationTicks": 96,
            "midi": 51,
            "name": "D#3",
            "ticks": 68736,
            "time": 79.437873,
            "velocity": 1
          },
          {
            "duration": 0.11094674999999654,
            "durationTicks": 96,
            "midi": 44,
            "name": "G#2",
            "ticks": 68928,
            "time": 79.6597665,
            "velocity": 1
          },
          {
            "duration": 0.11094674999999654,
            "durationTicks": 96,
            "midi": 56,
            "name": "G#3",
            "ticks": 68928,
            "time": 79.6597665,
            "velocity": 1
          },
          {
            "duration": 0.11094674999999654,
            "durationTicks": 96,
            "midi": 51,
            "name": "D#3",
            "ticks": 68928,
            "time": 79.6597665,
            "velocity": 1
          },
          {
            "duration": 0.11094674999999654,
            "durationTicks": 96,
            "midi": 44,
            "name": "G#2",
            "ticks": 69120,
            "time": 79.88166,
            "velocity": 1
          },
          {
            "duration": 0.11094674999999654,
            "durationTicks": 96,
            "midi": 56,
            "name": "G#3",
            "ticks": 69120,
            "time": 79.88166,
            "velocity": 1
          },
          {
            "duration": 0.11094674999999654,
            "durationTicks": 96,
            "midi": 51,
            "name": "D#3",
            "ticks": 69120,
            "time": 79.88166,
            "velocity": 1
          },
          {
            "duration": 0.11094674999999654,
            "durationTicks": 96,
            "midi": 44,
            "name": "G#2",
            "ticks": 69312,
            "time": 80.1035535,
            "velocity": 1
          },
          {
            "duration": 0.11094674999999654,
            "durationTicks": 96,
            "midi": 56,
            "name": "G#3",
            "ticks": 69312,
            "time": 80.1035535,
            "velocity": 1
          },
          {
            "duration": 0.11094674999999654,
            "durationTicks": 96,
            "midi": 51,
            "name": "D#3",
            "ticks": 69312,
            "time": 80.1035535,
            "velocity": 1
          },
          {
            "duration": 0.11094674999999654,
            "durationTicks": 96,
            "midi": 44,
            "name": "G#2",
            "ticks": 69504,
            "time": 80.325447,
            "velocity": 1
          },
          {
            "duration": 0.11094674999999654,
            "durationTicks": 96,
            "midi": 56,
            "name": "G#3",
            "ticks": 69504,
            "time": 80.325447,
            "velocity": 1
          },
          {
            "duration": 0.11094674999999654,
            "durationTicks": 96,
            "midi": 51,
            "name": "D#3",
            "ticks": 69504,
            "time": 80.325447,
            "velocity": 1
          },
          {
            "duration": 0.11094674999999654,
            "durationTicks": 96,
            "midi": 44,
            "name": "G#2",
            "ticks": 69696,
            "time": 80.5473405,
            "velocity": 1
          },
          {
            "duration": 0.11094674999999654,
            "durationTicks": 96,
            "midi": 56,
            "name": "G#3",
            "ticks": 69696,
            "time": 80.5473405,
            "velocity": 1
          },
          {
            "duration": 0.11094674999999654,
            "durationTicks": 96,
            "midi": 51,
            "name": "D#3",
            "ticks": 69696,
            "time": 80.5473405,
            "velocity": 1
          },
          {
            "duration": 0.11094674999999654,
            "durationTicks": 96,
            "midi": 44,
            "name": "G#2",
            "ticks": 69888,
            "time": 80.769234,
            "velocity": 1
          },
          {
            "duration": 0.11094674999999654,
            "durationTicks": 96,
            "midi": 56,
            "name": "G#3",
            "ticks": 69888,
            "time": 80.769234,
            "velocity": 1
          },
          {
            "duration": 0.11094674999999654,
            "durationTicks": 96,
            "midi": 51,
            "name": "D#3",
            "ticks": 69888,
            "time": 80.769234,
            "velocity": 1
          },
          {
            "duration": 0.11094674999999654,
            "durationTicks": 96,
            "midi": 44,
            "name": "G#2",
            "ticks": 70080,
            "time": 80.9911275,
            "velocity": 1
          },
          {
            "duration": 0.11094674999999654,
            "durationTicks": 96,
            "midi": 56,
            "name": "G#3",
            "ticks": 70080,
            "time": 80.9911275,
            "velocity": 1
          },
          {
            "duration": 0.11094674999999654,
            "durationTicks": 96,
            "midi": 51,
            "name": "D#3",
            "ticks": 70080,
            "time": 80.9911275,
            "velocity": 1
          },
          {
            "duration": 0.11094674999999654,
            "durationTicks": 96,
            "midi": 44,
            "name": "G#2",
            "ticks": 70272,
            "time": 81.213021,
            "velocity": 1
          },
          {
            "duration": 0.11094674999999654,
            "durationTicks": 96,
            "midi": 56,
            "name": "G#3",
            "ticks": 70272,
            "time": 81.213021,
            "velocity": 1
          },
          {
            "duration": 0.11094674999999654,
            "durationTicks": 96,
            "midi": 51,
            "name": "D#3",
            "ticks": 70272,
            "time": 81.213021,
            "velocity": 1
          },
          {
            "duration": 0.4437870000000004,
            "durationTicks": 384,
            "midi": 44,
            "name": "G#2",
            "ticks": 70464,
            "time": 81.43491449999999,
            "velocity": 1
          },
          {
            "duration": 0.4437870000000004,
            "durationTicks": 384,
            "midi": 56,
            "name": "G#3",
            "ticks": 70464,
            "time": 81.43491449999999,
            "velocity": 1
          },
          {
            "duration": 0.4437870000000004,
            "durationTicks": 384,
            "midi": 51,
            "name": "D#3",
            "ticks": 70464,
            "time": 81.43491449999999,
            "velocity": 1
          },
          {
            "duration": 0.2218935000000073,
            "durationTicks": 192,
            "midi": 44,
            "name": "G#2",
            "ticks": 70848,
            "time": 81.87870149999999,
            "velocity": 1
          },
          {
            "duration": 0.2218935000000073,
            "durationTicks": 192,
            "midi": 56,
            "name": "G#3",
            "ticks": 70848,
            "time": 81.87870149999999,
            "velocity": 1
          },
          {
            "duration": 0.2218935000000073,
            "durationTicks": 192,
            "midi": 51,
            "name": "D#3",
            "ticks": 70848,
            "time": 81.87870149999999,
            "velocity": 1
          },
          {
            "duration": 0.4437870000000004,
            "durationTicks": 384,
            "midi": 47,
            "name": "B2",
            "ticks": 71040,
            "time": 82.100595,
            "velocity": 1
          },
          {
            "duration": 0.4437870000000004,
            "durationTicks": 384,
            "midi": 59,
            "name": "B3",
            "ticks": 71040,
            "time": 82.100595,
            "velocity": 1
          },
          {
            "duration": 0.4437870000000004,
            "durationTicks": 384,
            "midi": 54,
            "name": "F#3",
            "ticks": 71040,
            "time": 82.100595,
            "velocity": 1
          },
          {
            "duration": 0.6656804999999935,
            "durationTicks": 576,
            "midi": 49,
            "name": "C#3",
            "ticks": 71424,
            "time": 82.544382,
            "velocity": 1
          },
          {
            "duration": 0.6656804999999935,
            "durationTicks": 576,
            "midi": 61,
            "name": "C#4",
            "ticks": 71424,
            "time": 82.544382,
            "velocity": 1
          },
          {
            "duration": 0.6656804999999935,
            "durationTicks": 576,
            "midi": 56,
            "name": "G#3",
            "ticks": 71424,
            "time": 82.544382,
            "velocity": 1
          },
          {
            "duration": 0.2218935000000073,
            "durationTicks": 192,
            "midi": 44,
            "name": "G#2",
            "ticks": 72000,
            "time": 83.21006249999999,
            "velocity": 1
          },
          {
            "duration": 0.2218935000000073,
            "durationTicks": 192,
            "midi": 56,
            "name": "G#3",
            "ticks": 72000,
            "time": 83.21006249999999,
            "velocity": 1
          },
          {
            "duration": 0.2218935000000073,
            "durationTicks": 192,
            "midi": 51,
            "name": "D#3",
            "ticks": 72000,
            "time": 83.21006249999999,
            "velocity": 1
          },
          {
            "duration": 0.22189349999999308,
            "durationTicks": 192,
            "midi": 49,
            "name": "C#3",
            "ticks": 74112,
            "time": 85.650891,
            "velocity": 1
          },
          {
            "duration": 0.22189349999999308,
            "durationTicks": 192,
            "midi": 61,
            "name": "C#4",
            "ticks": 74112,
            "time": 85.650891,
            "velocity": 1
          },
          {
            "duration": 0.22189349999999308,
            "durationTicks": 192,
            "midi": 56,
            "name": "G#3",
            "ticks": 74112,
            "time": 85.650891,
            "velocity": 1
          },
          {
            "duration": 0.22189349999999308,
            "durationTicks": 192,
            "midi": 49,
            "name": "C#3",
            "ticks": 74496,
            "time": 86.094678,
            "velocity": 1
          },
          {
            "duration": 0.22189349999999308,
            "durationTicks": 192,
            "midi": 61,
            "name": "C#4",
            "ticks": 74496,
            "time": 86.094678,
            "velocity": 1
          },
          {
            "duration": 0.22189349999999308,
            "durationTicks": 192,
            "midi": 56,
            "name": "G#3",
            "ticks": 74496,
            "time": 86.094678,
            "velocity": 1
          },
          {
            "duration": 0.22189349999999308,
            "durationTicks": 192,
            "midi": 49,
            "name": "C#3",
            "ticks": 76032,
            "time": 87.869826,
            "velocity": 1
          },
          {
            "duration": 0.22189349999999308,
            "durationTicks": 192,
            "midi": 61,
            "name": "C#4",
            "ticks": 76032,
            "time": 87.869826,
            "velocity": 1
          },
          {
            "duration": 0.22189349999999308,
            "durationTicks": 192,
            "midi": 56,
            "name": "G#3",
            "ticks": 76032,
            "time": 87.869826,
            "velocity": 1
          },
          {
            "duration": 0.4437870000000004,
            "durationTicks": 384,
            "midi": 44,
            "name": "G#2",
            "ticks": 76608,
            "time": 88.5355065,
            "velocity": 1
          },
          {
            "duration": 0.4437870000000004,
            "durationTicks": 384,
            "midi": 56,
            "name": "G#3",
            "ticks": 76608,
            "time": 88.5355065,
            "velocity": 1
          },
          {
            "duration": 0.4437870000000004,
            "durationTicks": 384,
            "midi": 51,
            "name": "D#3",
            "ticks": 76608,
            "time": 88.5355065,
            "velocity": 1
          },
          {
            "duration": 0.2218935000000073,
            "durationTicks": 192,
            "midi": 44,
            "name": "G#2",
            "ticks": 76992,
            "time": 88.9792935,
            "velocity": 1
          },
          {
            "duration": 0.2218935000000073,
            "durationTicks": 192,
            "midi": 56,
            "name": "G#3",
            "ticks": 76992,
            "time": 88.9792935,
            "velocity": 1
          },
          {
            "duration": 0.2218935000000073,
            "durationTicks": 192,
            "midi": 51,
            "name": "D#3",
            "ticks": 76992,
            "time": 88.9792935,
            "velocity": 1
          },
          {
            "duration": 0.44378699999998616,
            "durationTicks": 384,
            "midi": 47,
            "name": "B2",
            "ticks": 77184,
            "time": 89.201187,
            "velocity": 1
          },
          {
            "duration": 0.44378699999998616,
            "durationTicks": 384,
            "midi": 59,
            "name": "B3",
            "ticks": 77184,
            "time": 89.201187,
            "velocity": 1
          },
          {
            "duration": 0.44378699999998616,
            "durationTicks": 384,
            "midi": 54,
            "name": "F#3",
            "ticks": 77184,
            "time": 89.201187,
            "velocity": 1
          },
          {
            "duration": 0.6656805000000077,
            "durationTicks": 576,
            "midi": 49,
            "name": "C#3",
            "ticks": 77568,
            "time": 89.64497399999999,
            "velocity": 1
          },
          {
            "duration": 0.6656805000000077,
            "durationTicks": 576,
            "midi": 61,
            "name": "C#4",
            "ticks": 77568,
            "time": 89.64497399999999,
            "velocity": 1
          },
          {
            "duration": 0.6656805000000077,
            "durationTicks": 576,
            "midi": 56,
            "name": "G#3",
            "ticks": 77568,
            "time": 89.64497399999999,
            "velocity": 1
          },
          {
            "duration": 0.4437870000000004,
            "durationTicks": 384,
            "midi": 44,
            "name": "G#2",
            "ticks": 78144,
            "time": 90.3106545,
            "velocity": 1
          },
          {
            "duration": 0.4437870000000004,
            "durationTicks": 384,
            "midi": 56,
            "name": "G#3",
            "ticks": 78144,
            "time": 90.3106545,
            "velocity": 1
          },
          {
            "duration": 0.4437870000000004,
            "durationTicks": 384,
            "midi": 51,
            "name": "D#3",
            "ticks": 78144,
            "time": 90.3106545,
            "velocity": 1
          },
          {
            "duration": 0.22189349999999308,
            "durationTicks": 192,
            "midi": 44,
            "name": "G#2",
            "ticks": 78528,
            "time": 90.7544415,
            "velocity": 1
          },
          {
            "duration": 0.22189349999999308,
            "durationTicks": 192,
            "midi": 56,
            "name": "G#3",
            "ticks": 78528,
            "time": 90.7544415,
            "velocity": 1
          },
          {
            "duration": 0.22189349999999308,
            "durationTicks": 192,
            "midi": 51,
            "name": "D#3",
            "ticks": 78528,
            "time": 90.7544415,
            "velocity": 1
          },
          {
            "duration": 0.4437870000000004,
            "durationTicks": 384,
            "midi": 47,
            "name": "B2",
            "ticks": 78720,
            "time": 90.97633499999999,
            "velocity": 1
          },
          {
            "duration": 0.4437870000000004,
            "durationTicks": 384,
            "midi": 59,
            "name": "B3",
            "ticks": 78720,
            "time": 90.97633499999999,
            "velocity": 1
          },
          {
            "duration": 0.4437870000000004,
            "durationTicks": 384,
            "midi": 54,
            "name": "F#3",
            "ticks": 78720,
            "time": 90.97633499999999,
            "velocity": 1
          },
          {
            "duration": 0.6656805000000077,
            "durationTicks": 576,
            "midi": 49,
            "name": "C#3",
            "ticks": 79104,
            "time": 91.42012199999999,
            "velocity": 1
          },
          {
            "duration": 0.6656805000000077,
            "durationTicks": 576,
            "midi": 61,
            "name": "C#4",
            "ticks": 79104,
            "time": 91.42012199999999,
            "velocity": 1
          },
          {
            "duration": 0.6656805000000077,
            "durationTicks": 576,
            "midi": 56,
            "name": "G#3",
            "ticks": 79104,
            "time": 91.42012199999999,
            "velocity": 1
          },
          {
            "duration": 0.4437870000000004,
            "durationTicks": 384,
            "midi": 44,
            "name": "G#2",
            "ticks": 79680,
            "time": 92.0858025,
            "velocity": 1
          },
          {
            "duration": 0.4437870000000004,
            "durationTicks": 384,
            "midi": 56,
            "name": "G#3",
            "ticks": 79680,
            "time": 92.0858025,
            "velocity": 1
          },
          {
            "duration": 0.4437870000000004,
            "durationTicks": 384,
            "midi": 51,
            "name": "D#3",
            "ticks": 79680,
            "time": 92.0858025,
            "velocity": 1
          },
          {
            "duration": 0.22189349999999308,
            "durationTicks": 192,
            "midi": 44,
            "name": "G#2",
            "ticks": 80064,
            "time": 92.5295895,
            "velocity": 1
          },
          {
            "duration": 0.22189349999999308,
            "durationTicks": 192,
            "midi": 56,
            "name": "G#3",
            "ticks": 80064,
            "time": 92.5295895,
            "velocity": 1
          },
          {
            "duration": 0.22189349999999308,
            "durationTicks": 192,
            "midi": 51,
            "name": "D#3",
            "ticks": 80064,
            "time": 92.5295895,
            "velocity": 1
          },
          {
            "duration": 0.4437870000000004,
            "durationTicks": 384,
            "midi": 47,
            "name": "B2",
            "ticks": 80256,
            "time": 92.751483,
            "velocity": 1
          },
          {
            "duration": 0.4437870000000004,
            "durationTicks": 384,
            "midi": 59,
            "name": "B3",
            "ticks": 80256,
            "time": 92.751483,
            "velocity": 1
          },
          {
            "duration": 0.4437870000000004,
            "durationTicks": 384,
            "midi": 54,
            "name": "F#3",
            "ticks": 80256,
            "time": 92.751483,
            "velocity": 1
          },
          {
            "duration": 0.6656805000000077,
            "durationTicks": 576,
            "midi": 49,
            "name": "C#3",
            "ticks": 80640,
            "time": 93.19527,
            "velocity": 1
          },
          {
            "duration": 0.6656805000000077,
            "durationTicks": 576,
            "midi": 61,
            "name": "C#4",
            "ticks": 80640,
            "time": 93.19527,
            "velocity": 1
          },
          {
            "duration": 0.6656805000000077,
            "durationTicks": 576,
            "midi": 56,
            "name": "G#3",
            "ticks": 80640,
            "time": 93.19527,
            "velocity": 1
          },
          {
            "duration": 0.4437870000000004,
            "durationTicks": 384,
            "midi": 44,
            "name": "G#2",
            "ticks": 81216,
            "time": 93.8609505,
            "velocity": 1
          },
          {
            "duration": 0.4437870000000004,
            "durationTicks": 384,
            "midi": 56,
            "name": "G#3",
            "ticks": 81216,
            "time": 93.8609505,
            "velocity": 1
          },
          {
            "duration": 0.4437870000000004,
            "durationTicks": 384,
            "midi": 51,
            "name": "D#3",
            "ticks": 81216,
            "time": 93.8609505,
            "velocity": 1
          },
          {
            "duration": 0.22189349999999308,
            "durationTicks": 192,
            "midi": 44,
            "name": "G#2",
            "ticks": 81600,
            "time": 94.3047375,
            "velocity": 1
          },
          {
            "duration": 0.22189349999999308,
            "durationTicks": 192,
            "midi": 56,
            "name": "G#3",
            "ticks": 81600,
            "time": 94.3047375,
            "velocity": 1
          },
          {
            "duration": 0.22189349999999308,
            "durationTicks": 192,
            "midi": 51,
            "name": "D#3",
            "ticks": 81600,
            "time": 94.3047375,
            "velocity": 1
          },
          {
            "duration": 0.4437870000000004,
            "durationTicks": 384,
            "midi": 47,
            "name": "B2",
            "ticks": 81792,
            "time": 94.526631,
            "velocity": 1
          },
          {
            "duration": 0.4437870000000004,
            "durationTicks": 384,
            "midi": 59,
            "name": "B3",
            "ticks": 81792,
            "time": 94.526631,
            "velocity": 1
          },
          {
            "duration": 0.4437870000000004,
            "durationTicks": 384,
            "midi": 54,
            "name": "F#3",
            "ticks": 81792,
            "time": 94.526631,
            "velocity": 1
          },
          {
            "duration": 0.6656805000000077,
            "durationTicks": 576,
            "midi": 49,
            "name": "C#3",
            "ticks": 82176,
            "time": 94.970418,
            "velocity": 1
          },
          {
            "duration": 0.6656805000000077,
            "durationTicks": 576,
            "midi": 61,
            "name": "C#4",
            "ticks": 82176,
            "time": 94.970418,
            "velocity": 1
          },
          {
            "duration": 0.6656805000000077,
            "durationTicks": 576,
            "midi": 56,
            "name": "G#3",
            "ticks": 82176,
            "time": 94.970418,
            "velocity": 1
          },
          {
            "duration": 0.22189349999999308,
            "durationTicks": 192,
            "midi": 44,
            "name": "G#2",
            "ticks": 82752,
            "time": 95.6360985,
            "velocity": 1
          },
          {
            "duration": 0.22189349999999308,
            "durationTicks": 192,
            "midi": 56,
            "name": "G#3",
            "ticks": 82752,
            "time": 95.6360985,
            "velocity": 1
          },
          {
            "duration": 0.22189349999999308,
            "durationTicks": 192,
            "midi": 51,
            "name": "D#3",
            "ticks": 82752,
            "time": 95.6360985,
            "velocity": 1
          },
          {
            "duration": 0.2218935000000073,
            "durationTicks": 192,
            "midi": 39,
            "name": "D#2",
            "ticks": 82944,
            "time": 95.857992,
            "velocity": 1
          },
          {
            "duration": 0.2218935000000073,
            "durationTicks": 192,
            "midi": 51,
            "name": "D#3",
            "ticks": 82944,
            "time": 95.857992,
            "velocity": 1
          },
          {
            "duration": 0.2218935000000073,
            "durationTicks": 192,
            "midi": 46,
            "name": "A#2",
            "ticks": 82944,
            "time": 95.857992,
            "velocity": 1
          },
          {
            "duration": 0.22189349999999308,
            "durationTicks": 192,
            "midi": 39,
            "name": "D#2",
            "ticks": 83136,
            "time": 96.0798855,
            "velocity": 1
          },
          {
            "duration": 0.22189349999999308,
            "durationTicks": 192,
            "midi": 51,
            "name": "D#3",
            "ticks": 83136,
            "time": 96.0798855,
            "velocity": 1
          },
          {
            "duration": 0.22189349999999308,
            "durationTicks": 192,
            "midi": 46,
            "name": "A#2",
            "ticks": 83136,
            "time": 96.0798855,
            "velocity": 1
          },
          {
            "duration": 0.2218935000000073,
            "durationTicks": 192,
            "midi": 39,
            "name": "D#2",
            "ticks": 83328,
            "time": 96.301779,
            "velocity": 1
          },
          {
            "duration": 0.2218935000000073,
            "durationTicks": 192,
            "midi": 51,
            "name": "D#3",
            "ticks": 83328,
            "time": 96.301779,
            "velocity": 1
          },
          {
            "duration": 0.2218935000000073,
            "durationTicks": 192,
            "midi": 46,
            "name": "A#2",
            "ticks": 83328,
            "time": 96.301779,
            "velocity": 1
          },
          {
            "duration": 0.22189349999999308,
            "durationTicks": 192,
            "midi": 39,
            "name": "D#2",
            "ticks": 83520,
            "time": 96.5236725,
            "velocity": 1
          },
          {
            "duration": 0.22189349999999308,
            "durationTicks": 192,
            "midi": 51,
            "name": "D#3",
            "ticks": 83520,
            "time": 96.5236725,
            "velocity": 1
          },
          {
            "duration": 0.22189349999999308,
            "durationTicks": 192,
            "midi": 46,
            "name": "A#2",
            "ticks": 83520,
            "time": 96.5236725,
            "velocity": 1
          },
          {
            "duration": 0.2218935000000073,
            "durationTicks": 192,
            "midi": 39,
            "name": "D#2",
            "ticks": 83712,
            "time": 96.745566,
            "velocity": 1
          },
          {
            "duration": 0.2218935000000073,
            "durationTicks": 192,
            "midi": 51,
            "name": "D#3",
            "ticks": 83712,
            "time": 96.745566,
            "velocity": 1
          },
          {
            "duration": 0.2218935000000073,
            "durationTicks": 192,
            "midi": 46,
            "name": "A#2",
            "ticks": 83712,
            "time": 96.745566,
            "velocity": 1
          },
          {
            "duration": 0.22189349999999308,
            "durationTicks": 192,
            "midi": 39,
            "name": "D#2",
            "ticks": 83904,
            "time": 96.9674595,
            "velocity": 1
          },
          {
            "duration": 0.22189349999999308,
            "durationTicks": 192,
            "midi": 51,
            "name": "D#3",
            "ticks": 83904,
            "time": 96.9674595,
            "velocity": 1
          },
          {
            "duration": 0.22189349999999308,
            "durationTicks": 192,
            "midi": 46,
            "name": "A#2",
            "ticks": 83904,
            "time": 96.9674595,
            "velocity": 1
          },
          {
            "duration": 0.22189349999999308,
            "durationTicks": 192,
            "midi": 39,
            "name": "D#2",
            "ticks": 84096,
            "time": 97.189353,
            "velocity": 1
          },
          {
            "duration": 0.22189349999999308,
            "durationTicks": 192,
            "midi": 51,
            "name": "D#3",
            "ticks": 84096,
            "time": 97.189353,
            "velocity": 1
          },
          {
            "duration": 0.22189349999999308,
            "durationTicks": 192,
            "midi": 46,
            "name": "A#2",
            "ticks": 84096,
            "time": 97.189353,
            "velocity": 1
          },
          {
            "duration": 0.4437870000000004,
            "durationTicks": 384,
            "midi": 42,
            "name": "F#2",
            "ticks": 84288,
            "time": 97.41124649999999,
            "velocity": 1
          },
          {
            "duration": 0.4437870000000004,
            "durationTicks": 384,
            "midi": 54,
            "name": "F#3",
            "ticks": 84288,
            "time": 97.41124649999999,
            "velocity": 1
          },
          {
            "duration": 0.4437870000000004,
            "durationTicks": 384,
            "midi": 49,
            "name": "C#3",
            "ticks": 84288,
            "time": 97.41124649999999,
            "velocity": 1
          },
          {
            "duration": 0.2218935000000073,
            "durationTicks": 192,
            "midi": 39,
            "name": "D#2",
            "ticks": 84672,
            "time": 97.85503349999999,
            "velocity": 1
          },
          {
            "duration": 0.2218935000000073,
            "durationTicks": 192,
            "midi": 51,
            "name": "D#3",
            "ticks": 84672,
            "time": 97.85503349999999,
            "velocity": 1
          },
          {
            "duration": 0.2218935000000073,
            "durationTicks": 192,
            "midi": 46,
            "name": "A#2",
            "ticks": 84672,
            "time": 97.85503349999999,
            "velocity": 1
          },
          {
            "duration": 0.22189349999999308,
            "durationTicks": 192,
            "midi": 39,
            "name": "D#2",
            "ticks": 84864,
            "time": 98.076927,
            "velocity": 1
          },
          {
            "duration": 0.22189349999999308,
            "durationTicks": 192,
            "midi": 51,
            "name": "D#3",
            "ticks": 84864,
            "time": 98.076927,
            "velocity": 1
          },
          {
            "duration": 0.22189349999999308,
            "durationTicks": 192,
            "midi": 46,
            "name": "A#2",
            "ticks": 84864,
            "time": 98.076927,
            "velocity": 1
          },
          {
            "duration": 0.2218935000000073,
            "durationTicks": 192,
            "midi": 39,
            "name": "D#2",
            "ticks": 85056,
            "time": 98.29882049999999,
            "velocity": 1
          },
          {
            "duration": 0.2218935000000073,
            "durationTicks": 192,
            "midi": 51,
            "name": "D#3",
            "ticks": 85056,
            "time": 98.29882049999999,
            "velocity": 1
          },
          {
            "duration": 0.2218935000000073,
            "durationTicks": 192,
            "midi": 46,
            "name": "A#2",
            "ticks": 85056,
            "time": 98.29882049999999,
            "velocity": 1
          },
          {
            "duration": 0.22189349999999308,
            "durationTicks": 192,
            "midi": 39,
            "name": "D#2",
            "ticks": 85248,
            "time": 98.520714,
            "velocity": 1
          },
          {
            "duration": 0.22189349999999308,
            "durationTicks": 192,
            "midi": 51,
            "name": "D#3",
            "ticks": 85248,
            "time": 98.520714,
            "velocity": 1
          },
          {
            "duration": 0.22189349999999308,
            "durationTicks": 192,
            "midi": 46,
            "name": "A#2",
            "ticks": 85248,
            "time": 98.520714,
            "velocity": 1
          },
          {
            "duration": 0.2218935000000073,
            "durationTicks": 192,
            "midi": 39,
            "name": "D#2",
            "ticks": 85440,
            "time": 98.74260749999999,
            "velocity": 1
          },
          {
            "duration": 0.2218935000000073,
            "durationTicks": 192,
            "midi": 51,
            "name": "D#3",
            "ticks": 85440,
            "time": 98.74260749999999,
            "velocity": 1
          },
          {
            "duration": 0.2218935000000073,
            "durationTicks": 192,
            "midi": 46,
            "name": "A#2",
            "ticks": 85440,
            "time": 98.74260749999999,
            "velocity": 1
          },
          {
            "duration": 0.22189349999999308,
            "durationTicks": 192,
            "midi": 39,
            "name": "D#2",
            "ticks": 85632,
            "time": 98.964501,
            "velocity": 1
          },
          {
            "duration": 0.22189349999999308,
            "durationTicks": 192,
            "midi": 51,
            "name": "D#3",
            "ticks": 85632,
            "time": 98.964501,
            "velocity": 1
          },
          {
            "duration": 0.22189349999999308,
            "durationTicks": 192,
            "midi": 46,
            "name": "A#2",
            "ticks": 85632,
            "time": 98.964501,
            "velocity": 1
          },
          {
            "duration": 0.4437870000000004,
            "durationTicks": 384,
            "midi": 42,
            "name": "F#2",
            "ticks": 85824,
            "time": 99.18639449999999,
            "velocity": 1
          },
          {
            "duration": 0.4437870000000004,
            "durationTicks": 384,
            "midi": 54,
            "name": "F#3",
            "ticks": 85824,
            "time": 99.18639449999999,
            "velocity": 1
          },
          {
            "duration": 0.4437870000000004,
            "durationTicks": 384,
            "midi": 49,
            "name": "C#3",
            "ticks": 85824,
            "time": 99.18639449999999,
            "velocity": 1
          },
          {
            "duration": 0.2218935000000073,
            "durationTicks": 192,
            "midi": 39,
            "name": "D#2",
            "ticks": 86208,
            "time": 99.63018149999999,
            "velocity": 1
          },
          {
            "duration": 0.2218935000000073,
            "durationTicks": 192,
            "midi": 51,
            "name": "D#3",
            "ticks": 86208,
            "time": 99.63018149999999,
            "velocity": 1
          },
          {
            "duration": 0.2218935000000073,
            "durationTicks": 192,
            "midi": 46,
            "name": "A#2",
            "ticks": 86208,
            "time": 99.63018149999999,
            "velocity": 1
          },
          {
            "duration": 0.22189349999999308,
            "durationTicks": 192,
            "midi": 39,
            "name": "D#2",
            "ticks": 86400,
            "time": 99.852075,
            "velocity": 1
          },
          {
            "duration": 0.22189349999999308,
            "durationTicks": 192,
            "midi": 51,
            "name": "D#3",
            "ticks": 86400,
            "time": 99.852075,
            "velocity": 1
          },
          {
            "duration": 0.22189349999999308,
            "durationTicks": 192,
            "midi": 46,
            "name": "A#2",
            "ticks": 86400,
            "time": 99.852075,
            "velocity": 1
          },
          {
            "duration": 0.2218935000000073,
            "durationTicks": 192,
            "midi": 39,
            "name": "D#2",
            "ticks": 86592,
            "time": 100.07396849999999,
            "velocity": 1
          },
          {
            "duration": 0.2218935000000073,
            "durationTicks": 192,
            "midi": 51,
            "name": "D#3",
            "ticks": 86592,
            "time": 100.07396849999999,
            "velocity": 1
          },
          {
            "duration": 0.2218935000000073,
            "durationTicks": 192,
            "midi": 46,
            "name": "A#2",
            "ticks": 86592,
            "time": 100.07396849999999,
            "velocity": 1
          },
          {
            "duration": 0.22189349999999308,
            "durationTicks": 192,
            "midi": 39,
            "name": "D#2",
            "ticks": 86784,
            "time": 100.295862,
            "velocity": 1
          },
          {
            "duration": 0.22189349999999308,
            "durationTicks": 192,
            "midi": 51,
            "name": "D#3",
            "ticks": 86784,
            "time": 100.295862,
            "velocity": 1
          },
          {
            "duration": 0.22189349999999308,
            "durationTicks": 192,
            "midi": 46,
            "name": "A#2",
            "ticks": 86784,
            "time": 100.295862,
            "velocity": 1
          },
          {
            "duration": 0.2218935000000073,
            "durationTicks": 192,
            "midi": 39,
            "name": "D#2",
            "ticks": 86976,
            "time": 100.51775549999999,
            "velocity": 1
          },
          {
            "duration": 0.2218935000000073,
            "durationTicks": 192,
            "midi": 51,
            "name": "D#3",
            "ticks": 86976,
            "time": 100.51775549999999,
            "velocity": 1
          },
          {
            "duration": 0.2218935000000073,
            "durationTicks": 192,
            "midi": 46,
            "name": "A#2",
            "ticks": 86976,
            "time": 100.51775549999999,
            "velocity": 1
          },
          {
            "duration": 0.22189349999999308,
            "durationTicks": 192,
            "midi": 39,
            "name": "D#2",
            "ticks": 87168,
            "time": 100.739649,
            "velocity": 1
          },
          {
            "duration": 0.22189349999999308,
            "durationTicks": 192,
            "midi": 51,
            "name": "D#3",
            "ticks": 87168,
            "time": 100.739649,
            "velocity": 1
          },
          {
            "duration": 0.22189349999999308,
            "durationTicks": 192,
            "midi": 46,
            "name": "A#2",
            "ticks": 87168,
            "time": 100.739649,
            "velocity": 1
          },
          {
            "duration": 0.4437870000000004,
            "durationTicks": 384,
            "midi": 42,
            "name": "F#2",
            "ticks": 87360,
            "time": 100.9615425,
            "velocity": 1
          },
          {
            "duration": 0.4437870000000004,
            "durationTicks": 384,
            "midi": 54,
            "name": "F#3",
            "ticks": 87360,
            "time": 100.9615425,
            "velocity": 1
          },
          {
            "duration": 0.4437870000000004,
            "durationTicks": 384,
            "midi": 49,
            "name": "C#3",
            "ticks": 87360,
            "time": 100.9615425,
            "velocity": 1
          },
          {
            "duration": 0.2218935000000073,
            "durationTicks": 192,
            "midi": 39,
            "name": "D#2",
            "ticks": 87744,
            "time": 101.4053295,
            "velocity": 1
          },
          {
            "duration": 0.2218935000000073,
            "durationTicks": 192,
            "midi": 51,
            "name": "D#3",
            "ticks": 87744,
            "time": 101.4053295,
            "velocity": 1
          },
          {
            "duration": 0.2218935000000073,
            "durationTicks": 192,
            "midi": 46,
            "name": "A#2",
            "ticks": 87744,
            "time": 101.4053295,
            "velocity": 1
          },
          {
            "duration": 0.22189349999999308,
            "durationTicks": 192,
            "midi": 39,
            "name": "D#2",
            "ticks": 87936,
            "time": 101.627223,
            "velocity": 1
          },
          {
            "duration": 0.22189349999999308,
            "durationTicks": 192,
            "midi": 51,
            "name": "D#3",
            "ticks": 87936,
            "time": 101.627223,
            "velocity": 1
          },
          {
            "duration": 0.22189349999999308,
            "durationTicks": 192,
            "midi": 46,
            "name": "A#2",
            "ticks": 87936,
            "time": 101.627223,
            "velocity": 1
          },
          {
            "duration": 0.2218935000000073,
            "durationTicks": 192,
            "midi": 39,
            "name": "D#2",
            "ticks": 88128,
            "time": 101.8491165,
            "velocity": 1
          },
          {
            "duration": 0.2218935000000073,
            "durationTicks": 192,
            "midi": 51,
            "name": "D#3",
            "ticks": 88128,
            "time": 101.8491165,
            "velocity": 1
          },
          {
            "duration": 0.2218935000000073,
            "durationTicks": 192,
            "midi": 46,
            "name": "A#2",
            "ticks": 88128,
            "time": 101.8491165,
            "velocity": 1
          },
          {
            "duration": 0.22189349999999308,
            "durationTicks": 192,
            "midi": 39,
            "name": "D#2",
            "ticks": 88320,
            "time": 102.07101,
            "velocity": 1
          },
          {
            "duration": 0.22189349999999308,
            "durationTicks": 192,
            "midi": 51,
            "name": "D#3",
            "ticks": 88320,
            "time": 102.07101,
            "velocity": 1
          },
          {
            "duration": 0.22189349999999308,
            "durationTicks": 192,
            "midi": 46,
            "name": "A#2",
            "ticks": 88320,
            "time": 102.07101,
            "velocity": 1
          },
          {
            "duration": 0.2218935000000073,
            "durationTicks": 192,
            "midi": 39,
            "name": "D#2",
            "ticks": 88512,
            "time": 102.2929035,
            "velocity": 1
          },
          {
            "duration": 0.2218935000000073,
            "durationTicks": 192,
            "midi": 51,
            "name": "D#3",
            "ticks": 88512,
            "time": 102.2929035,
            "velocity": 1
          },
          {
            "duration": 0.2218935000000073,
            "durationTicks": 192,
            "midi": 46,
            "name": "A#2",
            "ticks": 88512,
            "time": 102.2929035,
            "velocity": 1
          },
          {
            "duration": 0.22189349999999308,
            "durationTicks": 192,
            "midi": 39,
            "name": "D#2",
            "ticks": 88704,
            "time": 102.514797,
            "velocity": 1
          },
          {
            "duration": 0.22189349999999308,
            "durationTicks": 192,
            "midi": 51,
            "name": "D#3",
            "ticks": 88704,
            "time": 102.514797,
            "velocity": 1
          },
          {
            "duration": 0.22189349999999308,
            "durationTicks": 192,
            "midi": 46,
            "name": "A#2",
            "ticks": 88704,
            "time": 102.514797,
            "velocity": 1
          },
          {
            "duration": 0.4299186562499955,
            "durationTicks": 372,
            "midi": 56,
            "name": "G#3",
            "ticks": 88896,
            "time": 102.7366905,
            "velocity": 1
          },
          {
            "duration": 0.4299186562499955,
            "durationTicks": 372,
            "midi": 51,
            "name": "D#3",
            "ticks": 88896,
            "time": 102.7366905,
            "velocity": 1
          },
          {
            "duration": 0.4299186562499955,
            "durationTicks": 372,
            "midi": 44,
            "name": "G#2",
            "ticks": 88896,
            "time": 102.7366905,
            "velocity": 1
          },
          {
            "duration": 0.2218935000000073,
            "durationTicks": 192,
            "midi": 44,
            "name": "G#2",
            "ticks": 89280,
            "time": 103.1804775,
            "velocity": 1
          },
          {
            "duration": 0.2218935000000073,
            "durationTicks": 192,
            "midi": 56,
            "name": "G#3",
            "ticks": 89280,
            "time": 103.1804775,
            "velocity": 1
          },
          {
            "duration": 0.2218935000000073,
            "durationTicks": 192,
            "midi": 51,
            "name": "D#3",
            "ticks": 89280,
            "time": 103.1804775,
            "velocity": 1
          },
          {
            "duration": 0.4437870000000004,
            "durationTicks": 384,
            "midi": 47,
            "name": "B2",
            "ticks": 89472,
            "time": 103.402371,
            "velocity": 1
          },
          {
            "duration": 0.4437870000000004,
            "durationTicks": 384,
            "midi": 59,
            "name": "B3",
            "ticks": 89472,
            "time": 103.402371,
            "velocity": 1
          },
          {
            "duration": 0.4437870000000004,
            "durationTicks": 384,
            "midi": 54,
            "name": "F#3",
            "ticks": 89472,
            "time": 103.402371,
            "velocity": 1
          },
          {
            "duration": 0.6656804999999935,
            "durationTicks": 576,
            "midi": 49,
            "name": "C#3",
            "ticks": 89856,
            "time": 103.846158,
            "velocity": 1
          },
          {
            "duration": 0.6656804999999935,
            "durationTicks": 576,
            "midi": 61,
            "name": "C#4",
            "ticks": 89856,
            "time": 103.846158,
            "velocity": 1
          },
          {
            "duration": 0.6656804999999935,
            "durationTicks": 576,
            "midi": 56,
            "name": "G#3",
            "ticks": 89856,
            "time": 103.846158,
            "velocity": 1
          },
          {
            "duration": 0.4437870000000004,
            "durationTicks": 384,
            "midi": 44,
            "name": "G#2",
            "ticks": 90432,
            "time": 104.5118385,
            "velocity": 1
          },
          {
            "duration": 0.4437870000000004,
            "durationTicks": 384,
            "midi": 56,
            "name": "G#3",
            "ticks": 90432,
            "time": 104.5118385,
            "velocity": 1
          },
          {
            "duration": 0.4437870000000004,
            "durationTicks": 384,
            "midi": 51,
            "name": "D#3",
            "ticks": 90432,
            "time": 104.5118385,
            "velocity": 1
          },
          {
            "duration": 0.2218935000000073,
            "durationTicks": 192,
            "midi": 44,
            "name": "G#2",
            "ticks": 90816,
            "time": 104.9556255,
            "velocity": 1
          },
          {
            "duration": 0.2218935000000073,
            "durationTicks": 192,
            "midi": 56,
            "name": "G#3",
            "ticks": 90816,
            "time": 104.9556255,
            "velocity": 1
          },
          {
            "duration": 0.2218935000000073,
            "durationTicks": 192,
            "midi": 51,
            "name": "D#3",
            "ticks": 90816,
            "time": 104.9556255,
            "velocity": 1
          },
          {
            "duration": 0.44378699999998616,
            "durationTicks": 384,
            "midi": 47,
            "name": "B2",
            "ticks": 91008,
            "time": 105.177519,
            "velocity": 1
          },
          {
            "duration": 0.44378699999998616,
            "durationTicks": 384,
            "midi": 59,
            "name": "B3",
            "ticks": 91008,
            "time": 105.177519,
            "velocity": 1
          },
          {
            "duration": 0.44378699999998616,
            "durationTicks": 384,
            "midi": 54,
            "name": "F#3",
            "ticks": 91008,
            "time": 105.177519,
            "velocity": 1
          },
          {
            "duration": 0.6656805000000077,
            "durationTicks": 576,
            "midi": 49,
            "name": "C#3",
            "ticks": 91392,
            "time": 105.62130599999999,
            "velocity": 1
          },
          {
            "duration": 0.6656805000000077,
            "durationTicks": 576,
            "midi": 61,
            "name": "C#4",
            "ticks": 91392,
            "time": 105.62130599999999,
            "velocity": 1
          },
          {
            "duration": 0.6656805000000077,
            "durationTicks": 576,
            "midi": 56,
            "name": "G#3",
            "ticks": 91392,
            "time": 105.62130599999999,
            "velocity": 1
          },
          {
            "duration": 0.4437870000000004,
            "durationTicks": 384,
            "midi": 44,
            "name": "G#2",
            "ticks": 91968,
            "time": 106.2869865,
            "velocity": 1
          },
          {
            "duration": 0.4437870000000004,
            "durationTicks": 384,
            "midi": 56,
            "name": "G#3",
            "ticks": 91968,
            "time": 106.2869865,
            "velocity": 1
          },
          {
            "duration": 0.4437870000000004,
            "durationTicks": 384,
            "midi": 51,
            "name": "D#3",
            "ticks": 91968,
            "time": 106.2869865,
            "velocity": 1
          },
          {
            "duration": 0.22189349999999308,
            "durationTicks": 192,
            "midi": 44,
            "name": "G#2",
            "ticks": 92352,
            "time": 106.7307735,
            "velocity": 1
          },
          {
            "duration": 0.22189349999999308,
            "durationTicks": 192,
            "midi": 56,
            "name": "G#3",
            "ticks": 92352,
            "time": 106.7307735,
            "velocity": 1
          },
          {
            "duration": 0.22189349999999308,
            "durationTicks": 192,
            "midi": 51,
            "name": "D#3",
            "ticks": 92352,
            "time": 106.7307735,
            "velocity": 1
          },
          {
            "duration": 0.4437870000000004,
            "durationTicks": 384,
            "midi": 47,
            "name": "B2",
            "ticks": 92544,
            "time": 106.95266699999999,
            "velocity": 1
          },
          {
            "duration": 0.4437870000000004,
            "durationTicks": 384,
            "midi": 59,
            "name": "B3",
            "ticks": 92544,
            "time": 106.95266699999999,
            "velocity": 1
          },
          {
            "duration": 0.4437870000000004,
            "durationTicks": 384,
            "midi": 54,
            "name": "F#3",
            "ticks": 92544,
            "time": 106.95266699999999,
            "velocity": 1
          },
          {
            "duration": 0.6656805000000077,
            "durationTicks": 576,
            "midi": 49,
            "name": "C#3",
            "ticks": 92928,
            "time": 107.39645399999999,
            "velocity": 1
          },
          {
            "duration": 0.6656805000000077,
            "durationTicks": 576,
            "midi": 61,
            "name": "C#4",
            "ticks": 92928,
            "time": 107.39645399999999,
            "velocity": 1
          },
          {
            "duration": 0.6656805000000077,
            "durationTicks": 576,
            "midi": 56,
            "name": "G#3",
            "ticks": 92928,
            "time": 107.39645399999999,
            "velocity": 1
          },
          {
            "duration": 0.4437870000000004,
            "durationTicks": 384,
            "midi": 44,
            "name": "G#2",
            "ticks": 93504,
            "time": 108.0621345,
            "velocity": 1
          },
          {
            "duration": 0.4437870000000004,
            "durationTicks": 384,
            "midi": 56,
            "name": "G#3",
            "ticks": 93504,
            "time": 108.0621345,
            "velocity": 1
          },
          {
            "duration": 0.4437870000000004,
            "durationTicks": 384,
            "midi": 51,
            "name": "D#3",
            "ticks": 93504,
            "time": 108.0621345,
            "velocity": 1
          },
          {
            "duration": 0.22189349999999308,
            "durationTicks": 192,
            "midi": 44,
            "name": "G#2",
            "ticks": 93888,
            "time": 108.5059215,
            "velocity": 1
          },
          {
            "duration": 0.22189349999999308,
            "durationTicks": 192,
            "midi": 56,
            "name": "G#3",
            "ticks": 93888,
            "time": 108.5059215,
            "velocity": 1
          },
          {
            "duration": 0.22189349999999308,
            "durationTicks": 192,
            "midi": 51,
            "name": "D#3",
            "ticks": 93888,
            "time": 108.5059215,
            "velocity": 1
          },
          {
            "duration": 0.4437870000000004,
            "durationTicks": 384,
            "midi": 47,
            "name": "B2",
            "ticks": 94080,
            "time": 108.72781499999999,
            "velocity": 1
          },
          {
            "duration": 0.4437870000000004,
            "durationTicks": 384,
            "midi": 59,
            "name": "B3",
            "ticks": 94080,
            "time": 108.72781499999999,
            "velocity": 1
          },
          {
            "duration": 0.4437870000000004,
            "durationTicks": 384,
            "midi": 54,
            "name": "F#3",
            "ticks": 94080,
            "time": 108.72781499999999,
            "velocity": 1
          },
          {
            "duration": 0.6656805000000077,
            "durationTicks": 576,
            "midi": 49,
            "name": "C#3",
            "ticks": 94464,
            "time": 109.171602,
            "velocity": 1
          },
          {
            "duration": 0.6656805000000077,
            "durationTicks": 576,
            "midi": 61,
            "name": "C#4",
            "ticks": 94464,
            "time": 109.171602,
            "velocity": 1
          },
          {
            "duration": 0.6656805000000077,
            "durationTicks": 576,
            "midi": 56,
            "name": "G#3",
            "ticks": 94464,
            "time": 109.171602,
            "velocity": 1
          },
          {
            "duration": 0.22189349999999308,
            "durationTicks": 192,
            "midi": 44,
            "name": "G#2",
            "ticks": 95040,
            "time": 109.8372825,
            "velocity": 1
          },
          {
            "duration": 0.22189349999999308,
            "durationTicks": 192,
            "midi": 56,
            "name": "G#3",
            "ticks": 95040,
            "time": 109.8372825,
            "velocity": 1
          },
          {
            "duration": 0.22189349999999308,
            "durationTicks": 192,
            "midi": 51,
            "name": "D#3",
            "ticks": 95040,
            "time": 109.8372825,
            "velocity": 1
          },
          {
            "duration": 0.2218935000000073,
            "durationTicks": 192,
            "midi": 39,
            "name": "D#2",
            "ticks": 95232,
            "time": 110.059176,
            "velocity": 1
          },
          {
            "duration": 0.2218935000000073,
            "durationTicks": 192,
            "midi": 51,
            "name": "D#3",
            "ticks": 95232,
            "time": 110.059176,
            "velocity": 1
          },
          {
            "duration": 0.2218935000000073,
            "durationTicks": 192,
            "midi": 46,
            "name": "A#2",
            "ticks": 95232,
            "time": 110.059176,
            "velocity": 1
          },
          {
            "duration": 0.22189349999999308,
            "durationTicks": 192,
            "midi": 44,
            "name": "G#2",
            "ticks": 95424,
            "time": 110.2810695,
            "velocity": 1
          },
          {
            "duration": 0.22189349999999308,
            "durationTicks": 192,
            "midi": 56,
            "name": "G#3",
            "ticks": 95424,
            "time": 110.2810695,
            "velocity": 1
          },
          {
            "duration": 0.22189349999999308,
            "durationTicks": 192,
            "midi": 51,
            "name": "D#3",
            "ticks": 95424,
            "time": 110.2810695,
            "velocity": 1
          },
          {
            "duration": 0.4437870000000004,
            "durationTicks": 384,
            "midi": 47,
            "name": "B2",
            "ticks": 95616,
            "time": 110.502963,
            "velocity": 1
          },
          {
            "duration": 0.4437870000000004,
            "durationTicks": 384,
            "midi": 59,
            "name": "B3",
            "ticks": 95616,
            "time": 110.502963,
            "velocity": 1
          },
          {
            "duration": 0.4437870000000004,
            "durationTicks": 384,
            "midi": 54,
            "name": "F#3",
            "ticks": 95616,
            "time": 110.502963,
            "velocity": 1
          },
          {
            "duration": 0.6656805000000077,
            "durationTicks": 576,
            "midi": 49,
            "name": "C#3",
            "ticks": 96000,
            "time": 110.94675,
            "velocity": 1
          },
          {
            "duration": 0.6656805000000077,
            "durationTicks": 576,
            "midi": 61,
            "name": "C#4",
            "ticks": 96000,
            "time": 110.94675,
            "velocity": 1
          },
          {
            "duration": 0.6656805000000077,
            "durationTicks": 576,
            "midi": 56,
            "name": "G#3",
            "ticks": 96000,
            "time": 110.94675,
            "velocity": 1
          },
          {
            "duration": 0.4437870000000004,
            "durationTicks": 384,
            "midi": 44,
            "name": "G#2",
            "ticks": 96576,
            "time": 111.6124305,
            "velocity": 1
          },
          {
            "duration": 0.4437870000000004,
            "durationTicks": 384,
            "midi": 56,
            "name": "G#3",
            "ticks": 96576,
            "time": 111.6124305,
            "velocity": 1
          },
          {
            "duration": 0.4437870000000004,
            "durationTicks": 384,
            "midi": 51,
            "name": "D#3",
            "ticks": 96576,
            "time": 111.6124305,
            "velocity": 1
          },
          {
            "duration": 0.22189349999999308,
            "durationTicks": 192,
            "midi": 44,
            "name": "G#2",
            "ticks": 96960,
            "time": 112.0562175,
            "velocity": 1
          },
          {
            "duration": 0.22189349999999308,
            "durationTicks": 192,
            "midi": 56,
            "name": "G#3",
            "ticks": 96960,
            "time": 112.0562175,
            "velocity": 1
          },
          {
            "duration": 0.22189349999999308,
            "durationTicks": 192,
            "midi": 51,
            "name": "D#3",
            "ticks": 96960,
            "time": 112.0562175,
            "velocity": 1
          },
          {
            "duration": 0.4437870000000004,
            "durationTicks": 384,
            "midi": 47,
            "name": "B2",
            "ticks": 97152,
            "time": 112.278111,
            "velocity": 1
          },
          {
            "duration": 0.4437870000000004,
            "durationTicks": 384,
            "midi": 59,
            "name": "B3",
            "ticks": 97152,
            "time": 112.278111,
            "velocity": 1
          },
          {
            "duration": 0.4437870000000004,
            "durationTicks": 384,
            "midi": 54,
            "name": "F#3",
            "ticks": 97152,
            "time": 112.278111,
            "velocity": 1
          },
          {
            "duration": 0.6656805000000077,
            "durationTicks": 576,
            "midi": 49,
            "name": "C#3",
            "ticks": 97536,
            "time": 112.721898,
            "velocity": 1
          },
          {
            "duration": 0.6656805000000077,
            "durationTicks": 576,
            "midi": 61,
            "name": "C#4",
            "ticks": 97536,
            "time": 112.721898,
            "velocity": 1
          },
          {
            "duration": 0.6656805000000077,
            "durationTicks": 576,
            "midi": 56,
            "name": "G#3",
            "ticks": 97536,
            "time": 112.721898,
            "velocity": 1
          },
          {
            "duration": 0.44378699999998616,
            "durationTicks": 384,
            "midi": 44,
            "name": "G#2",
            "ticks": 98112,
            "time": 113.3875785,
            "velocity": 1
          },
          {
            "duration": 0.44378699999998616,
            "durationTicks": 384,
            "midi": 56,
            "name": "G#3",
            "ticks": 98112,
            "time": 113.3875785,
            "velocity": 1
          },
          {
            "duration": 0.44378699999998616,
            "durationTicks": 384,
            "midi": 51,
            "name": "D#3",
            "ticks": 98112,
            "time": 113.3875785,
            "velocity": 1
          },
          {
            "duration": 0.2218935000000073,
            "durationTicks": 192,
            "midi": 44,
            "name": "G#2",
            "ticks": 98496,
            "time": 113.83136549999999,
            "velocity": 1
          },
          {
            "duration": 0.2218935000000073,
            "durationTicks": 192,
            "midi": 56,
            "name": "G#3",
            "ticks": 98496,
            "time": 113.83136549999999,
            "velocity": 1
          },
          {
            "duration": 0.2218935000000073,
            "durationTicks": 192,
            "midi": 51,
            "name": "D#3",
            "ticks": 98496,
            "time": 113.83136549999999,
            "velocity": 1
          },
          {
            "duration": 0.4437870000000004,
            "durationTicks": 384,
            "midi": 47,
            "name": "B2",
            "ticks": 98688,
            "time": 114.053259,
            "velocity": 1
          },
          {
            "duration": 0.4437870000000004,
            "durationTicks": 384,
            "midi": 59,
            "name": "B3",
            "ticks": 98688,
            "time": 114.053259,
            "velocity": 1
          },
          {
            "duration": 0.4437870000000004,
            "durationTicks": 384,
            "midi": 54,
            "name": "F#3",
            "ticks": 98688,
            "time": 114.053259,
            "velocity": 1
          },
          {
            "duration": 0.6656804999999935,
            "durationTicks": 576,
            "midi": 49,
            "name": "C#3",
            "ticks": 99072,
            "time": 114.497046,
            "velocity": 1
          },
          {
            "duration": 0.6656804999999935,
            "durationTicks": 576,
            "midi": 61,
            "name": "C#4",
            "ticks": 99072,
            "time": 114.497046,
            "velocity": 1
          },
          {
            "duration": 0.6656804999999935,
            "durationTicks": 576,
            "midi": 56,
            "name": "G#3",
            "ticks": 99072,
            "time": 114.497046,
            "velocity": 1
          },
          {
            "duration": 0.4437870000000004,
            "durationTicks": 384,
            "midi": 44,
            "name": "G#2",
            "ticks": 99648,
            "time": 115.16272649999999,
            "velocity": 1
          },
          {
            "duration": 0.4437870000000004,
            "durationTicks": 384,
            "midi": 56,
            "name": "G#3",
            "ticks": 99648,
            "time": 115.16272649999999,
            "velocity": 1
          },
          {
            "duration": 0.4437870000000004,
            "durationTicks": 384,
            "midi": 51,
            "name": "D#3",
            "ticks": 99648,
            "time": 115.16272649999999,
            "velocity": 1
          },
          {
            "duration": 0.2218935000000073,
            "durationTicks": 192,
            "midi": 44,
            "name": "G#2",
            "ticks": 100032,
            "time": 115.60651349999999,
            "velocity": 1
          },
          {
            "duration": 0.2218935000000073,
            "durationTicks": 192,
            "midi": 56,
            "name": "G#3",
            "ticks": 100032,
            "time": 115.60651349999999,
            "velocity": 1
          },
          {
            "duration": 0.2218935000000073,
            "durationTicks": 192,
            "midi": 51,
            "name": "D#3",
            "ticks": 100032,
            "time": 115.60651349999999,
            "velocity": 1
          },
          {
            "duration": 0.4437870000000004,
            "durationTicks": 384,
            "midi": 47,
            "name": "B2",
            "ticks": 100224,
            "time": 115.828407,
            "velocity": 1
          },
          {
            "duration": 0.4437870000000004,
            "durationTicks": 384,
            "midi": 59,
            "name": "B3",
            "ticks": 100224,
            "time": 115.828407,
            "velocity": 1
          },
          {
            "duration": 0.4437870000000004,
            "durationTicks": 384,
            "midi": 54,
            "name": "F#3",
            "ticks": 100224,
            "time": 115.828407,
            "velocity": 1
          },
          {
            "duration": 0.6656804999999935,
            "durationTicks": 576,
            "midi": 49,
            "name": "C#3",
            "ticks": 100608,
            "time": 116.272194,
            "velocity": 1
          },
          {
            "duration": 0.6656804999999935,
            "durationTicks": 576,
            "midi": 61,
            "name": "C#4",
            "ticks": 100608,
            "time": 116.272194,
            "velocity": 1
          },
          {
            "duration": 0.6656804999999935,
            "durationTicks": 576,
            "midi": 56,
            "name": "G#3",
            "ticks": 100608,
            "time": 116.272194,
            "velocity": 1
          },
          {
            "duration": 0.2218935000000073,
            "durationTicks": 192,
            "midi": 44,
            "name": "G#2",
            "ticks": 101184,
            "time": 116.93787449999999,
            "velocity": 1
          },
          {
            "duration": 0.2218935000000073,
            "durationTicks": 192,
            "midi": 56,
            "name": "G#3",
            "ticks": 101184,
            "time": 116.93787449999999,
            "velocity": 1
          },
          {
            "duration": 0.2218935000000073,
            "durationTicks": 192,
            "midi": 51,
            "name": "D#3",
            "ticks": 101184,
            "time": 116.93787449999999,
            "velocity": 1
          },
          {
            "duration": 0.11556953125000291,
            "durationTicks": 100,
            "midi": 51,
            "name": "D#3",
            "ticks": 101376,
            "time": 117.159768,
            "velocity": 1
          },
          {
            "duration": 0.11556953125000291,
            "durationTicks": 100,
            "midi": 56,
            "name": "G#3",
            "ticks": 101376,
            "time": 117.159768,
            "velocity": 1
          },
          {
            "duration": 0.10632396874999017,
            "durationTicks": 92,
            "midi": 44,
            "name": "G#2",
            "ticks": 101376,
            "time": 117.159768,
            "velocity": 1
          },
          {
            "duration": 0.11094675000001075,
            "durationTicks": 96,
            "midi": 44,
            "name": "G#2",
            "ticks": 101568,
            "time": 117.38166149999999,
            "velocity": 1
          },
          {
            "duration": 0.11094675000001075,
            "durationTicks": 96,
            "midi": 56,
            "name": "G#3",
            "ticks": 101568,
            "time": 117.38166149999999,
            "velocity": 1
          },
          {
            "duration": 0.11094675000001075,
            "durationTicks": 96,
            "midi": 51,
            "name": "D#3",
            "ticks": 101568,
            "time": 117.38166149999999,
            "velocity": 1
          },
          {
            "duration": 0.11094674999999654,
            "durationTicks": 96,
            "midi": 44,
            "name": "G#2",
            "ticks": 101760,
            "time": 117.603555,
            "velocity": 1
          },
          {
            "duration": 0.11094674999999654,
            "durationTicks": 96,
            "midi": 56,
            "name": "G#3",
            "ticks": 101760,
            "time": 117.603555,
            "velocity": 1
          },
          {
            "duration": 0.11094674999999654,
            "durationTicks": 96,
            "midi": 51,
            "name": "D#3",
            "ticks": 101760,
            "time": 117.603555,
            "velocity": 1
          },
          {
            "duration": 0.11094674999999654,
            "durationTicks": 96,
            "midi": 44,
            "name": "G#2",
            "ticks": 101952,
            "time": 117.8254485,
            "velocity": 1
          },
          {
            "duration": 0.11094674999999654,
            "durationTicks": 96,
            "midi": 56,
            "name": "G#3",
            "ticks": 101952,
            "time": 117.8254485,
            "velocity": 1
          },
          {
            "duration": 0.11094674999999654,
            "durationTicks": 96,
            "midi": 51,
            "name": "D#3",
            "ticks": 101952,
            "time": 117.8254485,
            "velocity": 1
          },
          {
            "duration": 0.11094674999999654,
            "durationTicks": 96,
            "midi": 44,
            "name": "G#2",
            "ticks": 102144,
            "time": 118.047342,
            "velocity": 1
          },
          {
            "duration": 0.11094674999999654,
            "durationTicks": 96,
            "midi": 56,
            "name": "G#3",
            "ticks": 102144,
            "time": 118.047342,
            "velocity": 1
          },
          {
            "duration": 0.11094674999999654,
            "durationTicks": 96,
            "midi": 51,
            "name": "D#3",
            "ticks": 102144,
            "time": 118.047342,
            "velocity": 1
          },
          {
            "duration": 0.11094674999999654,
            "durationTicks": 96,
            "midi": 44,
            "name": "G#2",
            "ticks": 102336,
            "time": 118.2692355,
            "velocity": 1
          },
          {
            "duration": 0.11094674999999654,
            "durationTicks": 96,
            "midi": 56,
            "name": "G#3",
            "ticks": 102336,
            "time": 118.2692355,
            "velocity": 1
          },
          {
            "duration": 0.11094674999999654,
            "durationTicks": 96,
            "midi": 51,
            "name": "D#3",
            "ticks": 102336,
            "time": 118.2692355,
            "velocity": 1
          },
          {
            "duration": 0.11094674999999654,
            "durationTicks": 96,
            "midi": 44,
            "name": "G#2",
            "ticks": 102528,
            "time": 118.491129,
            "velocity": 1
          },
          {
            "duration": 0.11094674999999654,
            "durationTicks": 96,
            "midi": 56,
            "name": "G#3",
            "ticks": 102528,
            "time": 118.491129,
            "velocity": 1
          },
          {
            "duration": 0.11094674999999654,
            "durationTicks": 96,
            "midi": 51,
            "name": "D#3",
            "ticks": 102528,
            "time": 118.491129,
            "velocity": 1
          },
          {
            "duration": 0.11094674999999654,
            "durationTicks": 96,
            "midi": 44,
            "name": "G#2",
            "ticks": 102720,
            "time": 118.7130225,
            "velocity": 1
          },
          {
            "duration": 0.11094674999999654,
            "durationTicks": 96,
            "midi": 56,
            "name": "G#3",
            "ticks": 102720,
            "time": 118.7130225,
            "velocity": 1
          },
          {
            "duration": 0.11094674999999654,
            "durationTicks": 96,
            "midi": 51,
            "name": "D#3",
            "ticks": 102720,
            "time": 118.7130225,
            "velocity": 1
          },
          {
            "duration": 0.11094674999999654,
            "durationTicks": 96,
            "midi": 44,
            "name": "G#2",
            "ticks": 102912,
            "time": 118.934916,
            "velocity": 1
          },
          {
            "duration": 0.11094674999999654,
            "durationTicks": 96,
            "midi": 56,
            "name": "G#3",
            "ticks": 102912,
            "time": 118.934916,
            "velocity": 1
          },
          {
            "duration": 0.11094674999999654,
            "durationTicks": 96,
            "midi": 51,
            "name": "D#3",
            "ticks": 102912,
            "time": 118.934916,
            "velocity": 1
          },
          {
            "duration": 0.11094674999999654,
            "durationTicks": 96,
            "midi": 44,
            "name": "G#2",
            "ticks": 103104,
            "time": 119.1568095,
            "velocity": 1
          },
          {
            "duration": 0.11094674999999654,
            "durationTicks": 96,
            "midi": 56,
            "name": "G#3",
            "ticks": 103104,
            "time": 119.1568095,
            "velocity": 1
          },
          {
            "duration": 0.11094674999999654,
            "durationTicks": 96,
            "midi": 51,
            "name": "D#3",
            "ticks": 103104,
            "time": 119.1568095,
            "velocity": 1
          },
          {
            "duration": 0.11094674999999654,
            "durationTicks": 96,
            "midi": 44,
            "name": "G#2",
            "ticks": 103296,
            "time": 119.378703,
            "velocity": 1
          },
          {
            "duration": 0.11094674999999654,
            "durationTicks": 96,
            "midi": 56,
            "name": "G#3",
            "ticks": 103296,
            "time": 119.378703,
            "velocity": 1
          },
          {
            "duration": 0.11094674999999654,
            "durationTicks": 96,
            "midi": 51,
            "name": "D#3",
            "ticks": 103296,
            "time": 119.378703,
            "velocity": 1
          },
          {
            "duration": 0.11094674999999654,
            "durationTicks": 96,
            "midi": 44,
            "name": "G#2",
            "ticks": 103488,
            "time": 119.6005965,
            "velocity": 1
          },
          {
            "duration": 0.11094674999999654,
            "durationTicks": 96,
            "midi": 56,
            "name": "G#3",
            "ticks": 103488,
            "time": 119.6005965,
            "velocity": 1
          },
          {
            "duration": 0.11094674999999654,
            "durationTicks": 96,
            "midi": 51,
            "name": "D#3",
            "ticks": 103488,
            "time": 119.6005965,
            "velocity": 1
          },
          {
            "duration": 0.11094674999999654,
            "durationTicks": 96,
            "midi": 44,
            "name": "G#2",
            "ticks": 103680,
            "time": 119.82249,
            "velocity": 1
          },
          {
            "duration": 0.11094674999999654,
            "durationTicks": 96,
            "midi": 56,
            "name": "G#3",
            "ticks": 103680,
            "time": 119.82249,
            "velocity": 1
          },
          {
            "duration": 0.11094674999999654,
            "durationTicks": 96,
            "midi": 51,
            "name": "D#3",
            "ticks": 103680,
            "time": 119.82249,
            "velocity": 1
          },
          {
            "duration": 0.11094674999999654,
            "durationTicks": 96,
            "midi": 44,
            "name": "G#2",
            "ticks": 103872,
            "time": 120.0443835,
            "velocity": 1
          },
          {
            "duration": 0.11094674999999654,
            "durationTicks": 96,
            "midi": 56,
            "name": "G#3",
            "ticks": 103872,
            "time": 120.0443835,
            "velocity": 1
          },
          {
            "duration": 0.11094674999999654,
            "durationTicks": 96,
            "midi": 51,
            "name": "D#3",
            "ticks": 103872,
            "time": 120.0443835,
            "velocity": 1
          },
          {
            "duration": 0.11094674999999654,
            "durationTicks": 96,
            "midi": 44,
            "name": "G#2",
            "ticks": 104064,
            "time": 120.266277,
            "velocity": 1
          },
          {
            "duration": 0.11094674999999654,
            "durationTicks": 96,
            "midi": 56,
            "name": "G#3",
            "ticks": 104064,
            "time": 120.266277,
            "velocity": 1
          },
          {
            "duration": 0.11094674999999654,
            "durationTicks": 96,
            "midi": 51,
            "name": "D#3",
            "ticks": 104064,
            "time": 120.266277,
            "velocity": 1
          },
          {
            "duration": 0.4437870000000004,
            "durationTicks": 384,
            "midi": 44,
            "name": "G#2",
            "ticks": 104256,
            "time": 120.4881705,
            "velocity": 1
          },
          {
            "duration": 0.4437870000000004,
            "durationTicks": 384,
            "midi": 56,
            "name": "G#3",
            "ticks": 104256,
            "time": 120.4881705,
            "velocity": 1
          },
          {
            "duration": 0.4437870000000004,
            "durationTicks": 384,
            "midi": 51,
            "name": "D#3",
            "ticks": 104256,
            "time": 120.4881705,
            "velocity": 1
          },
          {
            "duration": 0.2218935000000073,
            "durationTicks": 192,
            "midi": 44,
            "name": "G#2",
            "ticks": 104640,
            "time": 120.9319575,
            "velocity": 1
          },
          {
            "duration": 0.2218935000000073,
            "durationTicks": 192,
            "midi": 56,
            "name": "G#3",
            "ticks": 104640,
            "time": 120.9319575,
            "velocity": 1
          },
          {
            "duration": 0.2218935000000073,
            "durationTicks": 192,
            "midi": 51,
            "name": "D#3",
            "ticks": 104640,
            "time": 120.9319575,
            "velocity": 1
          },
          {
            "duration": 0.4437870000000004,
            "durationTicks": 384,
            "midi": 47,
            "name": "B2",
            "ticks": 104832,
            "time": 121.153851,
            "velocity": 1
          },
          {
            "duration": 0.4437870000000004,
            "durationTicks": 384,
            "midi": 59,
            "name": "B3",
            "ticks": 104832,
            "time": 121.153851,
            "velocity": 1
          },
          {
            "duration": 0.4437870000000004,
            "durationTicks": 384,
            "midi": 54,
            "name": "F#3",
            "ticks": 104832,
            "time": 121.153851,
            "velocity": 1
          },
          {
            "duration": 0.6656804999999935,
            "durationTicks": 576,
            "midi": 49,
            "name": "C#3",
            "ticks": 105216,
            "time": 121.597638,
            "velocity": 1
          },
          {
            "duration": 0.6656804999999935,
            "durationTicks": 576,
            "midi": 61,
            "name": "C#4",
            "ticks": 105216,
            "time": 121.597638,
            "velocity": 1
          },
          {
            "duration": 0.6656804999999935,
            "durationTicks": 576,
            "midi": 56,
            "name": "G#3",
            "ticks": 105216,
            "time": 121.597638,
            "velocity": 1
          },
          {
            "duration": 0.4437870000000004,
            "durationTicks": 384,
            "midi": 44,
            "name": "G#2",
            "ticks": 105792,
            "time": 122.2633185,
            "velocity": 1
          },
          {
            "duration": 0.4437870000000004,
            "durationTicks": 384,
            "midi": 56,
            "name": "G#3",
            "ticks": 105792,
            "time": 122.2633185,
            "velocity": 1
          },
          {
            "duration": 0.4437870000000004,
            "durationTicks": 384,
            "midi": 51,
            "name": "D#3",
            "ticks": 105792,
            "time": 122.2633185,
            "velocity": 1
          },
          {
            "duration": 0.22189349999999308,
            "durationTicks": 192,
            "midi": 44,
            "name": "G#2",
            "ticks": 106176,
            "time": 122.7071055,
            "velocity": 1
          },
          {
            "duration": 0.22189349999999308,
            "durationTicks": 192,
            "midi": 56,
            "name": "G#3",
            "ticks": 106176,
            "time": 122.7071055,
            "velocity": 1
          },
          {
            "duration": 0.22189349999999308,
            "durationTicks": 192,
            "midi": 51,
            "name": "D#3",
            "ticks": 106176,
            "time": 122.7071055,
            "velocity": 1
          },
          {
            "duration": 0.4437870000000004,
            "durationTicks": 384,
            "midi": 47,
            "name": "B2",
            "ticks": 106368,
            "time": 122.92899899999999,
            "velocity": 1
          },
          {
            "duration": 0.4437870000000004,
            "durationTicks": 384,
            "midi": 59,
            "name": "B3",
            "ticks": 106368,
            "time": 122.92899899999999,
            "velocity": 1
          },
          {
            "duration": 0.4437870000000004,
            "durationTicks": 384,
            "midi": 54,
            "name": "F#3",
            "ticks": 106368,
            "time": 122.92899899999999,
            "velocity": 1
          },
          {
            "duration": 0.8875740000000008,
            "durationTicks": 768,
            "midi": 49,
            "name": "C#3",
            "ticks": 106752,
            "time": 123.37278599999999,
            "velocity": 1
          },
          {
            "duration": 0.8875740000000008,
            "durationTicks": 768,
            "midi": 61,
            "name": "C#4",
            "ticks": 106752,
            "time": 123.37278599999999,
            "velocity": 1
          },
          {
            "duration": 0.8875740000000008,
            "durationTicks": 768,
            "midi": 56,
            "name": "G#3",
            "ticks": 106752,
            "time": 123.37278599999999,
            "velocity": 1
          },
          {
            "duration": 0.11094675000001075,
            "durationTicks": 96,
            "midi": 44,
            "name": "G#2",
            "ticks": 107520,
            "time": 124.26035999999999,
            "velocity": 1
          },
          {
            "duration": 0.11094675000001075,
            "durationTicks": 96,
            "midi": 56,
            "name": "G#3",
            "ticks": 107520,
            "time": 124.26035999999999,
            "velocity": 1
          },
          {
            "duration": 0.11094675000001075,
            "durationTicks": 96,
            "midi": 51,
            "name": "D#3",
            "ticks": 107520,
            "time": 124.26035999999999,
            "velocity": 1
          },
          {
            "duration": 0.11094674999999654,
            "durationTicks": 96,
            "midi": 44,
            "name": "G#2",
            "ticks": 107712,
            "time": 124.4822535,
            "velocity": 1
          },
          {
            "duration": 0.11094674999999654,
            "durationTicks": 96,
            "midi": 56,
            "name": "G#3",
            "ticks": 107712,
            "time": 124.4822535,
            "velocity": 1
          },
          {
            "duration": 0.11094674999999654,
            "durationTicks": 96,
            "midi": 51,
            "name": "D#3",
            "ticks": 107712,
            "time": 124.4822535,
            "velocity": 1
          },
          {
            "duration": 0.11094675000001075,
            "durationTicks": 96,
            "midi": 44,
            "name": "G#2",
            "ticks": 107904,
            "time": 124.70414699999999,
            "velocity": 1
          },
          {
            "duration": 0.11094675000001075,
            "durationTicks": 96,
            "midi": 56,
            "name": "G#3",
            "ticks": 107904,
            "time": 124.70414699999999,
            "velocity": 1
          },
          {
            "duration": 0.11094675000001075,
            "durationTicks": 96,
            "midi": 51,
            "name": "D#3",
            "ticks": 107904,
            "time": 124.70414699999999,
            "velocity": 1
          },
          {
            "duration": 0.11094674999999654,
            "durationTicks": 96,
            "midi": 44,
            "name": "G#2",
            "ticks": 108096,
            "time": 124.9260405,
            "velocity": 1
          },
          {
            "duration": 0.11094674999999654,
            "durationTicks": 96,
            "midi": 56,
            "name": "G#3",
            "ticks": 108096,
            "time": 124.9260405,
            "velocity": 1
          },
          {
            "duration": 0.11094674999999654,
            "durationTicks": 96,
            "midi": 51,
            "name": "D#3",
            "ticks": 108096,
            "time": 124.9260405,
            "velocity": 1
          },
          {
            "duration": 0.11094675000001075,
            "durationTicks": 96,
            "midi": 44,
            "name": "G#2",
            "ticks": 108288,
            "time": 125.14793399999999,
            "velocity": 1
          },
          {
            "duration": 0.11094675000001075,
            "durationTicks": 96,
            "midi": 56,
            "name": "G#3",
            "ticks": 108288,
            "time": 125.14793399999999,
            "velocity": 1
          },
          {
            "duration": 0.11094675000001075,
            "durationTicks": 96,
            "midi": 51,
            "name": "D#3",
            "ticks": 108288,
            "time": 125.14793399999999,
            "velocity": 1
          },
          {
            "duration": 0.11094674999999654,
            "durationTicks": 96,
            "midi": 44,
            "name": "G#2",
            "ticks": 108480,
            "time": 125.3698275,
            "velocity": 1
          },
          {
            "duration": 0.11094674999999654,
            "durationTicks": 96,
            "midi": 56,
            "name": "G#3",
            "ticks": 108480,
            "time": 125.3698275,
            "velocity": 1
          },
          {
            "duration": 0.11094674999999654,
            "durationTicks": 96,
            "midi": 51,
            "name": "D#3",
            "ticks": 108480,
            "time": 125.3698275,
            "velocity": 1
          },
          {
            "duration": 0.11094675000001075,
            "durationTicks": 96,
            "midi": 44,
            "name": "G#2",
            "ticks": 108672,
            "time": 125.59172099999999,
            "velocity": 1
          },
          {
            "duration": 0.11094675000001075,
            "durationTicks": 96,
            "midi": 56,
            "name": "G#3",
            "ticks": 108672,
            "time": 125.59172099999999,
            "velocity": 1
          },
          {
            "duration": 0.11094675000001075,
            "durationTicks": 96,
            "midi": 51,
            "name": "D#3",
            "ticks": 108672,
            "time": 125.59172099999999,
            "velocity": 1
          },
          {
            "duration": 0.11094674999999654,
            "durationTicks": 96,
            "midi": 44,
            "name": "G#2",
            "ticks": 108864,
            "time": 125.8136145,
            "velocity": 1
          },
          {
            "duration": 0.11094674999999654,
            "durationTicks": 96,
            "midi": 56,
            "name": "G#3",
            "ticks": 108864,
            "time": 125.8136145,
            "velocity": 1
          },
          {
            "duration": 0.11094674999999654,
            "durationTicks": 96,
            "midi": 51,
            "name": "D#3",
            "ticks": 108864,
            "time": 125.8136145,
            "velocity": 1
          },
          {
            "duration": 0.11094674999999654,
            "durationTicks": 96,
            "midi": 44,
            "name": "G#2",
            "ticks": 109056,
            "time": 126.035508,
            "velocity": 1
          },
          {
            "duration": 0.11094674999999654,
            "durationTicks": 96,
            "midi": 56,
            "name": "G#3",
            "ticks": 109056,
            "time": 126.035508,
            "velocity": 1
          },
          {
            "duration": 0.11094674999999654,
            "durationTicks": 96,
            "midi": 51,
            "name": "D#3",
            "ticks": 109056,
            "time": 126.035508,
            "velocity": 1
          },
          {
            "duration": 0.11094674999999654,
            "durationTicks": 96,
            "midi": 44,
            "name": "G#2",
            "ticks": 109248,
            "time": 126.2574015,
            "velocity": 1
          },
          {
            "duration": 0.11094674999999654,
            "durationTicks": 96,
            "midi": 56,
            "name": "G#3",
            "ticks": 109248,
            "time": 126.2574015,
            "velocity": 1
          },
          {
            "duration": 0.11094674999999654,
            "durationTicks": 96,
            "midi": 51,
            "name": "D#3",
            "ticks": 109248,
            "time": 126.2574015,
            "velocity": 1
          },
          {
            "duration": 0.11094674999999654,
            "durationTicks": 96,
            "midi": 44,
            "name": "G#2",
            "ticks": 109440,
            "time": 126.479295,
            "velocity": 1
          },
          {
            "duration": 0.11094674999999654,
            "durationTicks": 96,
            "midi": 56,
            "name": "G#3",
            "ticks": 109440,
            "time": 126.479295,
            "velocity": 1
          },
          {
            "duration": 0.11094674999999654,
            "durationTicks": 96,
            "midi": 51,
            "name": "D#3",
            "ticks": 109440,
            "time": 126.479295,
            "velocity": 1
          },
          {
            "duration": 0.11094674999999654,
            "durationTicks": 96,
            "midi": 44,
            "name": "G#2",
            "ticks": 109632,
            "time": 126.7011885,
            "velocity": 1
          },
          {
            "duration": 0.11094674999999654,
            "durationTicks": 96,
            "midi": 56,
            "name": "G#3",
            "ticks": 109632,
            "time": 126.7011885,
            "velocity": 1
          },
          {
            "duration": 0.11094674999999654,
            "durationTicks": 96,
            "midi": 51,
            "name": "D#3",
            "ticks": 109632,
            "time": 126.7011885,
            "velocity": 1
          },
          {
            "duration": 0.11094674999999654,
            "durationTicks": 96,
            "midi": 44,
            "name": "G#2",
            "ticks": 109824,
            "time": 126.923082,
            "velocity": 1
          },
          {
            "duration": 0.11094674999999654,
            "durationTicks": 96,
            "midi": 56,
            "name": "G#3",
            "ticks": 109824,
            "time": 126.923082,
            "velocity": 1
          },
          {
            "duration": 0.11094674999999654,
            "durationTicks": 96,
            "midi": 51,
            "name": "D#3",
            "ticks": 109824,
            "time": 126.923082,
            "velocity": 1
          },
          {
            "duration": 0.11094674999999654,
            "durationTicks": 96,
            "midi": 44,
            "name": "G#2",
            "ticks": 110016,
            "time": 127.1449755,
            "velocity": 1
          },
          {
            "duration": 0.11094674999999654,
            "durationTicks": 96,
            "midi": 56,
            "name": "G#3",
            "ticks": 110016,
            "time": 127.1449755,
            "velocity": 1
          },
          {
            "duration": 0.11094674999999654,
            "durationTicks": 96,
            "midi": 51,
            "name": "D#3",
            "ticks": 110016,
            "time": 127.1449755,
            "velocity": 1
          },
          {
            "duration": 0.11094674999999654,
            "durationTicks": 96,
            "midi": 44,
            "name": "G#2",
            "ticks": 110208,
            "time": 127.366869,
            "velocity": 1
          },
          {
            "duration": 0.11094674999999654,
            "durationTicks": 96,
            "midi": 56,
            "name": "G#3",
            "ticks": 110208,
            "time": 127.366869,
            "velocity": 1
          },
          {
            "duration": 0.11094674999999654,
            "durationTicks": 96,
            "midi": 51,
            "name": "D#3",
            "ticks": 110208,
            "time": 127.366869,
            "velocity": 1
          },
          {
            "duration": 0.44378699999998616,
            "durationTicks": 384,
            "midi": 44,
            "name": "G#2",
            "ticks": 110400,
            "time": 127.5887625,
            "velocity": 1
          },
          {
            "duration": 0.44378699999998616,
            "durationTicks": 384,
            "midi": 56,
            "name": "G#3",
            "ticks": 110400,
            "time": 127.5887625,
            "velocity": 1
          },
          {
            "duration": 0.44378699999998616,
            "durationTicks": 384,
            "midi": 51,
            "name": "D#3",
            "ticks": 110400,
            "time": 127.5887625,
            "velocity": 1
          },
          {
            "duration": 0.2218935000000215,
            "durationTicks": 192,
            "midi": 44,
            "name": "G#2",
            "ticks": 110784,
            "time": 128.0325495,
            "velocity": 1
          },
          {
            "duration": 0.2218935000000215,
            "durationTicks": 192,
            "midi": 56,
            "name": "G#3",
            "ticks": 110784,
            "time": 128.0325495,
            "velocity": 1
          },
          {
            "duration": 0.2218935000000215,
            "durationTicks": 192,
            "midi": 51,
            "name": "D#3",
            "ticks": 110784,
            "time": 128.0325495,
            "velocity": 1
          },
          {
            "duration": 0.44378699999998616,
            "durationTicks": 384,
            "midi": 47,
            "name": "B2",
            "ticks": 110976,
            "time": 128.254443,
            "velocity": 1
          },
          {
            "duration": 0.44378699999998616,
            "durationTicks": 384,
            "midi": 59,
            "name": "B3",
            "ticks": 110976,
            "time": 128.254443,
            "velocity": 1
          },
          {
            "duration": 0.44378699999998616,
            "durationTicks": 384,
            "midi": 54,
            "name": "F#3",
            "ticks": 110976,
            "time": 128.254443,
            "velocity": 1
          },
          {
            "duration": 0.6656805000000077,
            "durationTicks": 576,
            "midi": 49,
            "name": "C#3",
            "ticks": 111360,
            "time": 128.69823,
            "velocity": 1
          },
          {
            "duration": 0.6656805000000077,
            "durationTicks": 576,
            "midi": 61,
            "name": "C#4",
            "ticks": 111360,
            "time": 128.69823,
            "velocity": 1
          },
          {
            "duration": 0.6656805000000077,
            "durationTicks": 576,
            "midi": 56,
            "name": "G#3",
            "ticks": 111360,
            "time": 128.69823,
            "velocity": 1
          },
          {
            "duration": 0.44378699999998616,
            "durationTicks": 384,
            "midi": 44,
            "name": "G#2",
            "ticks": 111936,
            "time": 129.3639105,
            "velocity": 1
          },
          {
            "duration": 0.44378699999998616,
            "durationTicks": 384,
            "midi": 56,
            "name": "G#3",
            "ticks": 111936,
            "time": 129.3639105,
            "velocity": 1
          },
          {
            "duration": 0.44378699999998616,
            "durationTicks": 384,
            "midi": 51,
            "name": "D#3",
            "ticks": 111936,
            "time": 129.3639105,
            "velocity": 1
          },
          {
            "duration": 0.22189349999999308,
            "durationTicks": 192,
            "midi": 44,
            "name": "G#2",
            "ticks": 112320,
            "time": 129.8076975,
            "velocity": 1
          },
          {
            "duration": 0.22189349999999308,
            "durationTicks": 192,
            "midi": 56,
            "name": "G#3",
            "ticks": 112320,
            "time": 129.8076975,
            "velocity": 1
          },
          {
            "duration": 0.22189349999999308,
            "durationTicks": 192,
            "midi": 51,
            "name": "D#3",
            "ticks": 112320,
            "time": 129.8076975,
            "velocity": 1
          },
          {
            "duration": 0.4437870000000146,
            "durationTicks": 384,
            "midi": 47,
            "name": "B2",
            "ticks": 112512,
            "time": 130.02959099999998,
            "velocity": 1
          },
          {
            "duration": 0.4437870000000146,
            "durationTicks": 384,
            "midi": 59,
            "name": "B3",
            "ticks": 112512,
            "time": 130.02959099999998,
            "velocity": 1
          },
          {
            "duration": 0.4437870000000146,
            "durationTicks": 384,
            "midi": 54,
            "name": "F#3",
            "ticks": 112512,
            "time": 130.02959099999998,
            "velocity": 1
          },
          {
            "duration": 0.8875740000000008,
            "durationTicks": 768,
            "midi": 49,
            "name": "C#3",
            "ticks": 112896,
            "time": 130.473378,
            "velocity": 1
          },
          {
            "duration": 0.8875740000000008,
            "durationTicks": 768,
            "midi": 61,
            "name": "C#4",
            "ticks": 112896,
            "time": 130.473378,
            "velocity": 1
          },
          {
            "duration": 0.8875740000000008,
            "durationTicks": 768,
            "midi": 56,
            "name": "G#3",
            "ticks": 112896,
            "time": 130.473378,
            "velocity": 1
          },
          {
            "duration": 0.11094675000001075,
            "durationTicks": 96,
            "midi": 44,
            "name": "G#2",
            "ticks": 113664,
            "time": 131.360952,
            "velocity": 1
          },
          {
            "duration": 0.11094675000001075,
            "durationTicks": 96,
            "midi": 56,
            "name": "G#3",
            "ticks": 113664,
            "time": 131.360952,
            "velocity": 1
          },
          {
            "duration": 0.11094675000001075,
            "durationTicks": 96,
            "midi": 51,
            "name": "D#3",
            "ticks": 113664,
            "time": 131.360952,
            "velocity": 1
          },
          {
            "duration": 0.11094675000001075,
            "durationTicks": 96,
            "midi": 44,
            "name": "G#2",
            "ticks": 113856,
            "time": 131.5828455,
            "velocity": 1
          },
          {
            "duration": 0.11094675000001075,
            "durationTicks": 96,
            "midi": 56,
            "name": "G#3",
            "ticks": 113856,
            "time": 131.5828455,
            "velocity": 1
          },
          {
            "duration": 0.11094675000001075,
            "durationTicks": 96,
            "midi": 51,
            "name": "D#3",
            "ticks": 113856,
            "time": 131.5828455,
            "velocity": 1
          },
          {
            "duration": 0.11094675000001075,
            "durationTicks": 96,
            "midi": 44,
            "name": "G#2",
            "ticks": 114048,
            "time": 131.80473899999998,
            "velocity": 1
          },
          {
            "duration": 0.11094675000001075,
            "durationTicks": 96,
            "midi": 56,
            "name": "G#3",
            "ticks": 114048,
            "time": 131.80473899999998,
            "velocity": 1
          },
          {
            "duration": 0.11094675000001075,
            "durationTicks": 96,
            "midi": 51,
            "name": "D#3",
            "ticks": 114048,
            "time": 131.80473899999998,
            "velocity": 1
          },
          {
            "duration": 0.11094674999998233,
            "durationTicks": 96,
            "midi": 44,
            "name": "G#2",
            "ticks": 114240,
            "time": 132.0266325,
            "velocity": 1
          },
          {
            "duration": 0.11094674999998233,
            "durationTicks": 96,
            "midi": 56,
            "name": "G#3",
            "ticks": 114240,
            "time": 132.0266325,
            "velocity": 1
          },
          {
            "duration": 0.11094674999998233,
            "durationTicks": 96,
            "midi": 51,
            "name": "D#3",
            "ticks": 114240,
            "time": 132.0266325,
            "velocity": 1
          },
          {
            "duration": 0.11094675000001075,
            "durationTicks": 96,
            "midi": 44,
            "name": "G#2",
            "ticks": 114432,
            "time": 132.248526,
            "velocity": 1
          },
          {
            "duration": 0.11094675000001075,
            "durationTicks": 96,
            "midi": 56,
            "name": "G#3",
            "ticks": 114432,
            "time": 132.248526,
            "velocity": 1
          },
          {
            "duration": 0.11094675000001075,
            "durationTicks": 96,
            "midi": 51,
            "name": "D#3",
            "ticks": 114432,
            "time": 132.248526,
            "velocity": 1
          },
          {
            "duration": 0.11094675000001075,
            "durationTicks": 96,
            "midi": 44,
            "name": "G#2",
            "ticks": 114624,
            "time": 132.4704195,
            "velocity": 1
          },
          {
            "duration": 0.11094675000001075,
            "durationTicks": 96,
            "midi": 56,
            "name": "G#3",
            "ticks": 114624,
            "time": 132.4704195,
            "velocity": 1
          },
          {
            "duration": 0.11094675000001075,
            "durationTicks": 96,
            "midi": 51,
            "name": "D#3",
            "ticks": 114624,
            "time": 132.4704195,
            "velocity": 1
          },
          {
            "duration": 0.11094675000001075,
            "durationTicks": 96,
            "midi": 44,
            "name": "G#2",
            "ticks": 114816,
            "time": 132.69231299999998,
            "velocity": 1
          },
          {
            "duration": 0.11094675000001075,
            "durationTicks": 96,
            "midi": 56,
            "name": "G#3",
            "ticks": 114816,
            "time": 132.69231299999998,
            "velocity": 1
          },
          {
            "duration": 0.11094675000001075,
            "durationTicks": 96,
            "midi": 51,
            "name": "D#3",
            "ticks": 114816,
            "time": 132.69231299999998,
            "velocity": 1
          },
          {
            "duration": 0.11094674999998233,
            "durationTicks": 96,
            "midi": 44,
            "name": "G#2",
            "ticks": 115008,
            "time": 132.9142065,
            "velocity": 1
          },
          {
            "duration": 0.11094674999998233,
            "durationTicks": 96,
            "midi": 56,
            "name": "G#3",
            "ticks": 115008,
            "time": 132.9142065,
            "velocity": 1
          },
          {
            "duration": 0.11094674999998233,
            "durationTicks": 96,
            "midi": 51,
            "name": "D#3",
            "ticks": 115008,
            "time": 132.9142065,
            "velocity": 1
          },
          {
            "duration": 0.11094675000001075,
            "durationTicks": 96,
            "midi": 44,
            "name": "G#2",
            "ticks": 115200,
            "time": 133.1361,
            "velocity": 1
          },
          {
            "duration": 0.11094675000001075,
            "durationTicks": 96,
            "midi": 56,
            "name": "G#3",
            "ticks": 115200,
            "time": 133.1361,
            "velocity": 1
          },
          {
            "duration": 0.11094675000001075,
            "durationTicks": 96,
            "midi": 51,
            "name": "D#3",
            "ticks": 115200,
            "time": 133.1361,
            "velocity": 1
          },
          {
            "duration": 0.11094675000001075,
            "durationTicks": 96,
            "midi": 44,
            "name": "G#2",
            "ticks": 115392,
            "time": 133.3579935,
            "velocity": 1
          },
          {
            "duration": 0.11094675000001075,
            "durationTicks": 96,
            "midi": 56,
            "name": "G#3",
            "ticks": 115392,
            "time": 133.3579935,
            "velocity": 1
          },
          {
            "duration": 0.11094675000001075,
            "durationTicks": 96,
            "midi": 51,
            "name": "D#3",
            "ticks": 115392,
            "time": 133.3579935,
            "velocity": 1
          },
          {
            "duration": 0.11094675000001075,
            "durationTicks": 96,
            "midi": 44,
            "name": "G#2",
            "ticks": 115584,
            "time": 133.57988699999999,
            "velocity": 1
          },
          {
            "duration": 0.11094675000001075,
            "durationTicks": 96,
            "midi": 56,
            "name": "G#3",
            "ticks": 115584,
            "time": 133.57988699999999,
            "velocity": 1
          },
          {
            "duration": 0.11094675000001075,
            "durationTicks": 96,
            "midi": 51,
            "name": "D#3",
            "ticks": 115584,
            "time": 133.57988699999999,
            "velocity": 1
          },
          {
            "duration": 0.11094674999998233,
            "durationTicks": 96,
            "midi": 44,
            "name": "G#2",
            "ticks": 115776,
            "time": 133.8017805,
            "velocity": 1
          },
          {
            "duration": 0.11094674999998233,
            "durationTicks": 96,
            "midi": 56,
            "name": "G#3",
            "ticks": 115776,
            "time": 133.8017805,
            "velocity": 1
          },
          {
            "duration": 0.11094674999998233,
            "durationTicks": 96,
            "midi": 51,
            "name": "D#3",
            "ticks": 115776,
            "time": 133.8017805,
            "velocity": 1
          },
          {
            "duration": 0.11094674999998233,
            "durationTicks": 96,
            "midi": 44,
            "name": "G#2",
            "ticks": 115968,
            "time": 134.023674,
            "velocity": 1
          },
          {
            "duration": 0.11094674999998233,
            "durationTicks": 96,
            "midi": 56,
            "name": "G#3",
            "ticks": 115968,
            "time": 134.023674,
            "velocity": 1
          },
          {
            "duration": 0.11094674999998233,
            "durationTicks": 96,
            "midi": 51,
            "name": "D#3",
            "ticks": 115968,
            "time": 134.023674,
            "velocity": 1
          },
          {
            "duration": 0.11094675000001075,
            "durationTicks": 96,
            "midi": 44,
            "name": "G#2",
            "ticks": 116160,
            "time": 134.2455675,
            "velocity": 1
          },
          {
            "duration": 0.11094675000001075,
            "durationTicks": 96,
            "midi": 56,
            "name": "G#3",
            "ticks": 116160,
            "time": 134.2455675,
            "velocity": 1
          },
          {
            "duration": 0.11094675000001075,
            "durationTicks": 96,
            "midi": 51,
            "name": "D#3",
            "ticks": 116160,
            "time": 134.2455675,
            "velocity": 1
          },
          {
            "duration": 0.11094675000001075,
            "durationTicks": 96,
            "midi": 44,
            "name": "G#2",
            "ticks": 116352,
            "time": 134.467461,
            "velocity": 1
          },
          {
            "duration": 0.11094675000001075,
            "durationTicks": 96,
            "midi": 56,
            "name": "G#3",
            "ticks": 116352,
            "time": 134.467461,
            "velocity": 1
          },
          {
            "duration": 0.11094675000001075,
            "durationTicks": 96,
            "midi": 51,
            "name": "D#3",
            "ticks": 116352,
            "time": 134.467461,
            "velocity": 1
          },
          {
            "duration": 0.44378699999998616,
            "durationTicks": 384,
            "midi": 44,
            "name": "G#2",
            "ticks": 116544,
            "time": 134.6893545,
            "velocity": 1
          },
          {
            "duration": 0.44378699999998616,
            "durationTicks": 384,
            "midi": 56,
            "name": "G#3",
            "ticks": 116544,
            "time": 134.6893545,
            "velocity": 1
          },
          {
            "duration": 0.44378699999998616,
            "durationTicks": 384,
            "midi": 51,
            "name": "D#3",
            "ticks": 116544,
            "time": 134.6893545,
            "velocity": 1
          },
          {
            "duration": 0.22189349999999308,
            "durationTicks": 192,
            "midi": 44,
            "name": "G#2",
            "ticks": 116928,
            "time": 135.1331415,
            "velocity": 1
          },
          {
            "duration": 0.22189349999999308,
            "durationTicks": 192,
            "midi": 56,
            "name": "G#3",
            "ticks": 116928,
            "time": 135.1331415,
            "velocity": 1
          },
          {
            "duration": 0.22189349999999308,
            "durationTicks": 192,
            "midi": 51,
            "name": "D#3",
            "ticks": 116928,
            "time": 135.1331415,
            "velocity": 1
          },
          {
            "duration": 0.4437870000000146,
            "durationTicks": 384,
            "midi": 47,
            "name": "B2",
            "ticks": 117120,
            "time": 135.355035,
            "velocity": 1
          },
          {
            "duration": 0.4437870000000146,
            "durationTicks": 384,
            "midi": 59,
            "name": "B3",
            "ticks": 117120,
            "time": 135.355035,
            "velocity": 1
          },
          {
            "duration": 0.4437870000000146,
            "durationTicks": 384,
            "midi": 54,
            "name": "F#3",
            "ticks": 117120,
            "time": 135.355035,
            "velocity": 1
          },
          {
            "duration": 0.6656805000000077,
            "durationTicks": 576,
            "midi": 49,
            "name": "C#3",
            "ticks": 117504,
            "time": 135.798822,
            "velocity": 1
          },
          {
            "duration": 0.6656805000000077,
            "durationTicks": 576,
            "midi": 61,
            "name": "C#4",
            "ticks": 117504,
            "time": 135.798822,
            "velocity": 1
          },
          {
            "duration": 0.6656805000000077,
            "durationTicks": 576,
            "midi": 56,
            "name": "G#3",
            "ticks": 117504,
            "time": 135.798822,
            "velocity": 1
          },
          {
            "duration": 0.44378699999998616,
            "durationTicks": 384,
            "midi": 44,
            "name": "G#2",
            "ticks": 118080,
            "time": 136.4645025,
            "velocity": 1
          },
          {
            "duration": 0.44378699999998616,
            "durationTicks": 384,
            "midi": 56,
            "name": "G#3",
            "ticks": 118080,
            "time": 136.4645025,
            "velocity": 1
          },
          {
            "duration": 0.44378699999998616,
            "durationTicks": 384,
            "midi": 51,
            "name": "D#3",
            "ticks": 118080,
            "time": 136.4645025,
            "velocity": 1
          },
          {
            "duration": 0.22189349999999308,
            "durationTicks": 192,
            "midi": 44,
            "name": "G#2",
            "ticks": 118464,
            "time": 136.9082895,
            "velocity": 1
          },
          {
            "duration": 0.22189349999999308,
            "durationTicks": 192,
            "midi": 56,
            "name": "G#3",
            "ticks": 118464,
            "time": 136.9082895,
            "velocity": 1
          },
          {
            "duration": 0.22189349999999308,
            "durationTicks": 192,
            "midi": 51,
            "name": "D#3",
            "ticks": 118464,
            "time": 136.9082895,
            "velocity": 1
          },
          {
            "duration": 0.4437870000000146,
            "durationTicks": 384,
            "midi": 47,
            "name": "B2",
            "ticks": 118656,
            "time": 137.130183,
            "velocity": 1
          },
          {
            "duration": 0.4437870000000146,
            "durationTicks": 384,
            "midi": 59,
            "name": "B3",
            "ticks": 118656,
            "time": 137.130183,
            "velocity": 1
          },
          {
            "duration": 0.4437870000000146,
            "durationTicks": 384,
            "midi": 54,
            "name": "F#3",
            "ticks": 118656,
            "time": 137.130183,
            "velocity": 1
          },
          {
            "duration": 0.8875740000000008,
            "durationTicks": 768,
            "midi": 49,
            "name": "C#3",
            "ticks": 119040,
            "time": 137.57397,
            "velocity": 1
          },
          {
            "duration": 0.8875740000000008,
            "durationTicks": 768,
            "midi": 61,
            "name": "C#4",
            "ticks": 119040,
            "time": 137.57397,
            "velocity": 1
          },
          {
            "duration": 0.8875740000000008,
            "durationTicks": 768,
            "midi": 56,
            "name": "G#3",
            "ticks": 119040,
            "time": 137.57397,
            "velocity": 1
          },
          {
            "duration": 0.11094674999998233,
            "durationTicks": 96,
            "midi": 44,
            "name": "G#2",
            "ticks": 119808,
            "time": 138.461544,
            "velocity": 1
          },
          {
            "duration": 0.11094674999998233,
            "durationTicks": 96,
            "midi": 56,
            "name": "G#3",
            "ticks": 119808,
            "time": 138.461544,
            "velocity": 1
          },
          {
            "duration": 0.11094674999998233,
            "durationTicks": 96,
            "midi": 51,
            "name": "D#3",
            "ticks": 119808,
            "time": 138.461544,
            "velocity": 1
          },
          {
            "duration": 0.11094675000001075,
            "durationTicks": 96,
            "midi": 44,
            "name": "G#2",
            "ticks": 120000,
            "time": 138.6834375,
            "velocity": 1
          },
          {
            "duration": 0.11094675000001075,
            "durationTicks": 96,
            "midi": 56,
            "name": "G#3",
            "ticks": 120000,
            "time": 138.6834375,
            "velocity": 1
          },
          {
            "duration": 0.11094675000001075,
            "durationTicks": 96,
            "midi": 51,
            "name": "D#3",
            "ticks": 120000,
            "time": 138.6834375,
            "velocity": 1
          },
          {
            "duration": 0.11094675000001075,
            "durationTicks": 96,
            "midi": 44,
            "name": "G#2",
            "ticks": 120192,
            "time": 138.905331,
            "velocity": 1
          },
          {
            "duration": 0.11094675000001075,
            "durationTicks": 96,
            "midi": 56,
            "name": "G#3",
            "ticks": 120192,
            "time": 138.905331,
            "velocity": 1
          },
          {
            "duration": 0.11094675000001075,
            "durationTicks": 96,
            "midi": 51,
            "name": "D#3",
            "ticks": 120192,
            "time": 138.905331,
            "velocity": 1
          },
          {
            "duration": 0.11094675000001075,
            "durationTicks": 96,
            "midi": 44,
            "name": "G#2",
            "ticks": 120384,
            "time": 139.12722449999998,
            "velocity": 1
          },
          {
            "duration": 0.11094675000001075,
            "durationTicks": 96,
            "midi": 56,
            "name": "G#3",
            "ticks": 120384,
            "time": 139.12722449999998,
            "velocity": 1
          },
          {
            "duration": 0.11094675000001075,
            "durationTicks": 96,
            "midi": 51,
            "name": "D#3",
            "ticks": 120384,
            "time": 139.12722449999998,
            "velocity": 1
          },
          {
            "duration": 0.11094674999998233,
            "durationTicks": 96,
            "midi": 44,
            "name": "G#2",
            "ticks": 120576,
            "time": 139.349118,
            "velocity": 1
          },
          {
            "duration": 0.11094674999998233,
            "durationTicks": 96,
            "midi": 56,
            "name": "G#3",
            "ticks": 120576,
            "time": 139.349118,
            "velocity": 1
          },
          {
            "duration": 0.11094674999998233,
            "durationTicks": 96,
            "midi": 51,
            "name": "D#3",
            "ticks": 120576,
            "time": 139.349118,
            "velocity": 1
          },
          {
            "duration": 0.11094675000001075,
            "durationTicks": 96,
            "midi": 44,
            "name": "G#2",
            "ticks": 120768,
            "time": 139.5710115,
            "velocity": 1
          },
          {
            "duration": 0.11094675000001075,
            "durationTicks": 96,
            "midi": 56,
            "name": "G#3",
            "ticks": 120768,
            "time": 139.5710115,
            "velocity": 1
          },
          {
            "duration": 0.11094675000001075,
            "durationTicks": 96,
            "midi": 51,
            "name": "D#3",
            "ticks": 120768,
            "time": 139.5710115,
            "velocity": 1
          },
          {
            "duration": 0.11094675000001075,
            "durationTicks": 96,
            "midi": 44,
            "name": "G#2",
            "ticks": 120960,
            "time": 139.792905,
            "velocity": 1
          },
          {
            "duration": 0.11094675000001075,
            "durationTicks": 96,
            "midi": 56,
            "name": "G#3",
            "ticks": 120960,
            "time": 139.792905,
            "velocity": 1
          },
          {
            "duration": 0.11094675000001075,
            "durationTicks": 96,
            "midi": 51,
            "name": "D#3",
            "ticks": 120960,
            "time": 139.792905,
            "velocity": 1
          },
          {
            "duration": 0.11094675000001075,
            "durationTicks": 96,
            "midi": 44,
            "name": "G#2",
            "ticks": 121152,
            "time": 140.01479849999998,
            "velocity": 1
          },
          {
            "duration": 0.11094675000001075,
            "durationTicks": 96,
            "midi": 56,
            "name": "G#3",
            "ticks": 121152,
            "time": 140.01479849999998,
            "velocity": 1
          },
          {
            "duration": 0.11094675000001075,
            "durationTicks": 96,
            "midi": 51,
            "name": "D#3",
            "ticks": 121152,
            "time": 140.01479849999998,
            "velocity": 1
          },
          {
            "duration": 0.11094674999998233,
            "durationTicks": 96,
            "midi": 44,
            "name": "G#2",
            "ticks": 121344,
            "time": 140.236692,
            "velocity": 1
          },
          {
            "duration": 0.11094674999998233,
            "durationTicks": 96,
            "midi": 56,
            "name": "G#3",
            "ticks": 121344,
            "time": 140.236692,
            "velocity": 1
          },
          {
            "duration": 0.11094674999998233,
            "durationTicks": 96,
            "midi": 51,
            "name": "D#3",
            "ticks": 121344,
            "time": 140.236692,
            "velocity": 1
          },
          {
            "duration": 0.11094675000001075,
            "durationTicks": 96,
            "midi": 44,
            "name": "G#2",
            "ticks": 121536,
            "time": 140.4585855,
            "velocity": 1
          },
          {
            "duration": 0.11094675000001075,
            "durationTicks": 96,
            "midi": 56,
            "name": "G#3",
            "ticks": 121536,
            "time": 140.4585855,
            "velocity": 1
          },
          {
            "duration": 0.11094675000001075,
            "durationTicks": 96,
            "midi": 51,
            "name": "D#3",
            "ticks": 121536,
            "time": 140.4585855,
            "velocity": 1
          },
          {
            "duration": 0.11094675000001075,
            "durationTicks": 96,
            "midi": 44,
            "name": "G#2",
            "ticks": 121728,
            "time": 140.680479,
            "velocity": 1
          },
          {
            "duration": 0.11094675000001075,
            "durationTicks": 96,
            "midi": 56,
            "name": "G#3",
            "ticks": 121728,
            "time": 140.680479,
            "velocity": 1
          },
          {
            "duration": 0.11094675000001075,
            "durationTicks": 96,
            "midi": 51,
            "name": "D#3",
            "ticks": 121728,
            "time": 140.680479,
            "velocity": 1
          },
          {
            "duration": 0.11094675000001075,
            "durationTicks": 96,
            "midi": 44,
            "name": "G#2",
            "ticks": 121920,
            "time": 140.90237249999998,
            "velocity": 1
          },
          {
            "duration": 0.11094675000001075,
            "durationTicks": 96,
            "midi": 56,
            "name": "G#3",
            "ticks": 121920,
            "time": 140.90237249999998,
            "velocity": 1
          },
          {
            "duration": 0.11094675000001075,
            "durationTicks": 96,
            "midi": 51,
            "name": "D#3",
            "ticks": 121920,
            "time": 140.90237249999998,
            "velocity": 1
          },
          {
            "duration": 0.11094674999998233,
            "durationTicks": 96,
            "midi": 44,
            "name": "G#2",
            "ticks": 122112,
            "time": 141.124266,
            "velocity": 1
          },
          {
            "duration": 0.11094674999998233,
            "durationTicks": 96,
            "midi": 56,
            "name": "G#3",
            "ticks": 122112,
            "time": 141.124266,
            "velocity": 1
          },
          {
            "duration": 0.11094674999998233,
            "durationTicks": 96,
            "midi": 51,
            "name": "D#3",
            "ticks": 122112,
            "time": 141.124266,
            "velocity": 1
          },
          {
            "duration": 0.11094675000001075,
            "durationTicks": 96,
            "midi": 44,
            "name": "G#2",
            "ticks": 122304,
            "time": 141.3461595,
            "velocity": 1
          },
          {
            "duration": 0.11094675000001075,
            "durationTicks": 96,
            "midi": 56,
            "name": "G#3",
            "ticks": 122304,
            "time": 141.3461595,
            "velocity": 1
          },
          {
            "duration": 0.11094675000001075,
            "durationTicks": 96,
            "midi": 51,
            "name": "D#3",
            "ticks": 122304,
            "time": 141.3461595,
            "velocity": 1
          },
          {
            "duration": 0.11094675000001075,
            "durationTicks": 96,
            "midi": 44,
            "name": "G#2",
            "ticks": 122496,
            "time": 141.568053,
            "velocity": 1
          },
          {
            "duration": 0.11094675000001075,
            "durationTicks": 96,
            "midi": 56,
            "name": "G#3",
            "ticks": 122496,
            "time": 141.568053,
            "velocity": 1
          },
          {
            "duration": 0.11094675000001075,
            "durationTicks": 96,
            "midi": 51,
            "name": "D#3",
            "ticks": 122496,
            "time": 141.568053,
            "velocity": 1
          },
          {
            "duration": 0.4437870000000146,
            "durationTicks": 384,
            "midi": 44,
            "name": "G#2",
            "ticks": 122688,
            "time": 141.78994649999999,
            "velocity": 1
          },
          {
            "duration": 0.4437870000000146,
            "durationTicks": 384,
            "midi": 56,
            "name": "G#3",
            "ticks": 122688,
            "time": 141.78994649999999,
            "velocity": 1
          },
          {
            "duration": 0.4437870000000146,
            "durationTicks": 384,
            "midi": 51,
            "name": "D#3",
            "ticks": 122688,
            "time": 141.78994649999999,
            "velocity": 1
          },
          {
            "duration": 0.22189349999999308,
            "durationTicks": 192,
            "midi": 44,
            "name": "G#2",
            "ticks": 123072,
            "time": 142.2337335,
            "velocity": 1
          },
          {
            "duration": 0.22189349999999308,
            "durationTicks": 192,
            "midi": 56,
            "name": "G#3",
            "ticks": 123072,
            "time": 142.2337335,
            "velocity": 1
          },
          {
            "duration": 0.22189349999999308,
            "durationTicks": 192,
            "midi": 51,
            "name": "D#3",
            "ticks": 123072,
            "time": 142.2337335,
            "velocity": 1
          },
          {
            "duration": 0.4437870000000146,
            "durationTicks": 384,
            "midi": 47,
            "name": "B2",
            "ticks": 123264,
            "time": 142.455627,
            "velocity": 1
          },
          {
            "duration": 0.4437870000000146,
            "durationTicks": 384,
            "midi": 59,
            "name": "B3",
            "ticks": 123264,
            "time": 142.455627,
            "velocity": 1
          },
          {
            "duration": 0.4437870000000146,
            "durationTicks": 384,
            "midi": 54,
            "name": "F#3",
            "ticks": 123264,
            "time": 142.455627,
            "velocity": 1
          },
          {
            "duration": 0.6656804999999792,
            "durationTicks": 576,
            "midi": 49,
            "name": "C#3",
            "ticks": 123648,
            "time": 142.899414,
            "velocity": 1
          },
          {
            "duration": 0.6656804999999792,
            "durationTicks": 576,
            "midi": 61,
            "name": "C#4",
            "ticks": 123648,
            "time": 142.899414,
            "velocity": 1
          },
          {
            "duration": 0.6656804999999792,
            "durationTicks": 576,
            "midi": 56,
            "name": "G#3",
            "ticks": 123648,
            "time": 142.899414,
            "velocity": 1
          },
          {
            "duration": 0.2218935000000215,
            "durationTicks": 192,
            "midi": 44,
            "name": "G#2",
            "ticks": 124224,
            "time": 143.5650945,
            "velocity": 1
          },
          {
            "duration": 0.2218935000000215,
            "durationTicks": 192,
            "midi": 56,
            "name": "G#3",
            "ticks": 124224,
            "time": 143.5650945,
            "velocity": 1
          },
          {
            "duration": 0.2218935000000215,
            "durationTicks": 192,
            "midi": 51,
            "name": "D#3",
            "ticks": 124224,
            "time": 143.5650945,
            "velocity": 1
          },
          {
            "duration": 0.22189349999999308,
            "durationTicks": 192,
            "midi": 49,
            "name": "C#3",
            "ticks": 126336,
            "time": 146.005923,
            "velocity": 1
          },
          {
            "duration": 0.22189349999999308,
            "durationTicks": 192,
            "midi": 61,
            "name": "C#4",
            "ticks": 126336,
            "time": 146.005923,
            "velocity": 1
          },
          {
            "duration": 0.22189349999999308,
            "durationTicks": 192,
            "midi": 56,
            "name": "G#3",
            "ticks": 126336,
            "time": 146.005923,
            "velocity": 1
          },
          {
            "duration": 0.2218935000000215,
            "durationTicks": 192,
            "midi": 49,
            "name": "C#3",
            "ticks": 126720,
            "time": 146.44970999999998,
            "velocity": 1
          },
          {
            "duration": 0.2218935000000215,
            "durationTicks": 192,
            "midi": 61,
            "name": "C#4",
            "ticks": 126720,
            "time": 146.44970999999998,
            "velocity": 1
          },
          {
            "duration": 0.2218935000000215,
            "durationTicks": 192,
            "midi": 56,
            "name": "G#3",
            "ticks": 126720,
            "time": 146.44970999999998,
            "velocity": 1
          },
          {
            "duration": 0.2218935000000215,
            "durationTicks": 192,
            "midi": 49,
            "name": "C#3",
            "ticks": 128256,
            "time": 148.22485799999998,
            "velocity": 1
          },
          {
            "duration": 0.2218935000000215,
            "durationTicks": 192,
            "midi": 61,
            "name": "C#4",
            "ticks": 128256,
            "time": 148.22485799999998,
            "velocity": 1
          },
          {
            "duration": 0.2218935000000215,
            "durationTicks": 192,
            "midi": 56,
            "name": "G#3",
            "ticks": 128256,
            "time": 148.22485799999998,
            "velocity": 1
          },
          {
            "duration": 0.4437870000000146,
            "durationTicks": 384,
            "midi": 44,
            "name": "G#2",
            "ticks": 128832,
            "time": 148.8905385,
            "velocity": 1
          },
          {
            "duration": 0.4437870000000146,
            "durationTicks": 384,
            "midi": 56,
            "name": "G#3",
            "ticks": 128832,
            "time": 148.8905385,
            "velocity": 1
          },
          {
            "duration": 0.4437870000000146,
            "durationTicks": 384,
            "midi": 51,
            "name": "D#3",
            "ticks": 128832,
            "time": 148.8905385,
            "velocity": 1
          },
          {
            "duration": 0.22189349999999308,
            "durationTicks": 192,
            "midi": 44,
            "name": "G#2",
            "ticks": 129216,
            "time": 149.3343255,
            "velocity": 1
          },
          {
            "duration": 0.22189349999999308,
            "durationTicks": 192,
            "midi": 56,
            "name": "G#3",
            "ticks": 129216,
            "time": 149.3343255,
            "velocity": 1
          },
          {
            "duration": 0.22189349999999308,
            "durationTicks": 192,
            "midi": 51,
            "name": "D#3",
            "ticks": 129216,
            "time": 149.3343255,
            "velocity": 1
          },
          {
            "duration": 0.44378699999998616,
            "durationTicks": 384,
            "midi": 47,
            "name": "B2",
            "ticks": 129408,
            "time": 149.556219,
            "velocity": 1
          },
          {
            "duration": 0.44378699999998616,
            "durationTicks": 384,
            "midi": 59,
            "name": "B3",
            "ticks": 129408,
            "time": 149.556219,
            "velocity": 1
          },
          {
            "duration": 0.44378699999998616,
            "durationTicks": 384,
            "midi": 54,
            "name": "F#3",
            "ticks": 129408,
            "time": 149.556219,
            "velocity": 1
          },
          {
            "duration": 0.6656805000000077,
            "durationTicks": 576,
            "midi": 49,
            "name": "C#3",
            "ticks": 129792,
            "time": 150.00000599999998,
            "velocity": 1
          },
          {
            "duration": 0.6656805000000077,
            "durationTicks": 576,
            "midi": 61,
            "name": "C#4",
            "ticks": 129792,
            "time": 150.00000599999998,
            "velocity": 1
          },
          {
            "duration": 0.6656805000000077,
            "durationTicks": 576,
            "midi": 56,
            "name": "G#3",
            "ticks": 129792,
            "time": 150.00000599999998,
            "velocity": 1
          },
          {
            "duration": 0.4437870000000146,
            "durationTicks": 384,
            "midi": 44,
            "name": "G#2",
            "ticks": 130368,
            "time": 150.6656865,
            "velocity": 1
          },
          {
            "duration": 0.4437870000000146,
            "durationTicks": 384,
            "midi": 56,
            "name": "G#3",
            "ticks": 130368,
            "time": 150.6656865,
            "velocity": 1
          },
          {
            "duration": 0.4437870000000146,
            "durationTicks": 384,
            "midi": 51,
            "name": "D#3",
            "ticks": 130368,
            "time": 150.6656865,
            "velocity": 1
          },
          {
            "duration": 0.22189349999999308,
            "durationTicks": 192,
            "midi": 44,
            "name": "G#2",
            "ticks": 130752,
            "time": 151.1094735,
            "velocity": 1
          },
          {
            "duration": 0.22189349999999308,
            "durationTicks": 192,
            "midi": 56,
            "name": "G#3",
            "ticks": 130752,
            "time": 151.1094735,
            "velocity": 1
          },
          {
            "duration": 0.22189349999999308,
            "durationTicks": 192,
            "midi": 51,
            "name": "D#3",
            "ticks": 130752,
            "time": 151.1094735,
            "velocity": 1
          },
          {
            "duration": 0.44378699999998616,
            "durationTicks": 384,
            "midi": 47,
            "name": "B2",
            "ticks": 130944,
            "time": 151.331367,
            "velocity": 1
          },
          {
            "duration": 0.44378699999998616,
            "durationTicks": 384,
            "midi": 59,
            "name": "B3",
            "ticks": 130944,
            "time": 151.331367,
            "velocity": 1
          },
          {
            "duration": 0.44378699999998616,
            "durationTicks": 384,
            "midi": 54,
            "name": "F#3",
            "ticks": 130944,
            "time": 151.331367,
            "velocity": 1
          },
          {
            "duration": 0.6656805000000077,
            "durationTicks": 576,
            "midi": 49,
            "name": "C#3",
            "ticks": 131328,
            "time": 151.775154,
            "velocity": 1
          },
          {
            "duration": 0.6656805000000077,
            "durationTicks": 576,
            "midi": 61,
            "name": "C#4",
            "ticks": 131328,
            "time": 151.775154,
            "velocity": 1
          },
          {
            "duration": 0.6656805000000077,
            "durationTicks": 576,
            "midi": 56,
            "name": "G#3",
            "ticks": 131328,
            "time": 151.775154,
            "velocity": 1
          },
          {
            "duration": 0.4437870000000146,
            "durationTicks": 384,
            "midi": 44,
            "name": "G#2",
            "ticks": 131904,
            "time": 152.4408345,
            "velocity": 1
          },
          {
            "duration": 0.4437870000000146,
            "durationTicks": 384,
            "midi": 56,
            "name": "G#3",
            "ticks": 131904,
            "time": 152.4408345,
            "velocity": 1
          },
          {
            "duration": 0.4437870000000146,
            "durationTicks": 384,
            "midi": 51,
            "name": "D#3",
            "ticks": 131904,
            "time": 152.4408345,
            "velocity": 1
          },
          {
            "duration": 0.22189349999999308,
            "durationTicks": 192,
            "midi": 44,
            "name": "G#2",
            "ticks": 132288,
            "time": 152.8846215,
            "velocity": 1
          },
          {
            "duration": 0.22189349999999308,
            "durationTicks": 192,
            "midi": 56,
            "name": "G#3",
            "ticks": 132288,
            "time": 152.8846215,
            "velocity": 1
          },
          {
            "duration": 0.22189349999999308,
            "durationTicks": 192,
            "midi": 51,
            "name": "D#3",
            "ticks": 132288,
            "time": 152.8846215,
            "velocity": 1
          },
          {
            "duration": 0.44378699999998616,
            "durationTicks": 384,
            "midi": 47,
            "name": "B2",
            "ticks": 132480,
            "time": 153.106515,
            "velocity": 1
          },
          {
            "duration": 0.44378699999998616,
            "durationTicks": 384,
            "midi": 59,
            "name": "B3",
            "ticks": 132480,
            "time": 153.106515,
            "velocity": 1
          },
          {
            "duration": 0.44378699999998616,
            "durationTicks": 384,
            "midi": 54,
            "name": "F#3",
            "ticks": 132480,
            "time": 153.106515,
            "velocity": 1
          },
          {
            "duration": 0.6656805000000077,
            "durationTicks": 576,
            "midi": 49,
            "name": "C#3",
            "ticks": 132864,
            "time": 153.550302,
            "velocity": 1
          },
          {
            "duration": 0.6656805000000077,
            "durationTicks": 576,
            "midi": 61,
            "name": "C#4",
            "ticks": 132864,
            "time": 153.550302,
            "velocity": 1
          },
          {
            "duration": 0.6656805000000077,
            "durationTicks": 576,
            "midi": 56,
            "name": "G#3",
            "ticks": 132864,
            "time": 153.550302,
            "velocity": 1
          },
          {
            "duration": 0.44378699999998616,
            "durationTicks": 384,
            "midi": 44,
            "name": "G#2",
            "ticks": 133440,
            "time": 154.2159825,
            "velocity": 1
          },
          {
            "duration": 0.44378699999998616,
            "durationTicks": 384,
            "midi": 56,
            "name": "G#3",
            "ticks": 133440,
            "time": 154.2159825,
            "velocity": 1
          },
          {
            "duration": 0.44378699999998616,
            "durationTicks": 384,
            "midi": 51,
            "name": "D#3",
            "ticks": 133440,
            "time": 154.2159825,
            "velocity": 1
          },
          {
            "duration": 0.2218935000000215,
            "durationTicks": 192,
            "midi": 44,
            "name": "G#2",
            "ticks": 133824,
            "time": 154.65976949999998,
            "velocity": 1
          },
          {
            "duration": 0.2218935000000215,
            "durationTicks": 192,
            "midi": 56,
            "name": "G#3",
            "ticks": 133824,
            "time": 154.65976949999998,
            "velocity": 1
          },
          {
            "duration": 0.2218935000000215,
            "durationTicks": 192,
            "midi": 51,
            "name": "D#3",
            "ticks": 133824,
            "time": 154.65976949999998,
            "velocity": 1
          },
          {
            "duration": 0.44378699999998616,
            "durationTicks": 384,
            "midi": 47,
            "name": "B2",
            "ticks": 134016,
            "time": 154.881663,
            "velocity": 1
          },
          {
            "duration": 0.44378699999998616,
            "durationTicks": 384,
            "midi": 59,
            "name": "B3",
            "ticks": 134016,
            "time": 154.881663,
            "velocity": 1
          },
          {
            "duration": 0.44378699999998616,
            "durationTicks": 384,
            "midi": 54,
            "name": "F#3",
            "ticks": 134016,
            "time": 154.881663,
            "velocity": 1
          },
          {
            "duration": 0.22189349999999308,
            "durationTicks": 192,
            "midi": 49,
            "name": "C#3",
            "ticks": 134400,
            "time": 155.32545,
            "velocity": 1
          },
          {
            "duration": 0.22189349999999308,
            "durationTicks": 192,
            "midi": 61,
            "name": "C#4",
            "ticks": 134400,
            "time": 155.32545,
            "velocity": 1
          },
          {
            "duration": 0.22189349999999308,
            "durationTicks": 192,
            "midi": 56,
            "name": "G#3",
            "ticks": 134400,
            "time": 155.32545,
            "velocity": 1
          },
          {
            "duration": 0.22189349999999308,
            "durationTicks": 192,
            "midi": 49,
            "name": "C#3",
            "ticks": 135552,
            "time": 156.656811,
            "velocity": 1
          },
          {
            "duration": 0.22189349999999308,
            "durationTicks": 192,
            "midi": 61,
            "name": "C#4",
            "ticks": 135552,
            "time": 156.656811,
            "velocity": 1
          },
          {
            "duration": 0.22189349999999308,
            "durationTicks": 192,
            "midi": 56,
            "name": "G#3",
            "ticks": 135552,
            "time": 156.656811,
            "velocity": 1
          },
          {
            "duration": 0.22189349999999308,
            "durationTicks": 192,
            "midi": 49,
            "name": "C#3",
            "ticks": 135936,
            "time": 157.100598,
            "velocity": 1
          },
          {
            "duration": 0.22189349999999308,
            "durationTicks": 192,
            "midi": 61,
            "name": "C#4",
            "ticks": 135936,
            "time": 157.100598,
            "velocity": 1
          },
          {
            "duration": 0.22189349999999308,
            "durationTicks": 192,
            "midi": 56,
            "name": "G#3",
            "ticks": 135936,
            "time": 157.100598,
            "velocity": 1
          },
          {
            "duration": 0.22189349999999308,
            "durationTicks": 192,
            "midi": 49,
            "name": "C#3",
            "ticks": 137472,
            "time": 158.875746,
            "velocity": 1
          },
          {
            "duration": 0.22189349999999308,
            "durationTicks": 192,
            "midi": 61,
            "name": "C#4",
            "ticks": 137472,
            "time": 158.875746,
            "velocity": 1
          },
          {
            "duration": 0.22189349999999308,
            "durationTicks": 192,
            "midi": 56,
            "name": "G#3",
            "ticks": 137472,
            "time": 158.875746,
            "velocity": 1
          },
          {
            "duration": 0.44378699999998616,
            "durationTicks": 384,
            "midi": 44,
            "name": "G#2",
            "ticks": 138048,
            "time": 159.5414265,
            "velocity": 1
          },
          {
            "duration": 0.44378699999998616,
            "durationTicks": 384,
            "midi": 56,
            "name": "G#3",
            "ticks": 138048,
            "time": 159.5414265,
            "velocity": 1
          },
          {
            "duration": 0.44378699999998616,
            "durationTicks": 384,
            "midi": 51,
            "name": "D#3",
            "ticks": 138048,
            "time": 159.5414265,
            "velocity": 1
          },
          {
            "duration": 0.2218935000000215,
            "durationTicks": 192,
            "midi": 44,
            "name": "G#2",
            "ticks": 138432,
            "time": 159.9852135,
            "velocity": 1
          },
          {
            "duration": 0.2218935000000215,
            "durationTicks": 192,
            "midi": 56,
            "name": "G#3",
            "ticks": 138432,
            "time": 159.9852135,
            "velocity": 1
          },
          {
            "duration": 0.2218935000000215,
            "durationTicks": 192,
            "midi": 51,
            "name": "D#3",
            "ticks": 138432,
            "time": 159.9852135,
            "velocity": 1
          },
          {
            "duration": 0.44378699999998616,
            "durationTicks": 384,
            "midi": 47,
            "name": "B2",
            "ticks": 138624,
            "time": 160.207107,
            "velocity": 1
          },
          {
            "duration": 0.44378699999998616,
            "durationTicks": 384,
            "midi": 59,
            "name": "B3",
            "ticks": 138624,
            "time": 160.207107,
            "velocity": 1
          },
          {
            "duration": 0.44378699999998616,
            "durationTicks": 384,
            "midi": 54,
            "name": "F#3",
            "ticks": 138624,
            "time": 160.207107,
            "velocity": 1
          },
          {
            "duration": 0.6656805000000077,
            "durationTicks": 576,
            "midi": 49,
            "name": "C#3",
            "ticks": 139008,
            "time": 160.650894,
            "velocity": 1
          },
          {
            "duration": 0.6656805000000077,
            "durationTicks": 576,
            "midi": 61,
            "name": "C#4",
            "ticks": 139008,
            "time": 160.650894,
            "velocity": 1
          },
          {
            "duration": 0.6656805000000077,
            "durationTicks": 576,
            "midi": 56,
            "name": "G#3",
            "ticks": 139008,
            "time": 160.650894,
            "velocity": 1
          },
          {
            "duration": 0.44378699999998616,
            "durationTicks": 384,
            "midi": 44,
            "name": "G#2",
            "ticks": 139584,
            "time": 161.3165745,
            "velocity": 1
          },
          {
            "duration": 0.44378699999998616,
            "durationTicks": 384,
            "midi": 56,
            "name": "G#3",
            "ticks": 139584,
            "time": 161.3165745,
            "velocity": 1
          },
          {
            "duration": 0.44378699999998616,
            "durationTicks": 384,
            "midi": 51,
            "name": "D#3",
            "ticks": 139584,
            "time": 161.3165745,
            "velocity": 1
          },
          {
            "duration": 0.2218935000000215,
            "durationTicks": 192,
            "midi": 44,
            "name": "G#2",
            "ticks": 139968,
            "time": 161.7603615,
            "velocity": 1
          },
          {
            "duration": 0.2218935000000215,
            "durationTicks": 192,
            "midi": 56,
            "name": "G#3",
            "ticks": 139968,
            "time": 161.7603615,
            "velocity": 1
          },
          {
            "duration": 0.2218935000000215,
            "durationTicks": 192,
            "midi": 51,
            "name": "D#3",
            "ticks": 139968,
            "time": 161.7603615,
            "velocity": 1
          },
          {
            "duration": 0.44378699999998616,
            "durationTicks": 384,
            "midi": 47,
            "name": "B2",
            "ticks": 140160,
            "time": 161.982255,
            "velocity": 1
          },
          {
            "duration": 0.44378699999998616,
            "durationTicks": 384,
            "midi": 59,
            "name": "B3",
            "ticks": 140160,
            "time": 161.982255,
            "velocity": 1
          },
          {
            "duration": 0.44378699999998616,
            "durationTicks": 384,
            "midi": 54,
            "name": "F#3",
            "ticks": 140160,
            "time": 161.982255,
            "velocity": 1
          },
          {
            "duration": 0.6656805000000077,
            "durationTicks": 576,
            "midi": 49,
            "name": "C#3",
            "ticks": 140544,
            "time": 162.426042,
            "velocity": 1
          },
          {
            "duration": 0.6656805000000077,
            "durationTicks": 576,
            "midi": 61,
            "name": "C#4",
            "ticks": 140544,
            "time": 162.426042,
            "velocity": 1
          },
          {
            "duration": 0.6656805000000077,
            "durationTicks": 576,
            "midi": 56,
            "name": "G#3",
            "ticks": 140544,
            "time": 162.426042,
            "velocity": 1
          },
          {
            "duration": 0.44378699999998616,
            "durationTicks": 384,
            "midi": 44,
            "name": "G#2",
            "ticks": 141120,
            "time": 163.0917225,
            "velocity": 1
          },
          {
            "duration": 0.44378699999998616,
            "durationTicks": 384,
            "midi": 56,
            "name": "G#3",
            "ticks": 141120,
            "time": 163.0917225,
            "velocity": 1
          },
          {
            "duration": 0.44378699999998616,
            "durationTicks": 384,
            "midi": 51,
            "name": "D#3",
            "ticks": 141120,
            "time": 163.0917225,
            "velocity": 1
          },
          {
            "duration": 0.22189349999999308,
            "durationTicks": 192,
            "midi": 44,
            "name": "G#2",
            "ticks": 141504,
            "time": 163.5355095,
            "velocity": 1
          },
          {
            "duration": 0.22189349999999308,
            "durationTicks": 192,
            "midi": 56,
            "name": "G#3",
            "ticks": 141504,
            "time": 163.5355095,
            "velocity": 1
          },
          {
            "duration": 0.22189349999999308,
            "durationTicks": 192,
            "midi": 51,
            "name": "D#3",
            "ticks": 141504,
            "time": 163.5355095,
            "velocity": 1
          },
          {
            "duration": 0.4437870000000146,
            "durationTicks": 384,
            "midi": 47,
            "name": "B2",
            "ticks": 141696,
            "time": 163.75740299999998,
            "velocity": 1
          },
          {
            "duration": 0.4437870000000146,
            "durationTicks": 384,
            "midi": 59,
            "name": "B3",
            "ticks": 141696,
            "time": 163.75740299999998,
            "velocity": 1
          },
          {
            "duration": 0.4437870000000146,
            "durationTicks": 384,
            "midi": 54,
            "name": "F#3",
            "ticks": 141696,
            "time": 163.75740299999998,
            "velocity": 1
          },
          {
            "duration": 0.6656805000000077,
            "durationTicks": 576,
            "midi": 49,
            "name": "C#3",
            "ticks": 142080,
            "time": 164.20119,
            "velocity": 1
          },
          {
            "duration": 0.6656805000000077,
            "durationTicks": 576,
            "midi": 61,
            "name": "C#4",
            "ticks": 142080,
            "time": 164.20119,
            "velocity": 1
          },
          {
            "duration": 0.6656805000000077,
            "durationTicks": 576,
            "midi": 56,
            "name": "G#3",
            "ticks": 142080,
            "time": 164.20119,
            "velocity": 1
          },
          {
            "duration": 0.44378699999998616,
            "durationTicks": 384,
            "midi": 44,
            "name": "G#2",
            "ticks": 142656,
            "time": 164.8668705,
            "velocity": 1
          },
          {
            "duration": 0.44378699999998616,
            "durationTicks": 384,
            "midi": 56,
            "name": "G#3",
            "ticks": 142656,
            "time": 164.8668705,
            "velocity": 1
          },
          {
            "duration": 0.44378699999998616,
            "durationTicks": 384,
            "midi": 51,
            "name": "D#3",
            "ticks": 142656,
            "time": 164.8668705,
            "velocity": 1
          },
          {
            "duration": 0.22189349999999308,
            "durationTicks": 192,
            "midi": 44,
            "name": "G#2",
            "ticks": 143040,
            "time": 165.3106575,
            "velocity": 1
          },
          {
            "duration": 0.22189349999999308,
            "durationTicks": 192,
            "midi": 56,
            "name": "G#3",
            "ticks": 143040,
            "time": 165.3106575,
            "velocity": 1
          },
          {
            "duration": 0.22189349999999308,
            "durationTicks": 192,
            "midi": 51,
            "name": "D#3",
            "ticks": 143040,
            "time": 165.3106575,
            "velocity": 1
          },
          {
            "duration": 0.4437870000000146,
            "durationTicks": 384,
            "midi": 47,
            "name": "B2",
            "ticks": 143232,
            "time": 165.53255099999998,
            "velocity": 1
          },
          {
            "duration": 0.4437870000000146,
            "durationTicks": 384,
            "midi": 59,
            "name": "B3",
            "ticks": 143232,
            "time": 165.53255099999998,
            "velocity": 1
          },
          {
            "duration": 0.4437870000000146,
            "durationTicks": 384,
            "midi": 54,
            "name": "F#3",
            "ticks": 143232,
            "time": 165.53255099999998,
            "velocity": 1
          },
          {
            "duration": 0.6656805000000077,
            "durationTicks": 576,
            "midi": 49,
            "name": "C#3",
            "ticks": 143616,
            "time": 165.976338,
            "velocity": 1
          },
          {
            "duration": 0.6656805000000077,
            "durationTicks": 576,
            "midi": 61,
            "name": "C#4",
            "ticks": 143616,
            "time": 165.976338,
            "velocity": 1
          },
          {
            "duration": 0.6656805000000077,
            "durationTicks": 576,
            "midi": 56,
            "name": "G#3",
            "ticks": 143616,
            "time": 165.976338,
            "velocity": 1
          },
          {
            "duration": 0.22189349999999308,
            "durationTicks": 192,
            "midi": 44,
            "name": "G#2",
            "ticks": 144192,
            "time": 166.6420185,
            "velocity": 1
          },
          {
            "duration": 0.22189349999999308,
            "durationTicks": 192,
            "midi": 56,
            "name": "G#3",
            "ticks": 144192,
            "time": 166.6420185,
            "velocity": 1
          },
          {
            "duration": 0.22189349999999308,
            "durationTicks": 192,
            "midi": 51,
            "name": "D#3",
            "ticks": 144192,
            "time": 166.6420185,
            "velocity": 1
          },
          {
            "duration": 0.22189349999999308,
            "durationTicks": 192,
            "midi": 39,
            "name": "D#2",
            "ticks": 144384,
            "time": 166.863912,
            "velocity": 1
          },
          {
            "duration": 0.22189349999999308,
            "durationTicks": 192,
            "midi": 51,
            "name": "D#3",
            "ticks": 144384,
            "time": 166.863912,
            "velocity": 1
          },
          {
            "duration": 0.22189349999999308,
            "durationTicks": 192,
            "midi": 46,
            "name": "A#2",
            "ticks": 144384,
            "time": 166.863912,
            "velocity": 1
          },
          {
            "duration": 0.22189349999999308,
            "durationTicks": 192,
            "midi": 39,
            "name": "D#2",
            "ticks": 144576,
            "time": 167.0858055,
            "velocity": 1
          },
          {
            "duration": 0.22189349999999308,
            "durationTicks": 192,
            "midi": 51,
            "name": "D#3",
            "ticks": 144576,
            "time": 167.0858055,
            "velocity": 1
          },
          {
            "duration": 0.22189349999999308,
            "durationTicks": 192,
            "midi": 46,
            "name": "A#2",
            "ticks": 144576,
            "time": 167.0858055,
            "velocity": 1
          },
          {
            "duration": 0.2218935000000215,
            "durationTicks": 192,
            "midi": 39,
            "name": "D#2",
            "ticks": 144768,
            "time": 167.30769899999999,
            "velocity": 1
          },
          {
            "duration": 0.2218935000000215,
            "durationTicks": 192,
            "midi": 51,
            "name": "D#3",
            "ticks": 144768,
            "time": 167.30769899999999,
            "velocity": 1
          },
          {
            "duration": 0.2218935000000215,
            "durationTicks": 192,
            "midi": 46,
            "name": "A#2",
            "ticks": 144768,
            "time": 167.30769899999999,
            "velocity": 1
          },
          {
            "duration": 0.22189349999999308,
            "durationTicks": 192,
            "midi": 39,
            "name": "D#2",
            "ticks": 144960,
            "time": 167.5295925,
            "velocity": 1
          },
          {
            "duration": 0.22189349999999308,
            "durationTicks": 192,
            "midi": 51,
            "name": "D#3",
            "ticks": 144960,
            "time": 167.5295925,
            "velocity": 1
          },
          {
            "duration": 0.22189349999999308,
            "durationTicks": 192,
            "midi": 46,
            "name": "A#2",
            "ticks": 144960,
            "time": 167.5295925,
            "velocity": 1
          },
          {
            "duration": 0.22189349999999308,
            "durationTicks": 192,
            "midi": 39,
            "name": "D#2",
            "ticks": 145152,
            "time": 167.751486,
            "velocity": 1
          },
          {
            "duration": 0.22189349999999308,
            "durationTicks": 192,
            "midi": 51,
            "name": "D#3",
            "ticks": 145152,
            "time": 167.751486,
            "velocity": 1
          },
          {
            "duration": 0.22189349999999308,
            "durationTicks": 192,
            "midi": 46,
            "name": "A#2",
            "ticks": 145152,
            "time": 167.751486,
            "velocity": 1
          },
          {
            "duration": 0.22189349999999308,
            "durationTicks": 192,
            "midi": 39,
            "name": "D#2",
            "ticks": 145344,
            "time": 167.9733795,
            "velocity": 1
          },
          {
            "duration": 0.22189349999999308,
            "durationTicks": 192,
            "midi": 51,
            "name": "D#3",
            "ticks": 145344,
            "time": 167.9733795,
            "velocity": 1
          },
          {
            "duration": 0.22189349999999308,
            "durationTicks": 192,
            "midi": 46,
            "name": "A#2",
            "ticks": 145344,
            "time": 167.9733795,
            "velocity": 1
          },
          {
            "duration": 0.2218935000000215,
            "durationTicks": 192,
            "midi": 39,
            "name": "D#2",
            "ticks": 145536,
            "time": 168.195273,
            "velocity": 1
          },
          {
            "duration": 0.2218935000000215,
            "durationTicks": 192,
            "midi": 51,
            "name": "D#3",
            "ticks": 145536,
            "time": 168.195273,
            "velocity": 1
          },
          {
            "duration": 0.2218935000000215,
            "durationTicks": 192,
            "midi": 46,
            "name": "A#2",
            "ticks": 145536,
            "time": 168.195273,
            "velocity": 1
          },
          {
            "duration": 0.44378699999998616,
            "durationTicks": 384,
            "midi": 42,
            "name": "F#2",
            "ticks": 145728,
            "time": 168.4171665,
            "velocity": 1
          },
          {
            "duration": 0.44378699999998616,
            "durationTicks": 384,
            "midi": 54,
            "name": "F#3",
            "ticks": 145728,
            "time": 168.4171665,
            "velocity": 1
          },
          {
            "duration": 0.44378699999998616,
            "durationTicks": 384,
            "midi": 49,
            "name": "C#3",
            "ticks": 145728,
            "time": 168.4171665,
            "velocity": 1
          },
          {
            "duration": 0.22189349999999308,
            "durationTicks": 192,
            "midi": 39,
            "name": "D#2",
            "ticks": 146112,
            "time": 168.8609535,
            "velocity": 1
          },
          {
            "duration": 0.22189349999999308,
            "durationTicks": 192,
            "midi": 51,
            "name": "D#3",
            "ticks": 146112,
            "time": 168.8609535,
            "velocity": 1
          },
          {
            "duration": 0.22189349999999308,
            "durationTicks": 192,
            "midi": 46,
            "name": "A#2",
            "ticks": 146112,
            "time": 168.8609535,
            "velocity": 1
          },
          {
            "duration": 0.2218935000000215,
            "durationTicks": 192,
            "midi": 39,
            "name": "D#2",
            "ticks": 146304,
            "time": 169.082847,
            "velocity": 1
          },
          {
            "duration": 0.2218935000000215,
            "durationTicks": 192,
            "midi": 51,
            "name": "D#3",
            "ticks": 146304,
            "time": 169.082847,
            "velocity": 1
          },
          {
            "duration": 0.2218935000000215,
            "durationTicks": 192,
            "midi": 46,
            "name": "A#2",
            "ticks": 146304,
            "time": 169.082847,
            "velocity": 1
          },
          {
            "duration": 0.22189349999999308,
            "durationTicks": 192,
            "midi": 39,
            "name": "D#2",
            "ticks": 146496,
            "time": 169.3047405,
            "velocity": 1
          },
          {
            "duration": 0.22189349999999308,
            "durationTicks": 192,
            "midi": 51,
            "name": "D#3",
            "ticks": 146496,
            "time": 169.3047405,
            "velocity": 1
          },
          {
            "duration": 0.22189349999999308,
            "durationTicks": 192,
            "midi": 46,
            "name": "A#2",
            "ticks": 146496,
            "time": 169.3047405,
            "velocity": 1
          },
          {
            "duration": 0.22189349999999308,
            "durationTicks": 192,
            "midi": 39,
            "name": "D#2",
            "ticks": 146688,
            "time": 169.526634,
            "velocity": 1
          },
          {
            "duration": 0.22189349999999308,
            "durationTicks": 192,
            "midi": 51,
            "name": "D#3",
            "ticks": 146688,
            "time": 169.526634,
            "velocity": 1
          },
          {
            "duration": 0.22189349999999308,
            "durationTicks": 192,
            "midi": 46,
            "name": "A#2",
            "ticks": 146688,
            "time": 169.526634,
            "velocity": 1
          },
          {
            "duration": 0.22189349999999308,
            "durationTicks": 192,
            "midi": 39,
            "name": "D#2",
            "ticks": 146880,
            "time": 169.7485275,
            "velocity": 1
          },
          {
            "duration": 0.22189349999999308,
            "durationTicks": 192,
            "midi": 51,
            "name": "D#3",
            "ticks": 146880,
            "time": 169.7485275,
            "velocity": 1
          },
          {
            "duration": 0.22189349999999308,
            "durationTicks": 192,
            "midi": 46,
            "name": "A#2",
            "ticks": 146880,
            "time": 169.7485275,
            "velocity": 1
          },
          {
            "duration": 0.2218935000000215,
            "durationTicks": 192,
            "midi": 39,
            "name": "D#2",
            "ticks": 147072,
            "time": 169.970421,
            "velocity": 1
          },
          {
            "duration": 0.2218935000000215,
            "durationTicks": 192,
            "midi": 51,
            "name": "D#3",
            "ticks": 147072,
            "time": 169.970421,
            "velocity": 1
          },
          {
            "duration": 0.2218935000000215,
            "durationTicks": 192,
            "midi": 46,
            "name": "A#2",
            "ticks": 147072,
            "time": 169.970421,
            "velocity": 1
          },
          {
            "duration": 0.44378699999998616,
            "durationTicks": 384,
            "midi": 42,
            "name": "F#2",
            "ticks": 147264,
            "time": 170.1923145,
            "velocity": 1
          },
          {
            "duration": 0.44378699999998616,
            "durationTicks": 384,
            "midi": 54,
            "name": "F#3",
            "ticks": 147264,
            "time": 170.1923145,
            "velocity": 1
          },
          {
            "duration": 0.44378699999998616,
            "durationTicks": 384,
            "midi": 49,
            "name": "C#3",
            "ticks": 147264,
            "time": 170.1923145,
            "velocity": 1
          },
          {
            "duration": 0.22189349999999308,
            "durationTicks": 192,
            "midi": 39,
            "name": "D#2",
            "ticks": 147648,
            "time": 170.6361015,
            "velocity": 1
          },
          {
            "duration": 0.22189349999999308,
            "durationTicks": 192,
            "midi": 51,
            "name": "D#3",
            "ticks": 147648,
            "time": 170.6361015,
            "velocity": 1
          },
          {
            "duration": 0.22189349999999308,
            "durationTicks": 192,
            "midi": 46,
            "name": "A#2",
            "ticks": 147648,
            "time": 170.6361015,
            "velocity": 1
          },
          {
            "duration": 0.22189349999999308,
            "durationTicks": 192,
            "midi": 39,
            "name": "D#2",
            "ticks": 147840,
            "time": 170.857995,
            "velocity": 1
          },
          {
            "duration": 0.22189349999999308,
            "durationTicks": 192,
            "midi": 51,
            "name": "D#3",
            "ticks": 147840,
            "time": 170.857995,
            "velocity": 1
          },
          {
            "duration": 0.22189349999999308,
            "durationTicks": 192,
            "midi": 46,
            "name": "A#2",
            "ticks": 147840,
            "time": 170.857995,
            "velocity": 1
          },
          {
            "duration": 0.2218935000000215,
            "durationTicks": 192,
            "midi": 39,
            "name": "D#2",
            "ticks": 148032,
            "time": 171.07988849999998,
            "velocity": 1
          },
          {
            "duration": 0.2218935000000215,
            "durationTicks": 192,
            "midi": 51,
            "name": "D#3",
            "ticks": 148032,
            "time": 171.07988849999998,
            "velocity": 1
          },
          {
            "duration": 0.2218935000000215,
            "durationTicks": 192,
            "midi": 46,
            "name": "A#2",
            "ticks": 148032,
            "time": 171.07988849999998,
            "velocity": 1
          },
          {
            "duration": 0.22189349999999308,
            "durationTicks": 192,
            "midi": 39,
            "name": "D#2",
            "ticks": 148224,
            "time": 171.301782,
            "velocity": 1
          },
          {
            "duration": 0.22189349999999308,
            "durationTicks": 192,
            "midi": 51,
            "name": "D#3",
            "ticks": 148224,
            "time": 171.301782,
            "velocity": 1
          },
          {
            "duration": 0.22189349999999308,
            "durationTicks": 192,
            "midi": 46,
            "name": "A#2",
            "ticks": 148224,
            "time": 171.301782,
            "velocity": 1
          },
          {
            "duration": 0.22189349999999308,
            "durationTicks": 192,
            "midi": 39,
            "name": "D#2",
            "ticks": 148416,
            "time": 171.5236755,
            "velocity": 1
          },
          {
            "duration": 0.22189349999999308,
            "durationTicks": 192,
            "midi": 51,
            "name": "D#3",
            "ticks": 148416,
            "time": 171.5236755,
            "velocity": 1
          },
          {
            "duration": 0.22189349999999308,
            "durationTicks": 192,
            "midi": 46,
            "name": "A#2",
            "ticks": 148416,
            "time": 171.5236755,
            "velocity": 1
          },
          {
            "duration": 0.22189349999999308,
            "durationTicks": 192,
            "midi": 39,
            "name": "D#2",
            "ticks": 148608,
            "time": 171.745569,
            "velocity": 1
          },
          {
            "duration": 0.22189349999999308,
            "durationTicks": 192,
            "midi": 51,
            "name": "D#3",
            "ticks": 148608,
            "time": 171.745569,
            "velocity": 1
          },
          {
            "duration": 0.22189349999999308,
            "durationTicks": 192,
            "midi": 46,
            "name": "A#2",
            "ticks": 148608,
            "time": 171.745569,
            "velocity": 1
          },
          {
            "duration": 0.4437870000000146,
            "durationTicks": 384,
            "midi": 42,
            "name": "F#2",
            "ticks": 148800,
            "time": 171.96746249999998,
            "velocity": 1
          },
          {
            "duration": 0.4437870000000146,
            "durationTicks": 384,
            "midi": 54,
            "name": "F#3",
            "ticks": 148800,
            "time": 171.96746249999998,
            "velocity": 1
          },
          {
            "duration": 0.4437870000000146,
            "durationTicks": 384,
            "midi": 49,
            "name": "C#3",
            "ticks": 148800,
            "time": 171.96746249999998,
            "velocity": 1
          },
          {
            "duration": 0.22189349999999308,
            "durationTicks": 192,
            "midi": 39,
            "name": "D#2",
            "ticks": 149184,
            "time": 172.4112495,
            "velocity": 1
          },
          {
            "duration": 0.22189349999999308,
            "durationTicks": 192,
            "midi": 51,
            "name": "D#3",
            "ticks": 149184,
            "time": 172.4112495,
            "velocity": 1
          },
          {
            "duration": 0.22189349999999308,
            "durationTicks": 192,
            "midi": 46,
            "name": "A#2",
            "ticks": 149184,
            "time": 172.4112495,
            "velocity": 1
          },
          {
            "duration": 0.22189349999999308,
            "durationTicks": 192,
            "midi": 39,
            "name": "D#2",
            "ticks": 149376,
            "time": 172.633143,
            "velocity": 1
          },
          {
            "duration": 0.22189349999999308,
            "durationTicks": 192,
            "midi": 51,
            "name": "D#3",
            "ticks": 149376,
            "time": 172.633143,
            "velocity": 1
          },
          {
            "duration": 0.22189349999999308,
            "durationTicks": 192,
            "midi": 46,
            "name": "A#2",
            "ticks": 149376,
            "time": 172.633143,
            "velocity": 1
          },
          {
            "duration": 0.2218935000000215,
            "durationTicks": 192,
            "midi": 39,
            "name": "D#2",
            "ticks": 149568,
            "time": 172.85503649999998,
            "velocity": 1
          },
          {
            "duration": 0.2218935000000215,
            "durationTicks": 192,
            "midi": 51,
            "name": "D#3",
            "ticks": 149568,
            "time": 172.85503649999998,
            "velocity": 1
          },
          {
            "duration": 0.2218935000000215,
            "durationTicks": 192,
            "midi": 46,
            "name": "A#2",
            "ticks": 149568,
            "time": 172.85503649999998,
            "velocity": 1
          },
          {
            "duration": 0.22189349999999308,
            "durationTicks": 192,
            "midi": 39,
            "name": "D#2",
            "ticks": 149760,
            "time": 173.07693,
            "velocity": 1
          },
          {
            "duration": 0.22189349999999308,
            "durationTicks": 192,
            "midi": 51,
            "name": "D#3",
            "ticks": 149760,
            "time": 173.07693,
            "velocity": 1
          },
          {
            "duration": 0.22189349999999308,
            "durationTicks": 192,
            "midi": 46,
            "name": "A#2",
            "ticks": 149760,
            "time": 173.07693,
            "velocity": 1
          },
          {
            "duration": 0.22189349999999308,
            "durationTicks": 192,
            "midi": 39,
            "name": "D#2",
            "ticks": 149952,
            "time": 173.2988235,
            "velocity": 1
          },
          {
            "duration": 0.22189349999999308,
            "durationTicks": 192,
            "midi": 51,
            "name": "D#3",
            "ticks": 149952,
            "time": 173.2988235,
            "velocity": 1
          },
          {
            "duration": 0.22189349999999308,
            "durationTicks": 192,
            "midi": 46,
            "name": "A#2",
            "ticks": 149952,
            "time": 173.2988235,
            "velocity": 1
          },
          {
            "duration": 0.22189349999999308,
            "durationTicks": 192,
            "midi": 39,
            "name": "D#2",
            "ticks": 150144,
            "time": 173.520717,
            "velocity": 1
          },
          {
            "duration": 0.22189349999999308,
            "durationTicks": 192,
            "midi": 51,
            "name": "D#3",
            "ticks": 150144,
            "time": 173.520717,
            "velocity": 1
          },
          {
            "duration": 0.22189349999999308,
            "durationTicks": 192,
            "midi": 46,
            "name": "A#2",
            "ticks": 150144,
            "time": 173.520717,
            "velocity": 1
          },
          {
            "duration": 0.4437870000000146,
            "durationTicks": 384,
            "midi": 44,
            "name": "G#2",
            "ticks": 150336,
            "time": 173.74261049999998,
            "velocity": 1
          },
          {
            "duration": 0.4437870000000146,
            "durationTicks": 384,
            "midi": 56,
            "name": "G#3",
            "ticks": 150336,
            "time": 173.74261049999998,
            "velocity": 1
          },
          {
            "duration": 0.4437870000000146,
            "durationTicks": 384,
            "midi": 51,
            "name": "D#3",
            "ticks": 150336,
            "time": 173.74261049999998,
            "velocity": 1
          },
          {
            "duration": 0.22189349999999308,
            "durationTicks": 192,
            "midi": 44,
            "name": "G#2",
            "ticks": 150720,
            "time": 174.1863975,
            "velocity": 1
          },
          {
            "duration": 0.22189349999999308,
            "durationTicks": 192,
            "midi": 56,
            "name": "G#3",
            "ticks": 150720,
            "time": 174.1863975,
            "velocity": 1
          },
          {
            "duration": 0.22189349999999308,
            "durationTicks": 192,
            "midi": 51,
            "name": "D#3",
            "ticks": 150720,
            "time": 174.1863975,
            "velocity": 1
          },
          {
            "duration": 0.4437870000000146,
            "durationTicks": 384,
            "midi": 47,
            "name": "B2",
            "ticks": 150912,
            "time": 174.408291,
            "velocity": 1
          },
          {
            "duration": 0.4437870000000146,
            "durationTicks": 384,
            "midi": 59,
            "name": "B3",
            "ticks": 150912,
            "time": 174.408291,
            "velocity": 1
          },
          {
            "duration": 0.4437870000000146,
            "durationTicks": 384,
            "midi": 54,
            "name": "F#3",
            "ticks": 150912,
            "time": 174.408291,
            "velocity": 1
          },
          {
            "duration": 0.6656804999999792,
            "durationTicks": 576,
            "midi": 49,
            "name": "C#3",
            "ticks": 151296,
            "time": 174.852078,
            "velocity": 1
          },
          {
            "duration": 0.6656804999999792,
            "durationTicks": 576,
            "midi": 61,
            "name": "C#4",
            "ticks": 151296,
            "time": 174.852078,
            "velocity": 1
          },
          {
            "duration": 0.6656804999999792,
            "durationTicks": 576,
            "midi": 56,
            "name": "G#3",
            "ticks": 151296,
            "time": 174.852078,
            "velocity": 1
          },
          {
            "duration": 0.4437870000000146,
            "durationTicks": 384,
            "midi": 44,
            "name": "G#2",
            "ticks": 151872,
            "time": 175.51775849999999,
            "velocity": 1
          },
          {
            "duration": 0.4437870000000146,
            "durationTicks": 384,
            "midi": 56,
            "name": "G#3",
            "ticks": 151872,
            "time": 175.51775849999999,
            "velocity": 1
          },
          {
            "duration": 0.4437870000000146,
            "durationTicks": 384,
            "midi": 51,
            "name": "D#3",
            "ticks": 151872,
            "time": 175.51775849999999,
            "velocity": 1
          },
          {
            "duration": 0.22189349999999308,
            "durationTicks": 192,
            "midi": 44,
            "name": "G#2",
            "ticks": 152256,
            "time": 175.9615455,
            "velocity": 1
          },
          {
            "duration": 0.22189349999999308,
            "durationTicks": 192,
            "midi": 56,
            "name": "G#3",
            "ticks": 152256,
            "time": 175.9615455,
            "velocity": 1
          },
          {
            "duration": 0.22189349999999308,
            "durationTicks": 192,
            "midi": 51,
            "name": "D#3",
            "ticks": 152256,
            "time": 175.9615455,
            "velocity": 1
          },
          {
            "duration": 0.4437870000000146,
            "durationTicks": 384,
            "midi": 47,
            "name": "B2",
            "ticks": 152448,
            "time": 176.183439,
            "velocity": 1
          },
          {
            "duration": 0.4437870000000146,
            "durationTicks": 384,
            "midi": 59,
            "name": "B3",
            "ticks": 152448,
            "time": 176.183439,
            "velocity": 1
          },
          {
            "duration": 0.4437870000000146,
            "durationTicks": 384,
            "midi": 54,
            "name": "F#3",
            "ticks": 152448,
            "time": 176.183439,
            "velocity": 1
          },
          {
            "duration": 0.6656804999999792,
            "durationTicks": 576,
            "midi": 49,
            "name": "C#3",
            "ticks": 152832,
            "time": 176.627226,
            "velocity": 1
          },
          {
            "duration": 0.6656804999999792,
            "durationTicks": 576,
            "midi": 61,
            "name": "C#4",
            "ticks": 152832,
            "time": 176.627226,
            "velocity": 1
          },
          {
            "duration": 0.6656804999999792,
            "durationTicks": 576,
            "midi": 56,
            "name": "G#3",
            "ticks": 152832,
            "time": 176.627226,
            "velocity": 1
          },
          {
            "duration": 0.4437870000000146,
            "durationTicks": 384,
            "midi": 44,
            "name": "G#2",
            "ticks": 153408,
            "time": 177.2929065,
            "velocity": 1
          },
          {
            "duration": 0.4437870000000146,
            "durationTicks": 384,
            "midi": 56,
            "name": "G#3",
            "ticks": 153408,
            "time": 177.2929065,
            "velocity": 1
          },
          {
            "duration": 0.4437870000000146,
            "durationTicks": 384,
            "midi": 51,
            "name": "D#3",
            "ticks": 153408,
            "time": 177.2929065,
            "velocity": 1
          },
          {
            "duration": 0.22189349999999308,
            "durationTicks": 192,
            "midi": 44,
            "name": "G#2",
            "ticks": 153792,
            "time": 177.7366935,
            "velocity": 1
          },
          {
            "duration": 0.22189349999999308,
            "durationTicks": 192,
            "midi": 56,
            "name": "G#3",
            "ticks": 153792,
            "time": 177.7366935,
            "velocity": 1
          },
          {
            "duration": 0.22189349999999308,
            "durationTicks": 192,
            "midi": 51,
            "name": "D#3",
            "ticks": 153792,
            "time": 177.7366935,
            "velocity": 1
          },
          {
            "duration": 0.4437870000000146,
            "durationTicks": 384,
            "midi": 47,
            "name": "B2",
            "ticks": 153984,
            "time": 177.958587,
            "velocity": 1
          },
          {
            "duration": 0.4437870000000146,
            "durationTicks": 384,
            "midi": 59,
            "name": "B3",
            "ticks": 153984,
            "time": 177.958587,
            "velocity": 1
          },
          {
            "duration": 0.4437870000000146,
            "durationTicks": 384,
            "midi": 54,
            "name": "F#3",
            "ticks": 153984,
            "time": 177.958587,
            "velocity": 1
          },
          {
            "duration": 0.6656804999999792,
            "durationTicks": 576,
            "midi": 49,
            "name": "C#3",
            "ticks": 154368,
            "time": 178.402374,
            "velocity": 1
          },
          {
            "duration": 0.6656804999999792,
            "durationTicks": 576,
            "midi": 61,
            "name": "C#4",
            "ticks": 154368,
            "time": 178.402374,
            "velocity": 1
          },
          {
            "duration": 0.6656804999999792,
            "durationTicks": 576,
            "midi": 56,
            "name": "G#3",
            "ticks": 154368,
            "time": 178.402374,
            "velocity": 1
          },
          {
            "duration": 0.4437870000000146,
            "durationTicks": 384,
            "midi": 44,
            "name": "G#2",
            "ticks": 154944,
            "time": 179.0680545,
            "velocity": 1
          },
          {
            "duration": 0.4437870000000146,
            "durationTicks": 384,
            "midi": 56,
            "name": "G#3",
            "ticks": 154944,
            "time": 179.0680545,
            "velocity": 1
          },
          {
            "duration": 0.4437870000000146,
            "durationTicks": 384,
            "midi": 51,
            "name": "D#3",
            "ticks": 154944,
            "time": 179.0680545,
            "velocity": 1
          },
          {
            "duration": 0.22189349999999308,
            "durationTicks": 192,
            "midi": 44,
            "name": "G#2",
            "ticks": 155328,
            "time": 179.5118415,
            "velocity": 1
          },
          {
            "duration": 0.22189349999999308,
            "durationTicks": 192,
            "midi": 56,
            "name": "G#3",
            "ticks": 155328,
            "time": 179.5118415,
            "velocity": 1
          },
          {
            "duration": 0.22189349999999308,
            "durationTicks": 192,
            "midi": 51,
            "name": "D#3",
            "ticks": 155328,
            "time": 179.5118415,
            "velocity": 1
          },
          {
            "duration": 0.44378699999998616,
            "durationTicks": 384,
            "midi": 47,
            "name": "B2",
            "ticks": 155520,
            "time": 179.733735,
            "velocity": 1
          },
          {
            "duration": 0.44378699999998616,
            "durationTicks": 384,
            "midi": 59,
            "name": "B3",
            "ticks": 155520,
            "time": 179.733735,
            "velocity": 1
          },
          {
            "duration": 0.44378699999998616,
            "durationTicks": 384,
            "midi": 54,
            "name": "F#3",
            "ticks": 155520,
            "time": 179.733735,
            "velocity": 1
          },
          {
            "duration": 0.6656805000000077,
            "durationTicks": 576,
            "midi": 49,
            "name": "C#3",
            "ticks": 155904,
            "time": 180.17752199999998,
            "velocity": 1
          },
          {
            "duration": 0.6656805000000077,
            "durationTicks": 576,
            "midi": 61,
            "name": "C#4",
            "ticks": 155904,
            "time": 180.17752199999998,
            "velocity": 1
          },
          {
            "duration": 0.6656805000000077,
            "durationTicks": 576,
            "midi": 56,
            "name": "G#3",
            "ticks": 155904,
            "time": 180.17752199999998,
            "velocity": 1
          },
          {
            "duration": 0.4437870000000146,
            "durationTicks": 384,
            "midi": 44,
            "name": "G#2",
            "ticks": 156480,
            "time": 180.8432025,
            "velocity": 1
          },
          {
            "duration": 0.4437870000000146,
            "durationTicks": 384,
            "midi": 56,
            "name": "G#3",
            "ticks": 156480,
            "time": 180.8432025,
            "velocity": 1
          },
          {
            "duration": 0.4437870000000146,
            "durationTicks": 384,
            "midi": 51,
            "name": "D#3",
            "ticks": 156480,
            "time": 180.8432025,
            "velocity": 1
          },
          {
            "duration": 0.22189349999999308,
            "durationTicks": 192,
            "midi": 44,
            "name": "G#2",
            "ticks": 156864,
            "time": 181.2869895,
            "velocity": 1
          },
          {
            "duration": 0.22189349999999308,
            "durationTicks": 192,
            "midi": 56,
            "name": "G#3",
            "ticks": 156864,
            "time": 181.2869895,
            "velocity": 1
          },
          {
            "duration": 0.22189349999999308,
            "durationTicks": 192,
            "midi": 51,
            "name": "D#3",
            "ticks": 156864,
            "time": 181.2869895,
            "velocity": 1
          },
          {
            "duration": 0.44378699999998616,
            "durationTicks": 384,
            "midi": 47,
            "name": "B2",
            "ticks": 157056,
            "time": 181.508883,
            "velocity": 1
          },
          {
            "duration": 0.44378699999998616,
            "durationTicks": 384,
            "midi": 59,
            "name": "B3",
            "ticks": 157056,
            "time": 181.508883,
            "velocity": 1
          },
          {
            "duration": 0.44378699999998616,
            "durationTicks": 384,
            "midi": 54,
            "name": "F#3",
            "ticks": 157056,
            "time": 181.508883,
            "velocity": 1
          },
          {
            "duration": 0.6656805000000077,
            "durationTicks": 576,
            "midi": 49,
            "name": "C#3",
            "ticks": 157440,
            "time": 181.95266999999998,
            "velocity": 1
          },
          {
            "duration": 0.6656805000000077,
            "durationTicks": 576,
            "midi": 61,
            "name": "C#4",
            "ticks": 157440,
            "time": 181.95266999999998,
            "velocity": 1
          },
          {
            "duration": 0.6656805000000077,
            "durationTicks": 576,
            "midi": 56,
            "name": "G#3",
            "ticks": 157440,
            "time": 181.95266999999998,
            "velocity": 1
          },
          {
            "duration": 0.4437870000000146,
            "durationTicks": 384,
            "midi": 44,
            "name": "G#2",
            "ticks": 158016,
            "time": 182.6183505,
            "velocity": 1
          },
          {
            "duration": 0.4437870000000146,
            "durationTicks": 384,
            "midi": 56,
            "name": "G#3",
            "ticks": 158016,
            "time": 182.6183505,
            "velocity": 1
          },
          {
            "duration": 0.4437870000000146,
            "durationTicks": 384,
            "midi": 51,
            "name": "D#3",
            "ticks": 158016,
            "time": 182.6183505,
            "velocity": 1
          },
          {
            "duration": 0.22189349999999308,
            "durationTicks": 192,
            "midi": 44,
            "name": "G#2",
            "ticks": 158400,
            "time": 183.0621375,
            "velocity": 1
          },
          {
            "duration": 0.22189349999999308,
            "durationTicks": 192,
            "midi": 56,
            "name": "G#3",
            "ticks": 158400,
            "time": 183.0621375,
            "velocity": 1
          },
          {
            "duration": 0.22189349999999308,
            "durationTicks": 192,
            "midi": 51,
            "name": "D#3",
            "ticks": 158400,
            "time": 183.0621375,
            "velocity": 1
          },
          {
            "duration": 0.44378699999998616,
            "durationTicks": 384,
            "midi": 47,
            "name": "B2",
            "ticks": 158592,
            "time": 183.284031,
            "velocity": 1
          },
          {
            "duration": 0.44378699999998616,
            "durationTicks": 384,
            "midi": 59,
            "name": "B3",
            "ticks": 158592,
            "time": 183.284031,
            "velocity": 1
          },
          {
            "duration": 0.44378699999998616,
            "durationTicks": 384,
            "midi": 54,
            "name": "F#3",
            "ticks": 158592,
            "time": 183.284031,
            "velocity": 1
          },
          {
            "duration": 0.6656805000000077,
            "durationTicks": 576,
            "midi": 49,
            "name": "C#3",
            "ticks": 158976,
            "time": 183.72781799999998,
            "velocity": 1
          },
          {
            "duration": 0.6656805000000077,
            "durationTicks": 576,
            "midi": 61,
            "name": "C#4",
            "ticks": 158976,
            "time": 183.72781799999998,
            "velocity": 1
          },
          {
            "duration": 0.6656805000000077,
            "durationTicks": 576,
            "midi": 56,
            "name": "G#3",
            "ticks": 158976,
            "time": 183.72781799999998,
            "velocity": 1
          },
          {
            "duration": 0.4437870000000146,
            "durationTicks": 384,
            "midi": 44,
            "name": "G#2",
            "ticks": 159552,
            "time": 184.3934985,
            "velocity": 1
          },
          {
            "duration": 0.4437870000000146,
            "durationTicks": 384,
            "midi": 56,
            "name": "G#3",
            "ticks": 159552,
            "time": 184.3934985,
            "velocity": 1
          },
          {
            "duration": 0.4437870000000146,
            "durationTicks": 384,
            "midi": 51,
            "name": "D#3",
            "ticks": 159552,
            "time": 184.3934985,
            "velocity": 1
          },
          {
            "duration": 0.22189349999999308,
            "durationTicks": 192,
            "midi": 44,
            "name": "G#2",
            "ticks": 159936,
            "time": 184.8372855,
            "velocity": 1
          },
          {
            "duration": 0.22189349999999308,
            "durationTicks": 192,
            "midi": 56,
            "name": "G#3",
            "ticks": 159936,
            "time": 184.8372855,
            "velocity": 1
          },
          {
            "duration": 0.22189349999999308,
            "durationTicks": 192,
            "midi": 51,
            "name": "D#3",
            "ticks": 159936,
            "time": 184.8372855,
            "velocity": 1
          },
          {
            "duration": 0.44378699999998616,
            "durationTicks": 384,
            "midi": 47,
            "name": "B2",
            "ticks": 160128,
            "time": 185.059179,
            "velocity": 1
          },
          {
            "duration": 0.44378699999998616,
            "durationTicks": 384,
            "midi": 59,
            "name": "B3",
            "ticks": 160128,
            "time": 185.059179,
            "velocity": 1
          },
          {
            "duration": 0.44378699999998616,
            "durationTicks": 384,
            "midi": 54,
            "name": "F#3",
            "ticks": 160128,
            "time": 185.059179,
            "velocity": 1
          },
          {
            "duration": 0.6656805000000077,
            "durationTicks": 576,
            "midi": 49,
            "name": "C#3",
            "ticks": 160512,
            "time": 185.502966,
            "velocity": 1
          },
          {
            "duration": 0.6656805000000077,
            "durationTicks": 576,
            "midi": 61,
            "name": "C#4",
            "ticks": 160512,
            "time": 185.502966,
            "velocity": 1
          },
          {
            "duration": 0.6656805000000077,
            "durationTicks": 576,
            "midi": 56,
            "name": "G#3",
            "ticks": 160512,
            "time": 185.502966,
            "velocity": 1
          },
          {
            "duration": 0.4437870000000146,
            "durationTicks": 384,
            "midi": 44,
            "name": "G#2",
            "ticks": 161088,
            "time": 186.1686465,
            "velocity": 1
          },
          {
            "duration": 0.4437870000000146,
            "durationTicks": 384,
            "midi": 56,
            "name": "G#3",
            "ticks": 161088,
            "time": 186.1686465,
            "velocity": 1
          },
          {
            "duration": 0.4437870000000146,
            "durationTicks": 384,
            "midi": 51,
            "name": "D#3",
            "ticks": 161088,
            "time": 186.1686465,
            "velocity": 1
          },
          {
            "duration": 0.22189349999999308,
            "durationTicks": 192,
            "midi": 44,
            "name": "G#2",
            "ticks": 161472,
            "time": 186.6124335,
            "velocity": 1
          },
          {
            "duration": 0.22189349999999308,
            "durationTicks": 192,
            "midi": 56,
            "name": "G#3",
            "ticks": 161472,
            "time": 186.6124335,
            "velocity": 1
          },
          {
            "duration": 0.22189349999999308,
            "durationTicks": 192,
            "midi": 51,
            "name": "D#3",
            "ticks": 161472,
            "time": 186.6124335,
            "velocity": 1
          },
          {
            "duration": 0.44378699999998616,
            "durationTicks": 384,
            "midi": 47,
            "name": "B2",
            "ticks": 161664,
            "time": 186.834327,
            "velocity": 1
          },
          {
            "duration": 0.44378699999998616,
            "durationTicks": 384,
            "midi": 59,
            "name": "B3",
            "ticks": 161664,
            "time": 186.834327,
            "velocity": 1
          },
          {
            "duration": 0.44378699999998616,
            "durationTicks": 384,
            "midi": 54,
            "name": "F#3",
            "ticks": 161664,
            "time": 186.834327,
            "velocity": 1
          },
          {
            "duration": 0.6656805000000077,
            "durationTicks": 576,
            "midi": 49,
            "name": "C#3",
            "ticks": 162048,
            "time": 187.278114,
            "velocity": 1
          },
          {
            "duration": 0.6656805000000077,
            "durationTicks": 576,
            "midi": 61,
            "name": "C#4",
            "ticks": 162048,
            "time": 187.278114,
            "velocity": 1
          },
          {
            "duration": 0.6656805000000077,
            "durationTicks": 576,
            "midi": 56,
            "name": "G#3",
            "ticks": 162048,
            "time": 187.278114,
            "velocity": 1
          },
          {
            "duration": 0.22189349999999308,
            "durationTicks": 192,
            "midi": 44,
            "name": "G#2",
            "ticks": 162624,
            "time": 187.9437945,
            "velocity": 1
          },
          {
            "duration": 0.22189349999999308,
            "durationTicks": 192,
            "midi": 56,
            "name": "G#3",
            "ticks": 162624,
            "time": 187.9437945,
            "velocity": 1
          },
          {
            "duration": 0.22189349999999308,
            "durationTicks": 192,
            "midi": 51,
            "name": "D#3",
            "ticks": 162624,
            "time": 187.9437945,
            "velocity": 1
          },
          {
            "duration": 7.100592000000006,
            "durationTicks": 6144,
            "midi": 44,
            "name": "G#2",
            "ticks": 162816,
            "time": 188.165688,
            "velocity": 1
          },
          {
            "duration": 7.100592000000006,
            "durationTicks": 6144,
            "midi": 56,
            "name": "G#3",
            "ticks": 162816,
            "time": 188.165688,
            "velocity": 1
          },
          {
            "duration": 7.100592000000006,
            "durationTicks": 6144,
            "midi": 51,
            "name": "D#3",
            "ticks": 162816,
            "time": 188.165688,
            "velocity": 1
          }
        ]
      },
      {
        "channel": 0,
        "controlChanges": {
          "0": [
            {
              "number": 0,
              "ticks": 0,
              "time": 0,
              "value": 0
            }
          ],
          "32": [
            {
              "number": 32,
              "ticks": 0,
              "time": 0,
              "value": 0
            }
          ]
        },
        "pitchBends": [],
        "instrument": {
          "family": "piano",
          "name": "acoustic grand piano",
          "number": 0
        },
        "name": "",
        "notes": [],
        "endOfTrackTicks": 162624
      },
      {
        "channel": 1,
        "controlChanges": {
          "7": [
            {
              "number": 7,
              "ticks": 0,
              "time": 0,
              "value": 1
            },
            {
              "number": 7,
              "ticks": 2304,
              "time": 2.662722,
              "value": 1
            }
          ],
          "10": [
            {
              "number": 10,
              "ticks": 0,
              "time": 0,
              "value": 0.49606299212598426
            }
          ]
        },
        "pitchBends": [],
        "instrument": {
          "family": "guitar",
          "name": "overdriven guitar",
          "number": 29
        },
        "name": "",
        "notes": [
          {
            "duration": 0.22189349999999974,
            "durationTicks": 192,
            "midi": 61,
            "name": "C#4",
            "ticks": 2304,
            "time": 2.662722,
            "velocity": 1
          },
          {
            "duration": 0.6703032812499998,
            "durationTicks": 580,
            "midi": 59,
            "name": "B3",
            "ticks": 2496,
            "time": 2.8846154999999998,
            "velocity": 1
          },
          {
            "duration": 0.2218935000000002,
            "durationTicks": 192,
            "midi": 56,
            "name": "G#3",
            "ticks": 15168,
            "time": 17.5295865,
            "velocity": 1
          },
          {
            "duration": 0.2218935000000002,
            "durationTicks": 192,
            "midi": 56,
            "name": "G#3",
            "ticks": 15360,
            "time": 17.75148,
            "velocity": 1
          },
          {
            "duration": 0.2218935000000002,
            "durationTicks": 192,
            "midi": 56,
            "name": "G#3",
            "ticks": 15552,
            "time": 17.9733735,
            "velocity": 1
          },
          {
            "duration": 0.22189349999999664,
            "durationTicks": 192,
            "midi": 56,
            "name": "G#3",
            "ticks": 15744,
            "time": 18.195267,
            "velocity": 1
          },
          {
            "duration": 0.2218935000000002,
            "durationTicks": 192,
            "midi": 56,
            "name": "G#3",
            "ticks": 15936,
            "time": 18.417160499999998,
            "velocity": 1
          },
          {
            "duration": 0.4437870000000004,
            "durationTicks": 384,
            "midi": 56,
            "name": "G#3",
            "ticks": 16128,
            "time": 18.639053999999998,
            "velocity": 1
          },
          {
            "duration": 0.2218935000000002,
            "durationTicks": 192,
            "midi": 56,
            "name": "G#3",
            "ticks": 16512,
            "time": 19.082841,
            "velocity": 1
          },
          {
            "duration": 0.2218935000000002,
            "durationTicks": 192,
            "midi": 56,
            "name": "G#3",
            "ticks": 16704,
            "time": 19.3047345,
            "velocity": 1
          },
          {
            "duration": 0.4437870000000004,
            "durationTicks": 384,
            "midi": 56,
            "name": "G#3",
            "ticks": 16896,
            "time": 19.526628,
            "velocity": 1
          },
          {
            "duration": 0.2218935000000002,
            "durationTicks": 192,
            "midi": 56,
            "name": "G#3",
            "ticks": 17280,
            "time": 19.970415,
            "velocity": 1
          },
          {
            "duration": 0.2218935000000002,
            "durationTicks": 192,
            "midi": 56,
            "name": "G#3",
            "ticks": 17472,
            "time": 20.1923085,
            "velocity": 1
          },
          {
            "duration": 4.2159765,
            "durationTicks": 3648,
            "midi": 56,
            "name": "G#3",
            "ticks": 17664,
            "time": 20.414202,
            "velocity": 1
          },
          {
            "duration": 0.2218935000000002,
            "durationTicks": 192,
            "midi": 56,
            "name": "G#3",
            "ticks": 21312,
            "time": 24.6301785,
            "velocity": 1
          },
          {
            "duration": 0.2218935000000002,
            "durationTicks": 192,
            "midi": 56,
            "name": "G#3",
            "ticks": 21504,
            "time": 24.852072,
            "velocity": 1
          },
          {
            "duration": 0.2218935000000002,
            "durationTicks": 192,
            "midi": 56,
            "name": "G#3",
            "ticks": 21696,
            "time": 25.0739655,
            "velocity": 1
          },
          {
            "duration": 0.2218935000000002,
            "durationTicks": 192,
            "midi": 56,
            "name": "G#3",
            "ticks": 21888,
            "time": 25.295859,
            "velocity": 1
          },
          {
            "duration": 0.2218935000000002,
            "durationTicks": 192,
            "midi": 56,
            "name": "G#3",
            "ticks": 22080,
            "time": 25.5177525,
            "velocity": 1
          },
          {
            "duration": 0.4437870000000004,
            "durationTicks": 384,
            "midi": 56,
            "name": "G#3",
            "ticks": 22272,
            "time": 25.739646,
            "velocity": 1
          },
          {
            "duration": 0.22189349999999664,
            "durationTicks": 192,
            "midi": 56,
            "name": "G#3",
            "ticks": 22656,
            "time": 26.183433,
            "velocity": 1
          },
          {
            "duration": 0.2218935000000002,
            "durationTicks": 192,
            "midi": 56,
            "name": "G#3",
            "ticks": 22848,
            "time": 26.405326499999997,
            "velocity": 1
          },
          {
            "duration": 0.4437870000000004,
            "durationTicks": 384,
            "midi": 56,
            "name": "G#3",
            "ticks": 23040,
            "time": 26.627219999999998,
            "velocity": 1
          },
          {
            "duration": 0.4437870000000004,
            "durationTicks": 384,
            "midi": 56,
            "name": "G#3",
            "ticks": 23424,
            "time": 27.071006999999998,
            "velocity": 1
          },
          {
            "duration": 4.2159765,
            "durationTicks": 3648,
            "midi": 56,
            "name": "G#3",
            "ticks": 23808,
            "time": 27.514794,
            "velocity": 1
          },
          {
            "duration": 0.2218935000000002,
            "durationTicks": 192,
            "midi": 56,
            "name": "G#3",
            "ticks": 27456,
            "time": 31.7307705,
            "velocity": 1
          },
          {
            "duration": 0.2218935000000002,
            "durationTicks": 192,
            "midi": 56,
            "name": "G#3",
            "ticks": 27648,
            "time": 31.952664,
            "velocity": 1
          },
          {
            "duration": 0.2218935000000002,
            "durationTicks": 192,
            "midi": 56,
            "name": "G#3",
            "ticks": 27840,
            "time": 32.1745575,
            "velocity": 1
          },
          {
            "duration": 0.2218935000000002,
            "durationTicks": 192,
            "midi": 56,
            "name": "G#3",
            "ticks": 28032,
            "time": 32.396451,
            "velocity": 1
          },
          {
            "duration": 0.2218935000000002,
            "durationTicks": 192,
            "midi": 56,
            "name": "G#3",
            "ticks": 28224,
            "time": 32.6183445,
            "velocity": 1
          },
          {
            "duration": 0.4437870000000004,
            "durationTicks": 384,
            "midi": 56,
            "name": "G#3",
            "ticks": 28416,
            "time": 32.840238,
            "velocity": 1
          },
          {
            "duration": 0.2218935000000002,
            "durationTicks": 192,
            "midi": 56,
            "name": "G#3",
            "ticks": 28800,
            "time": 33.284025,
            "velocity": 1
          },
          {
            "duration": 0.2218935000000002,
            "durationTicks": 192,
            "midi": 56,
            "name": "G#3",
            "ticks": 28992,
            "time": 33.5059185,
            "velocity": 1
          },
          {
            "duration": 0.4437870000000004,
            "durationTicks": 384,
            "midi": 56,
            "name": "G#3",
            "ticks": 29184,
            "time": 33.727812,
            "velocity": 1
          },
          {
            "duration": 0.4437870000000004,
            "durationTicks": 384,
            "midi": 56,
            "name": "G#3",
            "ticks": 29568,
            "time": 34.171599,
            "velocity": 1
          },
          {
            "duration": 4.2159764999999965,
            "durationTicks": 3648,
            "midi": 56,
            "name": "G#3",
            "ticks": 29952,
            "time": 34.615386,
            "velocity": 1
          },
          {
            "duration": 0.2218935000000002,
            "durationTicks": 192,
            "midi": 56,
            "name": "G#3",
            "ticks": 33600,
            "time": 38.8313625,
            "velocity": 1
          },
          {
            "duration": 0.2218935000000002,
            "durationTicks": 192,
            "midi": 56,
            "name": "G#3",
            "ticks": 33792,
            "time": 39.053256,
            "velocity": 1
          },
          {
            "duration": 0.2218935000000002,
            "durationTicks": 192,
            "midi": 56,
            "name": "G#3",
            "ticks": 33984,
            "time": 39.2751495,
            "velocity": 1
          },
          {
            "duration": 0.2218935000000002,
            "durationTicks": 192,
            "midi": 56,
            "name": "G#3",
            "ticks": 34176,
            "time": 39.497043,
            "velocity": 1
          },
          {
            "duration": 0.2218935000000002,
            "durationTicks": 192,
            "midi": 56,
            "name": "G#3",
            "ticks": 34368,
            "time": 39.7189365,
            "velocity": 1
          },
          {
            "duration": 0.4437870000000004,
            "durationTicks": 384,
            "midi": 56,
            "name": "G#3",
            "ticks": 34560,
            "time": 39.94083,
            "velocity": 1
          },
          {
            "duration": 0.2218935000000002,
            "durationTicks": 192,
            "midi": 56,
            "name": "G#3",
            "ticks": 34944,
            "time": 40.384617,
            "velocity": 1
          },
          {
            "duration": 0.2218935000000002,
            "durationTicks": 192,
            "midi": 56,
            "name": "G#3",
            "ticks": 35136,
            "time": 40.6065105,
            "velocity": 1
          },
          {
            "duration": 0.4437870000000004,
            "durationTicks": 384,
            "midi": 56,
            "name": "G#3",
            "ticks": 35328,
            "time": 40.828404,
            "velocity": 1
          },
          {
            "duration": 0.4437870000000004,
            "durationTicks": 384,
            "midi": 56,
            "name": "G#3",
            "ticks": 35712,
            "time": 41.272191,
            "velocity": 1
          },
          {
            "duration": 3.550295999999996,
            "durationTicks": 3072,
            "midi": 56,
            "name": "G#3",
            "ticks": 36096,
            "time": 41.715978,
            "velocity": 1
          },
          {
            "duration": 0.2218935000000002,
            "durationTicks": 192,
            "midi": 56,
            "name": "G#3",
            "ticks": 39168,
            "time": 45.266273999999996,
            "velocity": 1
          },
          {
            "duration": 0.2218935000000002,
            "durationTicks": 192,
            "midi": 56,
            "name": "G#3",
            "ticks": 39360,
            "time": 45.488167499999996,
            "velocity": 1
          },
          {
            "duration": 0.2218935000000002,
            "durationTicks": 192,
            "midi": 54,
            "name": "F#3",
            "ticks": 39552,
            "time": 45.710060999999996,
            "velocity": 1
          },
          {
            "duration": 1.3313610000000011,
            "durationTicks": 1152,
            "midi": 56,
            "name": "G#3",
            "ticks": 39744,
            "time": 45.931954499999996,
            "velocity": 1
          },
          {
            "duration": 0.2218935000000002,
            "durationTicks": 192,
            "midi": 56,
            "name": "G#3",
            "ticks": 40896,
            "time": 47.2633155,
            "velocity": 1
          },
          {
            "duration": 0.2218935000000002,
            "durationTicks": 192,
            "midi": 54,
            "name": "F#3",
            "ticks": 41088,
            "time": 47.485209,
            "velocity": 1
          },
          {
            "duration": 1.5532545000000013,
            "durationTicks": 1344,
            "midi": 56,
            "name": "G#3",
            "ticks": 41280,
            "time": 47.7071025,
            "velocity": 1
          },
          {
            "duration": 0.2218935000000002,
            "durationTicks": 192,
            "midi": 56,
            "name": "G#3",
            "ticks": 42624,
            "time": 49.260357,
            "velocity": 1
          },
          {
            "duration": 1.7751480000000015,
            "durationTicks": 1536,
            "midi": 54,
            "name": "F#3",
            "ticks": 42816,
            "time": 49.4822505,
            "velocity": 1
          },
          {
            "duration": 5.325443999999997,
            "durationTicks": 4608,
            "midi": 56,
            "name": "G#3",
            "ticks": 44352,
            "time": 51.2573985,
            "velocity": 1
          },
          {
            "duration": 0.2218935000000002,
            "durationTicks": 192,
            "midi": 56,
            "name": "G#3",
            "ticks": 48960,
            "time": 56.5828425,
            "velocity": 1
          },
          {
            "duration": 0.2218935000000002,
            "durationTicks": 192,
            "midi": 56,
            "name": "G#3",
            "ticks": 49152,
            "time": 56.804736,
            "velocity": 1
          },
          {
            "duration": 0.2218935000000002,
            "durationTicks": 192,
            "midi": 56,
            "name": "G#3",
            "ticks": 49344,
            "time": 57.0266295,
            "velocity": 1
          },
          {
            "duration": 0.2218935000000002,
            "durationTicks": 192,
            "midi": 56,
            "name": "G#3",
            "ticks": 49536,
            "time": 57.248523,
            "velocity": 1
          },
          {
            "duration": 0.2218935000000002,
            "durationTicks": 192,
            "midi": 56,
            "name": "G#3",
            "ticks": 49728,
            "time": 57.4704165,
            "velocity": 1
          },
          {
            "duration": 0.4437870000000004,
            "durationTicks": 384,
            "midi": 56,
            "name": "G#3",
            "ticks": 49920,
            "time": 57.69231,
            "velocity": 1
          },
          {
            "duration": 0.2218935000000002,
            "durationTicks": 192,
            "midi": 56,
            "name": "G#3",
            "ticks": 50304,
            "time": 58.136097,
            "velocity": 1
          },
          {
            "duration": 0.2218935000000002,
            "durationTicks": 192,
            "midi": 56,
            "name": "G#3",
            "ticks": 50496,
            "time": 58.3579905,
            "velocity": 1
          },
          {
            "duration": 0.4437870000000004,
            "durationTicks": 384,
            "midi": 56,
            "name": "G#3",
            "ticks": 50688,
            "time": 58.579884,
            "velocity": 1
          },
          {
            "duration": 0.4437870000000004,
            "durationTicks": 384,
            "midi": 56,
            "name": "G#3",
            "ticks": 51072,
            "time": 59.023671,
            "velocity": 1
          },
          {
            "duration": 4.2159764999999965,
            "durationTicks": 3648,
            "midi": 56,
            "name": "G#3",
            "ticks": 51456,
            "time": 59.467458,
            "velocity": 1
          },
          {
            "duration": 0.2218935000000002,
            "durationTicks": 192,
            "midi": 56,
            "name": "G#3",
            "ticks": 55104,
            "time": 63.6834345,
            "velocity": 1
          },
          {
            "duration": 0.2218935000000073,
            "durationTicks": 192,
            "midi": 56,
            "name": "G#3",
            "ticks": 55296,
            "time": 63.905328,
            "velocity": 1
          },
          {
            "duration": 0.22189349999999308,
            "durationTicks": 192,
            "midi": 56,
            "name": "G#3",
            "ticks": 55488,
            "time": 64.1272215,
            "velocity": 1
          },
          {
            "duration": 0.2218935000000073,
            "durationTicks": 192,
            "midi": 56,
            "name": "G#3",
            "ticks": 55680,
            "time": 64.349115,
            "velocity": 1
          },
          {
            "duration": 0.22189349999999308,
            "durationTicks": 192,
            "midi": 56,
            "name": "G#3",
            "ticks": 55872,
            "time": 64.5710085,
            "velocity": 1
          },
          {
            "duration": 0.4437870000000004,
            "durationTicks": 384,
            "midi": 56,
            "name": "G#3",
            "ticks": 56064,
            "time": 64.792902,
            "velocity": 1
          },
          {
            "duration": 0.22189349999999308,
            "durationTicks": 192,
            "midi": 56,
            "name": "G#3",
            "ticks": 56448,
            "time": 65.236689,
            "velocity": 1
          },
          {
            "duration": 0.2218935000000073,
            "durationTicks": 192,
            "midi": 56,
            "name": "G#3",
            "ticks": 56640,
            "time": 65.45858249999999,
            "velocity": 1
          },
          {
            "duration": 0.4437870000000004,
            "durationTicks": 384,
            "midi": 56,
            "name": "G#3",
            "ticks": 56832,
            "time": 65.680476,
            "velocity": 1
          },
          {
            "duration": 0.4437870000000004,
            "durationTicks": 384,
            "midi": 56,
            "name": "G#3",
            "ticks": 57216,
            "time": 66.124263,
            "velocity": 1
          },
          {
            "duration": 4.2159764999999965,
            "durationTicks": 3648,
            "midi": 56,
            "name": "G#3",
            "ticks": 57600,
            "time": 66.56805,
            "velocity": 1
          },
          {
            "duration": 0.2218935000000073,
            "durationTicks": 192,
            "midi": 56,
            "name": "G#3",
            "ticks": 61248,
            "time": 70.7840265,
            "velocity": 1
          },
          {
            "duration": 0.22189349999999308,
            "durationTicks": 192,
            "midi": 56,
            "name": "G#3",
            "ticks": 61440,
            "time": 71.00592,
            "velocity": 1
          },
          {
            "duration": 0.2218935000000073,
            "durationTicks": 192,
            "midi": 56,
            "name": "G#3",
            "ticks": 61632,
            "time": 71.2278135,
            "velocity": 1
          },
          {
            "duration": 0.22189349999999308,
            "durationTicks": 192,
            "midi": 56,
            "name": "G#3",
            "ticks": 61824,
            "time": 71.449707,
            "velocity": 1
          },
          {
            "duration": 0.2218935000000073,
            "durationTicks": 192,
            "midi": 56,
            "name": "G#3",
            "ticks": 62016,
            "time": 71.6716005,
            "velocity": 1
          },
          {
            "duration": 0.4437870000000004,
            "durationTicks": 384,
            "midi": 56,
            "name": "G#3",
            "ticks": 62208,
            "time": 71.893494,
            "velocity": 1
          },
          {
            "duration": 0.22189349999999308,
            "durationTicks": 192,
            "midi": 56,
            "name": "G#3",
            "ticks": 62592,
            "time": 72.337281,
            "velocity": 1
          },
          {
            "duration": 0.2218935000000073,
            "durationTicks": 192,
            "midi": 56,
            "name": "G#3",
            "ticks": 62784,
            "time": 72.5591745,
            "velocity": 1
          },
          {
            "duration": 0.44378699999998616,
            "durationTicks": 384,
            "midi": 56,
            "name": "G#3",
            "ticks": 62976,
            "time": 72.781068,
            "velocity": 1
          },
          {
            "duration": 0.4437870000000004,
            "durationTicks": 384,
            "midi": 56,
            "name": "G#3",
            "ticks": 63360,
            "time": 73.22485499999999,
            "velocity": 1
          },
          {
            "duration": 4.215976500000011,
            "durationTicks": 3648,
            "midi": 56,
            "name": "G#3",
            "ticks": 63744,
            "time": 73.66864199999999,
            "velocity": 1
          },
          {
            "duration": 0.22189349999999308,
            "durationTicks": 192,
            "midi": 56,
            "name": "G#3",
            "ticks": 67392,
            "time": 77.8846185,
            "velocity": 1
          },
          {
            "duration": 0.2218935000000073,
            "durationTicks": 192,
            "midi": 56,
            "name": "G#3",
            "ticks": 67584,
            "time": 78.106512,
            "velocity": 1
          },
          {
            "duration": 0.22189349999999308,
            "durationTicks": 192,
            "midi": 56,
            "name": "G#3",
            "ticks": 67776,
            "time": 78.3284055,
            "velocity": 1
          },
          {
            "duration": 0.2218935000000073,
            "durationTicks": 192,
            "midi": 56,
            "name": "G#3",
            "ticks": 67968,
            "time": 78.550299,
            "velocity": 1
          },
          {
            "duration": 0.22189349999999308,
            "durationTicks": 192,
            "midi": 56,
            "name": "G#3",
            "ticks": 68160,
            "time": 78.7721925,
            "velocity": 1
          },
          {
            "duration": 0.4437870000000004,
            "durationTicks": 384,
            "midi": 56,
            "name": "G#3",
            "ticks": 68352,
            "time": 78.994086,
            "velocity": 1
          },
          {
            "duration": 0.2218935000000073,
            "durationTicks": 192,
            "midi": 56,
            "name": "G#3",
            "ticks": 68736,
            "time": 79.437873,
            "velocity": 1
          },
          {
            "duration": 0.22189349999999308,
            "durationTicks": 192,
            "midi": 56,
            "name": "G#3",
            "ticks": 68928,
            "time": 79.6597665,
            "velocity": 1
          },
          {
            "duration": 0.4437870000000004,
            "durationTicks": 384,
            "midi": 56,
            "name": "G#3",
            "ticks": 69120,
            "time": 79.88166,
            "velocity": 1
          },
          {
            "duration": 0.4437870000000004,
            "durationTicks": 384,
            "midi": 56,
            "name": "G#3",
            "ticks": 69504,
            "time": 80.325447,
            "velocity": 1
          },
          {
            "duration": 3.550296000000003,
            "durationTicks": 3072,
            "midi": 56,
            "name": "G#3",
            "ticks": 69888,
            "time": 80.769234,
            "velocity": 1
          },
          {
            "duration": 0.22189349999999308,
            "durationTicks": 192,
            "midi": 56,
            "name": "G#3",
            "ticks": 72960,
            "time": 84.31953,
            "velocity": 1
          },
          {
            "duration": 0.2218935000000073,
            "durationTicks": 192,
            "midi": 56,
            "name": "G#3",
            "ticks": 73152,
            "time": 84.5414235,
            "velocity": 1
          },
          {
            "duration": 0.22189349999999308,
            "durationTicks": 192,
            "midi": 54,
            "name": "F#3",
            "ticks": 73344,
            "time": 84.763317,
            "velocity": 1
          },
          {
            "duration": 1.3313610000000011,
            "durationTicks": 1152,
            "midi": 56,
            "name": "G#3",
            "ticks": 73536,
            "time": 84.9852105,
            "velocity": 1
          },
          {
            "duration": 0.2218935000000073,
            "durationTicks": 192,
            "midi": 56,
            "name": "G#3",
            "ticks": 74688,
            "time": 86.3165715,
            "velocity": 1
          },
          {
            "duration": 0.22189349999999308,
            "durationTicks": 192,
            "midi": 54,
            "name": "F#3",
            "ticks": 74880,
            "time": 86.538465,
            "velocity": 1
          },
          {
            "duration": 1.5532545000000084,
            "durationTicks": 1344,
            "midi": 56,
            "name": "G#3",
            "ticks": 75072,
            "time": 86.7603585,
            "velocity": 1
          },
          {
            "duration": 0.22189349999999308,
            "durationTicks": 192,
            "midi": 56,
            "name": "G#3",
            "ticks": 76416,
            "time": 88.313613,
            "velocity": 1
          },
          {
            "duration": 1.7751480000000015,
            "durationTicks": 1536,
            "midi": 54,
            "name": "F#3",
            "ticks": 76608,
            "time": 88.5355065,
            "velocity": 1
          },
          {
            "duration": 5.3254440000000045,
            "durationTicks": 4608,
            "midi": 56,
            "name": "G#3",
            "ticks": 78144,
            "time": 90.3106545,
            "velocity": 1
          },
          {
            "duration": 6.434911499999998,
            "durationTicks": 5568,
            "midi": 56,
            "name": "G#3",
            "ticks": 82752,
            "time": 95.6360985,
            "velocity": 1
          },
          {
            "duration": 0.22189349999999308,
            "durationTicks": 192,
            "midi": 56,
            "name": "G#3",
            "ticks": 88320,
            "time": 102.07101,
            "velocity": 1
          },
          {
            "duration": 0.2218935000000073,
            "durationTicks": 192,
            "midi": 56,
            "name": "G#3",
            "ticks": 88512,
            "time": 102.2929035,
            "velocity": 1
          },
          {
            "duration": 0.22189349999999308,
            "durationTicks": 192,
            "midi": 54,
            "name": "F#3",
            "ticks": 88704,
            "time": 102.514797,
            "velocity": 1
          },
          {
            "duration": 14.423077500000005,
            "durationTicks": 12480,
            "midi": 56,
            "name": "G#3",
            "ticks": 88896,
            "time": 102.7366905,
            "velocity": 1
          },
          {
            "duration": 0.22189349999999308,
            "durationTicks": 192,
            "midi": 56,
            "name": "G#3",
            "ticks": 101376,
            "time": 117.159768,
            "velocity": 1
          },
          {
            "duration": 0.2218935000000073,
            "durationTicks": 192,
            "midi": 56,
            "name": "G#3",
            "ticks": 101568,
            "time": 117.38166149999999,
            "velocity": 1
          },
          {
            "duration": 0.22189349999999308,
            "durationTicks": 192,
            "midi": 56,
            "name": "G#3",
            "ticks": 101760,
            "time": 117.603555,
            "velocity": 1
          },
          {
            "duration": 0.2218935000000073,
            "durationTicks": 192,
            "midi": 56,
            "name": "G#3",
            "ticks": 101952,
            "time": 117.8254485,
            "velocity": 1
          },
          {
            "duration": 0.4437870000000004,
            "durationTicks": 384,
            "midi": 56,
            "name": "G#3",
            "ticks": 102144,
            "time": 118.047342,
            "velocity": 1
          },
          {
            "duration": 0.22189349999999308,
            "durationTicks": 192,
            "midi": 56,
            "name": "G#3",
            "ticks": 102528,
            "time": 118.491129,
            "velocity": 1
          },
          {
            "duration": 0.2218935000000073,
            "durationTicks": 192,
            "midi": 56,
            "name": "G#3",
            "ticks": 102720,
            "time": 118.7130225,
            "velocity": 1
          },
          {
            "duration": 0.4437870000000004,
            "durationTicks": 384,
            "midi": 56,
            "name": "G#3",
            "ticks": 102912,
            "time": 118.934916,
            "velocity": 1
          },
          {
            "duration": 0.22189349999999308,
            "durationTicks": 192,
            "midi": 56,
            "name": "G#3",
            "ticks": 103296,
            "time": 119.378703,
            "velocity": 1
          },
          {
            "duration": 0.2218935000000073,
            "durationTicks": 192,
            "midi": 56,
            "name": "G#3",
            "ticks": 103488,
            "time": 119.6005965,
            "velocity": 1
          },
          {
            "duration": 4.2159764999999965,
            "durationTicks": 3648,
            "midi": 56,
            "name": "G#3",
            "ticks": 103680,
            "time": 119.82249,
            "velocity": 1
          },
          {
            "duration": 0.22189349999999308,
            "durationTicks": 192,
            "midi": 56,
            "name": "G#3",
            "ticks": 107328,
            "time": 124.0384665,
            "velocity": 1
          },
          {
            "duration": 0.2218935000000073,
            "durationTicks": 192,
            "midi": 56,
            "name": "G#3",
            "ticks": 107520,
            "time": 124.26035999999999,
            "velocity": 1
          },
          {
            "duration": 0.22189349999999308,
            "durationTicks": 192,
            "midi": 56,
            "name": "G#3",
            "ticks": 107712,
            "time": 124.4822535,
            "velocity": 1
          },
          {
            "duration": 0.2218935000000073,
            "durationTicks": 192,
            "midi": 56,
            "name": "G#3",
            "ticks": 107904,
            "time": 124.70414699999999,
            "velocity": 1
          },
          {
            "duration": 0.22189349999999308,
            "durationTicks": 192,
            "midi": 56,
            "name": "G#3",
            "ticks": 108096,
            "time": 124.9260405,
            "velocity": 1
          },
          {
            "duration": 0.4437870000000004,
            "durationTicks": 384,
            "midi": 56,
            "name": "G#3",
            "ticks": 108288,
            "time": 125.14793399999999,
            "velocity": 1
          },
          {
            "duration": 0.2218935000000073,
            "durationTicks": 192,
            "midi": 56,
            "name": "G#3",
            "ticks": 108672,
            "time": 125.59172099999999,
            "velocity": 1
          },
          {
            "duration": 0.22189349999999308,
            "durationTicks": 192,
            "midi": 56,
            "name": "G#3",
            "ticks": 108864,
            "time": 125.8136145,
            "velocity": 1
          },
          {
            "duration": 0.4437870000000004,
            "durationTicks": 384,
            "midi": 56,
            "name": "G#3",
            "ticks": 109056,
            "time": 126.035508,
            "velocity": 1
          },
          {
            "duration": 0.4437870000000004,
            "durationTicks": 384,
            "midi": 56,
            "name": "G#3",
            "ticks": 109440,
            "time": 126.479295,
            "velocity": 1
          },
          {
            "duration": 4.215976500000011,
            "durationTicks": 3648,
            "midi": 56,
            "name": "G#3",
            "ticks": 109824,
            "time": 126.923082,
            "velocity": 1
          },
          {
            "duration": 0.22189349999999308,
            "durationTicks": 192,
            "midi": 56,
            "name": "G#3",
            "ticks": 113472,
            "time": 131.1390585,
            "velocity": 1
          },
          {
            "duration": 0.22189349999999308,
            "durationTicks": 192,
            "midi": 56,
            "name": "G#3",
            "ticks": 113664,
            "time": 131.360952,
            "velocity": 1
          },
          {
            "duration": 0.22189349999999308,
            "durationTicks": 192,
            "midi": 56,
            "name": "G#3",
            "ticks": 113856,
            "time": 131.5828455,
            "velocity": 1
          },
          {
            "duration": 0.2218935000000215,
            "durationTicks": 192,
            "midi": 56,
            "name": "G#3",
            "ticks": 114048,
            "time": 131.80473899999998,
            "velocity": 1
          },
          {
            "duration": 0.22189349999999308,
            "durationTicks": 192,
            "midi": 56,
            "name": "G#3",
            "ticks": 114240,
            "time": 132.0266325,
            "velocity": 1
          },
          {
            "duration": 0.44378699999998616,
            "durationTicks": 384,
            "midi": 56,
            "name": "G#3",
            "ticks": 114432,
            "time": 132.248526,
            "velocity": 1
          },
          {
            "duration": 0.2218935000000215,
            "durationTicks": 192,
            "midi": 56,
            "name": "G#3",
            "ticks": 114816,
            "time": 132.69231299999998,
            "velocity": 1
          },
          {
            "duration": 0.22189349999999308,
            "durationTicks": 192,
            "midi": 56,
            "name": "G#3",
            "ticks": 115008,
            "time": 132.9142065,
            "velocity": 1
          },
          {
            "duration": 0.44378699999998616,
            "durationTicks": 384,
            "midi": 56,
            "name": "G#3",
            "ticks": 115200,
            "time": 133.1361,
            "velocity": 1
          },
          {
            "duration": 0.4437870000000146,
            "durationTicks": 384,
            "midi": 56,
            "name": "G#3",
            "ticks": 115584,
            "time": 133.57988699999999,
            "velocity": 1
          },
          {
            "duration": 4.215976499999982,
            "durationTicks": 3648,
            "midi": 56,
            "name": "G#3",
            "ticks": 115968,
            "time": 134.023674,
            "velocity": 1
          },
          {
            "duration": 0.2218935000000215,
            "durationTicks": 192,
            "midi": 56,
            "name": "G#3",
            "ticks": 119616,
            "time": 138.23965049999998,
            "velocity": 1
          },
          {
            "duration": 0.22189349999999308,
            "durationTicks": 192,
            "midi": 56,
            "name": "G#3",
            "ticks": 119808,
            "time": 138.461544,
            "velocity": 1
          },
          {
            "duration": 0.22189349999999308,
            "durationTicks": 192,
            "midi": 56,
            "name": "G#3",
            "ticks": 120000,
            "time": 138.6834375,
            "velocity": 1
          },
          {
            "duration": 0.22189349999999308,
            "durationTicks": 192,
            "midi": 56,
            "name": "G#3",
            "ticks": 120192,
            "time": 138.905331,
            "velocity": 1
          },
          {
            "duration": 0.2218935000000215,
            "durationTicks": 192,
            "midi": 56,
            "name": "G#3",
            "ticks": 120384,
            "time": 139.12722449999998,
            "velocity": 1
          },
          {
            "duration": 0.44378699999998616,
            "durationTicks": 384,
            "midi": 56,
            "name": "G#3",
            "ticks": 120576,
            "time": 139.349118,
            "velocity": 1
          },
          {
            "duration": 0.22189349999999308,
            "durationTicks": 192,
            "midi": 56,
            "name": "G#3",
            "ticks": 120960,
            "time": 139.792905,
            "velocity": 1
          },
          {
            "duration": 0.2218935000000215,
            "durationTicks": 192,
            "midi": 56,
            "name": "G#3",
            "ticks": 121152,
            "time": 140.01479849999998,
            "velocity": 1
          },
          {
            "duration": 0.44378699999998616,
            "durationTicks": 384,
            "midi": 56,
            "name": "G#3",
            "ticks": 121344,
            "time": 140.236692,
            "velocity": 1
          },
          {
            "duration": 0.4437870000000146,
            "durationTicks": 384,
            "midi": 56,
            "name": "G#3",
            "ticks": 121728,
            "time": 140.680479,
            "velocity": 1
          },
          {
            "duration": 3.550296000000003,
            "durationTicks": 3072,
            "midi": 56,
            "name": "G#3",
            "ticks": 122112,
            "time": 141.124266,
            "velocity": 1
          },
          {
            "duration": 0.22189349999999308,
            "durationTicks": 192,
            "midi": 56,
            "name": "G#3",
            "ticks": 125184,
            "time": 144.674562,
            "velocity": 1
          },
          {
            "duration": 0.22189349999999308,
            "durationTicks": 192,
            "midi": 56,
            "name": "G#3",
            "ticks": 125376,
            "time": 144.8964555,
            "velocity": 1
          },
          {
            "duration": 0.22189349999999308,
            "durationTicks": 192,
            "midi": 54,
            "name": "F#3",
            "ticks": 125568,
            "time": 145.118349,
            "velocity": 1
          },
          {
            "duration": 1.3313610000000153,
            "durationTicks": 1152,
            "midi": 56,
            "name": "G#3",
            "ticks": 125760,
            "time": 145.3402425,
            "velocity": 1
          },
          {
            "duration": 0.22189349999999308,
            "durationTicks": 192,
            "midi": 56,
            "name": "G#3",
            "ticks": 126912,
            "time": 146.6716035,
            "velocity": 1
          },
          {
            "duration": 0.22189349999999308,
            "durationTicks": 192,
            "midi": 54,
            "name": "F#3",
            "ticks": 127104,
            "time": 146.893497,
            "velocity": 1
          },
          {
            "duration": 1.5532545000000084,
            "durationTicks": 1344,
            "midi": 56,
            "name": "G#3",
            "ticks": 127296,
            "time": 147.1153905,
            "velocity": 1
          },
          {
            "duration": 0.22189349999999308,
            "durationTicks": 192,
            "midi": 56,
            "name": "G#3",
            "ticks": 128640,
            "time": 148.668645,
            "velocity": 1
          },
          {
            "duration": 1.7751480000000015,
            "durationTicks": 1536,
            "midi": 54,
            "name": "F#3",
            "ticks": 128832,
            "time": 148.8905385,
            "velocity": 1
          },
          {
            "duration": 4.659763499999997,
            "durationTicks": 4032,
            "midi": 56,
            "name": "G#3",
            "ticks": 130368,
            "time": 150.6656865,
            "velocity": 1
          },
          {
            "duration": 0.22189349999999308,
            "durationTicks": 192,
            "midi": 56,
            "name": "G#3",
            "ticks": 134400,
            "time": 155.32545,
            "velocity": 1
          },
          {
            "duration": 0.2218935000000215,
            "durationTicks": 192,
            "midi": 56,
            "name": "G#3",
            "ticks": 134592,
            "time": 155.54734349999998,
            "velocity": 1
          },
          {
            "duration": 0.22189349999999308,
            "durationTicks": 192,
            "midi": 54,
            "name": "F#3",
            "ticks": 134784,
            "time": 155.769237,
            "velocity": 1
          },
          {
            "duration": 1.331360999999987,
            "durationTicks": 1152,
            "midi": 56,
            "name": "G#3",
            "ticks": 134976,
            "time": 155.9911305,
            "velocity": 1
          },
          {
            "duration": 0.2218935000000215,
            "durationTicks": 192,
            "midi": 56,
            "name": "G#3",
            "ticks": 136128,
            "time": 157.32249149999998,
            "velocity": 1
          },
          {
            "duration": 0.22189349999999308,
            "durationTicks": 192,
            "midi": 54,
            "name": "F#3",
            "ticks": 136320,
            "time": 157.544385,
            "velocity": 1
          },
          {
            "duration": 1.5532545000000084,
            "durationTicks": 1344,
            "midi": 56,
            "name": "G#3",
            "ticks": 136512,
            "time": 157.7662785,
            "velocity": 1
          },
          {
            "duration": 0.22189349999999308,
            "durationTicks": 192,
            "midi": 56,
            "name": "G#3",
            "ticks": 137856,
            "time": 159.319533,
            "velocity": 1
          },
          {
            "duration": 1.7751480000000015,
            "durationTicks": 1536,
            "midi": 54,
            "name": "F#3",
            "ticks": 138048,
            "time": 159.5414265,
            "velocity": 1
          },
          {
            "duration": 5.3254440000000045,
            "durationTicks": 4608,
            "midi": 56,
            "name": "G#3",
            "ticks": 139584,
            "time": 161.3165745,
            "velocity": 1
          },
          {
            "duration": 3.5595415624999873,
            "durationTicks": 3080,
            "midi": 54,
            "name": "F#3",
            "ticks": 150340,
            "time": 173.74723328125,
            "velocity": 1
          },
          {
            "duration": 3.5595415624999873,
            "durationTicks": 3080,
            "midi": 56,
            "name": "G#3",
            "ticks": 153412,
            "time": 177.29752928125,
            "velocity": 1
          },
          {
            "duration": 3.550296000000003,
            "durationTicks": 3072,
            "midi": 54,
            "name": "F#3",
            "ticks": 156480,
            "time": 180.8432025,
            "velocity": 1
          },
          {
            "duration": 3.550296000000003,
            "durationTicks": 3072,
            "midi": 56,
            "name": "G#3",
            "ticks": 159552,
            "time": 184.3934985,
            "velocity": 1
          }
        ]
      },
      {
        "channel": 0,
        "controlChanges": {
          "0": [
            {
              "number": 0,
              "ticks": 0,
              "time": 0,
              "value": 0
            }
          ],
          "32": [
            {
              "number": 32,
              "ticks": 0,
              "time": 0,
              "value": 0
            }
          ]
        },
        "pitchBends": [],
        "instrument": {
          "family": "piano",
          "name": "acoustic grand piano",
          "number": 0
        },
        "name": "",
        "notes": [],
        "endOfTrackTicks": 162624
      },
      {
        "channel": 8,
        "controlChanges": {
          "7": [
            {
              "number": 7,
              "ticks": 0,
              "time": 0,
              "value": 1
            },
            {
              "number": 7,
              "ticks": 2304,
              "time": 2.662722,
              "value": 1
            }
          ],
          "10": [
            {
              "number": 10,
              "ticks": 0,
              "time": 0,
              "value": 0.49606299212598426
            }
          ]
        },
        "pitchBends": [],
        "instrument": {
          "family": "reed",
          "name": "soprano sax",
          "number": 64
        },
        "name": "",
        "notes": [
          {
            "duration": 0.22189349999999974,
            "durationTicks": 192,
            "midi": 73,
            "name": "C#5",
            "ticks": 2304,
            "time": 2.662722,
            "velocity": 1
          },
          {
            "duration": 0.6703032812499998,
            "durationTicks": 580,
            "midi": 71,
            "name": "B4",
            "ticks": 2496,
            "time": 2.8846154999999998,
            "velocity": 1
          },
          {
            "duration": 0.2218935000000002,
            "durationTicks": 192,
            "midi": 68,
            "name": "G#4",
            "ticks": 15168,
            "time": 17.5295865,
            "velocity": 1
          },
          {
            "duration": 0.2218935000000002,
            "durationTicks": 192,
            "midi": 68,
            "name": "G#4",
            "ticks": 15360,
            "time": 17.75148,
            "velocity": 1
          },
          {
            "duration": 0.2218935000000002,
            "durationTicks": 192,
            "midi": 68,
            "name": "G#4",
            "ticks": 15552,
            "time": 17.9733735,
            "velocity": 1
          },
          {
            "duration": 0.22189349999999664,
            "durationTicks": 192,
            "midi": 68,
            "name": "G#4",
            "ticks": 15744,
            "time": 18.195267,
            "velocity": 1
          },
          {
            "duration": 0.2218935000000002,
            "durationTicks": 192,
            "midi": 68,
            "name": "G#4",
            "ticks": 15936,
            "time": 18.417160499999998,
            "velocity": 1
          },
          {
            "duration": 0.4437870000000004,
            "durationTicks": 384,
            "midi": 68,
            "name": "G#4",
            "ticks": 16128,
            "time": 18.639053999999998,
            "velocity": 1
          },
          {
            "duration": 0.2218935000000002,
            "durationTicks": 192,
            "midi": 68,
            "name": "G#4",
            "ticks": 16512,
            "time": 19.082841,
            "velocity": 1
          },
          {
            "duration": 0.2218935000000002,
            "durationTicks": 192,
            "midi": 68,
            "name": "G#4",
            "ticks": 16704,
            "time": 19.3047345,
            "velocity": 1
          },
          {
            "duration": 0.4437870000000004,
            "durationTicks": 384,
            "midi": 68,
            "name": "G#4",
            "ticks": 16896,
            "time": 19.526628,
            "velocity": 1
          },
          {
            "duration": 0.2218935000000002,
            "durationTicks": 192,
            "midi": 68,
            "name": "G#4",
            "ticks": 17280,
            "time": 19.970415,
            "velocity": 1
          },
          {
            "duration": 0.2218935000000002,
            "durationTicks": 192,
            "midi": 68,
            "name": "G#4",
            "ticks": 17472,
            "time": 20.1923085,
            "velocity": 1
          },
          {
            "duration": 4.2159765,
            "durationTicks": 3648,
            "midi": 68,
            "name": "G#4",
            "ticks": 17664,
            "time": 20.414202,
            "velocity": 1
          },
          {
            "duration": 0.2218935000000002,
            "durationTicks": 192,
            "midi": 68,
            "name": "G#4",
            "ticks": 21312,
            "time": 24.6301785,
            "velocity": 1
          },
          {
            "duration": 0.2218935000000002,
            "durationTicks": 192,
            "midi": 68,
            "name": "G#4",
            "ticks": 21504,
            "time": 24.852072,
            "velocity": 1
          },
          {
            "duration": 0.2218935000000002,
            "durationTicks": 192,
            "midi": 68,
            "name": "G#4",
            "ticks": 21696,
            "time": 25.0739655,
            "velocity": 1
          },
          {
            "duration": 0.2218935000000002,
            "durationTicks": 192,
            "midi": 68,
            "name": "G#4",
            "ticks": 21888,
            "time": 25.295859,
            "velocity": 1
          },
          {
            "duration": 0.2218935000000002,
            "durationTicks": 192,
            "midi": 68,
            "name": "G#4",
            "ticks": 22080,
            "time": 25.5177525,
            "velocity": 1
          },
          {
            "duration": 0.4437870000000004,
            "durationTicks": 384,
            "midi": 68,
            "name": "G#4",
            "ticks": 22272,
            "time": 25.739646,
            "velocity": 1
          },
          {
            "duration": 0.22189349999999664,
            "durationTicks": 192,
            "midi": 68,
            "name": "G#4",
            "ticks": 22656,
            "time": 26.183433,
            "velocity": 1
          },
          {
            "duration": 0.2218935000000002,
            "durationTicks": 192,
            "midi": 68,
            "name": "G#4",
            "ticks": 22848,
            "time": 26.405326499999997,
            "velocity": 1
          },
          {
            "duration": 0.4437870000000004,
            "durationTicks": 384,
            "midi": 68,
            "name": "G#4",
            "ticks": 23040,
            "time": 26.627219999999998,
            "velocity": 1
          },
          {
            "duration": 0.4437870000000004,
            "durationTicks": 384,
            "midi": 68,
            "name": "G#4",
            "ticks": 23424,
            "time": 27.071006999999998,
            "velocity": 1
          },
          {
            "duration": 4.2159765,
            "durationTicks": 3648,
            "midi": 68,
            "name": "G#4",
            "ticks": 23808,
            "time": 27.514794,
            "velocity": 1
          },
          {
            "duration": 0.2218935000000002,
            "durationTicks": 192,
            "midi": 68,
            "name": "G#4",
            "ticks": 27456,
            "time": 31.7307705,
            "velocity": 1
          },
          {
            "duration": 0.2218935000000002,
            "durationTicks": 192,
            "midi": 68,
            "name": "G#4",
            "ticks": 27648,
            "time": 31.952664,
            "velocity": 1
          },
          {
            "duration": 0.2218935000000002,
            "durationTicks": 192,
            "midi": 68,
            "name": "G#4",
            "ticks": 27840,
            "time": 32.1745575,
            "velocity": 1
          },
          {
            "duration": 0.2218935000000002,
            "durationTicks": 192,
            "midi": 68,
            "name": "G#4",
            "ticks": 28032,
            "time": 32.396451,
            "velocity": 1
          },
          {
            "duration": 0.2218935000000002,
            "durationTicks": 192,
            "midi": 68,
            "name": "G#4",
            "ticks": 28224,
            "time": 32.6183445,
            "velocity": 1
          },
          {
            "duration": 0.4437870000000004,
            "durationTicks": 384,
            "midi": 68,
            "name": "G#4",
            "ticks": 28416,
            "time": 32.840238,
            "velocity": 1
          },
          {
            "duration": 0.2218935000000002,
            "durationTicks": 192,
            "midi": 68,
            "name": "G#4",
            "ticks": 28800,
            "time": 33.284025,
            "velocity": 1
          },
          {
            "duration": 0.2218935000000002,
            "durationTicks": 192,
            "midi": 68,
            "name": "G#4",
            "ticks": 28992,
            "time": 33.5059185,
            "velocity": 1
          },
          {
            "duration": 0.4437870000000004,
            "durationTicks": 384,
            "midi": 68,
            "name": "G#4",
            "ticks": 29184,
            "time": 33.727812,
            "velocity": 1
          },
          {
            "duration": 0.4437870000000004,
            "durationTicks": 384,
            "midi": 68,
            "name": "G#4",
            "ticks": 29568,
            "time": 34.171599,
            "velocity": 1
          },
          {
            "duration": 4.2159764999999965,
            "durationTicks": 3648,
            "midi": 68,
            "name": "G#4",
            "ticks": 29952,
            "time": 34.615386,
            "velocity": 1
          },
          {
            "duration": 0.2218935000000002,
            "durationTicks": 192,
            "midi": 68,
            "name": "G#4",
            "ticks": 33600,
            "time": 38.8313625,
            "velocity": 1
          },
          {
            "duration": 0.2218935000000002,
            "durationTicks": 192,
            "midi": 68,
            "name": "G#4",
            "ticks": 33792,
            "time": 39.053256,
            "velocity": 1
          },
          {
            "duration": 0.2218935000000002,
            "durationTicks": 192,
            "midi": 68,
            "name": "G#4",
            "ticks": 33984,
            "time": 39.2751495,
            "velocity": 1
          },
          {
            "duration": 0.2218935000000002,
            "durationTicks": 192,
            "midi": 68,
            "name": "G#4",
            "ticks": 34176,
            "time": 39.497043,
            "velocity": 1
          },
          {
            "duration": 0.2218935000000002,
            "durationTicks": 192,
            "midi": 68,
            "name": "G#4",
            "ticks": 34368,
            "time": 39.7189365,
            "velocity": 1
          },
          {
            "duration": 0.4437870000000004,
            "durationTicks": 384,
            "midi": 68,
            "name": "G#4",
            "ticks": 34560,
            "time": 39.94083,
            "velocity": 1
          },
          {
            "duration": 0.2218935000000002,
            "durationTicks": 192,
            "midi": 68,
            "name": "G#4",
            "ticks": 34944,
            "time": 40.384617,
            "velocity": 1
          },
          {
            "duration": 0.2218935000000002,
            "durationTicks": 192,
            "midi": 68,
            "name": "G#4",
            "ticks": 35136,
            "time": 40.6065105,
            "velocity": 1
          },
          {
            "duration": 0.4437870000000004,
            "durationTicks": 384,
            "midi": 68,
            "name": "G#4",
            "ticks": 35328,
            "time": 40.828404,
            "velocity": 1
          },
          {
            "duration": 0.4437870000000004,
            "durationTicks": 384,
            "midi": 68,
            "name": "G#4",
            "ticks": 35712,
            "time": 41.272191,
            "velocity": 1
          },
          {
            "duration": 3.550295999999996,
            "durationTicks": 3072,
            "midi": 68,
            "name": "G#4",
            "ticks": 36096,
            "time": 41.715978,
            "velocity": 1
          },
          {
            "duration": 0.2218935000000002,
            "durationTicks": 192,
            "midi": 68,
            "name": "G#4",
            "ticks": 39168,
            "time": 45.266273999999996,
            "velocity": 1
          },
          {
            "duration": 0.2218935000000002,
            "durationTicks": 192,
            "midi": 68,
            "name": "G#4",
            "ticks": 39360,
            "time": 45.488167499999996,
            "velocity": 1
          },
          {
            "duration": 0.2218935000000002,
            "durationTicks": 192,
            "midi": 66,
            "name": "F#4",
            "ticks": 39552,
            "time": 45.710060999999996,
            "velocity": 1
          },
          {
            "duration": 1.3313610000000011,
            "durationTicks": 1152,
            "midi": 68,
            "name": "G#4",
            "ticks": 39744,
            "time": 45.931954499999996,
            "velocity": 1
          },
          {
            "duration": 0.2218935000000002,
            "durationTicks": 192,
            "midi": 68,
            "name": "G#4",
            "ticks": 40896,
            "time": 47.2633155,
            "velocity": 1
          },
          {
            "duration": 0.2218935000000002,
            "durationTicks": 192,
            "midi": 66,
            "name": "F#4",
            "ticks": 41088,
            "time": 47.485209,
            "velocity": 1
          },
          {
            "duration": 1.5532545000000013,
            "durationTicks": 1344,
            "midi": 68,
            "name": "G#4",
            "ticks": 41280,
            "time": 47.7071025,
            "velocity": 1
          },
          {
            "duration": 0.2218935000000002,
            "durationTicks": 192,
            "midi": 68,
            "name": "G#4",
            "ticks": 42624,
            "time": 49.260357,
            "velocity": 1
          },
          {
            "duration": 1.7751480000000015,
            "durationTicks": 1536,
            "midi": 66,
            "name": "F#4",
            "ticks": 42816,
            "time": 49.4822505,
            "velocity": 1
          },
          {
            "duration": 5.325443999999997,
            "durationTicks": 4608,
            "midi": 68,
            "name": "G#4",
            "ticks": 44352,
            "time": 51.2573985,
            "velocity": 1
          },
          {
            "duration": 0.2218935000000002,
            "durationTicks": 192,
            "midi": 68,
            "name": "G#4",
            "ticks": 48960,
            "time": 56.5828425,
            "velocity": 1
          },
          {
            "duration": 0.2218935000000002,
            "durationTicks": 192,
            "midi": 68,
            "name": "G#4",
            "ticks": 49152,
            "time": 56.804736,
            "velocity": 1
          },
          {
            "duration": 0.2218935000000002,
            "durationTicks": 192,
            "midi": 68,
            "name": "G#4",
            "ticks": 49344,
            "time": 57.0266295,
            "velocity": 1
          },
          {
            "duration": 0.2218935000000002,
            "durationTicks": 192,
            "midi": 68,
            "name": "G#4",
            "ticks": 49536,
            "time": 57.248523,
            "velocity": 1
          },
          {
            "duration": 0.2218935000000002,
            "durationTicks": 192,
            "midi": 68,
            "name": "G#4",
            "ticks": 49728,
            "time": 57.4704165,
            "velocity": 1
          },
          {
            "duration": 0.4437870000000004,
            "durationTicks": 384,
            "midi": 68,
            "name": "G#4",
            "ticks": 49920,
            "time": 57.69231,
            "velocity": 1
          },
          {
            "duration": 0.2218935000000002,
            "durationTicks": 192,
            "midi": 68,
            "name": "G#4",
            "ticks": 50304,
            "time": 58.136097,
            "velocity": 1
          },
          {
            "duration": 0.2218935000000002,
            "durationTicks": 192,
            "midi": 68,
            "name": "G#4",
            "ticks": 50496,
            "time": 58.3579905,
            "velocity": 1
          },
          {
            "duration": 0.4437870000000004,
            "durationTicks": 384,
            "midi": 68,
            "name": "G#4",
            "ticks": 50688,
            "time": 58.579884,
            "velocity": 1
          },
          {
            "duration": 0.4437870000000004,
            "durationTicks": 384,
            "midi": 68,
            "name": "G#4",
            "ticks": 51072,
            "time": 59.023671,
            "velocity": 1
          },
          {
            "duration": 4.2159764999999965,
            "durationTicks": 3648,
            "midi": 68,
            "name": "G#4",
            "ticks": 51456,
            "time": 59.467458,
            "velocity": 1
          },
          {
            "duration": 0.2218935000000002,
            "durationTicks": 192,
            "midi": 68,
            "name": "G#4",
            "ticks": 55104,
            "time": 63.6834345,
            "velocity": 1
          },
          {
            "duration": 0.2218935000000073,
            "durationTicks": 192,
            "midi": 68,
            "name": "G#4",
            "ticks": 55296,
            "time": 63.905328,
            "velocity": 1
          },
          {
            "duration": 0.22189349999999308,
            "durationTicks": 192,
            "midi": 68,
            "name": "G#4",
            "ticks": 55488,
            "time": 64.1272215,
            "velocity": 1
          },
          {
            "duration": 0.2218935000000073,
            "durationTicks": 192,
            "midi": 68,
            "name": "G#4",
            "ticks": 55680,
            "time": 64.349115,
            "velocity": 1
          },
          {
            "duration": 0.22189349999999308,
            "durationTicks": 192,
            "midi": 68,
            "name": "G#4",
            "ticks": 55872,
            "time": 64.5710085,
            "velocity": 1
          },
          {
            "duration": 0.4437870000000004,
            "durationTicks": 384,
            "midi": 68,
            "name": "G#4",
            "ticks": 56064,
            "time": 64.792902,
            "velocity": 1
          },
          {
            "duration": 0.22189349999999308,
            "durationTicks": 192,
            "midi": 68,
            "name": "G#4",
            "ticks": 56448,
            "time": 65.236689,
            "velocity": 1
          },
          {
            "duration": 0.2218935000000073,
            "durationTicks": 192,
            "midi": 68,
            "name": "G#4",
            "ticks": 56640,
            "time": 65.45858249999999,
            "velocity": 1
          },
          {
            "duration": 0.4437870000000004,
            "durationTicks": 384,
            "midi": 68,
            "name": "G#4",
            "ticks": 56832,
            "time": 65.680476,
            "velocity": 1
          },
          {
            "duration": 0.4437870000000004,
            "durationTicks": 384,
            "midi": 68,
            "name": "G#4",
            "ticks": 57216,
            "time": 66.124263,
            "velocity": 1
          },
          {
            "duration": 4.2159764999999965,
            "durationTicks": 3648,
            "midi": 68,
            "name": "G#4",
            "ticks": 57600,
            "time": 66.56805,
            "velocity": 1
          },
          {
            "duration": 0.2218935000000073,
            "durationTicks": 192,
            "midi": 68,
            "name": "G#4",
            "ticks": 61248,
            "time": 70.7840265,
            "velocity": 1
          },
          {
            "duration": 0.22189349999999308,
            "durationTicks": 192,
            "midi": 68,
            "name": "G#4",
            "ticks": 61440,
            "time": 71.00592,
            "velocity": 1
          },
          {
            "duration": 0.2218935000000073,
            "durationTicks": 192,
            "midi": 68,
            "name": "G#4",
            "ticks": 61632,
            "time": 71.2278135,
            "velocity": 1
          },
          {
            "duration": 0.22189349999999308,
            "durationTicks": 192,
            "midi": 68,
            "name": "G#4",
            "ticks": 61824,
            "time": 71.449707,
            "velocity": 1
          },
          {
            "duration": 0.2218935000000073,
            "durationTicks": 192,
            "midi": 68,
            "name": "G#4",
            "ticks": 62016,
            "time": 71.6716005,
            "velocity": 1
          },
          {
            "duration": 0.4437870000000004,
            "durationTicks": 384,
            "midi": 68,
            "name": "G#4",
            "ticks": 62208,
            "time": 71.893494,
            "velocity": 1
          },
          {
            "duration": 0.22189349999999308,
            "durationTicks": 192,
            "midi": 68,
            "name": "G#4",
            "ticks": 62592,
            "time": 72.337281,
            "velocity": 1
          },
          {
            "duration": 0.2218935000000073,
            "durationTicks": 192,
            "midi": 68,
            "name": "G#4",
            "ticks": 62784,
            "time": 72.5591745,
            "velocity": 1
          },
          {
            "duration": 0.44378699999998616,
            "durationTicks": 384,
            "midi": 68,
            "name": "G#4",
            "ticks": 62976,
            "time": 72.781068,
            "velocity": 1
          },
          {
            "duration": 0.4437870000000004,
            "durationTicks": 384,
            "midi": 68,
            "name": "G#4",
            "ticks": 63360,
            "time": 73.22485499999999,
            "velocity": 1
          },
          {
            "duration": 4.215976500000011,
            "durationTicks": 3648,
            "midi": 68,
            "name": "G#4",
            "ticks": 63744,
            "time": 73.66864199999999,
            "velocity": 1
          },
          {
            "duration": 0.22189349999999308,
            "durationTicks": 192,
            "midi": 68,
            "name": "G#4",
            "ticks": 67392,
            "time": 77.8846185,
            "velocity": 1
          },
          {
            "duration": 0.2218935000000073,
            "durationTicks": 192,
            "midi": 68,
            "name": "G#4",
            "ticks": 67584,
            "time": 78.106512,
            "velocity": 1
          },
          {
            "duration": 0.22189349999999308,
            "durationTicks": 192,
            "midi": 68,
            "name": "G#4",
            "ticks": 67776,
            "time": 78.3284055,
            "velocity": 1
          },
          {
            "duration": 0.2218935000000073,
            "durationTicks": 192,
            "midi": 68,
            "name": "G#4",
            "ticks": 67968,
            "time": 78.550299,
            "velocity": 1
          },
          {
            "duration": 0.22189349999999308,
            "durationTicks": 192,
            "midi": 68,
            "name": "G#4",
            "ticks": 68160,
            "time": 78.7721925,
            "velocity": 1
          },
          {
            "duration": 0.4437870000000004,
            "durationTicks": 384,
            "midi": 68,
            "name": "G#4",
            "ticks": 68352,
            "time": 78.994086,
            "velocity": 1
          },
          {
            "duration": 0.2218935000000073,
            "durationTicks": 192,
            "midi": 68,
            "name": "G#4",
            "ticks": 68736,
            "time": 79.437873,
            "velocity": 1
          },
          {
            "duration": 0.22189349999999308,
            "durationTicks": 192,
            "midi": 68,
            "name": "G#4",
            "ticks": 68928,
            "time": 79.6597665,
            "velocity": 1
          },
          {
            "duration": 0.4437870000000004,
            "durationTicks": 384,
            "midi": 68,
            "name": "G#4",
            "ticks": 69120,
            "time": 79.88166,
            "velocity": 1
          },
          {
            "duration": 0.4437870000000004,
            "durationTicks": 384,
            "midi": 68,
            "name": "G#4",
            "ticks": 69504,
            "time": 80.325447,
            "velocity": 1
          },
          {
            "duration": 3.550296000000003,
            "durationTicks": 3072,
            "midi": 68,
            "name": "G#4",
            "ticks": 69888,
            "time": 80.769234,
            "velocity": 1
          },
          {
            "duration": 0.22189349999999308,
            "durationTicks": 192,
            "midi": 68,
            "name": "G#4",
            "ticks": 72960,
            "time": 84.31953,
            "velocity": 1
          },
          {
            "duration": 0.2218935000000073,
            "durationTicks": 192,
            "midi": 68,
            "name": "G#4",
            "ticks": 73152,
            "time": 84.5414235,
            "velocity": 1
          },
          {
            "duration": 0.22189349999999308,
            "durationTicks": 192,
            "midi": 66,
            "name": "F#4",
            "ticks": 73344,
            "time": 84.763317,
            "velocity": 1
          },
          {
            "duration": 1.3313610000000011,
            "durationTicks": 1152,
            "midi": 68,
            "name": "G#4",
            "ticks": 73536,
            "time": 84.9852105,
            "velocity": 1
          },
          {
            "duration": 0.2218935000000073,
            "durationTicks": 192,
            "midi": 68,
            "name": "G#4",
            "ticks": 74688,
            "time": 86.3165715,
            "velocity": 1
          },
          {
            "duration": 0.22189349999999308,
            "durationTicks": 192,
            "midi": 66,
            "name": "F#4",
            "ticks": 74880,
            "time": 86.538465,
            "velocity": 1
          },
          {
            "duration": 1.5532545000000084,
            "durationTicks": 1344,
            "midi": 68,
            "name": "G#4",
            "ticks": 75072,
            "time": 86.7603585,
            "velocity": 1
          },
          {
            "duration": 0.22189349999999308,
            "durationTicks": 192,
            "midi": 68,
            "name": "G#4",
            "ticks": 76416,
            "time": 88.313613,
            "velocity": 1
          },
          {
            "duration": 1.7751480000000015,
            "durationTicks": 1536,
            "midi": 66,
            "name": "F#4",
            "ticks": 76608,
            "time": 88.5355065,
            "velocity": 1
          },
          {
            "duration": 5.3254440000000045,
            "durationTicks": 4608,
            "midi": 68,
            "name": "G#4",
            "ticks": 78144,
            "time": 90.3106545,
            "velocity": 1
          },
          {
            "duration": 6.434911499999998,
            "durationTicks": 5568,
            "midi": 68,
            "name": "G#4",
            "ticks": 82752,
            "time": 95.6360985,
            "velocity": 1
          },
          {
            "duration": 0.22189349999999308,
            "durationTicks": 192,
            "midi": 68,
            "name": "G#4",
            "ticks": 88320,
            "time": 102.07101,
            "velocity": 1
          },
          {
            "duration": 0.2218935000000073,
            "durationTicks": 192,
            "midi": 68,
            "name": "G#4",
            "ticks": 88512,
            "time": 102.2929035,
            "velocity": 1
          },
          {
            "duration": 0.22189349999999308,
            "durationTicks": 192,
            "midi": 66,
            "name": "F#4",
            "ticks": 88704,
            "time": 102.514797,
            "velocity": 1
          },
          {
            "duration": 14.423077500000005,
            "durationTicks": 12480,
            "midi": 68,
            "name": "G#4",
            "ticks": 88896,
            "time": 102.7366905,
            "velocity": 1
          },
          {
            "duration": 0.22189349999999308,
            "durationTicks": 192,
            "midi": 68,
            "name": "G#4",
            "ticks": 101376,
            "time": 117.159768,
            "velocity": 1
          },
          {
            "duration": 0.2218935000000073,
            "durationTicks": 192,
            "midi": 68,
            "name": "G#4",
            "ticks": 101568,
            "time": 117.38166149999999,
            "velocity": 1
          },
          {
            "duration": 0.22189349999999308,
            "durationTicks": 192,
            "midi": 68,
            "name": "G#4",
            "ticks": 101760,
            "time": 117.603555,
            "velocity": 1
          },
          {
            "duration": 0.2218935000000073,
            "durationTicks": 192,
            "midi": 68,
            "name": "G#4",
            "ticks": 101952,
            "time": 117.8254485,
            "velocity": 1
          },
          {
            "duration": 0.4437870000000004,
            "durationTicks": 384,
            "midi": 68,
            "name": "G#4",
            "ticks": 102144,
            "time": 118.047342,
            "velocity": 1
          },
          {
            "duration": 0.22189349999999308,
            "durationTicks": 192,
            "midi": 68,
            "name": "G#4",
            "ticks": 102528,
            "time": 118.491129,
            "velocity": 1
          },
          {
            "duration": 0.2218935000000073,
            "durationTicks": 192,
            "midi": 68,
            "name": "G#4",
            "ticks": 102720,
            "time": 118.7130225,
            "velocity": 1
          },
          {
            "duration": 0.4437870000000004,
            "durationTicks": 384,
            "midi": 68,
            "name": "G#4",
            "ticks": 102912,
            "time": 118.934916,
            "velocity": 1
          },
          {
            "duration": 0.22189349999999308,
            "durationTicks": 192,
            "midi": 68,
            "name": "G#4",
            "ticks": 103296,
            "time": 119.378703,
            "velocity": 1
          },
          {
            "duration": 0.2218935000000073,
            "durationTicks": 192,
            "midi": 68,
            "name": "G#4",
            "ticks": 103488,
            "time": 119.6005965,
            "velocity": 1
          },
          {
            "duration": 4.2159764999999965,
            "durationTicks": 3648,
            "midi": 68,
            "name": "G#4",
            "ticks": 103680,
            "time": 119.82249,
            "velocity": 1
          },
          {
            "duration": 0.22189349999999308,
            "durationTicks": 192,
            "midi": 68,
            "name": "G#4",
            "ticks": 107328,
            "time": 124.0384665,
            "velocity": 1
          },
          {
            "duration": 0.2218935000000073,
            "durationTicks": 192,
            "midi": 68,
            "name": "G#4",
            "ticks": 107520,
            "time": 124.26035999999999,
            "velocity": 1
          },
          {
            "duration": 0.22189349999999308,
            "durationTicks": 192,
            "midi": 68,
            "name": "G#4",
            "ticks": 107712,
            "time": 124.4822535,
            "velocity": 1
          },
          {
            "duration": 0.2218935000000073,
            "durationTicks": 192,
            "midi": 68,
            "name": "G#4",
            "ticks": 107904,
            "time": 124.70414699999999,
            "velocity": 1
          },
          {
            "duration": 0.22189349999999308,
            "durationTicks": 192,
            "midi": 68,
            "name": "G#4",
            "ticks": 108096,
            "time": 124.9260405,
            "velocity": 1
          },
          {
            "duration": 0.4437870000000004,
            "durationTicks": 384,
            "midi": 68,
            "name": "G#4",
            "ticks": 108288,
            "time": 125.14793399999999,
            "velocity": 1
          },
          {
            "duration": 0.2218935000000073,
            "durationTicks": 192,
            "midi": 68,
            "name": "G#4",
            "ticks": 108672,
            "time": 125.59172099999999,
            "velocity": 1
          },
          {
            "duration": 0.22189349999999308,
            "durationTicks": 192,
            "midi": 68,
            "name": "G#4",
            "ticks": 108864,
            "time": 125.8136145,
            "velocity": 1
          },
          {
            "duration": 0.4437870000000004,
            "durationTicks": 384,
            "midi": 68,
            "name": "G#4",
            "ticks": 109056,
            "time": 126.035508,
            "velocity": 1
          },
          {
            "duration": 0.4437870000000004,
            "durationTicks": 384,
            "midi": 68,
            "name": "G#4",
            "ticks": 109440,
            "time": 126.479295,
            "velocity": 1
          },
          {
            "duration": 4.215976500000011,
            "durationTicks": 3648,
            "midi": 68,
            "name": "G#4",
            "ticks": 109824,
            "time": 126.923082,
            "velocity": 1
          },
          {
            "duration": 0.22189349999999308,
            "durationTicks": 192,
            "midi": 68,
            "name": "G#4",
            "ticks": 113472,
            "time": 131.1390585,
            "velocity": 1
          },
          {
            "duration": 0.22189349999999308,
            "durationTicks": 192,
            "midi": 68,
            "name": "G#4",
            "ticks": 113664,
            "time": 131.360952,
            "velocity": 1
          },
          {
            "duration": 0.22189349999999308,
            "durationTicks": 192,
            "midi": 68,
            "name": "G#4",
            "ticks": 113856,
            "time": 131.5828455,
            "velocity": 1
          },
          {
            "duration": 0.2218935000000215,
            "durationTicks": 192,
            "midi": 68,
            "name": "G#4",
            "ticks": 114048,
            "time": 131.80473899999998,
            "velocity": 1
          },
          {
            "duration": 0.22189349999999308,
            "durationTicks": 192,
            "midi": 68,
            "name": "G#4",
            "ticks": 114240,
            "time": 132.0266325,
            "velocity": 1
          },
          {
            "duration": 0.44378699999998616,
            "durationTicks": 384,
            "midi": 68,
            "name": "G#4",
            "ticks": 114432,
            "time": 132.248526,
            "velocity": 1
          },
          {
            "duration": 0.2218935000000215,
            "durationTicks": 192,
            "midi": 68,
            "name": "G#4",
            "ticks": 114816,
            "time": 132.69231299999998,
            "velocity": 1
          },
          {
            "duration": 0.22189349999999308,
            "durationTicks": 192,
            "midi": 68,
            "name": "G#4",
            "ticks": 115008,
            "time": 132.9142065,
            "velocity": 1
          },
          {
            "duration": 0.44378699999998616,
            "durationTicks": 384,
            "midi": 68,
            "name": "G#4",
            "ticks": 115200,
            "time": 133.1361,
            "velocity": 1
          },
          {
            "duration": 0.4437870000000146,
            "durationTicks": 384,
            "midi": 68,
            "name": "G#4",
            "ticks": 115584,
            "time": 133.57988699999999,
            "velocity": 1
          },
          {
            "duration": 4.215976499999982,
            "durationTicks": 3648,
            "midi": 68,
            "name": "G#4",
            "ticks": 115968,
            "time": 134.023674,
            "velocity": 1
          },
          {
            "duration": 0.2218935000000215,
            "durationTicks": 192,
            "midi": 68,
            "name": "G#4",
            "ticks": 119616,
            "time": 138.23965049999998,
            "velocity": 1
          },
          {
            "duration": 0.22189349999999308,
            "durationTicks": 192,
            "midi": 68,
            "name": "G#4",
            "ticks": 119808,
            "time": 138.461544,
            "velocity": 1
          },
          {
            "duration": 0.22189349999999308,
            "durationTicks": 192,
            "midi": 68,
            "name": "G#4",
            "ticks": 120000,
            "time": 138.6834375,
            "velocity": 1
          },
          {
            "duration": 0.22189349999999308,
            "durationTicks": 192,
            "midi": 68,
            "name": "G#4",
            "ticks": 120192,
            "time": 138.905331,
            "velocity": 1
          },
          {
            "duration": 0.2218935000000215,
            "durationTicks": 192,
            "midi": 68,
            "name": "G#4",
            "ticks": 120384,
            "time": 139.12722449999998,
            "velocity": 1
          },
          {
            "duration": 0.44378699999998616,
            "durationTicks": 384,
            "midi": 68,
            "name": "G#4",
            "ticks": 120576,
            "time": 139.349118,
            "velocity": 1
          },
          {
            "duration": 0.22189349999999308,
            "durationTicks": 192,
            "midi": 68,
            "name": "G#4",
            "ticks": 120960,
            "time": 139.792905,
            "velocity": 1
          },
          {
            "duration": 0.2218935000000215,
            "durationTicks": 192,
            "midi": 68,
            "name": "G#4",
            "ticks": 121152,
            "time": 140.01479849999998,
            "velocity": 1
          },
          {
            "duration": 0.44378699999998616,
            "durationTicks": 384,
            "midi": 68,
            "name": "G#4",
            "ticks": 121344,
            "time": 140.236692,
            "velocity": 1
          },
          {
            "duration": 0.4437870000000146,
            "durationTicks": 384,
            "midi": 68,
            "name": "G#4",
            "ticks": 121728,
            "time": 140.680479,
            "velocity": 1
          },
          {
            "duration": 3.550296000000003,
            "durationTicks": 3072,
            "midi": 68,
            "name": "G#4",
            "ticks": 122112,
            "time": 141.124266,
            "velocity": 1
          },
          {
            "duration": 0.22189349999999308,
            "durationTicks": 192,
            "midi": 68,
            "name": "G#4",
            "ticks": 125184,
            "time": 144.674562,
            "velocity": 1
          },
          {
            "duration": 0.22189349999999308,
            "durationTicks": 192,
            "midi": 68,
            "name": "G#4",
            "ticks": 125376,
            "time": 144.8964555,
            "velocity": 1
          },
          {
            "duration": 0.22189349999999308,
            "durationTicks": 192,
            "midi": 66,
            "name": "F#4",
            "ticks": 125568,
            "time": 145.118349,
            "velocity": 1
          },
          {
            "duration": 1.3313610000000153,
            "durationTicks": 1152,
            "midi": 68,
            "name": "G#4",
            "ticks": 125760,
            "time": 145.3402425,
            "velocity": 1
          },
          {
            "duration": 0.22189349999999308,
            "durationTicks": 192,
            "midi": 68,
            "name": "G#4",
            "ticks": 126912,
            "time": 146.6716035,
            "velocity": 1
          },
          {
            "duration": 0.22189349999999308,
            "durationTicks": 192,
            "midi": 66,
            "name": "F#4",
            "ticks": 127104,
            "time": 146.893497,
            "velocity": 1
          },
          {
            "duration": 1.5532545000000084,
            "durationTicks": 1344,
            "midi": 68,
            "name": "G#4",
            "ticks": 127296,
            "time": 147.1153905,
            "velocity": 1
          },
          {
            "duration": 0.22189349999999308,
            "durationTicks": 192,
            "midi": 68,
            "name": "G#4",
            "ticks": 128640,
            "time": 148.668645,
            "velocity": 1
          },
          {
            "duration": 1.7751480000000015,
            "durationTicks": 1536,
            "midi": 66,
            "name": "F#4",
            "ticks": 128832,
            "time": 148.8905385,
            "velocity": 1
          },
          {
            "duration": 4.659763499999997,
            "durationTicks": 4032,
            "midi": 68,
            "name": "G#4",
            "ticks": 130368,
            "time": 150.6656865,
            "velocity": 1
          },
          {
            "duration": 0.22189349999999308,
            "durationTicks": 192,
            "midi": 68,
            "name": "G#4",
            "ticks": 134400,
            "time": 155.32545,
            "velocity": 1
          },
          {
            "duration": 0.2218935000000215,
            "durationTicks": 192,
            "midi": 68,
            "name": "G#4",
            "ticks": 134592,
            "time": 155.54734349999998,
            "velocity": 1
          },
          {
            "duration": 0.22189349999999308,
            "durationTicks": 192,
            "midi": 66,
            "name": "F#4",
            "ticks": 134784,
            "time": 155.769237,
            "velocity": 1
          },
          {
            "duration": 1.331360999999987,
            "durationTicks": 1152,
            "midi": 68,
            "name": "G#4",
            "ticks": 134976,
            "time": 155.9911305,
            "velocity": 1
          },
          {
            "duration": 0.2218935000000215,
            "durationTicks": 192,
            "midi": 68,
            "name": "G#4",
            "ticks": 136128,
            "time": 157.32249149999998,
            "velocity": 1
          },
          {
            "duration": 0.22189349999999308,
            "durationTicks": 192,
            "midi": 66,
            "name": "F#4",
            "ticks": 136320,
            "time": 157.544385,
            "velocity": 1
          },
          {
            "duration": 1.5532545000000084,
            "durationTicks": 1344,
            "midi": 68,
            "name": "G#4",
            "ticks": 136512,
            "time": 157.7662785,
            "velocity": 1
          },
          {
            "duration": 0.22189349999999308,
            "durationTicks": 192,
            "midi": 68,
            "name": "G#4",
            "ticks": 137856,
            "time": 159.319533,
            "velocity": 1
          },
          {
            "duration": 1.7751480000000015,
            "durationTicks": 1536,
            "midi": 66,
            "name": "F#4",
            "ticks": 138048,
            "time": 159.5414265,
            "velocity": 1
          },
          {
            "duration": 5.3254440000000045,
            "durationTicks": 4608,
            "midi": 68,
            "name": "G#4",
            "ticks": 139584,
            "time": 161.3165745,
            "velocity": 1
          },
          {
            "duration": 3.5595415624999873,
            "durationTicks": 3080,
            "midi": 66,
            "name": "F#4",
            "ticks": 150340,
            "time": 173.74723328125,
            "velocity": 1
          },
          {
            "duration": 3.5595415624999873,
            "durationTicks": 3080,
            "midi": 68,
            "name": "G#4",
            "ticks": 153412,
            "time": 177.29752928125,
            "velocity": 1
          },
          {
            "duration": 3.550296000000003,
            "durationTicks": 3072,
            "midi": 66,
            "name": "F#4",
            "ticks": 156480,
            "time": 180.8432025,
            "velocity": 1
          },
          {
            "duration": 3.550296000000003,
            "durationTicks": 3072,
            "midi": 68,
            "name": "G#4",
            "ticks": 159552,
            "time": 184.3934985,
            "velocity": 1
          }
        ]
      },
      {
        "channel": 0,
        "controlChanges": {
          "0": [
            {
              "number": 0,
              "ticks": 0,
              "time": 0,
              "value": 0
            }
          ],
          "32": [
            {
              "number": 32,
              "ticks": 0,
              "time": 0,
              "value": 0
            }
          ]
        },
        "pitchBends": [],
        "instrument": {
          "family": "piano",
          "name": "acoustic grand piano",
          "number": 0
        },
        "name": "",
        "notes": [],
        "endOfTrackTicks": 162624
      },
      {
        "channel": 7,
        "controlChanges": {
          "7": [
            {
              "number": 7,
              "ticks": 0,
              "time": 0,
              "value": 1
            },
            {
              "number": 7,
              "ticks": 2304,
              "time": 2.662722,
              "value": 1
            }
          ],
          "10": [
            {
              "number": 10,
              "ticks": 0,
              "time": 0,
              "value": 0.49606299212598426
            }
          ]
        },
        "pitchBends": [],
        "instrument": {
          "family": "guitar",
          "name": "electric guitar (clean)",
          "number": 27
        },
        "name": "",
        "notes": [
          {
            "duration": 0.22189349999999974,
            "durationTicks": 192,
            "midi": 73,
            "name": "C#5",
            "ticks": 2304,
            "time": 2.662722,
            "velocity": 0.8582677165354331
          },
          {
            "duration": 0.6703032812499998,
            "durationTicks": 580,
            "midi": 71,
            "name": "B4",
            "ticks": 2496,
            "time": 2.8846154999999998,
            "velocity": 0.8582677165354331
          },
          {
            "duration": 0.2218935000000002,
            "durationTicks": 192,
            "midi": 68,
            "name": "G#4",
            "ticks": 15168,
            "time": 17.5295865,
            "velocity": 0.8582677165354331
          },
          {
            "duration": 0.2218935000000002,
            "durationTicks": 192,
            "midi": 68,
            "name": "G#4",
            "ticks": 15360,
            "time": 17.75148,
            "velocity": 0.8582677165354331
          },
          {
            "duration": 0.2218935000000002,
            "durationTicks": 192,
            "midi": 68,
            "name": "G#4",
            "ticks": 15552,
            "time": 17.9733735,
            "velocity": 0.8582677165354331
          },
          {
            "duration": 0.22189349999999664,
            "durationTicks": 192,
            "midi": 68,
            "name": "G#4",
            "ticks": 15744,
            "time": 18.195267,
            "velocity": 0.8582677165354331
          },
          {
            "duration": 0.2218935000000002,
            "durationTicks": 192,
            "midi": 68,
            "name": "G#4",
            "ticks": 15936,
            "time": 18.417160499999998,
            "velocity": 0.8582677165354331
          },
          {
            "duration": 0.4437870000000004,
            "durationTicks": 384,
            "midi": 68,
            "name": "G#4",
            "ticks": 16128,
            "time": 18.639053999999998,
            "velocity": 0.8582677165354331
          },
          {
            "duration": 0.2218935000000002,
            "durationTicks": 192,
            "midi": 68,
            "name": "G#4",
            "ticks": 16512,
            "time": 19.082841,
            "velocity": 0.8582677165354331
          },
          {
            "duration": 0.2218935000000002,
            "durationTicks": 192,
            "midi": 68,
            "name": "G#4",
            "ticks": 16704,
            "time": 19.3047345,
            "velocity": 0.8582677165354331
          },
          {
            "duration": 0.4437870000000004,
            "durationTicks": 384,
            "midi": 68,
            "name": "G#4",
            "ticks": 16896,
            "time": 19.526628,
            "velocity": 0.8582677165354331
          },
          {
            "duration": 0.2218935000000002,
            "durationTicks": 192,
            "midi": 68,
            "name": "G#4",
            "ticks": 17280,
            "time": 19.970415,
            "velocity": 0.8582677165354331
          },
          {
            "duration": 0.2218935000000002,
            "durationTicks": 192,
            "midi": 68,
            "name": "G#4",
            "ticks": 17472,
            "time": 20.1923085,
            "velocity": 0.8582677165354331
          },
          {
            "duration": 4.2159765,
            "durationTicks": 3648,
            "midi": 68,
            "name": "G#4",
            "ticks": 17664,
            "time": 20.414202,
            "velocity": 0.8582677165354331
          },
          {
            "duration": 0.2218935000000002,
            "durationTicks": 192,
            "midi": 68,
            "name": "G#4",
            "ticks": 21312,
            "time": 24.6301785,
            "velocity": 0.8582677165354331
          },
          {
            "duration": 0.2218935000000002,
            "durationTicks": 192,
            "midi": 68,
            "name": "G#4",
            "ticks": 21504,
            "time": 24.852072,
            "velocity": 0.8582677165354331
          },
          {
            "duration": 0.2218935000000002,
            "durationTicks": 192,
            "midi": 68,
            "name": "G#4",
            "ticks": 21696,
            "time": 25.0739655,
            "velocity": 0.8582677165354331
          },
          {
            "duration": 0.2218935000000002,
            "durationTicks": 192,
            "midi": 68,
            "name": "G#4",
            "ticks": 21888,
            "time": 25.295859,
            "velocity": 0.8582677165354331
          },
          {
            "duration": 0.2218935000000002,
            "durationTicks": 192,
            "midi": 68,
            "name": "G#4",
            "ticks": 22080,
            "time": 25.5177525,
            "velocity": 0.8582677165354331
          },
          {
            "duration": 0.4437870000000004,
            "durationTicks": 384,
            "midi": 68,
            "name": "G#4",
            "ticks": 22272,
            "time": 25.739646,
            "velocity": 0.8582677165354331
          },
          {
            "duration": 0.22189349999999664,
            "durationTicks": 192,
            "midi": 68,
            "name": "G#4",
            "ticks": 22656,
            "time": 26.183433,
            "velocity": 0.8582677165354331
          },
          {
            "duration": 0.2218935000000002,
            "durationTicks": 192,
            "midi": 68,
            "name": "G#4",
            "ticks": 22848,
            "time": 26.405326499999997,
            "velocity": 0.8582677165354331
          },
          {
            "duration": 0.4437870000000004,
            "durationTicks": 384,
            "midi": 68,
            "name": "G#4",
            "ticks": 23040,
            "time": 26.627219999999998,
            "velocity": 0.8582677165354331
          },
          {
            "duration": 0.4437870000000004,
            "durationTicks": 384,
            "midi": 68,
            "name": "G#4",
            "ticks": 23424,
            "time": 27.071006999999998,
            "velocity": 0.8582677165354331
          },
          {
            "duration": 4.2159765,
            "durationTicks": 3648,
            "midi": 68,
            "name": "G#4",
            "ticks": 23808,
            "time": 27.514794,
            "velocity": 0.8582677165354331
          },
          {
            "duration": 0.2218935000000002,
            "durationTicks": 192,
            "midi": 68,
            "name": "G#4",
            "ticks": 27456,
            "time": 31.7307705,
            "velocity": 0.8582677165354331
          },
          {
            "duration": 0.2218935000000002,
            "durationTicks": 192,
            "midi": 68,
            "name": "G#4",
            "ticks": 27648,
            "time": 31.952664,
            "velocity": 0.8582677165354331
          },
          {
            "duration": 0.2218935000000002,
            "durationTicks": 192,
            "midi": 68,
            "name": "G#4",
            "ticks": 27840,
            "time": 32.1745575,
            "velocity": 0.8582677165354331
          },
          {
            "duration": 0.2218935000000002,
            "durationTicks": 192,
            "midi": 68,
            "name": "G#4",
            "ticks": 28032,
            "time": 32.396451,
            "velocity": 0.8582677165354331
          },
          {
            "duration": 0.2218935000000002,
            "durationTicks": 192,
            "midi": 68,
            "name": "G#4",
            "ticks": 28224,
            "time": 32.6183445,
            "velocity": 0.8582677165354331
          },
          {
            "duration": 0.4437870000000004,
            "durationTicks": 384,
            "midi": 68,
            "name": "G#4",
            "ticks": 28416,
            "time": 32.840238,
            "velocity": 0.8582677165354331
          },
          {
            "duration": 0.2218935000000002,
            "durationTicks": 192,
            "midi": 68,
            "name": "G#4",
            "ticks": 28800,
            "time": 33.284025,
            "velocity": 0.8582677165354331
          },
          {
            "duration": 0.2218935000000002,
            "durationTicks": 192,
            "midi": 68,
            "name": "G#4",
            "ticks": 28992,
            "time": 33.5059185,
            "velocity": 0.8582677165354331
          },
          {
            "duration": 0.4437870000000004,
            "durationTicks": 384,
            "midi": 68,
            "name": "G#4",
            "ticks": 29184,
            "time": 33.727812,
            "velocity": 0.8582677165354331
          },
          {
            "duration": 0.4437870000000004,
            "durationTicks": 384,
            "midi": 68,
            "name": "G#4",
            "ticks": 29568,
            "time": 34.171599,
            "velocity": 0.8582677165354331
          },
          {
            "duration": 4.2159764999999965,
            "durationTicks": 3648,
            "midi": 68,
            "name": "G#4",
            "ticks": 29952,
            "time": 34.615386,
            "velocity": 0.8582677165354331
          },
          {
            "duration": 0.2218935000000002,
            "durationTicks": 192,
            "midi": 68,
            "name": "G#4",
            "ticks": 33600,
            "time": 38.8313625,
            "velocity": 0.8582677165354331
          },
          {
            "duration": 0.2218935000000002,
            "durationTicks": 192,
            "midi": 68,
            "name": "G#4",
            "ticks": 33792,
            "time": 39.053256,
            "velocity": 0.8582677165354331
          },
          {
            "duration": 0.2218935000000002,
            "durationTicks": 192,
            "midi": 68,
            "name": "G#4",
            "ticks": 33984,
            "time": 39.2751495,
            "velocity": 0.8582677165354331
          },
          {
            "duration": 0.2218935000000002,
            "durationTicks": 192,
            "midi": 68,
            "name": "G#4",
            "ticks": 34176,
            "time": 39.497043,
            "velocity": 0.8582677165354331
          },
          {
            "duration": 0.2218935000000002,
            "durationTicks": 192,
            "midi": 68,
            "name": "G#4",
            "ticks": 34368,
            "time": 39.7189365,
            "velocity": 0.8582677165354331
          },
          {
            "duration": 0.4437870000000004,
            "durationTicks": 384,
            "midi": 68,
            "name": "G#4",
            "ticks": 34560,
            "time": 39.94083,
            "velocity": 0.8582677165354331
          },
          {
            "duration": 0.2218935000000002,
            "durationTicks": 192,
            "midi": 68,
            "name": "G#4",
            "ticks": 34944,
            "time": 40.384617,
            "velocity": 0.8582677165354331
          },
          {
            "duration": 0.2218935000000002,
            "durationTicks": 192,
            "midi": 68,
            "name": "G#4",
            "ticks": 35136,
            "time": 40.6065105,
            "velocity": 0.8582677165354331
          },
          {
            "duration": 0.4437870000000004,
            "durationTicks": 384,
            "midi": 68,
            "name": "G#4",
            "ticks": 35328,
            "time": 40.828404,
            "velocity": 0.8582677165354331
          },
          {
            "duration": 0.4437870000000004,
            "durationTicks": 384,
            "midi": 68,
            "name": "G#4",
            "ticks": 35712,
            "time": 41.272191,
            "velocity": 0.8582677165354331
          },
          {
            "duration": 3.550295999999996,
            "durationTicks": 3072,
            "midi": 68,
            "name": "G#4",
            "ticks": 36096,
            "time": 41.715978,
            "velocity": 0.8582677165354331
          },
          {
            "duration": 0.2218935000000002,
            "durationTicks": 192,
            "midi": 68,
            "name": "G#4",
            "ticks": 39168,
            "time": 45.266273999999996,
            "velocity": 0.8582677165354331
          },
          {
            "duration": 0.2218935000000002,
            "durationTicks": 192,
            "midi": 68,
            "name": "G#4",
            "ticks": 39360,
            "time": 45.488167499999996,
            "velocity": 0.8582677165354331
          },
          {
            "duration": 0.2218935000000002,
            "durationTicks": 192,
            "midi": 66,
            "name": "F#4",
            "ticks": 39552,
            "time": 45.710060999999996,
            "velocity": 0.8582677165354331
          },
          {
            "duration": 1.3313610000000011,
            "durationTicks": 1152,
            "midi": 68,
            "name": "G#4",
            "ticks": 39744,
            "time": 45.931954499999996,
            "velocity": 0.8582677165354331
          },
          {
            "duration": 0.2218935000000002,
            "durationTicks": 192,
            "midi": 68,
            "name": "G#4",
            "ticks": 40896,
            "time": 47.2633155,
            "velocity": 0.8582677165354331
          },
          {
            "duration": 0.2218935000000002,
            "durationTicks": 192,
            "midi": 66,
            "name": "F#4",
            "ticks": 41088,
            "time": 47.485209,
            "velocity": 0.8582677165354331
          },
          {
            "duration": 1.5532545000000013,
            "durationTicks": 1344,
            "midi": 68,
            "name": "G#4",
            "ticks": 41280,
            "time": 47.7071025,
            "velocity": 0.8582677165354331
          },
          {
            "duration": 0.2218935000000002,
            "durationTicks": 192,
            "midi": 68,
            "name": "G#4",
            "ticks": 42624,
            "time": 49.260357,
            "velocity": 0.8582677165354331
          },
          {
            "duration": 1.7751480000000015,
            "durationTicks": 1536,
            "midi": 66,
            "name": "F#4",
            "ticks": 42816,
            "time": 49.4822505,
            "velocity": 0.8582677165354331
          },
          {
            "duration": 5.325443999999997,
            "durationTicks": 4608,
            "midi": 68,
            "name": "G#4",
            "ticks": 44352,
            "time": 51.2573985,
            "velocity": 0.8582677165354331
          },
          {
            "duration": 0.2218935000000002,
            "durationTicks": 192,
            "midi": 68,
            "name": "G#4",
            "ticks": 48960,
            "time": 56.5828425,
            "velocity": 0.8582677165354331
          },
          {
            "duration": 0.2218935000000002,
            "durationTicks": 192,
            "midi": 68,
            "name": "G#4",
            "ticks": 49152,
            "time": 56.804736,
            "velocity": 0.8582677165354331
          },
          {
            "duration": 0.2218935000000002,
            "durationTicks": 192,
            "midi": 68,
            "name": "G#4",
            "ticks": 49344,
            "time": 57.0266295,
            "velocity": 0.8582677165354331
          },
          {
            "duration": 0.2218935000000002,
            "durationTicks": 192,
            "midi": 68,
            "name": "G#4",
            "ticks": 49536,
            "time": 57.248523,
            "velocity": 0.8582677165354331
          },
          {
            "duration": 0.2218935000000002,
            "durationTicks": 192,
            "midi": 68,
            "name": "G#4",
            "ticks": 49728,
            "time": 57.4704165,
            "velocity": 0.8582677165354331
          },
          {
            "duration": 0.4437870000000004,
            "durationTicks": 384,
            "midi": 68,
            "name": "G#4",
            "ticks": 49920,
            "time": 57.69231,
            "velocity": 0.8582677165354331
          },
          {
            "duration": 0.2218935000000002,
            "durationTicks": 192,
            "midi": 68,
            "name": "G#4",
            "ticks": 50304,
            "time": 58.136097,
            "velocity": 0.8582677165354331
          },
          {
            "duration": 0.2218935000000002,
            "durationTicks": 192,
            "midi": 68,
            "name": "G#4",
            "ticks": 50496,
            "time": 58.3579905,
            "velocity": 0.8582677165354331
          },
          {
            "duration": 0.4437870000000004,
            "durationTicks": 384,
            "midi": 68,
            "name": "G#4",
            "ticks": 50688,
            "time": 58.579884,
            "velocity": 0.8582677165354331
          },
          {
            "duration": 0.4437870000000004,
            "durationTicks": 384,
            "midi": 68,
            "name": "G#4",
            "ticks": 51072,
            "time": 59.023671,
            "velocity": 0.8582677165354331
          },
          {
            "duration": 4.2159764999999965,
            "durationTicks": 3648,
            "midi": 68,
            "name": "G#4",
            "ticks": 51456,
            "time": 59.467458,
            "velocity": 0.8582677165354331
          },
          {
            "duration": 0.2218935000000002,
            "durationTicks": 192,
            "midi": 68,
            "name": "G#4",
            "ticks": 55104,
            "time": 63.6834345,
            "velocity": 0.8582677165354331
          },
          {
            "duration": 0.2218935000000073,
            "durationTicks": 192,
            "midi": 68,
            "name": "G#4",
            "ticks": 55296,
            "time": 63.905328,
            "velocity": 0.8582677165354331
          },
          {
            "duration": 0.22189349999999308,
            "durationTicks": 192,
            "midi": 68,
            "name": "G#4",
            "ticks": 55488,
            "time": 64.1272215,
            "velocity": 0.8582677165354331
          },
          {
            "duration": 0.2218935000000073,
            "durationTicks": 192,
            "midi": 68,
            "name": "G#4",
            "ticks": 55680,
            "time": 64.349115,
            "velocity": 0.8582677165354331
          },
          {
            "duration": 0.22189349999999308,
            "durationTicks": 192,
            "midi": 68,
            "name": "G#4",
            "ticks": 55872,
            "time": 64.5710085,
            "velocity": 0.8582677165354331
          },
          {
            "duration": 0.4437870000000004,
            "durationTicks": 384,
            "midi": 68,
            "name": "G#4",
            "ticks": 56064,
            "time": 64.792902,
            "velocity": 0.8582677165354331
          },
          {
            "duration": 0.22189349999999308,
            "durationTicks": 192,
            "midi": 68,
            "name": "G#4",
            "ticks": 56448,
            "time": 65.236689,
            "velocity": 0.8582677165354331
          },
          {
            "duration": 0.2218935000000073,
            "durationTicks": 192,
            "midi": 68,
            "name": "G#4",
            "ticks": 56640,
            "time": 65.45858249999999,
            "velocity": 0.8582677165354331
          },
          {
            "duration": 0.4437870000000004,
            "durationTicks": 384,
            "midi": 68,
            "name": "G#4",
            "ticks": 56832,
            "time": 65.680476,
            "velocity": 0.8582677165354331
          },
          {
            "duration": 0.4437870000000004,
            "durationTicks": 384,
            "midi": 68,
            "name": "G#4",
            "ticks": 57216,
            "time": 66.124263,
            "velocity": 0.8582677165354331
          },
          {
            "duration": 4.2159764999999965,
            "durationTicks": 3648,
            "midi": 68,
            "name": "G#4",
            "ticks": 57600,
            "time": 66.56805,
            "velocity": 0.8582677165354331
          },
          {
            "duration": 0.2218935000000073,
            "durationTicks": 192,
            "midi": 68,
            "name": "G#4",
            "ticks": 61248,
            "time": 70.7840265,
            "velocity": 0.8582677165354331
          },
          {
            "duration": 0.22189349999999308,
            "durationTicks": 192,
            "midi": 68,
            "name": "G#4",
            "ticks": 61440,
            "time": 71.00592,
            "velocity": 0.8582677165354331
          },
          {
            "duration": 0.2218935000000073,
            "durationTicks": 192,
            "midi": 68,
            "name": "G#4",
            "ticks": 61632,
            "time": 71.2278135,
            "velocity": 0.8582677165354331
          },
          {
            "duration": 0.22189349999999308,
            "durationTicks": 192,
            "midi": 68,
            "name": "G#4",
            "ticks": 61824,
            "time": 71.449707,
            "velocity": 0.8582677165354331
          },
          {
            "duration": 0.2218935000000073,
            "durationTicks": 192,
            "midi": 68,
            "name": "G#4",
            "ticks": 62016,
            "time": 71.6716005,
            "velocity": 0.8582677165354331
          },
          {
            "duration": 0.4437870000000004,
            "durationTicks": 384,
            "midi": 68,
            "name": "G#4",
            "ticks": 62208,
            "time": 71.893494,
            "velocity": 0.8582677165354331
          },
          {
            "duration": 0.22189349999999308,
            "durationTicks": 192,
            "midi": 68,
            "name": "G#4",
            "ticks": 62592,
            "time": 72.337281,
            "velocity": 0.8582677165354331
          },
          {
            "duration": 0.2218935000000073,
            "durationTicks": 192,
            "midi": 68,
            "name": "G#4",
            "ticks": 62784,
            "time": 72.5591745,
            "velocity": 0.8582677165354331
          },
          {
            "duration": 0.44378699999998616,
            "durationTicks": 384,
            "midi": 68,
            "name": "G#4",
            "ticks": 62976,
            "time": 72.781068,
            "velocity": 0.8582677165354331
          },
          {
            "duration": 0.4437870000000004,
            "durationTicks": 384,
            "midi": 68,
            "name": "G#4",
            "ticks": 63360,
            "time": 73.22485499999999,
            "velocity": 0.8582677165354331
          },
          {
            "duration": 4.215976500000011,
            "durationTicks": 3648,
            "midi": 68,
            "name": "G#4",
            "ticks": 63744,
            "time": 73.66864199999999,
            "velocity": 0.8582677165354331
          },
          {
            "duration": 0.22189349999999308,
            "durationTicks": 192,
            "midi": 68,
            "name": "G#4",
            "ticks": 67392,
            "time": 77.8846185,
            "velocity": 0.8582677165354331
          },
          {
            "duration": 0.2218935000000073,
            "durationTicks": 192,
            "midi": 68,
            "name": "G#4",
            "ticks": 67584,
            "time": 78.106512,
            "velocity": 0.8582677165354331
          },
          {
            "duration": 0.22189349999999308,
            "durationTicks": 192,
            "midi": 68,
            "name": "G#4",
            "ticks": 67776,
            "time": 78.3284055,
            "velocity": 0.8582677165354331
          },
          {
            "duration": 0.2218935000000073,
            "durationTicks": 192,
            "midi": 68,
            "name": "G#4",
            "ticks": 67968,
            "time": 78.550299,
            "velocity": 0.8582677165354331
          },
          {
            "duration": 0.22189349999999308,
            "durationTicks": 192,
            "midi": 68,
            "name": "G#4",
            "ticks": 68160,
            "time": 78.7721925,
            "velocity": 0.8582677165354331
          },
          {
            "duration": 0.4437870000000004,
            "durationTicks": 384,
            "midi": 68,
            "name": "G#4",
            "ticks": 68352,
            "time": 78.994086,
            "velocity": 0.8582677165354331
          },
          {
            "duration": 0.2218935000000073,
            "durationTicks": 192,
            "midi": 68,
            "name": "G#4",
            "ticks": 68736,
            "time": 79.437873,
            "velocity": 0.8582677165354331
          },
          {
            "duration": 0.22189349999999308,
            "durationTicks": 192,
            "midi": 68,
            "name": "G#4",
            "ticks": 68928,
            "time": 79.6597665,
            "velocity": 0.8582677165354331
          },
          {
            "duration": 0.4437870000000004,
            "durationTicks": 384,
            "midi": 68,
            "name": "G#4",
            "ticks": 69120,
            "time": 79.88166,
            "velocity": 0.8582677165354331
          },
          {
            "duration": 0.4437870000000004,
            "durationTicks": 384,
            "midi": 68,
            "name": "G#4",
            "ticks": 69504,
            "time": 80.325447,
            "velocity": 0.8582677165354331
          },
          {
            "duration": 3.550296000000003,
            "durationTicks": 3072,
            "midi": 68,
            "name": "G#4",
            "ticks": 69888,
            "time": 80.769234,
            "velocity": 0.8582677165354331
          },
          {
            "duration": 0.22189349999999308,
            "durationTicks": 192,
            "midi": 68,
            "name": "G#4",
            "ticks": 72960,
            "time": 84.31953,
            "velocity": 0.8582677165354331
          },
          {
            "duration": 0.2218935000000073,
            "durationTicks": 192,
            "midi": 68,
            "name": "G#4",
            "ticks": 73152,
            "time": 84.5414235,
            "velocity": 0.8582677165354331
          },
          {
            "duration": 0.22189349999999308,
            "durationTicks": 192,
            "midi": 66,
            "name": "F#4",
            "ticks": 73344,
            "time": 84.763317,
            "velocity": 0.8582677165354331
          },
          {
            "duration": 1.3313610000000011,
            "durationTicks": 1152,
            "midi": 68,
            "name": "G#4",
            "ticks": 73536,
            "time": 84.9852105,
            "velocity": 0.8582677165354331
          },
          {
            "duration": 0.2218935000000073,
            "durationTicks": 192,
            "midi": 68,
            "name": "G#4",
            "ticks": 74688,
            "time": 86.3165715,
            "velocity": 0.8582677165354331
          },
          {
            "duration": 0.22189349999999308,
            "durationTicks": 192,
            "midi": 66,
            "name": "F#4",
            "ticks": 74880,
            "time": 86.538465,
            "velocity": 0.8582677165354331
          },
          {
            "duration": 1.5532545000000084,
            "durationTicks": 1344,
            "midi": 68,
            "name": "G#4",
            "ticks": 75072,
            "time": 86.7603585,
            "velocity": 0.8582677165354331
          },
          {
            "duration": 0.22189349999999308,
            "durationTicks": 192,
            "midi": 68,
            "name": "G#4",
            "ticks": 76416,
            "time": 88.313613,
            "velocity": 0.8582677165354331
          },
          {
            "duration": 1.7751480000000015,
            "durationTicks": 1536,
            "midi": 66,
            "name": "F#4",
            "ticks": 76608,
            "time": 88.5355065,
            "velocity": 0.8582677165354331
          },
          {
            "duration": 5.3254440000000045,
            "durationTicks": 4608,
            "midi": 68,
            "name": "G#4",
            "ticks": 78144,
            "time": 90.3106545,
            "velocity": 0.8582677165354331
          },
          {
            "duration": 6.434911499999998,
            "durationTicks": 5568,
            "midi": 68,
            "name": "G#4",
            "ticks": 82752,
            "time": 95.6360985,
            "velocity": 0.8582677165354331
          },
          {
            "duration": 0.22189349999999308,
            "durationTicks": 192,
            "midi": 68,
            "name": "G#4",
            "ticks": 88320,
            "time": 102.07101,
            "velocity": 0.8582677165354331
          },
          {
            "duration": 0.2218935000000073,
            "durationTicks": 192,
            "midi": 68,
            "name": "G#4",
            "ticks": 88512,
            "time": 102.2929035,
            "velocity": 0.8582677165354331
          },
          {
            "duration": 0.22189349999999308,
            "durationTicks": 192,
            "midi": 66,
            "name": "F#4",
            "ticks": 88704,
            "time": 102.514797,
            "velocity": 0.8582677165354331
          },
          {
            "duration": 14.423077500000005,
            "durationTicks": 12480,
            "midi": 68,
            "name": "G#4",
            "ticks": 88896,
            "time": 102.7366905,
            "velocity": 0.8582677165354331
          },
          {
            "duration": 0.22189349999999308,
            "durationTicks": 192,
            "midi": 68,
            "name": "G#4",
            "ticks": 101376,
            "time": 117.159768,
            "velocity": 0.8582677165354331
          },
          {
            "duration": 0.2218935000000073,
            "durationTicks": 192,
            "midi": 68,
            "name": "G#4",
            "ticks": 101568,
            "time": 117.38166149999999,
            "velocity": 0.8582677165354331
          },
          {
            "duration": 0.22189349999999308,
            "durationTicks": 192,
            "midi": 68,
            "name": "G#4",
            "ticks": 101760,
            "time": 117.603555,
            "velocity": 0.8582677165354331
          },
          {
            "duration": 0.2218935000000073,
            "durationTicks": 192,
            "midi": 68,
            "name": "G#4",
            "ticks": 101952,
            "time": 117.8254485,
            "velocity": 0.8582677165354331
          },
          {
            "duration": 0.4437870000000004,
            "durationTicks": 384,
            "midi": 68,
            "name": "G#4",
            "ticks": 102144,
            "time": 118.047342,
            "velocity": 0.8582677165354331
          },
          {
            "duration": 0.22189349999999308,
            "durationTicks": 192,
            "midi": 68,
            "name": "G#4",
            "ticks": 102528,
            "time": 118.491129,
            "velocity": 0.8582677165354331
          },
          {
            "duration": 0.2218935000000073,
            "durationTicks": 192,
            "midi": 68,
            "name": "G#4",
            "ticks": 102720,
            "time": 118.7130225,
            "velocity": 0.8582677165354331
          },
          {
            "duration": 0.4437870000000004,
            "durationTicks": 384,
            "midi": 68,
            "name": "G#4",
            "ticks": 102912,
            "time": 118.934916,
            "velocity": 0.8582677165354331
          },
          {
            "duration": 0.22189349999999308,
            "durationTicks": 192,
            "midi": 68,
            "name": "G#4",
            "ticks": 103296,
            "time": 119.378703,
            "velocity": 0.8582677165354331
          },
          {
            "duration": 0.2218935000000073,
            "durationTicks": 192,
            "midi": 68,
            "name": "G#4",
            "ticks": 103488,
            "time": 119.6005965,
            "velocity": 0.8582677165354331
          },
          {
            "duration": 4.2159764999999965,
            "durationTicks": 3648,
            "midi": 68,
            "name": "G#4",
            "ticks": 103680,
            "time": 119.82249,
            "velocity": 0.8582677165354331
          },
          {
            "duration": 0.22189349999999308,
            "durationTicks": 192,
            "midi": 68,
            "name": "G#4",
            "ticks": 107328,
            "time": 124.0384665,
            "velocity": 0.8582677165354331
          },
          {
            "duration": 0.2218935000000073,
            "durationTicks": 192,
            "midi": 68,
            "name": "G#4",
            "ticks": 107520,
            "time": 124.26035999999999,
            "velocity": 0.8582677165354331
          },
          {
            "duration": 0.22189349999999308,
            "durationTicks": 192,
            "midi": 68,
            "name": "G#4",
            "ticks": 107712,
            "time": 124.4822535,
            "velocity": 0.8582677165354331
          },
          {
            "duration": 0.2218935000000073,
            "durationTicks": 192,
            "midi": 68,
            "name": "G#4",
            "ticks": 107904,
            "time": 124.70414699999999,
            "velocity": 0.8582677165354331
          },
          {
            "duration": 0.22189349999999308,
            "durationTicks": 192,
            "midi": 68,
            "name": "G#4",
            "ticks": 108096,
            "time": 124.9260405,
            "velocity": 0.8582677165354331
          },
          {
            "duration": 0.4437870000000004,
            "durationTicks": 384,
            "midi": 68,
            "name": "G#4",
            "ticks": 108288,
            "time": 125.14793399999999,
            "velocity": 0.8582677165354331
          },
          {
            "duration": 0.2218935000000073,
            "durationTicks": 192,
            "midi": 68,
            "name": "G#4",
            "ticks": 108672,
            "time": 125.59172099999999,
            "velocity": 0.8582677165354331
          },
          {
            "duration": 0.22189349999999308,
            "durationTicks": 192,
            "midi": 68,
            "name": "G#4",
            "ticks": 108864,
            "time": 125.8136145,
            "velocity": 0.8582677165354331
          },
          {
            "duration": 0.4437870000000004,
            "durationTicks": 384,
            "midi": 68,
            "name": "G#4",
            "ticks": 109056,
            "time": 126.035508,
            "velocity": 0.8582677165354331
          },
          {
            "duration": 0.4437870000000004,
            "durationTicks": 384,
            "midi": 68,
            "name": "G#4",
            "ticks": 109440,
            "time": 126.479295,
            "velocity": 0.8582677165354331
          },
          {
            "duration": 4.215976500000011,
            "durationTicks": 3648,
            "midi": 68,
            "name": "G#4",
            "ticks": 109824,
            "time": 126.923082,
            "velocity": 0.8582677165354331
          },
          {
            "duration": 0.22189349999999308,
            "durationTicks": 192,
            "midi": 68,
            "name": "G#4",
            "ticks": 113472,
            "time": 131.1390585,
            "velocity": 0.8582677165354331
          },
          {
            "duration": 0.22189349999999308,
            "durationTicks": 192,
            "midi": 68,
            "name": "G#4",
            "ticks": 113664,
            "time": 131.360952,
            "velocity": 0.8582677165354331
          },
          {
            "duration": 0.22189349999999308,
            "durationTicks": 192,
            "midi": 68,
            "name": "G#4",
            "ticks": 113856,
            "time": 131.5828455,
            "velocity": 0.8582677165354331
          },
          {
            "duration": 0.2218935000000215,
            "durationTicks": 192,
            "midi": 68,
            "name": "G#4",
            "ticks": 114048,
            "time": 131.80473899999998,
            "velocity": 0.8582677165354331
          },
          {
            "duration": 0.22189349999999308,
            "durationTicks": 192,
            "midi": 68,
            "name": "G#4",
            "ticks": 114240,
            "time": 132.0266325,
            "velocity": 0.8582677165354331
          },
          {
            "duration": 0.44378699999998616,
            "durationTicks": 384,
            "midi": 68,
            "name": "G#4",
            "ticks": 114432,
            "time": 132.248526,
            "velocity": 0.8582677165354331
          },
          {
            "duration": 0.2218935000000215,
            "durationTicks": 192,
            "midi": 68,
            "name": "G#4",
            "ticks": 114816,
            "time": 132.69231299999998,
            "velocity": 0.8582677165354331
          },
          {
            "duration": 0.22189349999999308,
            "durationTicks": 192,
            "midi": 68,
            "name": "G#4",
            "ticks": 115008,
            "time": 132.9142065,
            "velocity": 0.8582677165354331
          },
          {
            "duration": 0.44378699999998616,
            "durationTicks": 384,
            "midi": 68,
            "name": "G#4",
            "ticks": 115200,
            "time": 133.1361,
            "velocity": 0.8582677165354331
          },
          {
            "duration": 0.4437870000000146,
            "durationTicks": 384,
            "midi": 68,
            "name": "G#4",
            "ticks": 115584,
            "time": 133.57988699999999,
            "velocity": 0.8582677165354331
          },
          {
            "duration": 4.215976499999982,
            "durationTicks": 3648,
            "midi": 68,
            "name": "G#4",
            "ticks": 115968,
            "time": 134.023674,
            "velocity": 0.8582677165354331
          },
          {
            "duration": 0.2218935000000215,
            "durationTicks": 192,
            "midi": 68,
            "name": "G#4",
            "ticks": 119616,
            "time": 138.23965049999998,
            "velocity": 0.8582677165354331
          },
          {
            "duration": 0.22189349999999308,
            "durationTicks": 192,
            "midi": 68,
            "name": "G#4",
            "ticks": 119808,
            "time": 138.461544,
            "velocity": 0.8582677165354331
          },
          {
            "duration": 0.22189349999999308,
            "durationTicks": 192,
            "midi": 68,
            "name": "G#4",
            "ticks": 120000,
            "time": 138.6834375,
            "velocity": 0.8582677165354331
          },
          {
            "duration": 0.22189349999999308,
            "durationTicks": 192,
            "midi": 68,
            "name": "G#4",
            "ticks": 120192,
            "time": 138.905331,
            "velocity": 0.8582677165354331
          },
          {
            "duration": 0.2218935000000215,
            "durationTicks": 192,
            "midi": 68,
            "name": "G#4",
            "ticks": 120384,
            "time": 139.12722449999998,
            "velocity": 0.8582677165354331
          },
          {
            "duration": 0.44378699999998616,
            "durationTicks": 384,
            "midi": 68,
            "name": "G#4",
            "ticks": 120576,
            "time": 139.349118,
            "velocity": 0.8582677165354331
          },
          {
            "duration": 0.22189349999999308,
            "durationTicks": 192,
            "midi": 68,
            "name": "G#4",
            "ticks": 120960,
            "time": 139.792905,
            "velocity": 0.8582677165354331
          },
          {
            "duration": 0.2218935000000215,
            "durationTicks": 192,
            "midi": 68,
            "name": "G#4",
            "ticks": 121152,
            "time": 140.01479849999998,
            "velocity": 0.8582677165354331
          },
          {
            "duration": 0.44378699999998616,
            "durationTicks": 384,
            "midi": 68,
            "name": "G#4",
            "ticks": 121344,
            "time": 140.236692,
            "velocity": 0.8582677165354331
          },
          {
            "duration": 0.4437870000000146,
            "durationTicks": 384,
            "midi": 68,
            "name": "G#4",
            "ticks": 121728,
            "time": 140.680479,
            "velocity": 0.8582677165354331
          },
          {
            "duration": 3.550296000000003,
            "durationTicks": 3072,
            "midi": 68,
            "name": "G#4",
            "ticks": 122112,
            "time": 141.124266,
            "velocity": 0.8582677165354331
          },
          {
            "duration": 0.22189349999999308,
            "durationTicks": 192,
            "midi": 68,
            "name": "G#4",
            "ticks": 125184,
            "time": 144.674562,
            "velocity": 0.8582677165354331
          },
          {
            "duration": 0.22189349999999308,
            "durationTicks": 192,
            "midi": 68,
            "name": "G#4",
            "ticks": 125376,
            "time": 144.8964555,
            "velocity": 0.8582677165354331
          },
          {
            "duration": 0.22189349999999308,
            "durationTicks": 192,
            "midi": 66,
            "name": "F#4",
            "ticks": 125568,
            "time": 145.118349,
            "velocity": 0.8582677165354331
          },
          {
            "duration": 1.3313610000000153,
            "durationTicks": 1152,
            "midi": 68,
            "name": "G#4",
            "ticks": 125760,
            "time": 145.3402425,
            "velocity": 0.8582677165354331
          },
          {
            "duration": 0.22189349999999308,
            "durationTicks": 192,
            "midi": 68,
            "name": "G#4",
            "ticks": 126912,
            "time": 146.6716035,
            "velocity": 0.8582677165354331
          },
          {
            "duration": 0.22189349999999308,
            "durationTicks": 192,
            "midi": 66,
            "name": "F#4",
            "ticks": 127104,
            "time": 146.893497,
            "velocity": 0.8582677165354331
          },
          {
            "duration": 1.5532545000000084,
            "durationTicks": 1344,
            "midi": 68,
            "name": "G#4",
            "ticks": 127296,
            "time": 147.1153905,
            "velocity": 0.8582677165354331
          },
          {
            "duration": 0.22189349999999308,
            "durationTicks": 192,
            "midi": 68,
            "name": "G#4",
            "ticks": 128640,
            "time": 148.668645,
            "velocity": 0.8582677165354331
          },
          {
            "duration": 1.7751480000000015,
            "durationTicks": 1536,
            "midi": 66,
            "name": "F#4",
            "ticks": 128832,
            "time": 148.8905385,
            "velocity": 0.8582677165354331
          },
          {
            "duration": 4.659763499999997,
            "durationTicks": 4032,
            "midi": 68,
            "name": "G#4",
            "ticks": 130368,
            "time": 150.6656865,
            "velocity": 0.8582677165354331
          },
          {
            "duration": 0.22189349999999308,
            "durationTicks": 192,
            "midi": 68,
            "name": "G#4",
            "ticks": 134400,
            "time": 155.32545,
            "velocity": 0.8582677165354331
          },
          {
            "duration": 0.2218935000000215,
            "durationTicks": 192,
            "midi": 68,
            "name": "G#4",
            "ticks": 134592,
            "time": 155.54734349999998,
            "velocity": 0.8582677165354331
          },
          {
            "duration": 0.22189349999999308,
            "durationTicks": 192,
            "midi": 66,
            "name": "F#4",
            "ticks": 134784,
            "time": 155.769237,
            "velocity": 0.8582677165354331
          },
          {
            "duration": 1.331360999999987,
            "durationTicks": 1152,
            "midi": 68,
            "name": "G#4",
            "ticks": 134976,
            "time": 155.9911305,
            "velocity": 0.8582677165354331
          },
          {
            "duration": 0.2218935000000215,
            "durationTicks": 192,
            "midi": 68,
            "name": "G#4",
            "ticks": 136128,
            "time": 157.32249149999998,
            "velocity": 0.8582677165354331
          },
          {
            "duration": 0.22189349999999308,
            "durationTicks": 192,
            "midi": 66,
            "name": "F#4",
            "ticks": 136320,
            "time": 157.544385,
            "velocity": 0.8582677165354331
          },
          {
            "duration": 1.5532545000000084,
            "durationTicks": 1344,
            "midi": 68,
            "name": "G#4",
            "ticks": 136512,
            "time": 157.7662785,
            "velocity": 0.8582677165354331
          },
          {
            "duration": 0.22189349999999308,
            "durationTicks": 192,
            "midi": 68,
            "name": "G#4",
            "ticks": 137856,
            "time": 159.319533,
            "velocity": 0.8582677165354331
          },
          {
            "duration": 1.7751480000000015,
            "durationTicks": 1536,
            "midi": 66,
            "name": "F#4",
            "ticks": 138048,
            "time": 159.5414265,
            "velocity": 0.8582677165354331
          },
          {
            "duration": 5.3254440000000045,
            "durationTicks": 4608,
            "midi": 68,
            "name": "G#4",
            "ticks": 139584,
            "time": 161.3165745,
            "velocity": 0.8582677165354331
          },
          {
            "duration": 3.5595415624999873,
            "durationTicks": 3080,
            "midi": 66,
            "name": "F#4",
            "ticks": 150340,
            "time": 173.74723328125,
            "velocity": 0.8582677165354331
          },
          {
            "duration": 3.5595415624999873,
            "durationTicks": 3080,
            "midi": 68,
            "name": "G#4",
            "ticks": 153412,
            "time": 177.29752928125,
            "velocity": 0.8582677165354331
          },
          {
            "duration": 3.550296000000003,
            "durationTicks": 3072,
            "midi": 66,
            "name": "F#4",
            "ticks": 156480,
            "time": 180.8432025,
            "velocity": 0.8582677165354331
          },
          {
            "duration": 3.550296000000003,
            "durationTicks": 3072,
            "midi": 68,
            "name": "G#4",
            "ticks": 159552,
            "time": 184.3934985,
            "velocity": 0.8582677165354331
          }
        ]
      },
      {
        "channel": 9,
        "controlChanges": {
          "7": [
            {
              "number": 7,
              "ticks": 2688,
              "time": 3.106509,
              "value": 1
            },
            {
              "number": 7,
              "ticks": 2688,
              "time": 3.106509,
              "value": 1
            }
          ],
          "10": [
            {
              "number": 10,
              "ticks": 0,
              "time": 0,
              "value": 0.49606299212598426
            }
          ]
        },
        "pitchBends": [],
        "instrument": {
          "family": "drums",
          "name": "standard kit",
          "number": 0
        },
        "name": "",
        "notes": [
          {
            "duration": 0.44378699999999993,
            "durationTicks": 384,
            "midi": 40,
            "name": "E2",
            "ticks": 2688,
            "time": 3.106509,
            "velocity": 0.7874015748031497
          },
          {
            "duration": 0.44378699999999993,
            "durationTicks": 384,
            "midi": 49,
            "name": "C#3",
            "ticks": 3072,
            "time": 3.550296,
            "velocity": 0.7874015748031497
          },
          {
            "duration": 0.44378699999999993,
            "durationTicks": 384,
            "midi": 36,
            "name": "C2",
            "ticks": 3072,
            "time": 3.550296,
            "velocity": 0.7874015748031497
          },
          {
            "duration": 0.4437870000000004,
            "durationTicks": 384,
            "midi": 40,
            "name": "E2",
            "ticks": 3456,
            "time": 3.994083,
            "velocity": 0.7874015748031497
          },
          {
            "duration": 0.4437870000000004,
            "durationTicks": 384,
            "midi": 53,
            "name": "F3",
            "ticks": 3456,
            "time": 3.994083,
            "velocity": 0.7874015748031497
          },
          {
            "duration": 0.2218934999999993,
            "durationTicks": 192,
            "midi": 36,
            "name": "C2",
            "ticks": 3840,
            "time": 4.43787,
            "velocity": 0.7874015748031497
          },
          {
            "duration": 0.4437869999999995,
            "durationTicks": 384,
            "midi": 53,
            "name": "F3",
            "ticks": 3840,
            "time": 4.43787,
            "velocity": 0.7874015748031497
          },
          {
            "duration": 0.2218935000000002,
            "durationTicks": 192,
            "midi": 36,
            "name": "C2",
            "ticks": 4032,
            "time": 4.6597634999999995,
            "velocity": 0.7874015748031497
          },
          {
            "duration": 0.4437870000000004,
            "durationTicks": 384,
            "midi": 40,
            "name": "E2",
            "ticks": 4224,
            "time": 4.881657,
            "velocity": 0.7874015748031497
          },
          {
            "duration": 0.4437870000000004,
            "durationTicks": 384,
            "midi": 53,
            "name": "F3",
            "ticks": 4224,
            "time": 4.881657,
            "velocity": 0.7874015748031497
          },
          {
            "duration": 0.4437869999999995,
            "durationTicks": 384,
            "midi": 36,
            "name": "C2",
            "ticks": 4608,
            "time": 5.325444,
            "velocity": 0.7874015748031497
          },
          {
            "duration": 0.4437869999999995,
            "durationTicks": 384,
            "midi": 53,
            "name": "F3",
            "ticks": 4608,
            "time": 5.325444,
            "velocity": 0.7874015748031497
          },
          {
            "duration": 0.4437870000000004,
            "durationTicks": 384,
            "midi": 40,
            "name": "E2",
            "ticks": 4992,
            "time": 5.7692309999999996,
            "velocity": 0.7874015748031497
          },
          {
            "duration": 0.4437870000000004,
            "durationTicks": 384,
            "midi": 53,
            "name": "F3",
            "ticks": 4992,
            "time": 5.7692309999999996,
            "velocity": 0.7874015748031497
          },
          {
            "duration": 0.4437869999999995,
            "durationTicks": 384,
            "midi": 36,
            "name": "C2",
            "ticks": 5376,
            "time": 6.213018,
            "velocity": 0.7874015748031497
          },
          {
            "duration": 0.4437869999999995,
            "durationTicks": 384,
            "midi": 53,
            "name": "F3",
            "ticks": 5376,
            "time": 6.213018,
            "velocity": 0.7874015748031497
          },
          {
            "duration": 0.4437870000000004,
            "durationTicks": 384,
            "midi": 40,
            "name": "E2",
            "ticks": 5760,
            "time": 6.656804999999999,
            "velocity": 0.7874015748031497
          },
          {
            "duration": 0.4437870000000004,
            "durationTicks": 384,
            "midi": 53,
            "name": "F3",
            "ticks": 5760,
            "time": 6.656804999999999,
            "velocity": 0.7874015748031497
          },
          {
            "duration": 0.4437870000000004,
            "durationTicks": 384,
            "midi": 36,
            "name": "C2",
            "ticks": 6144,
            "time": 7.100592,
            "velocity": 0.7874015748031497
          },
          {
            "duration": 0.4437870000000004,
            "durationTicks": 384,
            "midi": 53,
            "name": "F3",
            "ticks": 6144,
            "time": 7.100592,
            "velocity": 0.7874015748031497
          },
          {
            "duration": 0.4437869999999995,
            "durationTicks": 384,
            "midi": 40,
            "name": "E2",
            "ticks": 6528,
            "time": 7.544379,
            "velocity": 0.7874015748031497
          },
          {
            "duration": 0.4437869999999995,
            "durationTicks": 384,
            "midi": 53,
            "name": "F3",
            "ticks": 6528,
            "time": 7.544379,
            "velocity": 0.7874015748031497
          },
          {
            "duration": 0.2218935000000002,
            "durationTicks": 192,
            "midi": 36,
            "name": "C2",
            "ticks": 6912,
            "time": 7.988166,
            "velocity": 0.7874015748031497
          },
          {
            "duration": 0.4437870000000004,
            "durationTicks": 384,
            "midi": 53,
            "name": "F3",
            "ticks": 6912,
            "time": 7.988166,
            "velocity": 0.7874015748031497
          },
          {
            "duration": 0.2218935000000002,
            "durationTicks": 192,
            "midi": 36,
            "name": "C2",
            "ticks": 7104,
            "time": 8.2100595,
            "velocity": 0.7874015748031497
          },
          {
            "duration": 0.4437870000000004,
            "durationTicks": 384,
            "midi": 40,
            "name": "E2",
            "ticks": 7296,
            "time": 8.431953,
            "velocity": 0.7874015748031497
          },
          {
            "duration": 0.4437870000000004,
            "durationTicks": 384,
            "midi": 53,
            "name": "F3",
            "ticks": 7296,
            "time": 8.431953,
            "velocity": 0.7874015748031497
          },
          {
            "duration": 0.4437869999999986,
            "durationTicks": 384,
            "midi": 36,
            "name": "C2",
            "ticks": 7680,
            "time": 8.87574,
            "velocity": 0.7874015748031497
          },
          {
            "duration": 0.4437869999999986,
            "durationTicks": 384,
            "midi": 53,
            "name": "F3",
            "ticks": 7680,
            "time": 8.87574,
            "velocity": 0.7874015748031497
          },
          {
            "duration": 0.4437870000000004,
            "durationTicks": 384,
            "midi": 40,
            "name": "E2",
            "ticks": 8064,
            "time": 9.319526999999999,
            "velocity": 0.7874015748031497
          },
          {
            "duration": 0.4437870000000004,
            "durationTicks": 384,
            "midi": 53,
            "name": "F3",
            "ticks": 8064,
            "time": 9.319526999999999,
            "velocity": 0.7874015748031497
          },
          {
            "duration": 0.4437870000000004,
            "durationTicks": 384,
            "midi": 36,
            "name": "C2",
            "ticks": 8448,
            "time": 9.763314,
            "velocity": 0.7874015748031497
          },
          {
            "duration": 0.4437870000000004,
            "durationTicks": 384,
            "midi": 53,
            "name": "F3",
            "ticks": 8448,
            "time": 9.763314,
            "velocity": 0.7874015748031497
          },
          {
            "duration": 0.4437870000000004,
            "durationTicks": 384,
            "midi": 40,
            "name": "E2",
            "ticks": 8832,
            "time": 10.207101,
            "velocity": 0.7874015748031497
          },
          {
            "duration": 0.4437870000000004,
            "durationTicks": 384,
            "midi": 53,
            "name": "F3",
            "ticks": 8832,
            "time": 10.207101,
            "velocity": 0.7874015748031497
          },
          {
            "duration": 0.4437870000000004,
            "durationTicks": 384,
            "midi": 49,
            "name": "C#3",
            "ticks": 9216,
            "time": 10.650888,
            "velocity": 0.7874015748031497
          },
          {
            "duration": 0.4437870000000004,
            "durationTicks": 384,
            "midi": 36,
            "name": "C2",
            "ticks": 9216,
            "time": 10.650888,
            "velocity": 0.7874015748031497
          },
          {
            "duration": 0.4437869999999986,
            "durationTicks": 384,
            "midi": 40,
            "name": "E2",
            "ticks": 9600,
            "time": 11.094675,
            "velocity": 0.7874015748031497
          },
          {
            "duration": 0.4437869999999986,
            "durationTicks": 384,
            "midi": 53,
            "name": "F3",
            "ticks": 9600,
            "time": 11.094675,
            "velocity": 0.7874015748031497
          },
          {
            "duration": 0.2218935000000002,
            "durationTicks": 192,
            "midi": 36,
            "name": "C2",
            "ticks": 9984,
            "time": 11.538461999999999,
            "velocity": 0.7874015748031497
          },
          {
            "duration": 0.4437870000000004,
            "durationTicks": 384,
            "midi": 53,
            "name": "F3",
            "ticks": 9984,
            "time": 11.538461999999999,
            "velocity": 0.7874015748031497
          },
          {
            "duration": 0.2218935000000002,
            "durationTicks": 192,
            "midi": 36,
            "name": "C2",
            "ticks": 10176,
            "time": 11.7603555,
            "velocity": 0.7874015748031497
          },
          {
            "duration": 0.4437870000000004,
            "durationTicks": 384,
            "midi": 40,
            "name": "E2",
            "ticks": 10368,
            "time": 11.982249,
            "velocity": 0.7874015748031497
          },
          {
            "duration": 0.4437870000000004,
            "durationTicks": 384,
            "midi": 53,
            "name": "F3",
            "ticks": 10368,
            "time": 11.982249,
            "velocity": 0.7874015748031497
          },
          {
            "duration": 0.4437870000000004,
            "durationTicks": 384,
            "midi": 36,
            "name": "C2",
            "ticks": 10752,
            "time": 12.426036,
            "velocity": 0.7874015748031497
          },
          {
            "duration": 0.4437870000000004,
            "durationTicks": 384,
            "midi": 53,
            "name": "F3",
            "ticks": 10752,
            "time": 12.426036,
            "velocity": 0.7874015748031497
          },
          {
            "duration": 0.4437869999999986,
            "durationTicks": 384,
            "midi": 40,
            "name": "E2",
            "ticks": 11136,
            "time": 12.869823,
            "velocity": 0.7874015748031497
          },
          {
            "duration": 0.4437869999999986,
            "durationTicks": 384,
            "midi": 53,
            "name": "F3",
            "ticks": 11136,
            "time": 12.869823,
            "velocity": 0.7874015748031497
          },
          {
            "duration": 0.4437870000000004,
            "durationTicks": 384,
            "midi": 36,
            "name": "C2",
            "ticks": 11520,
            "time": 13.313609999999999,
            "velocity": 0.7874015748031497
          },
          {
            "duration": 0.4437870000000004,
            "durationTicks": 384,
            "midi": 53,
            "name": "F3",
            "ticks": 11520,
            "time": 13.313609999999999,
            "velocity": 0.7874015748031497
          },
          {
            "duration": 0.4437870000000004,
            "durationTicks": 384,
            "midi": 40,
            "name": "E2",
            "ticks": 11904,
            "time": 13.757397,
            "velocity": 0.7874015748031497
          },
          {
            "duration": 0.4437870000000004,
            "durationTicks": 384,
            "midi": 53,
            "name": "F3",
            "ticks": 11904,
            "time": 13.757397,
            "velocity": 0.7874015748031497
          },
          {
            "duration": 0.4437870000000004,
            "durationTicks": 384,
            "midi": 36,
            "name": "C2",
            "ticks": 12288,
            "time": 14.201184,
            "velocity": 0.7874015748031497
          },
          {
            "duration": 0.4437870000000004,
            "durationTicks": 384,
            "midi": 53,
            "name": "F3",
            "ticks": 12288,
            "time": 14.201184,
            "velocity": 0.7874015748031497
          },
          {
            "duration": 0.4437870000000004,
            "durationTicks": 384,
            "midi": 40,
            "name": "E2",
            "ticks": 12672,
            "time": 14.644971,
            "velocity": 0.7874015748031497
          },
          {
            "duration": 0.4437870000000004,
            "durationTicks": 384,
            "midi": 53,
            "name": "F3",
            "ticks": 12672,
            "time": 14.644971,
            "velocity": 0.7874015748031497
          },
          {
            "duration": 0.2218934999999984,
            "durationTicks": 192,
            "midi": 36,
            "name": "C2",
            "ticks": 13056,
            "time": 15.088758,
            "velocity": 0.7874015748031497
          },
          {
            "duration": 0.4437869999999986,
            "durationTicks": 384,
            "midi": 53,
            "name": "F3",
            "ticks": 13056,
            "time": 15.088758,
            "velocity": 0.7874015748031497
          },
          {
            "duration": 0.2218935000000002,
            "durationTicks": 192,
            "midi": 36,
            "name": "C2",
            "ticks": 13248,
            "time": 15.310651499999999,
            "velocity": 0.7874015748031497
          },
          {
            "duration": 0.4437870000000004,
            "durationTicks": 384,
            "midi": 40,
            "name": "E2",
            "ticks": 13440,
            "time": 15.532544999999999,
            "velocity": 0.7874015748031497
          },
          {
            "duration": 0.4437870000000004,
            "durationTicks": 384,
            "midi": 53,
            "name": "F3",
            "ticks": 13440,
            "time": 15.532544999999999,
            "velocity": 0.7874015748031497
          },
          {
            "duration": 0.4437870000000004,
            "durationTicks": 384,
            "midi": 36,
            "name": "C2",
            "ticks": 13824,
            "time": 15.976332,
            "velocity": 0.7874015748031497
          },
          {
            "duration": 0.4437870000000004,
            "durationTicks": 384,
            "midi": 53,
            "name": "F3",
            "ticks": 13824,
            "time": 15.976332,
            "velocity": 0.7874015748031497
          },
          {
            "duration": 0.4437870000000004,
            "durationTicks": 384,
            "midi": 40,
            "name": "E2",
            "ticks": 14208,
            "time": 16.420119,
            "velocity": 0.7874015748031497
          },
          {
            "duration": 0.4437870000000004,
            "durationTicks": 384,
            "midi": 53,
            "name": "F3",
            "ticks": 14208,
            "time": 16.420119,
            "velocity": 0.7874015748031497
          },
          {
            "duration": 0.4437870000000004,
            "durationTicks": 384,
            "midi": 36,
            "name": "C2",
            "ticks": 14592,
            "time": 16.863906,
            "velocity": 0.7874015748031497
          },
          {
            "duration": 0.4437870000000004,
            "durationTicks": 384,
            "midi": 53,
            "name": "F3",
            "ticks": 14592,
            "time": 16.863906,
            "velocity": 0.7874015748031497
          },
          {
            "duration": 0.4437870000000004,
            "durationTicks": 384,
            "midi": 40,
            "name": "E2",
            "ticks": 14976,
            "time": 17.307693,
            "velocity": 0.7874015748031497
          },
          {
            "duration": 0.4437870000000004,
            "durationTicks": 384,
            "midi": 53,
            "name": "F3",
            "ticks": 14976,
            "time": 17.307693,
            "velocity": 0.7874015748031497
          },
          {
            "duration": 0.4437870000000004,
            "durationTicks": 384,
            "midi": 42,
            "name": "F#2",
            "ticks": 15360,
            "time": 17.75148,
            "velocity": 0.7874015748031497
          },
          {
            "duration": 0.4437870000000004,
            "durationTicks": 384,
            "midi": 36,
            "name": "C2",
            "ticks": 15360,
            "time": 17.75148,
            "velocity": 0.7874015748031497
          },
          {
            "duration": 0.4437869999999968,
            "durationTicks": 384,
            "midi": 42,
            "name": "F#2",
            "ticks": 15744,
            "time": 18.195267,
            "velocity": 0.7874015748031497
          },
          {
            "duration": 0.4437869999999968,
            "durationTicks": 384,
            "midi": 40,
            "name": "E2",
            "ticks": 15744,
            "time": 18.195267,
            "velocity": 0.7874015748031497
          },
          {
            "duration": 0.4437870000000004,
            "durationTicks": 384,
            "midi": 42,
            "name": "F#2",
            "ticks": 16128,
            "time": 18.639053999999998,
            "velocity": 0.7874015748031497
          },
          {
            "duration": 0.2218935000000002,
            "durationTicks": 192,
            "midi": 36,
            "name": "C2",
            "ticks": 16128,
            "time": 18.639053999999998,
            "velocity": 0.7874015748031497
          },
          {
            "duration": 0.2218935000000002,
            "durationTicks": 192,
            "midi": 36,
            "name": "C2",
            "ticks": 16320,
            "time": 18.860947499999998,
            "velocity": 0.7874015748031497
          },
          {
            "duration": 0.4437870000000004,
            "durationTicks": 384,
            "midi": 42,
            "name": "F#2",
            "ticks": 16512,
            "time": 19.082841,
            "velocity": 0.7874015748031497
          },
          {
            "duration": 0.4437870000000004,
            "durationTicks": 384,
            "midi": 40,
            "name": "E2",
            "ticks": 16512,
            "time": 19.082841,
            "velocity": 0.7874015748031497
          },
          {
            "duration": 0.4437870000000004,
            "durationTicks": 384,
            "midi": 42,
            "name": "F#2",
            "ticks": 16896,
            "time": 19.526628,
            "velocity": 0.7874015748031497
          },
          {
            "duration": 0.4437870000000004,
            "durationTicks": 384,
            "midi": 36,
            "name": "C2",
            "ticks": 16896,
            "time": 19.526628,
            "velocity": 0.7874015748031497
          },
          {
            "duration": 0.4437870000000004,
            "durationTicks": 384,
            "midi": 42,
            "name": "F#2",
            "ticks": 17280,
            "time": 19.970415,
            "velocity": 0.7874015748031497
          },
          {
            "duration": 0.4437870000000004,
            "durationTicks": 384,
            "midi": 40,
            "name": "E2",
            "ticks": 17280,
            "time": 19.970415,
            "velocity": 0.7874015748031497
          },
          {
            "duration": 0.4437870000000004,
            "durationTicks": 384,
            "midi": 42,
            "name": "F#2",
            "ticks": 17664,
            "time": 20.414202,
            "velocity": 0.7874015748031497
          },
          {
            "duration": 0.4437870000000004,
            "durationTicks": 384,
            "midi": 36,
            "name": "C2",
            "ticks": 17664,
            "time": 20.414202,
            "velocity": 0.7874015748031497
          },
          {
            "duration": 0.4437870000000004,
            "durationTicks": 384,
            "midi": 42,
            "name": "F#2",
            "ticks": 18048,
            "time": 20.857989,
            "velocity": 0.7874015748031497
          },
          {
            "duration": 0.4437870000000004,
            "durationTicks": 384,
            "midi": 40,
            "name": "E2",
            "ticks": 18048,
            "time": 20.857989,
            "velocity": 0.7874015748031497
          },
          {
            "duration": 0.4437870000000004,
            "durationTicks": 384,
            "midi": 49,
            "name": "C#3",
            "ticks": 18432,
            "time": 21.301776,
            "velocity": 0.7874015748031497
          },
          {
            "duration": 0.4437870000000004,
            "durationTicks": 384,
            "midi": 36,
            "name": "C2",
            "ticks": 18432,
            "time": 21.301776,
            "velocity": 0.7874015748031497
          },
          {
            "duration": 0.4437870000000004,
            "durationTicks": 384,
            "midi": 40,
            "name": "E2",
            "ticks": 18816,
            "time": 21.745563,
            "velocity": 0.7874015748031497
          },
          {
            "duration": 0.4437870000000004,
            "durationTicks": 384,
            "midi": 53,
            "name": "F3",
            "ticks": 18816,
            "time": 21.745563,
            "velocity": 0.7874015748031497
          },
          {
            "duration": 0.22189349999999664,
            "durationTicks": 192,
            "midi": 36,
            "name": "C2",
            "ticks": 19200,
            "time": 22.18935,
            "velocity": 0.7874015748031497
          },
          {
            "duration": 0.4437869999999968,
            "durationTicks": 384,
            "midi": 53,
            "name": "F3",
            "ticks": 19200,
            "time": 22.18935,
            "velocity": 0.7874015748031497
          },
          {
            "duration": 0.2218935000000002,
            "durationTicks": 192,
            "midi": 36,
            "name": "C2",
            "ticks": 19392,
            "time": 22.411243499999998,
            "velocity": 0.7874015748031497
          },
          {
            "duration": 0.4437870000000004,
            "durationTicks": 384,
            "midi": 40,
            "name": "E2",
            "ticks": 19584,
            "time": 22.633136999999998,
            "velocity": 0.7874015748031497
          },
          {
            "duration": 0.4437870000000004,
            "durationTicks": 384,
            "midi": 53,
            "name": "F3",
            "ticks": 19584,
            "time": 22.633136999999998,
            "velocity": 0.7874015748031497
          },
          {
            "duration": 0.4437870000000004,
            "durationTicks": 384,
            "midi": 36,
            "name": "C2",
            "ticks": 19968,
            "time": 23.076923999999998,
            "velocity": 0.7874015748031497
          },
          {
            "duration": 0.4437870000000004,
            "durationTicks": 384,
            "midi": 53,
            "name": "F3",
            "ticks": 19968,
            "time": 23.076923999999998,
            "velocity": 0.7874015748031497
          },
          {
            "duration": 0.4437870000000004,
            "durationTicks": 384,
            "midi": 40,
            "name": "E2",
            "ticks": 20352,
            "time": 23.520711,
            "velocity": 0.7874015748031497
          },
          {
            "duration": 0.4437870000000004,
            "durationTicks": 384,
            "midi": 53,
            "name": "F3",
            "ticks": 20352,
            "time": 23.520711,
            "velocity": 0.7874015748031497
          },
          {
            "duration": 0.2218935000000002,
            "durationTicks": 192,
            "midi": 36,
            "name": "C2",
            "ticks": 20736,
            "time": 23.964498,
            "velocity": 0.7874015748031497
          },
          {
            "duration": 0.4437870000000004,
            "durationTicks": 384,
            "midi": 53,
            "name": "F3",
            "ticks": 20736,
            "time": 23.964498,
            "velocity": 0.7874015748031497
          },
          {
            "duration": 0.2218935000000002,
            "durationTicks": 192,
            "midi": 36,
            "name": "C2",
            "ticks": 20928,
            "time": 24.1863915,
            "velocity": 0.7874015748031497
          },
          {
            "duration": 0.4437870000000004,
            "durationTicks": 384,
            "midi": 40,
            "name": "E2",
            "ticks": 21120,
            "time": 24.408285,
            "velocity": 0.7874015748031497
          },
          {
            "duration": 0.4437870000000004,
            "durationTicks": 384,
            "midi": 53,
            "name": "F3",
            "ticks": 21120,
            "time": 24.408285,
            "velocity": 0.7874015748031497
          },
          {
            "duration": 0.4437870000000004,
            "durationTicks": 384,
            "midi": 42,
            "name": "F#2",
            "ticks": 21504,
            "time": 24.852072,
            "velocity": 0.7874015748031497
          },
          {
            "duration": 0.4437870000000004,
            "durationTicks": 384,
            "midi": 36,
            "name": "C2",
            "ticks": 21504,
            "time": 24.852072,
            "velocity": 0.7874015748031497
          },
          {
            "duration": 0.4437870000000004,
            "durationTicks": 384,
            "midi": 42,
            "name": "F#2",
            "ticks": 21888,
            "time": 25.295859,
            "velocity": 0.7874015748031497
          },
          {
            "duration": 0.4437870000000004,
            "durationTicks": 384,
            "midi": 40,
            "name": "E2",
            "ticks": 21888,
            "time": 25.295859,
            "velocity": 0.7874015748031497
          },
          {
            "duration": 0.4437870000000004,
            "durationTicks": 384,
            "midi": 42,
            "name": "F#2",
            "ticks": 22272,
            "time": 25.739646,
            "velocity": 0.7874015748031497
          },
          {
            "duration": 0.2218935000000002,
            "durationTicks": 192,
            "midi": 36,
            "name": "C2",
            "ticks": 22272,
            "time": 25.739646,
            "velocity": 0.7874015748031497
          },
          {
            "duration": 0.2218935000000002,
            "durationTicks": 192,
            "midi": 36,
            "name": "C2",
            "ticks": 22464,
            "time": 25.9615395,
            "velocity": 0.7874015748031497
          },
          {
            "duration": 0.4437869999999968,
            "durationTicks": 384,
            "midi": 42,
            "name": "F#2",
            "ticks": 22656,
            "time": 26.183433,
            "velocity": 0.7874015748031497
          },
          {
            "duration": 0.4437869999999968,
            "durationTicks": 384,
            "midi": 40,
            "name": "E2",
            "ticks": 22656,
            "time": 26.183433,
            "velocity": 0.7874015748031497
          },
          {
            "duration": 0.4437870000000004,
            "durationTicks": 384,
            "midi": 42,
            "name": "F#2",
            "ticks": 23040,
            "time": 26.627219999999998,
            "velocity": 0.7874015748031497
          },
          {
            "duration": 0.4437870000000004,
            "durationTicks": 384,
            "midi": 36,
            "name": "C2",
            "ticks": 23040,
            "time": 26.627219999999998,
            "velocity": 0.7874015748031497
          },
          {
            "duration": 0.4437870000000004,
            "durationTicks": 384,
            "midi": 42,
            "name": "F#2",
            "ticks": 23424,
            "time": 27.071006999999998,
            "velocity": 0.7874015748031497
          },
          {
            "duration": 0.4437870000000004,
            "durationTicks": 384,
            "midi": 40,
            "name": "E2",
            "ticks": 23424,
            "time": 27.071006999999998,
            "velocity": 0.7874015748031497
          },
          {
            "duration": 0.4437870000000004,
            "durationTicks": 384,
            "midi": 42,
            "name": "F#2",
            "ticks": 23808,
            "time": 27.514794,
            "velocity": 0.7874015748031497
          },
          {
            "duration": 0.4437870000000004,
            "durationTicks": 384,
            "midi": 36,
            "name": "C2",
            "ticks": 23808,
            "time": 27.514794,
            "velocity": 0.7874015748031497
          },
          {
            "duration": 0.4437870000000004,
            "durationTicks": 384,
            "midi": 42,
            "name": "F#2",
            "ticks": 24192,
            "time": 27.958581,
            "velocity": 0.7874015748031497
          },
          {
            "duration": 0.4437870000000004,
            "durationTicks": 384,
            "midi": 40,
            "name": "E2",
            "ticks": 24192,
            "time": 27.958581,
            "velocity": 0.7874015748031497
          },
          {
            "duration": 0.4437870000000004,
            "durationTicks": 384,
            "midi": 49,
            "name": "C#3",
            "ticks": 24576,
            "time": 28.402368,
            "velocity": 0.7874015748031497
          },
          {
            "duration": 0.4437870000000004,
            "durationTicks": 384,
            "midi": 36,
            "name": "C2",
            "ticks": 24576,
            "time": 28.402368,
            "velocity": 0.7874015748031497
          },
          {
            "duration": 0.4437870000000004,
            "durationTicks": 384,
            "midi": 40,
            "name": "E2",
            "ticks": 24960,
            "time": 28.846155,
            "velocity": 0.7874015748031497
          },
          {
            "duration": 0.4437870000000004,
            "durationTicks": 384,
            "midi": 53,
            "name": "F3",
            "ticks": 24960,
            "time": 28.846155,
            "velocity": 0.7874015748031497
          },
          {
            "duration": 0.2218935000000002,
            "durationTicks": 192,
            "midi": 36,
            "name": "C2",
            "ticks": 25344,
            "time": 29.289942,
            "velocity": 0.7874015748031497
          },
          {
            "duration": 0.4437870000000004,
            "durationTicks": 384,
            "midi": 53,
            "name": "F3",
            "ticks": 25344,
            "time": 29.289942,
            "velocity": 0.7874015748031497
          },
          {
            "duration": 0.2218935000000002,
            "durationTicks": 192,
            "midi": 36,
            "name": "C2",
            "ticks": 25536,
            "time": 29.5118355,
            "velocity": 0.7874015748031497
          },
          {
            "duration": 0.4437870000000004,
            "durationTicks": 384,
            "midi": 40,
            "name": "E2",
            "ticks": 25728,
            "time": 29.733729,
            "velocity": 0.7874015748031497
          },
          {
            "duration": 0.4437870000000004,
            "durationTicks": 384,
            "midi": 53,
            "name": "F3",
            "ticks": 25728,
            "time": 29.733729,
            "velocity": 0.7874015748031497
          },
          {
            "duration": 0.4437869999999968,
            "durationTicks": 384,
            "midi": 36,
            "name": "C2",
            "ticks": 26112,
            "time": 30.177516,
            "velocity": 0.7874015748031497
          },
          {
            "duration": 0.4437869999999968,
            "durationTicks": 384,
            "midi": 53,
            "name": "F3",
            "ticks": 26112,
            "time": 30.177516,
            "velocity": 0.7874015748031497
          },
          {
            "duration": 0.4437870000000004,
            "durationTicks": 384,
            "midi": 40,
            "name": "E2",
            "ticks": 26496,
            "time": 30.621302999999997,
            "velocity": 0.7874015748031497
          },
          {
            "duration": 0.4437870000000004,
            "durationTicks": 384,
            "midi": 53,
            "name": "F3",
            "ticks": 26496,
            "time": 30.621302999999997,
            "velocity": 0.7874015748031497
          },
          {
            "duration": 0.2218935000000002,
            "durationTicks": 192,
            "midi": 36,
            "name": "C2",
            "ticks": 26880,
            "time": 31.065089999999998,
            "velocity": 0.7874015748031497
          },
          {
            "duration": 0.4437870000000004,
            "durationTicks": 384,
            "midi": 53,
            "name": "F3",
            "ticks": 26880,
            "time": 31.065089999999998,
            "velocity": 0.7874015748031497
          },
          {
            "duration": 0.2218935000000002,
            "durationTicks": 192,
            "midi": 36,
            "name": "C2",
            "ticks": 27072,
            "time": 31.286983499999998,
            "velocity": 0.7874015748031497
          },
          {
            "duration": 0.4437870000000004,
            "durationTicks": 384,
            "midi": 40,
            "name": "E2",
            "ticks": 27264,
            "time": 31.508877,
            "velocity": 0.7874015748031497
          },
          {
            "duration": 0.4437870000000004,
            "durationTicks": 384,
            "midi": 53,
            "name": "F3",
            "ticks": 27264,
            "time": 31.508877,
            "velocity": 0.7874015748031497
          },
          {
            "duration": 0.4437870000000004,
            "durationTicks": 384,
            "midi": 42,
            "name": "F#2",
            "ticks": 27648,
            "time": 31.952664,
            "velocity": 0.7874015748031497
          },
          {
            "duration": 0.4437870000000004,
            "durationTicks": 384,
            "midi": 36,
            "name": "C2",
            "ticks": 27648,
            "time": 31.952664,
            "velocity": 0.7874015748031497
          },
          {
            "duration": 0.4437870000000004,
            "durationTicks": 384,
            "midi": 42,
            "name": "F#2",
            "ticks": 28032,
            "time": 32.396451,
            "velocity": 0.7874015748031497
          },
          {
            "duration": 0.4437870000000004,
            "durationTicks": 384,
            "midi": 40,
            "name": "E2",
            "ticks": 28032,
            "time": 32.396451,
            "velocity": 0.7874015748031497
          },
          {
            "duration": 0.4437870000000004,
            "durationTicks": 384,
            "midi": 42,
            "name": "F#2",
            "ticks": 28416,
            "time": 32.840238,
            "velocity": 0.7874015748031497
          },
          {
            "duration": 0.2218935000000002,
            "durationTicks": 192,
            "midi": 36,
            "name": "C2",
            "ticks": 28416,
            "time": 32.840238,
            "velocity": 0.7874015748031497
          },
          {
            "duration": 0.2218935000000002,
            "durationTicks": 192,
            "midi": 36,
            "name": "C2",
            "ticks": 28608,
            "time": 33.0621315,
            "velocity": 0.7874015748031497
          },
          {
            "duration": 0.4437870000000004,
            "durationTicks": 384,
            "midi": 42,
            "name": "F#2",
            "ticks": 28800,
            "time": 33.284025,
            "velocity": 0.7874015748031497
          },
          {
            "duration": 0.4437870000000004,
            "durationTicks": 384,
            "midi": 40,
            "name": "E2",
            "ticks": 28800,
            "time": 33.284025,
            "velocity": 0.7874015748031497
          },
          {
            "duration": 0.4437870000000004,
            "durationTicks": 384,
            "midi": 42,
            "name": "F#2",
            "ticks": 29184,
            "time": 33.727812,
            "velocity": 0.7874015748031497
          },
          {
            "duration": 0.4437870000000004,
            "durationTicks": 384,
            "midi": 36,
            "name": "C2",
            "ticks": 29184,
            "time": 33.727812,
            "velocity": 0.7874015748031497
          },
          {
            "duration": 0.4437870000000004,
            "durationTicks": 384,
            "midi": 42,
            "name": "F#2",
            "ticks": 29568,
            "time": 34.171599,
            "velocity": 0.7874015748031497
          },
          {
            "duration": 0.4437870000000004,
            "durationTicks": 384,
            "midi": 40,
            "name": "E2",
            "ticks": 29568,
            "time": 34.171599,
            "velocity": 0.7874015748031497
          },
          {
            "duration": 0.4437870000000004,
            "durationTicks": 384,
            "midi": 42,
            "name": "F#2",
            "ticks": 29952,
            "time": 34.615386,
            "velocity": 0.7874015748031497
          },
          {
            "duration": 0.4437870000000004,
            "durationTicks": 384,
            "midi": 36,
            "name": "C2",
            "ticks": 29952,
            "time": 34.615386,
            "velocity": 0.7874015748031497
          },
          {
            "duration": 0.4437870000000004,
            "durationTicks": 384,
            "midi": 42,
            "name": "F#2",
            "ticks": 30336,
            "time": 35.059173,
            "velocity": 0.7874015748031497
          },
          {
            "duration": 0.4437870000000004,
            "durationTicks": 384,
            "midi": 40,
            "name": "E2",
            "ticks": 30336,
            "time": 35.059173,
            "velocity": 0.7874015748031497
          },
          {
            "duration": 0.4437870000000004,
            "durationTicks": 384,
            "midi": 49,
            "name": "C#3",
            "ticks": 30720,
            "time": 35.50296,
            "velocity": 0.7874015748031497
          },
          {
            "duration": 0.4437870000000004,
            "durationTicks": 384,
            "midi": 36,
            "name": "C2",
            "ticks": 30720,
            "time": 35.50296,
            "velocity": 0.7874015748031497
          },
          {
            "duration": 0.4437870000000004,
            "durationTicks": 384,
            "midi": 40,
            "name": "E2",
            "ticks": 31104,
            "time": 35.946747,
            "velocity": 0.7874015748031497
          },
          {
            "duration": 0.4437870000000004,
            "durationTicks": 384,
            "midi": 53,
            "name": "F3",
            "ticks": 31104,
            "time": 35.946747,
            "velocity": 0.7874015748031497
          },
          {
            "duration": 0.22189349999999308,
            "durationTicks": 192,
            "midi": 36,
            "name": "C2",
            "ticks": 31488,
            "time": 36.390534,
            "velocity": 0.7874015748031497
          },
          {
            "duration": 0.44378699999999327,
            "durationTicks": 384,
            "midi": 53,
            "name": "F3",
            "ticks": 31488,
            "time": 36.390534,
            "velocity": 0.7874015748031497
          },
          {
            "duration": 0.2218935000000002,
            "durationTicks": 192,
            "midi": 36,
            "name": "C2",
            "ticks": 31680,
            "time": 36.612427499999995,
            "velocity": 0.7874015748031497
          },
          {
            "duration": 0.4437870000000004,
            "durationTicks": 384,
            "midi": 40,
            "name": "E2",
            "ticks": 31872,
            "time": 36.834320999999996,
            "velocity": 0.7874015748031497
          },
          {
            "duration": 0.4437870000000004,
            "durationTicks": 384,
            "midi": 53,
            "name": "F3",
            "ticks": 31872,
            "time": 36.834320999999996,
            "velocity": 0.7874015748031497
          },
          {
            "duration": 0.4437870000000004,
            "durationTicks": 384,
            "midi": 36,
            "name": "C2",
            "ticks": 32256,
            "time": 37.278107999999996,
            "velocity": 0.7874015748031497
          },
          {
            "duration": 0.4437870000000004,
            "durationTicks": 384,
            "midi": 53,
            "name": "F3",
            "ticks": 32256,
            "time": 37.278107999999996,
            "velocity": 0.7874015748031497
          },
          {
            "duration": 0.4437870000000004,
            "durationTicks": 384,
            "midi": 40,
            "name": "E2",
            "ticks": 32640,
            "time": 37.721894999999996,
            "velocity": 0.7874015748031497
          },
          {
            "duration": 0.4437870000000004,
            "durationTicks": 384,
            "midi": 53,
            "name": "F3",
            "ticks": 32640,
            "time": 37.721894999999996,
            "velocity": 0.7874015748031497
          },
          {
            "duration": 0.2218935000000002,
            "durationTicks": 192,
            "midi": 36,
            "name": "C2",
            "ticks": 33024,
            "time": 38.165682,
            "velocity": 0.7874015748031497
          },
          {
            "duration": 0.4437870000000004,
            "durationTicks": 384,
            "midi": 53,
            "name": "F3",
            "ticks": 33024,
            "time": 38.165682,
            "velocity": 0.7874015748031497
          },
          {
            "duration": 0.2218935000000002,
            "durationTicks": 192,
            "midi": 36,
            "name": "C2",
            "ticks": 33216,
            "time": 38.3875755,
            "velocity": 0.7874015748031497
          },
          {
            "duration": 0.4437870000000004,
            "durationTicks": 384,
            "midi": 40,
            "name": "E2",
            "ticks": 33408,
            "time": 38.609469,
            "velocity": 0.7874015748031497
          },
          {
            "duration": 0.4437870000000004,
            "durationTicks": 384,
            "midi": 53,
            "name": "F3",
            "ticks": 33408,
            "time": 38.609469,
            "velocity": 0.7874015748031497
          },
          {
            "duration": 0.4437870000000004,
            "durationTicks": 384,
            "midi": 42,
            "name": "F#2",
            "ticks": 33792,
            "time": 39.053256,
            "velocity": 0.7874015748031497
          },
          {
            "duration": 0.4437870000000004,
            "durationTicks": 384,
            "midi": 36,
            "name": "C2",
            "ticks": 33792,
            "time": 39.053256,
            "velocity": 0.7874015748031497
          },
          {
            "duration": 0.4437870000000004,
            "durationTicks": 384,
            "midi": 42,
            "name": "F#2",
            "ticks": 34176,
            "time": 39.497043,
            "velocity": 0.7874015748031497
          },
          {
            "duration": 0.4437870000000004,
            "durationTicks": 384,
            "midi": 40,
            "name": "E2",
            "ticks": 34176,
            "time": 39.497043,
            "velocity": 0.7874015748031497
          },
          {
            "duration": 0.4437870000000004,
            "durationTicks": 384,
            "midi": 42,
            "name": "F#2",
            "ticks": 34560,
            "time": 39.94083,
            "velocity": 0.7874015748031497
          },
          {
            "duration": 0.2218935000000002,
            "durationTicks": 192,
            "midi": 36,
            "name": "C2",
            "ticks": 34560,
            "time": 39.94083,
            "velocity": 0.7874015748031497
          },
          {
            "duration": 0.2218935000000002,
            "durationTicks": 192,
            "midi": 36,
            "name": "C2",
            "ticks": 34752,
            "time": 40.1627235,
            "velocity": 0.7874015748031497
          },
          {
            "duration": 0.4437870000000004,
            "durationTicks": 384,
            "midi": 42,
            "name": "F#2",
            "ticks": 34944,
            "time": 40.384617,
            "velocity": 0.7874015748031497
          },
          {
            "duration": 0.4437870000000004,
            "durationTicks": 384,
            "midi": 40,
            "name": "E2",
            "ticks": 34944,
            "time": 40.384617,
            "velocity": 0.7874015748031497
          },
          {
            "duration": 0.4437870000000004,
            "durationTicks": 384,
            "midi": 42,
            "name": "F#2",
            "ticks": 35328,
            "time": 40.828404,
            "velocity": 0.7874015748031497
          },
          {
            "duration": 0.4437870000000004,
            "durationTicks": 384,
            "midi": 36,
            "name": "C2",
            "ticks": 35328,
            "time": 40.828404,
            "velocity": 0.7874015748031497
          },
          {
            "duration": 0.4437870000000004,
            "durationTicks": 384,
            "midi": 42,
            "name": "F#2",
            "ticks": 35712,
            "time": 41.272191,
            "velocity": 0.7874015748031497
          },
          {
            "duration": 0.4437870000000004,
            "durationTicks": 384,
            "midi": 40,
            "name": "E2",
            "ticks": 35712,
            "time": 41.272191,
            "velocity": 0.7874015748031497
          },
          {
            "duration": 0.4437870000000004,
            "durationTicks": 384,
            "midi": 42,
            "name": "F#2",
            "ticks": 36096,
            "time": 41.715978,
            "velocity": 0.7874015748031497
          },
          {
            "duration": 0.4437870000000004,
            "durationTicks": 384,
            "midi": 36,
            "name": "C2",
            "ticks": 36096,
            "time": 41.715978,
            "velocity": 0.7874015748031497
          },
          {
            "duration": 0.4437870000000004,
            "durationTicks": 384,
            "midi": 42,
            "name": "F#2",
            "ticks": 36480,
            "time": 42.159765,
            "velocity": 0.7874015748031497
          },
          {
            "duration": 0.4437870000000004,
            "durationTicks": 384,
            "midi": 40,
            "name": "E2",
            "ticks": 36480,
            "time": 42.159765,
            "velocity": 0.7874015748031497
          },
          {
            "duration": 0.4437870000000004,
            "durationTicks": 384,
            "midi": 49,
            "name": "C#3",
            "ticks": 36864,
            "time": 42.603552,
            "velocity": 0.7874015748031497
          },
          {
            "duration": 0.4437870000000004,
            "durationTicks": 384,
            "midi": 36,
            "name": "C2",
            "ticks": 36864,
            "time": 42.603552,
            "velocity": 0.7874015748031497
          },
          {
            "duration": 0.4437870000000004,
            "durationTicks": 384,
            "midi": 40,
            "name": "E2",
            "ticks": 37248,
            "time": 43.047339,
            "velocity": 0.7874015748031497
          },
          {
            "duration": 0.4437870000000004,
            "durationTicks": 384,
            "midi": 53,
            "name": "F3",
            "ticks": 37248,
            "time": 43.047339,
            "velocity": 0.7874015748031497
          },
          {
            "duration": 0.2218935000000002,
            "durationTicks": 192,
            "midi": 36,
            "name": "C2",
            "ticks": 37632,
            "time": 43.491126,
            "velocity": 0.7874015748031497
          },
          {
            "duration": 0.4437870000000004,
            "durationTicks": 384,
            "midi": 53,
            "name": "F3",
            "ticks": 37632,
            "time": 43.491126,
            "velocity": 0.7874015748031497
          },
          {
            "duration": 0.2218935000000002,
            "durationTicks": 192,
            "midi": 36,
            "name": "C2",
            "ticks": 37824,
            "time": 43.7130195,
            "velocity": 0.7874015748031497
          },
          {
            "duration": 0.4437870000000004,
            "durationTicks": 384,
            "midi": 40,
            "name": "E2",
            "ticks": 38016,
            "time": 43.934913,
            "velocity": 0.7874015748031497
          },
          {
            "duration": 0.4437870000000004,
            "durationTicks": 384,
            "midi": 53,
            "name": "F3",
            "ticks": 38016,
            "time": 43.934913,
            "velocity": 0.7874015748031497
          },
          {
            "duration": 2.2189349999999948,
            "durationTicks": 1920,
            "midi": 36,
            "name": "C2",
            "ticks": 38400,
            "time": 44.3787,
            "velocity": 0.7874015748031497
          },
          {
            "duration": 2.2189349999999948,
            "durationTicks": 1920,
            "midi": 53,
            "name": "F3",
            "ticks": 38400,
            "time": 44.3787,
            "velocity": 0.7874015748031497
          },
          {
            "duration": 0.4437870000000004,
            "durationTicks": 384,
            "midi": 49,
            "name": "C#3",
            "ticks": 40320,
            "time": 46.597635,
            "velocity": 0.7874015748031497
          },
          {
            "duration": 0.4437870000000004,
            "durationTicks": 384,
            "midi": 36,
            "name": "C2",
            "ticks": 40320,
            "time": 46.597635,
            "velocity": 0.7874015748031497
          },
          {
            "duration": 1.7751480000000015,
            "durationTicks": 1536,
            "midi": 49,
            "name": "C#3",
            "ticks": 40704,
            "time": 47.041422,
            "velocity": 0.7874015748031497
          },
          {
            "duration": 1.7751480000000015,
            "durationTicks": 1536,
            "midi": 36,
            "name": "C2",
            "ticks": 40704,
            "time": 47.041422,
            "velocity": 0.7874015748031497
          },
          {
            "duration": 0.8875740000000008,
            "durationTicks": 768,
            "midi": 49,
            "name": "C#3",
            "ticks": 42240,
            "time": 48.81657,
            "velocity": 0.7874015748031497
          },
          {
            "duration": 0.2218935000000002,
            "durationTicks": 192,
            "midi": 40,
            "name": "E2",
            "ticks": 42240,
            "time": 48.81657,
            "velocity": 0.7874015748031497
          },
          {
            "duration": 0.2218935000000002,
            "durationTicks": 192,
            "midi": 40,
            "name": "E2",
            "ticks": 42432,
            "time": 49.0384635,
            "velocity": 0.7874015748031497
          },
          {
            "duration": 0.11094674999999654,
            "durationTicks": 96,
            "midi": 40,
            "name": "E2",
            "ticks": 42624,
            "time": 49.260357,
            "velocity": 0.7874015748031497
          },
          {
            "duration": 0.11094675000000365,
            "durationTicks": 96,
            "midi": 40,
            "name": "E2",
            "ticks": 42720,
            "time": 49.371303749999996,
            "velocity": 0.7874015748031497
          },
          {
            "duration": 0.11094674999999654,
            "durationTicks": 96,
            "midi": 40,
            "name": "E2",
            "ticks": 42816,
            "time": 49.4822505,
            "velocity": 0.7874015748031497
          },
          {
            "duration": 0.11094675000000365,
            "durationTicks": 96,
            "midi": 40,
            "name": "E2",
            "ticks": 42912,
            "time": 49.593197249999996,
            "velocity": 0.7874015748031497
          },
          {
            "duration": 0.4437870000000004,
            "durationTicks": 384,
            "midi": 49,
            "name": "C#3",
            "ticks": 43008,
            "time": 49.704144,
            "velocity": 0.7874015748031497
          },
          {
            "duration": 0.4437870000000004,
            "durationTicks": 384,
            "midi": 36,
            "name": "C2",
            "ticks": 43008,
            "time": 49.704144,
            "velocity": 0.7874015748031497
          },
          {
            "duration": 0.4437870000000004,
            "durationTicks": 384,
            "midi": 40,
            "name": "E2",
            "ticks": 43392,
            "time": 50.147931,
            "velocity": 0.7874015748031497
          },
          {
            "duration": 0.4437870000000004,
            "durationTicks": 384,
            "midi": 53,
            "name": "F3",
            "ticks": 43392,
            "time": 50.147931,
            "velocity": 0.7874015748031497
          },
          {
            "duration": 0.2218935000000002,
            "durationTicks": 192,
            "midi": 36,
            "name": "C2",
            "ticks": 43776,
            "time": 50.591718,
            "velocity": 0.7874015748031497
          },
          {
            "duration": 0.4437870000000004,
            "durationTicks": 384,
            "midi": 53,
            "name": "F3",
            "ticks": 43776,
            "time": 50.591718,
            "velocity": 0.7874015748031497
          },
          {
            "duration": 0.2218935000000002,
            "durationTicks": 192,
            "midi": 36,
            "name": "C2",
            "ticks": 43968,
            "time": 50.8136115,
            "velocity": 0.7874015748031497
          },
          {
            "duration": 0.4437870000000004,
            "durationTicks": 384,
            "midi": 40,
            "name": "E2",
            "ticks": 44160,
            "time": 51.035505,
            "velocity": 0.7874015748031497
          },
          {
            "duration": 0.4437870000000004,
            "durationTicks": 384,
            "midi": 53,
            "name": "F3",
            "ticks": 44160,
            "time": 51.035505,
            "velocity": 0.7874015748031497
          },
          {
            "duration": 0.4437870000000004,
            "durationTicks": 384,
            "midi": 36,
            "name": "C2",
            "ticks": 44544,
            "time": 51.479292,
            "velocity": 0.7874015748031497
          },
          {
            "duration": 0.4437870000000004,
            "durationTicks": 384,
            "midi": 53,
            "name": "F3",
            "ticks": 44544,
            "time": 51.479292,
            "velocity": 0.7874015748031497
          },
          {
            "duration": 0.4437870000000004,
            "durationTicks": 384,
            "midi": 40,
            "name": "E2",
            "ticks": 44928,
            "time": 51.923079,
            "velocity": 0.7874015748031497
          },
          {
            "duration": 0.4437870000000004,
            "durationTicks": 384,
            "midi": 53,
            "name": "F3",
            "ticks": 44928,
            "time": 51.923079,
            "velocity": 0.7874015748031497
          },
          {
            "duration": 0.44378699999999327,
            "durationTicks": 384,
            "midi": 36,
            "name": "C2",
            "ticks": 45312,
            "time": 52.366866,
            "velocity": 0.7874015748031497
          },
          {
            "duration": 0.44378699999999327,
            "durationTicks": 384,
            "midi": 53,
            "name": "F3",
            "ticks": 45312,
            "time": 52.366866,
            "velocity": 0.7874015748031497
          },
          {
            "duration": 0.4437870000000004,
            "durationTicks": 384,
            "midi": 40,
            "name": "E2",
            "ticks": 45696,
            "time": 52.810652999999995,
            "velocity": 0.7874015748031497
          },
          {
            "duration": 0.4437870000000004,
            "durationTicks": 384,
            "midi": 53,
            "name": "F3",
            "ticks": 45696,
            "time": 52.810652999999995,
            "velocity": 0.7874015748031497
          },
          {
            "duration": 0.4437870000000004,
            "durationTicks": 384,
            "midi": 36,
            "name": "C2",
            "ticks": 46080,
            "time": 53.254439999999995,
            "velocity": 0.7874015748031497
          },
          {
            "duration": 0.4437870000000004,
            "durationTicks": 384,
            "midi": 53,
            "name": "F3",
            "ticks": 46080,
            "time": 53.254439999999995,
            "velocity": 0.7874015748031497
          },
          {
            "duration": 0.4437870000000004,
            "durationTicks": 384,
            "midi": 40,
            "name": "E2",
            "ticks": 46464,
            "time": 53.698226999999996,
            "velocity": 0.7874015748031497
          },
          {
            "duration": 0.4437870000000004,
            "durationTicks": 384,
            "midi": 53,
            "name": "F3",
            "ticks": 46464,
            "time": 53.698226999999996,
            "velocity": 0.7874015748031497
          },
          {
            "duration": 0.2218935000000002,
            "durationTicks": 192,
            "midi": 36,
            "name": "C2",
            "ticks": 46848,
            "time": 54.142013999999996,
            "velocity": 0.7874015748031497
          },
          {
            "duration": 0.4437870000000004,
            "durationTicks": 384,
            "midi": 53,
            "name": "F3",
            "ticks": 46848,
            "time": 54.142013999999996,
            "velocity": 0.7874015748031497
          },
          {
            "duration": 0.2218935000000002,
            "durationTicks": 192,
            "midi": 36,
            "name": "C2",
            "ticks": 47040,
            "time": 54.363907499999996,
            "velocity": 0.7874015748031497
          },
          {
            "duration": 0.4437870000000004,
            "durationTicks": 384,
            "midi": 40,
            "name": "E2",
            "ticks": 47232,
            "time": 54.585801,
            "velocity": 0.7874015748031497
          },
          {
            "duration": 0.4437870000000004,
            "durationTicks": 384,
            "midi": 53,
            "name": "F3",
            "ticks": 47232,
            "time": 54.585801,
            "velocity": 0.7874015748031497
          },
          {
            "duration": 0.4437870000000004,
            "durationTicks": 384,
            "midi": 36,
            "name": "C2",
            "ticks": 47616,
            "time": 55.029588,
            "velocity": 0.7874015748031497
          },
          {
            "duration": 0.4437870000000004,
            "durationTicks": 384,
            "midi": 53,
            "name": "F3",
            "ticks": 47616,
            "time": 55.029588,
            "velocity": 0.7874015748031497
          },
          {
            "duration": 0.4437870000000004,
            "durationTicks": 384,
            "midi": 40,
            "name": "E2",
            "ticks": 48000,
            "time": 55.473375,
            "velocity": 0.7874015748031497
          },
          {
            "duration": 0.4437870000000004,
            "durationTicks": 384,
            "midi": 53,
            "name": "F3",
            "ticks": 48000,
            "time": 55.473375,
            "velocity": 0.7874015748031497
          },
          {
            "duration": 0.4437870000000004,
            "durationTicks": 384,
            "midi": 36,
            "name": "C2",
            "ticks": 48384,
            "time": 55.917162,
            "velocity": 0.7874015748031497
          },
          {
            "duration": 0.4437870000000004,
            "durationTicks": 384,
            "midi": 53,
            "name": "F3",
            "ticks": 48384,
            "time": 55.917162,
            "velocity": 0.7874015748031497
          },
          {
            "duration": 0.4437870000000004,
            "durationTicks": 384,
            "midi": 40,
            "name": "E2",
            "ticks": 48768,
            "time": 56.360949,
            "velocity": 0.7874015748031497
          },
          {
            "duration": 0.4437870000000004,
            "durationTicks": 384,
            "midi": 53,
            "name": "F3",
            "ticks": 48768,
            "time": 56.360949,
            "velocity": 0.7874015748031497
          },
          {
            "duration": 0.4437870000000004,
            "durationTicks": 384,
            "midi": 42,
            "name": "F#2",
            "ticks": 49152,
            "time": 56.804736,
            "velocity": 0.7874015748031497
          },
          {
            "duration": 0.4437870000000004,
            "durationTicks": 384,
            "midi": 36,
            "name": "C2",
            "ticks": 49152,
            "time": 56.804736,
            "velocity": 0.7874015748031497
          },
          {
            "duration": 0.4437870000000004,
            "durationTicks": 384,
            "midi": 42,
            "name": "F#2",
            "ticks": 49536,
            "time": 57.248523,
            "velocity": 0.7874015748031497
          },
          {
            "duration": 0.4437870000000004,
            "durationTicks": 384,
            "midi": 40,
            "name": "E2",
            "ticks": 49536,
            "time": 57.248523,
            "velocity": 0.7874015748031497
          },
          {
            "duration": 0.4437870000000004,
            "durationTicks": 384,
            "midi": 42,
            "name": "F#2",
            "ticks": 49920,
            "time": 57.69231,
            "velocity": 0.7874015748031497
          },
          {
            "duration": 0.2218935000000002,
            "durationTicks": 192,
            "midi": 36,
            "name": "C2",
            "ticks": 49920,
            "time": 57.69231,
            "velocity": 0.7874015748031497
          },
          {
            "duration": 0.2218935000000002,
            "durationTicks": 192,
            "midi": 36,
            "name": "C2",
            "ticks": 50112,
            "time": 57.9142035,
            "velocity": 0.7874015748031497
          },
          {
            "duration": 0.4437870000000004,
            "durationTicks": 384,
            "midi": 42,
            "name": "F#2",
            "ticks": 50304,
            "time": 58.136097,
            "velocity": 0.7874015748031497
          },
          {
            "duration": 0.4437870000000004,
            "durationTicks": 384,
            "midi": 40,
            "name": "E2",
            "ticks": 50304,
            "time": 58.136097,
            "velocity": 0.7874015748031497
          },
          {
            "duration": 0.4437870000000004,
            "durationTicks": 384,
            "midi": 42,
            "name": "F#2",
            "ticks": 50688,
            "time": 58.579884,
            "velocity": 0.7874015748031497
          },
          {
            "duration": 0.4437870000000004,
            "durationTicks": 384,
            "midi": 36,
            "name": "C2",
            "ticks": 50688,
            "time": 58.579884,
            "velocity": 0.7874015748031497
          },
          {
            "duration": 0.4437870000000004,
            "durationTicks": 384,
            "midi": 42,
            "name": "F#2",
            "ticks": 51072,
            "time": 59.023671,
            "velocity": 0.7874015748031497
          },
          {
            "duration": 0.4437870000000004,
            "durationTicks": 384,
            "midi": 40,
            "name": "E2",
            "ticks": 51072,
            "time": 59.023671,
            "velocity": 0.7874015748031497
          },
          {
            "duration": 0.4437870000000004,
            "durationTicks": 384,
            "midi": 42,
            "name": "F#2",
            "ticks": 51456,
            "time": 59.467458,
            "velocity": 0.7874015748031497
          },
          {
            "duration": 0.4437870000000004,
            "durationTicks": 384,
            "midi": 36,
            "name": "C2",
            "ticks": 51456,
            "time": 59.467458,
            "velocity": 0.7874015748031497
          },
          {
            "duration": 0.4437870000000004,
            "durationTicks": 384,
            "midi": 42,
            "name": "F#2",
            "ticks": 51840,
            "time": 59.911245,
            "velocity": 0.7874015748031497
          },
          {
            "duration": 0.4437870000000004,
            "durationTicks": 384,
            "midi": 40,
            "name": "E2",
            "ticks": 51840,
            "time": 59.911245,
            "velocity": 0.7874015748031497
          },
          {
            "duration": 0.4437870000000004,
            "durationTicks": 384,
            "midi": 49,
            "name": "C#3",
            "ticks": 52224,
            "time": 60.355032,
            "velocity": 0.7874015748031497
          },
          {
            "duration": 0.4437870000000004,
            "durationTicks": 384,
            "midi": 36,
            "name": "C2",
            "ticks": 52224,
            "time": 60.355032,
            "velocity": 0.7874015748031497
          },
          {
            "duration": 0.44378699999999327,
            "durationTicks": 384,
            "midi": 40,
            "name": "E2",
            "ticks": 52608,
            "time": 60.798819,
            "velocity": 0.7874015748031497
          },
          {
            "duration": 0.44378699999999327,
            "durationTicks": 384,
            "midi": 53,
            "name": "F3",
            "ticks": 52608,
            "time": 60.798819,
            "velocity": 0.7874015748031497
          },
          {
            "duration": 0.2218935000000002,
            "durationTicks": 192,
            "midi": 36,
            "name": "C2",
            "ticks": 52992,
            "time": 61.242605999999995,
            "velocity": 0.7874015748031497
          },
          {
            "duration": 0.4437870000000004,
            "durationTicks": 384,
            "midi": 53,
            "name": "F3",
            "ticks": 52992,
            "time": 61.242605999999995,
            "velocity": 0.7874015748031497
          },
          {
            "duration": 0.2218935000000002,
            "durationTicks": 192,
            "midi": 36,
            "name": "C2",
            "ticks": 53184,
            "time": 61.464499499999995,
            "velocity": 0.7874015748031497
          },
          {
            "duration": 0.4437870000000004,
            "durationTicks": 384,
            "midi": 40,
            "name": "E2",
            "ticks": 53376,
            "time": 61.686392999999995,
            "velocity": 0.7874015748031497
          },
          {
            "duration": 0.4437870000000004,
            "durationTicks": 384,
            "midi": 53,
            "name": "F3",
            "ticks": 53376,
            "time": 61.686392999999995,
            "velocity": 0.7874015748031497
          },
          {
            "duration": 0.4437870000000004,
            "durationTicks": 384,
            "midi": 36,
            "name": "C2",
            "ticks": 53760,
            "time": 62.130179999999996,
            "velocity": 0.7874015748031497
          },
          {
            "duration": 0.4437870000000004,
            "durationTicks": 384,
            "midi": 53,
            "name": "F3",
            "ticks": 53760,
            "time": 62.130179999999996,
            "velocity": 0.7874015748031497
          },
          {
            "duration": 0.4437870000000004,
            "durationTicks": 384,
            "midi": 40,
            "name": "E2",
            "ticks": 54144,
            "time": 62.573966999999996,
            "velocity": 0.7874015748031497
          },
          {
            "duration": 0.4437870000000004,
            "durationTicks": 384,
            "midi": 53,
            "name": "F3",
            "ticks": 54144,
            "time": 62.573966999999996,
            "velocity": 0.7874015748031497
          },
          {
            "duration": 0.2218935000000002,
            "durationTicks": 192,
            "midi": 36,
            "name": "C2",
            "ticks": 54528,
            "time": 63.017754,
            "velocity": 0.7874015748031497
          },
          {
            "duration": 0.4437870000000004,
            "durationTicks": 384,
            "midi": 53,
            "name": "F3",
            "ticks": 54528,
            "time": 63.017754,
            "velocity": 0.7874015748031497
          },
          {
            "duration": 0.2218935000000002,
            "durationTicks": 192,
            "midi": 36,
            "name": "C2",
            "ticks": 54720,
            "time": 63.2396475,
            "velocity": 0.7874015748031497
          },
          {
            "duration": 0.4437870000000004,
            "durationTicks": 384,
            "midi": 40,
            "name": "E2",
            "ticks": 54912,
            "time": 63.461541,
            "velocity": 0.7874015748031497
          },
          {
            "duration": 0.4437870000000004,
            "durationTicks": 384,
            "midi": 53,
            "name": "F3",
            "ticks": 54912,
            "time": 63.461541,
            "velocity": 0.7874015748031497
          },
          {
            "duration": 0.4437870000000004,
            "durationTicks": 384,
            "midi": 42,
            "name": "F#2",
            "ticks": 55296,
            "time": 63.905328,
            "velocity": 0.7874015748031497
          },
          {
            "duration": 0.4437870000000004,
            "durationTicks": 384,
            "midi": 36,
            "name": "C2",
            "ticks": 55296,
            "time": 63.905328,
            "velocity": 0.7874015748031497
          },
          {
            "duration": 0.4437870000000004,
            "durationTicks": 384,
            "midi": 42,
            "name": "F#2",
            "ticks": 55680,
            "time": 64.349115,
            "velocity": 0.7874015748031497
          },
          {
            "duration": 0.4437870000000004,
            "durationTicks": 384,
            "midi": 40,
            "name": "E2",
            "ticks": 55680,
            "time": 64.349115,
            "velocity": 0.7874015748031497
          },
          {
            "duration": 0.4437870000000004,
            "durationTicks": 384,
            "midi": 42,
            "name": "F#2",
            "ticks": 56064,
            "time": 64.792902,
            "velocity": 0.7874015748031497
          },
          {
            "duration": 0.22189349999999308,
            "durationTicks": 192,
            "midi": 36,
            "name": "C2",
            "ticks": 56064,
            "time": 64.792902,
            "velocity": 0.7874015748031497
          },
          {
            "duration": 0.2218935000000073,
            "durationTicks": 192,
            "midi": 36,
            "name": "C2",
            "ticks": 56256,
            "time": 65.01479549999999,
            "velocity": 0.7874015748031497
          },
          {
            "duration": 0.4437870000000004,
            "durationTicks": 384,
            "midi": 42,
            "name": "F#2",
            "ticks": 56448,
            "time": 65.236689,
            "velocity": 0.7874015748031497
          },
          {
            "duration": 0.4437870000000004,
            "durationTicks": 384,
            "midi": 40,
            "name": "E2",
            "ticks": 56448,
            "time": 65.236689,
            "velocity": 0.7874015748031497
          },
          {
            "duration": 0.4437870000000004,
            "durationTicks": 384,
            "midi": 42,
            "name": "F#2",
            "ticks": 56832,
            "time": 65.680476,
            "velocity": 0.7874015748031497
          },
          {
            "duration": 0.4437870000000004,
            "durationTicks": 384,
            "midi": 36,
            "name": "C2",
            "ticks": 56832,
            "time": 65.680476,
            "velocity": 0.7874015748031497
          },
          {
            "duration": 0.4437870000000004,
            "durationTicks": 384,
            "midi": 42,
            "name": "F#2",
            "ticks": 57216,
            "time": 66.124263,
            "velocity": 0.7874015748031497
          },
          {
            "duration": 0.4437870000000004,
            "durationTicks": 384,
            "midi": 40,
            "name": "E2",
            "ticks": 57216,
            "time": 66.124263,
            "velocity": 0.7874015748031497
          },
          {
            "duration": 0.4437870000000004,
            "durationTicks": 384,
            "midi": 42,
            "name": "F#2",
            "ticks": 57600,
            "time": 66.56805,
            "velocity": 0.7874015748031497
          },
          {
            "duration": 0.4437870000000004,
            "durationTicks": 384,
            "midi": 36,
            "name": "C2",
            "ticks": 57600,
            "time": 66.56805,
            "velocity": 0.7874015748031497
          },
          {
            "duration": 0.4437870000000004,
            "durationTicks": 384,
            "midi": 42,
            "name": "F#2",
            "ticks": 57984,
            "time": 67.011837,
            "velocity": 0.7874015748031497
          },
          {
            "duration": 0.4437870000000004,
            "durationTicks": 384,
            "midi": 40,
            "name": "E2",
            "ticks": 57984,
            "time": 67.011837,
            "velocity": 0.7874015748031497
          },
          {
            "duration": 0.4437870000000004,
            "durationTicks": 384,
            "midi": 49,
            "name": "C#3",
            "ticks": 58368,
            "time": 67.455624,
            "velocity": 0.7874015748031497
          },
          {
            "duration": 0.4437870000000004,
            "durationTicks": 384,
            "midi": 36,
            "name": "C2",
            "ticks": 58368,
            "time": 67.455624,
            "velocity": 0.7874015748031497
          },
          {
            "duration": 0.4437870000000004,
            "durationTicks": 384,
            "midi": 40,
            "name": "E2",
            "ticks": 58752,
            "time": 67.899411,
            "velocity": 0.7874015748031497
          },
          {
            "duration": 0.4437870000000004,
            "durationTicks": 384,
            "midi": 53,
            "name": "F3",
            "ticks": 58752,
            "time": 67.899411,
            "velocity": 0.7874015748031497
          },
          {
            "duration": 0.22189349999999308,
            "durationTicks": 192,
            "midi": 36,
            "name": "C2",
            "ticks": 59136,
            "time": 68.343198,
            "velocity": 0.7874015748031497
          },
          {
            "duration": 0.4437870000000004,
            "durationTicks": 384,
            "midi": 53,
            "name": "F3",
            "ticks": 59136,
            "time": 68.343198,
            "velocity": 0.7874015748031497
          },
          {
            "duration": 0.2218935000000073,
            "durationTicks": 192,
            "midi": 36,
            "name": "C2",
            "ticks": 59328,
            "time": 68.5650915,
            "velocity": 0.7874015748031497
          },
          {
            "duration": 0.4437870000000004,
            "durationTicks": 384,
            "midi": 40,
            "name": "E2",
            "ticks": 59520,
            "time": 68.786985,
            "velocity": 0.7874015748031497
          },
          {
            "duration": 0.4437870000000004,
            "durationTicks": 384,
            "midi": 53,
            "name": "F3",
            "ticks": 59520,
            "time": 68.786985,
            "velocity": 0.7874015748031497
          },
          {
            "duration": 0.4437870000000004,
            "durationTicks": 384,
            "midi": 36,
            "name": "C2",
            "ticks": 59904,
            "time": 69.230772,
            "velocity": 0.7874015748031497
          },
          {
            "duration": 0.4437870000000004,
            "durationTicks": 384,
            "midi": 53,
            "name": "F3",
            "ticks": 59904,
            "time": 69.230772,
            "velocity": 0.7874015748031497
          },
          {
            "duration": 0.4437870000000004,
            "durationTicks": 384,
            "midi": 40,
            "name": "E2",
            "ticks": 60288,
            "time": 69.674559,
            "velocity": 0.7874015748031497
          },
          {
            "duration": 0.4437870000000004,
            "durationTicks": 384,
            "midi": 53,
            "name": "F3",
            "ticks": 60288,
            "time": 69.674559,
            "velocity": 0.7874015748031497
          },
          {
            "duration": 0.22189349999999308,
            "durationTicks": 192,
            "midi": 36,
            "name": "C2",
            "ticks": 60672,
            "time": 70.118346,
            "velocity": 0.7874015748031497
          },
          {
            "duration": 0.4437870000000004,
            "durationTicks": 384,
            "midi": 53,
            "name": "F3",
            "ticks": 60672,
            "time": 70.118346,
            "velocity": 0.7874015748031497
          },
          {
            "duration": 0.2218935000000073,
            "durationTicks": 192,
            "midi": 36,
            "name": "C2",
            "ticks": 60864,
            "time": 70.3402395,
            "velocity": 0.7874015748031497
          },
          {
            "duration": 0.4437870000000004,
            "durationTicks": 384,
            "midi": 40,
            "name": "E2",
            "ticks": 61056,
            "time": 70.562133,
            "velocity": 0.7874015748031497
          },
          {
            "duration": 0.4437870000000004,
            "durationTicks": 384,
            "midi": 53,
            "name": "F3",
            "ticks": 61056,
            "time": 70.562133,
            "velocity": 0.7874015748031497
          },
          {
            "duration": 0.4437870000000004,
            "durationTicks": 384,
            "midi": 42,
            "name": "F#2",
            "ticks": 61440,
            "time": 71.00592,
            "velocity": 0.7874015748031497
          },
          {
            "duration": 0.4437870000000004,
            "durationTicks": 384,
            "midi": 36,
            "name": "C2",
            "ticks": 61440,
            "time": 71.00592,
            "velocity": 0.7874015748031497
          },
          {
            "duration": 0.4437870000000004,
            "durationTicks": 384,
            "midi": 42,
            "name": "F#2",
            "ticks": 61824,
            "time": 71.449707,
            "velocity": 0.7874015748031497
          },
          {
            "duration": 0.4437870000000004,
            "durationTicks": 384,
            "midi": 40,
            "name": "E2",
            "ticks": 61824,
            "time": 71.449707,
            "velocity": 0.7874015748031497
          },
          {
            "duration": 0.4437870000000004,
            "durationTicks": 384,
            "midi": 42,
            "name": "F#2",
            "ticks": 62208,
            "time": 71.893494,
            "velocity": 0.7874015748031497
          },
          {
            "duration": 0.22189349999999308,
            "durationTicks": 192,
            "midi": 36,
            "name": "C2",
            "ticks": 62208,
            "time": 71.893494,
            "velocity": 0.7874015748031497
          },
          {
            "duration": 0.2218935000000073,
            "durationTicks": 192,
            "midi": 36,
            "name": "C2",
            "ticks": 62400,
            "time": 72.1153875,
            "velocity": 0.7874015748031497
          },
          {
            "duration": 0.4437870000000004,
            "durationTicks": 384,
            "midi": 42,
            "name": "F#2",
            "ticks": 62592,
            "time": 72.337281,
            "velocity": 0.7874015748031497
          },
          {
            "duration": 0.4437870000000004,
            "durationTicks": 384,
            "midi": 40,
            "name": "E2",
            "ticks": 62592,
            "time": 72.337281,
            "velocity": 0.7874015748031497
          },
          {
            "duration": 0.44378699999998616,
            "durationTicks": 384,
            "midi": 42,
            "name": "F#2",
            "ticks": 62976,
            "time": 72.781068,
            "velocity": 0.7874015748031497
          },
          {
            "duration": 0.44378699999998616,
            "durationTicks": 384,
            "midi": 36,
            "name": "C2",
            "ticks": 62976,
            "time": 72.781068,
            "velocity": 0.7874015748031497
          },
          {
            "duration": 0.4437870000000004,
            "durationTicks": 384,
            "midi": 42,
            "name": "F#2",
            "ticks": 63360,
            "time": 73.22485499999999,
            "velocity": 0.7874015748031497
          },
          {
            "duration": 0.4437870000000004,
            "durationTicks": 384,
            "midi": 40,
            "name": "E2",
            "ticks": 63360,
            "time": 73.22485499999999,
            "velocity": 0.7874015748031497
          },
          {
            "duration": 0.4437870000000004,
            "durationTicks": 384,
            "midi": 42,
            "name": "F#2",
            "ticks": 63744,
            "time": 73.66864199999999,
            "velocity": 0.7874015748031497
          },
          {
            "duration": 0.4437870000000004,
            "durationTicks": 384,
            "midi": 36,
            "name": "C2",
            "ticks": 63744,
            "time": 73.66864199999999,
            "velocity": 0.7874015748031497
          },
          {
            "duration": 0.4437870000000004,
            "durationTicks": 384,
            "midi": 42,
            "name": "F#2",
            "ticks": 64128,
            "time": 74.11242899999999,
            "velocity": 0.7874015748031497
          },
          {
            "duration": 0.4437870000000004,
            "durationTicks": 384,
            "midi": 40,
            "name": "E2",
            "ticks": 64128,
            "time": 74.11242899999999,
            "velocity": 0.7874015748031497
          },
          {
            "duration": 0.4437870000000004,
            "durationTicks": 384,
            "midi": 49,
            "name": "C#3",
            "ticks": 64512,
            "time": 74.55621599999999,
            "velocity": 0.7874015748031497
          },
          {
            "duration": 0.4437870000000004,
            "durationTicks": 384,
            "midi": 36,
            "name": "C2",
            "ticks": 64512,
            "time": 74.55621599999999,
            "velocity": 0.7874015748031497
          },
          {
            "duration": 0.4437870000000004,
            "durationTicks": 384,
            "midi": 40,
            "name": "E2",
            "ticks": 64896,
            "time": 75.00000299999999,
            "velocity": 0.7874015748031497
          },
          {
            "duration": 0.4437870000000004,
            "durationTicks": 384,
            "midi": 53,
            "name": "F3",
            "ticks": 64896,
            "time": 75.00000299999999,
            "velocity": 0.7874015748031497
          },
          {
            "duration": 0.2218935000000073,
            "durationTicks": 192,
            "midi": 36,
            "name": "C2",
            "ticks": 65280,
            "time": 75.44378999999999,
            "velocity": 0.7874015748031497
          },
          {
            "duration": 0.4437870000000004,
            "durationTicks": 384,
            "midi": 53,
            "name": "F3",
            "ticks": 65280,
            "time": 75.44378999999999,
            "velocity": 0.7874015748031497
          },
          {
            "duration": 0.22189349999999308,
            "durationTicks": 192,
            "midi": 36,
            "name": "C2",
            "ticks": 65472,
            "time": 75.6656835,
            "velocity": 0.7874015748031497
          },
          {
            "duration": 0.4437870000000004,
            "durationTicks": 384,
            "midi": 40,
            "name": "E2",
            "ticks": 65664,
            "time": 75.887577,
            "velocity": 0.7874015748031497
          },
          {
            "duration": 0.4437870000000004,
            "durationTicks": 384,
            "midi": 53,
            "name": "F3",
            "ticks": 65664,
            "time": 75.887577,
            "velocity": 0.7874015748031497
          },
          {
            "duration": 0.4437870000000004,
            "durationTicks": 384,
            "midi": 36,
            "name": "C2",
            "ticks": 66048,
            "time": 76.331364,
            "velocity": 0.7874015748031497
          },
          {
            "duration": 0.4437870000000004,
            "durationTicks": 384,
            "midi": 53,
            "name": "F3",
            "ticks": 66048,
            "time": 76.331364,
            "velocity": 0.7874015748031497
          },
          {
            "duration": 0.4437870000000004,
            "durationTicks": 384,
            "midi": 40,
            "name": "E2",
            "ticks": 66432,
            "time": 76.775151,
            "velocity": 0.7874015748031497
          },
          {
            "duration": 0.4437870000000004,
            "durationTicks": 384,
            "midi": 53,
            "name": "F3",
            "ticks": 66432,
            "time": 76.775151,
            "velocity": 0.7874015748031497
          },
          {
            "duration": 0.2218935000000073,
            "durationTicks": 192,
            "midi": 36,
            "name": "C2",
            "ticks": 66816,
            "time": 77.218938,
            "velocity": 0.7874015748031497
          },
          {
            "duration": 0.4437870000000004,
            "durationTicks": 384,
            "midi": 53,
            "name": "F3",
            "ticks": 66816,
            "time": 77.218938,
            "velocity": 0.7874015748031497
          },
          {
            "duration": 0.22189349999999308,
            "durationTicks": 192,
            "midi": 36,
            "name": "C2",
            "ticks": 67008,
            "time": 77.4408315,
            "velocity": 0.7874015748031497
          },
          {
            "duration": 0.4437870000000004,
            "durationTicks": 384,
            "midi": 40,
            "name": "E2",
            "ticks": 67200,
            "time": 77.662725,
            "velocity": 0.7874015748031497
          },
          {
            "duration": 0.4437870000000004,
            "durationTicks": 384,
            "midi": 53,
            "name": "F3",
            "ticks": 67200,
            "time": 77.662725,
            "velocity": 0.7874015748031497
          },
          {
            "duration": 0.4437870000000004,
            "durationTicks": 384,
            "midi": 42,
            "name": "F#2",
            "ticks": 67584,
            "time": 78.106512,
            "velocity": 0.7874015748031497
          },
          {
            "duration": 0.4437870000000004,
            "durationTicks": 384,
            "midi": 36,
            "name": "C2",
            "ticks": 67584,
            "time": 78.106512,
            "velocity": 0.7874015748031497
          },
          {
            "duration": 0.4437870000000004,
            "durationTicks": 384,
            "midi": 42,
            "name": "F#2",
            "ticks": 67968,
            "time": 78.550299,
            "velocity": 0.7874015748031497
          },
          {
            "duration": 0.4437870000000004,
            "durationTicks": 384,
            "midi": 40,
            "name": "E2",
            "ticks": 67968,
            "time": 78.550299,
            "velocity": 0.7874015748031497
          },
          {
            "duration": 0.4437870000000004,
            "durationTicks": 384,
            "midi": 42,
            "name": "F#2",
            "ticks": 68352,
            "time": 78.994086,
            "velocity": 0.7874015748031497
          },
          {
            "duration": 0.2218935000000073,
            "durationTicks": 192,
            "midi": 36,
            "name": "C2",
            "ticks": 68352,
            "time": 78.994086,
            "velocity": 0.7874015748031497
          },
          {
            "duration": 0.22189349999999308,
            "durationTicks": 192,
            "midi": 36,
            "name": "C2",
            "ticks": 68544,
            "time": 79.2159795,
            "velocity": 0.7874015748031497
          },
          {
            "duration": 0.4437870000000004,
            "durationTicks": 384,
            "midi": 42,
            "name": "F#2",
            "ticks": 68736,
            "time": 79.437873,
            "velocity": 0.7874015748031497
          },
          {
            "duration": 0.4437870000000004,
            "durationTicks": 384,
            "midi": 40,
            "name": "E2",
            "ticks": 68736,
            "time": 79.437873,
            "velocity": 0.7874015748031497
          },
          {
            "duration": 0.4437870000000004,
            "durationTicks": 384,
            "midi": 42,
            "name": "F#2",
            "ticks": 69120,
            "time": 79.88166,
            "velocity": 0.7874015748031497
          },
          {
            "duration": 0.4437870000000004,
            "durationTicks": 384,
            "midi": 36,
            "name": "C2",
            "ticks": 69120,
            "time": 79.88166,
            "velocity": 0.7874015748031497
          },
          {
            "duration": 0.4437870000000004,
            "durationTicks": 384,
            "midi": 42,
            "name": "F#2",
            "ticks": 69504,
            "time": 80.325447,
            "velocity": 0.7874015748031497
          },
          {
            "duration": 0.4437870000000004,
            "durationTicks": 384,
            "midi": 40,
            "name": "E2",
            "ticks": 69504,
            "time": 80.325447,
            "velocity": 0.7874015748031497
          },
          {
            "duration": 0.4437870000000004,
            "durationTicks": 384,
            "midi": 42,
            "name": "F#2",
            "ticks": 69888,
            "time": 80.769234,
            "velocity": 0.7874015748031497
          },
          {
            "duration": 0.4437870000000004,
            "durationTicks": 384,
            "midi": 36,
            "name": "C2",
            "ticks": 69888,
            "time": 80.769234,
            "velocity": 0.7874015748031497
          },
          {
            "duration": 0.4437870000000004,
            "durationTicks": 384,
            "midi": 42,
            "name": "F#2",
            "ticks": 70272,
            "time": 81.213021,
            "velocity": 0.7874015748031497
          },
          {
            "duration": 0.4437870000000004,
            "durationTicks": 384,
            "midi": 40,
            "name": "E2",
            "ticks": 70272,
            "time": 81.213021,
            "velocity": 0.7874015748031497
          },
          {
            "duration": 0.4437870000000004,
            "durationTicks": 384,
            "midi": 49,
            "name": "C#3",
            "ticks": 70656,
            "time": 81.656808,
            "velocity": 0.7874015748031497
          },
          {
            "duration": 0.4437870000000004,
            "durationTicks": 384,
            "midi": 36,
            "name": "C2",
            "ticks": 70656,
            "time": 81.656808,
            "velocity": 0.7874015748031497
          },
          {
            "duration": 0.4437870000000004,
            "durationTicks": 384,
            "midi": 40,
            "name": "E2",
            "ticks": 71040,
            "time": 82.100595,
            "velocity": 0.7874015748031497
          },
          {
            "duration": 0.4437870000000004,
            "durationTicks": 384,
            "midi": 53,
            "name": "F3",
            "ticks": 71040,
            "time": 82.100595,
            "velocity": 0.7874015748031497
          },
          {
            "duration": 0.22189349999999308,
            "durationTicks": 192,
            "midi": 36,
            "name": "C2",
            "ticks": 71424,
            "time": 82.544382,
            "velocity": 0.7874015748031497
          },
          {
            "duration": 0.4437870000000004,
            "durationTicks": 384,
            "midi": 53,
            "name": "F3",
            "ticks": 71424,
            "time": 82.544382,
            "velocity": 0.7874015748031497
          },
          {
            "duration": 0.2218935000000073,
            "durationTicks": 192,
            "midi": 36,
            "name": "C2",
            "ticks": 71616,
            "time": 82.76627549999999,
            "velocity": 0.7874015748031497
          },
          {
            "duration": 0.4437870000000004,
            "durationTicks": 384,
            "midi": 40,
            "name": "E2",
            "ticks": 71808,
            "time": 82.988169,
            "velocity": 0.7874015748031497
          },
          {
            "duration": 0.4437870000000004,
            "durationTicks": 384,
            "midi": 53,
            "name": "F3",
            "ticks": 71808,
            "time": 82.988169,
            "velocity": 0.7874015748031497
          },
          {
            "duration": 2.218935000000002,
            "durationTicks": 1920,
            "midi": 36,
            "name": "C2",
            "ticks": 72192,
            "time": 83.431956,
            "velocity": 0.7874015748031497
          },
          {
            "duration": 2.218935000000002,
            "durationTicks": 1920,
            "midi": 53,
            "name": "F3",
            "ticks": 72192,
            "time": 83.431956,
            "velocity": 0.7874015748031497
          },
          {
            "duration": 0.4437870000000004,
            "durationTicks": 384,
            "midi": 49,
            "name": "C#3",
            "ticks": 74112,
            "time": 85.650891,
            "velocity": 0.7874015748031497
          },
          {
            "duration": 0.4437870000000004,
            "durationTicks": 384,
            "midi": 36,
            "name": "C2",
            "ticks": 74112,
            "time": 85.650891,
            "velocity": 0.7874015748031497
          },
          {
            "duration": 1.7751480000000015,
            "durationTicks": 1536,
            "midi": 49,
            "name": "C#3",
            "ticks": 74496,
            "time": 86.094678,
            "velocity": 0.7874015748031497
          },
          {
            "duration": 1.7751480000000015,
            "durationTicks": 1536,
            "midi": 36,
            "name": "C2",
            "ticks": 74496,
            "time": 86.094678,
            "velocity": 0.7874015748031497
          },
          {
            "duration": 0.8875740000000008,
            "durationTicks": 768,
            "midi": 49,
            "name": "C#3",
            "ticks": 76032,
            "time": 87.869826,
            "velocity": 0.7874015748031497
          },
          {
            "duration": 0.22189349999999308,
            "durationTicks": 192,
            "midi": 40,
            "name": "E2",
            "ticks": 76032,
            "time": 87.869826,
            "velocity": 0.7874015748031497
          },
          {
            "duration": 0.2172707187499867,
            "durationTicks": 188,
            "midi": 36,
            "name": "C2",
            "ticks": 76040,
            "time": 87.8790715625,
            "velocity": 0.7874015748031497
          },
          {
            "duration": 0.2218935000000073,
            "durationTicks": 192,
            "midi": 40,
            "name": "E2",
            "ticks": 76224,
            "time": 88.0917195,
            "velocity": 0.7874015748031497
          },
          {
            "duration": 0.11094674999999654,
            "durationTicks": 96,
            "midi": 40,
            "name": "E2",
            "ticks": 76416,
            "time": 88.313613,
            "velocity": 0.7874015748031497
          },
          {
            "duration": 0.11094674999999654,
            "durationTicks": 96,
            "midi": 40,
            "name": "E2",
            "ticks": 76512,
            "time": 88.42455975,
            "velocity": 0.7874015748031497
          },
          {
            "duration": 0.11094674999999654,
            "durationTicks": 96,
            "midi": 40,
            "name": "E2",
            "ticks": 76608,
            "time": 88.5355065,
            "velocity": 0.7874015748031497
          },
          {
            "duration": 0.11094675000001075,
            "durationTicks": 96,
            "midi": 40,
            "name": "E2",
            "ticks": 76704,
            "time": 88.64645325,
            "velocity": 0.7874015748031497
          },
          {
            "duration": 0.4437870000000004,
            "durationTicks": 384,
            "midi": 49,
            "name": "C#3",
            "ticks": 76800,
            "time": 88.7574,
            "velocity": 0.7874015748031497
          },
          {
            "duration": 0.4437870000000004,
            "durationTicks": 384,
            "midi": 36,
            "name": "C2",
            "ticks": 76800,
            "time": 88.7574,
            "velocity": 0.7874015748031497
          },
          {
            "duration": 0.44378699999998616,
            "durationTicks": 384,
            "midi": 40,
            "name": "E2",
            "ticks": 77184,
            "time": 89.201187,
            "velocity": 0.7874015748031497
          },
          {
            "duration": 0.44378699999998616,
            "durationTicks": 384,
            "midi": 53,
            "name": "F3",
            "ticks": 77184,
            "time": 89.201187,
            "velocity": 0.7874015748031497
          },
          {
            "duration": 0.2218935000000073,
            "durationTicks": 192,
            "midi": 36,
            "name": "C2",
            "ticks": 77568,
            "time": 89.64497399999999,
            "velocity": 0.7874015748031497
          },
          {
            "duration": 0.4437870000000004,
            "durationTicks": 384,
            "midi": 53,
            "name": "F3",
            "ticks": 77568,
            "time": 89.64497399999999,
            "velocity": 0.7874015748031497
          },
          {
            "duration": 0.22189349999999308,
            "durationTicks": 192,
            "midi": 36,
            "name": "C2",
            "ticks": 77760,
            "time": 89.8668675,
            "velocity": 0.7874015748031497
          },
          {
            "duration": 0.4437870000000004,
            "durationTicks": 384,
            "midi": 40,
            "name": "E2",
            "ticks": 77952,
            "time": 90.08876099999999,
            "velocity": 0.7874015748031497
          },
          {
            "duration": 0.4437870000000004,
            "durationTicks": 384,
            "midi": 53,
            "name": "F3",
            "ticks": 77952,
            "time": 90.08876099999999,
            "velocity": 0.7874015748031497
          },
          {
            "duration": 0.4437870000000004,
            "durationTicks": 384,
            "midi": 36,
            "name": "C2",
            "ticks": 78336,
            "time": 90.53254799999999,
            "velocity": 0.7874015748031497
          },
          {
            "duration": 0.4437870000000004,
            "durationTicks": 384,
            "midi": 53,
            "name": "F3",
            "ticks": 78336,
            "time": 90.53254799999999,
            "velocity": 0.7874015748031497
          },
          {
            "duration": 0.4437870000000004,
            "durationTicks": 384,
            "midi": 40,
            "name": "E2",
            "ticks": 78720,
            "time": 90.97633499999999,
            "velocity": 0.7874015748031497
          },
          {
            "duration": 0.4437870000000004,
            "durationTicks": 384,
            "midi": 53,
            "name": "F3",
            "ticks": 78720,
            "time": 90.97633499999999,
            "velocity": 0.7874015748031497
          },
          {
            "duration": 0.4437870000000004,
            "durationTicks": 384,
            "midi": 36,
            "name": "C2",
            "ticks": 79104,
            "time": 91.42012199999999,
            "velocity": 0.7874015748031497
          },
          {
            "duration": 0.4437870000000004,
            "durationTicks": 384,
            "midi": 53,
            "name": "F3",
            "ticks": 79104,
            "time": 91.42012199999999,
            "velocity": 0.7874015748031497
          },
          {
            "duration": 0.4437870000000004,
            "durationTicks": 384,
            "midi": 40,
            "name": "E2",
            "ticks": 79488,
            "time": 91.86390899999999,
            "velocity": 0.7874015748031497
          },
          {
            "duration": 0.4437870000000004,
            "durationTicks": 384,
            "midi": 53,
            "name": "F3",
            "ticks": 79488,
            "time": 91.86390899999999,
            "velocity": 0.7874015748031497
          },
          {
            "duration": 0.4437870000000004,
            "durationTicks": 384,
            "midi": 36,
            "name": "C2",
            "ticks": 79872,
            "time": 92.30769599999999,
            "velocity": 0.7874015748031497
          },
          {
            "duration": 0.4437870000000004,
            "durationTicks": 384,
            "midi": 53,
            "name": "F3",
            "ticks": 79872,
            "time": 92.30769599999999,
            "velocity": 0.7874015748031497
          },
          {
            "duration": 0.4437870000000004,
            "durationTicks": 384,
            "midi": 40,
            "name": "E2",
            "ticks": 80256,
            "time": 92.751483,
            "velocity": 0.7874015748031497
          },
          {
            "duration": 0.4437870000000004,
            "durationTicks": 384,
            "midi": 53,
            "name": "F3",
            "ticks": 80256,
            "time": 92.751483,
            "velocity": 0.7874015748031497
          },
          {
            "duration": 0.2218935000000073,
            "durationTicks": 192,
            "midi": 36,
            "name": "C2",
            "ticks": 80640,
            "time": 93.19527,
            "velocity": 0.7874015748031497
          },
          {
            "duration": 0.4437870000000004,
            "durationTicks": 384,
            "midi": 53,
            "name": "F3",
            "ticks": 80640,
            "time": 93.19527,
            "velocity": 0.7874015748031497
          },
          {
            "duration": 0.22189349999999308,
            "durationTicks": 192,
            "midi": 36,
            "name": "C2",
            "ticks": 80832,
            "time": 93.4171635,
            "velocity": 0.7874015748031497
          },
          {
            "duration": 0.4437870000000004,
            "durationTicks": 384,
            "midi": 40,
            "name": "E2",
            "ticks": 81024,
            "time": 93.639057,
            "velocity": 0.7874015748031497
          },
          {
            "duration": 0.4437870000000004,
            "durationTicks": 384,
            "midi": 53,
            "name": "F3",
            "ticks": 81024,
            "time": 93.639057,
            "velocity": 0.7874015748031497
          },
          {
            "duration": 0.4437870000000004,
            "durationTicks": 384,
            "midi": 36,
            "name": "C2",
            "ticks": 81408,
            "time": 94.082844,
            "velocity": 0.7874015748031497
          },
          {
            "duration": 0.4437870000000004,
            "durationTicks": 384,
            "midi": 53,
            "name": "F3",
            "ticks": 81408,
            "time": 94.082844,
            "velocity": 0.7874015748031497
          },
          {
            "duration": 0.4437870000000004,
            "durationTicks": 384,
            "midi": 40,
            "name": "E2",
            "ticks": 81792,
            "time": 94.526631,
            "velocity": 0.7874015748031497
          },
          {
            "duration": 0.4437870000000004,
            "durationTicks": 384,
            "midi": 53,
            "name": "F3",
            "ticks": 81792,
            "time": 94.526631,
            "velocity": 0.7874015748031497
          },
          {
            "duration": 0.4437870000000004,
            "durationTicks": 384,
            "midi": 36,
            "name": "C2",
            "ticks": 82176,
            "time": 94.970418,
            "velocity": 0.7874015748031497
          },
          {
            "duration": 0.4437870000000004,
            "durationTicks": 384,
            "midi": 53,
            "name": "F3",
            "ticks": 82176,
            "time": 94.970418,
            "velocity": 0.7874015748031497
          },
          {
            "duration": 0.4437870000000004,
            "durationTicks": 384,
            "midi": 40,
            "name": "E2",
            "ticks": 82560,
            "time": 95.414205,
            "velocity": 0.7874015748031497
          },
          {
            "duration": 0.4437870000000004,
            "durationTicks": 384,
            "midi": 53,
            "name": "F3",
            "ticks": 82560,
            "time": 95.414205,
            "velocity": 0.7874015748031497
          },
          {
            "duration": 0.4437870000000004,
            "durationTicks": 384,
            "midi": 49,
            "name": "C#3",
            "ticks": 82944,
            "time": 95.857992,
            "velocity": 0.7874015748031497
          },
          {
            "duration": 0.4437870000000004,
            "durationTicks": 384,
            "midi": 36,
            "name": "C2",
            "ticks": 82944,
            "time": 95.857992,
            "velocity": 0.7874015748031497
          },
          {
            "duration": 0.4437870000000004,
            "durationTicks": 384,
            "midi": 40,
            "name": "E2",
            "ticks": 83328,
            "time": 96.301779,
            "velocity": 0.7874015748031497
          },
          {
            "duration": 0.4437870000000004,
            "durationTicks": 384,
            "midi": 53,
            "name": "F3",
            "ticks": 83328,
            "time": 96.301779,
            "velocity": 0.7874015748031497
          },
          {
            "duration": 0.2218935000000073,
            "durationTicks": 192,
            "midi": 36,
            "name": "C2",
            "ticks": 83712,
            "time": 96.745566,
            "velocity": 0.7874015748031497
          },
          {
            "duration": 0.4437870000000004,
            "durationTicks": 384,
            "midi": 53,
            "name": "F3",
            "ticks": 83712,
            "time": 96.745566,
            "velocity": 0.7874015748031497
          },
          {
            "duration": 0.22189349999999308,
            "durationTicks": 192,
            "midi": 36,
            "name": "C2",
            "ticks": 83904,
            "time": 96.9674595,
            "velocity": 0.7874015748031497
          },
          {
            "duration": 0.4437870000000004,
            "durationTicks": 384,
            "midi": 40,
            "name": "E2",
            "ticks": 84096,
            "time": 97.189353,
            "velocity": 0.7874015748031497
          },
          {
            "duration": 0.4437870000000004,
            "durationTicks": 384,
            "midi": 53,
            "name": "F3",
            "ticks": 84096,
            "time": 97.189353,
            "velocity": 0.7874015748031497
          },
          {
            "duration": 0.4437870000000004,
            "durationTicks": 384,
            "midi": 36,
            "name": "C2",
            "ticks": 84480,
            "time": 97.63314,
            "velocity": 0.7874015748031497
          },
          {
            "duration": 0.4437870000000004,
            "durationTicks": 384,
            "midi": 53,
            "name": "F3",
            "ticks": 84480,
            "time": 97.63314,
            "velocity": 0.7874015748031497
          },
          {
            "duration": 0.4437870000000004,
            "durationTicks": 384,
            "midi": 40,
            "name": "E2",
            "ticks": 84864,
            "time": 98.076927,
            "velocity": 0.7874015748031497
          },
          {
            "duration": 0.4437870000000004,
            "durationTicks": 384,
            "midi": 53,
            "name": "F3",
            "ticks": 84864,
            "time": 98.076927,
            "velocity": 0.7874015748031497
          },
          {
            "duration": 0.4437870000000004,
            "durationTicks": 384,
            "midi": 36,
            "name": "C2",
            "ticks": 85248,
            "time": 98.520714,
            "velocity": 0.7874015748031497
          },
          {
            "duration": 0.4437870000000004,
            "durationTicks": 384,
            "midi": 53,
            "name": "F3",
            "ticks": 85248,
            "time": 98.520714,
            "velocity": 0.7874015748031497
          },
          {
            "duration": 0.4437870000000004,
            "durationTicks": 384,
            "midi": 40,
            "name": "E2",
            "ticks": 85632,
            "time": 98.964501,
            "velocity": 0.7874015748031497
          },
          {
            "duration": 0.4437870000000004,
            "durationTicks": 384,
            "midi": 53,
            "name": "F3",
            "ticks": 85632,
            "time": 98.964501,
            "velocity": 0.7874015748031497
          },
          {
            "duration": 0.4437870000000004,
            "durationTicks": 384,
            "midi": 36,
            "name": "C2",
            "ticks": 86016,
            "time": 99.408288,
            "velocity": 0.7874015748031497
          },
          {
            "duration": 0.4437870000000004,
            "durationTicks": 384,
            "midi": 53,
            "name": "F3",
            "ticks": 86016,
            "time": 99.408288,
            "velocity": 0.7874015748031497
          },
          {
            "duration": 0.4437870000000004,
            "durationTicks": 384,
            "midi": 40,
            "name": "E2",
            "ticks": 86400,
            "time": 99.852075,
            "velocity": 0.7874015748031497
          },
          {
            "duration": 0.4437870000000004,
            "durationTicks": 384,
            "midi": 53,
            "name": "F3",
            "ticks": 86400,
            "time": 99.852075,
            "velocity": 0.7874015748031497
          },
          {
            "duration": 0.22189349999999308,
            "durationTicks": 192,
            "midi": 36,
            "name": "C2",
            "ticks": 86784,
            "time": 100.295862,
            "velocity": 0.7874015748031497
          },
          {
            "duration": 0.4437870000000004,
            "durationTicks": 384,
            "midi": 53,
            "name": "F3",
            "ticks": 86784,
            "time": 100.295862,
            "velocity": 0.7874015748031497
          },
          {
            "duration": 0.2218935000000073,
            "durationTicks": 192,
            "midi": 36,
            "name": "C2",
            "ticks": 86976,
            "time": 100.51775549999999,
            "velocity": 0.7874015748031497
          },
          {
            "duration": 0.4437870000000004,
            "durationTicks": 384,
            "midi": 40,
            "name": "E2",
            "ticks": 87168,
            "time": 100.739649,
            "velocity": 0.7874015748031497
          },
          {
            "duration": 0.4437870000000004,
            "durationTicks": 384,
            "midi": 53,
            "name": "F3",
            "ticks": 87168,
            "time": 100.739649,
            "velocity": 0.7874015748031497
          },
          {
            "duration": 0.4437870000000004,
            "durationTicks": 384,
            "midi": 36,
            "name": "C2",
            "ticks": 87552,
            "time": 101.183436,
            "velocity": 0.7874015748031497
          },
          {
            "duration": 0.4437870000000004,
            "durationTicks": 384,
            "midi": 53,
            "name": "F3",
            "ticks": 87552,
            "time": 101.183436,
            "velocity": 0.7874015748031497
          },
          {
            "duration": 0.22189349999999308,
            "durationTicks": 192,
            "midi": 40,
            "name": "E2",
            "ticks": 87936,
            "time": 101.627223,
            "velocity": 0.7874015748031497
          },
          {
            "duration": 0.4437870000000004,
            "durationTicks": 384,
            "midi": 53,
            "name": "F3",
            "ticks": 87936,
            "time": 101.627223,
            "velocity": 0.7874015748031497
          },
          {
            "duration": 0.2218935000000073,
            "durationTicks": 192,
            "midi": 40,
            "name": "E2",
            "ticks": 88128,
            "time": 101.8491165,
            "velocity": 0.7874015748031497
          },
          {
            "duration": 0.22189349999999308,
            "durationTicks": 192,
            "midi": 40,
            "name": "E2",
            "ticks": 88320,
            "time": 102.07101,
            "velocity": 0.7874015748031497
          },
          {
            "duration": 0.4437870000000004,
            "durationTicks": 384,
            "midi": 53,
            "name": "F3",
            "ticks": 88320,
            "time": 102.07101,
            "velocity": 0.7874015748031497
          },
          {
            "duration": 0.2218935000000073,
            "durationTicks": 192,
            "midi": 40,
            "name": "E2",
            "ticks": 88512,
            "time": 102.2929035,
            "velocity": 0.7874015748031497
          },
          {
            "duration": 0.22189349999999308,
            "durationTicks": 192,
            "midi": 40,
            "name": "E2",
            "ticks": 88704,
            "time": 102.514797,
            "velocity": 0.7874015748031497
          },
          {
            "duration": 0.4437870000000004,
            "durationTicks": 384,
            "midi": 53,
            "name": "F3",
            "ticks": 88704,
            "time": 102.514797,
            "velocity": 0.7874015748031497
          },
          {
            "duration": 0.2218935000000073,
            "durationTicks": 192,
            "midi": 40,
            "name": "E2",
            "ticks": 88896,
            "time": 102.7366905,
            "velocity": 0.7874015748031497
          },
          {
            "duration": 0.4437870000000004,
            "durationTicks": 384,
            "midi": 49,
            "name": "C#3",
            "ticks": 89088,
            "time": 102.958584,
            "velocity": 0.7874015748031497
          },
          {
            "duration": 0.4437870000000004,
            "durationTicks": 384,
            "midi": 36,
            "name": "C2",
            "ticks": 89088,
            "time": 102.958584,
            "velocity": 0.7874015748031497
          },
          {
            "duration": 0.4437870000000004,
            "durationTicks": 384,
            "midi": 40,
            "name": "E2",
            "ticks": 89472,
            "time": 103.402371,
            "velocity": 0.7874015748031497
          },
          {
            "duration": 0.4437870000000004,
            "durationTicks": 384,
            "midi": 53,
            "name": "F3",
            "ticks": 89472,
            "time": 103.402371,
            "velocity": 0.7874015748031497
          },
          {
            "duration": 0.4437870000000004,
            "durationTicks": 384,
            "midi": 49,
            "name": "C#3",
            "ticks": 89856,
            "time": 103.846158,
            "velocity": 0.7874015748031497
          },
          {
            "duration": 0.22189349999999308,
            "durationTicks": 192,
            "midi": 36,
            "name": "C2",
            "ticks": 89856,
            "time": 103.846158,
            "velocity": 0.7874015748031497
          },
          {
            "duration": 0.2218935000000073,
            "durationTicks": 192,
            "midi": 36,
            "name": "C2",
            "ticks": 90048,
            "time": 104.0680515,
            "velocity": 0.7874015748031497
          },
          {
            "duration": 0.4437870000000004,
            "durationTicks": 384,
            "midi": 40,
            "name": "E2",
            "ticks": 90240,
            "time": 104.289945,
            "velocity": 0.7874015748031497
          },
          {
            "duration": 0.4437870000000004,
            "durationTicks": 384,
            "midi": 53,
            "name": "F3",
            "ticks": 90240,
            "time": 104.289945,
            "velocity": 0.7874015748031497
          },
          {
            "duration": 0.4437870000000004,
            "durationTicks": 384,
            "midi": 49,
            "name": "C#3",
            "ticks": 90624,
            "time": 104.733732,
            "velocity": 0.7874015748031497
          },
          {
            "duration": 0.4437870000000004,
            "durationTicks": 384,
            "midi": 36,
            "name": "C2",
            "ticks": 90624,
            "time": 104.733732,
            "velocity": 0.7874015748031497
          },
          {
            "duration": 0.44378699999998616,
            "durationTicks": 384,
            "midi": 40,
            "name": "E2",
            "ticks": 91008,
            "time": 105.177519,
            "velocity": 0.7874015748031497
          },
          {
            "duration": 0.44378699999998616,
            "durationTicks": 384,
            "midi": 53,
            "name": "F3",
            "ticks": 91008,
            "time": 105.177519,
            "velocity": 0.7874015748031497
          },
          {
            "duration": 0.4437870000000004,
            "durationTicks": 384,
            "midi": 49,
            "name": "C#3",
            "ticks": 91392,
            "time": 105.62130599999999,
            "velocity": 0.7874015748031497
          },
          {
            "duration": 0.4437870000000004,
            "durationTicks": 384,
            "midi": 36,
            "name": "C2",
            "ticks": 91392,
            "time": 105.62130599999999,
            "velocity": 0.7874015748031497
          },
          {
            "duration": 0.4437870000000004,
            "durationTicks": 384,
            "midi": 40,
            "name": "E2",
            "ticks": 91776,
            "time": 106.06509299999999,
            "velocity": 0.7874015748031497
          },
          {
            "duration": 0.4437870000000004,
            "durationTicks": 384,
            "midi": 53,
            "name": "F3",
            "ticks": 91776,
            "time": 106.06509299999999,
            "velocity": 0.7874015748031497
          },
          {
            "duration": 0.4437870000000004,
            "durationTicks": 384,
            "midi": 49,
            "name": "C#3",
            "ticks": 92160,
            "time": 106.50887999999999,
            "velocity": 0.7874015748031497
          },
          {
            "duration": 0.4437870000000004,
            "durationTicks": 384,
            "midi": 36,
            "name": "C2",
            "ticks": 92160,
            "time": 106.50887999999999,
            "velocity": 0.7874015748031497
          },
          {
            "duration": 0.4437870000000004,
            "durationTicks": 384,
            "midi": 40,
            "name": "E2",
            "ticks": 92544,
            "time": 106.95266699999999,
            "velocity": 0.7874015748031497
          },
          {
            "duration": 0.4437870000000004,
            "durationTicks": 384,
            "midi": 53,
            "name": "F3",
            "ticks": 92544,
            "time": 106.95266699999999,
            "velocity": 0.7874015748031497
          },
          {
            "duration": 0.4437870000000004,
            "durationTicks": 384,
            "midi": 49,
            "name": "C#3",
            "ticks": 92928,
            "time": 107.39645399999999,
            "velocity": 0.7874015748031497
          },
          {
            "duration": 0.2218935000000073,
            "durationTicks": 192,
            "midi": 36,
            "name": "C2",
            "ticks": 92928,
            "time": 107.39645399999999,
            "velocity": 0.7874015748031497
          },
          {
            "duration": 0.22189349999999308,
            "durationTicks": 192,
            "midi": 36,
            "name": "C2",
            "ticks": 93120,
            "time": 107.6183475,
            "velocity": 0.7874015748031497
          },
          {
            "duration": 0.4437870000000004,
            "durationTicks": 384,
            "midi": 40,
            "name": "E2",
            "ticks": 93312,
            "time": 107.84024099999999,
            "velocity": 0.7874015748031497
          },
          {
            "duration": 0.4437870000000004,
            "durationTicks": 384,
            "midi": 53,
            "name": "F3",
            "ticks": 93312,
            "time": 107.84024099999999,
            "velocity": 0.7874015748031497
          },
          {
            "duration": 0.4437870000000004,
            "durationTicks": 384,
            "midi": 49,
            "name": "C#3",
            "ticks": 93696,
            "time": 108.28402799999999,
            "velocity": 0.7874015748031497
          },
          {
            "duration": 0.4437870000000004,
            "durationTicks": 384,
            "midi": 36,
            "name": "C2",
            "ticks": 93696,
            "time": 108.28402799999999,
            "velocity": 0.7874015748031497
          },
          {
            "duration": 0.4437870000000004,
            "durationTicks": 384,
            "midi": 40,
            "name": "E2",
            "ticks": 94080,
            "time": 108.72781499999999,
            "velocity": 0.7874015748031497
          },
          {
            "duration": 0.4437870000000004,
            "durationTicks": 384,
            "midi": 53,
            "name": "F3",
            "ticks": 94080,
            "time": 108.72781499999999,
            "velocity": 0.7874015748031497
          },
          {
            "duration": 0.4437870000000004,
            "durationTicks": 384,
            "midi": 49,
            "name": "C#3",
            "ticks": 94464,
            "time": 109.171602,
            "velocity": 0.7874015748031497
          },
          {
            "duration": 0.4437870000000004,
            "durationTicks": 384,
            "midi": 36,
            "name": "C2",
            "ticks": 94464,
            "time": 109.171602,
            "velocity": 0.7874015748031497
          },
          {
            "duration": 0.4437870000000004,
            "durationTicks": 384,
            "midi": 40,
            "name": "E2",
            "ticks": 94848,
            "time": 109.615389,
            "velocity": 0.7874015748031497
          },
          {
            "duration": 0.4437870000000004,
            "durationTicks": 384,
            "midi": 53,
            "name": "F3",
            "ticks": 94848,
            "time": 109.615389,
            "velocity": 0.7874015748031497
          },
          {
            "duration": 0.4437870000000004,
            "durationTicks": 384,
            "midi": 49,
            "name": "C#3",
            "ticks": 95232,
            "time": 110.059176,
            "velocity": 0.7874015748031497
          },
          {
            "duration": 0.4437870000000004,
            "durationTicks": 384,
            "midi": 36,
            "name": "C2",
            "ticks": 95232,
            "time": 110.059176,
            "velocity": 0.7874015748031497
          },
          {
            "duration": 0.4437870000000004,
            "durationTicks": 384,
            "midi": 40,
            "name": "E2",
            "ticks": 95616,
            "time": 110.502963,
            "velocity": 0.7874015748031497
          },
          {
            "duration": 0.4437870000000004,
            "durationTicks": 384,
            "midi": 53,
            "name": "F3",
            "ticks": 95616,
            "time": 110.502963,
            "velocity": 0.7874015748031497
          },
          {
            "duration": 0.4437870000000004,
            "durationTicks": 384,
            "midi": 49,
            "name": "C#3",
            "ticks": 96000,
            "time": 110.94675,
            "velocity": 0.7874015748031497
          },
          {
            "duration": 0.2218935000000073,
            "durationTicks": 192,
            "midi": 36,
            "name": "C2",
            "ticks": 96000,
            "time": 110.94675,
            "velocity": 0.7874015748031497
          },
          {
            "duration": 0.22189349999999308,
            "durationTicks": 192,
            "midi": 36,
            "name": "C2",
            "ticks": 96192,
            "time": 111.1686435,
            "velocity": 0.7874015748031497
          },
          {
            "duration": 0.4437870000000004,
            "durationTicks": 384,
            "midi": 40,
            "name": "E2",
            "ticks": 96384,
            "time": 111.390537,
            "velocity": 0.7874015748031497
          },
          {
            "duration": 0.4437870000000004,
            "durationTicks": 384,
            "midi": 53,
            "name": "F3",
            "ticks": 96384,
            "time": 111.390537,
            "velocity": 0.7874015748031497
          },
          {
            "duration": 0.4437870000000004,
            "durationTicks": 384,
            "midi": 49,
            "name": "C#3",
            "ticks": 96768,
            "time": 111.834324,
            "velocity": 0.7874015748031497
          },
          {
            "duration": 0.4437870000000004,
            "durationTicks": 384,
            "midi": 36,
            "name": "C2",
            "ticks": 96768,
            "time": 111.834324,
            "velocity": 0.7874015748031497
          },
          {
            "duration": 0.4437870000000004,
            "durationTicks": 384,
            "midi": 40,
            "name": "E2",
            "ticks": 97152,
            "time": 112.278111,
            "velocity": 0.7874015748031497
          },
          {
            "duration": 0.4437870000000004,
            "durationTicks": 384,
            "midi": 53,
            "name": "F3",
            "ticks": 97152,
            "time": 112.278111,
            "velocity": 0.7874015748031497
          },
          {
            "duration": 0.4437870000000004,
            "durationTicks": 384,
            "midi": 49,
            "name": "C#3",
            "ticks": 97536,
            "time": 112.721898,
            "velocity": 0.7874015748031497
          },
          {
            "duration": 0.2218935000000073,
            "durationTicks": 192,
            "midi": 36,
            "name": "C2",
            "ticks": 97536,
            "time": 112.721898,
            "velocity": 0.7874015748031497
          },
          {
            "duration": 0.22189349999999308,
            "durationTicks": 192,
            "midi": 36,
            "name": "C2",
            "ticks": 97728,
            "time": 112.9437915,
            "velocity": 0.7874015748031497
          },
          {
            "duration": 0.4437870000000004,
            "durationTicks": 384,
            "midi": 40,
            "name": "E2",
            "ticks": 97920,
            "time": 113.165685,
            "velocity": 0.7874015748031497
          },
          {
            "duration": 0.4437870000000004,
            "durationTicks": 384,
            "midi": 53,
            "name": "F3",
            "ticks": 97920,
            "time": 113.165685,
            "velocity": 0.7874015748031497
          },
          {
            "duration": 0.4437870000000004,
            "durationTicks": 384,
            "midi": 49,
            "name": "C#3",
            "ticks": 98304,
            "time": 113.609472,
            "velocity": 0.7874015748031497
          },
          {
            "duration": 0.4437870000000004,
            "durationTicks": 384,
            "midi": 36,
            "name": "C2",
            "ticks": 98304,
            "time": 113.609472,
            "velocity": 0.7874015748031497
          },
          {
            "duration": 0.4437870000000004,
            "durationTicks": 384,
            "midi": 40,
            "name": "E2",
            "ticks": 98688,
            "time": 114.053259,
            "velocity": 0.7874015748031497
          },
          {
            "duration": 0.4437870000000004,
            "durationTicks": 384,
            "midi": 53,
            "name": "F3",
            "ticks": 98688,
            "time": 114.053259,
            "velocity": 0.7874015748031497
          },
          {
            "duration": 0.4437870000000004,
            "durationTicks": 384,
            "midi": 49,
            "name": "C#3",
            "ticks": 99072,
            "time": 114.497046,
            "velocity": 0.7874015748031497
          },
          {
            "duration": 0.22189349999999308,
            "durationTicks": 192,
            "midi": 36,
            "name": "C2",
            "ticks": 99072,
            "time": 114.497046,
            "velocity": 0.7874015748031497
          },
          {
            "duration": 0.2218935000000073,
            "durationTicks": 192,
            "midi": 36,
            "name": "C2",
            "ticks": 99264,
            "time": 114.71893949999999,
            "velocity": 0.7874015748031497
          },
          {
            "duration": 0.4437870000000004,
            "durationTicks": 384,
            "midi": 40,
            "name": "E2",
            "ticks": 99456,
            "time": 114.940833,
            "velocity": 0.7874015748031497
          },
          {
            "duration": 0.4437870000000004,
            "durationTicks": 384,
            "midi": 53,
            "name": "F3",
            "ticks": 99456,
            "time": 114.940833,
            "velocity": 0.7874015748031497
          },
          {
            "duration": 0.4437870000000004,
            "durationTicks": 384,
            "midi": 49,
            "name": "C#3",
            "ticks": 99840,
            "time": 115.38462,
            "velocity": 0.7874015748031497
          },
          {
            "duration": 0.4437870000000004,
            "durationTicks": 384,
            "midi": 36,
            "name": "C2",
            "ticks": 99840,
            "time": 115.38462,
            "velocity": 0.7874015748031497
          },
          {
            "duration": 0.4437870000000004,
            "durationTicks": 384,
            "midi": 40,
            "name": "E2",
            "ticks": 100224,
            "time": 115.828407,
            "velocity": 0.7874015748031497
          },
          {
            "duration": 0.4437870000000004,
            "durationTicks": 384,
            "midi": 53,
            "name": "F3",
            "ticks": 100224,
            "time": 115.828407,
            "velocity": 0.7874015748031497
          },
          {
            "duration": 0.4437870000000004,
            "durationTicks": 384,
            "midi": 49,
            "name": "C#3",
            "ticks": 100608,
            "time": 116.272194,
            "velocity": 0.7874015748031497
          },
          {
            "duration": 0.22189349999999308,
            "durationTicks": 192,
            "midi": 36,
            "name": "C2",
            "ticks": 100608,
            "time": 116.272194,
            "velocity": 0.7874015748031497
          },
          {
            "duration": 0.2218935000000073,
            "durationTicks": 192,
            "midi": 36,
            "name": "C2",
            "ticks": 100800,
            "time": 116.49408749999999,
            "velocity": 0.7874015748031497
          },
          {
            "duration": 0.4437870000000004,
            "durationTicks": 384,
            "midi": 40,
            "name": "E2",
            "ticks": 100992,
            "time": 116.715981,
            "velocity": 0.7874015748031497
          },
          {
            "duration": 0.4437870000000004,
            "durationTicks": 384,
            "midi": 53,
            "name": "F3",
            "ticks": 100992,
            "time": 116.715981,
            "velocity": 0.7874015748031497
          },
          {
            "duration": 0.4437870000000004,
            "durationTicks": 384,
            "midi": 42,
            "name": "F#2",
            "ticks": 101376,
            "time": 117.159768,
            "velocity": 0.7874015748031497
          },
          {
            "duration": 0.4437870000000004,
            "durationTicks": 384,
            "midi": 36,
            "name": "C2",
            "ticks": 101376,
            "time": 117.159768,
            "velocity": 0.7874015748031497
          },
          {
            "duration": 0.4437870000000004,
            "durationTicks": 384,
            "midi": 42,
            "name": "F#2",
            "ticks": 101760,
            "time": 117.603555,
            "velocity": 0.7874015748031497
          },
          {
            "duration": 0.4437870000000004,
            "durationTicks": 384,
            "midi": 40,
            "name": "E2",
            "ticks": 101760,
            "time": 117.603555,
            "velocity": 0.7874015748031497
          },
          {
            "duration": 0.4437870000000004,
            "durationTicks": 384,
            "midi": 42,
            "name": "F#2",
            "ticks": 102144,
            "time": 118.047342,
            "velocity": 0.7874015748031497
          },
          {
            "duration": 0.22189349999999308,
            "durationTicks": 192,
            "midi": 36,
            "name": "C2",
            "ticks": 102144,
            "time": 118.047342,
            "velocity": 0.7874015748031497
          },
          {
            "duration": 0.2218935000000073,
            "durationTicks": 192,
            "midi": 36,
            "name": "C2",
            "ticks": 102336,
            "time": 118.2692355,
            "velocity": 0.7874015748031497
          },
          {
            "duration": 0.4437870000000004,
            "durationTicks": 384,
            "midi": 42,
            "name": "F#2",
            "ticks": 102528,
            "time": 118.491129,
            "velocity": 0.7874015748031497
          },
          {
            "duration": 0.4437870000000004,
            "durationTicks": 384,
            "midi": 40,
            "name": "E2",
            "ticks": 102528,
            "time": 118.491129,
            "velocity": 0.7874015748031497
          },
          {
            "duration": 0.4437870000000004,
            "durationTicks": 384,
            "midi": 42,
            "name": "F#2",
            "ticks": 102912,
            "time": 118.934916,
            "velocity": 0.7874015748031497
          },
          {
            "duration": 0.4437870000000004,
            "durationTicks": 384,
            "midi": 36,
            "name": "C2",
            "ticks": 102912,
            "time": 118.934916,
            "velocity": 0.7874015748031497
          },
          {
            "duration": 0.4437870000000004,
            "durationTicks": 384,
            "midi": 42,
            "name": "F#2",
            "ticks": 103296,
            "time": 119.378703,
            "velocity": 0.7874015748031497
          },
          {
            "duration": 0.4437870000000004,
            "durationTicks": 384,
            "midi": 40,
            "name": "E2",
            "ticks": 103296,
            "time": 119.378703,
            "velocity": 0.7874015748031497
          },
          {
            "duration": 0.4437870000000004,
            "durationTicks": 384,
            "midi": 42,
            "name": "F#2",
            "ticks": 103680,
            "time": 119.82249,
            "velocity": 0.7874015748031497
          },
          {
            "duration": 0.4437870000000004,
            "durationTicks": 384,
            "midi": 36,
            "name": "C2",
            "ticks": 103680,
            "time": 119.82249,
            "velocity": 0.7874015748031497
          },
          {
            "duration": 0.4437870000000004,
            "durationTicks": 384,
            "midi": 42,
            "name": "F#2",
            "ticks": 104064,
            "time": 120.266277,
            "velocity": 0.7874015748031497
          },
          {
            "duration": 0.4437870000000004,
            "durationTicks": 384,
            "midi": 40,
            "name": "E2",
            "ticks": 104064,
            "time": 120.266277,
            "velocity": 0.7874015748031497
          },
          {
            "duration": 0.4437870000000004,
            "durationTicks": 384,
            "midi": 49,
            "name": "C#3",
            "ticks": 104448,
            "time": 120.710064,
            "velocity": 0.7874015748031497
          },
          {
            "duration": 0.4437870000000004,
            "durationTicks": 384,
            "midi": 36,
            "name": "C2",
            "ticks": 104448,
            "time": 120.710064,
            "velocity": 0.7874015748031497
          },
          {
            "duration": 0.4437870000000004,
            "durationTicks": 384,
            "midi": 40,
            "name": "E2",
            "ticks": 104832,
            "time": 121.153851,
            "velocity": 0.7874015748031497
          },
          {
            "duration": 0.4437870000000004,
            "durationTicks": 384,
            "midi": 53,
            "name": "F3",
            "ticks": 104832,
            "time": 121.153851,
            "velocity": 0.7874015748031497
          },
          {
            "duration": 0.22189349999999308,
            "durationTicks": 192,
            "midi": 36,
            "name": "C2",
            "ticks": 105216,
            "time": 121.597638,
            "velocity": 0.7874015748031497
          },
          {
            "duration": 0.44378699999998616,
            "durationTicks": 384,
            "midi": 53,
            "name": "F3",
            "ticks": 105216,
            "time": 121.597638,
            "velocity": 0.7874015748031497
          },
          {
            "duration": 0.22189349999999308,
            "durationTicks": 192,
            "midi": 36,
            "name": "C2",
            "ticks": 105408,
            "time": 121.8195315,
            "velocity": 0.7874015748031497
          },
          {
            "duration": 0.4437870000000004,
            "durationTicks": 384,
            "midi": 40,
            "name": "E2",
            "ticks": 105600,
            "time": 122.04142499999999,
            "velocity": 0.7874015748031497
          },
          {
            "duration": 0.4437870000000004,
            "durationTicks": 384,
            "midi": 53,
            "name": "F3",
            "ticks": 105600,
            "time": 122.04142499999999,
            "velocity": 0.7874015748031497
          },
          {
            "duration": 0.4437870000000004,
            "durationTicks": 384,
            "midi": 36,
            "name": "C2",
            "ticks": 105984,
            "time": 122.48521199999999,
            "velocity": 0.7874015748031497
          },
          {
            "duration": 0.4437870000000004,
            "durationTicks": 384,
            "midi": 53,
            "name": "F3",
            "ticks": 105984,
            "time": 122.48521199999999,
            "velocity": 0.7874015748031497
          },
          {
            "duration": 0.4437870000000004,
            "durationTicks": 384,
            "midi": 40,
            "name": "E2",
            "ticks": 106368,
            "time": 122.92899899999999,
            "velocity": 0.7874015748031497
          },
          {
            "duration": 0.4437870000000004,
            "durationTicks": 384,
            "midi": 53,
            "name": "F3",
            "ticks": 106368,
            "time": 122.92899899999999,
            "velocity": 0.7874015748031497
          },
          {
            "duration": 0.2218935000000073,
            "durationTicks": 192,
            "midi": 36,
            "name": "C2",
            "ticks": 106752,
            "time": 123.37278599999999,
            "velocity": 0.7874015748031497
          },
          {
            "duration": 0.4437870000000004,
            "durationTicks": 384,
            "midi": 53,
            "name": "F3",
            "ticks": 106752,
            "time": 123.37278599999999,
            "velocity": 0.7874015748031497
          },
          {
            "duration": 0.22189349999999308,
            "durationTicks": 192,
            "midi": 36,
            "name": "C2",
            "ticks": 106944,
            "time": 123.5946795,
            "velocity": 0.7874015748031497
          },
          {
            "duration": 0.4437870000000004,
            "durationTicks": 384,
            "midi": 40,
            "name": "E2",
            "ticks": 107136,
            "time": 123.81657299999999,
            "velocity": 0.7874015748031497
          },
          {
            "duration": 0.4437870000000004,
            "durationTicks": 384,
            "midi": 53,
            "name": "F3",
            "ticks": 107136,
            "time": 123.81657299999999,
            "velocity": 0.7874015748031497
          },
          {
            "duration": 0.4437870000000004,
            "durationTicks": 384,
            "midi": 42,
            "name": "F#2",
            "ticks": 107520,
            "time": 124.26035999999999,
            "velocity": 0.7874015748031497
          },
          {
            "duration": 0.4437870000000004,
            "durationTicks": 384,
            "midi": 36,
            "name": "C2",
            "ticks": 107520,
            "time": 124.26035999999999,
            "velocity": 0.7874015748031497
          },
          {
            "duration": 0.4437870000000004,
            "durationTicks": 384,
            "midi": 42,
            "name": "F#2",
            "ticks": 107904,
            "time": 124.70414699999999,
            "velocity": 0.7874015748031497
          },
          {
            "duration": 0.4437870000000004,
            "durationTicks": 384,
            "midi": 40,
            "name": "E2",
            "ticks": 107904,
            "time": 124.70414699999999,
            "velocity": 0.7874015748031497
          },
          {
            "duration": 0.4437870000000004,
            "durationTicks": 384,
            "midi": 42,
            "name": "F#2",
            "ticks": 108288,
            "time": 125.14793399999999,
            "velocity": 0.7874015748031497
          },
          {
            "duration": 0.2218935000000073,
            "durationTicks": 192,
            "midi": 36,
            "name": "C2",
            "ticks": 108288,
            "time": 125.14793399999999,
            "velocity": 0.7874015748031497
          },
          {
            "duration": 0.22189349999999308,
            "durationTicks": 192,
            "midi": 36,
            "name": "C2",
            "ticks": 108480,
            "time": 125.3698275,
            "velocity": 0.7874015748031497
          },
          {
            "duration": 0.4437870000000004,
            "durationTicks": 384,
            "midi": 42,
            "name": "F#2",
            "ticks": 108672,
            "time": 125.59172099999999,
            "velocity": 0.7874015748031497
          },
          {
            "duration": 0.4437870000000004,
            "durationTicks": 384,
            "midi": 40,
            "name": "E2",
            "ticks": 108672,
            "time": 125.59172099999999,
            "velocity": 0.7874015748031497
          },
          {
            "duration": 0.4437870000000004,
            "durationTicks": 384,
            "midi": 42,
            "name": "F#2",
            "ticks": 109056,
            "time": 126.035508,
            "velocity": 0.7874015748031497
          },
          {
            "duration": 0.4437870000000004,
            "durationTicks": 384,
            "midi": 36,
            "name": "C2",
            "ticks": 109056,
            "time": 126.035508,
            "velocity": 0.7874015748031497
          },
          {
            "duration": 0.4437870000000004,
            "durationTicks": 384,
            "midi": 42,
            "name": "F#2",
            "ticks": 109440,
            "time": 126.479295,
            "velocity": 0.7874015748031497
          },
          {
            "duration": 0.4437870000000004,
            "durationTicks": 384,
            "midi": 40,
            "name": "E2",
            "ticks": 109440,
            "time": 126.479295,
            "velocity": 0.7874015748031497
          },
          {
            "duration": 0.4437870000000004,
            "durationTicks": 384,
            "midi": 42,
            "name": "F#2",
            "ticks": 109824,
            "time": 126.923082,
            "velocity": 0.7874015748031497
          },
          {
            "duration": 0.4437870000000004,
            "durationTicks": 384,
            "midi": 36,
            "name": "C2",
            "ticks": 109824,
            "time": 126.923082,
            "velocity": 0.7874015748031497
          },
          {
            "duration": 0.4437870000000004,
            "durationTicks": 384,
            "midi": 42,
            "name": "F#2",
            "ticks": 110208,
            "time": 127.366869,
            "velocity": 0.7874015748031497
          },
          {
            "duration": 0.4437870000000004,
            "durationTicks": 384,
            "midi": 40,
            "name": "E2",
            "ticks": 110208,
            "time": 127.366869,
            "velocity": 0.7874015748031497
          },
          {
            "duration": 0.4437870000000146,
            "durationTicks": 384,
            "midi": 49,
            "name": "C#3",
            "ticks": 110592,
            "time": 127.810656,
            "velocity": 0.7874015748031497
          },
          {
            "duration": 0.4437870000000146,
            "durationTicks": 384,
            "midi": 36,
            "name": "C2",
            "ticks": 110592,
            "time": 127.810656,
            "velocity": 0.7874015748031497
          },
          {
            "duration": 0.44378699999998616,
            "durationTicks": 384,
            "midi": 40,
            "name": "E2",
            "ticks": 110976,
            "time": 128.254443,
            "velocity": 0.7874015748031497
          },
          {
            "duration": 0.44378699999998616,
            "durationTicks": 384,
            "midi": 53,
            "name": "F3",
            "ticks": 110976,
            "time": 128.254443,
            "velocity": 0.7874015748031497
          },
          {
            "duration": 0.22189349999999308,
            "durationTicks": 192,
            "midi": 36,
            "name": "C2",
            "ticks": 111360,
            "time": 128.69823,
            "velocity": 0.7874015748031497
          },
          {
            "duration": 0.4437870000000146,
            "durationTicks": 384,
            "midi": 53,
            "name": "F3",
            "ticks": 111360,
            "time": 128.69823,
            "velocity": 0.7874015748031497
          },
          {
            "duration": 0.2218935000000215,
            "durationTicks": 192,
            "midi": 36,
            "name": "C2",
            "ticks": 111552,
            "time": 128.9201235,
            "velocity": 0.7874015748031497
          },
          {
            "duration": 0.44378699999998616,
            "durationTicks": 384,
            "midi": 40,
            "name": "E2",
            "ticks": 111744,
            "time": 129.142017,
            "velocity": 0.7874015748031497
          },
          {
            "duration": 0.44378699999998616,
            "durationTicks": 384,
            "midi": 53,
            "name": "F3",
            "ticks": 111744,
            "time": 129.142017,
            "velocity": 0.7874015748031497
          },
          {
            "duration": 0.44378699999998616,
            "durationTicks": 384,
            "midi": 36,
            "name": "C2",
            "ticks": 112128,
            "time": 129.585804,
            "velocity": 0.7874015748031497
          },
          {
            "duration": 0.44378699999998616,
            "durationTicks": 384,
            "midi": 53,
            "name": "F3",
            "ticks": 112128,
            "time": 129.585804,
            "velocity": 0.7874015748031497
          },
          {
            "duration": 0.4437870000000146,
            "durationTicks": 384,
            "midi": 40,
            "name": "E2",
            "ticks": 112512,
            "time": 130.02959099999998,
            "velocity": 0.7874015748031497
          },
          {
            "duration": 0.4437870000000146,
            "durationTicks": 384,
            "midi": 53,
            "name": "F3",
            "ticks": 112512,
            "time": 130.02959099999998,
            "velocity": 0.7874015748031497
          },
          {
            "duration": 0.22189349999999308,
            "durationTicks": 192,
            "midi": 36,
            "name": "C2",
            "ticks": 112896,
            "time": 130.473378,
            "velocity": 0.7874015748031497
          },
          {
            "duration": 0.44378699999998616,
            "durationTicks": 384,
            "midi": 53,
            "name": "F3",
            "ticks": 112896,
            "time": 130.473378,
            "velocity": 0.7874015748031497
          },
          {
            "duration": 0.22189349999999308,
            "durationTicks": 192,
            "midi": 36,
            "name": "C2",
            "ticks": 113088,
            "time": 130.6952715,
            "velocity": 0.7874015748031497
          },
          {
            "duration": 0.4437870000000146,
            "durationTicks": 384,
            "midi": 40,
            "name": "E2",
            "ticks": 113280,
            "time": 130.91716499999998,
            "velocity": 0.7874015748031497
          },
          {
            "duration": 0.4437870000000146,
            "durationTicks": 384,
            "midi": 53,
            "name": "F3",
            "ticks": 113280,
            "time": 130.91716499999998,
            "velocity": 0.7874015748031497
          },
          {
            "duration": 0.44378699999998616,
            "durationTicks": 384,
            "midi": 42,
            "name": "F#2",
            "ticks": 113664,
            "time": 131.360952,
            "velocity": 0.7874015748031497
          },
          {
            "duration": 0.44378699999998616,
            "durationTicks": 384,
            "midi": 36,
            "name": "C2",
            "ticks": 113664,
            "time": 131.360952,
            "velocity": 0.7874015748031497
          },
          {
            "duration": 0.4437870000000146,
            "durationTicks": 384,
            "midi": 42,
            "name": "F#2",
            "ticks": 114048,
            "time": 131.80473899999998,
            "velocity": 0.7874015748031497
          },
          {
            "duration": 0.4437870000000146,
            "durationTicks": 384,
            "midi": 40,
            "name": "E2",
            "ticks": 114048,
            "time": 131.80473899999998,
            "velocity": 0.7874015748031497
          },
          {
            "duration": 0.44378699999998616,
            "durationTicks": 384,
            "midi": 42,
            "name": "F#2",
            "ticks": 114432,
            "time": 132.248526,
            "velocity": 0.7874015748031497
          },
          {
            "duration": 0.22189349999999308,
            "durationTicks": 192,
            "midi": 36,
            "name": "C2",
            "ticks": 114432,
            "time": 132.248526,
            "velocity": 0.7874015748031497
          },
          {
            "duration": 0.22189349999999308,
            "durationTicks": 192,
            "midi": 36,
            "name": "C2",
            "ticks": 114624,
            "time": 132.4704195,
            "velocity": 0.7874015748031497
          },
          {
            "duration": 0.4437870000000146,
            "durationTicks": 384,
            "midi": 42,
            "name": "F#2",
            "ticks": 114816,
            "time": 132.69231299999998,
            "velocity": 0.7874015748031497
          },
          {
            "duration": 0.4437870000000146,
            "durationTicks": 384,
            "midi": 40,
            "name": "E2",
            "ticks": 114816,
            "time": 132.69231299999998,
            "velocity": 0.7874015748031497
          },
          {
            "duration": 0.44378699999998616,
            "durationTicks": 384,
            "midi": 42,
            "name": "F#2",
            "ticks": 115200,
            "time": 133.1361,
            "velocity": 0.7874015748031497
          },
          {
            "duration": 0.44378699999998616,
            "durationTicks": 384,
            "midi": 36,
            "name": "C2",
            "ticks": 115200,
            "time": 133.1361,
            "velocity": 0.7874015748031497
          },
          {
            "duration": 0.4437870000000146,
            "durationTicks": 384,
            "midi": 42,
            "name": "F#2",
            "ticks": 115584,
            "time": 133.57988699999999,
            "velocity": 0.7874015748031497
          },
          {
            "duration": 0.4437870000000146,
            "durationTicks": 384,
            "midi": 40,
            "name": "E2",
            "ticks": 115584,
            "time": 133.57988699999999,
            "velocity": 0.7874015748031497
          },
          {
            "duration": 0.44378699999998616,
            "durationTicks": 384,
            "midi": 42,
            "name": "F#2",
            "ticks": 115968,
            "time": 134.023674,
            "velocity": 0.7874015748031497
          },
          {
            "duration": 0.44378699999998616,
            "durationTicks": 384,
            "midi": 36,
            "name": "C2",
            "ticks": 115968,
            "time": 134.023674,
            "velocity": 0.7874015748031497
          },
          {
            "duration": 0.4437870000000146,
            "durationTicks": 384,
            "midi": 42,
            "name": "F#2",
            "ticks": 116352,
            "time": 134.467461,
            "velocity": 0.7874015748031497
          },
          {
            "duration": 0.4437870000000146,
            "durationTicks": 384,
            "midi": 40,
            "name": "E2",
            "ticks": 116352,
            "time": 134.467461,
            "velocity": 0.7874015748031497
          },
          {
            "duration": 0.44378699999998616,
            "durationTicks": 384,
            "midi": 49,
            "name": "C#3",
            "ticks": 116736,
            "time": 134.911248,
            "velocity": 0.7874015748031497
          },
          {
            "duration": 0.44378699999998616,
            "durationTicks": 384,
            "midi": 36,
            "name": "C2",
            "ticks": 116736,
            "time": 134.911248,
            "velocity": 0.7874015748031497
          },
          {
            "duration": 0.4437870000000146,
            "durationTicks": 384,
            "midi": 40,
            "name": "E2",
            "ticks": 117120,
            "time": 135.355035,
            "velocity": 0.7874015748031497
          },
          {
            "duration": 0.4437870000000146,
            "durationTicks": 384,
            "midi": 53,
            "name": "F3",
            "ticks": 117120,
            "time": 135.355035,
            "velocity": 0.7874015748031497
          },
          {
            "duration": 0.22189349999999308,
            "durationTicks": 192,
            "midi": 36,
            "name": "C2",
            "ticks": 117504,
            "time": 135.798822,
            "velocity": 0.7874015748031497
          },
          {
            "duration": 0.44378699999998616,
            "durationTicks": 384,
            "midi": 53,
            "name": "F3",
            "ticks": 117504,
            "time": 135.798822,
            "velocity": 0.7874015748031497
          },
          {
            "duration": 0.22189349999999308,
            "durationTicks": 192,
            "midi": 36,
            "name": "C2",
            "ticks": 117696,
            "time": 136.0207155,
            "velocity": 0.7874015748031497
          },
          {
            "duration": 0.4437870000000146,
            "durationTicks": 384,
            "midi": 40,
            "name": "E2",
            "ticks": 117888,
            "time": 136.242609,
            "velocity": 0.7874015748031497
          },
          {
            "duration": 0.4437870000000146,
            "durationTicks": 384,
            "midi": 53,
            "name": "F3",
            "ticks": 117888,
            "time": 136.242609,
            "velocity": 0.7874015748031497
          },
          {
            "duration": 0.44378699999998616,
            "durationTicks": 384,
            "midi": 36,
            "name": "C2",
            "ticks": 118272,
            "time": 136.686396,
            "velocity": 0.7874015748031497
          },
          {
            "duration": 0.44378699999998616,
            "durationTicks": 384,
            "midi": 53,
            "name": "F3",
            "ticks": 118272,
            "time": 136.686396,
            "velocity": 0.7874015748031497
          },
          {
            "duration": 0.4437870000000146,
            "durationTicks": 384,
            "midi": 40,
            "name": "E2",
            "ticks": 118656,
            "time": 137.130183,
            "velocity": 0.7874015748031497
          },
          {
            "duration": 0.4437870000000146,
            "durationTicks": 384,
            "midi": 53,
            "name": "F3",
            "ticks": 118656,
            "time": 137.130183,
            "velocity": 0.7874015748031497
          },
          {
            "duration": 0.22189349999999308,
            "durationTicks": 192,
            "midi": 36,
            "name": "C2",
            "ticks": 119040,
            "time": 137.57397,
            "velocity": 0.7874015748031497
          },
          {
            "duration": 0.44378699999998616,
            "durationTicks": 384,
            "midi": 53,
            "name": "F3",
            "ticks": 119040,
            "time": 137.57397,
            "velocity": 0.7874015748031497
          },
          {
            "duration": 0.22189349999999308,
            "durationTicks": 192,
            "midi": 36,
            "name": "C2",
            "ticks": 119232,
            "time": 137.7958635,
            "velocity": 0.7874015748031497
          },
          {
            "duration": 0.4437870000000146,
            "durationTicks": 384,
            "midi": 40,
            "name": "E2",
            "ticks": 119424,
            "time": 138.017757,
            "velocity": 0.7874015748031497
          },
          {
            "duration": 0.4437870000000146,
            "durationTicks": 384,
            "midi": 53,
            "name": "F3",
            "ticks": 119424,
            "time": 138.017757,
            "velocity": 0.7874015748031497
          },
          {
            "duration": 0.44378699999998616,
            "durationTicks": 384,
            "midi": 42,
            "name": "F#2",
            "ticks": 119808,
            "time": 138.461544,
            "velocity": 0.7874015748031497
          },
          {
            "duration": 0.44378699999998616,
            "durationTicks": 384,
            "midi": 36,
            "name": "C2",
            "ticks": 119808,
            "time": 138.461544,
            "velocity": 0.7874015748031497
          },
          {
            "duration": 0.4437870000000146,
            "durationTicks": 384,
            "midi": 42,
            "name": "F#2",
            "ticks": 120192,
            "time": 138.905331,
            "velocity": 0.7874015748031497
          },
          {
            "duration": 0.4437870000000146,
            "durationTicks": 384,
            "midi": 40,
            "name": "E2",
            "ticks": 120192,
            "time": 138.905331,
            "velocity": 0.7874015748031497
          },
          {
            "duration": 0.44378699999998616,
            "durationTicks": 384,
            "midi": 42,
            "name": "F#2",
            "ticks": 120576,
            "time": 139.349118,
            "velocity": 0.7874015748031497
          },
          {
            "duration": 0.22189349999999308,
            "durationTicks": 192,
            "midi": 36,
            "name": "C2",
            "ticks": 120576,
            "time": 139.349118,
            "velocity": 0.7874015748031497
          },
          {
            "duration": 0.22189349999999308,
            "durationTicks": 192,
            "midi": 36,
            "name": "C2",
            "ticks": 120768,
            "time": 139.5710115,
            "velocity": 0.7874015748031497
          },
          {
            "duration": 0.4437870000000146,
            "durationTicks": 384,
            "midi": 42,
            "name": "F#2",
            "ticks": 120960,
            "time": 139.792905,
            "velocity": 0.7874015748031497
          },
          {
            "duration": 0.4437870000000146,
            "durationTicks": 384,
            "midi": 40,
            "name": "E2",
            "ticks": 120960,
            "time": 139.792905,
            "velocity": 0.7874015748031497
          },
          {
            "duration": 0.44378699999998616,
            "durationTicks": 384,
            "midi": 42,
            "name": "F#2",
            "ticks": 121344,
            "time": 140.236692,
            "velocity": 0.7874015748031497
          },
          {
            "duration": 0.44378699999998616,
            "durationTicks": 384,
            "midi": 36,
            "name": "C2",
            "ticks": 121344,
            "time": 140.236692,
            "velocity": 0.7874015748031497
          },
          {
            "duration": 0.4437870000000146,
            "durationTicks": 384,
            "midi": 42,
            "name": "F#2",
            "ticks": 121728,
            "time": 140.680479,
            "velocity": 0.7874015748031497
          },
          {
            "duration": 0.4437870000000146,
            "durationTicks": 384,
            "midi": 40,
            "name": "E2",
            "ticks": 121728,
            "time": 140.680479,
            "velocity": 0.7874015748031497
          },
          {
            "duration": 0.44378699999998616,
            "durationTicks": 384,
            "midi": 42,
            "name": "F#2",
            "ticks": 122112,
            "time": 141.124266,
            "velocity": 0.7874015748031497
          },
          {
            "duration": 0.44378699999998616,
            "durationTicks": 384,
            "midi": 36,
            "name": "C2",
            "ticks": 122112,
            "time": 141.124266,
            "velocity": 0.7874015748031497
          },
          {
            "duration": 0.4437870000000146,
            "durationTicks": 384,
            "midi": 42,
            "name": "F#2",
            "ticks": 122496,
            "time": 141.568053,
            "velocity": 0.7874015748031497
          },
          {
            "duration": 0.4437870000000146,
            "durationTicks": 384,
            "midi": 40,
            "name": "E2",
            "ticks": 122496,
            "time": 141.568053,
            "velocity": 0.7874015748031497
          },
          {
            "duration": 0.44378699999998616,
            "durationTicks": 384,
            "midi": 49,
            "name": "C#3",
            "ticks": 122880,
            "time": 142.01184,
            "velocity": 0.7874015748031497
          },
          {
            "duration": 0.44378699999998616,
            "durationTicks": 384,
            "midi": 36,
            "name": "C2",
            "ticks": 122880,
            "time": 142.01184,
            "velocity": 0.7874015748031497
          },
          {
            "duration": 0.4437870000000146,
            "durationTicks": 384,
            "midi": 40,
            "name": "E2",
            "ticks": 123264,
            "time": 142.455627,
            "velocity": 0.7874015748031497
          },
          {
            "duration": 0.4437870000000146,
            "durationTicks": 384,
            "midi": 53,
            "name": "F3",
            "ticks": 123264,
            "time": 142.455627,
            "velocity": 0.7874015748031497
          },
          {
            "duration": 0.22189349999999308,
            "durationTicks": 192,
            "midi": 36,
            "name": "C2",
            "ticks": 123648,
            "time": 142.899414,
            "velocity": 0.7874015748031497
          },
          {
            "duration": 0.44378699999998616,
            "durationTicks": 384,
            "midi": 53,
            "name": "F3",
            "ticks": 123648,
            "time": 142.899414,
            "velocity": 0.7874015748031497
          },
          {
            "duration": 0.22189349999999308,
            "durationTicks": 192,
            "midi": 36,
            "name": "C2",
            "ticks": 123840,
            "time": 143.1213075,
            "velocity": 0.7874015748031497
          },
          {
            "duration": 0.4437870000000146,
            "durationTicks": 384,
            "midi": 40,
            "name": "E2",
            "ticks": 124032,
            "time": 143.343201,
            "velocity": 0.7874015748031497
          },
          {
            "duration": 0.4437870000000146,
            "durationTicks": 384,
            "midi": 53,
            "name": "F3",
            "ticks": 124032,
            "time": 143.343201,
            "velocity": 0.7874015748031497
          },
          {
            "duration": 2.2189349999999877,
            "durationTicks": 1920,
            "midi": 36,
            "name": "C2",
            "ticks": 124416,
            "time": 143.786988,
            "velocity": 0.7874015748031497
          },
          {
            "duration": 2.2189349999999877,
            "durationTicks": 1920,
            "midi": 53,
            "name": "F3",
            "ticks": 124416,
            "time": 143.786988,
            "velocity": 0.7874015748031497
          },
          {
            "duration": 0.44378699999998616,
            "durationTicks": 384,
            "midi": 49,
            "name": "C#3",
            "ticks": 126336,
            "time": 146.005923,
            "velocity": 0.7874015748031497
          },
          {
            "duration": 0.44378699999998616,
            "durationTicks": 384,
            "midi": 36,
            "name": "C2",
            "ticks": 126336,
            "time": 146.005923,
            "velocity": 0.7874015748031497
          },
          {
            "duration": 1.7751480000000015,
            "durationTicks": 1536,
            "midi": 49,
            "name": "C#3",
            "ticks": 126720,
            "time": 146.44970999999998,
            "velocity": 0.7874015748031497
          },
          {
            "duration": 1.7751480000000015,
            "durationTicks": 1536,
            "midi": 36,
            "name": "C2",
            "ticks": 126720,
            "time": 146.44970999999998,
            "velocity": 0.7874015748031497
          },
          {
            "duration": 0.8875740000000008,
            "durationTicks": 768,
            "midi": 49,
            "name": "C#3",
            "ticks": 128256,
            "time": 148.22485799999998,
            "velocity": 0.7874015748031497
          },
          {
            "duration": 0.2218935000000215,
            "durationTicks": 192,
            "midi": 40,
            "name": "E2",
            "ticks": 128256,
            "time": 148.22485799999998,
            "velocity": 0.7874015748031497
          },
          {
            "duration": 0.21727071875000092,
            "durationTicks": 188,
            "midi": 36,
            "name": "C2",
            "ticks": 128264,
            "time": 148.2341035625,
            "velocity": 0.7874015748031497
          },
          {
            "duration": 0.22189349999999308,
            "durationTicks": 192,
            "midi": 40,
            "name": "E2",
            "ticks": 128448,
            "time": 148.4467515,
            "velocity": 0.7874015748031497
          },
          {
            "duration": 0.11094675000001075,
            "durationTicks": 96,
            "midi": 40,
            "name": "E2",
            "ticks": 128640,
            "time": 148.668645,
            "velocity": 0.7874015748031497
          },
          {
            "duration": 0.11094674999998233,
            "durationTicks": 96,
            "midi": 40,
            "name": "E2",
            "ticks": 128736,
            "time": 148.77959175,
            "velocity": 0.7874015748031497
          },
          {
            "duration": 0.11094675000001075,
            "durationTicks": 96,
            "midi": 40,
            "name": "E2",
            "ticks": 128832,
            "time": 148.8905385,
            "velocity": 0.7874015748031497
          },
          {
            "duration": 0.11094674999998233,
            "durationTicks": 96,
            "midi": 40,
            "name": "E2",
            "ticks": 128928,
            "time": 149.00148525,
            "velocity": 0.7874015748031497
          },
          {
            "duration": 0.4437870000000146,
            "durationTicks": 384,
            "midi": 49,
            "name": "C#3",
            "ticks": 129024,
            "time": 149.11243199999998,
            "velocity": 0.7874015748031497
          },
          {
            "duration": 0.4437870000000146,
            "durationTicks": 384,
            "midi": 36,
            "name": "C2",
            "ticks": 129024,
            "time": 149.11243199999998,
            "velocity": 0.7874015748031497
          },
          {
            "duration": 0.44378699999998616,
            "durationTicks": 384,
            "midi": 40,
            "name": "E2",
            "ticks": 129408,
            "time": 149.556219,
            "velocity": 0.7874015748031497
          },
          {
            "duration": 0.44378699999998616,
            "durationTicks": 384,
            "midi": 53,
            "name": "F3",
            "ticks": 129408,
            "time": 149.556219,
            "velocity": 0.7874015748031497
          },
          {
            "duration": 0.2218935000000215,
            "durationTicks": 192,
            "midi": 36,
            "name": "C2",
            "ticks": 129792,
            "time": 150.00000599999998,
            "velocity": 0.7874015748031497
          },
          {
            "duration": 0.4437870000000146,
            "durationTicks": 384,
            "midi": 53,
            "name": "F3",
            "ticks": 129792,
            "time": 150.00000599999998,
            "velocity": 0.7874015748031497
          },
          {
            "duration": 0.22189349999999308,
            "durationTicks": 192,
            "midi": 36,
            "name": "C2",
            "ticks": 129984,
            "time": 150.2218995,
            "velocity": 0.7874015748031497
          },
          {
            "duration": 0.44378699999998616,
            "durationTicks": 384,
            "midi": 40,
            "name": "E2",
            "ticks": 130176,
            "time": 150.443793,
            "velocity": 0.7874015748031497
          },
          {
            "duration": 0.44378699999998616,
            "durationTicks": 384,
            "midi": 53,
            "name": "F3",
            "ticks": 130176,
            "time": 150.443793,
            "velocity": 0.7874015748031497
          },
          {
            "duration": 0.4437870000000146,
            "durationTicks": 384,
            "midi": 36,
            "name": "C2",
            "ticks": 130560,
            "time": 150.88757999999999,
            "velocity": 0.7874015748031497
          },
          {
            "duration": 0.4437870000000146,
            "durationTicks": 384,
            "midi": 53,
            "name": "F3",
            "ticks": 130560,
            "time": 150.88757999999999,
            "velocity": 0.7874015748031497
          },
          {
            "duration": 0.44378699999998616,
            "durationTicks": 384,
            "midi": 40,
            "name": "E2",
            "ticks": 130944,
            "time": 151.331367,
            "velocity": 0.7874015748031497
          },
          {
            "duration": 0.44378699999998616,
            "durationTicks": 384,
            "midi": 53,
            "name": "F3",
            "ticks": 130944,
            "time": 151.331367,
            "velocity": 0.7874015748031497
          },
          {
            "duration": 0.4437870000000146,
            "durationTicks": 384,
            "midi": 36,
            "name": "C2",
            "ticks": 131328,
            "time": 151.775154,
            "velocity": 0.7874015748031497
          },
          {
            "duration": 0.4437870000000146,
            "durationTicks": 384,
            "midi": 53,
            "name": "F3",
            "ticks": 131328,
            "time": 151.775154,
            "velocity": 0.7874015748031497
          },
          {
            "duration": 0.44378699999998616,
            "durationTicks": 384,
            "midi": 40,
            "name": "E2",
            "ticks": 131712,
            "time": 152.218941,
            "velocity": 0.7874015748031497
          },
          {
            "duration": 0.44378699999998616,
            "durationTicks": 384,
            "midi": 53,
            "name": "F3",
            "ticks": 131712,
            "time": 152.218941,
            "velocity": 0.7874015748031497
          },
          {
            "duration": 0.4437870000000146,
            "durationTicks": 384,
            "midi": 36,
            "name": "C2",
            "ticks": 132096,
            "time": 152.662728,
            "velocity": 0.7874015748031497
          },
          {
            "duration": 0.4437870000000146,
            "durationTicks": 384,
            "midi": 53,
            "name": "F3",
            "ticks": 132096,
            "time": 152.662728,
            "velocity": 0.7874015748031497
          },
          {
            "duration": 0.44378699999998616,
            "durationTicks": 384,
            "midi": 40,
            "name": "E2",
            "ticks": 132480,
            "time": 153.106515,
            "velocity": 0.7874015748031497
          },
          {
            "duration": 0.44378699999998616,
            "durationTicks": 384,
            "midi": 53,
            "name": "F3",
            "ticks": 132480,
            "time": 153.106515,
            "velocity": 0.7874015748031497
          },
          {
            "duration": 0.2218935000000215,
            "durationTicks": 192,
            "midi": 36,
            "name": "C2",
            "ticks": 132864,
            "time": 153.550302,
            "velocity": 0.7874015748031497
          },
          {
            "duration": 0.4437870000000146,
            "durationTicks": 384,
            "midi": 53,
            "name": "F3",
            "ticks": 132864,
            "time": 153.550302,
            "velocity": 0.7874015748031497
          },
          {
            "duration": 0.22189349999999308,
            "durationTicks": 192,
            "midi": 36,
            "name": "C2",
            "ticks": 133056,
            "time": 153.7721955,
            "velocity": 0.7874015748031497
          },
          {
            "duration": 0.44378699999998616,
            "durationTicks": 384,
            "midi": 40,
            "name": "E2",
            "ticks": 133248,
            "time": 153.994089,
            "velocity": 0.7874015748031497
          },
          {
            "duration": 0.44378699999998616,
            "durationTicks": 384,
            "midi": 53,
            "name": "F3",
            "ticks": 133248,
            "time": 153.994089,
            "velocity": 0.7874015748031497
          },
          {
            "duration": 0.4437870000000146,
            "durationTicks": 384,
            "midi": 36,
            "name": "C2",
            "ticks": 133632,
            "time": 154.437876,
            "velocity": 0.7874015748031497
          },
          {
            "duration": 0.4437870000000146,
            "durationTicks": 384,
            "midi": 53,
            "name": "F3",
            "ticks": 133632,
            "time": 154.437876,
            "velocity": 0.7874015748031497
          },
          {
            "duration": 0.44378699999998616,
            "durationTicks": 384,
            "midi": 40,
            "name": "E2",
            "ticks": 134016,
            "time": 154.881663,
            "velocity": 0.7874015748031497
          },
          {
            "duration": 0.44378699999998616,
            "durationTicks": 384,
            "midi": 53,
            "name": "F3",
            "ticks": 134016,
            "time": 154.881663,
            "velocity": 0.7874015748031497
          },
          {
            "duration": 1.3313610000000153,
            "durationTicks": 1152,
            "midi": 36,
            "name": "C2",
            "ticks": 134400,
            "time": 155.32545,
            "velocity": 0.7874015748031497
          },
          {
            "duration": 1.3313610000000153,
            "durationTicks": 1152,
            "midi": 53,
            "name": "F3",
            "ticks": 134400,
            "time": 155.32545,
            "velocity": 0.7874015748031497
          },
          {
            "duration": 0.44378699999998616,
            "durationTicks": 384,
            "midi": 49,
            "name": "C#3",
            "ticks": 135552,
            "time": 156.656811,
            "velocity": 0.7874015748031497
          },
          {
            "duration": 0.44378699999998616,
            "durationTicks": 384,
            "midi": 36,
            "name": "C2",
            "ticks": 135552,
            "time": 156.656811,
            "velocity": 0.7874015748031497
          },
          {
            "duration": 1.7751480000000015,
            "durationTicks": 1536,
            "midi": 49,
            "name": "C#3",
            "ticks": 135936,
            "time": 157.100598,
            "velocity": 0.7874015748031497
          },
          {
            "duration": 1.7751480000000015,
            "durationTicks": 1536,
            "midi": 36,
            "name": "C2",
            "ticks": 135936,
            "time": 157.100598,
            "velocity": 0.7874015748031497
          },
          {
            "duration": 0.8875740000000008,
            "durationTicks": 768,
            "midi": 49,
            "name": "C#3",
            "ticks": 137472,
            "time": 158.875746,
            "velocity": 0.7874015748031497
          },
          {
            "duration": 0.22189349999999308,
            "durationTicks": 192,
            "midi": 40,
            "name": "E2",
            "ticks": 137472,
            "time": 158.875746,
            "velocity": 0.7874015748031497
          },
          {
            "duration": 0.21727071875002935,
            "durationTicks": 188,
            "midi": 36,
            "name": "C2",
            "ticks": 137480,
            "time": 158.88499156249998,
            "velocity": 0.7874015748031497
          },
          {
            "duration": 0.2218935000000215,
            "durationTicks": 192,
            "midi": 40,
            "name": "E2",
            "ticks": 137664,
            "time": 159.09763949999999,
            "velocity": 0.7874015748031497
          },
          {
            "duration": 0.11094674999998233,
            "durationTicks": 96,
            "midi": 40,
            "name": "E2",
            "ticks": 137856,
            "time": 159.319533,
            "velocity": 0.7874015748031497
          },
          {
            "duration": 0.11094675000001075,
            "durationTicks": 96,
            "midi": 40,
            "name": "E2",
            "ticks": 137952,
            "time": 159.43047975,
            "velocity": 0.7874015748031497
          },
          {
            "duration": 0.11094674999998233,
            "durationTicks": 96,
            "midi": 40,
            "name": "E2",
            "ticks": 138048,
            "time": 159.5414265,
            "velocity": 0.7874015748031497
          },
          {
            "duration": 0.11094675000001075,
            "durationTicks": 96,
            "midi": 40,
            "name": "E2",
            "ticks": 138144,
            "time": 159.65237324999998,
            "velocity": 0.7874015748031497
          },
          {
            "duration": 0.4437870000000146,
            "durationTicks": 384,
            "midi": 49,
            "name": "C#3",
            "ticks": 138240,
            "time": 159.76332,
            "velocity": 0.7874015748031497
          },
          {
            "duration": 0.4437870000000146,
            "durationTicks": 384,
            "midi": 36,
            "name": "C2",
            "ticks": 138240,
            "time": 159.76332,
            "velocity": 0.7874015748031497
          },
          {
            "duration": 0.44378699999998616,
            "durationTicks": 384,
            "midi": 40,
            "name": "E2",
            "ticks": 138624,
            "time": 160.207107,
            "velocity": 0.7874015748031497
          },
          {
            "duration": 0.44378699999998616,
            "durationTicks": 384,
            "midi": 53,
            "name": "F3",
            "ticks": 138624,
            "time": 160.207107,
            "velocity": 0.7874015748031497
          },
          {
            "duration": 0.22189349999999308,
            "durationTicks": 192,
            "midi": 36,
            "name": "C2",
            "ticks": 139008,
            "time": 160.650894,
            "velocity": 0.7874015748031497
          },
          {
            "duration": 0.4437870000000146,
            "durationTicks": 384,
            "midi": 53,
            "name": "F3",
            "ticks": 139008,
            "time": 160.650894,
            "velocity": 0.7874015748031497
          },
          {
            "duration": 0.2218935000000215,
            "durationTicks": 192,
            "midi": 36,
            "name": "C2",
            "ticks": 139200,
            "time": 160.8727875,
            "velocity": 0.7874015748031497
          },
          {
            "duration": 0.44378699999998616,
            "durationTicks": 384,
            "midi": 40,
            "name": "E2",
            "ticks": 139392,
            "time": 161.094681,
            "velocity": 0.7874015748031497
          },
          {
            "duration": 0.44378699999998616,
            "durationTicks": 384,
            "midi": 53,
            "name": "F3",
            "ticks": 139392,
            "time": 161.094681,
            "velocity": 0.7874015748031497
          },
          {
            "duration": 0.4437870000000146,
            "durationTicks": 384,
            "midi": 36,
            "name": "C2",
            "ticks": 139776,
            "time": 161.538468,
            "velocity": 0.7874015748031497
          },
          {
            "duration": 0.4437870000000146,
            "durationTicks": 384,
            "midi": 53,
            "name": "F3",
            "ticks": 139776,
            "time": 161.538468,
            "velocity": 0.7874015748031497
          },
          {
            "duration": 0.44378699999998616,
            "durationTicks": 384,
            "midi": 40,
            "name": "E2",
            "ticks": 140160,
            "time": 161.982255,
            "velocity": 0.7874015748031497
          },
          {
            "duration": 0.44378699999998616,
            "durationTicks": 384,
            "midi": 53,
            "name": "F3",
            "ticks": 140160,
            "time": 161.982255,
            "velocity": 0.7874015748031497
          },
          {
            "duration": 0.44378699999998616,
            "durationTicks": 384,
            "midi": 36,
            "name": "C2",
            "ticks": 140544,
            "time": 162.426042,
            "velocity": 0.7874015748031497
          },
          {
            "duration": 0.44378699999998616,
            "durationTicks": 384,
            "midi": 53,
            "name": "F3",
            "ticks": 140544,
            "time": 162.426042,
            "velocity": 0.7874015748031497
          },
          {
            "duration": 0.4437870000000146,
            "durationTicks": 384,
            "midi": 40,
            "name": "E2",
            "ticks": 140928,
            "time": 162.86982899999998,
            "velocity": 0.7874015748031497
          },
          {
            "duration": 0.4437870000000146,
            "durationTicks": 384,
            "midi": 53,
            "name": "F3",
            "ticks": 140928,
            "time": 162.86982899999998,
            "velocity": 0.7874015748031497
          },
          {
            "duration": 0.44378699999998616,
            "durationTicks": 384,
            "midi": 36,
            "name": "C2",
            "ticks": 141312,
            "time": 163.313616,
            "velocity": 0.7874015748031497
          },
          {
            "duration": 0.44378699999998616,
            "durationTicks": 384,
            "midi": 53,
            "name": "F3",
            "ticks": 141312,
            "time": 163.313616,
            "velocity": 0.7874015748031497
          },
          {
            "duration": 0.4437870000000146,
            "durationTicks": 384,
            "midi": 40,
            "name": "E2",
            "ticks": 141696,
            "time": 163.75740299999998,
            "velocity": 0.7874015748031497
          },
          {
            "duration": 0.4437870000000146,
            "durationTicks": 384,
            "midi": 53,
            "name": "F3",
            "ticks": 141696,
            "time": 163.75740299999998,
            "velocity": 0.7874015748031497
          },
          {
            "duration": 0.22189349999999308,
            "durationTicks": 192,
            "midi": 36,
            "name": "C2",
            "ticks": 142080,
            "time": 164.20119,
            "velocity": 0.7874015748031497
          },
          {
            "duration": 0.44378699999998616,
            "durationTicks": 384,
            "midi": 53,
            "name": "F3",
            "ticks": 142080,
            "time": 164.20119,
            "velocity": 0.7874015748031497
          },
          {
            "duration": 0.22189349999999308,
            "durationTicks": 192,
            "midi": 36,
            "name": "C2",
            "ticks": 142272,
            "time": 164.4230835,
            "velocity": 0.7874015748031497
          },
          {
            "duration": 0.4437870000000146,
            "durationTicks": 384,
            "midi": 40,
            "name": "E2",
            "ticks": 142464,
            "time": 164.64497699999998,
            "velocity": 0.7874015748031497
          },
          {
            "duration": 0.4437870000000146,
            "durationTicks": 384,
            "midi": 53,
            "name": "F3",
            "ticks": 142464,
            "time": 164.64497699999998,
            "velocity": 0.7874015748031497
          },
          {
            "duration": 0.44378699999998616,
            "durationTicks": 384,
            "midi": 36,
            "name": "C2",
            "ticks": 142848,
            "time": 165.088764,
            "velocity": 0.7874015748031497
          },
          {
            "duration": 0.44378699999998616,
            "durationTicks": 384,
            "midi": 53,
            "name": "F3",
            "ticks": 142848,
            "time": 165.088764,
            "velocity": 0.7874015748031497
          },
          {
            "duration": 0.4437870000000146,
            "durationTicks": 384,
            "midi": 40,
            "name": "E2",
            "ticks": 143232,
            "time": 165.53255099999998,
            "velocity": 0.7874015748031497
          },
          {
            "duration": 0.4437870000000146,
            "durationTicks": 384,
            "midi": 53,
            "name": "F3",
            "ticks": 143232,
            "time": 165.53255099999998,
            "velocity": 0.7874015748031497
          },
          {
            "duration": 0.44378699999998616,
            "durationTicks": 384,
            "midi": 36,
            "name": "C2",
            "ticks": 143616,
            "time": 165.976338,
            "velocity": 0.7874015748031497
          },
          {
            "duration": 0.44378699999998616,
            "durationTicks": 384,
            "midi": 53,
            "name": "F3",
            "ticks": 143616,
            "time": 165.976338,
            "velocity": 0.7874015748031497
          },
          {
            "duration": 0.4437870000000146,
            "durationTicks": 384,
            "midi": 40,
            "name": "E2",
            "ticks": 144000,
            "time": 166.42012499999998,
            "velocity": 0.7874015748031497
          },
          {
            "duration": 0.4437870000000146,
            "durationTicks": 384,
            "midi": 53,
            "name": "F3",
            "ticks": 144000,
            "time": 166.42012499999998,
            "velocity": 0.7874015748031497
          },
          {
            "duration": 0.44378699999998616,
            "durationTicks": 384,
            "midi": 49,
            "name": "C#3",
            "ticks": 144384,
            "time": 166.863912,
            "velocity": 0.7874015748031497
          },
          {
            "duration": 0.44378699999998616,
            "durationTicks": 384,
            "midi": 36,
            "name": "C2",
            "ticks": 144384,
            "time": 166.863912,
            "velocity": 0.7874015748031497
          },
          {
            "duration": 0.4437870000000146,
            "durationTicks": 384,
            "midi": 40,
            "name": "E2",
            "ticks": 144768,
            "time": 167.30769899999999,
            "velocity": 0.7874015748031497
          },
          {
            "duration": 0.4437870000000146,
            "durationTicks": 384,
            "midi": 53,
            "name": "F3",
            "ticks": 144768,
            "time": 167.30769899999999,
            "velocity": 0.7874015748031497
          },
          {
            "duration": 0.22189349999999308,
            "durationTicks": 192,
            "midi": 36,
            "name": "C2",
            "ticks": 145152,
            "time": 167.751486,
            "velocity": 0.7874015748031497
          },
          {
            "duration": 0.44378699999998616,
            "durationTicks": 384,
            "midi": 53,
            "name": "F3",
            "ticks": 145152,
            "time": 167.751486,
            "velocity": 0.7874015748031497
          },
          {
            "duration": 0.22189349999999308,
            "durationTicks": 192,
            "midi": 36,
            "name": "C2",
            "ticks": 145344,
            "time": 167.9733795,
            "velocity": 0.7874015748031497
          },
          {
            "duration": 0.4437870000000146,
            "durationTicks": 384,
            "midi": 40,
            "name": "E2",
            "ticks": 145536,
            "time": 168.195273,
            "velocity": 0.7874015748031497
          },
          {
            "duration": 0.4437870000000146,
            "durationTicks": 384,
            "midi": 53,
            "name": "F3",
            "ticks": 145536,
            "time": 168.195273,
            "velocity": 0.7874015748031497
          },
          {
            "duration": 0.44378699999998616,
            "durationTicks": 384,
            "midi": 36,
            "name": "C2",
            "ticks": 145920,
            "time": 168.63906,
            "velocity": 0.7874015748031497
          },
          {
            "duration": 0.44378699999998616,
            "durationTicks": 384,
            "midi": 53,
            "name": "F3",
            "ticks": 145920,
            "time": 168.63906,
            "velocity": 0.7874015748031497
          },
          {
            "duration": 0.4437870000000146,
            "durationTicks": 384,
            "midi": 40,
            "name": "E2",
            "ticks": 146304,
            "time": 169.082847,
            "velocity": 0.7874015748031497
          },
          {
            "duration": 0.4437870000000146,
            "durationTicks": 384,
            "midi": 53,
            "name": "F3",
            "ticks": 146304,
            "time": 169.082847,
            "velocity": 0.7874015748031497
          },
          {
            "duration": 0.44378699999998616,
            "durationTicks": 384,
            "midi": 36,
            "name": "C2",
            "ticks": 146688,
            "time": 169.526634,
            "velocity": 0.7874015748031497
          },
          {
            "duration": 0.44378699999998616,
            "durationTicks": 384,
            "midi": 53,
            "name": "F3",
            "ticks": 146688,
            "time": 169.526634,
            "velocity": 0.7874015748031497
          },
          {
            "duration": 0.4437870000000146,
            "durationTicks": 384,
            "midi": 40,
            "name": "E2",
            "ticks": 147072,
            "time": 169.970421,
            "velocity": 0.7874015748031497
          },
          {
            "duration": 0.4437870000000146,
            "durationTicks": 384,
            "midi": 53,
            "name": "F3",
            "ticks": 147072,
            "time": 169.970421,
            "velocity": 0.7874015748031497
          },
          {
            "duration": 0.44378699999998616,
            "durationTicks": 384,
            "midi": 36,
            "name": "C2",
            "ticks": 147456,
            "time": 170.414208,
            "velocity": 0.7874015748031497
          },
          {
            "duration": 0.44378699999998616,
            "durationTicks": 384,
            "midi": 53,
            "name": "F3",
            "ticks": 147456,
            "time": 170.414208,
            "velocity": 0.7874015748031497
          },
          {
            "duration": 0.4437870000000146,
            "durationTicks": 384,
            "midi": 40,
            "name": "E2",
            "ticks": 147840,
            "time": 170.857995,
            "velocity": 0.7874015748031497
          },
          {
            "duration": 0.4437870000000146,
            "durationTicks": 384,
            "midi": 53,
            "name": "F3",
            "ticks": 147840,
            "time": 170.857995,
            "velocity": 0.7874015748031497
          },
          {
            "duration": 0.22189349999999308,
            "durationTicks": 192,
            "midi": 36,
            "name": "C2",
            "ticks": 148224,
            "time": 171.301782,
            "velocity": 0.7874015748031497
          },
          {
            "duration": 0.44378699999998616,
            "durationTicks": 384,
            "midi": 53,
            "name": "F3",
            "ticks": 148224,
            "time": 171.301782,
            "velocity": 0.7874015748031497
          },
          {
            "duration": 0.22189349999999308,
            "durationTicks": 192,
            "midi": 36,
            "name": "C2",
            "ticks": 148416,
            "time": 171.5236755,
            "velocity": 0.7874015748031497
          },
          {
            "duration": 0.4437870000000146,
            "durationTicks": 384,
            "midi": 40,
            "name": "E2",
            "ticks": 148608,
            "time": 171.745569,
            "velocity": 0.7874015748031497
          },
          {
            "duration": 0.4437870000000146,
            "durationTicks": 384,
            "midi": 53,
            "name": "F3",
            "ticks": 148608,
            "time": 171.745569,
            "velocity": 0.7874015748031497
          },
          {
            "duration": 0.44378699999998616,
            "durationTicks": 384,
            "midi": 36,
            "name": "C2",
            "ticks": 148992,
            "time": 172.189356,
            "velocity": 0.7874015748031497
          },
          {
            "duration": 0.44378699999998616,
            "durationTicks": 384,
            "midi": 53,
            "name": "F3",
            "ticks": 148992,
            "time": 172.189356,
            "velocity": 0.7874015748031497
          },
          {
            "duration": 0.22189349999999308,
            "durationTicks": 192,
            "midi": 40,
            "name": "E2",
            "ticks": 149376,
            "time": 172.633143,
            "velocity": 0.7874015748031497
          },
          {
            "duration": 0.4437870000000146,
            "durationTicks": 384,
            "midi": 53,
            "name": "F3",
            "ticks": 149376,
            "time": 172.633143,
            "velocity": 0.7874015748031497
          },
          {
            "duration": 0.2218935000000215,
            "durationTicks": 192,
            "midi": 40,
            "name": "E2",
            "ticks": 149568,
            "time": 172.85503649999998,
            "velocity": 0.7874015748031497
          },
          {
            "duration": 0.22189349999999308,
            "durationTicks": 192,
            "midi": 40,
            "name": "E2",
            "ticks": 149760,
            "time": 173.07693,
            "velocity": 0.7874015748031497
          },
          {
            "duration": 0.44378699999998616,
            "durationTicks": 384,
            "midi": 53,
            "name": "F3",
            "ticks": 149760,
            "time": 173.07693,
            "velocity": 0.7874015748031497
          },
          {
            "duration": 0.22189349999999308,
            "durationTicks": 192,
            "midi": 40,
            "name": "E2",
            "ticks": 149952,
            "time": 173.2988235,
            "velocity": 0.7874015748031497
          },
          {
            "duration": 0.22189349999999308,
            "durationTicks": 192,
            "midi": 40,
            "name": "E2",
            "ticks": 150144,
            "time": 173.520717,
            "velocity": 0.7874015748031497
          },
          {
            "duration": 0.4437870000000146,
            "durationTicks": 384,
            "midi": 53,
            "name": "F3",
            "ticks": 150144,
            "time": 173.520717,
            "velocity": 0.7874015748031497
          },
          {
            "duration": 0.2218935000000215,
            "durationTicks": 192,
            "midi": 40,
            "name": "E2",
            "ticks": 150336,
            "time": 173.74261049999998,
            "velocity": 0.7874015748031497
          },
          {
            "duration": 0.44378699999998616,
            "durationTicks": 384,
            "midi": 49,
            "name": "C#3",
            "ticks": 150528,
            "time": 173.964504,
            "velocity": 0.7874015748031497
          },
          {
            "duration": 0.44378699999998616,
            "durationTicks": 384,
            "midi": 36,
            "name": "C2",
            "ticks": 150528,
            "time": 173.964504,
            "velocity": 0.7874015748031497
          },
          {
            "duration": 0.4437870000000146,
            "durationTicks": 384,
            "midi": 40,
            "name": "E2",
            "ticks": 150912,
            "time": 174.408291,
            "velocity": 0.7874015748031497
          },
          {
            "duration": 0.4437870000000146,
            "durationTicks": 384,
            "midi": 53,
            "name": "F3",
            "ticks": 150912,
            "time": 174.408291,
            "velocity": 0.7874015748031497
          },
          {
            "duration": 0.22189349999999308,
            "durationTicks": 192,
            "midi": 36,
            "name": "C2",
            "ticks": 151296,
            "time": 174.852078,
            "velocity": 0.7874015748031497
          },
          {
            "duration": 0.44378699999998616,
            "durationTicks": 384,
            "midi": 53,
            "name": "F3",
            "ticks": 151296,
            "time": 174.852078,
            "velocity": 0.7874015748031497
          },
          {
            "duration": 0.22189349999999308,
            "durationTicks": 192,
            "midi": 36,
            "name": "C2",
            "ticks": 151488,
            "time": 175.0739715,
            "velocity": 0.7874015748031497
          },
          {
            "duration": 0.4437870000000146,
            "durationTicks": 384,
            "midi": 40,
            "name": "E2",
            "ticks": 151680,
            "time": 175.295865,
            "velocity": 0.7874015748031497
          },
          {
            "duration": 0.4437870000000146,
            "durationTicks": 384,
            "midi": 53,
            "name": "F3",
            "ticks": 151680,
            "time": 175.295865,
            "velocity": 0.7874015748031497
          },
          {
            "duration": 0.44378699999998616,
            "durationTicks": 384,
            "midi": 36,
            "name": "C2",
            "ticks": 152064,
            "time": 175.739652,
            "velocity": 0.7874015748031497
          },
          {
            "duration": 0.44378699999998616,
            "durationTicks": 384,
            "midi": 53,
            "name": "F3",
            "ticks": 152064,
            "time": 175.739652,
            "velocity": 0.7874015748031497
          },
          {
            "duration": 0.4437870000000146,
            "durationTicks": 384,
            "midi": 40,
            "name": "E2",
            "ticks": 152448,
            "time": 176.183439,
            "velocity": 0.7874015748031497
          },
          {
            "duration": 0.4437870000000146,
            "durationTicks": 384,
            "midi": 53,
            "name": "F3",
            "ticks": 152448,
            "time": 176.183439,
            "velocity": 0.7874015748031497
          },
          {
            "duration": 0.44378699999998616,
            "durationTicks": 384,
            "midi": 36,
            "name": "C2",
            "ticks": 152832,
            "time": 176.627226,
            "velocity": 0.7874015748031497
          },
          {
            "duration": 0.44378699999998616,
            "durationTicks": 384,
            "midi": 53,
            "name": "F3",
            "ticks": 152832,
            "time": 176.627226,
            "velocity": 0.7874015748031497
          },
          {
            "duration": 0.4437870000000146,
            "durationTicks": 384,
            "midi": 40,
            "name": "E2",
            "ticks": 153216,
            "time": 177.071013,
            "velocity": 0.7874015748031497
          },
          {
            "duration": 0.4437870000000146,
            "durationTicks": 384,
            "midi": 53,
            "name": "F3",
            "ticks": 153216,
            "time": 177.071013,
            "velocity": 0.7874015748031497
          },
          {
            "duration": 0.44378699999998616,
            "durationTicks": 384,
            "midi": 36,
            "name": "C2",
            "ticks": 153600,
            "time": 177.5148,
            "velocity": 0.7874015748031497
          },
          {
            "duration": 0.44378699999998616,
            "durationTicks": 384,
            "midi": 53,
            "name": "F3",
            "ticks": 153600,
            "time": 177.5148,
            "velocity": 0.7874015748031497
          },
          {
            "duration": 0.4437870000000146,
            "durationTicks": 384,
            "midi": 40,
            "name": "E2",
            "ticks": 153984,
            "time": 177.958587,
            "velocity": 0.7874015748031497
          },
          {
            "duration": 0.4437870000000146,
            "durationTicks": 384,
            "midi": 53,
            "name": "F3",
            "ticks": 153984,
            "time": 177.958587,
            "velocity": 0.7874015748031497
          },
          {
            "duration": 0.22189349999999308,
            "durationTicks": 192,
            "midi": 36,
            "name": "C2",
            "ticks": 154368,
            "time": 178.402374,
            "velocity": 0.7874015748031497
          },
          {
            "duration": 0.44378699999998616,
            "durationTicks": 384,
            "midi": 53,
            "name": "F3",
            "ticks": 154368,
            "time": 178.402374,
            "velocity": 0.7874015748031497
          },
          {
            "duration": 0.22189349999999308,
            "durationTicks": 192,
            "midi": 36,
            "name": "C2",
            "ticks": 154560,
            "time": 178.6242675,
            "velocity": 0.7874015748031497
          },
          {
            "duration": 0.44378699999998616,
            "durationTicks": 384,
            "midi": 40,
            "name": "E2",
            "ticks": 154752,
            "time": 178.846161,
            "velocity": 0.7874015748031497
          },
          {
            "duration": 0.44378699999998616,
            "durationTicks": 384,
            "midi": 53,
            "name": "F3",
            "ticks": 154752,
            "time": 178.846161,
            "velocity": 0.7874015748031497
          },
          {
            "duration": 0.4437870000000146,
            "durationTicks": 384,
            "midi": 36,
            "name": "C2",
            "ticks": 155136,
            "time": 179.28994799999998,
            "velocity": 0.7874015748031497
          },
          {
            "duration": 0.4437870000000146,
            "durationTicks": 384,
            "midi": 53,
            "name": "F3",
            "ticks": 155136,
            "time": 179.28994799999998,
            "velocity": 0.7874015748031497
          },
          {
            "duration": 0.44378699999998616,
            "durationTicks": 384,
            "midi": 40,
            "name": "E2",
            "ticks": 155520,
            "time": 179.733735,
            "velocity": 0.7874015748031497
          },
          {
            "duration": 0.44378699999998616,
            "durationTicks": 384,
            "midi": 53,
            "name": "F3",
            "ticks": 155520,
            "time": 179.733735,
            "velocity": 0.7874015748031497
          },
          {
            "duration": 0.4437870000000146,
            "durationTicks": 384,
            "midi": 36,
            "name": "C2",
            "ticks": 155904,
            "time": 180.17752199999998,
            "velocity": 0.7874015748031497
          },
          {
            "duration": 0.4437870000000146,
            "durationTicks": 384,
            "midi": 53,
            "name": "F3",
            "ticks": 155904,
            "time": 180.17752199999998,
            "velocity": 0.7874015748031497
          },
          {
            "duration": 0.44378699999998616,
            "durationTicks": 384,
            "midi": 40,
            "name": "E2",
            "ticks": 156288,
            "time": 180.621309,
            "velocity": 0.7874015748031497
          },
          {
            "duration": 0.44378699999998616,
            "durationTicks": 384,
            "midi": 53,
            "name": "F3",
            "ticks": 156288,
            "time": 180.621309,
            "velocity": 0.7874015748031497
          },
          {
            "duration": 0.4437870000000146,
            "durationTicks": 384,
            "midi": 49,
            "name": "C#3",
            "ticks": 156672,
            "time": 181.06509599999998,
            "velocity": 0.7874015748031497
          },
          {
            "duration": 0.4437870000000146,
            "durationTicks": 384,
            "midi": 36,
            "name": "C2",
            "ticks": 156672,
            "time": 181.06509599999998,
            "velocity": 0.7874015748031497
          },
          {
            "duration": 0.44378699999998616,
            "durationTicks": 384,
            "midi": 40,
            "name": "E2",
            "ticks": 157056,
            "time": 181.508883,
            "velocity": 0.7874015748031497
          },
          {
            "duration": 0.44378699999998616,
            "durationTicks": 384,
            "midi": 53,
            "name": "F3",
            "ticks": 157056,
            "time": 181.508883,
            "velocity": 0.7874015748031497
          },
          {
            "duration": 0.2218935000000215,
            "durationTicks": 192,
            "midi": 36,
            "name": "C2",
            "ticks": 157440,
            "time": 181.95266999999998,
            "velocity": 0.7874015748031497
          },
          {
            "duration": 0.4437870000000146,
            "durationTicks": 384,
            "midi": 53,
            "name": "F3",
            "ticks": 157440,
            "time": 181.95266999999998,
            "velocity": 0.7874015748031497
          },
          {
            "duration": 0.22189349999999308,
            "durationTicks": 192,
            "midi": 36,
            "name": "C2",
            "ticks": 157632,
            "time": 182.1745635,
            "velocity": 0.7874015748031497
          },
          {
            "duration": 0.44378699999998616,
            "durationTicks": 384,
            "midi": 40,
            "name": "E2",
            "ticks": 157824,
            "time": 182.396457,
            "velocity": 0.7874015748031497
          },
          {
            "duration": 0.44378699999998616,
            "durationTicks": 384,
            "midi": 53,
            "name": "F3",
            "ticks": 157824,
            "time": 182.396457,
            "velocity": 0.7874015748031497
          },
          {
            "duration": 0.4437870000000146,
            "durationTicks": 384,
            "midi": 36,
            "name": "C2",
            "ticks": 158208,
            "time": 182.84024399999998,
            "velocity": 0.7874015748031497
          },
          {
            "duration": 0.4437870000000146,
            "durationTicks": 384,
            "midi": 53,
            "name": "F3",
            "ticks": 158208,
            "time": 182.84024399999998,
            "velocity": 0.7874015748031497
          },
          {
            "duration": 0.44378699999998616,
            "durationTicks": 384,
            "midi": 40,
            "name": "E2",
            "ticks": 158592,
            "time": 183.284031,
            "velocity": 0.7874015748031497
          },
          {
            "duration": 0.44378699999998616,
            "durationTicks": 384,
            "midi": 53,
            "name": "F3",
            "ticks": 158592,
            "time": 183.284031,
            "velocity": 0.7874015748031497
          },
          {
            "duration": 0.4437870000000146,
            "durationTicks": 384,
            "midi": 36,
            "name": "C2",
            "ticks": 158976,
            "time": 183.72781799999998,
            "velocity": 0.7874015748031497
          },
          {
            "duration": 0.4437870000000146,
            "durationTicks": 384,
            "midi": 53,
            "name": "F3",
            "ticks": 158976,
            "time": 183.72781799999998,
            "velocity": 0.7874015748031497
          },
          {
            "duration": 0.44378699999998616,
            "durationTicks": 384,
            "midi": 40,
            "name": "E2",
            "ticks": 159360,
            "time": 184.171605,
            "velocity": 0.7874015748031497
          },
          {
            "duration": 0.44378699999998616,
            "durationTicks": 384,
            "midi": 53,
            "name": "F3",
            "ticks": 159360,
            "time": 184.171605,
            "velocity": 0.7874015748031497
          },
          {
            "duration": 0.4437870000000146,
            "durationTicks": 384,
            "midi": 36,
            "name": "C2",
            "ticks": 159744,
            "time": 184.61539199999999,
            "velocity": 0.7874015748031497
          },
          {
            "duration": 0.4437870000000146,
            "durationTicks": 384,
            "midi": 53,
            "name": "F3",
            "ticks": 159744,
            "time": 184.61539199999999,
            "velocity": 0.7874015748031497
          },
          {
            "duration": 0.44378699999998616,
            "durationTicks": 384,
            "midi": 40,
            "name": "E2",
            "ticks": 160128,
            "time": 185.059179,
            "velocity": 0.7874015748031497
          },
          {
            "duration": 0.44378699999998616,
            "durationTicks": 384,
            "midi": 53,
            "name": "F3",
            "ticks": 160128,
            "time": 185.059179,
            "velocity": 0.7874015748031497
          },
          {
            "duration": 0.2218935000000215,
            "durationTicks": 192,
            "midi": 36,
            "name": "C2",
            "ticks": 160512,
            "time": 185.502966,
            "velocity": 0.7874015748031497
          },
          {
            "duration": 0.4437870000000146,
            "durationTicks": 384,
            "midi": 53,
            "name": "F3",
            "ticks": 160512,
            "time": 185.502966,
            "velocity": 0.7874015748031497
          },
          {
            "duration": 0.22189349999999308,
            "durationTicks": 192,
            "midi": 36,
            "name": "C2",
            "ticks": 160704,
            "time": 185.7248595,
            "velocity": 0.7874015748031497
          },
          {
            "duration": 0.44378699999998616,
            "durationTicks": 384,
            "midi": 40,
            "name": "E2",
            "ticks": 160896,
            "time": 185.946753,
            "velocity": 0.7874015748031497
          },
          {
            "duration": 0.44378699999998616,
            "durationTicks": 384,
            "midi": 53,
            "name": "F3",
            "ticks": 160896,
            "time": 185.946753,
            "velocity": 0.7874015748031497
          },
          {
            "duration": 0.4437870000000146,
            "durationTicks": 384,
            "midi": 36,
            "name": "C2",
            "ticks": 161280,
            "time": 186.39054,
            "velocity": 0.7874015748031497
          },
          {
            "duration": 0.4437870000000146,
            "durationTicks": 384,
            "midi": 53,
            "name": "F3",
            "ticks": 161280,
            "time": 186.39054,
            "velocity": 0.7874015748031497
          },
          {
            "duration": 0.44378699999998616,
            "durationTicks": 384,
            "midi": 40,
            "name": "E2",
            "ticks": 161664,
            "time": 186.834327,
            "velocity": 0.7874015748031497
          },
          {
            "duration": 0.44378699999998616,
            "durationTicks": 384,
            "midi": 53,
            "name": "F3",
            "ticks": 161664,
            "time": 186.834327,
            "velocity": 0.7874015748031497
          },
          {
            "duration": 0.4437870000000146,
            "durationTicks": 384,
            "midi": 36,
            "name": "C2",
            "ticks": 162048,
            "time": 187.278114,
            "velocity": 0.7874015748031497
          },
          {
            "duration": 0.4437870000000146,
            "durationTicks": 384,
            "midi": 53,
            "name": "F3",
            "ticks": 162048,
            "time": 187.278114,
            "velocity": 0.7874015748031497
          },
          {
            "duration": 0.44378699999998616,
            "durationTicks": 384,
            "midi": 40,
            "name": "E2",
            "ticks": 162432,
            "time": 187.721901,
            "velocity": 0.7874015748031497
          },
          {
            "duration": 0.44378699999998616,
            "durationTicks": 384,
            "midi": 53,
            "name": "F3",
            "ticks": 162432,
            "time": 187.721901,
            "velocity": 0.7874015748031497
          },
          {
            "duration": 7.100592000000006,
            "durationTicks": 6144,
            "midi": 49,
            "name": "C#3",
            "ticks": 162816,
            "time": 188.165688,
            "velocity": 0.7874015748031497
          },
          {
            "duration": 7.100592000000006,
            "durationTicks": 6144,
            "midi": 36,
            "name": "C2",
            "ticks": 162816,
            "time": 188.165688,
            "velocity": 0.7874015748031497
          }
        ],
        "endOfTrackTicks": 168960
      },
      {
        "channel": 0,
        "controlChanges": {
          "0": [
            {
              "number": 0,
              "ticks": 0,
              "time": 0,
              "value": 0
            }
          ],
          "32": [
            {
              "number": 32,
              "ticks": 0,
              "time": 0,
              "value": 0
            }
          ]
        },
        "pitchBends": [],
        "instrument": {
          "family": "piano",
          "name": "acoustic grand piano",
          "number": 0
        },
        "name": "",
        "notes": [],
        "endOfTrackTicks": 168960
      },
      {
        "channel": 2,
        "controlChanges": {
          "7": [
            {
              "number": 7,
              "ticks": 0,
              "time": 0,
              "value": 0.84251968503937
            }
          ],
          "10": [
            {
              "number": 10,
              "ticks": 0,
              "time": 0,
              "value": 0.49606299212598426
            }
          ]
        },
        "pitchBends": [],
        "instrument": {
          "family": "bass",
          "name": "electric bass (finger)",
          "number": 33
        },
        "name": "",
        "notes": [
          {
            "duration": 0.4437870000000004,
            "durationTicks": 384,
            "midi": 32,
            "name": "G#1",
            "ticks": 2880,
            "time": 3.3284024999999997,
            "velocity": 1
          },
          {
            "duration": 0.22189349999999974,
            "durationTicks": 192,
            "midi": 32,
            "name": "G#1",
            "ticks": 3264,
            "time": 3.7721895,
            "velocity": 1
          },
          {
            "duration": 0.4437870000000004,
            "durationTicks": 384,
            "midi": 35,
            "name": "B1",
            "ticks": 3456,
            "time": 3.994083,
            "velocity": 1
          },
          {
            "duration": 0.6656804999999997,
            "durationTicks": 576,
            "midi": 37,
            "name": "C#2",
            "ticks": 3840,
            "time": 4.43787,
            "velocity": 1
          },
          {
            "duration": 0.4437870000000004,
            "durationTicks": 384,
            "midi": 32,
            "name": "G#1",
            "ticks": 4416,
            "time": 5.1035505,
            "velocity": 1
          },
          {
            "duration": 0.2218934999999993,
            "durationTicks": 192,
            "midi": 32,
            "name": "G#1",
            "ticks": 4800,
            "time": 5.5473375,
            "velocity": 1
          },
          {
            "duration": 0.4437870000000004,
            "durationTicks": 384,
            "midi": 35,
            "name": "B1",
            "ticks": 4992,
            "time": 5.7692309999999996,
            "velocity": 1
          },
          {
            "duration": 0.6656804999999997,
            "durationTicks": 576,
            "midi": 37,
            "name": "C#2",
            "ticks": 5376,
            "time": 6.213018,
            "velocity": 1
          },
          {
            "duration": 0.4437870000000004,
            "durationTicks": 384,
            "midi": 32,
            "name": "G#1",
            "ticks": 5952,
            "time": 6.8786985,
            "velocity": 1
          },
          {
            "duration": 0.2218935000000002,
            "durationTicks": 192,
            "midi": 32,
            "name": "G#1",
            "ticks": 6336,
            "time": 7.3224855,
            "velocity": 1
          },
          {
            "duration": 0.4437869999999995,
            "durationTicks": 384,
            "midi": 35,
            "name": "B1",
            "ticks": 6528,
            "time": 7.544379,
            "velocity": 1
          },
          {
            "duration": 0.6656805000000006,
            "durationTicks": 576,
            "midi": 37,
            "name": "C#2",
            "ticks": 6912,
            "time": 7.988166,
            "velocity": 1
          },
          {
            "duration": 0.4437870000000004,
            "durationTicks": 384,
            "midi": 32,
            "name": "G#1",
            "ticks": 7488,
            "time": 8.6538465,
            "velocity": 1
          },
          {
            "duration": 0.2218934999999984,
            "durationTicks": 192,
            "midi": 32,
            "name": "G#1",
            "ticks": 7872,
            "time": 9.0976335,
            "velocity": 1
          },
          {
            "duration": 0.4437870000000004,
            "durationTicks": 384,
            "midi": 35,
            "name": "B1",
            "ticks": 8064,
            "time": 9.319526999999999,
            "velocity": 1
          },
          {
            "duration": 0.6656805000000006,
            "durationTicks": 576,
            "midi": 37,
            "name": "C#2",
            "ticks": 8448,
            "time": 9.763314,
            "velocity": 1
          },
          {
            "duration": 0.4437870000000004,
            "durationTicks": 384,
            "midi": 32,
            "name": "G#1",
            "ticks": 9024,
            "time": 10.4289945,
            "velocity": 1
          },
          {
            "duration": 0.2218935000000002,
            "durationTicks": 192,
            "midi": 32,
            "name": "G#1",
            "ticks": 9408,
            "time": 10.8727815,
            "velocity": 1
          },
          {
            "duration": 0.4437869999999986,
            "durationTicks": 384,
            "midi": 35,
            "name": "B1",
            "ticks": 9600,
            "time": 11.094675,
            "velocity": 1
          },
          {
            "duration": 0.6656805000000006,
            "durationTicks": 576,
            "midi": 37,
            "name": "C#2",
            "ticks": 9984,
            "time": 11.538461999999999,
            "velocity": 1
          },
          {
            "duration": 0.4437870000000004,
            "durationTicks": 384,
            "midi": 32,
            "name": "G#1",
            "ticks": 10560,
            "time": 12.2041425,
            "velocity": 1
          },
          {
            "duration": 0.2218935000000002,
            "durationTicks": 192,
            "midi": 32,
            "name": "G#1",
            "ticks": 10944,
            "time": 12.6479295,
            "velocity": 1
          },
          {
            "duration": 0.4437869999999986,
            "durationTicks": 384,
            "midi": 35,
            "name": "B1",
            "ticks": 11136,
            "time": 12.869823,
            "velocity": 1
          },
          {
            "duration": 0.6656805000000006,
            "durationTicks": 576,
            "midi": 37,
            "name": "C#2",
            "ticks": 11520,
            "time": 13.313609999999999,
            "velocity": 1
          },
          {
            "duration": 0.4437870000000004,
            "durationTicks": 384,
            "midi": 32,
            "name": "G#1",
            "ticks": 12096,
            "time": 13.9792905,
            "velocity": 1
          },
          {
            "duration": 0.2218935000000002,
            "durationTicks": 192,
            "midi": 32,
            "name": "G#1",
            "ticks": 12480,
            "time": 14.4230775,
            "velocity": 1
          },
          {
            "duration": 0.4437870000000004,
            "durationTicks": 384,
            "midi": 35,
            "name": "B1",
            "ticks": 12672,
            "time": 14.644971,
            "velocity": 1
          },
          {
            "duration": 0.6656804999999988,
            "durationTicks": 576,
            "midi": 37,
            "name": "C#2",
            "ticks": 13056,
            "time": 15.088758,
            "velocity": 1
          },
          {
            "duration": 0.4437870000000004,
            "durationTicks": 384,
            "midi": 32,
            "name": "G#1",
            "ticks": 13632,
            "time": 15.7544385,
            "velocity": 1
          },
          {
            "duration": 0.2218935000000002,
            "durationTicks": 192,
            "midi": 32,
            "name": "G#1",
            "ticks": 14016,
            "time": 16.1982255,
            "velocity": 1
          },
          {
            "duration": 0.4437870000000004,
            "durationTicks": 384,
            "midi": 35,
            "name": "B1",
            "ticks": 14208,
            "time": 16.420119,
            "velocity": 1
          },
          {
            "duration": 0.6656805000000006,
            "durationTicks": 576,
            "midi": 37,
            "name": "C#2",
            "ticks": 14592,
            "time": 16.863906,
            "velocity": 1
          },
          {
            "duration": 0.2218935000000002,
            "durationTicks": 192,
            "midi": 32,
            "name": "G#1",
            "ticks": 15168,
            "time": 17.5295865,
            "velocity": 1
          },
          {
            "duration": 0.1109467500000001,
            "durationTicks": 96,
            "midi": 32,
            "name": "G#1",
            "ticks": 15360,
            "time": 17.75148,
            "velocity": 1
          },
          {
            "duration": 0.1109467500000001,
            "durationTicks": 96,
            "midi": 32,
            "name": "G#1",
            "ticks": 15552,
            "time": 17.9733735,
            "velocity": 1
          },
          {
            "duration": 0.11094674999999654,
            "durationTicks": 96,
            "midi": 32,
            "name": "G#1",
            "ticks": 15744,
            "time": 18.195267,
            "velocity": 1
          },
          {
            "duration": 0.1109467500000001,
            "durationTicks": 96,
            "midi": 32,
            "name": "G#1",
            "ticks": 15936,
            "time": 18.417160499999998,
            "velocity": 1
          },
          {
            "duration": 0.1109467500000001,
            "durationTicks": 96,
            "midi": 32,
            "name": "G#1",
            "ticks": 16128,
            "time": 18.639053999999998,
            "velocity": 1
          },
          {
            "duration": 0.1109467500000001,
            "durationTicks": 96,
            "midi": 32,
            "name": "G#1",
            "ticks": 16320,
            "time": 18.860947499999998,
            "velocity": 1
          },
          {
            "duration": 0.1109467500000001,
            "durationTicks": 96,
            "midi": 32,
            "name": "G#1",
            "ticks": 16512,
            "time": 19.082841,
            "velocity": 1
          },
          {
            "duration": 0.1109467500000001,
            "durationTicks": 96,
            "midi": 32,
            "name": "G#1",
            "ticks": 16704,
            "time": 19.3047345,
            "velocity": 1
          },
          {
            "duration": 0.1109467500000001,
            "durationTicks": 96,
            "midi": 32,
            "name": "G#1",
            "ticks": 16896,
            "time": 19.526628,
            "velocity": 1
          },
          {
            "duration": 0.1109467500000001,
            "durationTicks": 96,
            "midi": 32,
            "name": "G#1",
            "ticks": 17088,
            "time": 19.7485215,
            "velocity": 1
          },
          {
            "duration": 0.1109467500000001,
            "durationTicks": 96,
            "midi": 32,
            "name": "G#1",
            "ticks": 17280,
            "time": 19.970415,
            "velocity": 1
          },
          {
            "duration": 0.1109467500000001,
            "durationTicks": 96,
            "midi": 32,
            "name": "G#1",
            "ticks": 17472,
            "time": 20.1923085,
            "velocity": 1
          },
          {
            "duration": 0.1109467500000001,
            "durationTicks": 96,
            "midi": 32,
            "name": "G#1",
            "ticks": 17664,
            "time": 20.414202,
            "velocity": 1
          },
          {
            "duration": 0.1109467500000001,
            "durationTicks": 96,
            "midi": 32,
            "name": "G#1",
            "ticks": 17856,
            "time": 20.6360955,
            "velocity": 1
          },
          {
            "duration": 0.1109467500000001,
            "durationTicks": 96,
            "midi": 32,
            "name": "G#1",
            "ticks": 18048,
            "time": 20.857989,
            "velocity": 1
          },
          {
            "duration": 0.4437870000000004,
            "durationTicks": 384,
            "midi": 32,
            "name": "G#1",
            "ticks": 18240,
            "time": 21.0798825,
            "velocity": 1
          },
          {
            "duration": 0.2218935000000002,
            "durationTicks": 192,
            "midi": 32,
            "name": "G#1",
            "ticks": 18624,
            "time": 21.5236695,
            "velocity": 1
          },
          {
            "duration": 0.4437870000000004,
            "durationTicks": 384,
            "midi": 35,
            "name": "B1",
            "ticks": 18816,
            "time": 21.745563,
            "velocity": 1
          },
          {
            "duration": 0.665680499999997,
            "durationTicks": 576,
            "midi": 37,
            "name": "C#2",
            "ticks": 19200,
            "time": 22.18935,
            "velocity": 1
          },
          {
            "duration": 0.4437870000000004,
            "durationTicks": 384,
            "midi": 32,
            "name": "G#1",
            "ticks": 19776,
            "time": 22.855030499999998,
            "velocity": 1
          },
          {
            "duration": 0.2218935000000002,
            "durationTicks": 192,
            "midi": 32,
            "name": "G#1",
            "ticks": 20160,
            "time": 23.2988175,
            "velocity": 1
          },
          {
            "duration": 0.4437870000000004,
            "durationTicks": 384,
            "midi": 35,
            "name": "B1",
            "ticks": 20352,
            "time": 23.520711,
            "velocity": 1
          },
          {
            "duration": 0.8875740000000008,
            "durationTicks": 768,
            "midi": 37,
            "name": "C#2",
            "ticks": 20736,
            "time": 23.964498,
            "velocity": 1
          },
          {
            "duration": 0.1109467500000001,
            "durationTicks": 96,
            "midi": 32,
            "name": "G#1",
            "ticks": 21504,
            "time": 24.852072,
            "velocity": 1
          },
          {
            "duration": 0.1109467500000001,
            "durationTicks": 96,
            "midi": 32,
            "name": "G#1",
            "ticks": 21696,
            "time": 25.0739655,
            "velocity": 1
          },
          {
            "duration": 0.1109467500000001,
            "durationTicks": 96,
            "midi": 32,
            "name": "G#1",
            "ticks": 21888,
            "time": 25.295859,
            "velocity": 1
          },
          {
            "duration": 0.1109467500000001,
            "durationTicks": 96,
            "midi": 32,
            "name": "G#1",
            "ticks": 22080,
            "time": 25.5177525,
            "velocity": 1
          },
          {
            "duration": 0.1109467500000001,
            "durationTicks": 96,
            "midi": 32,
            "name": "G#1",
            "ticks": 22272,
            "time": 25.739646,
            "velocity": 1
          },
          {
            "duration": 0.1109467500000001,
            "durationTicks": 96,
            "midi": 32,
            "name": "G#1",
            "ticks": 22464,
            "time": 25.9615395,
            "velocity": 1
          },
          {
            "duration": 0.1109467500000001,
            "durationTicks": 96,
            "midi": 32,
            "name": "G#1",
            "ticks": 22656,
            "time": 26.183433,
            "velocity": 1
          },
          {
            "duration": 0.1109467500000001,
            "durationTicks": 96,
            "midi": 32,
            "name": "G#1",
            "ticks": 22848,
            "time": 26.405326499999997,
            "velocity": 1
          },
          {
            "duration": 0.1109467500000001,
            "durationTicks": 96,
            "midi": 32,
            "name": "G#1",
            "ticks": 23040,
            "time": 26.627219999999998,
            "velocity": 1
          },
          {
            "duration": 0.1109467500000001,
            "durationTicks": 96,
            "midi": 32,
            "name": "G#1",
            "ticks": 23232,
            "time": 26.849113499999998,
            "velocity": 1
          },
          {
            "duration": 0.1109467500000001,
            "durationTicks": 96,
            "midi": 32,
            "name": "G#1",
            "ticks": 23424,
            "time": 27.071006999999998,
            "velocity": 1
          },
          {
            "duration": 0.1109467500000001,
            "durationTicks": 96,
            "midi": 32,
            "name": "G#1",
            "ticks": 23616,
            "time": 27.2929005,
            "velocity": 1
          },
          {
            "duration": 0.1109467500000001,
            "durationTicks": 96,
            "midi": 32,
            "name": "G#1",
            "ticks": 23808,
            "time": 27.514794,
            "velocity": 1
          },
          {
            "duration": 0.1109467500000001,
            "durationTicks": 96,
            "midi": 32,
            "name": "G#1",
            "ticks": 24000,
            "time": 27.7366875,
            "velocity": 1
          },
          {
            "duration": 0.1109467500000001,
            "durationTicks": 96,
            "midi": 32,
            "name": "G#1",
            "ticks": 24192,
            "time": 27.958581,
            "velocity": 1
          },
          {
            "duration": 0.4437870000000004,
            "durationTicks": 384,
            "midi": 32,
            "name": "G#1",
            "ticks": 24384,
            "time": 28.1804745,
            "velocity": 1
          },
          {
            "duration": 0.2218935000000002,
            "durationTicks": 192,
            "midi": 32,
            "name": "G#1",
            "ticks": 24768,
            "time": 28.6242615,
            "velocity": 1
          },
          {
            "duration": 0.4437870000000004,
            "durationTicks": 384,
            "midi": 35,
            "name": "B1",
            "ticks": 24960,
            "time": 28.846155,
            "velocity": 1
          },
          {
            "duration": 0.6656805000000006,
            "durationTicks": 576,
            "midi": 37,
            "name": "C#2",
            "ticks": 25344,
            "time": 29.289942,
            "velocity": 1
          },
          {
            "duration": 0.4437870000000004,
            "durationTicks": 384,
            "midi": 32,
            "name": "G#1",
            "ticks": 25920,
            "time": 29.9556225,
            "velocity": 1
          },
          {
            "duration": 0.22189349999999664,
            "durationTicks": 192,
            "midi": 32,
            "name": "G#1",
            "ticks": 26304,
            "time": 30.3994095,
            "velocity": 1
          },
          {
            "duration": 0.4437870000000004,
            "durationTicks": 384,
            "midi": 35,
            "name": "B1",
            "ticks": 26496,
            "time": 30.621302999999997,
            "velocity": 1
          },
          {
            "duration": 0.8875740000000008,
            "durationTicks": 768,
            "midi": 37,
            "name": "C#2",
            "ticks": 26880,
            "time": 31.065089999999998,
            "velocity": 1
          },
          {
            "duration": 0.11094675000000365,
            "durationTicks": 96,
            "midi": 32,
            "name": "G#1",
            "ticks": 27648,
            "time": 31.952664,
            "velocity": 1
          },
          {
            "duration": 0.11094675000000365,
            "durationTicks": 96,
            "midi": 32,
            "name": "G#1",
            "ticks": 27840,
            "time": 32.1745575,
            "velocity": 1
          },
          {
            "duration": 0.11094674999999654,
            "durationTicks": 96,
            "midi": 32,
            "name": "G#1",
            "ticks": 28032,
            "time": 32.396451,
            "velocity": 1
          },
          {
            "duration": 0.11094674999999654,
            "durationTicks": 96,
            "midi": 32,
            "name": "G#1",
            "ticks": 28224,
            "time": 32.6183445,
            "velocity": 1
          },
          {
            "duration": 0.11094674999999654,
            "durationTicks": 96,
            "midi": 32,
            "name": "G#1",
            "ticks": 28416,
            "time": 32.840238,
            "velocity": 1
          },
          {
            "duration": 0.11094674999999654,
            "durationTicks": 96,
            "midi": 32,
            "name": "G#1",
            "ticks": 28608,
            "time": 33.0621315,
            "velocity": 1
          },
          {
            "duration": 0.11094674999999654,
            "durationTicks": 96,
            "midi": 32,
            "name": "G#1",
            "ticks": 28800,
            "time": 33.284025,
            "velocity": 1
          },
          {
            "duration": 0.11094674999999654,
            "durationTicks": 96,
            "midi": 32,
            "name": "G#1",
            "ticks": 28992,
            "time": 33.5059185,
            "velocity": 1
          },
          {
            "duration": 0.11094674999999654,
            "durationTicks": 96,
            "midi": 32,
            "name": "G#1",
            "ticks": 29184,
            "time": 33.727812,
            "velocity": 1
          },
          {
            "duration": 0.11094674999999654,
            "durationTicks": 96,
            "midi": 32,
            "name": "G#1",
            "ticks": 29376,
            "time": 33.9497055,
            "velocity": 1
          },
          {
            "duration": 0.11094674999999654,
            "durationTicks": 96,
            "midi": 32,
            "name": "G#1",
            "ticks": 29568,
            "time": 34.171599,
            "velocity": 1
          },
          {
            "duration": 0.11094674999999654,
            "durationTicks": 96,
            "midi": 32,
            "name": "G#1",
            "ticks": 29760,
            "time": 34.3934925,
            "velocity": 1
          },
          {
            "duration": 0.11094674999999654,
            "durationTicks": 96,
            "midi": 32,
            "name": "G#1",
            "ticks": 29952,
            "time": 34.615386,
            "velocity": 1
          },
          {
            "duration": 0.11094674999999654,
            "durationTicks": 96,
            "midi": 32,
            "name": "G#1",
            "ticks": 30144,
            "time": 34.8372795,
            "velocity": 1
          },
          {
            "duration": 0.11094674999999654,
            "durationTicks": 96,
            "midi": 32,
            "name": "G#1",
            "ticks": 30336,
            "time": 35.059173,
            "velocity": 1
          },
          {
            "duration": 0.4437870000000004,
            "durationTicks": 384,
            "midi": 32,
            "name": "G#1",
            "ticks": 30528,
            "time": 35.2810665,
            "velocity": 1
          },
          {
            "duration": 0.2218935000000002,
            "durationTicks": 192,
            "midi": 32,
            "name": "G#1",
            "ticks": 30912,
            "time": 35.7248535,
            "velocity": 1
          },
          {
            "duration": 0.4437870000000004,
            "durationTicks": 384,
            "midi": 35,
            "name": "B1",
            "ticks": 31104,
            "time": 35.946747,
            "velocity": 1
          },
          {
            "duration": 0.6656804999999935,
            "durationTicks": 576,
            "midi": 37,
            "name": "C#2",
            "ticks": 31488,
            "time": 36.390534,
            "velocity": 1
          },
          {
            "duration": 0.4437870000000004,
            "durationTicks": 384,
            "midi": 32,
            "name": "G#1",
            "ticks": 32064,
            "time": 37.056214499999996,
            "velocity": 1
          },
          {
            "duration": 0.2218935000000002,
            "durationTicks": 192,
            "midi": 32,
            "name": "G#1",
            "ticks": 32448,
            "time": 37.500001499999996,
            "velocity": 1
          },
          {
            "duration": 0.4437870000000004,
            "durationTicks": 384,
            "midi": 35,
            "name": "B1",
            "ticks": 32640,
            "time": 37.721894999999996,
            "velocity": 1
          },
          {
            "duration": 0.8875740000000008,
            "durationTicks": 768,
            "midi": 37,
            "name": "C#2",
            "ticks": 33024,
            "time": 38.165682,
            "velocity": 1
          },
          {
            "duration": 0.11094675000000365,
            "durationTicks": 96,
            "midi": 32,
            "name": "G#1",
            "ticks": 33792,
            "time": 39.053256,
            "velocity": 1
          },
          {
            "duration": 0.11094675000000365,
            "durationTicks": 96,
            "midi": 32,
            "name": "G#1",
            "ticks": 33984,
            "time": 39.2751495,
            "velocity": 1
          },
          {
            "duration": 0.11094675000000365,
            "durationTicks": 96,
            "midi": 32,
            "name": "G#1",
            "ticks": 34176,
            "time": 39.497043,
            "velocity": 1
          },
          {
            "duration": 0.11094675000000365,
            "durationTicks": 96,
            "midi": 32,
            "name": "G#1",
            "ticks": 34368,
            "time": 39.7189365,
            "velocity": 1
          },
          {
            "duration": 0.11094675000000365,
            "durationTicks": 96,
            "midi": 32,
            "name": "G#1",
            "ticks": 34560,
            "time": 39.94083,
            "velocity": 1
          },
          {
            "duration": 0.11094675000000365,
            "durationTicks": 96,
            "midi": 32,
            "name": "G#1",
            "ticks": 34752,
            "time": 40.1627235,
            "velocity": 1
          },
          {
            "duration": 0.11094675000000365,
            "durationTicks": 96,
            "midi": 32,
            "name": "G#1",
            "ticks": 34944,
            "time": 40.384617,
            "velocity": 1
          },
          {
            "duration": 0.11094674999999654,
            "durationTicks": 96,
            "midi": 32,
            "name": "G#1",
            "ticks": 35136,
            "time": 40.6065105,
            "velocity": 1
          },
          {
            "duration": 0.11094674999999654,
            "durationTicks": 96,
            "midi": 32,
            "name": "G#1",
            "ticks": 35328,
            "time": 40.828404,
            "velocity": 1
          },
          {
            "duration": 0.11094674999999654,
            "durationTicks": 96,
            "midi": 32,
            "name": "G#1",
            "ticks": 35520,
            "time": 41.0502975,
            "velocity": 1
          },
          {
            "duration": 0.11094674999999654,
            "durationTicks": 96,
            "midi": 32,
            "name": "G#1",
            "ticks": 35712,
            "time": 41.272191,
            "velocity": 1
          },
          {
            "duration": 0.11094674999999654,
            "durationTicks": 96,
            "midi": 32,
            "name": "G#1",
            "ticks": 35904,
            "time": 41.4940845,
            "velocity": 1
          },
          {
            "duration": 0.11094674999999654,
            "durationTicks": 96,
            "midi": 32,
            "name": "G#1",
            "ticks": 36096,
            "time": 41.715978,
            "velocity": 1
          },
          {
            "duration": 0.11094674999999654,
            "durationTicks": 96,
            "midi": 32,
            "name": "G#1",
            "ticks": 36288,
            "time": 41.9378715,
            "velocity": 1
          },
          {
            "duration": 0.11094674999999654,
            "durationTicks": 96,
            "midi": 32,
            "name": "G#1",
            "ticks": 36480,
            "time": 42.159765,
            "velocity": 1
          },
          {
            "duration": 0.4437870000000004,
            "durationTicks": 384,
            "midi": 32,
            "name": "G#1",
            "ticks": 36672,
            "time": 42.3816585,
            "velocity": 1
          },
          {
            "duration": 0.2218935000000002,
            "durationTicks": 192,
            "midi": 32,
            "name": "G#1",
            "ticks": 37056,
            "time": 42.8254455,
            "velocity": 1
          },
          {
            "duration": 0.4437870000000004,
            "durationTicks": 384,
            "midi": 35,
            "name": "B1",
            "ticks": 37248,
            "time": 43.047339,
            "velocity": 1
          },
          {
            "duration": 0.6656805000000006,
            "durationTicks": 576,
            "midi": 37,
            "name": "C#2",
            "ticks": 37632,
            "time": 43.491126,
            "velocity": 1
          },
          {
            "duration": 0.2218935000000002,
            "durationTicks": 192,
            "midi": 32,
            "name": "G#1",
            "ticks": 38208,
            "time": 44.1568065,
            "velocity": 1
          },
          {
            "duration": 0.2218935000000002,
            "durationTicks": 192,
            "midi": 37,
            "name": "C#2",
            "ticks": 40320,
            "time": 46.597635,
            "velocity": 1
          },
          {
            "duration": 0.2218935000000002,
            "durationTicks": 192,
            "midi": 37,
            "name": "C#2",
            "ticks": 40704,
            "time": 47.041422,
            "velocity": 1
          },
          {
            "duration": 0.2218935000000002,
            "durationTicks": 192,
            "midi": 37,
            "name": "C#2",
            "ticks": 42240,
            "time": 48.81657,
            "velocity": 1
          },
          {
            "duration": 0.4437870000000004,
            "durationTicks": 384,
            "midi": 32,
            "name": "G#1",
            "ticks": 42816,
            "time": 49.4822505,
            "velocity": 1
          },
          {
            "duration": 0.2218935000000002,
            "durationTicks": 192,
            "midi": 32,
            "name": "G#1",
            "ticks": 43200,
            "time": 49.9260375,
            "velocity": 1
          },
          {
            "duration": 0.4437870000000004,
            "durationTicks": 384,
            "midi": 35,
            "name": "B1",
            "ticks": 43392,
            "time": 50.147931,
            "velocity": 1
          },
          {
            "duration": 0.6656805000000006,
            "durationTicks": 576,
            "midi": 37,
            "name": "C#2",
            "ticks": 43776,
            "time": 50.591718,
            "velocity": 1
          },
          {
            "duration": 0.4437870000000004,
            "durationTicks": 384,
            "midi": 32,
            "name": "G#1",
            "ticks": 44352,
            "time": 51.2573985,
            "velocity": 1
          },
          {
            "duration": 0.2218935000000002,
            "durationTicks": 192,
            "midi": 32,
            "name": "G#1",
            "ticks": 44736,
            "time": 51.7011855,
            "velocity": 1
          },
          {
            "duration": 0.4437870000000004,
            "durationTicks": 384,
            "midi": 35,
            "name": "B1",
            "ticks": 44928,
            "time": 51.923079,
            "velocity": 1
          },
          {
            "duration": 0.6656804999999935,
            "durationTicks": 576,
            "midi": 37,
            "name": "C#2",
            "ticks": 45312,
            "time": 52.366866,
            "velocity": 1
          },
          {
            "duration": 0.4437870000000004,
            "durationTicks": 384,
            "midi": 32,
            "name": "G#1",
            "ticks": 45888,
            "time": 53.032546499999995,
            "velocity": 1
          },
          {
            "duration": 0.2218935000000002,
            "durationTicks": 192,
            "midi": 32,
            "name": "G#1",
            "ticks": 46272,
            "time": 53.476333499999996,
            "velocity": 1
          },
          {
            "duration": 0.4437870000000004,
            "durationTicks": 384,
            "midi": 35,
            "name": "B1",
            "ticks": 46464,
            "time": 53.698226999999996,
            "velocity": 1
          },
          {
            "duration": 0.6656805000000006,
            "durationTicks": 576,
            "midi": 37,
            "name": "C#2",
            "ticks": 46848,
            "time": 54.142013999999996,
            "velocity": 1
          },
          {
            "duration": 0.4437870000000004,
            "durationTicks": 384,
            "midi": 32,
            "name": "G#1",
            "ticks": 47424,
            "time": 54.8076945,
            "velocity": 1
          },
          {
            "duration": 0.2218935000000002,
            "durationTicks": 192,
            "midi": 32,
            "name": "G#1",
            "ticks": 47808,
            "time": 55.2514815,
            "velocity": 1
          },
          {
            "duration": 0.4437870000000004,
            "durationTicks": 384,
            "midi": 35,
            "name": "B1",
            "ticks": 48000,
            "time": 55.473375,
            "velocity": 1
          },
          {
            "duration": 0.6656805000000006,
            "durationTicks": 576,
            "midi": 37,
            "name": "C#2",
            "ticks": 48384,
            "time": 55.917162,
            "velocity": 1
          },
          {
            "duration": 0.2218935000000002,
            "durationTicks": 192,
            "midi": 32,
            "name": "G#1",
            "ticks": 48960,
            "time": 56.5828425,
            "velocity": 1
          },
          {
            "duration": 0.11094674999999654,
            "durationTicks": 96,
            "midi": 32,
            "name": "G#1",
            "ticks": 49152,
            "time": 56.804736,
            "velocity": 1
          },
          {
            "duration": 0.11094674999999654,
            "durationTicks": 96,
            "midi": 32,
            "name": "G#1",
            "ticks": 49344,
            "time": 57.0266295,
            "velocity": 1
          },
          {
            "duration": 0.11094674999999654,
            "durationTicks": 96,
            "midi": 32,
            "name": "G#1",
            "ticks": 49536,
            "time": 57.248523,
            "velocity": 1
          },
          {
            "duration": 0.11094674999999654,
            "durationTicks": 96,
            "midi": 32,
            "name": "G#1",
            "ticks": 49728,
            "time": 57.4704165,
            "velocity": 1
          },
          {
            "duration": 0.11094674999999654,
            "durationTicks": 96,
            "midi": 32,
            "name": "G#1",
            "ticks": 49920,
            "time": 57.69231,
            "velocity": 1
          },
          {
            "duration": 0.11094674999999654,
            "durationTicks": 96,
            "midi": 32,
            "name": "G#1",
            "ticks": 50112,
            "time": 57.9142035,
            "velocity": 1
          },
          {
            "duration": 0.11094674999999654,
            "durationTicks": 96,
            "midi": 32,
            "name": "G#1",
            "ticks": 50304,
            "time": 58.136097,
            "velocity": 1
          },
          {
            "duration": 0.11094674999999654,
            "durationTicks": 96,
            "midi": 32,
            "name": "G#1",
            "ticks": 50496,
            "time": 58.3579905,
            "velocity": 1
          },
          {
            "duration": 0.11094674999999654,
            "durationTicks": 96,
            "midi": 32,
            "name": "G#1",
            "ticks": 50688,
            "time": 58.579884,
            "velocity": 1
          },
          {
            "duration": 0.11094674999999654,
            "durationTicks": 96,
            "midi": 32,
            "name": "G#1",
            "ticks": 50880,
            "time": 58.8017775,
            "velocity": 1
          },
          {
            "duration": 0.11094674999999654,
            "durationTicks": 96,
            "midi": 32,
            "name": "G#1",
            "ticks": 51072,
            "time": 59.023671,
            "velocity": 1
          },
          {
            "duration": 0.11094674999999654,
            "durationTicks": 96,
            "midi": 32,
            "name": "G#1",
            "ticks": 51264,
            "time": 59.2455645,
            "velocity": 1
          },
          {
            "duration": 0.11094674999999654,
            "durationTicks": 96,
            "midi": 32,
            "name": "G#1",
            "ticks": 51456,
            "time": 59.467458,
            "velocity": 1
          },
          {
            "duration": 0.11094674999999654,
            "durationTicks": 96,
            "midi": 32,
            "name": "G#1",
            "ticks": 51648,
            "time": 59.6893515,
            "velocity": 1
          },
          {
            "duration": 0.11094674999999654,
            "durationTicks": 96,
            "midi": 32,
            "name": "G#1",
            "ticks": 51840,
            "time": 59.911245,
            "velocity": 1
          },
          {
            "duration": 0.4437870000000004,
            "durationTicks": 384,
            "midi": 32,
            "name": "G#1",
            "ticks": 52032,
            "time": 60.1331385,
            "velocity": 1
          },
          {
            "duration": 0.2218935000000002,
            "durationTicks": 192,
            "midi": 32,
            "name": "G#1",
            "ticks": 52416,
            "time": 60.5769255,
            "velocity": 1
          },
          {
            "duration": 0.44378699999999327,
            "durationTicks": 384,
            "midi": 35,
            "name": "B1",
            "ticks": 52608,
            "time": 60.798819,
            "velocity": 1
          },
          {
            "duration": 0.6656805000000006,
            "durationTicks": 576,
            "midi": 37,
            "name": "C#2",
            "ticks": 52992,
            "time": 61.242605999999995,
            "velocity": 1
          },
          {
            "duration": 0.4437870000000004,
            "durationTicks": 384,
            "midi": 32,
            "name": "G#1",
            "ticks": 53568,
            "time": 61.908286499999996,
            "velocity": 1
          },
          {
            "duration": 0.2218935000000002,
            "durationTicks": 192,
            "midi": 32,
            "name": "G#1",
            "ticks": 53952,
            "time": 62.352073499999996,
            "velocity": 1
          },
          {
            "duration": 0.4437870000000004,
            "durationTicks": 384,
            "midi": 35,
            "name": "B1",
            "ticks": 54144,
            "time": 62.573966999999996,
            "velocity": 1
          },
          {
            "duration": 0.8875740000000008,
            "durationTicks": 768,
            "midi": 37,
            "name": "C#2",
            "ticks": 54528,
            "time": 63.017754,
            "velocity": 1
          },
          {
            "duration": 0.11094674999999654,
            "durationTicks": 96,
            "midi": 32,
            "name": "G#1",
            "ticks": 55296,
            "time": 63.905328,
            "velocity": 1
          },
          {
            "duration": 0.11094674999999654,
            "durationTicks": 96,
            "midi": 32,
            "name": "G#1",
            "ticks": 55488,
            "time": 64.1272215,
            "velocity": 1
          },
          {
            "duration": 0.11094674999999654,
            "durationTicks": 96,
            "midi": 32,
            "name": "G#1",
            "ticks": 55680,
            "time": 64.349115,
            "velocity": 1
          },
          {
            "duration": 0.11094674999999654,
            "durationTicks": 96,
            "midi": 32,
            "name": "G#1",
            "ticks": 55872,
            "time": 64.5710085,
            "velocity": 1
          },
          {
            "duration": 0.11094674999999654,
            "durationTicks": 96,
            "midi": 32,
            "name": "G#1",
            "ticks": 56064,
            "time": 64.792902,
            "velocity": 1
          },
          {
            "duration": 0.11094675000001075,
            "durationTicks": 96,
            "midi": 32,
            "name": "G#1",
            "ticks": 56256,
            "time": 65.01479549999999,
            "velocity": 1
          },
          {
            "duration": 0.11094674999999654,
            "durationTicks": 96,
            "midi": 32,
            "name": "G#1",
            "ticks": 56448,
            "time": 65.236689,
            "velocity": 1
          },
          {
            "duration": 0.11094675000001075,
            "durationTicks": 96,
            "midi": 32,
            "name": "G#1",
            "ticks": 56640,
            "time": 65.45858249999999,
            "velocity": 1
          },
          {
            "duration": 0.11094674999999654,
            "durationTicks": 96,
            "midi": 32,
            "name": "G#1",
            "ticks": 56832,
            "time": 65.680476,
            "velocity": 1
          },
          {
            "duration": 0.11094675000001075,
            "durationTicks": 96,
            "midi": 32,
            "name": "G#1",
            "ticks": 57024,
            "time": 65.90236949999999,
            "velocity": 1
          },
          {
            "duration": 0.11094674999999654,
            "durationTicks": 96,
            "midi": 32,
            "name": "G#1",
            "ticks": 57216,
            "time": 66.124263,
            "velocity": 1
          },
          {
            "duration": 0.11094675000001075,
            "durationTicks": 96,
            "midi": 32,
            "name": "G#1",
            "ticks": 57408,
            "time": 66.34615649999999,
            "velocity": 1
          },
          {
            "duration": 0.11094674999999654,
            "durationTicks": 96,
            "midi": 32,
            "name": "G#1",
            "ticks": 57600,
            "time": 66.56805,
            "velocity": 1
          },
          {
            "duration": 0.11094675000001075,
            "durationTicks": 96,
            "midi": 32,
            "name": "G#1",
            "ticks": 57792,
            "time": 66.78994349999999,
            "velocity": 1
          },
          {
            "duration": 0.11094674999999654,
            "durationTicks": 96,
            "midi": 32,
            "name": "G#1",
            "ticks": 57984,
            "time": 67.011837,
            "velocity": 1
          },
          {
            "duration": 0.4437870000000004,
            "durationTicks": 384,
            "midi": 32,
            "name": "G#1",
            "ticks": 58176,
            "time": 67.2337305,
            "velocity": 1
          },
          {
            "duration": 0.2218935000000073,
            "durationTicks": 192,
            "midi": 32,
            "name": "G#1",
            "ticks": 58560,
            "time": 67.6775175,
            "velocity": 1
          },
          {
            "duration": 0.4437870000000004,
            "durationTicks": 384,
            "midi": 35,
            "name": "B1",
            "ticks": 58752,
            "time": 67.899411,
            "velocity": 1
          },
          {
            "duration": 0.6656804999999935,
            "durationTicks": 576,
            "midi": 37,
            "name": "C#2",
            "ticks": 59136,
            "time": 68.343198,
            "velocity": 1
          },
          {
            "duration": 0.4437870000000004,
            "durationTicks": 384,
            "midi": 32,
            "name": "G#1",
            "ticks": 59712,
            "time": 69.0088785,
            "velocity": 1
          },
          {
            "duration": 0.2218935000000073,
            "durationTicks": 192,
            "midi": 32,
            "name": "G#1",
            "ticks": 60096,
            "time": 69.4526655,
            "velocity": 1
          },
          {
            "duration": 0.4437870000000004,
            "durationTicks": 384,
            "midi": 35,
            "name": "B1",
            "ticks": 60288,
            "time": 69.674559,
            "velocity": 1
          },
          {
            "duration": 0.8875740000000008,
            "durationTicks": 768,
            "midi": 37,
            "name": "C#2",
            "ticks": 60672,
            "time": 70.118346,
            "velocity": 1
          },
          {
            "duration": 0.11094674999999654,
            "durationTicks": 96,
            "midi": 32,
            "name": "G#1",
            "ticks": 61440,
            "time": 71.00592,
            "velocity": 1
          },
          {
            "duration": 0.11094674999999654,
            "durationTicks": 96,
            "midi": 32,
            "name": "G#1",
            "ticks": 61632,
            "time": 71.2278135,
            "velocity": 1
          },
          {
            "duration": 0.11094674999999654,
            "durationTicks": 96,
            "midi": 32,
            "name": "G#1",
            "ticks": 61824,
            "time": 71.449707,
            "velocity": 1
          },
          {
            "duration": 0.11094674999999654,
            "durationTicks": 96,
            "midi": 32,
            "name": "G#1",
            "ticks": 62016,
            "time": 71.6716005,
            "velocity": 1
          },
          {
            "duration": 0.11094674999999654,
            "durationTicks": 96,
            "midi": 32,
            "name": "G#1",
            "ticks": 62208,
            "time": 71.893494,
            "velocity": 1
          },
          {
            "duration": 0.11094674999999654,
            "durationTicks": 96,
            "midi": 32,
            "name": "G#1",
            "ticks": 62400,
            "time": 72.1153875,
            "velocity": 1
          },
          {
            "duration": 0.11094674999999654,
            "durationTicks": 96,
            "midi": 32,
            "name": "G#1",
            "ticks": 62592,
            "time": 72.337281,
            "velocity": 1
          },
          {
            "duration": 0.11094674999999654,
            "durationTicks": 96,
            "midi": 32,
            "name": "G#1",
            "ticks": 62784,
            "time": 72.5591745,
            "velocity": 1
          },
          {
            "duration": 0.11094674999999654,
            "durationTicks": 96,
            "midi": 32,
            "name": "G#1",
            "ticks": 62976,
            "time": 72.781068,
            "velocity": 1
          },
          {
            "duration": 0.11094674999999654,
            "durationTicks": 96,
            "midi": 32,
            "name": "G#1",
            "ticks": 63168,
            "time": 73.0029615,
            "velocity": 1
          },
          {
            "duration": 0.11094675000001075,
            "durationTicks": 96,
            "midi": 32,
            "name": "G#1",
            "ticks": 63360,
            "time": 73.22485499999999,
            "velocity": 1
          },
          {
            "duration": 0.11094674999999654,
            "durationTicks": 96,
            "midi": 32,
            "name": "G#1",
            "ticks": 63552,
            "time": 73.4467485,
            "velocity": 1
          },
          {
            "duration": 0.11094675000001075,
            "durationTicks": 96,
            "midi": 32,
            "name": "G#1",
            "ticks": 63744,
            "time": 73.66864199999999,
            "velocity": 1
          },
          {
            "duration": 0.11094674999999654,
            "durationTicks": 96,
            "midi": 32,
            "name": "G#1",
            "ticks": 63936,
            "time": 73.8905355,
            "velocity": 1
          },
          {
            "duration": 0.11094675000001075,
            "durationTicks": 96,
            "midi": 32,
            "name": "G#1",
            "ticks": 64128,
            "time": 74.11242899999999,
            "velocity": 1
          },
          {
            "duration": 0.4437870000000004,
            "durationTicks": 384,
            "midi": 32,
            "name": "G#1",
            "ticks": 64320,
            "time": 74.3343225,
            "velocity": 1
          },
          {
            "duration": 0.22189349999999308,
            "durationTicks": 192,
            "midi": 32,
            "name": "G#1",
            "ticks": 64704,
            "time": 74.7781095,
            "velocity": 1
          },
          {
            "duration": 0.4437870000000004,
            "durationTicks": 384,
            "midi": 35,
            "name": "B1",
            "ticks": 64896,
            "time": 75.00000299999999,
            "velocity": 1
          },
          {
            "duration": 0.6656805000000077,
            "durationTicks": 576,
            "midi": 37,
            "name": "C#2",
            "ticks": 65280,
            "time": 75.44378999999999,
            "velocity": 1
          },
          {
            "duration": 0.4437870000000004,
            "durationTicks": 384,
            "midi": 32,
            "name": "G#1",
            "ticks": 65856,
            "time": 76.1094705,
            "velocity": 1
          },
          {
            "duration": 0.22189349999999308,
            "durationTicks": 192,
            "midi": 32,
            "name": "G#1",
            "ticks": 66240,
            "time": 76.5532575,
            "velocity": 1
          },
          {
            "duration": 0.4437870000000004,
            "durationTicks": 384,
            "midi": 35,
            "name": "B1",
            "ticks": 66432,
            "time": 76.775151,
            "velocity": 1
          },
          {
            "duration": 0.8875740000000008,
            "durationTicks": 768,
            "midi": 37,
            "name": "C#2",
            "ticks": 66816,
            "time": 77.218938,
            "velocity": 1
          },
          {
            "duration": 0.11094674999999654,
            "durationTicks": 96,
            "midi": 32,
            "name": "G#1",
            "ticks": 67584,
            "time": 78.106512,
            "velocity": 1
          },
          {
            "duration": 0.11094674999999654,
            "durationTicks": 96,
            "midi": 32,
            "name": "G#1",
            "ticks": 67776,
            "time": 78.3284055,
            "velocity": 1
          },
          {
            "duration": 0.11094674999999654,
            "durationTicks": 96,
            "midi": 32,
            "name": "G#1",
            "ticks": 67968,
            "time": 78.550299,
            "velocity": 1
          },
          {
            "duration": 0.11094674999999654,
            "durationTicks": 96,
            "midi": 32,
            "name": "G#1",
            "ticks": 68160,
            "time": 78.7721925,
            "velocity": 1
          },
          {
            "duration": 0.11094674999999654,
            "durationTicks": 96,
            "midi": 32,
            "name": "G#1",
            "ticks": 68352,
            "time": 78.994086,
            "velocity": 1
          },
          {
            "duration": 0.11094674999999654,
            "durationTicks": 96,
            "midi": 32,
            "name": "G#1",
            "ticks": 68544,
            "time": 79.2159795,
            "velocity": 1
          },
          {
            "duration": 0.11094674999999654,
            "durationTicks": 96,
            "midi": 32,
            "name": "G#1",
            "ticks": 68736,
            "time": 79.437873,
            "velocity": 1
          },
          {
            "duration": 0.11094674999999654,
            "durationTicks": 96,
            "midi": 32,
            "name": "G#1",
            "ticks": 68928,
            "time": 79.6597665,
            "velocity": 1
          },
          {
            "duration": 0.11094674999999654,
            "durationTicks": 96,
            "midi": 32,
            "name": "G#1",
            "ticks": 69120,
            "time": 79.88166,
            "velocity": 1
          },
          {
            "duration": 0.11094674999999654,
            "durationTicks": 96,
            "midi": 32,
            "name": "G#1",
            "ticks": 69312,
            "time": 80.1035535,
            "velocity": 1
          },
          {
            "duration": 0.11094674999999654,
            "durationTicks": 96,
            "midi": 32,
            "name": "G#1",
            "ticks": 69504,
            "time": 80.325447,
            "velocity": 1
          },
          {
            "duration": 0.11094674999999654,
            "durationTicks": 96,
            "midi": 32,
            "name": "G#1",
            "ticks": 69696,
            "time": 80.5473405,
            "velocity": 1
          },
          {
            "duration": 0.11094674999999654,
            "durationTicks": 96,
            "midi": 32,
            "name": "G#1",
            "ticks": 69888,
            "time": 80.769234,
            "velocity": 1
          },
          {
            "duration": 0.11094674999999654,
            "durationTicks": 96,
            "midi": 32,
            "name": "G#1",
            "ticks": 70080,
            "time": 80.9911275,
            "velocity": 1
          },
          {
            "duration": 0.11094674999999654,
            "durationTicks": 96,
            "midi": 32,
            "name": "G#1",
            "ticks": 70272,
            "time": 81.213021,
            "velocity": 1
          },
          {
            "duration": 0.4437870000000004,
            "durationTicks": 384,
            "midi": 32,
            "name": "G#1",
            "ticks": 70464,
            "time": 81.43491449999999,
            "velocity": 1
          },
          {
            "duration": 0.2218935000000073,
            "durationTicks": 192,
            "midi": 32,
            "name": "G#1",
            "ticks": 70848,
            "time": 81.87870149999999,
            "velocity": 1
          },
          {
            "duration": 0.4437870000000004,
            "durationTicks": 384,
            "midi": 35,
            "name": "B1",
            "ticks": 71040,
            "time": 82.100595,
            "velocity": 1
          },
          {
            "duration": 0.6656804999999935,
            "durationTicks": 576,
            "midi": 37,
            "name": "C#2",
            "ticks": 71424,
            "time": 82.544382,
            "velocity": 1
          },
          {
            "duration": 0.2218935000000073,
            "durationTicks": 192,
            "midi": 32,
            "name": "G#1",
            "ticks": 72000,
            "time": 83.21006249999999,
            "velocity": 1
          },
          {
            "duration": 0.22189349999999308,
            "durationTicks": 192,
            "midi": 37,
            "name": "C#2",
            "ticks": 74112,
            "time": 85.650891,
            "velocity": 1
          },
          {
            "duration": 0.22189349999999308,
            "durationTicks": 192,
            "midi": 37,
            "name": "C#2",
            "ticks": 74496,
            "time": 86.094678,
            "velocity": 1
          },
          {
            "duration": 0.22189349999999308,
            "durationTicks": 192,
            "midi": 37,
            "name": "C#2",
            "ticks": 76032,
            "time": 87.869826,
            "velocity": 1
          },
          {
            "duration": 0.4437870000000004,
            "durationTicks": 384,
            "midi": 32,
            "name": "G#1",
            "ticks": 76608,
            "time": 88.5355065,
            "velocity": 1
          },
          {
            "duration": 0.2218935000000073,
            "durationTicks": 192,
            "midi": 32,
            "name": "G#1",
            "ticks": 76992,
            "time": 88.9792935,
            "velocity": 1
          },
          {
            "duration": 0.44378699999998616,
            "durationTicks": 384,
            "midi": 35,
            "name": "B1",
            "ticks": 77184,
            "time": 89.201187,
            "velocity": 1
          },
          {
            "duration": 0.6656805000000077,
            "durationTicks": 576,
            "midi": 37,
            "name": "C#2",
            "ticks": 77568,
            "time": 89.64497399999999,
            "velocity": 1
          },
          {
            "duration": 0.4437870000000004,
            "durationTicks": 384,
            "midi": 32,
            "name": "G#1",
            "ticks": 78144,
            "time": 90.3106545,
            "velocity": 1
          },
          {
            "duration": 0.22189349999999308,
            "durationTicks": 192,
            "midi": 32,
            "name": "G#1",
            "ticks": 78528,
            "time": 90.7544415,
            "velocity": 1
          },
          {
            "duration": 0.4437870000000004,
            "durationTicks": 384,
            "midi": 35,
            "name": "B1",
            "ticks": 78720,
            "time": 90.97633499999999,
            "velocity": 1
          },
          {
            "duration": 0.6656805000000077,
            "durationTicks": 576,
            "midi": 37,
            "name": "C#2",
            "ticks": 79104,
            "time": 91.42012199999999,
            "velocity": 1
          },
          {
            "duration": 0.4437870000000004,
            "durationTicks": 384,
            "midi": 32,
            "name": "G#1",
            "ticks": 79680,
            "time": 92.0858025,
            "velocity": 1
          },
          {
            "duration": 0.22189349999999308,
            "durationTicks": 192,
            "midi": 32,
            "name": "G#1",
            "ticks": 80064,
            "time": 92.5295895,
            "velocity": 1
          },
          {
            "duration": 0.4437870000000004,
            "durationTicks": 384,
            "midi": 35,
            "name": "B1",
            "ticks": 80256,
            "time": 92.751483,
            "velocity": 1
          },
          {
            "duration": 0.6656805000000077,
            "durationTicks": 576,
            "midi": 37,
            "name": "C#2",
            "ticks": 80640,
            "time": 93.19527,
            "velocity": 1
          },
          {
            "duration": 0.4437870000000004,
            "durationTicks": 384,
            "midi": 32,
            "name": "G#1",
            "ticks": 81216,
            "time": 93.8609505,
            "velocity": 1
          },
          {
            "duration": 0.22189349999999308,
            "durationTicks": 192,
            "midi": 32,
            "name": "G#1",
            "ticks": 81600,
            "time": 94.3047375,
            "velocity": 1
          },
          {
            "duration": 0.4437870000000004,
            "durationTicks": 384,
            "midi": 35,
            "name": "B1",
            "ticks": 81792,
            "time": 94.526631,
            "velocity": 1
          },
          {
            "duration": 0.6656805000000077,
            "durationTicks": 576,
            "midi": 37,
            "name": "C#2",
            "ticks": 82176,
            "time": 94.970418,
            "velocity": 1
          },
          {
            "duration": 0.22189349999999308,
            "durationTicks": 192,
            "midi": 32,
            "name": "G#1",
            "ticks": 82752,
            "time": 95.6360985,
            "velocity": 1
          },
          {
            "duration": 0.2218935000000073,
            "durationTicks": 192,
            "midi": 27,
            "name": "D#1",
            "ticks": 82944,
            "time": 95.857992,
            "velocity": 1
          },
          {
            "duration": 0.22189349999999308,
            "durationTicks": 192,
            "midi": 27,
            "name": "D#1",
            "ticks": 83136,
            "time": 96.0798855,
            "velocity": 1
          },
          {
            "duration": 0.2218935000000073,
            "durationTicks": 192,
            "midi": 27,
            "name": "D#1",
            "ticks": 83328,
            "time": 96.301779,
            "velocity": 1
          },
          {
            "duration": 0.22189349999999308,
            "durationTicks": 192,
            "midi": 27,
            "name": "D#1",
            "ticks": 83520,
            "time": 96.5236725,
            "velocity": 1
          },
          {
            "duration": 0.2218935000000073,
            "durationTicks": 192,
            "midi": 27,
            "name": "D#1",
            "ticks": 83712,
            "time": 96.745566,
            "velocity": 1
          },
          {
            "duration": 0.22189349999999308,
            "durationTicks": 192,
            "midi": 27,
            "name": "D#1",
            "ticks": 83904,
            "time": 96.9674595,
            "velocity": 1
          },
          {
            "duration": 0.22189349999999308,
            "durationTicks": 192,
            "midi": 27,
            "name": "D#1",
            "ticks": 84096,
            "time": 97.189353,
            "velocity": 1
          },
          {
            "duration": 0.4437870000000004,
            "durationTicks": 384,
            "midi": 30,
            "name": "F#1",
            "ticks": 84288,
            "time": 97.41124649999999,
            "velocity": 1
          },
          {
            "duration": 0.2218935000000073,
            "durationTicks": 192,
            "midi": 27,
            "name": "D#1",
            "ticks": 84672,
            "time": 97.85503349999999,
            "velocity": 1
          },
          {
            "duration": 0.22189349999999308,
            "durationTicks": 192,
            "midi": 27,
            "name": "D#1",
            "ticks": 84864,
            "time": 98.076927,
            "velocity": 1
          },
          {
            "duration": 0.2218935000000073,
            "durationTicks": 192,
            "midi": 27,
            "name": "D#1",
            "ticks": 85056,
            "time": 98.29882049999999,
            "velocity": 1
          },
          {
            "duration": 0.22189349999999308,
            "durationTicks": 192,
            "midi": 27,
            "name": "D#1",
            "ticks": 85248,
            "time": 98.520714,
            "velocity": 1
          },
          {
            "duration": 0.2218935000000073,
            "durationTicks": 192,
            "midi": 27,
            "name": "D#1",
            "ticks": 85440,
            "time": 98.74260749999999,
            "velocity": 1
          },
          {
            "duration": 0.22189349999999308,
            "durationTicks": 192,
            "midi": 27,
            "name": "D#1",
            "ticks": 85632,
            "time": 98.964501,
            "velocity": 1
          },
          {
            "duration": 0.4437870000000004,
            "durationTicks": 384,
            "midi": 30,
            "name": "F#1",
            "ticks": 85824,
            "time": 99.18639449999999,
            "velocity": 1
          },
          {
            "duration": 0.2218935000000073,
            "durationTicks": 192,
            "midi": 27,
            "name": "D#1",
            "ticks": 86208,
            "time": 99.63018149999999,
            "velocity": 1
          },
          {
            "duration": 0.22189349999999308,
            "durationTicks": 192,
            "midi": 27,
            "name": "D#1",
            "ticks": 86400,
            "time": 99.852075,
            "velocity": 1
          },
          {
            "duration": 0.2218935000000073,
            "durationTicks": 192,
            "midi": 27,
            "name": "D#1",
            "ticks": 86592,
            "time": 100.07396849999999,
            "velocity": 1
          },
          {
            "duration": 0.22189349999999308,
            "durationTicks": 192,
            "midi": 27,
            "name": "D#1",
            "ticks": 86784,
            "time": 100.295862,
            "velocity": 1
          },
          {
            "duration": 0.2218935000000073,
            "durationTicks": 192,
            "midi": 27,
            "name": "D#1",
            "ticks": 86976,
            "time": 100.51775549999999,
            "velocity": 1
          },
          {
            "duration": 0.22189349999999308,
            "durationTicks": 192,
            "midi": 27,
            "name": "D#1",
            "ticks": 87168,
            "time": 100.739649,
            "velocity": 1
          },
          {
            "duration": 0.4437870000000004,
            "durationTicks": 384,
            "midi": 30,
            "name": "F#1",
            "ticks": 87360,
            "time": 100.9615425,
            "velocity": 1
          },
          {
            "duration": 0.2218935000000073,
            "durationTicks": 192,
            "midi": 27,
            "name": "D#1",
            "ticks": 87744,
            "time": 101.4053295,
            "velocity": 1
          },
          {
            "duration": 0.22189349999999308,
            "durationTicks": 192,
            "midi": 27,
            "name": "D#1",
            "ticks": 87936,
            "time": 101.627223,
            "velocity": 1
          },
          {
            "duration": 0.2218935000000073,
            "durationTicks": 192,
            "midi": 27,
            "name": "D#1",
            "ticks": 88128,
            "time": 101.8491165,
            "velocity": 1
          },
          {
            "duration": 0.22189349999999308,
            "durationTicks": 192,
            "midi": 27,
            "name": "D#1",
            "ticks": 88320,
            "time": 102.07101,
            "velocity": 1
          },
          {
            "duration": 0.2218935000000073,
            "durationTicks": 192,
            "midi": 27,
            "name": "D#1",
            "ticks": 88512,
            "time": 102.2929035,
            "velocity": 1
          },
          {
            "duration": 0.22189349999999308,
            "durationTicks": 192,
            "midi": 27,
            "name": "D#1",
            "ticks": 88704,
            "time": 102.514797,
            "velocity": 1
          },
          {
            "duration": 0.4299186562499955,
            "durationTicks": 372,
            "midi": 32,
            "name": "G#1",
            "ticks": 88896,
            "time": 102.7366905,
            "velocity": 1
          },
          {
            "duration": 0.2218935000000073,
            "durationTicks": 192,
            "midi": 32,
            "name": "G#1",
            "ticks": 89280,
            "time": 103.1804775,
            "velocity": 1
          },
          {
            "duration": 0.4437870000000004,
            "durationTicks": 384,
            "midi": 35,
            "name": "B1",
            "ticks": 89472,
            "time": 103.402371,
            "velocity": 1
          },
          {
            "duration": 0.6656804999999935,
            "durationTicks": 576,
            "midi": 37,
            "name": "C#2",
            "ticks": 89856,
            "time": 103.846158,
            "velocity": 1
          },
          {
            "duration": 0.4437870000000004,
            "durationTicks": 384,
            "midi": 32,
            "name": "G#1",
            "ticks": 90432,
            "time": 104.5118385,
            "velocity": 1
          },
          {
            "duration": 0.2218935000000073,
            "durationTicks": 192,
            "midi": 32,
            "name": "G#1",
            "ticks": 90816,
            "time": 104.9556255,
            "velocity": 1
          },
          {
            "duration": 0.44378699999998616,
            "durationTicks": 384,
            "midi": 35,
            "name": "B1",
            "ticks": 91008,
            "time": 105.177519,
            "velocity": 1
          },
          {
            "duration": 0.6656805000000077,
            "durationTicks": 576,
            "midi": 37,
            "name": "C#2",
            "ticks": 91392,
            "time": 105.62130599999999,
            "velocity": 1
          },
          {
            "duration": 0.4437870000000004,
            "durationTicks": 384,
            "midi": 32,
            "name": "G#1",
            "ticks": 91968,
            "time": 106.2869865,
            "velocity": 1
          },
          {
            "duration": 0.22189349999999308,
            "durationTicks": 192,
            "midi": 32,
            "name": "G#1",
            "ticks": 92352,
            "time": 106.7307735,
            "velocity": 1
          },
          {
            "duration": 0.4437870000000004,
            "durationTicks": 384,
            "midi": 35,
            "name": "B1",
            "ticks": 92544,
            "time": 106.95266699999999,
            "velocity": 1
          },
          {
            "duration": 0.6656805000000077,
            "durationTicks": 576,
            "midi": 37,
            "name": "C#2",
            "ticks": 92928,
            "time": 107.39645399999999,
            "velocity": 1
          },
          {
            "duration": 0.4437870000000004,
            "durationTicks": 384,
            "midi": 32,
            "name": "G#1",
            "ticks": 93504,
            "time": 108.0621345,
            "velocity": 1
          },
          {
            "duration": 0.22189349999999308,
            "durationTicks": 192,
            "midi": 32,
            "name": "G#1",
            "ticks": 93888,
            "time": 108.5059215,
            "velocity": 1
          },
          {
            "duration": 0.4437870000000004,
            "durationTicks": 384,
            "midi": 35,
            "name": "B1",
            "ticks": 94080,
            "time": 108.72781499999999,
            "velocity": 1
          },
          {
            "duration": 0.6656805000000077,
            "durationTicks": 576,
            "midi": 37,
            "name": "C#2",
            "ticks": 94464,
            "time": 109.171602,
            "velocity": 1
          },
          {
            "duration": 0.22189349999999308,
            "durationTicks": 192,
            "midi": 32,
            "name": "G#1",
            "ticks": 95040,
            "time": 109.8372825,
            "velocity": 1
          },
          {
            "duration": 0.2218935000000073,
            "durationTicks": 192,
            "midi": 27,
            "name": "D#1",
            "ticks": 95232,
            "time": 110.059176,
            "velocity": 1
          },
          {
            "duration": 0.22189349999999308,
            "durationTicks": 192,
            "midi": 32,
            "name": "G#1",
            "ticks": 95424,
            "time": 110.2810695,
            "velocity": 1
          },
          {
            "duration": 0.4437870000000004,
            "durationTicks": 384,
            "midi": 35,
            "name": "B1",
            "ticks": 95616,
            "time": 110.502963,
            "velocity": 1
          },
          {
            "duration": 0.6656805000000077,
            "durationTicks": 576,
            "midi": 37,
            "name": "C#2",
            "ticks": 96000,
            "time": 110.94675,
            "velocity": 1
          },
          {
            "duration": 0.4437870000000004,
            "durationTicks": 384,
            "midi": 32,
            "name": "G#1",
            "ticks": 96576,
            "time": 111.6124305,
            "velocity": 1
          },
          {
            "duration": 0.22189349999999308,
            "durationTicks": 192,
            "midi": 32,
            "name": "G#1",
            "ticks": 96960,
            "time": 112.0562175,
            "velocity": 1
          },
          {
            "duration": 0.4437870000000004,
            "durationTicks": 384,
            "midi": 35,
            "name": "B1",
            "ticks": 97152,
            "time": 112.278111,
            "velocity": 1
          },
          {
            "duration": 0.6656805000000077,
            "durationTicks": 576,
            "midi": 37,
            "name": "C#2",
            "ticks": 97536,
            "time": 112.721898,
            "velocity": 1
          },
          {
            "duration": 0.44378699999998616,
            "durationTicks": 384,
            "midi": 32,
            "name": "G#1",
            "ticks": 98112,
            "time": 113.3875785,
            "velocity": 1
          },
          {
            "duration": 0.2218935000000073,
            "durationTicks": 192,
            "midi": 32,
            "name": "G#1",
            "ticks": 98496,
            "time": 113.83136549999999,
            "velocity": 1
          },
          {
            "duration": 0.4437870000000004,
            "durationTicks": 384,
            "midi": 35,
            "name": "B1",
            "ticks": 98688,
            "time": 114.053259,
            "velocity": 1
          },
          {
            "duration": 0.6656804999999935,
            "durationTicks": 576,
            "midi": 37,
            "name": "C#2",
            "ticks": 99072,
            "time": 114.497046,
            "velocity": 1
          },
          {
            "duration": 0.4437870000000004,
            "durationTicks": 384,
            "midi": 32,
            "name": "G#1",
            "ticks": 99648,
            "time": 115.16272649999999,
            "velocity": 1
          },
          {
            "duration": 0.2218935000000073,
            "durationTicks": 192,
            "midi": 32,
            "name": "G#1",
            "ticks": 100032,
            "time": 115.60651349999999,
            "velocity": 1
          },
          {
            "duration": 0.4437870000000004,
            "durationTicks": 384,
            "midi": 35,
            "name": "B1",
            "ticks": 100224,
            "time": 115.828407,
            "velocity": 1
          },
          {
            "duration": 0.6656804999999935,
            "durationTicks": 576,
            "midi": 37,
            "name": "C#2",
            "ticks": 100608,
            "time": 116.272194,
            "velocity": 1
          },
          {
            "duration": 0.2218935000000073,
            "durationTicks": 192,
            "midi": 32,
            "name": "G#1",
            "ticks": 101184,
            "time": 116.93787449999999,
            "velocity": 1
          },
          {
            "duration": 0.11094674999999654,
            "durationTicks": 96,
            "midi": 32,
            "name": "G#1",
            "ticks": 101376,
            "time": 117.159768,
            "velocity": 1
          },
          {
            "duration": 0.11094675000001075,
            "durationTicks": 96,
            "midi": 32,
            "name": "G#1",
            "ticks": 101568,
            "time": 117.38166149999999,
            "velocity": 1
          },
          {
            "duration": 0.11094674999999654,
            "durationTicks": 96,
            "midi": 32,
            "name": "G#1",
            "ticks": 101760,
            "time": 117.603555,
            "velocity": 1
          },
          {
            "duration": 0.11094674999999654,
            "durationTicks": 96,
            "midi": 32,
            "name": "G#1",
            "ticks": 101952,
            "time": 117.8254485,
            "velocity": 1
          },
          {
            "duration": 0.11094674999999654,
            "durationTicks": 96,
            "midi": 32,
            "name": "G#1",
            "ticks": 102144,
            "time": 118.047342,
            "velocity": 1
          },
          {
            "duration": 0.11094674999999654,
            "durationTicks": 96,
            "midi": 32,
            "name": "G#1",
            "ticks": 102336,
            "time": 118.2692355,
            "velocity": 1
          },
          {
            "duration": 0.11094674999999654,
            "durationTicks": 96,
            "midi": 32,
            "name": "G#1",
            "ticks": 102528,
            "time": 118.491129,
            "velocity": 1
          },
          {
            "duration": 0.11094674999999654,
            "durationTicks": 96,
            "midi": 32,
            "name": "G#1",
            "ticks": 102720,
            "time": 118.7130225,
            "velocity": 1
          },
          {
            "duration": 0.11094674999999654,
            "durationTicks": 96,
            "midi": 32,
            "name": "G#1",
            "ticks": 102912,
            "time": 118.934916,
            "velocity": 1
          },
          {
            "duration": 0.11094674999999654,
            "durationTicks": 96,
            "midi": 32,
            "name": "G#1",
            "ticks": 103104,
            "time": 119.1568095,
            "velocity": 1
          },
          {
            "duration": 0.11094674999999654,
            "durationTicks": 96,
            "midi": 32,
            "name": "G#1",
            "ticks": 103296,
            "time": 119.378703,
            "velocity": 1
          },
          {
            "duration": 0.11094674999999654,
            "durationTicks": 96,
            "midi": 32,
            "name": "G#1",
            "ticks": 103488,
            "time": 119.6005965,
            "velocity": 1
          },
          {
            "duration": 0.11094674999999654,
            "durationTicks": 96,
            "midi": 32,
            "name": "G#1",
            "ticks": 103680,
            "time": 119.82249,
            "velocity": 1
          },
          {
            "duration": 0.11094674999999654,
            "durationTicks": 96,
            "midi": 32,
            "name": "G#1",
            "ticks": 103872,
            "time": 120.0443835,
            "velocity": 1
          },
          {
            "duration": 0.11094674999999654,
            "durationTicks": 96,
            "midi": 32,
            "name": "G#1",
            "ticks": 104064,
            "time": 120.266277,
            "velocity": 1
          },
          {
            "duration": 0.4437870000000004,
            "durationTicks": 384,
            "midi": 32,
            "name": "G#1",
            "ticks": 104256,
            "time": 120.4881705,
            "velocity": 1
          },
          {
            "duration": 0.2218935000000073,
            "durationTicks": 192,
            "midi": 32,
            "name": "G#1",
            "ticks": 104640,
            "time": 120.9319575,
            "velocity": 1
          },
          {
            "duration": 0.4437870000000004,
            "durationTicks": 384,
            "midi": 35,
            "name": "B1",
            "ticks": 104832,
            "time": 121.153851,
            "velocity": 1
          },
          {
            "duration": 0.6656804999999935,
            "durationTicks": 576,
            "midi": 37,
            "name": "C#2",
            "ticks": 105216,
            "time": 121.597638,
            "velocity": 1
          },
          {
            "duration": 0.4437870000000004,
            "durationTicks": 384,
            "midi": 32,
            "name": "G#1",
            "ticks": 105792,
            "time": 122.2633185,
            "velocity": 1
          },
          {
            "duration": 0.22189349999999308,
            "durationTicks": 192,
            "midi": 32,
            "name": "G#1",
            "ticks": 106176,
            "time": 122.7071055,
            "velocity": 1
          },
          {
            "duration": 0.4437870000000004,
            "durationTicks": 384,
            "midi": 35,
            "name": "B1",
            "ticks": 106368,
            "time": 122.92899899999999,
            "velocity": 1
          },
          {
            "duration": 0.8875740000000008,
            "durationTicks": 768,
            "midi": 37,
            "name": "C#2",
            "ticks": 106752,
            "time": 123.37278599999999,
            "velocity": 1
          },
          {
            "duration": 0.11094675000001075,
            "durationTicks": 96,
            "midi": 32,
            "name": "G#1",
            "ticks": 107520,
            "time": 124.26035999999999,
            "velocity": 1
          },
          {
            "duration": 0.11094674999999654,
            "durationTicks": 96,
            "midi": 32,
            "name": "G#1",
            "ticks": 107712,
            "time": 124.4822535,
            "velocity": 1
          },
          {
            "duration": 0.11094675000001075,
            "durationTicks": 96,
            "midi": 32,
            "name": "G#1",
            "ticks": 107904,
            "time": 124.70414699999999,
            "velocity": 1
          },
          {
            "duration": 0.11094674999999654,
            "durationTicks": 96,
            "midi": 32,
            "name": "G#1",
            "ticks": 108096,
            "time": 124.9260405,
            "velocity": 1
          },
          {
            "duration": 0.11094675000001075,
            "durationTicks": 96,
            "midi": 32,
            "name": "G#1",
            "ticks": 108288,
            "time": 125.14793399999999,
            "velocity": 1
          },
          {
            "duration": 0.11094674999999654,
            "durationTicks": 96,
            "midi": 32,
            "name": "G#1",
            "ticks": 108480,
            "time": 125.3698275,
            "velocity": 1
          },
          {
            "duration": 0.11094675000001075,
            "durationTicks": 96,
            "midi": 32,
            "name": "G#1",
            "ticks": 108672,
            "time": 125.59172099999999,
            "velocity": 1
          },
          {
            "duration": 0.11094674999999654,
            "durationTicks": 96,
            "midi": 32,
            "name": "G#1",
            "ticks": 108864,
            "time": 125.8136145,
            "velocity": 1
          },
          {
            "duration": 0.11094674999999654,
            "durationTicks": 96,
            "midi": 32,
            "name": "G#1",
            "ticks": 109056,
            "time": 126.035508,
            "velocity": 1
          },
          {
            "duration": 0.11094674999999654,
            "durationTicks": 96,
            "midi": 32,
            "name": "G#1",
            "ticks": 109248,
            "time": 126.2574015,
            "velocity": 1
          },
          {
            "duration": 0.11094674999999654,
            "durationTicks": 96,
            "midi": 32,
            "name": "G#1",
            "ticks": 109440,
            "time": 126.479295,
            "velocity": 1
          },
          {
            "duration": 0.11094674999999654,
            "durationTicks": 96,
            "midi": 32,
            "name": "G#1",
            "ticks": 109632,
            "time": 126.7011885,
            "velocity": 1
          },
          {
            "duration": 0.11094674999999654,
            "durationTicks": 96,
            "midi": 32,
            "name": "G#1",
            "ticks": 109824,
            "time": 126.923082,
            "velocity": 1
          },
          {
            "duration": 0.11094674999999654,
            "durationTicks": 96,
            "midi": 32,
            "name": "G#1",
            "ticks": 110016,
            "time": 127.1449755,
            "velocity": 1
          },
          {
            "duration": 0.11094674999999654,
            "durationTicks": 96,
            "midi": 32,
            "name": "G#1",
            "ticks": 110208,
            "time": 127.366869,
            "velocity": 1
          },
          {
            "duration": 0.44378699999998616,
            "durationTicks": 384,
            "midi": 32,
            "name": "G#1",
            "ticks": 110400,
            "time": 127.5887625,
            "velocity": 1
          },
          {
            "duration": 0.2218935000000215,
            "durationTicks": 192,
            "midi": 32,
            "name": "G#1",
            "ticks": 110784,
            "time": 128.0325495,
            "velocity": 1
          },
          {
            "duration": 0.44378699999998616,
            "durationTicks": 384,
            "midi": 35,
            "name": "B1",
            "ticks": 110976,
            "time": 128.254443,
            "velocity": 1
          },
          {
            "duration": 0.6656805000000077,
            "durationTicks": 576,
            "midi": 37,
            "name": "C#2",
            "ticks": 111360,
            "time": 128.69823,
            "velocity": 1
          },
          {
            "duration": 0.44378699999998616,
            "durationTicks": 384,
            "midi": 32,
            "name": "G#1",
            "ticks": 111936,
            "time": 129.3639105,
            "velocity": 1
          },
          {
            "duration": 0.22189349999999308,
            "durationTicks": 192,
            "midi": 32,
            "name": "G#1",
            "ticks": 112320,
            "time": 129.8076975,
            "velocity": 1
          },
          {
            "duration": 0.4437870000000146,
            "durationTicks": 384,
            "midi": 35,
            "name": "B1",
            "ticks": 112512,
            "time": 130.02959099999998,
            "velocity": 1
          },
          {
            "duration": 0.8875740000000008,
            "durationTicks": 768,
            "midi": 37,
            "name": "C#2",
            "ticks": 112896,
            "time": 130.473378,
            "velocity": 1
          },
          {
            "duration": 0.11094675000001075,
            "durationTicks": 96,
            "midi": 32,
            "name": "G#1",
            "ticks": 113664,
            "time": 131.360952,
            "velocity": 1
          },
          {
            "duration": 0.11094675000001075,
            "durationTicks": 96,
            "midi": 32,
            "name": "G#1",
            "ticks": 113856,
            "time": 131.5828455,
            "velocity": 1
          },
          {
            "duration": 0.11094675000001075,
            "durationTicks": 96,
            "midi": 32,
            "name": "G#1",
            "ticks": 114048,
            "time": 131.80473899999998,
            "velocity": 1
          },
          {
            "duration": 0.11094674999998233,
            "durationTicks": 96,
            "midi": 32,
            "name": "G#1",
            "ticks": 114240,
            "time": 132.0266325,
            "velocity": 1
          },
          {
            "duration": 0.11094675000001075,
            "durationTicks": 96,
            "midi": 32,
            "name": "G#1",
            "ticks": 114432,
            "time": 132.248526,
            "velocity": 1
          },
          {
            "duration": 0.11094675000001075,
            "durationTicks": 96,
            "midi": 32,
            "name": "G#1",
            "ticks": 114624,
            "time": 132.4704195,
            "velocity": 1
          },
          {
            "duration": 0.11094675000001075,
            "durationTicks": 96,
            "midi": 32,
            "name": "G#1",
            "ticks": 114816,
            "time": 132.69231299999998,
            "velocity": 1
          },
          {
            "duration": 0.11094674999998233,
            "durationTicks": 96,
            "midi": 32,
            "name": "G#1",
            "ticks": 115008,
            "time": 132.9142065,
            "velocity": 1
          },
          {
            "duration": 0.11094675000001075,
            "durationTicks": 96,
            "midi": 32,
            "name": "G#1",
            "ticks": 115200,
            "time": 133.1361,
            "velocity": 1
          },
          {
            "duration": 0.11094675000001075,
            "durationTicks": 96,
            "midi": 32,
            "name": "G#1",
            "ticks": 115392,
            "time": 133.3579935,
            "velocity": 1
          },
          {
            "duration": 0.11094675000001075,
            "durationTicks": 96,
            "midi": 32,
            "name": "G#1",
            "ticks": 115584,
            "time": 133.57988699999999,
            "velocity": 1
          },
          {
            "duration": 0.11094674999998233,
            "durationTicks": 96,
            "midi": 32,
            "name": "G#1",
            "ticks": 115776,
            "time": 133.8017805,
            "velocity": 1
          },
          {
            "duration": 0.11094674999998233,
            "durationTicks": 96,
            "midi": 32,
            "name": "G#1",
            "ticks": 115968,
            "time": 134.023674,
            "velocity": 1
          },
          {
            "duration": 0.11094675000001075,
            "durationTicks": 96,
            "midi": 32,
            "name": "G#1",
            "ticks": 116160,
            "time": 134.2455675,
            "velocity": 1
          },
          {
            "duration": 0.11094675000001075,
            "durationTicks": 96,
            "midi": 32,
            "name": "G#1",
            "ticks": 116352,
            "time": 134.467461,
            "velocity": 1
          },
          {
            "duration": 0.44378699999998616,
            "durationTicks": 384,
            "midi": 32,
            "name": "G#1",
            "ticks": 116544,
            "time": 134.6893545,
            "velocity": 1
          },
          {
            "duration": 0.22189349999999308,
            "durationTicks": 192,
            "midi": 32,
            "name": "G#1",
            "ticks": 116928,
            "time": 135.1331415,
            "velocity": 1
          },
          {
            "duration": 0.4437870000000146,
            "durationTicks": 384,
            "midi": 35,
            "name": "B1",
            "ticks": 117120,
            "time": 135.355035,
            "velocity": 1
          },
          {
            "duration": 0.6656805000000077,
            "durationTicks": 576,
            "midi": 37,
            "name": "C#2",
            "ticks": 117504,
            "time": 135.798822,
            "velocity": 1
          },
          {
            "duration": 0.44378699999998616,
            "durationTicks": 384,
            "midi": 32,
            "name": "G#1",
            "ticks": 118080,
            "time": 136.4645025,
            "velocity": 1
          },
          {
            "duration": 0.22189349999999308,
            "durationTicks": 192,
            "midi": 32,
            "name": "G#1",
            "ticks": 118464,
            "time": 136.9082895,
            "velocity": 1
          },
          {
            "duration": 0.4437870000000146,
            "durationTicks": 384,
            "midi": 35,
            "name": "B1",
            "ticks": 118656,
            "time": 137.130183,
            "velocity": 1
          },
          {
            "duration": 0.8875740000000008,
            "durationTicks": 768,
            "midi": 37,
            "name": "C#2",
            "ticks": 119040,
            "time": 137.57397,
            "velocity": 1
          },
          {
            "duration": 0.11094674999998233,
            "durationTicks": 96,
            "midi": 32,
            "name": "G#1",
            "ticks": 119808,
            "time": 138.461544,
            "velocity": 1
          },
          {
            "duration": 0.11094675000001075,
            "durationTicks": 96,
            "midi": 32,
            "name": "G#1",
            "ticks": 120000,
            "time": 138.6834375,
            "velocity": 1
          },
          {
            "duration": 0.11094675000001075,
            "durationTicks": 96,
            "midi": 32,
            "name": "G#1",
            "ticks": 120192,
            "time": 138.905331,
            "velocity": 1
          },
          {
            "duration": 0.11094675000001075,
            "durationTicks": 96,
            "midi": 32,
            "name": "G#1",
            "ticks": 120384,
            "time": 139.12722449999998,
            "velocity": 1
          },
          {
            "duration": 0.11094674999998233,
            "durationTicks": 96,
            "midi": 32,
            "name": "G#1",
            "ticks": 120576,
            "time": 139.349118,
            "velocity": 1
          },
          {
            "duration": 0.11094675000001075,
            "durationTicks": 96,
            "midi": 32,
            "name": "G#1",
            "ticks": 120768,
            "time": 139.5710115,
            "velocity": 1
          },
          {
            "duration": 0.11094675000001075,
            "durationTicks": 96,
            "midi": 32,
            "name": "G#1",
            "ticks": 120960,
            "time": 139.792905,
            "velocity": 1
          },
          {
            "duration": 0.11094675000001075,
            "durationTicks": 96,
            "midi": 32,
            "name": "G#1",
            "ticks": 121152,
            "time": 140.01479849999998,
            "velocity": 1
          },
          {
            "duration": 0.11094674999998233,
            "durationTicks": 96,
            "midi": 32,
            "name": "G#1",
            "ticks": 121344,
            "time": 140.236692,
            "velocity": 1
          },
          {
            "duration": 0.11094675000001075,
            "durationTicks": 96,
            "midi": 32,
            "name": "G#1",
            "ticks": 121536,
            "time": 140.4585855,
            "velocity": 1
          },
          {
            "duration": 0.11094675000001075,
            "durationTicks": 96,
            "midi": 32,
            "name": "G#1",
            "ticks": 121728,
            "time": 140.680479,
            "velocity": 1
          },
          {
            "duration": 0.11094675000001075,
            "durationTicks": 96,
            "midi": 32,
            "name": "G#1",
            "ticks": 121920,
            "time": 140.90237249999998,
            "velocity": 1
          },
          {
            "duration": 0.11094674999998233,
            "durationTicks": 96,
            "midi": 32,
            "name": "G#1",
            "ticks": 122112,
            "time": 141.124266,
            "velocity": 1
          },
          {
            "duration": 0.11094675000001075,
            "durationTicks": 96,
            "midi": 32,
            "name": "G#1",
            "ticks": 122304,
            "time": 141.3461595,
            "velocity": 1
          },
          {
            "duration": 0.11094675000001075,
            "durationTicks": 96,
            "midi": 32,
            "name": "G#1",
            "ticks": 122496,
            "time": 141.568053,
            "velocity": 1
          },
          {
            "duration": 0.4437870000000146,
            "durationTicks": 384,
            "midi": 32,
            "name": "G#1",
            "ticks": 122688,
            "time": 141.78994649999999,
            "velocity": 1
          },
          {
            "duration": 0.22189349999999308,
            "durationTicks": 192,
            "midi": 32,
            "name": "G#1",
            "ticks": 123072,
            "time": 142.2337335,
            "velocity": 1
          },
          {
            "duration": 0.4437870000000146,
            "durationTicks": 384,
            "midi": 35,
            "name": "B1",
            "ticks": 123264,
            "time": 142.455627,
            "velocity": 1
          },
          {
            "duration": 0.6656804999999792,
            "durationTicks": 576,
            "midi": 37,
            "name": "C#2",
            "ticks": 123648,
            "time": 142.899414,
            "velocity": 1
          },
          {
            "duration": 0.2218935000000215,
            "durationTicks": 192,
            "midi": 32,
            "name": "G#1",
            "ticks": 124224,
            "time": 143.5650945,
            "velocity": 1
          },
          {
            "duration": 0.22189349999999308,
            "durationTicks": 192,
            "midi": 37,
            "name": "C#2",
            "ticks": 126336,
            "time": 146.005923,
            "velocity": 1
          },
          {
            "duration": 0.2218935000000215,
            "durationTicks": 192,
            "midi": 37,
            "name": "C#2",
            "ticks": 126720,
            "time": 146.44970999999998,
            "velocity": 1
          },
          {
            "duration": 0.2218935000000215,
            "durationTicks": 192,
            "midi": 37,
            "name": "C#2",
            "ticks": 128256,
            "time": 148.22485799999998,
            "velocity": 1
          },
          {
            "duration": 0.4437870000000146,
            "durationTicks": 384,
            "midi": 32,
            "name": "G#1",
            "ticks": 128832,
            "time": 148.8905385,
            "velocity": 1
          },
          {
            "duration": 0.22189349999999308,
            "durationTicks": 192,
            "midi": 32,
            "name": "G#1",
            "ticks": 129216,
            "time": 149.3343255,
            "velocity": 1
          },
          {
            "duration": 0.44378699999998616,
            "durationTicks": 384,
            "midi": 35,
            "name": "B1",
            "ticks": 129408,
            "time": 149.556219,
            "velocity": 1
          },
          {
            "duration": 0.6656805000000077,
            "durationTicks": 576,
            "midi": 37,
            "name": "C#2",
            "ticks": 129792,
            "time": 150.00000599999998,
            "velocity": 1
          },
          {
            "duration": 0.4437870000000146,
            "durationTicks": 384,
            "midi": 32,
            "name": "G#1",
            "ticks": 130368,
            "time": 150.6656865,
            "velocity": 1
          },
          {
            "duration": 0.22189349999999308,
            "durationTicks": 192,
            "midi": 32,
            "name": "G#1",
            "ticks": 130752,
            "time": 151.1094735,
            "velocity": 1
          },
          {
            "duration": 0.44378699999998616,
            "durationTicks": 384,
            "midi": 35,
            "name": "B1",
            "ticks": 130944,
            "time": 151.331367,
            "velocity": 1
          },
          {
            "duration": 0.6656805000000077,
            "durationTicks": 576,
            "midi": 37,
            "name": "C#2",
            "ticks": 131328,
            "time": 151.775154,
            "velocity": 1
          },
          {
            "duration": 0.4437870000000146,
            "durationTicks": 384,
            "midi": 32,
            "name": "G#1",
            "ticks": 131904,
            "time": 152.4408345,
            "velocity": 1
          },
          {
            "duration": 0.22189349999999308,
            "durationTicks": 192,
            "midi": 32,
            "name": "G#1",
            "ticks": 132288,
            "time": 152.8846215,
            "velocity": 1
          },
          {
            "duration": 0.44378699999998616,
            "durationTicks": 384,
            "midi": 35,
            "name": "B1",
            "ticks": 132480,
            "time": 153.106515,
            "velocity": 1
          },
          {
            "duration": 0.6656805000000077,
            "durationTicks": 576,
            "midi": 37,
            "name": "C#2",
            "ticks": 132864,
            "time": 153.550302,
            "velocity": 1
          },
          {
            "duration": 0.44378699999998616,
            "durationTicks": 384,
            "midi": 32,
            "name": "G#1",
            "ticks": 133440,
            "time": 154.2159825,
            "velocity": 1
          },
          {
            "duration": 0.2218935000000215,
            "durationTicks": 192,
            "midi": 32,
            "name": "G#1",
            "ticks": 133824,
            "time": 154.65976949999998,
            "velocity": 1
          },
          {
            "duration": 0.44378699999998616,
            "durationTicks": 384,
            "midi": 35,
            "name": "B1",
            "ticks": 134016,
            "time": 154.881663,
            "velocity": 1
          },
          {
            "duration": 0.22189349999999308,
            "durationTicks": 192,
            "midi": 37,
            "name": "C#2",
            "ticks": 134400,
            "time": 155.32545,
            "velocity": 1
          },
          {
            "duration": 0.22189349999999308,
            "durationTicks": 192,
            "midi": 37,
            "name": "C#2",
            "ticks": 135552,
            "time": 156.656811,
            "velocity": 1
          },
          {
            "duration": 0.22189349999999308,
            "durationTicks": 192,
            "midi": 37,
            "name": "C#2",
            "ticks": 135936,
            "time": 157.100598,
            "velocity": 1
          },
          {
            "duration": 0.22189349999999308,
            "durationTicks": 192,
            "midi": 37,
            "name": "C#2",
            "ticks": 137472,
            "time": 158.875746,
            "velocity": 1
          },
          {
            "duration": 0.44378699999998616,
            "durationTicks": 384,
            "midi": 32,
            "name": "G#1",
            "ticks": 138048,
            "time": 159.5414265,
            "velocity": 1
          },
          {
            "duration": 0.2218935000000215,
            "durationTicks": 192,
            "midi": 32,
            "name": "G#1",
            "ticks": 138432,
            "time": 159.9852135,
            "velocity": 1
          },
          {
            "duration": 0.44378699999998616,
            "durationTicks": 384,
            "midi": 35,
            "name": "B1",
            "ticks": 138624,
            "time": 160.207107,
            "velocity": 1
          },
          {
            "duration": 0.6656805000000077,
            "durationTicks": 576,
            "midi": 37,
            "name": "C#2",
            "ticks": 139008,
            "time": 160.650894,
            "velocity": 1
          },
          {
            "duration": 0.44378699999998616,
            "durationTicks": 384,
            "midi": 32,
            "name": "G#1",
            "ticks": 139584,
            "time": 161.3165745,
            "velocity": 1
          },
          {
            "duration": 0.2218935000000215,
            "durationTicks": 192,
            "midi": 32,
            "name": "G#1",
            "ticks": 139968,
            "time": 161.7603615,
            "velocity": 1
          },
          {
            "duration": 0.44378699999998616,
            "durationTicks": 384,
            "midi": 35,
            "name": "B1",
            "ticks": 140160,
            "time": 161.982255,
            "velocity": 1
          },
          {
            "duration": 0.6656805000000077,
            "durationTicks": 576,
            "midi": 37,
            "name": "C#2",
            "ticks": 140544,
            "time": 162.426042,
            "velocity": 1
          },
          {
            "duration": 0.44378699999998616,
            "durationTicks": 384,
            "midi": 32,
            "name": "G#1",
            "ticks": 141120,
            "time": 163.0917225,
            "velocity": 1
          },
          {
            "duration": 0.22189349999999308,
            "durationTicks": 192,
            "midi": 32,
            "name": "G#1",
            "ticks": 141504,
            "time": 163.5355095,
            "velocity": 1
          },
          {
            "duration": 0.4437870000000146,
            "durationTicks": 384,
            "midi": 35,
            "name": "B1",
            "ticks": 141696,
            "time": 163.75740299999998,
            "velocity": 1
          },
          {
            "duration": 0.6656805000000077,
            "durationTicks": 576,
            "midi": 37,
            "name": "C#2",
            "ticks": 142080,
            "time": 164.20119,
            "velocity": 1
          },
          {
            "duration": 0.44378699999998616,
            "durationTicks": 384,
            "midi": 32,
            "name": "G#1",
            "ticks": 142656,
            "time": 164.8668705,
            "velocity": 1
          },
          {
            "duration": 0.22189349999999308,
            "durationTicks": 192,
            "midi": 32,
            "name": "G#1",
            "ticks": 143040,
            "time": 165.3106575,
            "velocity": 1
          },
          {
            "duration": 0.4437870000000146,
            "durationTicks": 384,
            "midi": 35,
            "name": "B1",
            "ticks": 143232,
            "time": 165.53255099999998,
            "velocity": 1
          },
          {
            "duration": 0.6656805000000077,
            "durationTicks": 576,
            "midi": 37,
            "name": "C#2",
            "ticks": 143616,
            "time": 165.976338,
            "velocity": 1
          },
          {
            "duration": 0.22189349999999308,
            "durationTicks": 192,
            "midi": 32,
            "name": "G#1",
            "ticks": 144192,
            "time": 166.6420185,
            "velocity": 1
          },
          {
            "duration": 0.22189349999999308,
            "durationTicks": 192,
            "midi": 27,
            "name": "D#1",
            "ticks": 144384,
            "time": 166.863912,
            "velocity": 1
          },
          {
            "duration": 0.22189349999999308,
            "durationTicks": 192,
            "midi": 27,
            "name": "D#1",
            "ticks": 144576,
            "time": 167.0858055,
            "velocity": 1
          },
          {
            "duration": 0.2218935000000215,
            "durationTicks": 192,
            "midi": 27,
            "name": "D#1",
            "ticks": 144768,
            "time": 167.30769899999999,
            "velocity": 1
          },
          {
            "duration": 0.22189349999999308,
            "durationTicks": 192,
            "midi": 27,
            "name": "D#1",
            "ticks": 144960,
            "time": 167.5295925,
            "velocity": 1
          },
          {
            "duration": 0.22189349999999308,
            "durationTicks": 192,
            "midi": 27,
            "name": "D#1",
            "ticks": 145152,
            "time": 167.751486,
            "velocity": 1
          },
          {
            "duration": 0.22189349999999308,
            "durationTicks": 192,
            "midi": 27,
            "name": "D#1",
            "ticks": 145344,
            "time": 167.9733795,
            "velocity": 1
          },
          {
            "duration": 0.2218935000000215,
            "durationTicks": 192,
            "midi": 27,
            "name": "D#1",
            "ticks": 145536,
            "time": 168.195273,
            "velocity": 1
          },
          {
            "duration": 0.44378699999998616,
            "durationTicks": 384,
            "midi": 30,
            "name": "F#1",
            "ticks": 145728,
            "time": 168.4171665,
            "velocity": 1
          },
          {
            "duration": 0.22189349999999308,
            "durationTicks": 192,
            "midi": 27,
            "name": "D#1",
            "ticks": 146112,
            "time": 168.8609535,
            "velocity": 1
          },
          {
            "duration": 0.2218935000000215,
            "durationTicks": 192,
            "midi": 27,
            "name": "D#1",
            "ticks": 146304,
            "time": 169.082847,
            "velocity": 1
          },
          {
            "duration": 0.22189349999999308,
            "durationTicks": 192,
            "midi": 27,
            "name": "D#1",
            "ticks": 146496,
            "time": 169.3047405,
            "velocity": 1
          },
          {
            "duration": 0.22189349999999308,
            "durationTicks": 192,
            "midi": 27,
            "name": "D#1",
            "ticks": 146688,
            "time": 169.526634,
            "velocity": 1
          },
          {
            "duration": 0.22189349999999308,
            "durationTicks": 192,
            "midi": 27,
            "name": "D#1",
            "ticks": 146880,
            "time": 169.7485275,
            "velocity": 1
          },
          {
            "duration": 0.2218935000000215,
            "durationTicks": 192,
            "midi": 27,
            "name": "D#1",
            "ticks": 147072,
            "time": 169.970421,
            "velocity": 1
          },
          {
            "duration": 0.44378699999998616,
            "durationTicks": 384,
            "midi": 30,
            "name": "F#1",
            "ticks": 147264,
            "time": 170.1923145,
            "velocity": 1
          },
          {
            "duration": 0.22189349999999308,
            "durationTicks": 192,
            "midi": 27,
            "name": "D#1",
            "ticks": 147648,
            "time": 170.6361015,
            "velocity": 1
          },
          {
            "duration": 0.22189349999999308,
            "durationTicks": 192,
            "midi": 27,
            "name": "D#1",
            "ticks": 147840,
            "time": 170.857995,
            "velocity": 1
          },
          {
            "duration": 0.2218935000000215,
            "durationTicks": 192,
            "midi": 27,
            "name": "D#1",
            "ticks": 148032,
            "time": 171.07988849999998,
            "velocity": 1
          },
          {
            "duration": 0.22189349999999308,
            "durationTicks": 192,
            "midi": 27,
            "name": "D#1",
            "ticks": 148224,
            "time": 171.301782,
            "velocity": 1
          },
          {
            "duration": 0.22189349999999308,
            "durationTicks": 192,
            "midi": 27,
            "name": "D#1",
            "ticks": 148416,
            "time": 171.5236755,
            "velocity": 1
          },
          {
            "duration": 0.22189349999999308,
            "durationTicks": 192,
            "midi": 27,
            "name": "D#1",
            "ticks": 148608,
            "time": 171.745569,
            "velocity": 1
          },
          {
            "duration": 0.4437870000000146,
            "durationTicks": 384,
            "midi": 30,
            "name": "F#1",
            "ticks": 148800,
            "time": 171.96746249999998,
            "velocity": 1
          },
          {
            "duration": 0.22189349999999308,
            "durationTicks": 192,
            "midi": 27,
            "name": "D#1",
            "ticks": 149184,
            "time": 172.4112495,
            "velocity": 1
          },
          {
            "duration": 0.22189349999999308,
            "durationTicks": 192,
            "midi": 27,
            "name": "D#1",
            "ticks": 149376,
            "time": 172.633143,
            "velocity": 1
          },
          {
            "duration": 0.2218935000000215,
            "durationTicks": 192,
            "midi": 27,
            "name": "D#1",
            "ticks": 149568,
            "time": 172.85503649999998,
            "velocity": 1
          },
          {
            "duration": 0.22189349999999308,
            "durationTicks": 192,
            "midi": 27,
            "name": "D#1",
            "ticks": 149760,
            "time": 173.07693,
            "velocity": 1
          },
          {
            "duration": 0.22189349999999308,
            "durationTicks": 192,
            "midi": 27,
            "name": "D#1",
            "ticks": 149952,
            "time": 173.2988235,
            "velocity": 1
          },
          {
            "duration": 0.22189349999999308,
            "durationTicks": 192,
            "midi": 27,
            "name": "D#1",
            "ticks": 150144,
            "time": 173.520717,
            "velocity": 1
          },
          {
            "duration": 0.4437870000000146,
            "durationTicks": 384,
            "midi": 32,
            "name": "G#1",
            "ticks": 150336,
            "time": 173.74261049999998,
            "velocity": 1
          },
          {
            "duration": 0.22189349999999308,
            "durationTicks": 192,
            "midi": 32,
            "name": "G#1",
            "ticks": 150720,
            "time": 174.1863975,
            "velocity": 1
          },
          {
            "duration": 0.4437870000000146,
            "durationTicks": 384,
            "midi": 35,
            "name": "B1",
            "ticks": 150912,
            "time": 174.408291,
            "velocity": 1
          },
          {
            "duration": 0.6656804999999792,
            "durationTicks": 576,
            "midi": 37,
            "name": "C#2",
            "ticks": 151296,
            "time": 174.852078,
            "velocity": 1
          },
          {
            "duration": 0.4437870000000146,
            "durationTicks": 384,
            "midi": 32,
            "name": "G#1",
            "ticks": 151872,
            "time": 175.51775849999999,
            "velocity": 1
          },
          {
            "duration": 0.22189349999999308,
            "durationTicks": 192,
            "midi": 32,
            "name": "G#1",
            "ticks": 152256,
            "time": 175.9615455,
            "velocity": 1
          },
          {
            "duration": 0.4437870000000146,
            "durationTicks": 384,
            "midi": 35,
            "name": "B1",
            "ticks": 152448,
            "time": 176.183439,
            "velocity": 1
          },
          {
            "duration": 0.6656804999999792,
            "durationTicks": 576,
            "midi": 37,
            "name": "C#2",
            "ticks": 152832,
            "time": 176.627226,
            "velocity": 1
          },
          {
            "duration": 0.4437870000000146,
            "durationTicks": 384,
            "midi": 32,
            "name": "G#1",
            "ticks": 153408,
            "time": 177.2929065,
            "velocity": 1
          },
          {
            "duration": 0.22189349999999308,
            "durationTicks": 192,
            "midi": 32,
            "name": "G#1",
            "ticks": 153792,
            "time": 177.7366935,
            "velocity": 1
          },
          {
            "duration": 0.4437870000000146,
            "durationTicks": 384,
            "midi": 35,
            "name": "B1",
            "ticks": 153984,
            "time": 177.958587,
            "velocity": 1
          },
          {
            "duration": 0.6656804999999792,
            "durationTicks": 576,
            "midi": 37,
            "name": "C#2",
            "ticks": 154368,
            "time": 178.402374,
            "velocity": 1
          },
          {
            "duration": 0.4437870000000146,
            "durationTicks": 384,
            "midi": 32,
            "name": "G#1",
            "ticks": 154944,
            "time": 179.0680545,
            "velocity": 1
          },
          {
            "duration": 0.22189349999999308,
            "durationTicks": 192,
            "midi": 32,
            "name": "G#1",
            "ticks": 155328,
            "time": 179.5118415,
            "velocity": 1
          },
          {
            "duration": 0.44378699999998616,
            "durationTicks": 384,
            "midi": 35,
            "name": "B1",
            "ticks": 155520,
            "time": 179.733735,
            "velocity": 1
          },
          {
            "duration": 0.6656805000000077,
            "durationTicks": 576,
            "midi": 37,
            "name": "C#2",
            "ticks": 155904,
            "time": 180.17752199999998,
            "velocity": 1
          },
          {
            "duration": 0.4437870000000146,
            "durationTicks": 384,
            "midi": 32,
            "name": "G#1",
            "ticks": 156480,
            "time": 180.8432025,
            "velocity": 1
          },
          {
            "duration": 0.22189349999999308,
            "durationTicks": 192,
            "midi": 32,
            "name": "G#1",
            "ticks": 156864,
            "time": 181.2869895,
            "velocity": 1
          },
          {
            "duration": 0.44378699999998616,
            "durationTicks": 384,
            "midi": 35,
            "name": "B1",
            "ticks": 157056,
            "time": 181.508883,
            "velocity": 1
          },
          {
            "duration": 0.6656805000000077,
            "durationTicks": 576,
            "midi": 37,
            "name": "C#2",
            "ticks": 157440,
            "time": 181.95266999999998,
            "velocity": 1
          },
          {
            "duration": 0.4437870000000146,
            "durationTicks": 384,
            "midi": 32,
            "name": "G#1",
            "ticks": 158016,
            "time": 182.6183505,
            "velocity": 1
          },
          {
            "duration": 0.22189349999999308,
            "durationTicks": 192,
            "midi": 32,
            "name": "G#1",
            "ticks": 158400,
            "time": 183.0621375,
            "velocity": 1
          },
          {
            "duration": 0.44378699999998616,
            "durationTicks": 384,
            "midi": 35,
            "name": "B1",
            "ticks": 158592,
            "time": 183.284031,
            "velocity": 1
          },
          {
            "duration": 0.6656805000000077,
            "durationTicks": 576,
            "midi": 37,
            "name": "C#2",
            "ticks": 158976,
            "time": 183.72781799999998,
            "velocity": 1
          },
          {
            "duration": 0.4437870000000146,
            "durationTicks": 384,
            "midi": 32,
            "name": "G#1",
            "ticks": 159552,
            "time": 184.3934985,
            "velocity": 1
          },
          {
            "duration": 0.22189349999999308,
            "durationTicks": 192,
            "midi": 32,
            "name": "G#1",
            "ticks": 159936,
            "time": 184.8372855,
            "velocity": 1
          },
          {
            "duration": 0.44378699999998616,
            "durationTicks": 384,
            "midi": 35,
            "name": "B1",
            "ticks": 160128,
            "time": 185.059179,
            "velocity": 1
          },
          {
            "duration": 0.6656805000000077,
            "durationTicks": 576,
            "midi": 37,
            "name": "C#2",
            "ticks": 160512,
            "time": 185.502966,
            "velocity": 1
          },
          {
            "duration": 0.4437870000000146,
            "durationTicks": 384,
            "midi": 32,
            "name": "G#1",
            "ticks": 161088,
            "time": 186.1686465,
            "velocity": 1
          },
          {
            "duration": 0.22189349999999308,
            "durationTicks": 192,
            "midi": 32,
            "name": "G#1",
            "ticks": 161472,
            "time": 186.6124335,
            "velocity": 1
          },
          {
            "duration": 0.44378699999998616,
            "durationTicks": 384,
            "midi": 35,
            "name": "B1",
            "ticks": 161664,
            "time": 186.834327,
            "velocity": 1
          },
          {
            "duration": 0.6656805000000077,
            "durationTicks": 576,
            "midi": 37,
            "name": "C#2",
            "ticks": 162048,
            "time": 187.278114,
            "velocity": 1
          },
          {
            "duration": 0.22189349999999308,
            "durationTicks": 192,
            "midi": 32,
            "name": "G#1",
            "ticks": 162624,
            "time": 187.9437945,
            "velocity": 1
          },
          {
            "duration": 7.100592000000006,
            "durationTicks": 6144,
            "midi": 32,
            "name": "G#1",
            "ticks": 162816,
            "time": 188.165688,
            "velocity": 1
          }
        ]
      },
      {
        "channel": 0,
        "controlChanges": {
          "0": [
            {
              "number": 0,
              "ticks": 0,
              "time": 0,
              "value": 0
            }
          ],
          "32": [
            {
              "number": 32,
              "ticks": 0,
              "time": 0,
              "value": 0
            }
          ]
        },
        "pitchBends": [],
        "instrument": {
          "family": "piano",
          "name": "acoustic grand piano",
          "number": 0
        },
        "name": "",
        "notes": [],
        "endOfTrackTicks": 101376
      },
      {
        "channel": 3,
        "controlChanges": {
          "7": [
            {
              "number": 7,
              "ticks": 0,
              "time": 0,
              "value": 1
            }
          ],
          "10": [
            {
              "number": 10,
              "ticks": 0,
              "time": 0,
              "value": 0.49606299212598426
            }
          ]
        },
        "pitchBends": [],
        "instrument": {
          "family": "guitar",
          "name": "overdriven guitar",
          "number": 29
        },
        "name": "",
        "notes": [
          {
            "duration": 0.8875740000000008,
            "durationTicks": 768,
            "midi": 56,
            "name": "G#3",
            "ticks": 89088,
            "time": 102.958584,
            "velocity": 0.7874015748031497
          },
          {
            "duration": 0.6656804999999935,
            "durationTicks": 576,
            "midi": 56,
            "name": "G#3",
            "ticks": 89856,
            "time": 103.846158,
            "velocity": 0.7874015748031497
          },
          {
            "duration": 0.4437870000000004,
            "durationTicks": 384,
            "midi": 54,
            "name": "F#3",
            "ticks": 90432,
            "time": 104.5118385,
            "velocity": 0.7874015748031497
          },
          {
            "duration": 0.2218935000000073,
            "durationTicks": 192,
            "midi": 47,
            "name": "B2",
            "ticks": 90816,
            "time": 104.9556255,
            "velocity": 0.7874015748031497
          },
          {
            "duration": 0.22189349999999308,
            "durationTicks": 192,
            "midi": 49,
            "name": "C#3",
            "ticks": 91008,
            "time": 105.177519,
            "velocity": 0.7874015748031497
          },
          {
            "duration": 0.22189349999999308,
            "durationTicks": 192,
            "midi": 51,
            "name": "D#3",
            "ticks": 91200,
            "time": 105.3994125,
            "velocity": 0.7874015748031497
          },
          {
            "duration": 0.6656805000000077,
            "durationTicks": 576,
            "midi": 51,
            "name": "D#3",
            "ticks": 91392,
            "time": 105.62130599999999,
            "velocity": 0.7874015748031497
          },
          {
            "duration": 1.7751480000000015,
            "durationTicks": 1536,
            "midi": 56,
            "name": "G#3",
            "ticks": 91968,
            "time": 106.2869865,
            "velocity": 0.7874015748031497
          },
          {
            "duration": 1.9970414999999946,
            "durationTicks": 1728,
            "midi": 44,
            "name": "G#2",
            "ticks": 93504,
            "time": 108.0621345,
            "velocity": 0.7874015748031497
          },
          {
            "duration": 0.2218935000000073,
            "durationTicks": 192,
            "midi": 44,
            "name": "G#2",
            "ticks": 95232,
            "time": 110.059176,
            "velocity": 0.7874015748031497
          },
          {
            "duration": 0.22189349999999308,
            "durationTicks": 192,
            "midi": 47,
            "name": "B2",
            "ticks": 95424,
            "time": 110.2810695,
            "velocity": 0.7874015748031497
          },
          {
            "duration": 0.2218935000000073,
            "durationTicks": 192,
            "midi": 49,
            "name": "C#3",
            "ticks": 95616,
            "time": 110.502963,
            "velocity": 0.7874015748031497
          },
          {
            "duration": 0.22189349999999308,
            "durationTicks": 192,
            "midi": 47,
            "name": "B2",
            "ticks": 95808,
            "time": 110.7248565,
            "velocity": 0.7874015748031497
          },
          {
            "duration": 0.2218935000000073,
            "durationTicks": 192,
            "midi": 49,
            "name": "C#3",
            "ticks": 96000,
            "time": 110.94675,
            "velocity": 0.7874015748031497
          },
          {
            "duration": 0.22189349999999308,
            "durationTicks": 192,
            "midi": 51,
            "name": "D#3",
            "ticks": 96192,
            "time": 111.1686435,
            "velocity": 0.7874015748031497
          },
          {
            "duration": 0.2218935000000073,
            "durationTicks": 192,
            "midi": 56,
            "name": "G#3",
            "ticks": 96384,
            "time": 111.390537,
            "velocity": 0.7874015748031497
          },
          {
            "duration": 0.22189349999999308,
            "durationTicks": 192,
            "midi": 54,
            "name": "F#3",
            "ticks": 96576,
            "time": 111.6124305,
            "velocity": 0.7874015748031497
          },
          {
            "duration": 1.5532545000000084,
            "durationTicks": 1344,
            "midi": 56,
            "name": "G#3",
            "ticks": 96768,
            "time": 111.834324,
            "velocity": 0.7874015748031497
          },
          {
            "duration": 0.44378699999998616,
            "durationTicks": 384,
            "midi": 56,
            "name": "G#3",
            "ticks": 98112,
            "time": 113.3875785,
            "velocity": 0.7874015748031497
          },
          {
            "duration": 0.2218935000000073,
            "durationTicks": 192,
            "midi": 54,
            "name": "F#3",
            "ticks": 98496,
            "time": 113.83136549999999,
            "velocity": 0.7874015748031497
          },
          {
            "duration": 0.22189349999999308,
            "durationTicks": 192,
            "midi": 51,
            "name": "D#3",
            "ticks": 98688,
            "time": 114.053259,
            "velocity": 0.7874015748031497
          },
          {
            "duration": 0.2218935000000073,
            "durationTicks": 192,
            "midi": 49,
            "name": "C#3",
            "ticks": 98880,
            "time": 114.27515249999999,
            "velocity": 0.7874015748031497
          },
          {
            "duration": 0.22189349999999308,
            "durationTicks": 192,
            "midi": 51,
            "name": "D#3",
            "ticks": 99072,
            "time": 114.497046,
            "velocity": 0.7874015748031497
          },
          {
            "duration": 0.2218935000000073,
            "durationTicks": 192,
            "midi": 49,
            "name": "C#3",
            "ticks": 99264,
            "time": 114.71893949999999,
            "velocity": 0.7874015748031497
          },
          {
            "duration": 0.22189349999999308,
            "durationTicks": 192,
            "midi": 47,
            "name": "B2",
            "ticks": 99456,
            "time": 114.940833,
            "velocity": 0.7874015748031497
          },
          {
            "duration": 0.2218935000000073,
            "durationTicks": 192,
            "midi": 44,
            "name": "G#2",
            "ticks": 99648,
            "time": 115.16272649999999,
            "velocity": 0.7874015748031497
          },
          {
            "duration": 0.22189349999999308,
            "durationTicks": 192,
            "midi": 47,
            "name": "B2",
            "ticks": 99840,
            "time": 115.38462,
            "velocity": 0.7874015748031497
          },
          {
            "duration": 0.2218935000000073,
            "durationTicks": 192,
            "midi": 44,
            "name": "G#2",
            "ticks": 100032,
            "time": 115.60651349999999,
            "velocity": 0.7874015748031497
          },
          {
            "duration": 0.22189349999999308,
            "durationTicks": 192,
            "midi": 42,
            "name": "F#2",
            "ticks": 100224,
            "time": 115.828407,
            "velocity": 0.7874015748031497
          },
          {
            "duration": 1.109467500000008,
            "durationTicks": 960,
            "midi": 44,
            "name": "G#2",
            "ticks": 100416,
            "time": 116.05030049999999,
            "velocity": 0.7874015748031497
          }
        ]
      }
    ]
  }