{
  "header": {
    "keySignatures": [
      {
        "key": "C",
        "scale": "major",
        "ticks": 0
      }
    ],
    "meta": [],
    "name": "",
    "ppq": 120,
    "tempos": [
      {
        "bpm": 93.99998120000376,
        "ticks": 0
      }
    ],
    "timeSignatures": [
      {
        "ticks": 0,
        "timeSignature": [
          8,
          4
        ],
        "measures": 0
      }
    ]
  },
  "tracks": [
    {
      "channel": 9,
      "controlChanges": {
        "7": [
          {
            "number": 7,
            "ticks": 0,
            "time": 0,
            "value": 1
          }
        ],
        "91": [
          {
            "number": 91,
            "ticks": 0,
            "time": 0,
            "value": 0.47244094488188976
          }
        ]
      },
      "pitchBends": [],
      "instrument": {
        "family": "drums",
        "name": "tr-808 kit",
        "number": 25
      },
      "name": "Percussion",
      "notes": [
        {
          "duration": 1.0319151,
          "durationTicks": 194,
          "midi": 36,
          "name": "C2",
          "ticks": 0,
          "time": 0,
          "velocity": 1
        },
        {
          "duration": 1.0319151,
          "durationTicks": 194,
          "midi": 42,
          "name": "F#2",
          "ticks": 0,
          "time": 0,
          "velocity": 0.905511811023622
        },
        {
          "duration": 0.2340426,
          "durationTicks": 44,
          "midi": 54,
          "name": "F#3",
          "ticks": 0,
          "time": 0,
          "velocity": 0.6299212598425197
        },
        {
          "duration": 0.3936171,
          "durationTicks": 74,
          "midi": 54,
          "name": "F#3",
          "ticks": 30,
          "time": 0.1595745,
          "velocity": 0.4409448818897638
        },
        {
          "duration": 1.0319151,
          "durationTicks": 194,
          "midi": 42,
          "name": "F#2",
          "ticks": 60,
          "time": 0.319149,
          "velocity": 0.905511811023622
        },
        {
          "duration": 0.5531916,
          "durationTicks": 104,
          "midi": 54,
          "name": "F#3",
          "ticks": 60,
          "time": 0.319149,
          "velocity": 0.6299212598425197
        },
        {
          "duration": 0.5531915999999999,
          "durationTicks": 104,
          "midi": 54,
          "name": "F#3",
          "ticks": 90,
          "time": 0.4787235,
          "velocity": 0.4409448818897638
        },
        {
          "duration": 1.0319151,
          "durationTicks": 194,
          "midi": 42,
          "name": "F#2",
          "ticks": 120,
          "time": 0.638298,
          "velocity": 0.905511811023622
        },
        {
          "duration": 0.5531916000000001,
          "durationTicks": 104,
          "midi": 54,
          "name": "F#3",
          "ticks": 120,
          "time": 0.638298,
          "velocity": 0.6299212598425197
        },
        {
          "duration": 0.5531916000000001,
          "durationTicks": 104,
          "midi": 54,
          "name": "F#3",
          "ticks": 150,
          "time": 0.7978725,
          "velocity": 0.4409448818897638
        },
        {
          "duration": 0.39361710000000005,
          "durationTicks": 74,
          "midi": 36,
          "name": "C2",
          "ticks": 180,
          "time": 0.957447,
          "velocity": 1
        },
        {
          "duration": 1.3510640999999999,
          "durationTicks": 254,
          "midi": 42,
          "name": "F#2",
          "ticks": 180,
          "time": 0.957447,
          "velocity": 0.905511811023622
        },
        {
          "duration": 0.5531916,
          "durationTicks": 104,
          "midi": 54,
          "name": "F#3",
          "ticks": 180,
          "time": 0.957447,
          "velocity": 0.6299212598425197
        },
        {
          "duration": 0.5531915999999999,
          "durationTicks": 104,
          "midi": 54,
          "name": "F#3",
          "ticks": 210,
          "time": 1.1170215000000001,
          "velocity": 0.4409448818897638
        },
        {
          "duration": 1.0319151,
          "durationTicks": 194,
          "midi": 36,
          "name": "C2",
          "ticks": 240,
          "time": 1.276596,
          "velocity": 1
        },
        {
          "duration": 1.3510640999999999,
          "durationTicks": 254,
          "midi": 42,
          "name": "F#2",
          "ticks": 240,
          "time": 1.276596,
          "velocity": 0.905511811023622
        },
        {
          "duration": 0.5531916000000001,
          "durationTicks": 104,
          "midi": 54,
          "name": "F#3",
          "ticks": 240,
          "time": 1.276596,
          "velocity": 0.6299212598425197
        },
        {
          "duration": 0.7127661000000003,
          "durationTicks": 134,
          "midi": 54,
          "name": "F#3",
          "ticks": 270,
          "time": 1.4361705,
          "velocity": 0.4409448818897638
        },
        {
          "duration": 1.3510640999999999,
          "durationTicks": 254,
          "midi": 42,
          "name": "F#2",
          "ticks": 300,
          "time": 1.595745,
          "velocity": 0.905511811023622
        },
        {
          "duration": 0.7127661000000001,
          "durationTicks": 134,
          "midi": 54,
          "name": "F#3",
          "ticks": 300,
          "time": 1.595745,
          "velocity": 0.6299212598425197
        },
        {
          "duration": 0.7127661000000001,
          "durationTicks": 134,
          "midi": 54,
          "name": "F#3",
          "ticks": 330,
          "time": 1.7553195000000001,
          "velocity": 0.4409448818897638
        },
        {
          "duration": 1.6702131,
          "durationTicks": 314,
          "midi": 42,
          "name": "F#2",
          "ticks": 360,
          "time": 1.914894,
          "velocity": 0.905511811023622
        },
        {
          "duration": 0.7127660999999998,
          "durationTicks": 134,
          "midi": 54,
          "name": "F#3",
          "ticks": 360,
          "time": 1.914894,
          "velocity": 0.6299212598425197
        },
        {
          "duration": 0.7127660999999996,
          "durationTicks": 134,
          "midi": 54,
          "name": "F#3",
          "ticks": 390,
          "time": 2.0744685,
          "velocity": 0.4409448818897638
        },
        {
          "duration": 0.3936170999999997,
          "durationTicks": 74,
          "midi": 36,
          "name": "C2",
          "ticks": 420,
          "time": 2.2340430000000002,
          "velocity": 1
        },
        {
          "duration": 1.6702130999999998,
          "durationTicks": 314,
          "midi": 42,
          "name": "F#2",
          "ticks": 420,
          "time": 2.2340430000000002,
          "velocity": 0.905511811023622
        },
        {
          "duration": 0.7127660999999996,
          "durationTicks": 134,
          "midi": 54,
          "name": "F#3",
          "ticks": 420,
          "time": 2.2340430000000002,
          "velocity": 0.6299212598425197
        },
        {
          "duration": 0.7127661000000001,
          "durationTicks": 134,
          "midi": 54,
          "name": "F#3",
          "ticks": 450,
          "time": 2.3936175,
          "velocity": 0.4409448818897638
        },
        {
          "duration": 1.0319151,
          "durationTicks": 194,
          "midi": 36,
          "name": "C2",
          "ticks": 480,
          "time": 2.553192,
          "velocity": 1
        },
        {
          "duration": 2.3085110999999996,
          "durationTicks": 434,
          "midi": 42,
          "name": "F#2",
          "ticks": 480,
          "time": 2.553192,
          "velocity": 0.905511811023622
        },
        {
          "duration": 0.8723405999999998,
          "durationTicks": 164,
          "midi": 54,
          "name": "F#3",
          "ticks": 480,
          "time": 2.553192,
          "velocity": 0.6299212598425197
        },
        {
          "duration": 0.8723405999999998,
          "durationTicks": 164,
          "midi": 54,
          "name": "F#3",
          "ticks": 510,
          "time": 2.7127665000000003,
          "velocity": 0.4409448818897638
        },
        {
          "duration": 2.308511100000001,
          "durationTicks": 434,
          "midi": 42,
          "name": "F#2",
          "ticks": 540,
          "time": 2.872341,
          "velocity": 0.905511811023622
        },
        {
          "duration": 0.8723405999999998,
          "durationTicks": 164,
          "midi": 54,
          "name": "F#3",
          "ticks": 540,
          "time": 2.872341,
          "velocity": 0.6299212598425197
        },
        {
          "duration": 0.8723405999999998,
          "durationTicks": 164,
          "midi": 54,
          "name": "F#3",
          "ticks": 570,
          "time": 3.0319155,
          "velocity": 0.4409448818897638
        },
        {
          "duration": 2.3085111000000005,
          "durationTicks": 434,
          "midi": 42,
          "name": "F#2",
          "ticks": 600,
          "time": 3.19149,
          "velocity": 0.905511811023622
        },
        {
          "duration": 0.8723406000000002,
          "durationTicks": 164,
          "midi": 54,
          "name": "F#3",
          "ticks": 600,
          "time": 3.19149,
          "velocity": 0.6299212598425197
        },
        {
          "duration": 0.8723405999999998,
          "durationTicks": 164,
          "midi": 54,
          "name": "F#3",
          "ticks": 630,
          "time": 3.3510645,
          "velocity": 0.4409448818897638
        },
        {
          "duration": 0.3936170999999997,
          "durationTicks": 74,
          "midi": 36,
          "name": "C2",
          "ticks": 660,
          "time": 3.5106390000000003,
          "velocity": 1
        },
        {
          "duration": 2.6276601,
          "durationTicks": 494,
          "midi": 42,
          "name": "F#2",
          "ticks": 660,
          "time": 3.5106390000000003,
          "velocity": 0.905511811023622
        },
        {
          "duration": 0.8723405999999994,
          "durationTicks": 164,
          "midi": 54,
          "name": "F#3",
          "ticks": 660,
          "time": 3.5106390000000003,
          "velocity": 0.6299212598425197
        },
        {
          "duration": 1.0319151,
          "durationTicks": 194,
          "midi": 54,
          "name": "F#3",
          "ticks": 690,
          "time": 3.6702135,
          "velocity": 0.4409448818897638
        },
        {
          "duration": 0.3936170999999997,
          "durationTicks": 74,
          "midi": 36,
          "name": "C2",
          "ticks": 720,
          "time": 3.829788,
          "velocity": 1
        },
        {
          "duration": 2.6276601000000004,
          "durationTicks": 494,
          "midi": 42,
          "name": "F#2",
          "ticks": 720,
          "time": 3.829788,
          "velocity": 0.905511811023622
        },
        {
          "duration": 1.0319150999999995,
          "durationTicks": 194,
          "midi": 54,
          "name": "F#3",
          "ticks": 720,
          "time": 3.829788,
          "velocity": 0.6299212598425197
        },
        {
          "duration": 1.0319151,
          "durationTicks": 194,
          "midi": 54,
          "name": "F#3",
          "ticks": 750,
          "time": 3.9893625000000004,
          "velocity": 0.4409448818897638
        },
        {
          "duration": 0.07446809999999981,
          "durationTicks": 14,
          "midi": 35,
          "name": "B1",
          "ticks": 780,
          "time": 4.148937,
          "velocity": 0.905511811023622
        },
        {
          "duration": 0.07446809999999981,
          "durationTicks": 14,
          "midi": 46,
          "name": "A#2",
          "ticks": 780,
          "time": 4.148937,
          "velocity": 0.905511811023622
        },
        {
          "duration": 0.7127660999999996,
          "durationTicks": 134,
          "midi": 36,
          "name": "C2",
          "ticks": 780,
          "time": 4.148937,
          "velocity": 0.8661417322834646
        },
        {
          "duration": 1.0319151000000009,
          "durationTicks": 194,
          "midi": 54,
          "name": "F#3",
          "ticks": 780,
          "time": 4.148937,
          "velocity": 0.6299212598425197
        },
        {
          "duration": 1.0319151000000009,
          "durationTicks": 194,
          "midi": 54,
          "name": "F#3",
          "ticks": 810,
          "time": 4.3085115,
          "velocity": 0.4409448818897638
        },
        {
          "duration": 2.3085111000000005,
          "durationTicks": 434,
          "midi": 42,
          "name": "F#2",
          "ticks": 840,
          "time": 4.4680860000000004,
          "velocity": 0.905511811023622
        },
        {
          "duration": 1.0319151,
          "durationTicks": 194,
          "midi": 54,
          "name": "F#3",
          "ticks": 840,
          "time": 4.4680860000000004,
          "velocity": 0.6299212598425197
        },
        {
          "duration": 1.0319151,
          "durationTicks": 194,
          "midi": 54,
          "name": "F#3",
          "ticks": 870,
          "time": 4.6276605,
          "velocity": 0.4409448818897638
        },
        {
          "duration": 0.39361710000000105,
          "durationTicks": 74,
          "midi": 36,
          "name": "C2",
          "ticks": 900,
          "time": 4.787235,
          "velocity": 1
        },
        {
          "duration": 2.627660100000001,
          "durationTicks": 494,
          "midi": 42,
          "name": "F#2",
          "ticks": 900,
          "time": 4.787235,
          "velocity": 0.905511811023622
        },
        {
          "duration": 1.1914896000000006,
          "durationTicks": 224,
          "midi": 54,
          "name": "F#3",
          "ticks": 900,
          "time": 4.787235,
          "velocity": 0.6299212598425197
        },
        {
          "duration": 1.1914895999999997,
          "durationTicks": 224,
          "midi": 54,
          "name": "F#3",
          "ticks": 930,
          "time": 4.9468095000000005,
          "velocity": 0.4409448818897638
        },
        {
          "duration": 1.0319151,
          "durationTicks": 194,
          "midi": 36,
          "name": "C2",
          "ticks": 960,
          "time": 5.106384,
          "velocity": 1
        },
        {
          "duration": 2.627660100000001,
          "durationTicks": 494,
          "midi": 42,
          "name": "F#2",
          "ticks": 960,
          "time": 5.106384,
          "velocity": 0.905511811023622
        },
        {
          "duration": 1.1914896000000006,
          "durationTicks": 224,
          "midi": 54,
          "name": "F#3",
          "ticks": 960,
          "time": 5.106384,
          "velocity": 0.6299212598425197
        },
        {
          "duration": 1.1914896000000006,
          "durationTicks": 224,
          "midi": 54,
          "name": "F#3",
          "ticks": 990,
          "time": 5.2659585,
          "velocity": 0.4409448818897638
        },
        {
          "duration": 2.627660100000001,
          "durationTicks": 494,
          "midi": 42,
          "name": "F#2",
          "ticks": 1020,
          "time": 5.425533000000001,
          "velocity": 0.905511811023622
        },
        {
          "duration": 1.1914895999999997,
          "durationTicks": 224,
          "midi": 54,
          "name": "F#3",
          "ticks": 1020,
          "time": 5.425533000000001,
          "velocity": 0.6299212598425197
        },
        {
          "duration": 1.1914896000000006,
          "durationTicks": 224,
          "midi": 54,
          "name": "F#3",
          "ticks": 1050,
          "time": 5.5851075,
          "velocity": 0.4409448818897638
        },
        {
          "duration": 2.9468091000000003,
          "durationTicks": 554,
          "midi": 42,
          "name": "F#2",
          "ticks": 1080,
          "time": 5.744682,
          "velocity": 0.905511811023622
        },
        {
          "duration": 1.1914896000000006,
          "durationTicks": 224,
          "midi": 54,
          "name": "F#3",
          "ticks": 1080,
          "time": 5.744682,
          "velocity": 0.6299212598425197
        },
        {
          "duration": 1.3510641000000003,
          "durationTicks": 254,
          "midi": 54,
          "name": "F#3",
          "ticks": 1110,
          "time": 5.904256500000001,
          "velocity": 0.4409448818897638
        },
        {
          "duration": 0.39361710000000016,
          "durationTicks": 74,
          "midi": 36,
          "name": "C2",
          "ticks": 1140,
          "time": 6.063831,
          "velocity": 1
        },
        {
          "duration": 2.946809100000001,
          "durationTicks": 554,
          "midi": 42,
          "name": "F#2",
          "ticks": 1140,
          "time": 6.063831,
          "velocity": 0.905511811023622
        },
        {
          "duration": 1.3510641000000003,
          "durationTicks": 254,
          "midi": 54,
          "name": "F#3",
          "ticks": 1140,
          "time": 6.063831,
          "velocity": 0.6299212598425197
        },
        {
          "duration": 1.3510641000000003,
          "durationTicks": 254,
          "midi": 54,
          "name": "F#3",
          "ticks": 1170,
          "time": 6.2234055,
          "velocity": 0.4409448818897638
        },
        {
          "duration": 1.0319151000000009,
          "durationTicks": 194,
          "midi": 36,
          "name": "C2",
          "ticks": 1200,
          "time": 6.38298,
          "velocity": 1
        },
        {
          "duration": 3.5851071,
          "durationTicks": 674,
          "midi": 42,
          "name": "F#2",
          "ticks": 1200,
          "time": 6.38298,
          "velocity": 0.905511811023622
        },
        {
          "duration": 1.3510641000000012,
          "durationTicks": 254,
          "midi": 54,
          "name": "F#3",
          "ticks": 1200,
          "time": 6.38298,
          "velocity": 0.6299212598425197
        },
        {
          "duration": 1.3510641000000003,
          "durationTicks": 254,
          "midi": 54,
          "name": "F#3",
          "ticks": 1230,
          "time": 6.5425545000000005,
          "velocity": 0.4409448818897638
        },
        {
          "duration": 3.9042561000000005,
          "durationTicks": 734,
          "midi": 42,
          "name": "F#2",
          "ticks": 1260,
          "time": 6.702129,
          "velocity": 0.905511811023622
        },
        {
          "duration": 1.3510641000000012,
          "durationTicks": 254,
          "midi": 54,
          "name": "F#3",
          "ticks": 1260,
          "time": 6.702129,
          "velocity": 0.6299212598425197
        },
        {
          "duration": 1.3510641000000012,
          "durationTicks": 254,
          "midi": 54,
          "name": "F#3",
          "ticks": 1290,
          "time": 6.8617035,
          "velocity": 0.4409448818897638
        },
        {
          "duration": 4.223405100000001,
          "durationTicks": 794,
          "midi": 42,
          "name": "F#2",
          "ticks": 1320,
          "time": 7.021278000000001,
          "velocity": 0.905511811023622
        },
        {
          "duration": 1.5106386,
          "durationTicks": 284,
          "midi": 54,
          "name": "F#3",
          "ticks": 1320,
          "time": 7.021278000000001,
          "velocity": 0.6299212598425197
        },
        {
          "duration": 1.5106386,
          "durationTicks": 284,
          "midi": 54,
          "name": "F#3",
          "ticks": 1350,
          "time": 7.1808525,
          "velocity": 0.4409448818897638
        },
        {
          "duration": 0.39361710000000105,
          "durationTicks": 74,
          "midi": 36,
          "name": "C2",
          "ticks": 1380,
          "time": 7.340427,
          "velocity": 1
        },
        {
          "duration": 4.223405100000001,
          "durationTicks": 794,
          "midi": 42,
          "name": "F#2",
          "ticks": 1380,
          "time": 7.340427,
          "velocity": 0.905511811023622
        },
        {
          "duration": 1.5106386,
          "durationTicks": 284,
          "midi": 54,
          "name": "F#3",
          "ticks": 1380,
          "time": 7.340427,
          "velocity": 0.6299212598425197
        },
        {
          "duration": 1.510638600000001,
          "durationTicks": 284,
          "midi": 54,
          "name": "F#3",
          "ticks": 1410,
          "time": 7.500001500000001,
          "velocity": 0.4409448818897638
        },
        {
          "duration": 1.0319151,
          "durationTicks": 194,
          "midi": 36,
          "name": "C2",
          "ticks": 1440,
          "time": 7.659576,
          "velocity": 1
        },
        {
          "duration": 4.2234051,
          "durationTicks": 794,
          "midi": 42,
          "name": "F#2",
          "ticks": 1440,
          "time": 7.659576,
          "velocity": 0.905511811023622
        },
        {
          "duration": 1.510638600000001,
          "durationTicks": 284,
          "midi": 54,
          "name": "F#3",
          "ticks": 1440,
          "time": 7.659576,
          "velocity": 0.6299212598425197
        },
        {
          "duration": 1.510638600000001,
          "durationTicks": 284,
          "midi": 54,
          "name": "F#3",
          "ticks": 1470,
          "time": 7.8191505,
          "velocity": 0.4409448818897638
        },
        {
          "duration": 4.5425541,
          "durationTicks": 854,
          "midi": 42,
          "name": "F#2",
          "ticks": 1500,
          "time": 7.978725000000001,
          "velocity": 0.905511811023622
        },
        {
          "duration": 1.5106386,
          "durationTicks": 284,
          "midi": 54,
          "name": "F#3",
          "ticks": 1500,
          "time": 7.978725000000001,
          "velocity": 0.6299212598425197
        },
        {
          "duration": 1.6702130999999998,
          "durationTicks": 314,
          "midi": 54,
          "name": "F#3",
          "ticks": 1530,
          "time": 8.1382995,
          "velocity": 0.4409448818897638
        },
        {
          "duration": 4.5425541,
          "durationTicks": 854,
          "midi": 42,
          "name": "F#2",
          "ticks": 1560,
          "time": 8.297874,
          "velocity": 0.905511811023622
        },
        {
          "duration": 1.6702130999999998,
          "durationTicks": 314,
          "midi": 54,
          "name": "F#3",
          "ticks": 1560,
          "time": 8.297874,
          "velocity": 0.6299212598425197
        },
        {
          "duration": 1.6702131000000016,
          "durationTicks": 314,
          "midi": 54,
          "name": "F#3",
          "ticks": 1590,
          "time": 8.4574485,
          "velocity": 0.4409448818897638
        },
        {
          "duration": 0.39361710000000194,
          "durationTicks": 74,
          "midi": 36,
          "name": "C2",
          "ticks": 1620,
          "time": 8.617023,
          "velocity": 1
        },
        {
          "duration": 4.542554100000002,
          "durationTicks": 854,
          "midi": 42,
          "name": "F#2",
          "ticks": 1620,
          "time": 8.617023,
          "velocity": 0.905511811023622
        },
        {
          "duration": 1.8297876000000013,
          "durationTicks": 344,
          "midi": 54,
          "name": "F#3",
          "ticks": 1620,
          "time": 8.617023,
          "velocity": 0.6299212598425197
        },
        {
          "duration": 1.8297875999999995,
          "durationTicks": 344,
          "midi": 54,
          "name": "F#3",
          "ticks": 1650,
          "time": 8.776597500000001,
          "velocity": 0.4409448818897638
        },
        {
          "duration": 0.39361710000000016,
          "durationTicks": 74,
          "midi": 36,
          "name": "C2",
          "ticks": 1680,
          "time": 8.936172000000001,
          "velocity": 1
        },
        {
          "duration": 4.8617031,
          "durationTicks": 914,
          "midi": 42,
          "name": "F#2",
          "ticks": 1680,
          "time": 8.936172000000001,
          "velocity": 0.905511811023622
        },
        {
          "duration": 1.8297875999999995,
          "durationTicks": 344,
          "midi": 54,
          "name": "F#3",
          "ticks": 1680,
          "time": 8.936172000000001,
          "velocity": 0.6299212598425197
        },
        {
          "duration": 1.989362100000001,
          "durationTicks": 374,
          "midi": 54,
          "name": "F#3",
          "ticks": 1710,
          "time": 9.0957465,
          "velocity": 0.4409448818897638
        },
        {
          "duration": 0.0744681000000007,
          "durationTicks": 14,
          "midi": 35,
          "name": "B1",
          "ticks": 1740,
          "time": 9.255321,
          "velocity": 0.905511811023622
        },
        {
          "duration": 0.0744681000000007,
          "durationTicks": 14,
          "midi": 46,
          "name": "A#2",
          "ticks": 1740,
          "time": 9.255321,
          "velocity": 0.905511811023622
        },
        {
          "duration": 0.7127660999999996,
          "durationTicks": 134,
          "midi": 36,
          "name": "C2",
          "ticks": 1740,
          "time": 9.255321,
          "velocity": 0.8661417322834646
        },
        {
          "duration": 1.989362100000001,
          "durationTicks": 374,
          "midi": 54,
          "name": "F#3",
          "ticks": 1740,
          "time": 9.255321,
          "velocity": 0.6299212598425197
        },
        {
          "duration": 1.989362100000001,
          "durationTicks": 374,
          "midi": 54,
          "name": "F#3",
          "ticks": 1770,
          "time": 9.4148955,
          "velocity": 0.4409448818897638
        },
        {
          "duration": 4.542554100000002,
          "durationTicks": 854,
          "midi": 42,
          "name": "F#2",
          "ticks": 1800,
          "time": 9.57447,
          "velocity": 0.905511811023622
        },
        {
          "duration": 1.989362100000001,
          "durationTicks": 374,
          "midi": 54,
          "name": "F#3",
          "ticks": 1800,
          "time": 9.57447,
          "velocity": 0.6299212598425197
        },
        {
          "duration": 1.9893620999999992,
          "durationTicks": 374,
          "midi": 54,
          "name": "F#3",
          "ticks": 1830,
          "time": 9.734044500000001,
          "velocity": 0.4409448818897638
        },
        {
          "duration": 1.3510641000000003,
          "durationTicks": 254,
          "midi": 36,
          "name": "C2",
          "ticks": 1860,
          "time": 9.893619000000001,
          "velocity": 1
        },
        {
          "duration": 5.180852099999999,
          "durationTicks": 974,
          "midi": 42,
          "name": "F#2",
          "ticks": 1860,
          "time": 9.893619000000001,
          "velocity": 0.905511811023622
        },
        {
          "duration": 1.9893620999999992,
          "durationTicks": 374,
          "midi": 54,
          "name": "F#3",
          "ticks": 1860,
          "time": 9.893619000000001,
          "velocity": 0.6299212598425197
        },
        {
          "duration": 1.9893620999999992,
          "durationTicks": 374,
          "midi": 54,
          "name": "F#3",
          "ticks": 1890,
          "time": 10.0531935,
          "velocity": 0.4409448818897638
        },
        {
          "duration": 1.3510641000000003,
          "durationTicks": 254,
          "midi": 36,
          "name": "C2",
          "ticks": 1920,
          "time": 10.212768,
          "velocity": 1
        },
        {
          "duration": 5.180852100000001,
          "durationTicks": 974,
          "midi": 42,
          "name": "F#2",
          "ticks": 1920,
          "time": 10.212768,
          "velocity": 0.905511811023622
        },
        {
          "duration": 2.1489366000000008,
          "durationTicks": 404,
          "midi": 54,
          "name": "F#3",
          "ticks": 1920,
          "time": 10.212768,
          "velocity": 0.6299212598425197
        },
        {
          "duration": 2.1489366000000008,
          "durationTicks": 404,
          "midi": 54,
          "name": "F#3",
          "ticks": 1950,
          "time": 10.3723425,
          "velocity": 0.4409448818897638
        },
        {
          "duration": 5.180852100000001,
          "durationTicks": 974,
          "midi": 42,
          "name": "F#2",
          "ticks": 1980,
          "time": 10.531917,
          "velocity": 0.905511811023622
        },
        {
          "duration": 2.1489366000000008,
          "durationTicks": 404,
          "midi": 54,
          "name": "F#3",
          "ticks": 1980,
          "time": 10.531917,
          "velocity": 0.6299212598425197
        },
        {
          "duration": 2.1489366000000008,
          "durationTicks": 404,
          "midi": 54,
          "name": "F#3",
          "ticks": 2010,
          "time": 10.6914915,
          "velocity": 0.4409448818897638
        },
        {
          "duration": 5.5000011,
          "durationTicks": 1034,
          "midi": 42,
          "name": "F#2",
          "ticks": 2040,
          "time": 10.851066000000001,
          "velocity": 0.905511811023622
        },
        {
          "duration": 2.148936599999999,
          "durationTicks": 404,
          "midi": 54,
          "name": "F#3",
          "ticks": 2040,
          "time": 10.851066000000001,
          "velocity": 0.6299212598425197
        },
        {
          "duration": 2.1489366000000008,
          "durationTicks": 404,
          "midi": 54,
          "name": "F#3",
          "ticks": 2070,
          "time": 11.010640500000001,
          "velocity": 0.4409448818897638
        },
        {
          "duration": 1.3510641000000003,
          "durationTicks": 254,
          "midi": 36,
          "name": "C2",
          "ticks": 2100,
          "time": 11.170215,
          "velocity": 1
        },
        {
          "duration": 5.5000011,
          "durationTicks": 1034,
          "midi": 42,
          "name": "F#2",
          "ticks": 2100,
          "time": 11.170215,
          "velocity": 0.905511811023622
        },
        {
          "duration": 2.1489366000000008,
          "durationTicks": 404,
          "midi": 54,
          "name": "F#3",
          "ticks": 2100,
          "time": 11.170215,
          "velocity": 0.6299212598425197
        },
        {
          "duration": 2.3085111000000005,
          "durationTicks": 434,
          "midi": 54,
          "name": "F#3",
          "ticks": 2130,
          "time": 11.3297895,
          "velocity": 0.4409448818897638
        },
        {
          "duration": 1.3510641000000003,
          "durationTicks": 254,
          "midi": 36,
          "name": "C2",
          "ticks": 2160,
          "time": 11.489364,
          "velocity": 1
        },
        {
          "duration": 5.5000011,
          "durationTicks": 1034,
          "midi": 42,
          "name": "F#2",
          "ticks": 2160,
          "time": 11.489364,
          "velocity": 0.905511811023622
        },
        {
          "duration": 2.3085111000000005,
          "durationTicks": 434,
          "midi": 54,
          "name": "F#3",
          "ticks": 2160,
          "time": 11.489364,
          "velocity": 0.6299212598425197
        },
        {
          "duration": 2.3085111000000005,
          "durationTicks": 434,
          "midi": 54,
          "name": "F#3",
          "ticks": 2190,
          "time": 11.6489385,
          "velocity": 0.4409448818897638
        },
        {
          "duration": 5.819150099999998,
          "durationTicks": 1094,
          "midi": 42,
          "name": "F#2",
          "ticks": 2220,
          "time": 11.808513000000001,
          "velocity": 0.905511811023622
        },
        {
          "duration": 2.3085111000000005,
          "durationTicks": 434,
          "midi": 54,
          "name": "F#3",
          "ticks": 2220,
          "time": 11.808513000000001,
          "velocity": 0.6299212598425197
        },
        {
          "duration": 2.3085111000000005,
          "durationTicks": 434,
          "midi": 54,
          "name": "F#3",
          "ticks": 2250,
          "time": 11.968087500000001,
          "velocity": 0.4409448818897638
        },
        {
          "duration": 5.819150100000002,
          "durationTicks": 1094,
          "midi": 42,
          "name": "F#2",
          "ticks": 2280,
          "time": 12.127662,
          "velocity": 0.905511811023622
        },
        {
          "duration": 2.3085111000000005,
          "durationTicks": 434,
          "midi": 54,
          "name": "F#3",
          "ticks": 2280,
          "time": 12.127662,
          "velocity": 0.6299212598425197
        },
        {
          "duration": 2.3085111000000005,
          "durationTicks": 434,
          "midi": 54,
          "name": "F#3",
          "ticks": 2310,
          "time": 12.2872365,
          "velocity": 0.4409448818897638
        },
        {
          "duration": 1.3510641000000003,
          "durationTicks": 254,
          "midi": 36,
          "name": "C2",
          "ticks": 2340,
          "time": 12.446811,
          "velocity": 1
        },
        {
          "duration": 5.819150100000002,
          "durationTicks": 1094,
          "midi": 42,
          "name": "F#2",
          "ticks": 2340,
          "time": 12.446811,
          "velocity": 0.905511811023622
        },
        {
          "duration": 2.4680856,
          "durationTicks": 464,
          "midi": 54,
          "name": "F#3",
          "ticks": 2340,
          "time": 12.446811,
          "velocity": 0.6299212598425197
        },
        {
          "duration": 2.4680856,
          "durationTicks": 464,
          "midi": 54,
          "name": "F#3",
          "ticks": 2370,
          "time": 12.6063855,
          "velocity": 0.4409448818897638
        },
        {
          "duration": 1.351064100000002,
          "durationTicks": 254,
          "midi": 36,
          "name": "C2",
          "ticks": 2400,
          "time": 12.76596,
          "velocity": 1
        },
        {
          "duration": 6.138299100000001,
          "durationTicks": 1154,
          "midi": 42,
          "name": "F#2",
          "ticks": 2400,
          "time": 12.76596,
          "velocity": 0.905511811023622
        },
        {
          "duration": 2.468085600000002,
          "durationTicks": 464,
          "midi": 54,
          "name": "F#3",
          "ticks": 2400,
          "time": 12.76596,
          "velocity": 0.6299212598425197
        },
        {
          "duration": 2.4680856,
          "durationTicks": 464,
          "midi": 54,
          "name": "F#3",
          "ticks": 2430,
          "time": 12.925534500000001,
          "velocity": 0.4409448818897638
        },
        {
          "duration": 6.138299099999999,
          "durationTicks": 1154,
          "midi": 42,
          "name": "F#2",
          "ticks": 2460,
          "time": 13.085109000000001,
          "velocity": 0.905511811023622
        },
        {
          "duration": 2.4680856,
          "durationTicks": 464,
          "midi": 54,
          "name": "F#3",
          "ticks": 2460,
          "time": 13.085109000000001,
          "velocity": 0.6299212598425197
        },
        {
          "duration": 2.4680856,
          "durationTicks": 464,
          "midi": 54,
          "name": "F#3",
          "ticks": 2490,
          "time": 13.2446835,
          "velocity": 0.4409448818897638
        },
        {
          "duration": 6.776597100000002,
          "durationTicks": 1274,
          "midi": 42,
          "name": "F#2",
          "ticks": 2520,
          "time": 13.404258,
          "velocity": 0.905511811023622
        },
        {
          "duration": 2.4680856,
          "durationTicks": 464,
          "midi": 54,
          "name": "F#3",
          "ticks": 2520,
          "time": 13.404258,
          "velocity": 0.6299212598425197
        },
        {
          "duration": 2.6276601,
          "durationTicks": 494,
          "midi": 54,
          "name": "F#3",
          "ticks": 2550,
          "time": 13.5638325,
          "velocity": 0.4409448818897638
        },
        {
          "duration": 0.7127661000000014,
          "durationTicks": 134,
          "midi": 36,
          "name": "C2",
          "ticks": 2580,
          "time": 13.723407,
          "velocity": 1
        },
        {
          "duration": 7.095746100000001,
          "durationTicks": 1334,
          "midi": 42,
          "name": "F#2",
          "ticks": 2580,
          "time": 13.723407,
          "velocity": 0.905511811023622
        },
        {
          "duration": 2.6276601000000017,
          "durationTicks": 494,
          "midi": 54,
          "name": "F#3",
          "ticks": 2580,
          "time": 13.723407,
          "velocity": 0.6299212598425197
        },
        {
          "duration": 2.627660099999998,
          "durationTicks": 494,
          "midi": 54,
          "name": "F#3",
          "ticks": 2610,
          "time": 13.882981500000001,
          "velocity": 0.4409448818897638
        },
        {
          "duration": 1.031915099999999,
          "durationTicks": 194,
          "midi": 36,
          "name": "C2",
          "ticks": 2640,
          "time": 14.042556000000001,
          "velocity": 1
        },
        {
          "duration": 7.414895099999999,
          "durationTicks": 1394,
          "midi": 42,
          "name": "F#2",
          "ticks": 2640,
          "time": 14.042556000000001,
          "velocity": 0.905511811023622
        },
        {
          "duration": 2.6276601,
          "durationTicks": 494,
          "midi": 54,
          "name": "F#3",
          "ticks": 2640,
          "time": 14.042556000000001,
          "velocity": 0.6299212598425197
        },
        {
          "duration": 2.6276601000000017,
          "durationTicks": 494,
          "midi": 54,
          "name": "F#3",
          "ticks": 2670,
          "time": 14.2021305,
          "velocity": 0.4409448818897638
        },
        {
          "duration": 0.0744681000000007,
          "durationTicks": 14,
          "midi": 35,
          "name": "B1",
          "ticks": 2700,
          "time": 14.361705,
          "velocity": 0.905511811023622
        },
        {
          "duration": 0.0744681000000007,
          "durationTicks": 14,
          "midi": 46,
          "name": "A#2",
          "ticks": 2700,
          "time": 14.361705,
          "velocity": 0.905511811023622
        },
        {
          "duration": 1.0319151000000009,
          "durationTicks": 194,
          "midi": 36,
          "name": "C2",
          "ticks": 2700,
          "time": 14.361705,
          "velocity": 0.8661417322834646
        },
        {
          "duration": 2.6276601,
          "durationTicks": 494,
          "midi": 54,
          "name": "F#3",
          "ticks": 2700,
          "time": 14.361705,
          "velocity": 0.6299212598425197
        },
        {
          "duration": 2.6276601000000017,
          "durationTicks": 494,
          "midi": 54,
          "name": "F#3",
          "ticks": 2730,
          "time": 14.5212795,
          "velocity": 0.4409448818897638
        },
        {
          "duration": 7.095746100000003,
          "durationTicks": 1334,
          "midi": 42,
          "name": "F#2",
          "ticks": 2760,
          "time": 14.680854,
          "velocity": 0.905511811023622
        },
        {
          "duration": 2.7872346000000014,
          "durationTicks": 524,
          "midi": 54,
          "name": "F#3",
          "ticks": 2760,
          "time": 14.680854,
          "velocity": 0.6299212598425197
        },
        {
          "duration": 2.787234599999998,
          "durationTicks": 524,
          "midi": 54,
          "name": "F#3",
          "ticks": 2790,
          "time": 14.840428500000002,
          "velocity": 0.4409448818897638
        },
        {
          "duration": 1.3510641000000003,
          "durationTicks": 254,
          "midi": 36,
          "name": "C2",
          "ticks": 2820,
          "time": 15.000003000000001,
          "velocity": 1
        },
        {
          "duration": 7.095746100000001,
          "durationTicks": 1334,
          "midi": 42,
          "name": "F#2",
          "ticks": 2820,
          "time": 15.000003000000001,
          "velocity": 0.905511811023622
        },
        {
          "duration": 2.7872345999999997,
          "durationTicks": 524,
          "midi": 54,
          "name": "F#3",
          "ticks": 2820,
          "time": 15.000003000000001,
          "velocity": 0.6299212598425197
        },
        {
          "duration": 2.7872346000000014,
          "durationTicks": 524,
          "midi": 54,
          "name": "F#3",
          "ticks": 2850,
          "time": 15.159577500000001,
          "velocity": 0.4409448818897638
        },
        {
          "duration": 1.3510641000000003,
          "durationTicks": 254,
          "midi": 36,
          "name": "C2",
          "ticks": 2880,
          "time": 15.319152,
          "velocity": 1
        },
        {
          "duration": 7.414895100000001,
          "durationTicks": 1394,
          "midi": 42,
          "name": "F#2",
          "ticks": 2880,
          "time": 15.319152,
          "velocity": 0.905511811023622
        },
        {
          "duration": 2.7872345999999997,
          "durationTicks": 524,
          "midi": 54,
          "name": "F#3",
          "ticks": 2880,
          "time": 15.319152,
          "velocity": 0.6299212598425197
        },
        {
          "duration": 2.7872346000000014,
          "durationTicks": 524,
          "midi": 54,
          "name": "F#3",
          "ticks": 2910,
          "time": 15.4787265,
          "velocity": 0.4409448818897638
        },
        {
          "duration": 7.414895100000001,
          "durationTicks": 1394,
          "midi": 42,
          "name": "F#2",
          "ticks": 2940,
          "time": 15.638301,
          "velocity": 0.905511811023622
        },
        {
          "duration": 2.7872345999999997,
          "durationTicks": 524,
          "midi": 54,
          "name": "F#3",
          "ticks": 2940,
          "time": 15.638301,
          "velocity": 0.6299212598425197
        },
        {
          "duration": 2.946809100000003,
          "durationTicks": 554,
          "midi": 54,
          "name": "F#3",
          "ticks": 2970,
          "time": 15.7978755,
          "velocity": 0.4409448818897638
        },
        {
          "duration": 7.414895099999999,
          "durationTicks": 1394,
          "midi": 42,
          "name": "F#2",
          "ticks": 3000,
          "time": 15.957450000000001,
          "velocity": 0.905511811023622
        },
        {
          "duration": 2.9468090999999994,
          "durationTicks": 554,
          "midi": 54,
          "name": "F#3",
          "ticks": 3000,
          "time": 15.957450000000001,
          "velocity": 0.6299212598425197
        },
        {
          "duration": 2.946809100000003,
          "durationTicks": 554,
          "midi": 54,
          "name": "F#3",
          "ticks": 3030,
          "time": 16.1170245,
          "velocity": 0.4409448818897638
        },
        {
          "duration": 1.3510640999999985,
          "durationTicks": 254,
          "midi": 36,
          "name": "C2",
          "ticks": 3060,
          "time": 16.276599,
          "velocity": 1
        },
        {
          "duration": 7.734044100000002,
          "durationTicks": 1454,
          "midi": 42,
          "name": "F#2",
          "ticks": 3060,
          "time": 16.276599,
          "velocity": 0.905511811023622
        },
        {
          "duration": 2.9468090999999994,
          "durationTicks": 554,
          "midi": 54,
          "name": "F#3",
          "ticks": 3060,
          "time": 16.276599,
          "velocity": 0.6299212598425197
        },
        {
          "duration": 2.9468090999999994,
          "durationTicks": 554,
          "midi": 54,
          "name": "F#3",
          "ticks": 3090,
          "time": 16.436173500000002,
          "velocity": 0.4409448818897638
        },
        {
          "duration": 1.351064100000002,
          "durationTicks": 254,
          "midi": 36,
          "name": "C2",
          "ticks": 3120,
          "time": 16.595748,
          "velocity": 1
        },
        {
          "duration": 7.734044100000002,
          "durationTicks": 1454,
          "midi": 42,
          "name": "F#2",
          "ticks": 3120,
          "time": 16.595748,
          "velocity": 0.905511811023622
        },
        {
          "duration": 2.9468090999999994,
          "durationTicks": 554,
          "midi": 54,
          "name": "F#3",
          "ticks": 3120,
          "time": 16.595748,
          "velocity": 0.6299212598425197
        },
        {
          "duration": 2.9468090999999994,
          "durationTicks": 554,
          "midi": 54,
          "name": "F#3",
          "ticks": 3150,
          "time": 16.755322500000002,
          "velocity": 0.4409448818897638
        },
        {
          "duration": 8.372342100000001,
          "durationTicks": 1574,
          "midi": 42,
          "name": "F#2",
          "ticks": 3180,
          "time": 16.914897,
          "velocity": 0.905511811023622
        },
        {
          "duration": 3.106383600000001,
          "durationTicks": 584,
          "midi": 54,
          "name": "F#3",
          "ticks": 3180,
          "time": 16.914897,
          "velocity": 0.6299212598425197
        },
        {
          "duration": 3.106383600000001,
          "durationTicks": 584,
          "midi": 54,
          "name": "F#3",
          "ticks": 3210,
          "time": 17.0744715,
          "velocity": 0.4409448818897638
        },
        {
          "duration": 8.372342100000001,
          "durationTicks": 1574,
          "midi": 42,
          "name": "F#2",
          "ticks": 3240,
          "time": 17.234046,
          "velocity": 0.905511811023622
        },
        {
          "duration": 3.106383600000001,
          "durationTicks": 584,
          "midi": 54,
          "name": "F#3",
          "ticks": 3240,
          "time": 17.234046,
          "velocity": 0.6299212598425197
        },
        {
          "duration": 3.265958099999999,
          "durationTicks": 614,
          "midi": 54,
          "name": "F#3",
          "ticks": 3270,
          "time": 17.3936205,
          "velocity": 0.4409448818897638
        },
        {
          "duration": 1.3510640999999985,
          "durationTicks": 254,
          "midi": 36,
          "name": "C2",
          "ticks": 3300,
          "time": 17.553195000000002,
          "velocity": 1
        },
        {
          "duration": 8.372342100000001,
          "durationTicks": 1574,
          "midi": 42,
          "name": "F#2",
          "ticks": 3300,
          "time": 17.553195000000002,
          "velocity": 0.905511811023622
        },
        {
          "duration": 3.265958099999999,
          "durationTicks": 614,
          "midi": 54,
          "name": "F#3",
          "ticks": 3300,
          "time": 17.553195000000002,
          "velocity": 0.6299212598425197
        },
        {
          "duration": 3.2659581000000024,
          "durationTicks": 614,
          "midi": 54,
          "name": "F#3",
          "ticks": 3330,
          "time": 17.7127695,
          "velocity": 0.4409448818897638
        },
        {
          "duration": 1.3510640999999985,
          "durationTicks": 254,
          "midi": 36,
          "name": "C2",
          "ticks": 3360,
          "time": 17.872344000000002,
          "velocity": 1
        },
        {
          "duration": 8.6914911,
          "durationTicks": 1634,
          "midi": 42,
          "name": "F#2",
          "ticks": 3360,
          "time": 17.872344000000002,
          "velocity": 0.905511811023622
        },
        {
          "duration": 3.4255326000000004,
          "durationTicks": 644,
          "midi": 54,
          "name": "F#3",
          "ticks": 3360,
          "time": 17.872344000000002,
          "velocity": 0.6299212598425197
        },
        {
          "duration": 3.4255326000000004,
          "durationTicks": 644,
          "midi": 54,
          "name": "F#3",
          "ticks": 3390,
          "time": 18.0319185,
          "velocity": 0.4409448818897638
        },
        {
          "duration": 8.6914911,
          "durationTicks": 1634,
          "midi": 42,
          "name": "F#2",
          "ticks": 3420,
          "time": 18.191493,
          "velocity": 0.905511811023622
        },
        {
          "duration": 3.4255326000000004,
          "durationTicks": 644,
          "midi": 54,
          "name": "F#3",
          "ticks": 3420,
          "time": 18.191493,
          "velocity": 0.6299212598425197
        },
        {
          "duration": 3.425532600000004,
          "durationTicks": 644,
          "midi": 54,
          "name": "F#3",
          "ticks": 3450,
          "time": 18.3510675,
          "velocity": 0.4409448818897638
        },
        {
          "duration": 8.6914911,
          "durationTicks": 1634,
          "midi": 42,
          "name": "F#2",
          "ticks": 3480,
          "time": 18.510642,
          "velocity": 0.905511811023622
        },
        {
          "duration": 3.4255326000000004,
          "durationTicks": 644,
          "midi": 54,
          "name": "F#3",
          "ticks": 3480,
          "time": 18.510642,
          "velocity": 0.6299212598425197
        },
        {
          "duration": 3.4255326000000004,
          "durationTicks": 644,
          "midi": 54,
          "name": "F#3",
          "ticks": 3510,
          "time": 18.670216500000002,
          "velocity": 0.4409448818897638
        },
        {
          "duration": 0.7127660999999996,
          "durationTicks": 134,
          "midi": 36,
          "name": "C2",
          "ticks": 3540,
          "time": 18.829791,
          "velocity": 1
        },
        {
          "duration": 9.0106401,
          "durationTicks": 1694,
          "midi": 42,
          "name": "F#2",
          "ticks": 3540,
          "time": 18.829791,
          "velocity": 0.905511811023622
        },
        {
          "duration": 3.4255326000000004,
          "durationTicks": 644,
          "midi": 54,
          "name": "F#3",
          "ticks": 3540,
          "time": 18.829791,
          "velocity": 0.6299212598425197
        },
        {
          "duration": 3.5851070999999983,
          "durationTicks": 674,
          "midi": 54,
          "name": "F#3",
          "ticks": 3570,
          "time": 18.9893655,
          "velocity": 0.4409448818897638
        },
        {
          "duration": 1.0319151000000026,
          "durationTicks": 194,
          "midi": 36,
          "name": "C2",
          "ticks": 3600,
          "time": 19.14894,
          "velocity": 1
        },
        {
          "duration": 9.010640100000003,
          "durationTicks": 1694,
          "midi": 42,
          "name": "F#2",
          "ticks": 3600,
          "time": 19.14894,
          "velocity": 0.905511811023622
        },
        {
          "duration": 3.585107100000002,
          "durationTicks": 674,
          "midi": 54,
          "name": "F#3",
          "ticks": 3600,
          "time": 19.14894,
          "velocity": 0.6299212598425197
        },
        {
          "duration": 3.585107100000002,
          "durationTicks": 674,
          "midi": 54,
          "name": "F#3",
          "ticks": 3630,
          "time": 19.3085145,
          "velocity": 0.4409448818897638
        },
        {
          "duration": 0.07446809999999715,
          "durationTicks": 14,
          "midi": 35,
          "name": "B1",
          "ticks": 3660,
          "time": 19.468089000000003,
          "velocity": 0.905511811023622
        },
        {
          "duration": 0.07446809999999715,
          "durationTicks": 14,
          "midi": 46,
          "name": "A#2",
          "ticks": 3660,
          "time": 19.468089000000003,
          "velocity": 0.905511811023622
        },
        {
          "duration": 1.9893620999999975,
          "durationTicks": 374,
          "midi": 36,
          "name": "C2",
          "ticks": 3660,
          "time": 19.468089000000003,
          "velocity": 0.8661417322834646
        },
        {
          "duration": 3.5851070999999983,
          "durationTicks": 674,
          "midi": 54,
          "name": "F#3",
          "ticks": 3660,
          "time": 19.468089000000003,
          "velocity": 0.6299212598425197
        },
        {
          "duration": 3.585107100000002,
          "durationTicks": 674,
          "midi": 54,
          "name": "F#3",
          "ticks": 3690,
          "time": 19.6276635,
          "velocity": 0.4409448818897638
        },
        {
          "duration": 8.6914911,
          "durationTicks": 1634,
          "midi": 42,
          "name": "F#2",
          "ticks": 3720,
          "time": 19.787238000000002,
          "velocity": 0.905511811023622
        },
        {
          "duration": 3.5851070999999983,
          "durationTicks": 674,
          "midi": 54,
          "name": "F#3",
          "ticks": 3720,
          "time": 19.787238000000002,
          "velocity": 0.6299212598425197
        },
        {
          "duration": 3.585107100000002,
          "durationTicks": 674,
          "midi": 54,
          "name": "F#3",
          "ticks": 3750,
          "time": 19.9468125,
          "velocity": 0.4409448818897638
        },
        {
          "duration": 1.6702131000000016,
          "durationTicks": 314,
          "midi": 36,
          "name": "C2",
          "ticks": 3780,
          "time": 20.106387,
          "velocity": 1
        },
        {
          "duration": 9.0106401,
          "durationTicks": 1694,
          "midi": 42,
          "name": "F#2",
          "ticks": 3780,
          "time": 20.106387,
          "velocity": 0.905511811023622
        },
        {
          "duration": 3.7446816,
          "durationTicks": 704,
          "midi": 54,
          "name": "F#3",
          "ticks": 3780,
          "time": 20.106387,
          "velocity": 0.6299212598425197
        },
        {
          "duration": 3.7446816000000034,
          "durationTicks": 704,
          "midi": 54,
          "name": "F#3",
          "ticks": 3810,
          "time": 20.2659615,
          "velocity": 0.4409448818897638
        },
        {
          "duration": 2.3085111000000005,
          "durationTicks": 434,
          "midi": 36,
          "name": "C2",
          "ticks": 3840,
          "time": 20.425536,
          "velocity": 1
        },
        {
          "duration": 9.0106401,
          "durationTicks": 1694,
          "midi": 42,
          "name": "F#2",
          "ticks": 3840,
          "time": 20.425536,
          "velocity": 0.905511811023622
        },
        {
          "duration": 3.7446816,
          "durationTicks": 704,
          "midi": 54,
          "name": "F#3",
          "ticks": 3840,
          "time": 20.425536,
          "velocity": 0.6299212598425197
        },
        {
          "duration": 3.7446816,
          "durationTicks": 704,
          "midi": 54,
          "name": "F#3",
          "ticks": 3870,
          "time": 20.585110500000003,
          "velocity": 0.4409448818897638
        },
        {
          "duration": 9.648938100000002,
          "durationTicks": 1814,
          "midi": 42,
          "name": "F#2",
          "ticks": 3900,
          "time": 20.744685,
          "velocity": 0.905511811023622
        },
        {
          "duration": 3.7446816,
          "durationTicks": 704,
          "midi": 54,
          "name": "F#3",
          "ticks": 3900,
          "time": 20.744685,
          "velocity": 0.6299212598425197
        },
        {
          "duration": 3.7446816,
          "durationTicks": 704,
          "midi": 54,
          "name": "F#3",
          "ticks": 3930,
          "time": 20.904259500000002,
          "velocity": 0.4409448818897638
        },
        {
          "duration": 9.968087100000002,
          "durationTicks": 1874,
          "midi": 42,
          "name": "F#2",
          "ticks": 3960,
          "time": 21.063834,
          "velocity": 0.905511811023622
        },
        {
          "duration": 3.7446816,
          "durationTicks": 704,
          "midi": 54,
          "name": "F#3",
          "ticks": 3960,
          "time": 21.063834,
          "velocity": 0.6299212598425197
        },
        {
          "duration": 3.9042561000000013,
          "durationTicks": 734,
          "midi": 54,
          "name": "F#3",
          "ticks": 3990,
          "time": 21.2234085,
          "velocity": 0.4409448818897638
        },
        {
          "duration": 1.6702131000000016,
          "durationTicks": 314,
          "midi": 36,
          "name": "C2",
          "ticks": 4020,
          "time": 21.382983,
          "velocity": 1
        },
        {
          "duration": 10.287236100000001,
          "durationTicks": 1934,
          "midi": 42,
          "name": "F#2",
          "ticks": 4020,
          "time": 21.382983,
          "velocity": 0.905511811023622
        },
        {
          "duration": 3.9042561000000013,
          "durationTicks": 734,
          "midi": 54,
          "name": "F#3",
          "ticks": 4020,
          "time": 21.382983,
          "velocity": 0.6299212598425197
        },
        {
          "duration": 3.9042561000000013,
          "durationTicks": 734,
          "midi": 54,
          "name": "F#3",
          "ticks": 4050,
          "time": 21.5425575,
          "velocity": 0.4409448818897638
        },
        {
          "duration": 2.3085111000000005,
          "durationTicks": 434,
          "midi": 36,
          "name": "C2",
          "ticks": 4080,
          "time": 21.702132000000002,
          "velocity": 1
        },
        {
          "duration": 10.287236100000001,
          "durationTicks": 1934,
          "midi": 42,
          "name": "F#2",
          "ticks": 4080,
          "time": 21.702132000000002,
          "velocity": 0.905511811023622
        },
        {
          "duration": 3.904256099999998,
          "durationTicks": 734,
          "midi": 54,
          "name": "F#3",
          "ticks": 4080,
          "time": 21.702132000000002,
          "velocity": 0.6299212598425197
        },
        {
          "duration": 3.9042561000000013,
          "durationTicks": 734,
          "midi": 54,
          "name": "F#3",
          "ticks": 4110,
          "time": 21.8617065,
          "velocity": 0.4409448818897638
        },
        {
          "duration": 10.287236100000001,
          "durationTicks": 1934,
          "midi": 42,
          "name": "F#2",
          "ticks": 4140,
          "time": 22.021281000000002,
          "velocity": 0.905511811023622
        },
        {
          "duration": 3.9042561000000013,
          "durationTicks": 734,
          "midi": 54,
          "name": "F#3",
          "ticks": 4140,
          "time": 22.021281000000002,
          "velocity": 0.6299212598425197
        },
        {
          "duration": 3.9042561000000013,
          "durationTicks": 734,
          "midi": 54,
          "name": "F#3",
          "ticks": 4170,
          "time": 22.1808555,
          "velocity": 0.4409448818897638
        },
        {
          "duration": 10.6063851,
          "durationTicks": 1994,
          "midi": 42,
          "name": "F#2",
          "ticks": 4200,
          "time": 22.34043,
          "velocity": 0.905511811023622
        },
        {
          "duration": 4.063830599999999,
          "durationTicks": 764,
          "midi": 54,
          "name": "F#3",
          "ticks": 4200,
          "time": 22.34043,
          "velocity": 0.6299212598425197
        },
        {
          "duration": 4.063830599999999,
          "durationTicks": 764,
          "midi": 54,
          "name": "F#3",
          "ticks": 4230,
          "time": 22.500004500000003,
          "velocity": 0.4409448818897638
        },
        {
          "duration": 1.6702131000000016,
          "durationTicks": 314,
          "midi": 36,
          "name": "C2",
          "ticks": 4260,
          "time": 22.659579,
          "velocity": 1
        },
        {
          "duration": 10.606385100000004,
          "durationTicks": 1994,
          "midi": 42,
          "name": "F#2",
          "ticks": 4260,
          "time": 22.659579,
          "velocity": 0.905511811023622
        },
        {
          "duration": 4.063830599999999,
          "durationTicks": 764,
          "midi": 54,
          "name": "F#3",
          "ticks": 4260,
          "time": 22.659579,
          "velocity": 0.6299212598425197
        },
        {
          "duration": 4.063830599999999,
          "durationTicks": 764,
          "midi": 54,
          "name": "F#3",
          "ticks": 4290,
          "time": 22.819153500000002,
          "velocity": 0.4409448818897638
        },
        {
          "duration": 1.6702131000000016,
          "durationTicks": 314,
          "midi": 36,
          "name": "C2",
          "ticks": 4320,
          "time": 22.978728,
          "velocity": 1
        },
        {
          "duration": 10.6063851,
          "durationTicks": 1994,
          "midi": 42,
          "name": "F#2",
          "ticks": 4320,
          "time": 22.978728,
          "velocity": 0.905511811023622
        },
        {
          "duration": 4.063830600000003,
          "durationTicks": 764,
          "midi": 54,
          "name": "F#3",
          "ticks": 4320,
          "time": 22.978728,
          "velocity": 0.6299212598425197
        },
        {
          "duration": 4.063830599999999,
          "durationTicks": 764,
          "midi": 54,
          "name": "F#3",
          "ticks": 4350,
          "time": 23.1383025,
          "velocity": 0.4409448818897638
        },
        {
          "duration": 10.9255341,
          "durationTicks": 2054,
          "midi": 42,
          "name": "F#2",
          "ticks": 4380,
          "time": 23.297877,
          "velocity": 0.905511811023622
        },
        {
          "duration": 4.063830600000003,
          "durationTicks": 764,
          "midi": 54,
          "name": "F#3",
          "ticks": 4380,
          "time": 23.297877,
          "velocity": 0.6299212598425197
        },
        {
          "duration": 4.223405100000001,
          "durationTicks": 794,
          "midi": 54,
          "name": "F#3",
          "ticks": 4410,
          "time": 23.4574515,
          "velocity": 0.4409448818897638
        },
        {
          "duration": 10.9255341,
          "durationTicks": 2054,
          "midi": 42,
          "name": "F#2",
          "ticks": 4440,
          "time": 23.617026000000003,
          "velocity": 0.905511811023622
        },
        {
          "duration": 4.223405099999997,
          "durationTicks": 794,
          "midi": 54,
          "name": "F#3",
          "ticks": 4440,
          "time": 23.617026000000003,
          "velocity": 0.6299212598425197
        },
        {
          "duration": 4.223405100000001,
          "durationTicks": 794,
          "midi": 54,
          "name": "F#3",
          "ticks": 4470,
          "time": 23.7766005,
          "velocity": 0.4409448818897638
        },
        {
          "duration": 1.3510640999999985,
          "durationTicks": 254,
          "midi": 36,
          "name": "C2",
          "ticks": 4500,
          "time": 23.936175000000002,
          "velocity": 1
        },
        {
          "duration": 11.563832100000003,
          "durationTicks": 2174,
          "midi": 42,
          "name": "F#2",
          "ticks": 4500,
          "time": 23.936175000000002,
          "velocity": 0.905511811023622
        },
        {
          "duration": 4.223405100000001,
          "durationTicks": 794,
          "midi": 54,
          "name": "F#3",
          "ticks": 4500,
          "time": 23.936175000000002,
          "velocity": 0.6299212598425197
        },
        {
          "duration": 4.223405100000001,
          "durationTicks": 794,
          "midi": 54,
          "name": "F#3",
          "ticks": 4530,
          "time": 24.0957495,
          "velocity": 0.4409448818897638
        },
        {
          "duration": 1.3510640999999985,
          "durationTicks": 254,
          "midi": 36,
          "name": "C2",
          "ticks": 4560,
          "time": 24.255324,
          "velocity": 1
        },
        {
          "duration": 11.882981100000002,
          "durationTicks": 2234,
          "midi": 42,
          "name": "F#2",
          "ticks": 4560,
          "time": 24.255324,
          "velocity": 0.905511811023622
        },
        {
          "duration": 4.223405100000001,
          "durationTicks": 794,
          "midi": 54,
          "name": "F#3",
          "ticks": 4560,
          "time": 24.255324,
          "velocity": 0.6299212598425197
        },
        {
          "duration": 4.223405100000001,
          "durationTicks": 794,
          "midi": 54,
          "name": "F#3",
          "ticks": 4590,
          "time": 24.4148985,
          "velocity": 0.4409448818897638
        },
        {
          "duration": 0.0744681000000007,
          "durationTicks": 14,
          "midi": 35,
          "name": "B1",
          "ticks": 4620,
          "time": 24.574473,
          "velocity": 0.905511811023622
        },
        {
          "duration": 0.0744681000000007,
          "durationTicks": 14,
          "midi": 46,
          "name": "A#2",
          "ticks": 4620,
          "time": 24.574473,
          "velocity": 0.905511811023622
        },
        {
          "duration": 1.989362100000001,
          "durationTicks": 374,
          "midi": 36,
          "name": "C2",
          "ticks": 4620,
          "time": 24.574473,
          "velocity": 0.8661417322834646
        },
        {
          "duration": 4.382979600000002,
          "durationTicks": 824,
          "midi": 54,
          "name": "F#3",
          "ticks": 4620,
          "time": 24.574473,
          "velocity": 0.6299212598425197
        },
        {
          "duration": 4.382979599999999,
          "durationTicks": 824,
          "midi": 54,
          "name": "F#3",
          "ticks": 4650,
          "time": 24.734047500000003,
          "velocity": 0.4409448818897638
        },
        {
          "duration": 11.882981100000002,
          "durationTicks": 2234,
          "midi": 42,
          "name": "F#2",
          "ticks": 4680,
          "time": 24.893622,
          "velocity": 0.905511811023622
        },
        {
          "duration": 4.382979600000002,
          "durationTicks": 824,
          "midi": 54,
          "name": "F#3",
          "ticks": 4680,
          "time": 24.893622,
          "velocity": 0.6299212598425197
        },
        {
          "duration": 4.382979599999999,
          "durationTicks": 824,
          "midi": 54,
          "name": "F#3",
          "ticks": 4710,
          "time": 25.053196500000002,
          "velocity": 0.4409448818897638
        },
        {
          "duration": 1.6702131000000016,
          "durationTicks": 314,
          "midi": 36,
          "name": "C2",
          "ticks": 4740,
          "time": 25.212771,
          "velocity": 1
        },
        {
          "duration": 11.882981100000006,
          "durationTicks": 2234,
          "midi": 42,
          "name": "F#2",
          "ticks": 4740,
          "time": 25.212771,
          "velocity": 0.905511811023622
        },
        {
          "duration": 4.382979600000002,
          "durationTicks": 824,
          "midi": 54,
          "name": "F#3",
          "ticks": 4740,
          "time": 25.212771,
          "velocity": 0.6299212598425197
        },
        {
          "duration": 4.382979599999999,
          "durationTicks": 824,
          "midi": 54,
          "name": "F#3",
          "ticks": 4770,
          "time": 25.3723455,
          "velocity": 0.4409448818897638
        },
        {
          "duration": 2.3085111000000005,
          "durationTicks": 434,
          "midi": 36,
          "name": "C2",
          "ticks": 4800,
          "time": 25.53192,
          "velocity": 1
        },
        {
          "duration": 11.882981100000002,
          "durationTicks": 2234,
          "midi": 42,
          "name": "F#2",
          "ticks": 4800,
          "time": 25.53192,
          "velocity": 0.905511811023622
        },
        {
          "duration": 4.382979600000002,
          "durationTicks": 824,
          "midi": 54,
          "name": "F#3",
          "ticks": 4800,
          "time": 25.53192,
          "velocity": 0.6299212598425197
        },
        {
          "duration": 4.5425541,
          "durationTicks": 854,
          "midi": 54,
          "name": "F#3",
          "ticks": 4830,
          "time": 25.6914945,
          "velocity": 0.4409448818897638
        },
        {
          "duration": 12.202130099999998,
          "durationTicks": 2294,
          "midi": 42,
          "name": "F#2",
          "ticks": 4860,
          "time": 25.851069000000003,
          "velocity": 0.905511811023622
        },
        {
          "duration": 4.5425541,
          "durationTicks": 854,
          "midi": 54,
          "name": "F#3",
          "ticks": 4860,
          "time": 25.851069000000003,
          "velocity": 0.6299212598425197
        },
        {
          "duration": 4.5425541,
          "durationTicks": 854,
          "midi": 54,
          "name": "F#3",
          "ticks": 4890,
          "time": 26.0106435,
          "velocity": 0.4409448818897638
        },
        {
          "duration": 12.202130100000002,
          "durationTicks": 2294,
          "midi": 42,
          "name": "F#2",
          "ticks": 4920,
          "time": 26.170218000000002,
          "velocity": 0.905511811023622
        },
        {
          "duration": 4.702128599999998,
          "durationTicks": 884,
          "midi": 54,
          "name": "F#3",
          "ticks": 4920,
          "time": 26.170218000000002,
          "velocity": 0.6299212598425197
        },
        {
          "duration": 4.702128600000002,
          "durationTicks": 884,
          "midi": 54,
          "name": "F#3",
          "ticks": 4950,
          "time": 26.3297925,
          "velocity": 0.4409448818897638
        },
        {
          "duration": 1.6702131000000016,
          "durationTicks": 314,
          "midi": 36,
          "name": "C2",
          "ticks": 4980,
          "time": 26.489367,
          "velocity": 1
        },
        {
          "duration": 12.202130099999998,
          "durationTicks": 2294,
          "midi": 42,
          "name": "F#2",
          "ticks": 4980,
          "time": 26.489367,
          "velocity": 0.905511811023622
        },
        {
          "duration": 4.702128600000002,
          "durationTicks": 884,
          "midi": 54,
          "name": "F#3",
          "ticks": 4980,
          "time": 26.489367,
          "velocity": 0.6299212598425197
        },
        {
          "duration": 4.8617031,
          "durationTicks": 914,
          "midi": 54,
          "name": "F#3",
          "ticks": 5010,
          "time": 26.648941500000003,
          "velocity": 0.4409448818897638
        },
        {
          "duration": 2.3085111000000005,
          "durationTicks": 434,
          "midi": 36,
          "name": "C2",
          "ticks": 5040,
          "time": 26.808516,
          "velocity": 1
        },
        {
          "duration": 12.521279100000005,
          "durationTicks": 2354,
          "midi": 42,
          "name": "F#2",
          "ticks": 5040,
          "time": 26.808516,
          "velocity": 0.905511811023622
        },
        {
          "duration": 4.8617031,
          "durationTicks": 914,
          "midi": 54,
          "name": "F#3",
          "ticks": 5040,
          "time": 26.808516,
          "velocity": 0.6299212598425197
        },
        {
          "duration": 4.8617031,
          "durationTicks": 914,
          "midi": 54,
          "name": "F#3",
          "ticks": 5070,
          "time": 26.968090500000002,
          "velocity": 0.4409448818897638
        },
        {
          "duration": 12.521279100000001,
          "durationTicks": 2354,
          "midi": 42,
          "name": "F#2",
          "ticks": 5100,
          "time": 27.127665,
          "velocity": 0.905511811023622
        },
        {
          "duration": 4.861703100000003,
          "durationTicks": 914,
          "midi": 54,
          "name": "F#3",
          "ticks": 5100,
          "time": 27.127665,
          "velocity": 0.6299212598425197
        },
        {
          "duration": 4.861703100000003,
          "durationTicks": 914,
          "midi": 54,
          "name": "F#3",
          "ticks": 5130,
          "time": 27.287239500000002,
          "velocity": 0.4409448818897638
        },
        {
          "duration": 13.159577100000003,
          "durationTicks": 2474,
          "midi": 42,
          "name": "F#2",
          "ticks": 5160,
          "time": 27.446814,
          "velocity": 0.905511811023622
        },
        {
          "duration": 4.861703100000003,
          "durationTicks": 914,
          "midi": 54,
          "name": "F#3",
          "ticks": 5160,
          "time": 27.446814,
          "velocity": 0.6299212598425197
        },
        {
          "duration": 4.8617031,
          "durationTicks": 914,
          "midi": 54,
          "name": "F#3",
          "ticks": 5190,
          "time": 27.6063885,
          "velocity": 0.4409448818897638
        },
        {
          "duration": 1.670213099999998,
          "durationTicks": 314,
          "midi": 36,
          "name": "C2",
          "ticks": 5220,
          "time": 27.765963000000003,
          "velocity": 1
        },
        {
          "duration": 13.159577099999996,
          "durationTicks": 2474,
          "midi": 42,
          "name": "F#2",
          "ticks": 5220,
          "time": 27.765963000000003,
          "velocity": 0.905511811023622
        },
        {
          "duration": 5.021277600000001,
          "durationTicks": 944,
          "midi": 54,
          "name": "F#3",
          "ticks": 5220,
          "time": 27.765963000000003,
          "velocity": 0.6299212598425197
        },
        {
          "duration": 5.021277600000001,
          "durationTicks": 944,
          "midi": 54,
          "name": "F#3",
          "ticks": 5250,
          "time": 27.9255375,
          "velocity": 0.4409448818897638
        },
        {
          "duration": 1.670213099999998,
          "durationTicks": 314,
          "midi": 36,
          "name": "C2",
          "ticks": 5280,
          "time": 28.085112000000002,
          "velocity": 1
        },
        {
          "duration": 13.159577099999993,
          "durationTicks": 2474,
          "midi": 42,
          "name": "F#2",
          "ticks": 5280,
          "time": 28.085112000000002,
          "velocity": 0.905511811023622
        },
        {
          "duration": 5.021277599999998,
          "durationTicks": 944,
          "midi": 54,
          "name": "F#3",
          "ticks": 5280,
          "time": 28.085112000000002,
          "velocity": 0.6299212598425197
        },
        {
          "duration": 5.021277600000005,
          "durationTicks": 944,
          "midi": 54,
          "name": "F#3",
          "ticks": 5310,
          "time": 28.2446865,
          "velocity": 0.4409448818897638
        },
        {
          "duration": 13.4787261,
          "durationTicks": 2534,
          "midi": 42,
          "name": "F#2",
          "ticks": 5340,
          "time": 28.404261,
          "velocity": 0.905511811023622
        },
        {
          "duration": 5.021277600000001,
          "durationTicks": 944,
          "midi": 54,
          "name": "F#3",
          "ticks": 5340,
          "time": 28.404261,
          "velocity": 0.6299212598425197
        },
        {
          "duration": 5.021277600000001,
          "durationTicks": 944,
          "midi": 54,
          "name": "F#3",
          "ticks": 5370,
          "time": 28.5638355,
          "velocity": 0.4409448818897638
        },
        {
          "duration": 13.478726099999996,
          "durationTicks": 2534,
          "midi": 42,
          "name": "F#2",
          "ticks": 5400,
          "time": 28.72341,
          "velocity": 0.905511811023622
        },
        {
          "duration": 5.021277599999998,
          "durationTicks": 944,
          "midi": 54,
          "name": "F#3",
          "ticks": 5400,
          "time": 28.72341,
          "velocity": 0.6299212598425197
        },
        {
          "duration": 5.180852099999999,
          "durationTicks": 974,
          "midi": 54,
          "name": "F#3",
          "ticks": 5430,
          "time": 28.882984500000003,
          "velocity": 0.4409448818897638
        },
        {
          "duration": 1.351064100000002,
          "durationTicks": 254,
          "midi": 36,
          "name": "C2",
          "ticks": 5460,
          "time": 29.042559,
          "velocity": 1
        },
        {
          "duration": 13.4787261,
          "durationTicks": 2534,
          "midi": 42,
          "name": "F#2",
          "ticks": 5460,
          "time": 29.042559,
          "velocity": 0.905511811023622
        },
        {
          "duration": 5.180852099999999,
          "durationTicks": 974,
          "midi": 54,
          "name": "F#3",
          "ticks": 5460,
          "time": 29.042559,
          "velocity": 0.6299212598425197
        },
        {
          "duration": 5.180852100000003,
          "durationTicks": 974,
          "midi": 54,
          "name": "F#3",
          "ticks": 5490,
          "time": 29.202133500000002,
          "velocity": 0.4409448818897638
        },
        {
          "duration": 2.3085111000000005,
          "durationTicks": 434,
          "midi": 36,
          "name": "C2",
          "ticks": 5520,
          "time": 29.361708,
          "velocity": 1
        },
        {
          "duration": 13.797875099999999,
          "durationTicks": 2594,
          "midi": 42,
          "name": "F#2",
          "ticks": 5520,
          "time": 29.361708,
          "velocity": 0.905511811023622
        },
        {
          "duration": 5.180852100000003,
          "durationTicks": 974,
          "midi": 54,
          "name": "F#3",
          "ticks": 5520,
          "time": 29.361708,
          "velocity": 0.6299212598425197
        },
        {
          "duration": 5.180852099999999,
          "durationTicks": 974,
          "midi": 54,
          "name": "F#3",
          "ticks": 5550,
          "time": 29.5212825,
          "velocity": 0.4409448818897638
        },
        {
          "duration": 0.07446809999999715,
          "durationTicks": 14,
          "midi": 35,
          "name": "B1",
          "ticks": 5580,
          "time": 29.680857000000003,
          "velocity": 0.905511811023622
        },
        {
          "duration": 0.07446809999999715,
          "durationTicks": 14,
          "midi": 46,
          "name": "A#2",
          "ticks": 5580,
          "time": 29.680857000000003,
          "velocity": 0.905511811023622
        },
        {
          "duration": 2.3085111000000005,
          "durationTicks": 434,
          "midi": 36,
          "name": "C2",
          "ticks": 5580,
          "time": 29.680857000000003,
          "velocity": 0.8661417322834646
        },
        {
          "duration": 5.180852099999996,
          "durationTicks": 974,
          "midi": 54,
          "name": "F#3",
          "ticks": 5580,
          "time": 29.680857000000003,
          "velocity": 0.6299212598425197
        },
        {
          "duration": 5.180852100000003,
          "durationTicks": 974,
          "midi": 54,
          "name": "F#3",
          "ticks": 5610,
          "time": 29.8404315,
          "velocity": 0.4409448818897638
        },
        {
          "duration": 13.478726099999992,
          "durationTicks": 2534,
          "midi": 42,
          "name": "F#2",
          "ticks": 5640,
          "time": 30.000006000000003,
          "velocity": 0.905511811023622
        },
        {
          "duration": 5.340426599999997,
          "durationTicks": 1004,
          "midi": 54,
          "name": "F#3",
          "ticks": 5640,
          "time": 30.000006000000003,
          "velocity": 0.6299212598425197
        },
        {
          "duration": 5.340426600000004,
          "durationTicks": 1004,
          "midi": 54,
          "name": "F#3",
          "ticks": 5670,
          "time": 30.1595805,
          "velocity": 0.4409448818897638
        },
        {
          "duration": 2.6276601,
          "durationTicks": 494,
          "midi": 36,
          "name": "C2",
          "ticks": 5700,
          "time": 30.319155000000002,
          "velocity": 1
        },
        {
          "duration": 13.478726099999996,
          "durationTicks": 2534,
          "midi": 42,
          "name": "F#2",
          "ticks": 5700,
          "time": 30.319155000000002,
          "velocity": 0.905511811023622
        },
        {
          "duration": 5.340426600000001,
          "durationTicks": 1004,
          "midi": 54,
          "name": "F#3",
          "ticks": 5700,
          "time": 30.319155000000002,
          "velocity": 0.6299212598425197
        },
        {
          "duration": 5.500001099999999,
          "durationTicks": 1034,
          "midi": 54,
          "name": "F#3",
          "ticks": 5730,
          "time": 30.4787295,
          "velocity": 0.4409448818897638
        },
        {
          "duration": 2.6276601000000035,
          "durationTicks": 494,
          "midi": 36,
          "name": "C2",
          "ticks": 5760,
          "time": 30.638304,
          "velocity": 1
        },
        {
          "duration": 13.797875099999995,
          "durationTicks": 2594,
          "midi": 42,
          "name": "F#2",
          "ticks": 5760,
          "time": 30.638304,
          "velocity": 0.905511811023622
        },
        {
          "duration": 5.500001100000002,
          "durationTicks": 1034,
          "midi": 54,
          "name": "F#3",
          "ticks": 5760,
          "time": 30.638304,
          "velocity": 0.6299212598425197
        },
        {
          "duration": 5.500001099999999,
          "durationTicks": 1034,
          "midi": 54,
          "name": "F#3",
          "ticks": 5790,
          "time": 30.797878500000003,
          "velocity": 0.4409448818897638
        },
        {
          "duration": 13.797875099999999,
          "durationTicks": 2594,
          "midi": 42,
          "name": "F#2",
          "ticks": 5820,
          "time": 30.957453,
          "velocity": 0.905511811023622
        },
        {
          "duration": 5.659575600000004,
          "durationTicks": 1064,
          "midi": 54,
          "name": "F#3",
          "ticks": 5820,
          "time": 30.957453,
          "velocity": 0.6299212598425197
        },
        {
          "duration": 5.6595756,
          "durationTicks": 1064,
          "midi": 54,
          "name": "F#3",
          "ticks": 5850,
          "time": 31.117027500000003,
          "velocity": 0.4409448818897638
        },
        {
          "duration": 14.436173099999994,
          "durationTicks": 2714,
          "midi": 42,
          "name": "F#2",
          "ticks": 5880,
          "time": 31.276602,
          "velocity": 0.905511811023622
        },
        {
          "duration": 5.6595756,
          "durationTicks": 1064,
          "midi": 54,
          "name": "F#3",
          "ticks": 5880,
          "time": 31.276602,
          "velocity": 0.6299212598425197
        },
        {
          "duration": 5.659575600000004,
          "durationTicks": 1064,
          "midi": 54,
          "name": "F#3",
          "ticks": 5910,
          "time": 31.436176500000002,
          "velocity": 0.4409448818897638
        },
        {
          "duration": 2.6276601,
          "durationTicks": 494,
          "midi": 36,
          "name": "C2",
          "ticks": 5940,
          "time": 31.595751,
          "velocity": 1
        },
        {
          "duration": 14.7553221,
          "durationTicks": 2774,
          "midi": 42,
          "name": "F#2",
          "ticks": 5940,
          "time": 31.595751,
          "velocity": 0.905511811023622
        },
        {
          "duration": 5.659575600000004,
          "durationTicks": 1064,
          "midi": 54,
          "name": "F#3",
          "ticks": 5940,
          "time": 31.595751,
          "velocity": 0.6299212598425197
        },
        {
          "duration": 5.6595756,
          "durationTicks": 1064,
          "midi": 54,
          "name": "F#3",
          "ticks": 5970,
          "time": 31.7553255,
          "velocity": 0.4409448818897638
        },
        {
          "duration": 2.6276601,
          "durationTicks": 494,
          "midi": 36,
          "name": "C2",
          "ticks": 6000,
          "time": 31.914900000000003,
          "velocity": 1
        },
        {
          "duration": 15.074471099999997,
          "durationTicks": 2834,
          "midi": 42,
          "name": "F#2",
          "ticks": 6000,
          "time": 31.914900000000003,
          "velocity": 0.905511811023622
        },
        {
          "duration": 5.659575599999997,
          "durationTicks": 1064,
          "midi": 54,
          "name": "F#3",
          "ticks": 6000,
          "time": 31.914900000000003,
          "velocity": 0.6299212598425197
        },
        {
          "duration": 5.819150100000002,
          "durationTicks": 1094,
          "midi": 54,
          "name": "F#3",
          "ticks": 6030,
          "time": 32.0744745,
          "velocity": 0.4409448818897638
        },
        {
          "duration": 15.074471099999997,
          "durationTicks": 2834,
          "midi": 42,
          "name": "F#2",
          "ticks": 6060,
          "time": 32.234049,
          "velocity": 0.905511811023622
        },
        {
          "duration": 5.819150100000002,
          "durationTicks": 1094,
          "midi": 54,
          "name": "F#3",
          "ticks": 6060,
          "time": 32.234049,
          "velocity": 0.6299212598425197
        },
        {
          "duration": 5.819150100000002,
          "durationTicks": 1094,
          "midi": 54,
          "name": "F#3",
          "ticks": 6090,
          "time": 32.393623500000004,
          "velocity": 0.4409448818897638
        },
        {
          "duration": 15.074471099999997,
          "durationTicks": 2834,
          "midi": 42,
          "name": "F#2",
          "ticks": 6120,
          "time": 32.553198,
          "velocity": 0.905511811023622
        },
        {
          "duration": 5.819150100000002,
          "durationTicks": 1094,
          "midi": 54,
          "name": "F#3",
          "ticks": 6120,
          "time": 32.553198,
          "velocity": 0.6299212598425197
        },
        {
          "duration": 5.819150100000002,
          "durationTicks": 1094,
          "midi": 54,
          "name": "F#3",
          "ticks": 6150,
          "time": 32.7127725,
          "velocity": 0.4409448818897638
        },
        {
          "duration": 1.989362099999994,
          "durationTicks": 374,
          "midi": 36,
          "name": "C2",
          "ticks": 6180,
          "time": 32.872347000000005,
          "velocity": 1
        },
        {
          "duration": 15.393620099999993,
          "durationTicks": 2894,
          "midi": 42,
          "name": "F#2",
          "ticks": 6180,
          "time": 32.872347000000005,
          "velocity": 0.905511811023622
        },
        {
          "duration": 5.8191500999999946,
          "durationTicks": 1094,
          "midi": 54,
          "name": "F#3",
          "ticks": 6180,
          "time": 32.872347000000005,
          "velocity": 0.6299212598425197
        },
        {
          "duration": 5.819150100000002,
          "durationTicks": 1094,
          "midi": 54,
          "name": "F#3",
          "ticks": 6210,
          "time": 33.0319215,
          "velocity": 0.4409448818897638
        },
        {
          "duration": 2.308511100000004,
          "durationTicks": 434,
          "midi": 36,
          "name": "C2",
          "ticks": 6240,
          "time": 33.191496,
          "velocity": 1
        },
        {
          "duration": 15.3936201,
          "durationTicks": 2894,
          "midi": 42,
          "name": "F#2",
          "ticks": 6240,
          "time": 33.191496,
          "velocity": 0.905511811023622
        },
        {
          "duration": 5.9787246,
          "durationTicks": 1124,
          "midi": 54,
          "name": "F#3",
          "ticks": 6240,
          "time": 33.191496,
          "velocity": 0.6299212598425197
        },
        {
          "duration": 5.978724600000007,
          "durationTicks": 1124,
          "midi": 54,
          "name": "F#3",
          "ticks": 6270,
          "time": 33.3510705,
          "velocity": 0.4409448818897638
        },
        {
          "duration": 15.393620099999993,
          "durationTicks": 2894,
          "midi": 42,
          "name": "F#2",
          "ticks": 6300,
          "time": 33.510645000000004,
          "velocity": 0.905511811023622
        },
        {
          "duration": 5.9787246,
          "durationTicks": 1124,
          "midi": 54,
          "name": "F#3",
          "ticks": 6300,
          "time": 33.510645000000004,
          "velocity": 0.6299212598425197
        },
        {
          "duration": 5.9787246,
          "durationTicks": 1124,
          "midi": 54,
          "name": "F#3",
          "ticks": 6330,
          "time": 33.6702195,
          "velocity": 0.4409448818897638
        },
        {
          "duration": 15.712769099999996,
          "durationTicks": 2954,
          "midi": 42,
          "name": "F#2",
          "ticks": 6360,
          "time": 33.829794,
          "velocity": 0.905511811023622
        },
        {
          "duration": 5.9787246,
          "durationTicks": 1124,
          "midi": 54,
          "name": "F#3",
          "ticks": 6360,
          "time": 33.829794,
          "velocity": 0.6299212598425197
        },
        {
          "duration": 5.9787246,
          "durationTicks": 1124,
          "midi": 54,
          "name": "F#3",
          "ticks": 6390,
          "time": 33.989368500000005,
          "velocity": 0.4409448818897638
        },
        {
          "duration": 2.6276601,
          "durationTicks": 494,
          "midi": 36,
          "name": "C2",
          "ticks": 6420,
          "time": 34.148943,
          "velocity": 1
        },
        {
          "duration": 15.712769099999996,
          "durationTicks": 2954,
          "midi": 42,
          "name": "F#2",
          "ticks": 6420,
          "time": 34.148943,
          "velocity": 0.905511811023622
        },
        {
          "duration": 5.9787246,
          "durationTicks": 1124,
          "midi": 54,
          "name": "F#3",
          "ticks": 6420,
          "time": 34.148943,
          "velocity": 0.6299212598425197
        },
        {
          "duration": 6.138299100000005,
          "durationTicks": 1154,
          "midi": 54,
          "name": "F#3",
          "ticks": 6450,
          "time": 34.3085175,
          "velocity": 0.4409448818897638
        },
        {
          "duration": 2.627660100000007,
          "durationTicks": 494,
          "midi": 36,
          "name": "C2",
          "ticks": 6480,
          "time": 34.468092,
          "velocity": 1
        },
        {
          "duration": 16.3510671,
          "durationTicks": 3074,
          "midi": 42,
          "name": "F#2",
          "ticks": 6480,
          "time": 34.468092,
          "velocity": 0.905511811023622
        },
        {
          "duration": 6.138299100000005,
          "durationTicks": 1154,
          "midi": 54,
          "name": "F#3",
          "ticks": 6480,
          "time": 34.468092,
          "velocity": 0.6299212598425197
        },
        {
          "duration": 6.138299099999998,
          "durationTicks": 1154,
          "midi": 54,
          "name": "F#3",
          "ticks": 6510,
          "time": 34.627666500000004,
          "velocity": 0.4409448818897638
        },
        {
          "duration": 0.07446809999999715,
          "durationTicks": 14,
          "midi": 35,
          "name": "B1",
          "ticks": 6540,
          "time": 34.787241,
          "velocity": 0.905511811023622
        },
        {
          "duration": 0.07446809999999715,
          "durationTicks": 14,
          "midi": 46,
          "name": "A#2",
          "ticks": 6540,
          "time": 34.787241,
          "velocity": 0.905511811023622
        },
        {
          "duration": 3.265958099999999,
          "durationTicks": 614,
          "midi": 36,
          "name": "C2",
          "ticks": 6540,
          "time": 34.787241,
          "velocity": 0.8661417322834646
        },
        {
          "duration": 6.138299099999998,
          "durationTicks": 1154,
          "midi": 54,
          "name": "F#3",
          "ticks": 6540,
          "time": 34.787241,
          "velocity": 0.6299212598425197
        },
        {
          "duration": 6.138299099999998,
          "durationTicks": 1154,
          "midi": 54,
          "name": "F#3",
          "ticks": 6570,
          "time": 34.9468155,
          "velocity": 0.4409448818897638
        },
        {
          "duration": 16.03191809999999,
          "durationTicks": 3014,
          "midi": 42,
          "name": "F#2",
          "ticks": 6600,
          "time": 35.106390000000005,
          "velocity": 0.905511811023622
        },
        {
          "duration": 6.1382990999999905,
          "durationTicks": 1154,
          "midi": 54,
          "name": "F#3",
          "ticks": 6600,
          "time": 35.106390000000005,
          "velocity": 0.6299212598425197
        },
        {
          "duration": 6.138299099999998,
          "durationTicks": 1154,
          "midi": 54,
          "name": "F#3",
          "ticks": 6630,
          "time": 35.2659645,
          "velocity": 0.4409448818897638
        },
        {
          "duration": 2.946809100000003,
          "durationTicks": 554,
          "midi": 36,
          "name": "C2",
          "ticks": 6660,
          "time": 35.425539,
          "velocity": 1
        },
        {
          "duration": 16.0319181,
          "durationTicks": 3014,
          "midi": 42,
          "name": "F#2",
          "ticks": 6660,
          "time": 35.425539,
          "velocity": 0.905511811023622
        },
        {
          "duration": 6.2978735999999955,
          "durationTicks": 1184,
          "midi": 54,
          "name": "F#3",
          "ticks": 6660,
          "time": 35.425539,
          "velocity": 0.6299212598425197
        },
        {
          "duration": 6.297873600000003,
          "durationTicks": 1184,
          "midi": 54,
          "name": "F#3",
          "ticks": 6690,
          "time": 35.5851135,
          "velocity": 0.4409448818897638
        },
        {
          "duration": 3.585107100000002,
          "durationTicks": 674,
          "midi": 36,
          "name": "C2",
          "ticks": 6720,
          "time": 35.744688000000004,
          "velocity": 1
        },
        {
          "duration": 16.351067099999995,
          "durationTicks": 3074,
          "midi": 42,
          "name": "F#2",
          "ticks": 6720,
          "time": 35.744688000000004,
          "velocity": 0.905511811023622
        },
        {
          "duration": 6.2978735999999955,
          "durationTicks": 1184,
          "midi": 54,
          "name": "F#3",
          "ticks": 6720,
          "time": 35.744688000000004,
          "velocity": 0.6299212598425197
        },
        {
          "duration": 6.2978735999999955,
          "durationTicks": 1184,
          "midi": 54,
          "name": "F#3",
          "ticks": 6750,
          "time": 35.9042625,
          "velocity": 0.4409448818897638
        },
        {
          "duration": 16.3510671,
          "durationTicks": 3074,
          "midi": 42,
          "name": "F#2",
          "ticks": 6780,
          "time": 36.063837,
          "velocity": 0.905511811023622
        },
        {
          "duration": 6.2978735999999955,
          "durationTicks": 1184,
          "midi": 54,
          "name": "F#3",
          "ticks": 6780,
          "time": 36.063837,
          "velocity": 0.6299212598425197
        },
        {
          "duration": 6.2978735999999955,
          "durationTicks": 1184,
          "midi": 54,
          "name": "F#3",
          "ticks": 6810,
          "time": 36.223411500000005,
          "velocity": 0.4409448818897638
        },
        {
          "duration": 16.351067099999995,
          "durationTicks": 3074,
          "midi": 42,
          "name": "F#2",
          "ticks": 6840,
          "time": 36.382986,
          "velocity": 0.905511811023622
        },
        {
          "duration": 6.2978735999999955,
          "durationTicks": 1184,
          "midi": 54,
          "name": "F#3",
          "ticks": 6840,
          "time": 36.382986,
          "velocity": 0.6299212598425197
        },
        {
          "duration": 6.457448100000001,
          "durationTicks": 1214,
          "midi": 54,
          "name": "F#3",
          "ticks": 6870,
          "time": 36.5425605,
          "velocity": 0.4409448818897638
        },
        {
          "duration": 2.946809100000003,
          "durationTicks": 554,
          "midi": 36,
          "name": "C2",
          "ticks": 6900,
          "time": 36.702135,
          "velocity": 1
        },
        {
          "duration": 16.670216099999998,
          "durationTicks": 3134,
          "midi": 42,
          "name": "F#2",
          "ticks": 6900,
          "time": 36.702135,
          "velocity": 0.905511811023622
        },
        {
          "duration": 6.457448100000001,
          "durationTicks": 1214,
          "midi": 54,
          "name": "F#3",
          "ticks": 6900,
          "time": 36.702135,
          "velocity": 0.6299212598425197
        },
        {
          "duration": 6.4574480999999935,
          "durationTicks": 1214,
          "midi": 54,
          "name": "F#3",
          "ticks": 6930,
          "time": 36.8617095,
          "velocity": 0.4409448818897638
        },
        {
          "duration": 2.946809100000003,
          "durationTicks": 554,
          "midi": 36,
          "name": "C2",
          "ticks": 6960,
          "time": 37.021284,
          "velocity": 1
        },
        {
          "duration": 16.670216099999998,
          "durationTicks": 3134,
          "midi": 42,
          "name": "F#2",
          "ticks": 6960,
          "time": 37.021284,
          "velocity": 0.905511811023622
        },
        {
          "duration": 6.4574480999999935,
          "durationTicks": 1214,
          "midi": 54,
          "name": "F#3",
          "ticks": 6960,
          "time": 37.021284,
          "velocity": 0.6299212598425197
        },
        {
          "duration": 6.457448100000001,
          "durationTicks": 1214,
          "midi": 54,
          "name": "F#3",
          "ticks": 6990,
          "time": 37.1808585,
          "velocity": 0.4409448818897638
        },
        {
          "duration": 16.670216099999998,
          "durationTicks": 3134,
          "midi": 42,
          "name": "F#2",
          "ticks": 7020,
          "time": 37.340433000000004,
          "velocity": 0.905511811023622
        },
        {
          "duration": 6.4574480999999935,
          "durationTicks": 1214,
          "midi": 54,
          "name": "F#3",
          "ticks": 7020,
          "time": 37.340433000000004,
          "velocity": 0.6299212598425197
        },
        {
          "duration": 6.4574480999999935,
          "durationTicks": 1214,
          "midi": 54,
          "name": "F#3",
          "ticks": 7050,
          "time": 37.5000075,
          "velocity": 0.4409448818897638
        },
        {
          "duration": 16.9893651,
          "durationTicks": 3194,
          "midi": 42,
          "name": "F#2",
          "ticks": 7080,
          "time": 37.659582,
          "velocity": 0.905511811023622
        },
        {
          "duration": 6.6170225999999985,
          "durationTicks": 1244,
          "midi": 54,
          "name": "F#3",
          "ticks": 7080,
          "time": 37.659582,
          "velocity": 0.6299212598425197
        },
        {
          "duration": 6.617022599999991,
          "durationTicks": 1244,
          "midi": 54,
          "name": "F#3",
          "ticks": 7110,
          "time": 37.819156500000005,
          "velocity": 0.4409448818897638
        },
        {
          "duration": 2.6276601,
          "durationTicks": 494,
          "midi": 36,
          "name": "C2",
          "ticks": 7140,
          "time": 37.978731,
          "velocity": 1
        },
        {
          "duration": 16.989365099999993,
          "durationTicks": 3194,
          "midi": 42,
          "name": "F#2",
          "ticks": 7140,
          "time": 37.978731,
          "velocity": 0.905511811023622
        },
        {
          "duration": 6.617022599999991,
          "durationTicks": 1244,
          "midi": 54,
          "name": "F#3",
          "ticks": 7140,
          "time": 37.978731,
          "velocity": 0.6299212598425197
        },
        {
          "duration": 6.6170225999999985,
          "durationTicks": 1244,
          "midi": 54,
          "name": "F#3",
          "ticks": 7170,
          "time": 38.1383055,
          "velocity": 0.4409448818897638
        },
        {
          "duration": 2.6276601,
          "durationTicks": 494,
          "midi": 36,
          "name": "C2",
          "ticks": 7200,
          "time": 38.29788,
          "velocity": 1
        },
        {
          "duration": 17.6276631,
          "durationTicks": 3314,
          "midi": 42,
          "name": "F#2",
          "ticks": 7200,
          "time": 38.29788,
          "velocity": 0.905511811023622
        },
        {
          "duration": 6.6170225999999985,
          "durationTicks": 1244,
          "midi": 54,
          "name": "F#3",
          "ticks": 7200,
          "time": 38.29788,
          "velocity": 0.6299212598425197
        },
        {
          "duration": 6.617022599999991,
          "durationTicks": 1244,
          "midi": 54,
          "name": "F#3",
          "ticks": 7230,
          "time": 38.457454500000004,
          "velocity": 0.4409448818897638
        },
        {
          "duration": 17.946812099999995,
          "durationTicks": 3374,
          "midi": 42,
          "name": "F#2",
          "ticks": 7260,
          "time": 38.617029,
          "velocity": 0.905511811023622
        },
        {
          "duration": 6.6170225999999985,
          "durationTicks": 1244,
          "midi": 54,
          "name": "F#3",
          "ticks": 7260,
          "time": 38.617029,
          "velocity": 0.6299212598425197
        },
        {
          "duration": 6.7765970999999965,
          "durationTicks": 1274,
          "midi": 54,
          "name": "F#3",
          "ticks": 7290,
          "time": 38.7766035,
          "velocity": 0.4409448818897638
        },
        {
          "duration": 18.26596109999999,
          "durationTicks": 3434,
          "midi": 42,
          "name": "F#2",
          "ticks": 7320,
          "time": 38.936178000000005,
          "velocity": 0.905511811023622
        },
        {
          "duration": 6.776597099999989,
          "durationTicks": 1274,
          "midi": 54,
          "name": "F#3",
          "ticks": 7320,
          "time": 38.936178000000005,
          "velocity": 0.6299212598425197
        },
        {
          "duration": 6.7765970999999965,
          "durationTicks": 1274,
          "midi": 54,
          "name": "F#3",
          "ticks": 7350,
          "time": 39.0957525,
          "velocity": 0.4409448818897638
        },
        {
          "duration": 2.6276601,
          "durationTicks": 494,
          "midi": 36,
          "name": "C2",
          "ticks": 7380,
          "time": 39.255327,
          "velocity": 1
        },
        {
          "duration": 18.2659611,
          "durationTicks": 3434,
          "midi": 42,
          "name": "F#2",
          "ticks": 7380,
          "time": 39.255327,
          "velocity": 0.905511811023622
        },
        {
          "duration": 6.936171599999994,
          "durationTicks": 1304,
          "midi": 54,
          "name": "F#3",
          "ticks": 7380,
          "time": 39.255327,
          "velocity": 0.6299212598425197
        },
        {
          "duration": 6.9361716000000015,
          "durationTicks": 1304,
          "midi": 54,
          "name": "F#3",
          "ticks": 7410,
          "time": 39.4149015,
          "velocity": 0.4409448818897638
        },
        {
          "duration": 2.627660099999993,
          "durationTicks": 494,
          "midi": 36,
          "name": "C2",
          "ticks": 7440,
          "time": 39.574476000000004,
          "velocity": 1
        },
        {
          "duration": 18.26596109999999,
          "durationTicks": 3434,
          "midi": 42,
          "name": "F#2",
          "ticks": 7440,
          "time": 39.574476000000004,
          "velocity": 0.905511811023622
        },
        {
          "duration": 6.936171599999994,
          "durationTicks": 1304,
          "midi": 54,
          "name": "F#3",
          "ticks": 7440,
          "time": 39.574476000000004,
          "velocity": 0.6299212598425197
        },
        {
          "duration": 7.0957460999999995,
          "durationTicks": 1334,
          "midi": 54,
          "name": "F#3",
          "ticks": 7470,
          "time": 39.7340505,
          "velocity": 0.4409448818897638
        },
        {
          "duration": 0.07446810000000426,
          "durationTicks": 14,
          "midi": 35,
          "name": "B1",
          "ticks": 7500,
          "time": 39.893625,
          "velocity": 0.905511811023622
        },
        {
          "duration": 0.07446810000000426,
          "durationTicks": 14,
          "midi": 46,
          "name": "A#2",
          "ticks": 7500,
          "time": 39.893625,
          "velocity": 0.905511811023622
        },
        {
          "duration": 3.265958099999999,
          "durationTicks": 614,
          "midi": 36,
          "name": "C2",
          "ticks": 7500,
          "time": 39.893625,
          "velocity": 0.8661417322834646
        },
        {
          "duration": 7.0957460999999995,
          "durationTicks": 1334,
          "midi": 54,
          "name": "F#3",
          "ticks": 7500,
          "time": 39.893625,
          "velocity": 0.6299212598425197
        },
        {
          "duration": 7.095746099999992,
          "durationTicks": 1334,
          "midi": 54,
          "name": "F#3",
          "ticks": 7530,
          "time": 40.053199500000005,
          "velocity": 0.4409448818897638
        },
        {
          "duration": 18.2659611,
          "durationTicks": 3434,
          "midi": 42,
          "name": "F#2",
          "ticks": 7560,
          "time": 40.212774,
          "velocity": 0.905511811023622
        },
        {
          "duration": 7.095746099999992,
          "durationTicks": 1334,
          "midi": 54,
          "name": "F#3",
          "ticks": 7560,
          "time": 40.212774,
          "velocity": 0.6299212598425197
        },
        {
          "duration": 7.0957460999999995,
          "durationTicks": 1334,
          "midi": 54,
          "name": "F#3",
          "ticks": 7590,
          "time": 40.3723485,
          "velocity": 0.4409448818897638
        },
        {
          "duration": 2.946809099999996,
          "durationTicks": 554,
          "midi": 36,
          "name": "C2",
          "ticks": 7620,
          "time": 40.531923,
          "velocity": 1
        },
        {
          "duration": 18.2659611,
          "durationTicks": 3434,
          "midi": 42,
          "name": "F#2",
          "ticks": 7620,
          "time": 40.531923,
          "velocity": 0.905511811023622
        },
        {
          "duration": 7.0957460999999995,
          "durationTicks": 1334,
          "midi": 54,
          "name": "F#3",
          "ticks": 7620,
          "time": 40.531923,
          "velocity": 0.6299212598425197
        },
        {
          "duration": 7.095746099999992,
          "durationTicks": 1334,
          "midi": 54,
          "name": "F#3",
          "ticks": 7650,
          "time": 40.691497500000004,
          "velocity": 0.4409448818897638
        },
        {
          "duration": 3.5851070999999948,
          "durationTicks": 674,
          "midi": 36,
          "name": "C2",
          "ticks": 7680,
          "time": 40.851072,
          "velocity": 1
        },
        {
          "duration": 18.2659611,
          "durationTicks": 3434,
          "midi": 42,
          "name": "F#2",
          "ticks": 7680,
          "time": 40.851072,
          "velocity": 0.905511811023622
        },
        {
          "duration": 7.2553205999999975,
          "durationTicks": 1364,
          "midi": 54,
          "name": "F#3",
          "ticks": 7680,
          "time": 40.851072,
          "velocity": 0.6299212598425197
        },
        {
          "duration": 7.2553205999999975,
          "durationTicks": 1364,
          "midi": 54,
          "name": "F#3",
          "ticks": 7710,
          "time": 41.0106465,
          "velocity": 0.4409448818897638
        },
        {
          "duration": 18.585110099999994,
          "durationTicks": 3494,
          "midi": 42,
          "name": "F#2",
          "ticks": 7740,
          "time": 41.170221000000005,
          "velocity": 0.905511811023622
        },
        {
          "duration": 7.25532059999999,
          "durationTicks": 1364,
          "midi": 54,
          "name": "F#3",
          "ticks": 7740,
          "time": 41.170221000000005,
          "velocity": 0.6299212598425197
        },
        {
          "duration": 7.2553205999999975,
          "durationTicks": 1364,
          "midi": 54,
          "name": "F#3",
          "ticks": 7770,
          "time": 41.3297955,
          "velocity": 0.4409448818897638
        },
        {
          "duration": 18.585110099999994,
          "durationTicks": 3494,
          "midi": 42,
          "name": "F#2",
          "ticks": 7800,
          "time": 41.48937,
          "velocity": 0.905511811023622
        },
        {
          "duration": 7.2553205999999975,
          "durationTicks": 1364,
          "midi": 54,
          "name": "F#3",
          "ticks": 7800,
          "time": 41.48937,
          "velocity": 0.6299212598425197
        },
        {
          "duration": 7.2553205999999975,
          "durationTicks": 1364,
          "midi": 54,
          "name": "F#3",
          "ticks": 7830,
          "time": 41.6489445,
          "velocity": 0.4409448818897638
        },
        {
          "duration": 2.946809099999996,
          "durationTicks": 554,
          "midi": 36,
          "name": "C2",
          "ticks": 7860,
          "time": 41.808519000000004,
          "velocity": 1
        },
        {
          "duration": 19.223408099999993,
          "durationTicks": 3614,
          "midi": 42,
          "name": "F#2",
          "ticks": 7860,
          "time": 41.808519000000004,
          "velocity": 0.905511811023622
        },
        {
          "duration": 7.2553205999999975,
          "durationTicks": 1364,
          "midi": 54,
          "name": "F#3",
          "ticks": 7860,
          "time": 41.808519000000004,
          "velocity": 0.6299212598425197
        },
        {
          "duration": 7.414895099999995,
          "durationTicks": 1394,
          "midi": 54,
          "name": "F#3",
          "ticks": 7890,
          "time": 41.9680935,
          "velocity": 0.4409448818897638
        },
        {
          "duration": 2.946809099999996,
          "durationTicks": 554,
          "midi": 36,
          "name": "C2",
          "ticks": 7920,
          "time": 42.127668,
          "velocity": 1
        },
        {
          "duration": 19.2234081,
          "durationTicks": 3614,
          "midi": 42,
          "name": "F#2",
          "ticks": 7920,
          "time": 42.127668,
          "velocity": 0.905511811023622
        },
        {
          "duration": 7.414895099999995,
          "durationTicks": 1394,
          "midi": 54,
          "name": "F#3",
          "ticks": 7920,
          "time": 42.127668,
          "velocity": 0.6299212598425197
        },
        {
          "duration": 7.414895099999995,
          "durationTicks": 1394,
          "midi": 54,
          "name": "F#3",
          "ticks": 7950,
          "time": 42.287242500000005,
          "velocity": 0.4409448818897638
        },
        {
          "duration": 19.223408099999993,
          "durationTicks": 3614,
          "midi": 42,
          "name": "F#2",
          "ticks": 7980,
          "time": 42.446817,
          "velocity": 0.905511811023622
        },
        {
          "duration": 7.414895099999995,
          "durationTicks": 1394,
          "midi": 54,
          "name": "F#3",
          "ticks": 7980,
          "time": 42.446817,
          "velocity": 0.6299212598425197
        },
        {
          "duration": 7.414895099999995,
          "durationTicks": 1394,
          "midi": 54,
          "name": "F#3",
          "ticks": 8010,
          "time": 42.6063915,
          "velocity": 0.4409448818897638
        },
        {
          "duration": 19.542557100000003,
          "durationTicks": 3674,
          "midi": 42,
          "name": "F#2",
          "ticks": 8040,
          "time": 42.765966,
          "velocity": 0.905511811023622
        },
        {
          "duration": 7.4148951000000025,
          "durationTicks": 1394,
          "midi": 54,
          "name": "F#3",
          "ticks": 8040,
          "time": 42.765966,
          "velocity": 0.6299212598425197
        },
        {
          "duration": 7.414895099999995,
          "durationTicks": 1394,
          "midi": 54,
          "name": "F#3",
          "ticks": 8070,
          "time": 42.925540500000004,
          "velocity": 0.4409448818897638
        },
        {
          "duration": 2.627660099999993,
          "durationTicks": 494,
          "midi": 36,
          "name": "C2",
          "ticks": 8100,
          "time": 43.085115,
          "velocity": 1
        },
        {
          "duration": 19.542557099999996,
          "durationTicks": 3674,
          "midi": 42,
          "name": "F#2",
          "ticks": 8100,
          "time": 43.085115,
          "velocity": 0.905511811023622
        },
        {
          "duration": 7.574469599999993,
          "durationTicks": 1424,
          "midi": 54,
          "name": "F#3",
          "ticks": 8100,
          "time": 43.085115,
          "velocity": 0.6299212598425197
        },
        {
          "duration": 7.5744696000000005,
          "durationTicks": 1424,
          "midi": 54,
          "name": "F#3",
          "ticks": 8130,
          "time": 43.2446895,
          "velocity": 0.4409448818897638
        },
        {
          "duration": 3.5851070999999948,
          "durationTicks": 674,
          "midi": 36,
          "name": "C2",
          "ticks": 8160,
          "time": 43.404264000000005,
          "velocity": 1
        },
        {
          "duration": 19.542557099999996,
          "durationTicks": 3674,
          "midi": 42,
          "name": "F#2",
          "ticks": 8160,
          "time": 43.404264000000005,
          "velocity": 0.905511811023622
        },
        {
          "duration": 7.574469599999993,
          "durationTicks": 1424,
          "midi": 54,
          "name": "F#3",
          "ticks": 8160,
          "time": 43.404264000000005,
          "velocity": 0.6299212598425197
        },
        {
          "duration": 7.574469599999993,
          "durationTicks": 1424,
          "midi": 54,
          "name": "F#3",
          "ticks": 8190,
          "time": 43.5638385,
          "velocity": 0.4409448818897638
        },
        {
          "duration": 19.8617061,
          "durationTicks": 3734,
          "midi": 42,
          "name": "F#2",
          "ticks": 8220,
          "time": 43.723413,
          "velocity": 0.905511811023622
        },
        {
          "duration": 7.5744696000000005,
          "durationTicks": 1424,
          "midi": 54,
          "name": "F#3",
          "ticks": 8220,
          "time": 43.723413,
          "velocity": 0.6299212598425197
        },
        {
          "duration": 7.5744696000000005,
          "durationTicks": 1424,
          "midi": 54,
          "name": "F#3",
          "ticks": 8250,
          "time": 43.8829875,
          "velocity": 0.4409448818897638
        },
        {
          "duration": 19.861706099999992,
          "durationTicks": 3734,
          "midi": 42,
          "name": "F#2",
          "ticks": 8280,
          "time": 44.042562000000004,
          "velocity": 0.905511811023622
        },
        {
          "duration": 7.574469599999993,
          "durationTicks": 1424,
          "midi": 54,
          "name": "F#3",
          "ticks": 8280,
          "time": 44.042562000000004,
          "velocity": 0.6299212598425197
        },
        {
          "duration": 7.734044099999998,
          "durationTicks": 1454,
          "midi": 54,
          "name": "F#3",
          "ticks": 8310,
          "time": 44.2021365,
          "velocity": 0.4409448818897638
        },
        {
          "duration": 2.946809099999996,
          "durationTicks": 554,
          "midi": 36,
          "name": "C2",
          "ticks": 8340,
          "time": 44.361711,
          "velocity": 1
        },
        {
          "duration": 19.861706100000006,
          "durationTicks": 3734,
          "midi": 42,
          "name": "F#2",
          "ticks": 8340,
          "time": 44.361711,
          "velocity": 0.905511811023622
        },
        {
          "duration": 7.734044099999998,
          "durationTicks": 1454,
          "midi": 54,
          "name": "F#3",
          "ticks": 8340,
          "time": 44.361711,
          "velocity": 0.6299212598425197
        },
        {
          "duration": 7.734044099999991,
          "durationTicks": 1454,
          "midi": 54,
          "name": "F#3",
          "ticks": 8370,
          "time": 44.521285500000005,
          "velocity": 0.4409448818897638
        },
        {
          "duration": 3.5851070999999948,
          "durationTicks": 674,
          "midi": 36,
          "name": "C2",
          "ticks": 8400,
          "time": 44.68086,
          "velocity": 1
        },
        {
          "duration": 20.180855099999995,
          "durationTicks": 3794,
          "midi": 42,
          "name": "F#2",
          "ticks": 8400,
          "time": 44.68086,
          "velocity": 0.905511811023622
        },
        {
          "duration": 7.734044099999998,
          "durationTicks": 1454,
          "midi": 54,
          "name": "F#3",
          "ticks": 8400,
          "time": 44.68086,
          "velocity": 0.6299212598425197
        },
        {
          "duration": 7.734044099999998,
          "durationTicks": 1454,
          "midi": 54,
          "name": "F#3",
          "ticks": 8430,
          "time": 44.8404345,
          "velocity": 0.4409448818897638
        },
        {
          "duration": 0.07446809999999005,
          "durationTicks": 14,
          "midi": 35,
          "name": "B1",
          "ticks": 8460,
          "time": 45.000009000000006,
          "velocity": 0.905511811023622
        },
        {
          "duration": 0.07446809999999005,
          "durationTicks": 14,
          "midi": 46,
          "name": "A#2",
          "ticks": 8460,
          "time": 45.000009000000006,
          "velocity": 0.905511811023622
        },
        {
          "duration": 3.5851070999999948,
          "durationTicks": 674,
          "midi": 36,
          "name": "C2",
          "ticks": 8460,
          "time": 45.000009000000006,
          "velocity": 0.8661417322834646
        },
        {
          "duration": 7.734044099999991,
          "durationTicks": 1454,
          "midi": 54,
          "name": "F#3",
          "ticks": 8460,
          "time": 45.000009000000006,
          "velocity": 0.6299212598425197
        },
        {
          "duration": 7.734044099999991,
          "durationTicks": 1454,
          "midi": 54,
          "name": "F#3",
          "ticks": 8490,
          "time": 45.159583500000004,
          "velocity": 0.4409448818897638
        },
        {
          "duration": 19.861706099999992,
          "durationTicks": 3734,
          "midi": 42,
          "name": "F#2",
          "ticks": 8520,
          "time": 45.319158,
          "velocity": 0.905511811023622
        },
        {
          "duration": 7.893618599999996,
          "durationTicks": 1484,
          "midi": 54,
          "name": "F#3",
          "ticks": 8520,
          "time": 45.319158,
          "velocity": 0.6299212598425197
        },
        {
          "duration": 7.893618599999996,
          "durationTicks": 1484,
          "midi": 54,
          "name": "F#3",
          "ticks": 8550,
          "time": 45.4787325,
          "velocity": 0.4409448818897638
        },
        {
          "duration": 3.9042560999999907,
          "durationTicks": 734,
          "midi": 36,
          "name": "C2",
          "ticks": 8580,
          "time": 45.638307000000005,
          "velocity": 1
        },
        {
          "duration": 20.50000409999999,
          "durationTicks": 3854,
          "midi": 42,
          "name": "F#2",
          "ticks": 8580,
          "time": 45.638307000000005,
          "velocity": 0.905511811023622
        },
        {
          "duration": 7.893618599999996,
          "durationTicks": 1484,
          "midi": 54,
          "name": "F#3",
          "ticks": 8580,
          "time": 45.638307000000005,
          "velocity": 0.6299212598425197
        },
        {
          "duration": 7.893618599999996,
          "durationTicks": 1484,
          "midi": 54,
          "name": "F#3",
          "ticks": 8610,
          "time": 45.7978815,
          "velocity": 0.4409448818897638
        },
        {
          "duration": 3.904256099999998,
          "durationTicks": 734,
          "midi": 36,
          "name": "C2",
          "ticks": 8640,
          "time": 45.957456,
          "velocity": 1
        },
        {
          "duration": 20.8191531,
          "durationTicks": 3914,
          "midi": 42,
          "name": "F#2",
          "ticks": 8640,
          "time": 45.957456,
          "velocity": 0.905511811023622
        },
        {
          "duration": 7.893618599999996,
          "durationTicks": 1484,
          "midi": 54,
          "name": "F#3",
          "ticks": 8640,
          "time": 45.957456,
          "velocity": 0.6299212598425197
        },
        {
          "duration": 7.893618599999996,
          "durationTicks": 1484,
          "midi": 54,
          "name": "F#3",
          "ticks": 8670,
          "time": 46.117030500000006,
          "velocity": 0.4409448818897638
        },
        {
          "duration": 21.13830209999999,
          "durationTicks": 3974,
          "midi": 42,
          "name": "F#2",
          "ticks": 8700,
          "time": 46.276605,
          "velocity": 0.905511811023622
        },
        {
          "duration": 7.893618599999996,
          "durationTicks": 1484,
          "midi": 54,
          "name": "F#3",
          "ticks": 8700,
          "time": 46.276605,
          "velocity": 0.6299212598425197
        },
        {
          "duration": 8.053193099999994,
          "durationTicks": 1514,
          "midi": 54,
          "name": "F#3",
          "ticks": 8730,
          "time": 46.4361795,
          "velocity": 0.4409448818897638
        },
        {
          "duration": 21.138302100000004,
          "durationTicks": 3974,
          "midi": 42,
          "name": "F#2",
          "ticks": 8760,
          "time": 46.595754,
          "velocity": 0.905511811023622
        },
        {
          "duration": 8.053193100000001,
          "durationTicks": 1514,
          "midi": 54,
          "name": "F#3",
          "ticks": 8760,
          "time": 46.595754,
          "velocity": 0.6299212598425197
        },
        {
          "duration": 8.053193099999994,
          "durationTicks": 1514,
          "midi": 54,
          "name": "F#3",
          "ticks": 8790,
          "time": 46.755328500000005,
          "velocity": 0.4409448818897638
        },
        {
          "duration": 3.265958099999999,
          "durationTicks": 614,
          "midi": 36,
          "name": "C2",
          "ticks": 8820,
          "time": 46.914903,
          "velocity": 1
        },
        {
          "duration": 21.138302099999997,
          "durationTicks": 3974,
          "midi": 42,
          "name": "F#2",
          "ticks": 8820,
          "time": 46.914903,
          "velocity": 0.905511811023622
        },
        {
          "duration": 8.053193099999994,
          "durationTicks": 1514,
          "midi": 54,
          "name": "F#3",
          "ticks": 8820,
          "time": 46.914903,
          "velocity": 0.6299212598425197
        },
        {
          "duration": 8.053193100000001,
          "durationTicks": 1514,
          "midi": 54,
          "name": "F#3",
          "ticks": 8850,
          "time": 47.0744775,
          "velocity": 0.4409448818897638
        },
        {
          "duration": 3.5851070999999948,
          "durationTicks": 674,
          "midi": 36,
          "name": "C2",
          "ticks": 8880,
          "time": 47.234052000000005,
          "velocity": 1
        },
        {
          "duration": 21.4574511,
          "durationTicks": 4034,
          "midi": 42,
          "name": "F#2",
          "ticks": 8880,
          "time": 47.234052000000005,
          "velocity": 0.905511811023622
        },
        {
          "duration": 8.053193099999994,
          "durationTicks": 1514,
          "midi": 54,
          "name": "F#3",
          "ticks": 8880,
          "time": 47.234052000000005,
          "velocity": 0.6299212598425197
        },
        {
          "duration": 8.053193099999994,
          "durationTicks": 1514,
          "midi": 54,
          "name": "F#3",
          "ticks": 8910,
          "time": 47.3936265,
          "velocity": 0.4409448818897638
        },
        {
          "duration": 21.4574511,
          "durationTicks": 4034,
          "midi": 42,
          "name": "F#2",
          "ticks": 8940,
          "time": 47.553201,
          "velocity": 0.905511811023622
        },
        {
          "duration": 8.2127676,
          "durationTicks": 1544,
          "midi": 54,
          "name": "F#3",
          "ticks": 8940,
          "time": 47.553201,
          "velocity": 0.6299212598425197
        },
        {
          "duration": 8.2127676,
          "durationTicks": 1544,
          "midi": 54,
          "name": "F#3",
          "ticks": 8970,
          "time": 47.7127755,
          "velocity": 0.4409448818897638
        },
        {
          "duration": 21.457451099999993,
          "durationTicks": 4034,
          "midi": 42,
          "name": "F#2",
          "ticks": 9000,
          "time": 47.872350000000004,
          "velocity": 0.905511811023622
        },
        {
          "duration": 8.212767599999992,
          "durationTicks": 1544,
          "midi": 54,
          "name": "F#3",
          "ticks": 9000,
          "time": 47.872350000000004,
          "velocity": 0.6299212598425197
        },
        {
          "duration": 8.372342099999997,
          "durationTicks": 1574,
          "midi": 54,
          "name": "F#3",
          "ticks": 9030,
          "time": 48.0319245,
          "velocity": 0.4409448818897638
        },
        {
          "duration": 2.946809099999996,
          "durationTicks": 554,
          "midi": 36,
          "name": "C2",
          "ticks": 9060,
          "time": 48.191499,
          "velocity": 1
        },
        {
          "duration": 21.776600100000003,
          "durationTicks": 4094,
          "midi": 42,
          "name": "F#2",
          "ticks": 9060,
          "time": 48.191499,
          "velocity": 0.905511811023622
        },
        {
          "duration": 8.372342099999997,
          "durationTicks": 1574,
          "midi": 54,
          "name": "F#3",
          "ticks": 9060,
          "time": 48.191499,
          "velocity": 0.6299212598425197
        },
        {
          "duration": 8.37234209999999,
          "durationTicks": 1574,
          "midi": 54,
          "name": "F#3",
          "ticks": 9090,
          "time": 48.351073500000005,
          "velocity": 0.4409448818897638
        },
        {
          "duration": 3.5851070999999948,
          "durationTicks": 674,
          "midi": 36,
          "name": "C2",
          "ticks": 9120,
          "time": 48.510648,
          "velocity": 1
        },
        {
          "duration": 21.776600099999996,
          "durationTicks": 4094,
          "midi": 42,
          "name": "F#2",
          "ticks": 9120,
          "time": 48.510648,
          "velocity": 0.905511811023622
        },
        {
          "duration": 8.531916599999995,
          "durationTicks": 1604,
          "midi": 54,
          "name": "F#3",
          "ticks": 9120,
          "time": 48.510648,
          "velocity": 0.6299212598425197
        },
        {
          "duration": 8.531916599999995,
          "durationTicks": 1604,
          "midi": 54,
          "name": "F#3",
          "ticks": 9150,
          "time": 48.6702225,
          "velocity": 0.4409448818897638
        },
        {
          "duration": 22.414898100000002,
          "durationTicks": 4214,
          "midi": 42,
          "name": "F#2",
          "ticks": 9180,
          "time": 48.829797,
          "velocity": 0.905511811023622
        },
        {
          "duration": 8.531916600000002,
          "durationTicks": 1604,
          "midi": 54,
          "name": "F#3",
          "ticks": 9180,
          "time": 48.829797,
          "velocity": 0.6299212598425197
        },
        {
          "duration": 8.531916599999995,
          "durationTicks": 1604,
          "midi": 54,
          "name": "F#3",
          "ticks": 9210,
          "time": 48.989371500000004,
          "velocity": 0.4409448818897638
        },
        {
          "duration": 22.414898099999995,
          "durationTicks": 4214,
          "midi": 42,
          "name": "F#2",
          "ticks": 9240,
          "time": 49.148946,
          "velocity": 0.905511811023622
        },
        {
          "duration": 8.531916599999995,
          "durationTicks": 1604,
          "midi": 54,
          "name": "F#3",
          "ticks": 9240,
          "time": 49.148946,
          "velocity": 0.6299212598425197
        },
        {
          "duration": 8.531916599999995,
          "durationTicks": 1604,
          "midi": 54,
          "name": "F#3",
          "ticks": 9270,
          "time": 49.3085205,
          "velocity": 0.4409448818897638
        },
        {
          "duration": 2.946809099999996,
          "durationTicks": 554,
          "midi": 36,
          "name": "C2",
          "ticks": 9300,
          "time": 49.468095000000005,
          "velocity": 1
        },
        {
          "duration": 22.414898099999988,
          "durationTicks": 4214,
          "midi": 42,
          "name": "F#2",
          "ticks": 9300,
          "time": 49.468095000000005,
          "velocity": 0.905511811023622
        },
        {
          "duration": 8.531916599999995,
          "durationTicks": 1604,
          "midi": 54,
          "name": "F#3",
          "ticks": 9300,
          "time": 49.468095000000005,
          "velocity": 0.6299212598425197
        },
        {
          "duration": 8.691491099999993,
          "durationTicks": 1634,
          "midi": 54,
          "name": "F#3",
          "ticks": 9330,
          "time": 49.6276695,
          "velocity": 0.4409448818897638
        },
        {
          "duration": 3.5851070999999948,
          "durationTicks": 674,
          "midi": 36,
          "name": "C2",
          "ticks": 9360,
          "time": 49.787244,
          "velocity": 1
        },
        {
          "duration": 22.734047099999998,
          "durationTicks": 4274,
          "midi": 42,
          "name": "F#2",
          "ticks": 9360,
          "time": 49.787244,
          "velocity": 0.905511811023622
        },
        {
          "duration": 8.6914911,
          "durationTicks": 1634,
          "midi": 54,
          "name": "F#3",
          "ticks": 9360,
          "time": 49.787244,
          "velocity": 0.6299212598425197
        },
        {
          "duration": 8.6914911,
          "durationTicks": 1634,
          "midi": 54,
          "name": "F#3",
          "ticks": 9390,
          "time": 49.9468185,
          "velocity": 0.4409448818897638
        },
        {
          "duration": 0.07446809999999715,
          "durationTicks": 14,
          "midi": 35,
          "name": "B1",
          "ticks": 9420,
          "time": 50.106393000000004,
          "velocity": 0.905511811023622
        },
        {
          "duration": 0.07446809999999715,
          "durationTicks": 14,
          "midi": 46,
          "name": "A#2",
          "ticks": 9420,
          "time": 50.106393000000004,
          "velocity": 0.905511811023622
        },
        {
          "duration": 3.5851070999999948,
          "durationTicks": 674,
          "midi": 36,
          "name": "C2",
          "ticks": 9420,
          "time": 50.106393000000004,
          "velocity": 0.8661417322834646
        },
        {
          "duration": 8.691491099999993,
          "durationTicks": 1634,
          "midi": 54,
          "name": "F#3",
          "ticks": 9420,
          "time": 50.106393000000004,
          "velocity": 0.6299212598425197
        },
        {
          "duration": 8.691491099999993,
          "durationTicks": 1634,
          "midi": 54,
          "name": "F#3",
          "ticks": 9450,
          "time": 50.2659675,
          "velocity": 0.4409448818897638
        },
        {
          "duration": 22.414898099999995,
          "durationTicks": 4214,
          "midi": 42,
          "name": "F#2",
          "ticks": 9480,
          "time": 50.425542,
          "velocity": 0.905511811023622
        },
        {
          "duration": 8.6914911,
          "durationTicks": 1634,
          "midi": 54,
          "name": "F#3",
          "ticks": 9480,
          "time": 50.425542,
          "velocity": 0.6299212598425197
        },
        {
          "duration": 8.691491099999993,
          "durationTicks": 1634,
          "midi": 54,
          "name": "F#3",
          "ticks": 9510,
          "time": 50.585116500000005,
          "velocity": 0.4409448818897638
        },
        {
          "duration": 3.904256099999998,
          "durationTicks": 734,
          "midi": 36,
          "name": "C2",
          "ticks": 9540,
          "time": 50.744691,
          "velocity": 1
        },
        {
          "duration": 22.414898100000002,
          "durationTicks": 4214,
          "midi": 42,
          "name": "F#2",
          "ticks": 9540,
          "time": 50.744691,
          "velocity": 0.905511811023622
        },
        {
          "duration": 8.851065599999998,
          "durationTicks": 1664,
          "midi": 54,
          "name": "F#3",
          "ticks": 9540,
          "time": 50.744691,
          "velocity": 0.6299212598425197
        },
        {
          "duration": 8.851065599999998,
          "durationTicks": 1664,
          "midi": 54,
          "name": "F#3",
          "ticks": 9570,
          "time": 50.9042655,
          "velocity": 0.4409448818897638
        },
        {
          "duration": 3.904256099999998,
          "durationTicks": 734,
          "midi": 36,
          "name": "C2",
          "ticks": 9600,
          "time": 51.06384,
          "velocity": 1
        },
        {
          "duration": 22.734047099999998,
          "durationTicks": 4274,
          "midi": 42,
          "name": "F#2",
          "ticks": 9600,
          "time": 51.06384,
          "velocity": 0.905511811023622
        },
        {
          "duration": 8.851065599999998,
          "durationTicks": 1664,
          "midi": 54,
          "name": "F#3",
          "ticks": 9600,
          "time": 51.06384,
          "velocity": 0.6299212598425197
        },
        {
          "duration": 8.851065599999991,
          "durationTicks": 1664,
          "midi": 54,
          "name": "F#3",
          "ticks": 9630,
          "time": 51.223414500000004,
          "velocity": 0.4409448818897638
        },
        {
          "duration": 22.73404709999999,
          "durationTicks": 4274,
          "midi": 42,
          "name": "F#2",
          "ticks": 9660,
          "time": 51.382989,
          "velocity": 0.905511811023622
        },
        {
          "duration": 8.851065599999998,
          "durationTicks": 1664,
          "midi": 54,
          "name": "F#3",
          "ticks": 9660,
          "time": 51.382989,
          "velocity": 0.6299212598425197
        },
        {
          "duration": 8.851065599999998,
          "durationTicks": 1664,
          "midi": 54,
          "name": "F#3",
          "ticks": 9690,
          "time": 51.5425635,
          "velocity": 0.4409448818897638
        },
        {
          "duration": 22.734047099999998,
          "durationTicks": 4274,
          "midi": 42,
          "name": "F#2",
          "ticks": 9720,
          "time": 51.702138000000005,
          "velocity": 0.905511811023622
        },
        {
          "duration": 8.851065599999991,
          "durationTicks": 1664,
          "midi": 54,
          "name": "F#3",
          "ticks": 9720,
          "time": 51.702138000000005,
          "velocity": 0.6299212598425197
        },
        {
          "duration": 9.010640099999996,
          "durationTicks": 1694,
          "midi": 54,
          "name": "F#3",
          "ticks": 9750,
          "time": 51.8617125,
          "velocity": 0.4409448818897638
        },
        {
          "duration": 3.265958099999999,
          "durationTicks": 614,
          "midi": 36,
          "name": "C2",
          "ticks": 9780,
          "time": 52.021287,
          "velocity": 1
        },
        {
          "duration": 23.053196099999994,
          "durationTicks": 4334,
          "midi": 42,
          "name": "F#2",
          "ticks": 9780,
          "time": 52.021287,
          "velocity": 0.905511811023622
        },
        {
          "duration": 9.010640099999996,
          "durationTicks": 1694,
          "midi": 54,
          "name": "F#3",
          "ticks": 9780,
          "time": 52.021287,
          "velocity": 0.6299212598425197
        },
        {
          "duration": 9.010640099999996,
          "durationTicks": 1694,
          "midi": 54,
          "name": "F#3",
          "ticks": 9810,
          "time": 52.180861500000006,
          "velocity": 0.4409448818897638
        },
        {
          "duration": 3.5851070999999948,
          "durationTicks": 674,
          "midi": 36,
          "name": "C2",
          "ticks": 9840,
          "time": 52.340436000000004,
          "velocity": 1
        },
        {
          "duration": 23.0531961,
          "durationTicks": 4334,
          "midi": 42,
          "name": "F#2",
          "ticks": 9840,
          "time": 52.340436000000004,
          "velocity": 0.905511811023622
        },
        {
          "duration": 9.010640099999996,
          "durationTicks": 1694,
          "midi": 54,
          "name": "F#3",
          "ticks": 9840,
          "time": 52.340436000000004,
          "velocity": 0.6299212598425197
        },
        {
          "duration": 9.010640099999996,
          "durationTicks": 1694,
          "midi": 54,
          "name": "F#3",
          "ticks": 9870,
          "time": 52.5000105,
          "velocity": 0.4409448818897638
        },
        {
          "duration": 23.691494099999993,
          "durationTicks": 4454,
          "midi": 42,
          "name": "F#2",
          "ticks": 9900,
          "time": 52.659585,
          "velocity": 0.905511811023622
        },
        {
          "duration": 9.010640099999996,
          "durationTicks": 1694,
          "midi": 54,
          "name": "F#3",
          "ticks": 9900,
          "time": 52.659585,
          "velocity": 0.6299212598425197
        },
        {
          "duration": 9.010640099999996,
          "durationTicks": 1694,
          "midi": 54,
          "name": "F#3",
          "ticks": 9930,
          "time": 52.819159500000005,
          "velocity": 0.4409448818897638
        },
        {
          "duration": 24.010643099999996,
          "durationTicks": 4514,
          "midi": 42,
          "name": "F#2",
          "ticks": 9960,
          "time": 52.978734,
          "velocity": 0.905511811023622
        },
        {
          "duration": 9.170214599999994,
          "durationTicks": 1724,
          "midi": 54,
          "name": "F#3",
          "ticks": 9960,
          "time": 52.978734,
          "velocity": 0.6299212598425197
        },
        {
          "duration": 9.170214600000001,
          "durationTicks": 1724,
          "midi": 54,
          "name": "F#3",
          "ticks": 9990,
          "time": 53.1383085,
          "velocity": 0.4409448818897638
        },
        {
          "duration": 3.9042560999999907,
          "durationTicks": 734,
          "midi": 36,
          "name": "C2",
          "ticks": 10020,
          "time": 53.297883000000006,
          "velocity": 1
        },
        {
          "duration": 24.3297921,
          "durationTicks": 4574,
          "midi": 42,
          "name": "F#2",
          "ticks": 10020,
          "time": 53.297883000000006,
          "velocity": 0.905511811023622
        },
        {
          "duration": 9.170214599999994,
          "durationTicks": 1724,
          "midi": 54,
          "name": "F#3",
          "ticks": 10020,
          "time": 53.297883000000006,
          "velocity": 0.6299212598425197
        },
        {
          "duration": 9.170214599999994,
          "durationTicks": 1724,
          "midi": 54,
          "name": "F#3",
          "ticks": 10050,
          "time": 53.457457500000004,
          "velocity": 0.4409448818897638
        },
        {
          "duration": 3.904256099999998,
          "durationTicks": 734,
          "midi": 36,
          "name": "C2",
          "ticks": 10080,
          "time": 53.617032,
          "velocity": 1
        },
        {
          "duration": 24.3297921,
          "durationTicks": 4574,
          "midi": 42,
          "name": "F#2",
          "ticks": 10080,
          "time": 53.617032,
          "velocity": 0.905511811023622
        },
        {
          "duration": 9.170214599999994,
          "durationTicks": 1724,
          "midi": 54,
          "name": "F#3",
          "ticks": 10080,
          "time": 53.617032,
          "velocity": 0.6299212598425197
        },
        {
          "duration": 9.170214600000001,
          "durationTicks": 1724,
          "midi": 54,
          "name": "F#3",
          "ticks": 10110,
          "time": 53.7766065,
          "velocity": 0.4409448818897638
        },
        {
          "duration": 24.32979209999999,
          "durationTicks": 4574,
          "midi": 42,
          "name": "F#2",
          "ticks": 10140,
          "time": 53.936181000000005,
          "velocity": 0.905511811023622
        },
        {
          "duration": 9.170214599999994,
          "durationTicks": 1724,
          "midi": 54,
          "name": "F#3",
          "ticks": 10140,
          "time": 53.936181000000005,
          "velocity": 0.6299212598425197
        },
        {
          "duration": 9.3297891,
          "durationTicks": 1754,
          "midi": 54,
          "name": "F#3",
          "ticks": 10170,
          "time": 54.0957555,
          "velocity": 0.4409448818897638
        },
        {
          "duration": 24.648941100000002,
          "durationTicks": 4634,
          "midi": 42,
          "name": "F#2",
          "ticks": 10200,
          "time": 54.25533,
          "velocity": 0.905511811023622
        },
        {
          "duration": 9.3297891,
          "durationTicks": 1754,
          "midi": 54,
          "name": "F#3",
          "ticks": 10200,
          "time": 54.25533,
          "velocity": 0.6299212598425197
        },
        {
          "duration": 9.329789099999992,
          "durationTicks": 1754,
          "midi": 54,
          "name": "F#3",
          "ticks": 10230,
          "time": 54.414904500000006,
          "velocity": 0.4409448818897638
        },
        {
          "duration": 3.904256099999998,
          "durationTicks": 734,
          "midi": 36,
          "name": "C2",
          "ticks": 10260,
          "time": 54.574479000000004,
          "velocity": 1
        },
        {
          "duration": 24.648941099999995,
          "durationTicks": 4634,
          "midi": 42,
          "name": "F#2",
          "ticks": 10260,
          "time": 54.574479000000004,
          "velocity": 0.905511811023622
        },
        {
          "duration": 9.329789099999992,
          "durationTicks": 1754,
          "midi": 54,
          "name": "F#3",
          "ticks": 10260,
          "time": 54.574479000000004,
          "velocity": 0.6299212598425197
        },
        {
          "duration": 9.3297891,
          "durationTicks": 1754,
          "midi": 54,
          "name": "F#3",
          "ticks": 10290,
          "time": 54.7340535,
          "velocity": 0.4409448818897638
        },
        {
          "duration": 3.904256099999998,
          "durationTicks": 734,
          "midi": 36,
          "name": "C2",
          "ticks": 10320,
          "time": 54.893628,
          "velocity": 1
        },
        {
          "duration": 24.648941099999995,
          "durationTicks": 4634,
          "midi": 42,
          "name": "F#2",
          "ticks": 10320,
          "time": 54.893628,
          "velocity": 0.905511811023622
        },
        {
          "duration": 9.329789100000006,
          "durationTicks": 1754,
          "midi": 54,
          "name": "F#3",
          "ticks": 10320,
          "time": 54.893628,
          "velocity": 0.6299212598425197
        },
        {
          "duration": 9.329789099999992,
          "durationTicks": 1754,
          "midi": 54,
          "name": "F#3",
          "ticks": 10350,
          "time": 55.053202500000005,
          "velocity": 0.4409448818897638
        },
        {
          "duration": 0.07446809999999715,
          "durationTicks": 14,
          "midi": 35,
          "name": "B1",
          "ticks": 10380,
          "time": 55.212777,
          "velocity": 0.905511811023622
        },
        {
          "duration": 0.07446809999999715,
          "durationTicks": 14,
          "midi": 46,
          "name": "A#2",
          "ticks": 10380,
          "time": 55.212777,
          "velocity": 0.905511811023622
        },
        {
          "duration": 4.542554099999997,
          "durationTicks": 854,
          "midi": 36,
          "name": "C2",
          "ticks": 10380,
          "time": 55.212777,
          "velocity": 0.8661417322834646
        },
        {
          "duration": 9.48936359999999,
          "durationTicks": 1784,
          "midi": 54,
          "name": "F#3",
          "ticks": 10380,
          "time": 55.212777,
          "velocity": 0.6299212598425197
        },
        {
          "duration": 9.489363599999997,
          "durationTicks": 1784,
          "midi": 54,
          "name": "F#3",
          "ticks": 10410,
          "time": 55.3723515,
          "velocity": 0.4409448818897638
        },
        {
          "duration": 24.648941099999995,
          "durationTicks": 4634,
          "midi": 42,
          "name": "F#2",
          "ticks": 10440,
          "time": 55.531926000000006,
          "velocity": 0.905511811023622
        },
        {
          "duration": 9.489363599999997,
          "durationTicks": 1784,
          "midi": 54,
          "name": "F#3",
          "ticks": 10440,
          "time": 55.531926000000006,
          "velocity": 0.6299212598425197
        },
        {
          "duration": 9.48936359999999,
          "durationTicks": 1784,
          "midi": 54,
          "name": "F#3",
          "ticks": 10470,
          "time": 55.691500500000004,
          "velocity": 0.4409448818897638
        },
        {
          "duration": 4.223405099999994,
          "durationTicks": 794,
          "midi": 36,
          "name": "C2",
          "ticks": 10500,
          "time": 55.851075,
          "velocity": 1
        },
        {
          "duration": 24.648941099999995,
          "durationTicks": 4634,
          "midi": 42,
          "name": "F#2",
          "ticks": 10500,
          "time": 55.851075,
          "velocity": 0.905511811023622
        },
        {
          "duration": 9.489363599999997,
          "durationTicks": 1784,
          "midi": 54,
          "name": "F#3",
          "ticks": 10500,
          "time": 55.851075,
          "velocity": 0.6299212598425197
        },
        {
          "duration": 9.489363600000004,
          "durationTicks": 1784,
          "midi": 54,
          "name": "F#3",
          "ticks": 10530,
          "time": 56.0106495,
          "velocity": 0.4409448818897638
        },
        {
          "duration": 4.223405099999994,
          "durationTicks": 794,
          "midi": 36,
          "name": "C2",
          "ticks": 10560,
          "time": 56.170224000000005,
          "velocity": 1
        },
        {
          "duration": 25.287239099999994,
          "durationTicks": 4754,
          "midi": 42,
          "name": "F#2",
          "ticks": 10560,
          "time": 56.170224000000005,
          "velocity": 0.905511811023622
        },
        {
          "duration": 9.48936359999999,
          "durationTicks": 1784,
          "midi": 54,
          "name": "F#3",
          "ticks": 10560,
          "time": 56.170224000000005,
          "velocity": 0.6299212598425197
        },
        {
          "duration": 9.648938100000002,
          "durationTicks": 1814,
          "midi": 54,
          "name": "F#3",
          "ticks": 10590,
          "time": 56.3297985,
          "velocity": 0.4409448818897638
        },
        {
          "duration": 25.287239100000008,
          "durationTicks": 4754,
          "midi": 42,
          "name": "F#2",
          "ticks": 10620,
          "time": 56.489373,
          "velocity": 0.905511811023622
        },
        {
          "duration": 9.648938099999995,
          "durationTicks": 1814,
          "midi": 54,
          "name": "F#3",
          "ticks": 10620,
          "time": 56.489373,
          "velocity": 0.6299212598425197
        },
        {
          "duration": 9.648938099999995,
          "durationTicks": 1814,
          "midi": 54,
          "name": "F#3",
          "ticks": 10650,
          "time": 56.648947500000006,
          "velocity": 0.4409448818897638
        },
        {
          "duration": 25.2872391,
          "durationTicks": 4754,
          "midi": 42,
          "name": "F#2",
          "ticks": 10680,
          "time": 56.808522,
          "velocity": 0.905511811023622
        },
        {
          "duration": 9.808512599999993,
          "durationTicks": 1844,
          "midi": 54,
          "name": "F#3",
          "ticks": 10680,
          "time": 56.808522,
          "velocity": 0.6299212598425197
        },
        {
          "duration": 9.8085126,
          "durationTicks": 1844,
          "midi": 54,
          "name": "F#3",
          "ticks": 10710,
          "time": 56.9680965,
          "velocity": 0.4409448818897638
        },
        {
          "duration": 3.904256099999998,
          "durationTicks": 734,
          "midi": 36,
          "name": "C2",
          "ticks": 10740,
          "time": 57.127671,
          "velocity": 1
        },
        {
          "duration": 25.60638810000001,
          "durationTicks": 4814,
          "midi": 42,
          "name": "F#2",
          "ticks": 10740,
          "time": 57.127671,
          "velocity": 0.905511811023622
        },
        {
          "duration": 9.808512599999993,
          "durationTicks": 1844,
          "midi": 54,
          "name": "F#3",
          "ticks": 10740,
          "time": 57.127671,
          "velocity": 0.6299212598425197
        },
        {
          "duration": 9.968087099999998,
          "durationTicks": 1874,
          "midi": 54,
          "name": "F#3",
          "ticks": 10770,
          "time": 57.287245500000004,
          "velocity": 0.4409448818897638
        },
        {
          "duration": 3.904256099999998,
          "durationTicks": 734,
          "midi": 36,
          "name": "C2",
          "ticks": 10800,
          "time": 57.44682,
          "velocity": 1
        },
        {
          "duration": 25.606388100000004,
          "durationTicks": 4814,
          "midi": 42,
          "name": "F#2",
          "ticks": 10800,
          "time": 57.44682,
          "velocity": 0.905511811023622
        },
        {
          "duration": 9.968087099999991,
          "durationTicks": 1874,
          "midi": 54,
          "name": "F#3",
          "ticks": 10800,
          "time": 57.44682,
          "velocity": 0.6299212598425197
        },
        {
          "duration": 9.968087099999998,
          "durationTicks": 1874,
          "midi": 54,
          "name": "F#3",
          "ticks": 10830,
          "time": 57.6063945,
          "velocity": 0.4409448818897638
        },
        {
          "duration": 25.606388099999997,
          "durationTicks": 4814,
          "midi": 42,
          "name": "F#2",
          "ticks": 10860,
          "time": 57.765969000000005,
          "velocity": 0.905511811023622
        },
        {
          "duration": 9.968087099999998,
          "durationTicks": 1874,
          "midi": 54,
          "name": "F#3",
          "ticks": 10860,
          "time": 57.765969000000005,
          "velocity": 0.6299212598425197
        },
        {
          "duration": 9.968087099999991,
          "durationTicks": 1874,
          "midi": 54,
          "name": "F#3",
          "ticks": 10890,
          "time": 57.9255435,
          "velocity": 0.4409448818897638
        },
        {
          "duration": 25.925537100000007,
          "durationTicks": 4874,
          "midi": 42,
          "name": "F#2",
          "ticks": 10920,
          "time": 58.085118,
          "velocity": 0.905511811023622
        },
        {
          "duration": 9.968087099999998,
          "durationTicks": 1874,
          "midi": 54,
          "name": "F#3",
          "ticks": 10920,
          "time": 58.085118,
          "velocity": 0.6299212598425197
        },
        {
          "duration": 9.968087099999998,
          "durationTicks": 1874,
          "midi": 54,
          "name": "F#3",
          "ticks": 10950,
          "time": 58.244692500000006,
          "velocity": 0.4409448818897638
        },
        {
          "duration": 3.904256099999998,
          "durationTicks": 734,
          "midi": 36,
          "name": "C2",
          "ticks": 10980,
          "time": 58.404267000000004,
          "velocity": 1
        },
        {
          "duration": 25.9255371,
          "durationTicks": 4874,
          "midi": 42,
          "name": "F#2",
          "ticks": 10980,
          "time": 58.404267000000004,
          "velocity": 0.905511811023622
        },
        {
          "duration": 10.127661599999996,
          "durationTicks": 1904,
          "midi": 54,
          "name": "F#3",
          "ticks": 10980,
          "time": 58.404267000000004,
          "velocity": 0.6299212598425197
        },
        {
          "duration": 10.127661600000003,
          "durationTicks": 1904,
          "midi": 54,
          "name": "F#3",
          "ticks": 11010,
          "time": 58.5638415,
          "velocity": 0.4409448818897638
        },
        {
          "duration": 3.904256099999998,
          "durationTicks": 734,
          "midi": 36,
          "name": "C2",
          "ticks": 11040,
          "time": 58.723416,
          "velocity": 1
        },
        {
          "duration": 25.925537100000014,
          "durationTicks": 4874,
          "midi": 42,
          "name": "F#2",
          "ticks": 11040,
          "time": 58.723416,
          "velocity": 0.905511811023622
        },
        {
          "duration": 10.127661599999996,
          "durationTicks": 1904,
          "midi": 54,
          "name": "F#3",
          "ticks": 11040,
          "time": 58.723416,
          "velocity": 0.6299212598425197
        },
        {
          "duration": 10.127661599999996,
          "durationTicks": 1904,
          "midi": 54,
          "name": "F#3",
          "ticks": 11070,
          "time": 58.882990500000005,
          "velocity": 0.4409448818897638
        },
        {
          "duration": 26.244686100000003,
          "durationTicks": 4934,
          "midi": 42,
          "name": "F#2",
          "ticks": 11100,
          "time": 59.042565,
          "velocity": 0.905511811023622
        },
        {
          "duration": 10.127661599999989,
          "durationTicks": 1904,
          "midi": 54,
          "name": "F#3",
          "ticks": 11100,
          "time": 59.042565,
          "velocity": 0.6299212598425197
        },
        {
          "duration": 10.127661599999996,
          "durationTicks": 1904,
          "midi": 54,
          "name": "F#3",
          "ticks": 11130,
          "time": 59.2021395,
          "velocity": 0.4409448818897638
        },
        {
          "duration": 26.24468610000001,
          "durationTicks": 4934,
          "midi": 42,
          "name": "F#2",
          "ticks": 11160,
          "time": 59.361714000000006,
          "velocity": 0.905511811023622
        },
        {
          "duration": 10.127661599999996,
          "durationTicks": 1904,
          "midi": 54,
          "name": "F#3",
          "ticks": 11160,
          "time": 59.361714000000006,
          "velocity": 0.6299212598425197
        },
        {
          "duration": 10.287236099999994,
          "durationTicks": 1934,
          "midi": 54,
          "name": "F#3",
          "ticks": 11190,
          "time": 59.521288500000004,
          "velocity": 0.4409448818897638
        },
        {
          "duration": 3.904256099999998,
          "durationTicks": 734,
          "midi": 36,
          "name": "C2",
          "ticks": 11220,
          "time": 59.680863,
          "velocity": 1
        },
        {
          "duration": 26.8829841,
          "durationTicks": 5054,
          "midi": 42,
          "name": "F#2",
          "ticks": 11220,
          "time": 59.680863,
          "velocity": 0.905511811023622
        },
        {
          "duration": 10.287236100000001,
          "durationTicks": 1934,
          "midi": 54,
          "name": "F#3",
          "ticks": 11220,
          "time": 59.680863,
          "velocity": 0.6299212598425197
        },
        {
          "duration": 10.287236099999994,
          "durationTicks": 1934,
          "midi": 54,
          "name": "F#3",
          "ticks": 11250,
          "time": 59.8404375,
          "velocity": 0.4409448818897638
        },
        {
          "duration": 3.9042560999999907,
          "durationTicks": 734,
          "midi": 36,
          "name": "C2",
          "ticks": 11280,
          "time": 60.000012000000005,
          "velocity": 1
        },
        {
          "duration": 27.202133100000005,
          "durationTicks": 5114,
          "midi": 42,
          "name": "F#2",
          "ticks": 11280,
          "time": 60.000012000000005,
          "velocity": 0.905511811023622
        },
        {
          "duration": 10.287236099999994,
          "durationTicks": 1934,
          "midi": 54,
          "name": "F#3",
          "ticks": 11280,
          "time": 60.000012000000005,
          "velocity": 0.6299212598425197
        },
        {
          "duration": 10.287236100000001,
          "durationTicks": 1934,
          "midi": 54,
          "name": "F#3",
          "ticks": 11310,
          "time": 60.1595865,
          "velocity": 0.4409448818897638
        },
        {
          "duration": 0.07446809999999715,
          "durationTicks": 14,
          "midi": 35,
          "name": "B1",
          "ticks": 11340,
          "time": 60.319161,
          "velocity": 0.905511811023622
        },
        {
          "duration": 0.07446809999999715,
          "durationTicks": 14,
          "midi": 46,
          "name": "A#2",
          "ticks": 11340,
          "time": 60.319161,
          "velocity": 0.905511811023622
        },
        {
          "duration": 4.542554099999997,
          "durationTicks": 854,
          "midi": 36,
          "name": "C2",
          "ticks": 11340,
          "time": 60.319161,
          "velocity": 0.8661417322834646
        },
        {
          "duration": 10.287236099999994,
          "durationTicks": 1934,
          "midi": 54,
          "name": "F#3",
          "ticks": 11340,
          "time": 60.319161,
          "velocity": 0.6299212598425197
        },
        {
          "duration": 10.287236099999994,
          "durationTicks": 1934,
          "midi": 54,
          "name": "F#3",
          "ticks": 11370,
          "time": 60.478735500000006,
          "velocity": 0.4409448818897638
        },
        {
          "duration": 27.20213310000001,
          "durationTicks": 5114,
          "midi": 42,
          "name": "F#2",
          "ticks": 11400,
          "time": 60.638310000000004,
          "velocity": 0.905511811023622
        },
        {
          "duration": 10.446810599999992,
          "durationTicks": 1964,
          "midi": 54,
          "name": "F#3",
          "ticks": 11400,
          "time": 60.638310000000004,
          "velocity": 0.6299212598425197
        },
        {
          "duration": 10.4468106,
          "durationTicks": 1964,
          "midi": 54,
          "name": "F#3",
          "ticks": 11430,
          "time": 60.7978845,
          "velocity": 0.4409448818897638
        },
        {
          "duration": 4.223405099999994,
          "durationTicks": 794,
          "midi": 36,
          "name": "C2",
          "ticks": 11460,
          "time": 60.957459,
          "velocity": 1
        },
        {
          "duration": 27.20213310000001,
          "durationTicks": 5114,
          "midi": 42,
          "name": "F#2",
          "ticks": 11460,
          "time": 60.957459,
          "velocity": 0.905511811023622
        },
        {
          "duration": 10.446810600000006,
          "durationTicks": 1964,
          "midi": 54,
          "name": "F#3",
          "ticks": 11460,
          "time": 60.957459,
          "velocity": 0.6299212598425197
        },
        {
          "duration": 10.446810599999992,
          "durationTicks": 1964,
          "midi": 54,
          "name": "F#3",
          "ticks": 11490,
          "time": 61.117033500000005,
          "velocity": 0.4409448818897638
        },
        {
          "duration": 4.223405100000001,
          "durationTicks": 794,
          "midi": 36,
          "name": "C2",
          "ticks": 11520,
          "time": 61.276608,
          "velocity": 1
        },
        {
          "duration": 27.202133100000005,
          "durationTicks": 5114,
          "midi": 42,
          "name": "F#2",
          "ticks": 11520,
          "time": 61.276608,
          "velocity": 0.905511811023622
        },
        {
          "duration": 10.4468106,
          "durationTicks": 1964,
          "midi": 54,
          "name": "F#3",
          "ticks": 11520,
          "time": 61.276608,
          "velocity": 0.6299212598425197
        },
        {
          "duration": 10.446810599999992,
          "durationTicks": 1964,
          "midi": 54,
          "name": "F#3",
          "ticks": 11550,
          "time": 61.4361825,
          "velocity": 0.4409448818897638
        },
        {
          "duration": 27.521282100000008,
          "durationTicks": 5174,
          "midi": 42,
          "name": "F#2",
          "ticks": 11580,
          "time": 61.595757000000006,
          "velocity": 0.905511811023622
        },
        {
          "duration": 10.446810599999992,
          "durationTicks": 1964,
          "midi": 54,
          "name": "F#3",
          "ticks": 11580,
          "time": 61.595757000000006,
          "velocity": 0.6299212598425197
        },
        {
          "duration": 10.60638509999999,
          "durationTicks": 1994,
          "midi": 54,
          "name": "F#3",
          "ticks": 11610,
          "time": 61.755331500000004,
          "velocity": 0.4409448818897638
        },
        {
          "duration": 27.521282100000008,
          "durationTicks": 5174,
          "midi": 42,
          "name": "F#2",
          "ticks": 11640,
          "time": 61.914906,
          "velocity": 0.905511811023622
        },
        {
          "duration": 10.606385099999997,
          "durationTicks": 1994,
          "midi": 54,
          "name": "F#3",
          "ticks": 11640,
          "time": 61.914906,
          "velocity": 0.6299212598425197
        },
        {
          "duration": 10.606385100000004,
          "durationTicks": 1994,
          "midi": 54,
          "name": "F#3",
          "ticks": 11670,
          "time": 62.0744805,
          "velocity": 0.4409448818897638
        },
        {
          "duration": 3.9042560999999907,
          "durationTicks": 734,
          "midi": 36,
          "name": "C2",
          "ticks": 11700,
          "time": 62.234055000000005,
          "velocity": 1
        },
        {
          "duration": 27.5212821,
          "durationTicks": 5174,
          "midi": 42,
          "name": "F#2",
          "ticks": 11700,
          "time": 62.234055000000005,
          "velocity": 0.905511811023622
        },
        {
          "duration": 10.60638509999999,
          "durationTicks": 1994,
          "midi": 54,
          "name": "F#3",
          "ticks": 11700,
          "time": 62.234055000000005,
          "velocity": 0.6299212598425197
        },
        {
          "duration": 10.606385099999997,
          "durationTicks": 1994,
          "midi": 54,
          "name": "F#3",
          "ticks": 11730,
          "time": 62.3936295,
          "velocity": 0.4409448818897638
        },
        {
          "duration": 4.861703099999993,
          "durationTicks": 914,
          "midi": 36,
          "name": "C2",
          "ticks": 11760,
          "time": 62.553204,
          "velocity": 1
        },
        {
          "duration": 27.84043110000001,
          "durationTicks": 5234,
          "midi": 42,
          "name": "F#2",
          "ticks": 11760,
          "time": 62.553204,
          "velocity": 0.905511811023622
        },
        {
          "duration": 10.606385100000004,
          "durationTicks": 1994,
          "midi": 54,
          "name": "F#3",
          "ticks": 11760,
          "time": 62.553204,
          "velocity": 0.6299212598425197
        },
        {
          "duration": 10.60638509999999,
          "durationTicks": 1994,
          "midi": 54,
          "name": "F#3",
          "ticks": 11790,
          "time": 62.712778500000006,
          "velocity": 0.4409448818897638
        },
        {
          "duration": 27.840431100000004,
          "durationTicks": 5234,
          "midi": 42,
          "name": "F#2",
          "ticks": 11820,
          "time": 62.872353000000004,
          "velocity": 0.905511811023622
        },
        {
          "duration": 10.765959600000002,
          "durationTicks": 2024,
          "midi": 54,
          "name": "F#3",
          "ticks": 11820,
          "time": 62.872353000000004,
          "velocity": 0.6299212598425197
        },
        {
          "duration": 10.765959599999995,
          "durationTicks": 2024,
          "midi": 54,
          "name": "F#3",
          "ticks": 11850,
          "time": 63.0319275,
          "velocity": 0.4409448818897638
        },
        {
          "duration": 28.47872910000001,
          "durationTicks": 5354,
          "midi": 42,
          "name": "F#2",
          "ticks": 11880,
          "time": 63.191502,
          "velocity": 0.905511811023622
        },
        {
          "duration": 10.765959600000002,
          "durationTicks": 2024,
          "midi": 54,
          "name": "F#3",
          "ticks": 11880,
          "time": 63.191502,
          "velocity": 0.6299212598425197
        },
        {
          "duration": 10.765959599999988,
          "durationTicks": 2024,
          "midi": 54,
          "name": "F#3",
          "ticks": 11910,
          "time": 63.351076500000005,
          "velocity": 0.4409448818897638
        },
        {
          "duration": 4.223405100000001,
          "durationTicks": 794,
          "midi": 36,
          "name": "C2",
          "ticks": 11940,
          "time": 63.510651,
          "velocity": 1
        },
        {
          "duration": 28.478729100000002,
          "durationTicks": 5354,
          "midi": 42,
          "name": "F#2",
          "ticks": 11940,
          "time": 63.510651,
          "velocity": 0.905511811023622
        },
        {
          "duration": 10.765959599999995,
          "durationTicks": 2024,
          "midi": 54,
          "name": "F#3",
          "ticks": 11940,
          "time": 63.510651,
          "velocity": 0.6299212598425197
        },
        {
          "duration": 10.765959600000002,
          "durationTicks": 2024,
          "midi": 54,
          "name": "F#3",
          "ticks": 11970,
          "time": 63.6702255,
          "velocity": 0.4409448818897638
        },
        {
          "duration": 4.8617031,
          "durationTicks": 914,
          "midi": 36,
          "name": "C2",
          "ticks": 12000,
          "time": 63.829800000000006,
          "velocity": 1
        },
        {
          "duration": 28.47872910000001,
          "durationTicks": 5354,
          "midi": 42,
          "name": "F#2",
          "ticks": 12000,
          "time": 63.829800000000006,
          "velocity": 0.905511811023622
        },
        {
          "duration": 10.765959599999988,
          "durationTicks": 2024,
          "midi": 54,
          "name": "F#3",
          "ticks": 12000,
          "time": 63.829800000000006,
          "velocity": 0.6299212598425197
        },
        {
          "duration": 10.9255341,
          "durationTicks": 2054,
          "midi": 54,
          "name": "F#3",
          "ticks": 12030,
          "time": 63.989374500000004,
          "velocity": 0.4409448818897638
        },
        {
          "duration": 28.797878100000005,
          "durationTicks": 5414,
          "midi": 42,
          "name": "F#2",
          "ticks": 12060,
          "time": 64.148949,
          "velocity": 0.905511811023622
        },
        {
          "duration": 10.925534099999993,
          "durationTicks": 2054,
          "midi": 54,
          "name": "F#3",
          "ticks": 12060,
          "time": 64.148949,
          "velocity": 0.6299212598425197
        },
        {
          "duration": 10.925534099999993,
          "durationTicks": 2054,
          "midi": 54,
          "name": "F#3",
          "ticks": 12090,
          "time": 64.3085235,
          "velocity": 0.4409448818897638
        },
        {
          "duration": 28.797878100000005,
          "durationTicks": 5414,
          "midi": 42,
          "name": "F#2",
          "ticks": 12120,
          "time": 64.468098,
          "velocity": 0.905511811023622
        },
        {
          "duration": 10.925534100000007,
          "durationTicks": 2054,
          "midi": 54,
          "name": "F#3",
          "ticks": 12120,
          "time": 64.468098,
          "velocity": 0.6299212598425197
        },
        {
          "duration": 10.925534099999993,
          "durationTicks": 2054,
          "midi": 54,
          "name": "F#3",
          "ticks": 12150,
          "time": 64.6276725,
          "velocity": 0.4409448818897638
        },
        {
          "duration": 4.223405099999994,
          "durationTicks": 794,
          "midi": 36,
          "name": "C2",
          "ticks": 12180,
          "time": 64.78724700000001,
          "velocity": 1
        },
        {
          "duration": 28.797878100000005,
          "durationTicks": 5414,
          "midi": 42,
          "name": "F#2",
          "ticks": 12180,
          "time": 64.78724700000001,
          "velocity": 0.905511811023622
        },
        {
          "duration": 10.925534099999993,
          "durationTicks": 2054,
          "midi": 54,
          "name": "F#3",
          "ticks": 12180,
          "time": 64.78724700000001,
          "velocity": 0.6299212598425197
        },
        {
          "duration": 10.925534100000007,
          "durationTicks": 2054,
          "midi": 54,
          "name": "F#3",
          "ticks": 12210,
          "time": 64.9468215,
          "velocity": 0.4409448818897638
        },
        {
          "duration": 4.8617031,
          "durationTicks": 914,
          "midi": 36,
          "name": "C2",
          "ticks": 12240,
          "time": 65.106396,
          "velocity": 1
        },
        {
          "duration": 29.1170271,
          "durationTicks": 5474,
          "midi": 42,
          "name": "F#2",
          "ticks": 12240,
          "time": 65.106396,
          "velocity": 0.905511811023622
        },
        {
          "duration": 11.085108599999998,
          "durationTicks": 2084,
          "midi": 54,
          "name": "F#3",
          "ticks": 12240,
          "time": 65.106396,
          "velocity": 0.6299212598425197
        },
        {
          "duration": 11.085108599999984,
          "durationTicks": 2084,
          "midi": 54,
          "name": "F#3",
          "ticks": 12270,
          "time": 65.26597050000001,
          "velocity": 0.4409448818897638
        },
        {
          "duration": 0.07446810000000426,
          "durationTicks": 14,
          "midi": 35,
          "name": "B1",
          "ticks": 12300,
          "time": 65.425545,
          "velocity": 0.905511811023622
        },
        {
          "duration": 0.07446810000000426,
          "durationTicks": 14,
          "midi": 46,
          "name": "A#2",
          "ticks": 12300,
          "time": 65.425545,
          "velocity": 0.905511811023622
        },
        {
          "duration": 4.8617031,
          "durationTicks": 914,
          "midi": 36,
          "name": "C2",
          "ticks": 12300,
          "time": 65.425545,
          "velocity": 0.8661417322834646
        },
        {
          "duration": 11.085108599999998,
          "durationTicks": 2084,
          "midi": 54,
          "name": "F#3",
          "ticks": 12300,
          "time": 65.425545,
          "velocity": 0.6299212598425197
        },
        {
          "duration": 11.244683099999989,
          "durationTicks": 2114,
          "midi": 54,
          "name": "F#3",
          "ticks": 12330,
          "time": 65.5851195,
          "velocity": 0.4409448818897638
        },
        {
          "duration": 28.797878100000005,
          "durationTicks": 5414,
          "midi": 42,
          "name": "F#2",
          "ticks": 12360,
          "time": 65.74469400000001,
          "velocity": 0.905511811023622
        },
        {
          "duration": 11.244683099999989,
          "durationTicks": 2114,
          "midi": 54,
          "name": "F#3",
          "ticks": 12360,
          "time": 65.74469400000001,
          "velocity": 0.6299212598425197
        },
        {
          "duration": 11.244683100000003,
          "durationTicks": 2114,
          "midi": 54,
          "name": "F#3",
          "ticks": 12390,
          "time": 65.9042685,
          "velocity": 0.4409448818897638
        },
        {
          "duration": 4.54255409999999,
          "durationTicks": 854,
          "midi": 36,
          "name": "C2",
          "ticks": 12420,
          "time": 66.063843,
          "velocity": 1
        },
        {
          "duration": 28.797878100000005,
          "durationTicks": 5414,
          "midi": 42,
          "name": "F#2",
          "ticks": 12420,
          "time": 66.063843,
          "velocity": 0.905511811023622
        },
        {
          "duration": 11.404257599999994,
          "durationTicks": 2144,
          "midi": 54,
          "name": "F#3",
          "ticks": 12420,
          "time": 66.063843,
          "velocity": 0.6299212598425197
        },
        {
          "duration": 11.404257600000008,
          "durationTicks": 2144,
          "midi": 54,
          "name": "F#3",
          "ticks": 12450,
          "time": 66.2234175,
          "velocity": 0.4409448818897638
        },
        {
          "duration": 4.8617031,
          "durationTicks": 914,
          "midi": 36,
          "name": "C2",
          "ticks": 12480,
          "time": 66.382992,
          "velocity": 1
        },
        {
          "duration": 29.1170271,
          "durationTicks": 5474,
          "midi": 42,
          "name": "F#2",
          "ticks": 12480,
          "time": 66.382992,
          "velocity": 0.905511811023622
        },
        {
          "duration": 11.404257599999994,
          "durationTicks": 2144,
          "midi": 54,
          "name": "F#3",
          "ticks": 12480,
          "time": 66.382992,
          "velocity": 0.6299212598425197
        },
        {
          "duration": 11.404257599999994,
          "durationTicks": 2144,
          "midi": 54,
          "name": "F#3",
          "ticks": 12510,
          "time": 66.5425665,
          "velocity": 0.4409448818897638
        },
        {
          "duration": 29.117027100000016,
          "durationTicks": 5474,
          "midi": 42,
          "name": "F#2",
          "ticks": 12540,
          "time": 66.702141,
          "velocity": 0.905511811023622
        },
        {
          "duration": 11.404257600000008,
          "durationTicks": 2144,
          "midi": 54,
          "name": "F#3",
          "ticks": 12540,
          "time": 66.702141,
          "velocity": 0.6299212598425197
        },
        {
          "duration": 11.404257599999994,
          "durationTicks": 2144,
          "midi": 54,
          "name": "F#3",
          "ticks": 12570,
          "time": 66.8617155,
          "velocity": 0.4409448818897638
        },
        {
          "duration": 29.755325100000007,
          "durationTicks": 5594,
          "midi": 42,
          "name": "F#2",
          "ticks": 12600,
          "time": 67.02129000000001,
          "velocity": 0.905511811023622
        },
        {
          "duration": 11.404257599999994,
          "durationTicks": 2144,
          "midi": 54,
          "name": "F#3",
          "ticks": 12600,
          "time": 67.02129000000001,
          "velocity": 0.6299212598425197
        },
        {
          "duration": 11.563832099999999,
          "durationTicks": 2174,
          "midi": 54,
          "name": "F#3",
          "ticks": 12630,
          "time": 67.1808645,
          "velocity": 0.4409448818897638
        },
        {
          "duration": 4.223405099999994,
          "durationTicks": 794,
          "midi": 36,
          "name": "C2",
          "ticks": 12660,
          "time": 67.340439,
          "velocity": 1
        },
        {
          "duration": 30.074474100000003,
          "durationTicks": 5654,
          "midi": 42,
          "name": "F#2",
          "ticks": 12660,
          "time": 67.340439,
          "velocity": 0.905511811023622
        },
        {
          "duration": 11.563832099999999,
          "durationTicks": 2174,
          "midi": 54,
          "name": "F#3",
          "ticks": 12660,
          "time": 67.340439,
          "velocity": 0.6299212598425197
        },
        {
          "duration": 11.563832099999985,
          "durationTicks": 2174,
          "midi": 54,
          "name": "F#3",
          "ticks": 12690,
          "time": 67.50001350000001,
          "velocity": 0.4409448818897638
        },
        {
          "duration": 4.8617031,
          "durationTicks": 914,
          "midi": 36,
          "name": "C2",
          "ticks": 12720,
          "time": 67.659588,
          "velocity": 1
        },
        {
          "duration": 30.393623100000013,
          "durationTicks": 5714,
          "midi": 42,
          "name": "F#2",
          "ticks": 12720,
          "time": 67.659588,
          "velocity": 0.905511811023622
        },
        {
          "duration": 11.563832099999999,
          "durationTicks": 2174,
          "midi": 54,
          "name": "F#3",
          "ticks": 12720,
          "time": 67.659588,
          "velocity": 0.6299212598425197
        },
        {
          "duration": 11.563832099999999,
          "durationTicks": 2174,
          "midi": 54,
          "name": "F#3",
          "ticks": 12750,
          "time": 67.8191625,
          "velocity": 0.4409448818897638
        },
        {
          "duration": 30.3936231,
          "durationTicks": 5714,
          "midi": 42,
          "name": "F#2",
          "ticks": 12780,
          "time": 67.97873700000001,
          "velocity": 0.905511811023622
        },
        {
          "duration": 11.563832099999985,
          "durationTicks": 2174,
          "midi": 54,
          "name": "F#3",
          "ticks": 12780,
          "time": 67.97873700000001,
          "velocity": 0.6299212598425197
        },
        {
          "duration": 11.563832099999999,
          "durationTicks": 2174,
          "midi": 54,
          "name": "F#3",
          "ticks": 12810,
          "time": 68.1383115,
          "velocity": 0.4409448818897638
        },
        {
          "duration": 30.3936231,
          "durationTicks": 5714,
          "midi": 42,
          "name": "F#2",
          "ticks": 12840,
          "time": 68.297886,
          "velocity": 0.905511811023622
        },
        {
          "duration": 11.72340659999999,
          "durationTicks": 2204,
          "midi": 54,
          "name": "F#3",
          "ticks": 12840,
          "time": 68.297886,
          "velocity": 0.6299212598425197
        },
        {
          "duration": 11.72340659999999,
          "durationTicks": 2204,
          "midi": 54,
          "name": "F#3",
          "ticks": 12870,
          "time": 68.45746050000001,
          "velocity": 0.4409448818897638
        },
        {
          "duration": 4.223405099999994,
          "durationTicks": 794,
          "midi": 36,
          "name": "C2",
          "ticks": 12900,
          "time": 68.617035,
          "velocity": 1
        },
        {
          "duration": 30.71277210000001,
          "durationTicks": 5774,
          "midi": 42,
          "name": "F#2",
          "ticks": 12900,
          "time": 68.617035,
          "velocity": 0.905511811023622
        },
        {
          "duration": 11.723406600000004,
          "durationTicks": 2204,
          "midi": 54,
          "name": "F#3",
          "ticks": 12900,
          "time": 68.617035,
          "velocity": 0.6299212598425197
        },
        {
          "duration": 11.72340659999999,
          "durationTicks": 2204,
          "midi": 54,
          "name": "F#3",
          "ticks": 12930,
          "time": 68.7766095,
          "velocity": 0.4409448818897638
        },
        {
          "duration": 4.8617031,
          "durationTicks": 914,
          "midi": 36,
          "name": "C2",
          "ticks": 12960,
          "time": 68.936184,
          "velocity": 1
        },
        {
          "duration": 30.71277210000001,
          "durationTicks": 5774,
          "midi": 42,
          "name": "F#2",
          "ticks": 12960,
          "time": 68.936184,
          "velocity": 0.905511811023622
        },
        {
          "duration": 11.723406600000004,
          "durationTicks": 2204,
          "midi": 54,
          "name": "F#3",
          "ticks": 12960,
          "time": 68.936184,
          "velocity": 0.6299212598425197
        },
        {
          "duration": 11.723406600000004,
          "durationTicks": 2204,
          "midi": 54,
          "name": "F#3",
          "ticks": 12990,
          "time": 69.0957585,
          "velocity": 0.4409448818897638
        },
        {
          "duration": 30.71277210000001,
          "durationTicks": 5774,
          "midi": 42,
          "name": "F#2",
          "ticks": 13020,
          "time": 69.25533300000001,
          "velocity": 0.905511811023622
        },
        {
          "duration": 11.72340659999999,
          "durationTicks": 2204,
          "midi": 54,
          "name": "F#3",
          "ticks": 13020,
          "time": 69.25533300000001,
          "velocity": 0.6299212598425197
        },
        {
          "duration": 11.882981099999995,
          "durationTicks": 2234,
          "midi": 54,
          "name": "F#3",
          "ticks": 13050,
          "time": 69.4149075,
          "velocity": 0.4409448818897638
        },
        {
          "duration": 31.031921100000005,
          "durationTicks": 5834,
          "midi": 42,
          "name": "F#2",
          "ticks": 13080,
          "time": 69.574482,
          "velocity": 0.905511811023622
        },
        {
          "duration": 11.882981099999995,
          "durationTicks": 2234,
          "midi": 54,
          "name": "F#3",
          "ticks": 13080,
          "time": 69.574482,
          "velocity": 0.6299212598425197
        },
        {
          "duration": 11.882981099999995,
          "durationTicks": 2234,
          "midi": 54,
          "name": "F#3",
          "ticks": 13110,
          "time": 69.73405650000001,
          "velocity": 0.4409448818897638
        },
        {
          "duration": 4.223405099999994,
          "durationTicks": 794,
          "midi": 36,
          "name": "C2",
          "ticks": 13140,
          "time": 69.893631,
          "velocity": 1
        },
        {
          "duration": 31.031921100000005,
          "durationTicks": 5834,
          "midi": 42,
          "name": "F#2",
          "ticks": 13140,
          "time": 69.893631,
          "velocity": 0.905511811023622
        },
        {
          "duration": 11.88298110000001,
          "durationTicks": 2234,
          "midi": 54,
          "name": "F#3",
          "ticks": 13140,
          "time": 69.893631,
          "velocity": 0.6299212598425197
        },
        {
          "duration": 11.88298110000001,
          "durationTicks": 2234,
          "midi": 54,
          "name": "F#3",
          "ticks": 13170,
          "time": 70.0532055,
          "velocity": 0.4409448818897638
        },
        {
          "duration": 4.8617030999999855,
          "durationTicks": 914,
          "midi": 36,
          "name": "C2",
          "ticks": 13200,
          "time": 70.21278000000001,
          "velocity": 1
        },
        {
          "duration": 31.670219099999997,
          "durationTicks": 5954,
          "midi": 42,
          "name": "F#2",
          "ticks": 13200,
          "time": 70.21278000000001,
          "velocity": 0.905511811023622
        },
        {
          "duration": 11.882981099999995,
          "durationTicks": 2234,
          "midi": 54,
          "name": "F#3",
          "ticks": 13200,
          "time": 70.21278000000001,
          "velocity": 0.6299212598425197
        },
        {
          "duration": 11.88298110000001,
          "durationTicks": 2234,
          "midi": 54,
          "name": "F#3",
          "ticks": 13230,
          "time": 70.3723545,
          "velocity": 0.4409448818897638
        },
        {
          "duration": 0.07446809999999005,
          "durationTicks": 14,
          "midi": 35,
          "name": "B1",
          "ticks": 13260,
          "time": 70.531929,
          "velocity": 0.905511811023622
        },
        {
          "duration": 0.07446809999999005,
          "durationTicks": 14,
          "midi": 46,
          "name": "A#2",
          "ticks": 13260,
          "time": 70.531929,
          "velocity": 0.905511811023622
        },
        {
          "duration": 4.8617031,
          "durationTicks": 914,
          "midi": 36,
          "name": "C2",
          "ticks": 13260,
          "time": 70.531929,
          "velocity": 0.8661417322834646
        },
        {
          "duration": 12.0425556,
          "durationTicks": 2264,
          "midi": 54,
          "name": "F#3",
          "ticks": 13260,
          "time": 70.531929,
          "velocity": 0.6299212598425197
        },
        {
          "duration": 12.0425556,
          "durationTicks": 2264,
          "midi": 54,
          "name": "F#3",
          "ticks": 13290,
          "time": 70.69150350000001,
          "velocity": 0.4409448818897638
        },
        {
          "duration": 31.351070100000015,
          "durationTicks": 5894,
          "midi": 42,
          "name": "F#2",
          "ticks": 13320,
          "time": 70.851078,
          "velocity": 0.905511811023622
        },
        {
          "duration": 12.042555600000014,
          "durationTicks": 2264,
          "midi": 54,
          "name": "F#3",
          "ticks": 13320,
          "time": 70.851078,
          "velocity": 0.6299212598425197
        },
        {
          "duration": 12.0425556,
          "durationTicks": 2264,
          "midi": 54,
          "name": "F#3",
          "ticks": 13350,
          "time": 71.0106525,
          "velocity": 0.4409448818897638
        },
        {
          "duration": 4.542554100000004,
          "durationTicks": 854,
          "midi": 36,
          "name": "C2",
          "ticks": 13380,
          "time": 71.170227,
          "velocity": 1
        },
        {
          "duration": 31.351070100000015,
          "durationTicks": 5894,
          "midi": 42,
          "name": "F#2",
          "ticks": 13380,
          "time": 71.170227,
          "velocity": 0.905511811023622
        },
        {
          "duration": 12.042555600000014,
          "durationTicks": 2264,
          "midi": 54,
          "name": "F#3",
          "ticks": 13380,
          "time": 71.170227,
          "velocity": 0.6299212598425197
        },
        {
          "duration": 12.0425556,
          "durationTicks": 2264,
          "midi": 54,
          "name": "F#3",
          "ticks": 13410,
          "time": 71.3298015,
          "velocity": 0.4409448818897638
        },
        {
          "duration": 4.8617030999999855,
          "durationTicks": 914,
          "midi": 36,
          "name": "C2",
          "ticks": 13440,
          "time": 71.48937600000001,
          "velocity": 1
        },
        {
          "duration": 31.670219099999997,
          "durationTicks": 5954,
          "midi": 42,
          "name": "F#2",
          "ticks": 13440,
          "time": 71.48937600000001,
          "velocity": 0.905511811023622
        },
        {
          "duration": 12.0425556,
          "durationTicks": 2264,
          "midi": 54,
          "name": "F#3",
          "ticks": 13440,
          "time": 71.48937600000001,
          "velocity": 0.6299212598425197
        },
        {
          "duration": 12.202130100000005,
          "durationTicks": 2294,
          "midi": 54,
          "name": "F#3",
          "ticks": 13470,
          "time": 71.6489505,
          "velocity": 0.4409448818897638
        },
        {
          "duration": 31.67021910000001,
          "durationTicks": 5954,
          "midi": 42,
          "name": "F#2",
          "ticks": 13500,
          "time": 71.808525,
          "velocity": 0.905511811023622
        },
        {
          "duration": 12.202130100000005,
          "durationTicks": 2294,
          "midi": 54,
          "name": "F#3",
          "ticks": 13500,
          "time": 71.808525,
          "velocity": 0.6299212598425197
        },
        {
          "duration": 12.202130100000005,
          "durationTicks": 2294,
          "midi": 54,
          "name": "F#3",
          "ticks": 13530,
          "time": 71.96809950000001,
          "velocity": 0.4409448818897638
        },
        {
          "duration": 31.67021910000001,
          "durationTicks": 5954,
          "midi": 42,
          "name": "F#2",
          "ticks": 13560,
          "time": 72.127674,
          "velocity": 0.905511811023622
        },
        {
          "duration": 12.202130100000005,
          "durationTicks": 2294,
          "midi": 54,
          "name": "F#3",
          "ticks": 13560,
          "time": 72.127674,
          "velocity": 0.6299212598425197
        },
        {
          "duration": 12.202130100000005,
          "durationTicks": 2294,
          "midi": 54,
          "name": "F#3",
          "ticks": 13590,
          "time": 72.2872485,
          "velocity": 0.4409448818897638
        },
        {
          "duration": 5.180852099999996,
          "durationTicks": 974,
          "midi": 36,
          "name": "C2",
          "ticks": 13620,
          "time": 72.44682300000001,
          "velocity": 1
        },
        {
          "duration": 31.989368100000007,
          "durationTicks": 6014,
          "midi": 42,
          "name": "F#2",
          "ticks": 13620,
          "time": 72.44682300000001,
          "velocity": 0.905511811023622
        },
        {
          "duration": 12.202130100000005,
          "durationTicks": 2294,
          "midi": 54,
          "name": "F#3",
          "ticks": 13620,
          "time": 72.44682300000001,
          "velocity": 0.6299212598425197
        },
        {
          "duration": 12.202130100000005,
          "durationTicks": 2294,
          "midi": 54,
          "name": "F#3",
          "ticks": 13650,
          "time": 72.6063975,
          "velocity": 0.4409448818897638
        },
        {
          "duration": 5.180852099999996,
          "durationTicks": 974,
          "midi": 36,
          "name": "C2",
          "ticks": 13680,
          "time": 72.765972,
          "velocity": 1
        },
        {
          "duration": 31.989368100000007,
          "durationTicks": 6014,
          "midi": 42,
          "name": "F#2",
          "ticks": 13680,
          "time": 72.765972,
          "velocity": 0.905511811023622
        },
        {
          "duration": 12.36170460000001,
          "durationTicks": 2324,
          "midi": 54,
          "name": "F#3",
          "ticks": 13680,
          "time": 72.765972,
          "velocity": 0.6299212598425197
        },
        {
          "duration": 12.361704599999996,
          "durationTicks": 2324,
          "midi": 54,
          "name": "F#3",
          "ticks": 13710,
          "time": 72.92554650000001,
          "velocity": 0.4409448818897638
        },
        {
          "duration": 31.989368100000007,
          "durationTicks": 6014,
          "midi": 42,
          "name": "F#2",
          "ticks": 13740,
          "time": 73.085121,
          "velocity": 0.905511811023622
        },
        {
          "duration": 12.36170460000001,
          "durationTicks": 2324,
          "midi": 54,
          "name": "F#3",
          "ticks": 13740,
          "time": 73.085121,
          "velocity": 0.6299212598425197
        },
        {
          "duration": 12.36170460000001,
          "durationTicks": 2324,
          "midi": 54,
          "name": "F#3",
          "ticks": 13770,
          "time": 73.2446955,
          "velocity": 0.4409448818897638
        },
        {
          "duration": 32.30851710000002,
          "durationTicks": 6074,
          "midi": 42,
          "name": "F#2",
          "ticks": 13800,
          "time": 73.40427,
          "velocity": 0.905511811023622
        },
        {
          "duration": 12.36170460000001,
          "durationTicks": 2324,
          "midi": 54,
          "name": "F#3",
          "ticks": 13800,
          "time": 73.40427,
          "velocity": 0.6299212598425197
        },
        {
          "duration": 12.36170460000001,
          "durationTicks": 2324,
          "midi": 54,
          "name": "F#3",
          "ticks": 13830,
          "time": 73.5638445,
          "velocity": 0.4409448818897638
        },
        {
          "duration": 5.180852099999996,
          "durationTicks": 974,
          "midi": 36,
          "name": "C2",
          "ticks": 13860,
          "time": 73.723419,
          "velocity": 1
        },
        {
          "duration": 32.3085171,
          "durationTicks": 6074,
          "midi": 42,
          "name": "F#2",
          "ticks": 13860,
          "time": 73.723419,
          "velocity": 0.905511811023622
        },
        {
          "duration": 12.361704599999996,
          "durationTicks": 2324,
          "midi": 54,
          "name": "F#3",
          "ticks": 13860,
          "time": 73.723419,
          "velocity": 0.6299212598425197
        },
        {
          "duration": 12.521279100000015,
          "durationTicks": 2354,
          "midi": 54,
          "name": "F#3",
          "ticks": 13890,
          "time": 73.8829935,
          "velocity": 0.4409448818897638
        },
        {
          "duration": 5.180852099999996,
          "durationTicks": 974,
          "midi": 36,
          "name": "C2",
          "ticks": 13920,
          "time": 74.042568,
          "velocity": 1
        },
        {
          "duration": 32.94681510000001,
          "durationTicks": 6194,
          "midi": 42,
          "name": "F#2",
          "ticks": 13920,
          "time": 74.042568,
          "velocity": 0.905511811023622
        },
        {
          "duration": 12.521279100000001,
          "durationTicks": 2354,
          "midi": 54,
          "name": "F#3",
          "ticks": 13920,
          "time": 74.042568,
          "velocity": 0.6299212598425197
        },
        {
          "duration": 12.521279100000001,
          "durationTicks": 2354,
          "midi": 54,
          "name": "F#3",
          "ticks": 13950,
          "time": 74.20214250000001,
          "velocity": 0.4409448818897638
        },
        {
          "duration": 33.265964100000005,
          "durationTicks": 6254,
          "midi": 42,
          "name": "F#2",
          "ticks": 13980,
          "time": 74.361717,
          "velocity": 0.905511811023622
        },
        {
          "duration": 12.680853600000006,
          "durationTicks": 2384,
          "midi": 54,
          "name": "F#3",
          "ticks": 13980,
          "time": 74.361717,
          "velocity": 0.6299212598425197
        },
        {
          "duration": 12.680853600000006,
          "durationTicks": 2384,
          "midi": 54,
          "name": "F#3",
          "ticks": 14010,
          "time": 74.5212915,
          "velocity": 0.4409448818897638
        },
        {
          "duration": 33.5851131,
          "durationTicks": 6314,
          "midi": 42,
          "name": "F#2",
          "ticks": 14040,
          "time": 74.68086600000001,
          "velocity": 0.905511811023622
        },
        {
          "duration": 12.680853600000006,
          "durationTicks": 2384,
          "midi": 54,
          "name": "F#3",
          "ticks": 14040,
          "time": 74.68086600000001,
          "velocity": 0.6299212598425197
        },
        {
          "duration": 12.840428100000011,
          "durationTicks": 2414,
          "midi": 54,
          "name": "F#3",
          "ticks": 14070,
          "time": 74.8404405,
          "velocity": 0.4409448818897638
        },
        {
          "duration": 5.180852099999996,
          "durationTicks": 974,
          "midi": 36,
          "name": "C2",
          "ticks": 14100,
          "time": 75.000015,
          "velocity": 1
        },
        {
          "duration": 33.5851131,
          "durationTicks": 6314,
          "midi": 42,
          "name": "F#2",
          "ticks": 14100,
          "time": 75.000015,
          "velocity": 0.905511811023622
        },
        {
          "duration": 12.840428100000011,
          "durationTicks": 2414,
          "midi": 54,
          "name": "F#3",
          "ticks": 14100,
          "time": 75.000015,
          "velocity": 0.6299212598425197
        },
        {
          "duration": 12.840428099999997,
          "durationTicks": 2414,
          "midi": 54,
          "name": "F#3",
          "ticks": 14130,
          "time": 75.15958950000001,
          "velocity": 0.4409448818897638
        },
        {
          "duration": 5.180852099999996,
          "durationTicks": 974,
          "midi": 36,
          "name": "C2",
          "ticks": 14160,
          "time": 75.319164,
          "velocity": 1
        },
        {
          "duration": 33.585113100000015,
          "durationTicks": 6314,
          "midi": 42,
          "name": "F#2",
          "ticks": 14160,
          "time": 75.319164,
          "velocity": 0.905511811023622
        },
        {
          "duration": 12.840428100000011,
          "durationTicks": 2414,
          "midi": 54,
          "name": "F#3",
          "ticks": 14160,
          "time": 75.319164,
          "velocity": 0.6299212598425197
        },
        {
          "duration": 12.840428099999997,
          "durationTicks": 2414,
          "midi": 54,
          "name": "F#3",
          "ticks": 14190,
          "time": 75.4787385,
          "velocity": 0.4409448818897638
        },
        {
          "duration": 0.07446809999999005,
          "durationTicks": 14,
          "midi": 35,
          "name": "B1",
          "ticks": 14220,
          "time": 75.63831300000001,
          "velocity": 0.905511811023622
        },
        {
          "duration": 0.07446809999999005,
          "durationTicks": 14,
          "midi": 46,
          "name": "A#2",
          "ticks": 14220,
          "time": 75.63831300000001,
          "velocity": 0.905511811023622
        },
        {
          "duration": 5.180852099999996,
          "durationTicks": 974,
          "midi": 36,
          "name": "C2",
          "ticks": 14220,
          "time": 75.63831300000001,
          "velocity": 0.8661417322834646
        },
        {
          "duration": 12.840428099999997,
          "durationTicks": 2414,
          "midi": 54,
          "name": "F#3",
          "ticks": 14220,
          "time": 75.63831300000001,
          "velocity": 0.6299212598425197
        },
        {
          "duration": 12.840428100000011,
          "durationTicks": 2414,
          "midi": 54,
          "name": "F#3",
          "ticks": 14250,
          "time": 75.7978875,
          "velocity": 0.4409448818897638
        },
        {
          "duration": 33.5851131,
          "durationTicks": 6314,
          "midi": 42,
          "name": "F#2",
          "ticks": 14280,
          "time": 75.957462,
          "velocity": 0.905511811023622
        },
        {
          "duration": 13.000002600000002,
          "durationTicks": 2444,
          "midi": 54,
          "name": "F#3",
          "ticks": 14280,
          "time": 75.957462,
          "velocity": 0.6299212598425197
        },
        {
          "duration": 13.000002600000016,
          "durationTicks": 2444,
          "midi": 54,
          "name": "F#3",
          "ticks": 14310,
          "time": 76.1170365,
          "velocity": 0.4409448818897638
        },
        {
          "duration": 5.180852099999996,
          "durationTicks": 974,
          "midi": 36,
          "name": "C2",
          "ticks": 14340,
          "time": 76.276611,
          "velocity": 1
        },
        {
          "duration": 33.5851131,
          "durationTicks": 6314,
          "midi": 42,
          "name": "F#2",
          "ticks": 14340,
          "time": 76.276611,
          "velocity": 0.905511811023622
        },
        {
          "duration": 13.000002600000002,
          "durationTicks": 2444,
          "midi": 54,
          "name": "F#3",
          "ticks": 14340,
          "time": 76.276611,
          "velocity": 0.6299212598425197
        },
        {
          "duration": 13.000002600000002,
          "durationTicks": 2444,
          "midi": 54,
          "name": "F#3",
          "ticks": 14370,
          "time": 76.43618550000001,
          "velocity": 0.4409448818897638
        },
        {
          "duration": 5.18085210000001,
          "durationTicks": 974,
          "midi": 36,
          "name": "C2",
          "ticks": 14400,
          "time": 76.59576,
          "velocity": 1
        },
        {
          "duration": 33.585113100000015,
          "durationTicks": 6314,
          "midi": 42,
          "name": "F#2",
          "ticks": 14400,
          "time": 76.59576,
          "velocity": 0.905511811023622
        },
        {
          "duration": 13.000002600000016,
          "durationTicks": 2444,
          "midi": 54,
          "name": "F#3",
          "ticks": 14400,
          "time": 76.59576,
          "velocity": 0.6299212598425197
        },
        {
          "duration": 13.000002600000002,
          "durationTicks": 2444,
          "midi": 54,
          "name": "F#3",
          "ticks": 14430,
          "time": 76.7553345,
          "velocity": 0.4409448818897638
        },
        {
          "duration": 33.9042621,
          "durationTicks": 6374,
          "midi": 42,
          "name": "F#2",
          "ticks": 14460,
          "time": 76.91490900000001,
          "velocity": 0.905511811023622
        },
        {
          "duration": 13.000002600000002,
          "durationTicks": 2444,
          "midi": 54,
          "name": "F#3",
          "ticks": 14460,
          "time": 76.91490900000001,
          "velocity": 0.6299212598425197
        },
        {
          "duration": 13.159577100000007,
          "durationTicks": 2474,
          "midi": 54,
          "name": "F#3",
          "ticks": 14490,
          "time": 77.0744835,
          "velocity": 0.4409448818897638
        },
        {
          "duration": 33.90426210000001,
          "durationTicks": 6374,
          "midi": 42,
          "name": "F#2",
          "ticks": 14520,
          "time": 77.234058,
          "velocity": 0.905511811023622
        },
        {
          "duration": 13.159577100000007,
          "durationTicks": 2474,
          "midi": 54,
          "name": "F#3",
          "ticks": 14520,
          "time": 77.234058,
          "velocity": 0.6299212598425197
        },
        {
          "duration": 13.159577099999993,
          "durationTicks": 2474,
          "midi": 54,
          "name": "F#3",
          "ticks": 14550,
          "time": 77.39363250000001,
          "velocity": 0.4409448818897638
        },
        {
          "duration": 5.18085210000001,
          "durationTicks": 974,
          "midi": 36,
          "name": "C2",
          "ticks": 14580,
          "time": 77.553207,
          "velocity": 1
        },
        {
          "duration": 34.54256010000002,
          "durationTicks": 6494,
          "midi": 42,
          "name": "F#2",
          "ticks": 14580,
          "time": 77.553207,
          "velocity": 0.905511811023622
        },
        {
          "duration": 13.159577100000007,
          "durationTicks": 2474,
          "midi": 54,
          "name": "F#3",
          "ticks": 14580,
          "time": 77.553207,
          "velocity": 0.6299212598425197
        },
        {
          "duration": 13.159577100000007,
          "durationTicks": 2474,
          "midi": 54,
          "name": "F#3",
          "ticks": 14610,
          "time": 77.7127815,
          "velocity": 0.4409448818897638
        },
        {
          "duration": 5.180852099999996,
          "durationTicks": 974,
          "midi": 36,
          "name": "C2",
          "ticks": 14640,
          "time": 77.87235600000001,
          "velocity": 1
        },
        {
          "duration": 34.5425601,
          "durationTicks": 6494,
          "midi": 42,
          "name": "F#2",
          "ticks": 14640,
          "time": 77.87235600000001,
          "velocity": 0.905511811023622
        },
        {
          "duration": 13.159577099999993,
          "durationTicks": 2474,
          "midi": 54,
          "name": "F#3",
          "ticks": 14640,
          "time": 77.87235600000001,
          "velocity": 0.6299212598425197
        },
        {
          "duration": 13.159577100000007,
          "durationTicks": 2474,
          "midi": 54,
          "name": "F#3",
          "ticks": 14670,
          "time": 78.0319305,
          "velocity": 0.4409448818897638
        },
        {
          "duration": 34.5425601,
          "durationTicks": 6494,
          "midi": 42,
          "name": "F#2",
          "ticks": 14700,
          "time": 78.191505,
          "velocity": 0.905511811023622
        },
        {
          "duration": 13.319151599999998,
          "durationTicks": 2504,
          "midi": 54,
          "name": "F#3",
          "ticks": 14700,
          "time": 78.191505,
          "velocity": 0.6299212598425197
        },
        {
          "duration": 13.319151600000012,
          "durationTicks": 2504,
          "midi": 54,
          "name": "F#3",
          "ticks": 14730,
          "time": 78.3510795,
          "velocity": 0.4409448818897638
        },
        {
          "duration": 34.86170910000001,
          "durationTicks": 6554,
          "midi": 42,
          "name": "F#2",
          "ticks": 14760,
          "time": 78.510654,
          "velocity": 0.905511811023622
        },
        {
          "duration": 13.319151600000012,
          "durationTicks": 2504,
          "midi": 54,
          "name": "F#3",
          "ticks": 14760,
          "time": 78.510654,
          "velocity": 0.6299212598425197
        },
        {
          "duration": 13.319151599999998,
          "durationTicks": 2504,
          "midi": 54,
          "name": "F#3",
          "ticks": 14790,
          "time": 78.67022850000001,
          "velocity": 0.4409448818897638
        },
        {
          "duration": 5.18085210000001,
          "durationTicks": 974,
          "midi": 36,
          "name": "C2",
          "ticks": 14820,
          "time": 78.829803,
          "velocity": 1
        },
        {
          "duration": 34.86170910000001,
          "durationTicks": 6554,
          "midi": 42,
          "name": "F#2",
          "ticks": 14820,
          "time": 78.829803,
          "velocity": 0.905511811023622
        },
        {
          "duration": 13.319151600000012,
          "durationTicks": 2504,
          "midi": 54,
          "name": "F#3",
          "ticks": 14820,
          "time": 78.829803,
          "velocity": 0.6299212598425197
        },
        {
          "duration": 13.319151600000012,
          "durationTicks": 2504,
          "midi": 54,
          "name": "F#3",
          "ticks": 14850,
          "time": 78.9893775,
          "velocity": 0.4409448818897638
        },
        {
          "duration": 5.180852099999996,
          "durationTicks": 974,
          "midi": 36,
          "name": "C2",
          "ticks": 14880,
          "time": 79.14895200000001,
          "velocity": 1
        },
        {
          "duration": 34.8617091,
          "durationTicks": 6554,
          "midi": 42,
          "name": "F#2",
          "ticks": 14880,
          "time": 79.14895200000001,
          "velocity": 0.905511811023622
        },
        {
          "duration": 13.319151599999998,
          "durationTicks": 2504,
          "midi": 54,
          "name": "F#3",
          "ticks": 14880,
          "time": 79.14895200000001,
          "velocity": 0.6299212598425197
        },
        {
          "duration": 13.478726100000017,
          "durationTicks": 2534,
          "midi": 54,
          "name": "F#3",
          "ticks": 14910,
          "time": 79.3085265,
          "velocity": 0.4409448818897638
        },
        {
          "duration": 35.18085810000001,
          "durationTicks": 6614,
          "midi": 42,
          "name": "F#2",
          "ticks": 14940,
          "time": 79.468101,
          "velocity": 0.905511811023622
        },
        {
          "duration": 13.478726100000003,
          "durationTicks": 2534,
          "midi": 54,
          "name": "F#3",
          "ticks": 14940,
          "time": 79.468101,
          "velocity": 0.6299212598425197
        },
        {
          "duration": 13.478726100000003,
          "durationTicks": 2534,
          "midi": 54,
          "name": "F#3",
          "ticks": 14970,
          "time": 79.62767550000001,
          "velocity": 0.4409448818897638
        },
        {
          "duration": 35.18085810000001,
          "durationTicks": 6614,
          "midi": 42,
          "name": "F#2",
          "ticks": 15000,
          "time": 79.78725,
          "velocity": 0.905511811023622
        },
        {
          "duration": 13.478726100000003,
          "durationTicks": 2534,
          "midi": 54,
          "name": "F#3",
          "ticks": 15000,
          "time": 79.78725,
          "velocity": 0.6299212598425197
        },
        {
          "duration": 13.478726100000003,
          "durationTicks": 2534,
          "midi": 54,
          "name": "F#3",
          "ticks": 15030,
          "time": 79.9468245,
          "velocity": 0.4409448818897638
        },
        {
          "duration": 5.180852099999996,
          "durationTicks": 974,
          "midi": 36,
          "name": "C2",
          "ticks": 15060,
          "time": 80.10639900000001,
          "velocity": 1
        },
        {
          "duration": 35.180858099999995,
          "durationTicks": 6614,
          "midi": 42,
          "name": "F#2",
          "ticks": 15060,
          "time": 80.10639900000001,
          "velocity": 0.905511811023622
        },
        {
          "duration": 13.478726100000003,
          "durationTicks": 2534,
          "midi": 54,
          "name": "F#3",
          "ticks": 15060,
          "time": 80.10639900000001,
          "velocity": 0.6299212598425197
        },
        {
          "duration": 13.478726100000003,
          "durationTicks": 2534,
          "midi": 54,
          "name": "F#3",
          "ticks": 15090,
          "time": 80.2659735,
          "velocity": 0.4409448818897638
        },
        {
          "duration": 5.18085210000001,
          "durationTicks": 974,
          "midi": 36,
          "name": "C2",
          "ticks": 15120,
          "time": 80.425548,
          "velocity": 1
        },
        {
          "duration": 35.500007100000005,
          "durationTicks": 6674,
          "midi": 42,
          "name": "F#2",
          "ticks": 15120,
          "time": 80.425548,
          "velocity": 0.905511811023622
        },
        {
          "duration": 13.638300600000008,
          "durationTicks": 2564,
          "midi": 54,
          "name": "F#3",
          "ticks": 15120,
          "time": 80.425548,
          "velocity": 0.6299212598425197
        },
        {
          "duration": 13.638300600000008,
          "durationTicks": 2564,
          "midi": 54,
          "name": "F#3",
          "ticks": 15150,
          "time": 80.5851225,
          "velocity": 0.4409448818897638
        },
        {
          "duration": 0.07446810000000426,
          "durationTicks": 14,
          "midi": 35,
          "name": "B1",
          "ticks": 15180,
          "time": 80.744697,
          "velocity": 0.905511811023622
        },
        {
          "duration": 0.07446810000000426,
          "durationTicks": 14,
          "midi": 46,
          "name": "A#2",
          "ticks": 15180,
          "time": 80.744697,
          "velocity": 0.905511811023622
        },
        {
          "duration": 5.18085210000001,
          "durationTicks": 974,
          "midi": 36,
          "name": "C2",
          "ticks": 15180,
          "time": 80.744697,
          "velocity": 0.8661417322834646
        },
        {
          "duration": 13.638300600000008,
          "durationTicks": 2564,
          "midi": 54,
          "name": "F#3",
          "ticks": 15180,
          "time": 80.744697,
          "velocity": 0.6299212598425197
        },
        {
          "duration": 13.638300600000008,
          "durationTicks": 2564,
          "midi": 54,
          "name": "F#3",
          "ticks": 15210,
          "time": 80.90427150000001,
          "velocity": 0.4409448818897638
        },
        {
          "duration": 35.18085810000001,
          "durationTicks": 6614,
          "midi": 42,
          "name": "F#2",
          "ticks": 15240,
          "time": 81.063846,
          "velocity": 0.905511811023622
        },
        {
          "duration": 13.638300600000008,
          "durationTicks": 2564,
          "midi": 54,
          "name": "F#3",
          "ticks": 15240,
          "time": 81.063846,
          "velocity": 0.6299212598425197
        },
        {
          "duration": 13.638300600000008,
          "durationTicks": 2564,
          "midi": 54,
          "name": "F#3",
          "ticks": 15270,
          "time": 81.2234205,
          "velocity": 0.4409448818897638
        },
        {
          "duration": 5.180852099999996,
          "durationTicks": 974,
          "midi": 36,
          "name": "C2",
          "ticks": 15300,
          "time": 81.38299500000001,
          "velocity": 1
        },
        {
          "duration": 35.8191561,
          "durationTicks": 6734,
          "midi": 42,
          "name": "F#2",
          "ticks": 15300,
          "time": 81.38299500000001,
          "velocity": 0.905511811023622
        },
        {
          "duration": 13.638300600000008,
          "durationTicks": 2564,
          "midi": 54,
          "name": "F#3",
          "ticks": 15300,
          "time": 81.38299500000001,
          "velocity": 0.6299212598425197
        },
        {
          "duration": 13.797875100000013,
          "durationTicks": 2594,
          "midi": 54,
          "name": "F#3",
          "ticks": 15330,
          "time": 81.5425695,
          "velocity": 0.4409448818897638
        },
        {
          "duration": 6.138299100000012,
          "durationTicks": 1154,
          "midi": 36,
          "name": "C2",
          "ticks": 15360,
          "time": 81.702144,
          "velocity": 1
        },
        {
          "duration": 36.13830510000001,
          "durationTicks": 6794,
          "midi": 42,
          "name": "F#2",
          "ticks": 15360,
          "time": 81.702144,
          "velocity": 0.905511811023622
        },
        {
          "duration": 13.797875099999999,
          "durationTicks": 2594,
          "midi": 54,
          "name": "F#3",
          "ticks": 15360,
          "time": 81.702144,
          "velocity": 0.6299212598425197
        },
        {
          "duration": 13.797875099999999,
          "durationTicks": 2594,
          "midi": 54,
          "name": "F#3",
          "ticks": 15390,
          "time": 81.86171850000001,
          "velocity": 0.4409448818897638
        },
        {
          "duration": 36.45745410000001,
          "durationTicks": 6854,
          "midi": 42,
          "name": "F#2",
          "ticks": 15420,
          "time": 82.021293,
          "velocity": 0.905511811023622
        },
        {
          "duration": 13.797875100000013,
          "durationTicks": 2594,
          "midi": 54,
          "name": "F#3",
          "ticks": 15420,
          "time": 82.021293,
          "velocity": 0.6299212598425197
        },
        {
          "duration": 13.797875099999999,
          "durationTicks": 2594,
          "midi": 54,
          "name": "F#3",
          "ticks": 15450,
          "time": 82.1808675,
          "velocity": 0.4409448818897638
        },
        {
          "duration": 36.45745410000001,
          "durationTicks": 6854,
          "midi": 42,
          "name": "F#2",
          "ticks": 15480,
          "time": 82.34044200000001,
          "velocity": 0.905511811023622
        },
        {
          "duration": 13.797875099999999,
          "durationTicks": 2594,
          "midi": 54,
          "name": "F#3",
          "ticks": 15480,
          "time": 82.34044200000001,
          "velocity": 0.6299212598425197
        },
        {
          "duration": 13.797875100000013,
          "durationTicks": 2594,
          "midi": 54,
          "name": "F#3",
          "ticks": 15510,
          "time": 82.5000165,
          "velocity": 0.4409448818897638
        },
        {
          "duration": 5.500001100000006,
          "durationTicks": 1034,
          "midi": 36,
          "name": "C2",
          "ticks": 15540,
          "time": 82.659591,
          "velocity": 1
        },
        {
          "duration": 36.45745410000001,
          "durationTicks": 6854,
          "midi": 42,
          "name": "F#2",
          "ticks": 15540,
          "time": 82.659591,
          "velocity": 0.905511811023622
        },
        {
          "duration": 13.957449600000004,
          "durationTicks": 2624,
          "midi": 54,
          "name": "F#3",
          "ticks": 15540,
          "time": 82.659591,
          "velocity": 0.6299212598425197
        },
        {
          "duration": 13.957449600000004,
          "durationTicks": 2624,
          "midi": 54,
          "name": "F#3",
          "ticks": 15570,
          "time": 82.81916550000001,
          "velocity": 0.4409448818897638
        },
        {
          "duration": 6.138299100000012,
          "durationTicks": 1154,
          "midi": 36,
          "name": "C2",
          "ticks": 15600,
          "time": 82.97874,
          "velocity": 1
        },
        {
          "duration": 36.7766031,
          "durationTicks": 6914,
          "midi": 42,
          "name": "F#2",
          "ticks": 15600,
          "time": 82.97874,
          "velocity": 0.905511811023622
        },
        {
          "duration": 13.957449600000004,
          "durationTicks": 2624,
          "midi": 54,
          "name": "F#3",
          "ticks": 15600,
          "time": 82.97874,
          "velocity": 0.6299212598425197
        },
        {
          "duration": 14.117024100000009,
          "durationTicks": 2654,
          "midi": 54,
          "name": "F#3",
          "ticks": 15630,
          "time": 83.1383145,
          "velocity": 0.4409448818897638
        },
        {
          "duration": 36.77660310000002,
          "durationTicks": 6914,
          "midi": 42,
          "name": "F#2",
          "ticks": 15660,
          "time": 83.297889,
          "velocity": 0.905511811023622
        },
        {
          "duration": 14.117024100000009,
          "durationTicks": 2654,
          "midi": 54,
          "name": "F#3",
          "ticks": 15660,
          "time": 83.297889,
          "velocity": 0.6299212598425197
        },
        {
          "duration": 14.117024100000009,
          "durationTicks": 2654,
          "midi": 54,
          "name": "F#3",
          "ticks": 15690,
          "time": 83.4574635,
          "velocity": 0.4409448818897638
        },
        {
          "duration": 36.7766031,
          "durationTicks": 6914,
          "midi": 42,
          "name": "F#2",
          "ticks": 15720,
          "time": 83.61703800000001,
          "velocity": 0.905511811023622
        },
        {
          "duration": 14.2765986,
          "durationTicks": 2684,
          "midi": 54,
          "name": "F#3",
          "ticks": 15720,
          "time": 83.61703800000001,
          "velocity": 0.6299212598425197
        },
        {
          "duration": 14.276598600000014,
          "durationTicks": 2684,
          "midi": 54,
          "name": "F#3",
          "ticks": 15750,
          "time": 83.7766125,
          "velocity": 0.4409448818897638
        },
        {
          "duration": 5.500001100000006,
          "durationTicks": 1034,
          "midi": 36,
          "name": "C2",
          "ticks": 15780,
          "time": 83.936187,
          "velocity": 1
        },
        {
          "duration": 37.09575210000001,
          "durationTicks": 6974,
          "midi": 42,
          "name": "F#2",
          "ticks": 15780,
          "time": 83.936187,
          "velocity": 0.905511811023622
        },
        {
          "duration": 14.2765986,
          "durationTicks": 2684,
          "midi": 54,
          "name": "F#3",
          "ticks": 15780,
          "time": 83.936187,
          "velocity": 0.6299212598425197
        },
        {
          "duration": 14.2765986,
          "durationTicks": 2684,
          "midi": 54,
          "name": "F#3",
          "ticks": 15810,
          "time": 84.09576150000001,
          "velocity": 0.4409448818897638
        },
        {
          "duration": 6.138299100000012,
          "durationTicks": 1154,
          "midi": 36,
          "name": "C2",
          "ticks": 15840,
          "time": 84.255336,
          "velocity": 1
        },
        {
          "duration": 37.09575210000001,
          "durationTicks": 6974,
          "midi": 42,
          "name": "F#2",
          "ticks": 15840,
          "time": 84.255336,
          "velocity": 0.905511811023622
        },
        {
          "duration": 14.276598600000014,
          "durationTicks": 2684,
          "midi": 54,
          "name": "F#3",
          "ticks": 15840,
          "time": 84.255336,
          "velocity": 0.6299212598425197
        },
        {
          "duration": 14.2765986,
          "durationTicks": 2684,
          "midi": 54,
          "name": "F#3",
          "ticks": 15870,
          "time": 84.4149105,
          "velocity": 0.4409448818897638
        },
        {
          "duration": 37.734050100000005,
          "durationTicks": 7094,
          "midi": 42,
          "name": "F#2",
          "ticks": 15900,
          "time": 84.57448500000001,
          "velocity": 0.905511811023622
        },
        {
          "duration": 14.2765986,
          "durationTicks": 2684,
          "midi": 54,
          "name": "F#3",
          "ticks": 15900,
          "time": 84.57448500000001,
          "velocity": 0.6299212598425197
        },
        {
          "duration": 14.436173100000005,
          "durationTicks": 2714,
          "midi": 54,
          "name": "F#3",
          "ticks": 15930,
          "time": 84.7340595,
          "velocity": 0.4409448818897638
        },
        {
          "duration": 38.0531991,
          "durationTicks": 7154,
          "midi": 42,
          "name": "F#2",
          "ticks": 15960,
          "time": 84.893634,
          "velocity": 0.905511811023622
        },
        {
          "duration": 14.436173100000005,
          "durationTicks": 2714,
          "midi": 54,
          "name": "F#3",
          "ticks": 15960,
          "time": 84.893634,
          "velocity": 0.6299212598425197
        },
        {
          "duration": 14.436173100000005,
          "durationTicks": 2714,
          "midi": 54,
          "name": "F#3",
          "ticks": 15990,
          "time": 85.05320850000001,
          "velocity": 0.4409448818897638
        },
        {
          "duration": 5.500001100000006,
          "durationTicks": 1034,
          "midi": 36,
          "name": "C2",
          "ticks": 16020,
          "time": 85.212783,
          "velocity": 1
        },
        {
          "duration": 38.37234810000001,
          "durationTicks": 7214,
          "midi": 42,
          "name": "F#2",
          "ticks": 16020,
          "time": 85.212783,
          "velocity": 0.905511811023622
        },
        {
          "duration": 14.436173100000005,
          "durationTicks": 2714,
          "midi": 54,
          "name": "F#3",
          "ticks": 16020,
          "time": 85.212783,
          "velocity": 0.6299212598425197
        },
        {
          "duration": 14.436173100000005,
          "durationTicks": 2714,
          "midi": 54,
          "name": "F#3",
          "ticks": 16050,
          "time": 85.3723575,
          "velocity": 0.4409448818897638
        },
        {
          "duration": 5.500001100000006,
          "durationTicks": 1034,
          "midi": 36,
          "name": "C2",
          "ticks": 16080,
          "time": 85.531932,
          "velocity": 1
        },
        {
          "duration": 38.37234810000001,
          "durationTicks": 7214,
          "midi": 42,
          "name": "F#2",
          "ticks": 16080,
          "time": 85.531932,
          "velocity": 0.905511811023622
        },
        {
          "duration": 14.436173100000019,
          "durationTicks": 2714,
          "midi": 54,
          "name": "F#3",
          "ticks": 16080,
          "time": 85.531932,
          "velocity": 0.6299212598425197
        },
        {
          "duration": 14.436173100000005,
          "durationTicks": 2714,
          "midi": 54,
          "name": "F#3",
          "ticks": 16110,
          "time": 85.6915065,
          "velocity": 0.4409448818897638
        },
        {
          "duration": 0.07446810000000426,
          "durationTicks": 14,
          "midi": 35,
          "name": "B1",
          "ticks": 16140,
          "time": 85.85108100000001,
          "velocity": 0.905511811023622
        },
        {
          "duration": 0.07446810000000426,
          "durationTicks": 14,
          "midi": 46,
          "name": "A#2",
          "ticks": 16140,
          "time": 85.85108100000001,
          "velocity": 0.905511811023622
        },
        {
          "duration": 5.819150100000002,
          "durationTicks": 1094,
          "midi": 36,
          "name": "C2",
          "ticks": 16140,
          "time": 85.85108100000001,
          "velocity": 0.8661417322834646
        },
        {
          "duration": 14.595747599999996,
          "durationTicks": 2744,
          "midi": 54,
          "name": "F#3",
          "ticks": 16140,
          "time": 85.85108100000001,
          "velocity": 0.6299212598425197
        },
        {
          "duration": 14.59574760000001,
          "durationTicks": 2744,
          "midi": 54,
          "name": "F#3",
          "ticks": 16170,
          "time": 86.0106555,
          "velocity": 0.4409448818897638
        },
        {
          "duration": 38.0531991,
          "durationTicks": 7154,
          "midi": 42,
          "name": "F#2",
          "ticks": 16200,
          "time": 86.17023,
          "velocity": 0.905511811023622
        },
        {
          "duration": 14.59574760000001,
          "durationTicks": 2744,
          "midi": 54,
          "name": "F#3",
          "ticks": 16200,
          "time": 86.17023,
          "velocity": 0.6299212598425197
        },
        {
          "duration": 14.595747599999996,
          "durationTicks": 2744,
          "midi": 54,
          "name": "F#3",
          "ticks": 16230,
          "time": 86.32980450000001,
          "velocity": 0.4409448818897638
        },
        {
          "duration": 5.500001100000006,
          "durationTicks": 1034,
          "midi": 36,
          "name": "C2",
          "ticks": 16260,
          "time": 86.489379,
          "velocity": 1
        },
        {
          "duration": 38.37234810000001,
          "durationTicks": 7214,
          "midi": 42,
          "name": "F#2",
          "ticks": 16260,
          "time": 86.489379,
          "velocity": 0.905511811023622
        },
        {
          "duration": 14.59574760000001,
          "durationTicks": 2744,
          "midi": 54,
          "name": "F#3",
          "ticks": 16260,
          "time": 86.489379,
          "velocity": 0.6299212598425197
        },
        {
          "duration": 14.59574760000001,
          "durationTicks": 2744,
          "midi": 54,
          "name": "F#3",
          "ticks": 16290,
          "time": 86.6489535,
          "velocity": 0.4409448818897638
        },
        {
          "duration": 6.138299099999998,
          "durationTicks": 1154,
          "midi": 36,
          "name": "C2",
          "ticks": 16320,
          "time": 86.80852800000001,
          "velocity": 1
        },
        {
          "duration": 38.372348099999996,
          "durationTicks": 7214,
          "midi": 42,
          "name": "F#2",
          "ticks": 16320,
          "time": 86.80852800000001,
          "velocity": 0.905511811023622
        },
        {
          "duration": 14.595747599999996,
          "durationTicks": 2744,
          "midi": 54,
          "name": "F#3",
          "ticks": 16320,
          "time": 86.80852800000001,
          "velocity": 0.6299212598425197
        },
        {
          "duration": 14.755322100000015,
          "durationTicks": 2774,
          "midi": 54,
          "name": "F#3",
          "ticks": 16350,
          "time": 86.9681025,
          "velocity": 0.4409448818897638
        },
        {
          "duration": 38.37234810000001,
          "durationTicks": 7214,
          "midi": 42,
          "name": "F#2",
          "ticks": 16380,
          "time": 87.127677,
          "velocity": 0.905511811023622
        },
        {
          "duration": 14.7553221,
          "durationTicks": 2774,
          "midi": 54,
          "name": "F#3",
          "ticks": 16380,
          "time": 87.127677,
          "velocity": 0.6299212598425197
        },
        {
          "duration": 14.7553221,
          "durationTicks": 2774,
          "midi": 54,
          "name": "F#3",
          "ticks": 16410,
          "time": 87.28725150000001,
          "velocity": 0.4409448818897638
        },
        {
          "duration": 38.69149710000001,
          "durationTicks": 7274,
          "midi": 42,
          "name": "F#2",
          "ticks": 16440,
          "time": 87.446826,
          "velocity": 0.905511811023622
        },
        {
          "duration": 14.755322100000015,
          "durationTicks": 2774,
          "midi": 54,
          "name": "F#3",
          "ticks": 16440,
          "time": 87.446826,
          "velocity": 0.6299212598425197
        },
        {
          "duration": 14.7553221,
          "durationTicks": 2774,
          "midi": 54,
          "name": "F#3",
          "ticks": 16470,
          "time": 87.6064005,
          "velocity": 0.4409448818897638
        },
        {
          "duration": 5.500001100000006,
          "durationTicks": 1034,
          "midi": 36,
          "name": "C2",
          "ticks": 16500,
          "time": 87.765975,
          "velocity": 1
        },
        {
          "duration": 38.69149710000002,
          "durationTicks": 7274,
          "midi": 42,
          "name": "F#2",
          "ticks": 16500,
          "time": 87.765975,
          "velocity": 0.905511811023622
        },
        {
          "duration": 14.755322100000015,
          "durationTicks": 2774,
          "midi": 54,
          "name": "F#3",
          "ticks": 16500,
          "time": 87.765975,
          "velocity": 0.6299212598425197
        },
        {
          "duration": 14.7553221,
          "durationTicks": 2774,
          "midi": 54,
          "name": "F#3",
          "ticks": 16530,
          "time": 87.9255495,
          "velocity": 0.4409448818897638
        },
        {
          "duration": 6.138299099999998,
          "durationTicks": 1154,
          "midi": 36,
          "name": "C2",
          "ticks": 16560,
          "time": 88.08512400000001,
          "velocity": 1
        },
        {
          "duration": 39.3297951,
          "durationTicks": 7394,
          "midi": 42,
          "name": "F#2",
          "ticks": 16560,
          "time": 88.08512400000001,
          "velocity": 0.905511811023622
        },
        {
          "duration": 14.914896600000006,
          "durationTicks": 2804,
          "midi": 54,
          "name": "F#3",
          "ticks": 16560,
          "time": 88.08512400000001,
          "velocity": 0.6299212598425197
        },
        {
          "duration": 14.914896600000006,
          "durationTicks": 2804,
          "midi": 54,
          "name": "F#3",
          "ticks": 16590,
          "time": 88.2446985,
          "velocity": 0.4409448818897638
        },
        {
          "duration": 39.64894410000001,
          "durationTicks": 7454,
          "midi": 42,
          "name": "F#2",
          "ticks": 16620,
          "time": 88.404273,
          "velocity": 0.905511811023622
        },
        {
          "duration": 14.914896600000006,
          "durationTicks": 2804,
          "midi": 54,
          "name": "F#3",
          "ticks": 16620,
          "time": 88.404273,
          "velocity": 0.6299212598425197
        },
        {
          "duration": 14.914896600000006,
          "durationTicks": 2804,
          "midi": 54,
          "name": "F#3",
          "ticks": 16650,
          "time": 88.56384750000001,
          "velocity": 0.4409448818897638
        },
        {
          "duration": 39.968093100000004,
          "durationTicks": 7514,
          "midi": 42,
          "name": "F#2",
          "ticks": 16680,
          "time": 88.723422,
          "velocity": 0.905511811023622
        },
        {
          "duration": 14.914896600000006,
          "durationTicks": 2804,
          "midi": 54,
          "name": "F#3",
          "ticks": 16680,
          "time": 88.723422,
          "velocity": 0.6299212598425197
        },
        {
          "duration": 14.914896600000006,
          "durationTicks": 2804,
          "midi": 54,
          "name": "F#3",
          "ticks": 16710,
          "time": 88.8829965,
          "velocity": 0.4409448818897638
        },
        {
          "duration": 5.500001100000006,
          "durationTicks": 1034,
          "midi": 36,
          "name": "C2",
          "ticks": 16740,
          "time": 89.04257100000001,
          "velocity": 1
        },
        {
          "duration": 39.968093100000004,
          "durationTicks": 7514,
          "midi": 42,
          "name": "F#2",
          "ticks": 16740,
          "time": 89.04257100000001,
          "velocity": 0.905511811023622
        },
        {
          "duration": 14.914896600000006,
          "durationTicks": 2804,
          "midi": 54,
          "name": "F#3",
          "ticks": 16740,
          "time": 89.04257100000001,
          "velocity": 0.6299212598425197
        },
        {
          "duration": 15.074471100000011,
          "durationTicks": 2834,
          "midi": 54,
          "name": "F#3",
          "ticks": 16770,
          "time": 89.2021455,
          "velocity": 0.4409448818897638
        },
        {
          "duration": 6.138299099999998,
          "durationTicks": 1154,
          "midi": 36,
          "name": "C2",
          "ticks": 16800,
          "time": 89.36172,
          "velocity": 1
        },
        {
          "duration": 39.96809310000002,
          "durationTicks": 7514,
          "midi": 42,
          "name": "F#2",
          "ticks": 16800,
          "time": 89.36172,
          "velocity": 0.905511811023622
        },
        {
          "duration": 15.074471100000011,
          "durationTicks": 2834,
          "midi": 54,
          "name": "F#3",
          "ticks": 16800,
          "time": 89.36172,
          "velocity": 0.6299212598425197
        },
        {
          "duration": 15.074471099999997,
          "durationTicks": 2834,
          "midi": 54,
          "name": "F#3",
          "ticks": 16830,
          "time": 89.52129450000001,
          "velocity": 0.4409448818897638
        },
        {
          "duration": 40.287242100000014,
          "durationTicks": 7574,
          "midi": 42,
          "name": "F#2",
          "ticks": 16860,
          "time": 89.680869,
          "velocity": 0.905511811023622
        },
        {
          "duration": 15.074471100000011,
          "durationTicks": 2834,
          "midi": 54,
          "name": "F#3",
          "ticks": 16860,
          "time": 89.680869,
          "velocity": 0.6299212598425197
        },
        {
          "duration": 15.074471099999997,
          "durationTicks": 2834,
          "midi": 54,
          "name": "F#3",
          "ticks": 16890,
          "time": 89.8404435,
          "velocity": 0.4409448818897638
        },
        {
          "duration": 40.287242099999986,
          "durationTicks": 7574,
          "midi": 42,
          "name": "F#2",
          "ticks": 16920,
          "time": 90.00001800000001,
          "velocity": 0.905511811023622
        },
        {
          "duration": 15.074471099999997,
          "durationTicks": 2834,
          "midi": 54,
          "name": "F#3",
          "ticks": 16920,
          "time": 90.00001800000001,
          "velocity": 0.6299212598425197
        },
        {
          "duration": 15.074471100000011,
          "durationTicks": 2834,
          "midi": 54,
          "name": "F#3",
          "ticks": 16950,
          "time": 90.1595925,
          "velocity": 0.4409448818897638
        },
        {
          "duration": 5.500001100000006,
          "durationTicks": 1034,
          "midi": 36,
          "name": "C2",
          "ticks": 16980,
          "time": 90.31916700000001,
          "velocity": 1
        },
        {
          "duration": 40.2872421,
          "durationTicks": 7574,
          "midi": 42,
          "name": "F#2",
          "ticks": 16980,
          "time": 90.31916700000001,
          "velocity": 0.905511811023622
        },
        {
          "duration": 15.234045600000002,
          "durationTicks": 2864,
          "midi": 54,
          "name": "F#3",
          "ticks": 16980,
          "time": 90.31916700000001,
          "velocity": 0.6299212598425197
        },
        {
          "duration": 15.234045600000016,
          "durationTicks": 2864,
          "midi": 54,
          "name": "F#3",
          "ticks": 17010,
          "time": 90.4787415,
          "velocity": 0.4409448818897638
        },
        {
          "duration": 5.500001100000006,
          "durationTicks": 1034,
          "midi": 36,
          "name": "C2",
          "ticks": 17040,
          "time": 90.638316,
          "velocity": 1
        },
        {
          "duration": 40.606391099999996,
          "durationTicks": 7634,
          "midi": 42,
          "name": "F#2",
          "ticks": 17040,
          "time": 90.638316,
          "velocity": 0.905511811023622
        },
        {
          "duration": 15.234045600000002,
          "durationTicks": 2864,
          "midi": 54,
          "name": "F#3",
          "ticks": 17040,
          "time": 90.638316,
          "velocity": 0.6299212598425197
        },
        {
          "duration": 15.234045600000002,
          "durationTicks": 2864,
          "midi": 54,
          "name": "F#3",
          "ticks": 17070,
          "time": 90.79789050000001,
          "velocity": 0.4409448818897638
        },
        {
          "duration": 0.07446810000000426,
          "durationTicks": 14,
          "midi": 35,
          "name": "B1",
          "ticks": 17100,
          "time": 90.957465,
          "velocity": 0.905511811023622
        },
        {
          "duration": 0.07446810000000426,
          "durationTicks": 14,
          "midi": 46,
          "name": "A#2",
          "ticks": 17100,
          "time": 90.957465,
          "velocity": 0.905511811023622
        },
        {
          "duration": 5.819150100000016,
          "durationTicks": 1094,
          "midi": 36,
          "name": "C2",
          "ticks": 17100,
          "time": 90.957465,
          "velocity": 0.8661417322834646
        },
        {
          "duration": 15.234045600000016,
          "durationTicks": 2864,
          "midi": 54,
          "name": "F#3",
          "ticks": 17100,
          "time": 90.957465,
          "velocity": 0.6299212598425197
        },
        {
          "duration": 15.234045600000002,
          "durationTicks": 2864,
          "midi": 54,
          "name": "F#3",
          "ticks": 17130,
          "time": 91.1170395,
          "velocity": 0.4409448818897638
        },
        {
          "duration": 40.2872421,
          "durationTicks": 7574,
          "midi": 42,
          "name": "F#2",
          "ticks": 17160,
          "time": 91.27661400000001,
          "velocity": 0.905511811023622
        },
        {
          "duration": 15.234045600000002,
          "durationTicks": 2864,
          "midi": 54,
          "name": "F#3",
          "ticks": 17160,
          "time": 91.27661400000001,
          "velocity": 0.6299212598425197
        },
        {
          "duration": 15.393620100000007,
          "durationTicks": 2894,
          "midi": 54,
          "name": "F#3",
          "ticks": 17190,
          "time": 91.4361885,
          "velocity": 0.4409448818897638
        },
        {
          "duration": 6.457448100000008,
          "durationTicks": 1214,
          "midi": 36,
          "name": "C2",
          "ticks": 17220,
          "time": 91.595763,
          "velocity": 1
        },
        {
          "duration": 40.925540100000006,
          "durationTicks": 7694,
          "midi": 42,
          "name": "F#2",
          "ticks": 17220,
          "time": 91.595763,
          "velocity": 0.905511811023622
        },
        {
          "duration": 15.393620100000007,
          "durationTicks": 2894,
          "midi": 54,
          "name": "F#3",
          "ticks": 17220,
          "time": 91.595763,
          "velocity": 0.6299212598425197
        },
        {
          "duration": 15.393620100000007,
          "durationTicks": 2894,
          "midi": 54,
          "name": "F#3",
          "ticks": 17250,
          "time": 91.75533750000001,
          "velocity": 0.4409448818897638
        },
        {
          "duration": 6.457448100000008,
          "durationTicks": 1214,
          "midi": 36,
          "name": "C2",
          "ticks": 17280,
          "time": 91.914912,
          "velocity": 1
        },
        {
          "duration": 40.92554010000002,
          "durationTicks": 7694,
          "midi": 42,
          "name": "F#2",
          "ticks": 17280,
          "time": 91.914912,
          "velocity": 0.905511811023622
        },
        {
          "duration": 15.553194600000012,
          "durationTicks": 2924,
          "midi": 54,
          "name": "F#3",
          "ticks": 17280,
          "time": 91.914912,
          "velocity": 0.6299212598425197
        },
        {
          "duration": 15.553194599999998,
          "durationTicks": 2924,
          "midi": 54,
          "name": "F#3",
          "ticks": 17310,
          "time": 92.0744865,
          "velocity": 0.4409448818897638
        },
        {
          "duration": 40.92554009999999,
          "durationTicks": 7694,
          "midi": 42,
          "name": "F#2",
          "ticks": 17340,
          "time": 92.23406100000001,
          "velocity": 0.905511811023622
        },
        {
          "duration": 15.553194599999998,
          "durationTicks": 2924,
          "midi": 54,
          "name": "F#3",
          "ticks": 17340,
          "time": 92.23406100000001,
          "velocity": 0.6299212598425197
        },
        {
          "duration": 15.712769100000003,
          "durationTicks": 2954,
          "midi": 54,
          "name": "F#3",
          "ticks": 17370,
          "time": 92.3936355,
          "velocity": 0.4409448818897638
        },
        {
          "duration": 41.244689100000016,
          "durationTicks": 7754,
          "midi": 42,
          "name": "F#2",
          "ticks": 17400,
          "time": 92.55321,
          "velocity": 0.905511811023622
        },
        {
          "duration": 15.712769100000003,
          "durationTicks": 2954,
          "midi": 54,
          "name": "F#3",
          "ticks": 17400,
          "time": 92.55321,
          "velocity": 0.6299212598425197
        },
        {
          "duration": 15.712769100000017,
          "durationTicks": 2954,
          "midi": 54,
          "name": "F#3",
          "ticks": 17430,
          "time": 92.7127845,
          "velocity": 0.4409448818897638
        },
        {
          "duration": 6.457448100000008,
          "durationTicks": 1214,
          "midi": 36,
          "name": "C2",
          "ticks": 17460,
          "time": 92.872359,
          "velocity": 1
        },
        {
          "duration": 41.2446891,
          "durationTicks": 7754,
          "midi": 42,
          "name": "F#2",
          "ticks": 17460,
          "time": 92.872359,
          "velocity": 0.905511811023622
        },
        {
          "duration": 15.712769100000003,
          "durationTicks": 2954,
          "midi": 54,
          "name": "F#3",
          "ticks": 17460,
          "time": 92.872359,
          "velocity": 0.6299212598425197
        },
        {
          "duration": 15.712769100000003,
          "durationTicks": 2954,
          "midi": 54,
          "name": "F#3",
          "ticks": 17490,
          "time": 93.03193350000001,
          "velocity": 0.4409448818897638
        },
        {
          "duration": 6.457448100000008,
          "durationTicks": 1214,
          "midi": 36,
          "name": "C2",
          "ticks": 17520,
          "time": 93.191508,
          "velocity": 1
        },
        {
          "duration": 41.244689100000016,
          "durationTicks": 7754,
          "midi": 42,
          "name": "F#2",
          "ticks": 17520,
          "time": 93.191508,
          "velocity": 0.905511811023622
        },
        {
          "duration": 15.712769100000017,
          "durationTicks": 2954,
          "midi": 54,
          "name": "F#3",
          "ticks": 17520,
          "time": 93.191508,
          "velocity": 0.6299212598425197
        },
        {
          "duration": 15.712769100000003,
          "durationTicks": 2954,
          "midi": 54,
          "name": "F#3",
          "ticks": 17550,
          "time": 93.3510825,
          "velocity": 0.4409448818897638
        },
        {
          "duration": 41.5638381,
          "durationTicks": 7814,
          "midi": 42,
          "name": "F#2",
          "ticks": 17580,
          "time": 93.51065700000001,
          "velocity": 0.905511811023622
        },
        {
          "duration": 15.872343600000008,
          "durationTicks": 2984,
          "midi": 54,
          "name": "F#3",
          "ticks": 17580,
          "time": 93.51065700000001,
          "velocity": 0.6299212598425197
        },
        {
          "duration": 15.872343600000008,
          "durationTicks": 2984,
          "midi": 54,
          "name": "F#3",
          "ticks": 17610,
          "time": 93.6702315,
          "velocity": 0.4409448818897638
        },
        {
          "duration": 41.56383810000001,
          "durationTicks": 7814,
          "midi": 42,
          "name": "F#2",
          "ticks": 17640,
          "time": 93.829806,
          "velocity": 0.905511811023622
        },
        {
          "duration": 15.872343600000008,
          "durationTicks": 2984,
          "midi": 54,
          "name": "F#3",
          "ticks": 17640,
          "time": 93.829806,
          "velocity": 0.6299212598425197
        },
        {
          "duration": 15.872343599999994,
          "durationTicks": 2984,
          "midi": 54,
          "name": "F#3",
          "ticks": 17670,
          "time": 93.98938050000001,
          "velocity": 0.4409448818897638
        },
        {
          "duration": 6.457448100000008,
          "durationTicks": 1214,
          "midi": 36,
          "name": "C2",
          "ticks": 17700,
          "time": 94.148955,
          "velocity": 1
        },
        {
          "duration": 41.5638381,
          "durationTicks": 7814,
          "midi": 42,
          "name": "F#2",
          "ticks": 17700,
          "time": 94.148955,
          "velocity": 0.905511811023622
        },
        {
          "duration": 15.872343600000008,
          "durationTicks": 2984,
          "midi": 54,
          "name": "F#3",
          "ticks": 17700,
          "time": 94.148955,
          "velocity": 0.6299212598425197
        },
        {
          "duration": 15.872343600000008,
          "durationTicks": 2984,
          "midi": 54,
          "name": "F#3",
          "ticks": 17730,
          "time": 94.3085295,
          "velocity": 0.4409448818897638
        },
        {
          "duration": 6.4574480999999935,
          "durationTicks": 1214,
          "midi": 36,
          "name": "C2",
          "ticks": 17760,
          "time": 94.46810400000001,
          "velocity": 1
        },
        {
          "duration": 41.88298710000001,
          "durationTicks": 7874,
          "midi": 42,
          "name": "F#2",
          "ticks": 17760,
          "time": 94.46810400000001,
          "velocity": 0.905511811023622
        },
        {
          "duration": 15.872343599999994,
          "durationTicks": 2984,
          "midi": 54,
          "name": "F#3",
          "ticks": 17760,
          "time": 94.46810400000001,
          "velocity": 0.6299212598425197
        },
        {
          "duration": 16.031918100000013,
          "durationTicks": 3014,
          "midi": 54,
          "name": "F#3",
          "ticks": 17790,
          "time": 94.6276785,
          "velocity": 0.4409448818897638
        },
        {
          "duration": 41.882987099999994,
          "durationTicks": 7874,
          "midi": 42,
          "name": "F#2",
          "ticks": 17820,
          "time": 94.787253,
          "velocity": 0.905511811023622
        },
        {
          "duration": 16.0319181,
          "durationTicks": 3014,
          "midi": 54,
          "name": "F#3",
          "ticks": 17820,
          "time": 94.787253,
          "velocity": 0.6299212598425197
        },
        {
          "duration": 16.031918100000013,
          "durationTicks": 3014,
          "midi": 54,
          "name": "F#3",
          "ticks": 17850,
          "time": 94.9468275,
          "velocity": 0.4409448818897638
        },
        {
          "duration": 42.5212851,
          "durationTicks": 7994,
          "midi": 42,
          "name": "F#2",
          "ticks": 17880,
          "time": 95.106402,
          "velocity": 0.905511811023622
        },
        {
          "duration": 16.031918100000013,
          "durationTicks": 3014,
          "midi": 54,
          "name": "F#3",
          "ticks": 17880,
          "time": 95.106402,
          "velocity": 0.6299212598425197
        },
        {
          "duration": 16.0319181,
          "durationTicks": 3014,
          "midi": 54,
          "name": "F#3",
          "ticks": 17910,
          "time": 95.26597650000001,
          "velocity": 0.4409448818897638
        },
        {
          "duration": 5.819150100000016,
          "durationTicks": 1094,
          "midi": 36,
          "name": "C2",
          "ticks": 17940,
          "time": 95.425551,
          "velocity": 1
        },
        {
          "duration": 42.840434100000024,
          "durationTicks": 8054,
          "midi": 42,
          "name": "F#2",
          "ticks": 17940,
          "time": 95.425551,
          "velocity": 0.905511811023622
        },
        {
          "duration": 16.031918100000013,
          "durationTicks": 3014,
          "midi": 54,
          "name": "F#3",
          "ticks": 17940,
          "time": 95.425551,
          "velocity": 0.6299212598425197
        },
        {
          "duration": 16.031918100000013,
          "durationTicks": 3014,
          "midi": 54,
          "name": "F#3",
          "ticks": 17970,
          "time": 95.5851255,
          "velocity": 0.4409448818897638
        },
        {
          "duration": 6.138299099999998,
          "durationTicks": 1154,
          "midi": 36,
          "name": "C2",
          "ticks": 18000,
          "time": 95.74470000000001,
          "velocity": 1
        },
        {
          "duration": 43.159583100000006,
          "durationTicks": 8114,
          "midi": 42,
          "name": "F#2",
          "ticks": 18000,
          "time": 95.74470000000001,
          "velocity": 0.905511811023622
        },
        {
          "duration": 16.191492600000004,
          "durationTicks": 3044,
          "midi": 54,
          "name": "F#3",
          "ticks": 18000,
          "time": 95.74470000000001,
          "velocity": 0.6299212598425197
        },
        {
          "duration": 16.191492600000018,
          "durationTicks": 3044,
          "midi": 54,
          "name": "F#3",
          "ticks": 18030,
          "time": 95.9042745,
          "velocity": 0.4409448818897638
        },
        {
          "duration": 0.07446810000000426,
          "durationTicks": 14,
          "midi": 35,
          "name": "B1",
          "ticks": 18060,
          "time": 96.063849,
          "velocity": 0.905511811023622
        },
        {
          "duration": 0.07446810000000426,
          "durationTicks": 14,
          "midi": 46,
          "name": "A#2",
          "ticks": 18060,
          "time": 96.063849,
          "velocity": 0.905511811023622
        },
        {
          "duration": 6.138299100000012,
          "durationTicks": 1154,
          "midi": 36,
          "name": "C2",
          "ticks": 18060,
          "time": 96.063849,
          "velocity": 0.8661417322834646
        },
        {
          "duration": 16.191492600000004,
          "durationTicks": 3044,
          "midi": 54,
          "name": "F#3",
          "ticks": 18060,
          "time": 96.063849,
          "velocity": 0.6299212598425197
        },
        {
          "duration": 16.191492600000004,
          "durationTicks": 3044,
          "midi": 54,
          "name": "F#3",
          "ticks": 18090,
          "time": 96.22342350000001,
          "velocity": 0.4409448818897638
        },
        {
          "duration": 42.840434100000024,
          "durationTicks": 8054,
          "midi": 42,
          "name": "F#2",
          "ticks": 18120,
          "time": 96.382998,
          "velocity": 0.905511811023622
        },
        {
          "duration": 16.191492600000004,
          "durationTicks": 3044,
          "midi": 54,
          "name": "F#3",
          "ticks": 18120,
          "time": 96.382998,
          "velocity": 0.6299212598425197
        },
        {
          "duration": 16.191492600000004,
          "durationTicks": 3044,
          "midi": 54,
          "name": "F#3",
          "ticks": 18150,
          "time": 96.5425725,
          "velocity": 0.4409448818897638
        },
        {
          "duration": 6.4574480999999935,
          "durationTicks": 1214,
          "midi": 36,
          "name": "C2",
          "ticks": 18180,
          "time": 96.70214700000001,
          "velocity": 1
        },
        {
          "duration": 42.840434099999996,
          "durationTicks": 8054,
          "midi": 42,
          "name": "F#2",
          "ticks": 18180,
          "time": 96.70214700000001,
          "velocity": 0.905511811023622
        },
        {
          "duration": 16.191492600000004,
          "durationTicks": 3044,
          "midi": 54,
          "name": "F#3",
          "ticks": 18180,
          "time": 96.70214700000001,
          "velocity": 0.6299212598425197
        },
        {
          "duration": 16.35106710000001,
          "durationTicks": 3074,
          "midi": 54,
          "name": "F#3",
          "ticks": 18210,
          "time": 96.8617215,
          "velocity": 0.4409448818897638
        },
        {
          "duration": 6.457448100000008,
          "durationTicks": 1214,
          "midi": 36,
          "name": "C2",
          "ticks": 18240,
          "time": 97.021296,
          "velocity": 1
        },
        {
          "duration": 43.15958309999999,
          "durationTicks": 8114,
          "midi": 42,
          "name": "F#2",
          "ticks": 18240,
          "time": 97.021296,
          "velocity": 0.905511811023622
        },
        {
          "duration": 16.35106710000001,
          "durationTicks": 3074,
          "midi": 54,
          "name": "F#3",
          "ticks": 18240,
          "time": 97.021296,
          "velocity": 0.6299212598425197
        },
        {
          "duration": 16.351067099999995,
          "durationTicks": 3074,
          "midi": 54,
          "name": "F#3",
          "ticks": 18270,
          "time": 97.18087050000001,
          "velocity": 0.4409448818897638
        },
        {
          "duration": 43.159583100000006,
          "durationTicks": 8114,
          "midi": 42,
          "name": "F#2",
          "ticks": 18300,
          "time": 97.340445,
          "velocity": 0.905511811023622
        },
        {
          "duration": 16.35106710000001,
          "durationTicks": 3074,
          "midi": 54,
          "name": "F#3",
          "ticks": 18300,
          "time": 97.340445,
          "velocity": 0.6299212598425197
        },
        {
          "duration": 16.35106710000001,
          "durationTicks": 3074,
          "midi": 54,
          "name": "F#3",
          "ticks": 18330,
          "time": 97.50001950000001,
          "velocity": 0.4409448818897638
        },
        {
          "duration": 43.15958310000002,
          "durationTicks": 8114,
          "midi": 42,
          "name": "F#2",
          "ticks": 18360,
          "time": 97.659594,
          "velocity": 0.905511811023622
        },
        {
          "duration": 16.35106710000001,
          "durationTicks": 3074,
          "midi": 54,
          "name": "F#3",
          "ticks": 18360,
          "time": 97.659594,
          "velocity": 0.6299212598425197
        },
        {
          "duration": 16.35106710000001,
          "durationTicks": 3074,
          "midi": 54,
          "name": "F#3",
          "ticks": 18390,
          "time": 97.8191685,
          "velocity": 0.4409448818897638
        },
        {
          "duration": 6.457448100000008,
          "durationTicks": 1214,
          "midi": 36,
          "name": "C2",
          "ticks": 18420,
          "time": 97.97874300000001,
          "velocity": 1
        },
        {
          "duration": 43.4787321,
          "durationTicks": 8174,
          "midi": 42,
          "name": "F#2",
          "ticks": 18420,
          "time": 97.97874300000001,
          "velocity": 0.905511811023622
        },
        {
          "duration": 16.5106416,
          "durationTicks": 3104,
          "midi": 54,
          "name": "F#3",
          "ticks": 18420,
          "time": 97.97874300000001,
          "velocity": 0.6299212598425197
        },
        {
          "duration": 16.510641600000014,
          "durationTicks": 3104,
          "midi": 54,
          "name": "F#3",
          "ticks": 18450,
          "time": 98.1383175,
          "velocity": 0.4409448818897638
        },
        {
          "duration": 6.457448100000008,
          "durationTicks": 1214,
          "midi": 36,
          "name": "C2",
          "ticks": 18480,
          "time": 98.297892,
          "velocity": 1
        },
        {
          "duration": 43.478732100000016,
          "durationTicks": 8174,
          "midi": 42,
          "name": "F#2",
          "ticks": 18480,
          "time": 98.297892,
          "velocity": 0.905511811023622
        },
        {
          "duration": 16.5106416,
          "durationTicks": 3104,
          "midi": 54,
          "name": "F#3",
          "ticks": 18480,
          "time": 98.297892,
          "velocity": 0.6299212598425197
        },
        {
          "duration": 16.5106416,
          "durationTicks": 3104,
          "midi": 54,
          "name": "F#3",
          "ticks": 18510,
          "time": 98.45746650000001,
          "velocity": 0.4409448818897638
        },
        {
          "duration": 44.11703010000002,
          "durationTicks": 8294,
          "midi": 42,
          "name": "F#2",
          "ticks": 18540,
          "time": 98.617041,
          "velocity": 0.905511811023622
        },
        {
          "duration": 16.510641600000014,
          "durationTicks": 3104,
          "midi": 54,
          "name": "F#3",
          "ticks": 18540,
          "time": 98.617041,
          "velocity": 0.6299212598425197
        },
        {
          "duration": 16.5106416,
          "durationTicks": 3104,
          "midi": 54,
          "name": "F#3",
          "ticks": 18570,
          "time": 98.7766155,
          "velocity": 0.4409448818897638
        },
        {
          "duration": 44.117030099999994,
          "durationTicks": 8294,
          "midi": 42,
          "name": "F#2",
          "ticks": 18600,
          "time": 98.93619000000001,
          "velocity": 0.905511811023622
        },
        {
          "duration": 16.5106416,
          "durationTicks": 3104,
          "midi": 54,
          "name": "F#3",
          "ticks": 18600,
          "time": 98.93619000000001,
          "velocity": 0.6299212598425197
        },
        {
          "duration": 16.670216100000005,
          "durationTicks": 3134,
          "midi": 54,
          "name": "F#3",
          "ticks": 18630,
          "time": 99.0957645,
          "velocity": 0.4409448818897638
        },
        {
          "duration": 6.457448100000008,
          "durationTicks": 1214,
          "midi": 36,
          "name": "C2",
          "ticks": 18660,
          "time": 99.255339,
          "velocity": 1
        },
        {
          "duration": 44.11703010000001,
          "durationTicks": 8294,
          "midi": 42,
          "name": "F#2",
          "ticks": 18660,
          "time": 99.255339,
          "velocity": 0.905511811023622
        },
        {
          "duration": 16.670216100000005,
          "durationTicks": 3134,
          "midi": 54,
          "name": "F#3",
          "ticks": 18660,
          "time": 99.255339,
          "velocity": 0.6299212598425197
        },
        {
          "duration": 16.670216100000005,
          "durationTicks": 3134,
          "midi": 54,
          "name": "F#3",
          "ticks": 18690,
          "time": 99.41491350000001,
          "velocity": 0.4409448818897638
        },
        {
          "duration": 6.457448100000008,
          "durationTicks": 1214,
          "midi": 36,
          "name": "C2",
          "ticks": 18720,
          "time": 99.574488,
          "velocity": 1
        },
        {
          "duration": 44.436179100000004,
          "durationTicks": 8354,
          "midi": 42,
          "name": "F#2",
          "ticks": 18720,
          "time": 99.574488,
          "velocity": 0.905511811023622
        },
        {
          "duration": 16.670216100000005,
          "durationTicks": 3134,
          "midi": 54,
          "name": "F#3",
          "ticks": 18720,
          "time": 99.574488,
          "velocity": 0.6299212598425197
        },
        {
          "duration": 16.670216100000005,
          "durationTicks": 3134,
          "midi": 54,
          "name": "F#3",
          "ticks": 18750,
          "time": 99.73406250000001,
          "velocity": 0.4409448818897638
        },
        {
          "duration": 44.43617910000002,
          "durationTicks": 8354,
          "midi": 42,
          "name": "F#2",
          "ticks": 18780,
          "time": 99.893637,
          "velocity": 0.905511811023622
        },
        {
          "duration": 16.67021610000002,
          "durationTicks": 3134,
          "midi": 54,
          "name": "F#3",
          "ticks": 18780,
          "time": 99.893637,
          "velocity": 0.6299212598425197
        },
        {
          "duration": 16.670216100000005,
          "durationTicks": 3134,
          "midi": 54,
          "name": "F#3",
          "ticks": 18810,
          "time": 100.0532115,
          "velocity": 0.4409448818897638
        },
        {
          "duration": 44.43617909999999,
          "durationTicks": 8354,
          "midi": 42,
          "name": "F#2",
          "ticks": 18840,
          "time": 100.21278600000001,
          "velocity": 0.905511811023622
        },
        {
          "duration": 16.829790599999995,
          "durationTicks": 3164,
          "midi": 54,
          "name": "F#3",
          "ticks": 18840,
          "time": 100.21278600000001,
          "velocity": 0.6299212598425197
        },
        {
          "duration": 16.82979060000001,
          "durationTicks": 3164,
          "midi": 54,
          "name": "F#3",
          "ticks": 18870,
          "time": 100.3723605,
          "velocity": 0.4409448818897638
        },
        {
          "duration": 5.819150100000002,
          "durationTicks": 1094,
          "midi": 36,
          "name": "C2",
          "ticks": 18900,
          "time": 100.531935,
          "velocity": 1
        },
        {
          "duration": 44.755328100000014,
          "durationTicks": 8414,
          "midi": 42,
          "name": "F#2",
          "ticks": 18900,
          "time": 100.531935,
          "velocity": 0.905511811023622
        },
        {
          "duration": 16.82979060000001,
          "durationTicks": 3164,
          "midi": 54,
          "name": "F#3",
          "ticks": 18900,
          "time": 100.531935,
          "velocity": 0.6299212598425197
        },
        {
          "duration": 16.9893651,
          "durationTicks": 3194,
          "midi": 54,
          "name": "F#3",
          "ticks": 18930,
          "time": 100.69150950000001,
          "velocity": 0.4409448818897638
        },
        {
          "duration": 6.138299100000012,
          "durationTicks": 1154,
          "midi": 36,
          "name": "C2",
          "ticks": 18960,
          "time": 100.851084,
          "velocity": 1
        },
        {
          "duration": 44.7553281,
          "durationTicks": 8414,
          "midi": 42,
          "name": "F#2",
          "ticks": 18960,
          "time": 100.851084,
          "velocity": 0.905511811023622
        },
        {
          "duration": 16.989365100000015,
          "durationTicks": 3194,
          "midi": 54,
          "name": "F#3",
          "ticks": 18960,
          "time": 100.851084,
          "velocity": 0.6299212598425197
        },
        {
          "duration": 16.9893651,
          "durationTicks": 3194,
          "midi": 54,
          "name": "F#3",
          "ticks": 18990,
          "time": 101.0106585,
          "velocity": 0.4409448818897638
        },
        {
          "duration": 0.07446810000000426,
          "durationTicks": 14,
          "midi": 35,
          "name": "B1",
          "ticks": 19020,
          "time": 101.17023300000001,
          "velocity": 0.905511811023622
        },
        {
          "duration": 0.07446810000000426,
          "durationTicks": 14,
          "midi": 46,
          "name": "A#2",
          "ticks": 19020,
          "time": 101.17023300000001,
          "velocity": 0.905511811023622
        },
        {
          "duration": 7.0957460999999995,
          "durationTicks": 1334,
          "midi": 36,
          "name": "C2",
          "ticks": 19020,
          "time": 101.17023300000001,
          "velocity": 0.8661417322834646
        },
        {
          "duration": 17.148939600000006,
          "durationTicks": 3224,
          "midi": 54,
          "name": "F#3",
          "ticks": 19020,
          "time": 101.17023300000001,
          "velocity": 0.6299212598425197
        },
        {
          "duration": 17.148939600000006,
          "durationTicks": 3224,
          "midi": 54,
          "name": "F#3",
          "ticks": 19050,
          "time": 101.3298075,
          "velocity": 0.4409448818897638
        },
        {
          "duration": 44.436179100000004,
          "durationTicks": 8354,
          "midi": 42,
          "name": "F#2",
          "ticks": 19080,
          "time": 101.489382,
          "velocity": 0.905511811023622
        },
        {
          "duration": 17.148939600000006,
          "durationTicks": 3224,
          "midi": 54,
          "name": "F#3",
          "ticks": 19080,
          "time": 101.489382,
          "velocity": 0.6299212598425197
        },
        {
          "duration": 17.148939600000006,
          "durationTicks": 3224,
          "midi": 54,
          "name": "F#3",
          "ticks": 19110,
          "time": 101.64895650000001,
          "velocity": 0.4409448818897638
        },
        {
          "duration": 6.776597100000004,
          "durationTicks": 1274,
          "midi": 36,
          "name": "C2",
          "ticks": 19140,
          "time": 101.808531,
          "velocity": 1
        },
        {
          "duration": 44.7553281,
          "durationTicks": 8414,
          "midi": 42,
          "name": "F#2",
          "ticks": 19140,
          "time": 101.808531,
          "velocity": 0.905511811023622
        },
        {
          "duration": 17.148939600000006,
          "durationTicks": 3224,
          "midi": 54,
          "name": "F#3",
          "ticks": 19140,
          "time": 101.808531,
          "velocity": 0.6299212598425197
        },
        {
          "duration": 17.148939600000006,
          "durationTicks": 3224,
          "midi": 54,
          "name": "F#3",
          "ticks": 19170,
          "time": 101.96810550000001,
          "velocity": 0.4409448818897638
        },
        {
          "duration": 7.41489510000001,
          "durationTicks": 1394,
          "midi": 36,
          "name": "C2",
          "ticks": 19200,
          "time": 102.12768,
          "velocity": 1
        },
        {
          "duration": 44.755328100000014,
          "durationTicks": 8414,
          "midi": 42,
          "name": "F#2",
          "ticks": 19200,
          "time": 102.12768,
          "velocity": 0.905511811023622
        },
        {
          "duration": 17.14893960000002,
          "durationTicks": 3224,
          "midi": 54,
          "name": "F#3",
          "ticks": 19200,
          "time": 102.12768,
          "velocity": 0.6299212598425197
        },
        {
          "duration": 17.30851410000001,
          "durationTicks": 3254,
          "midi": 54,
          "name": "F#3",
          "ticks": 19230,
          "time": 102.2872545,
          "velocity": 0.4409448818897638
        },
        {
          "duration": 45.393626100000006,
          "durationTicks": 8534,
          "midi": 42,
          "name": "F#2",
          "ticks": 19260,
          "time": 102.44682900000001,
          "velocity": 0.905511811023622
        },
        {
          "duration": 17.308514099999996,
          "durationTicks": 3254,
          "midi": 54,
          "name": "F#3",
          "ticks": 19260,
          "time": 102.44682900000001,
          "velocity": 0.6299212598425197
        },
        {
          "duration": 17.30851410000001,
          "durationTicks": 3254,
          "midi": 54,
          "name": "F#3",
          "ticks": 19290,
          "time": 102.6064035,
          "velocity": 0.4409448818897638
        },
        {
          "duration": 45.7127751,
          "durationTicks": 8594,
          "midi": 42,
          "name": "F#2",
          "ticks": 19320,
          "time": 102.765978,
          "velocity": 0.905511811023622
        },
        {
          "duration": 17.30851410000001,
          "durationTicks": 3254,
          "midi": 54,
          "name": "F#3",
          "ticks": 19320,
          "time": 102.765978,
          "velocity": 0.6299212598425197
        },
        {
          "duration": 17.308514099999996,
          "durationTicks": 3254,
          "midi": 54,
          "name": "F#3",
          "ticks": 19350,
          "time": 102.92555250000001,
          "velocity": 0.4409448818897638
        },
        {
          "duration": 6.776597100000004,
          "durationTicks": 1274,
          "midi": 36,
          "name": "C2",
          "ticks": 19380,
          "time": 103.085127,
          "velocity": 1
        },
        {
          "duration": 46.031924100000026,
          "durationTicks": 8654,
          "midi": 42,
          "name": "F#2",
          "ticks": 19380,
          "time": 103.085127,
          "velocity": 0.905511811023622
        },
        {
          "duration": 17.30851410000001,
          "durationTicks": 3254,
          "midi": 54,
          "name": "F#3",
          "ticks": 19380,
          "time": 103.085127,
          "velocity": 0.6299212598425197
        },
        {
          "duration": 17.30851410000001,
          "durationTicks": 3254,
          "midi": 54,
          "name": "F#3",
          "ticks": 19410,
          "time": 103.2447015,
          "velocity": 0.4409448818897638
        },
        {
          "duration": 7.414895099999995,
          "durationTicks": 1394,
          "midi": 36,
          "name": "C2",
          "ticks": 19440,
          "time": 103.40427600000001,
          "velocity": 1
        },
        {
          "duration": 46.0319241,
          "durationTicks": 8654,
          "midi": 42,
          "name": "F#2",
          "ticks": 19440,
          "time": 103.40427600000001,
          "velocity": 0.905511811023622
        },
        {
          "duration": 17.4680886,
          "durationTicks": 3284,
          "midi": 54,
          "name": "F#3",
          "ticks": 19440,
          "time": 103.40427600000001,
          "velocity": 0.6299212598425197
        },
        {
          "duration": 17.468088600000016,
          "durationTicks": 3284,
          "midi": 54,
          "name": "F#3",
          "ticks": 19470,
          "time": 103.5638505,
          "velocity": 0.4409448818897638
        },
        {
          "duration": 46.03192410000001,
          "durationTicks": 8654,
          "midi": 42,
          "name": "F#2",
          "ticks": 19500,
          "time": 103.723425,
          "velocity": 0.905511811023622
        },
        {
          "duration": 17.4680886,
          "durationTicks": 3284,
          "midi": 54,
          "name": "F#3",
          "ticks": 19500,
          "time": 103.723425,
          "velocity": 0.6299212598425197
        },
        {
          "duration": 17.4680886,
          "durationTicks": 3284,
          "midi": 54,
          "name": "F#3",
          "ticks": 19530,
          "time": 103.88299950000001,
          "velocity": 0.4409448818897638
        },
        {
          "duration": 46.35107310000001,
          "durationTicks": 8714,
          "midi": 42,
          "name": "F#2",
          "ticks": 19560,
          "time": 104.042574,
          "velocity": 0.905511811023622
        },
        {
          "duration": 17.468088600000016,
          "durationTicks": 3284,
          "midi": 54,
          "name": "F#3",
          "ticks": 19560,
          "time": 104.042574,
          "velocity": 0.6299212598425197
        },
        {
          "duration": 17.4680886,
          "durationTicks": 3284,
          "midi": 54,
          "name": "F#3",
          "ticks": 19590,
          "time": 104.2021485,
          "velocity": 0.4409448818897638
        },
        {
          "duration": 6.776597100000004,
          "durationTicks": 1274,
          "midi": 36,
          "name": "C2",
          "ticks": 19620,
          "time": 104.36172300000001,
          "velocity": 1
        },
        {
          "duration": 46.35107310000001,
          "durationTicks": 8714,
          "midi": 42,
          "name": "F#2",
          "ticks": 19620,
          "time": 104.36172300000001,
          "velocity": 0.905511811023622
        },
        {
          "duration": 17.4680886,
          "durationTicks": 3284,
          "midi": 54,
          "name": "F#3",
          "ticks": 19620,
          "time": 104.36172300000001,
          "velocity": 0.6299212598425197
        },
        {
          "duration": 17.627663100000007,
          "durationTicks": 3314,
          "midi": 54,
          "name": "F#3",
          "ticks": 19650,
          "time": 104.5212975,
          "velocity": 0.4409448818897638
        },
        {
          "duration": 6.776597100000004,
          "durationTicks": 1274,
          "midi": 36,
          "name": "C2",
          "ticks": 19680,
          "time": 104.68087200000001,
          "velocity": 1
        },
        {
          "duration": 46.351073099999994,
          "durationTicks": 8714,
          "midi": 42,
          "name": "F#2",
          "ticks": 19680,
          "time": 104.68087200000001,
          "velocity": 0.905511811023622
        },
        {
          "duration": 17.627663100000007,
          "durationTicks": 3314,
          "midi": 54,
          "name": "F#3",
          "ticks": 19680,
          "time": 104.68087200000001,
          "velocity": 0.6299212598425197
        },
        {
          "duration": 17.627663100000007,
          "durationTicks": 3314,
          "midi": 54,
          "name": "F#3",
          "ticks": 19710,
          "time": 104.8404465,
          "velocity": 0.4409448818897638
        },
        {
          "duration": 46.67022210000002,
          "durationTicks": 8774,
          "midi": 42,
          "name": "F#2",
          "ticks": 19740,
          "time": 105.000021,
          "velocity": 0.905511811023622
        },
        {
          "duration": 17.78723760000001,
          "durationTicks": 3344,
          "midi": 54,
          "name": "F#3",
          "ticks": 19740,
          "time": 105.000021,
          "velocity": 0.6299212598425197
        },
        {
          "duration": 17.787237599999997,
          "durationTicks": 3344,
          "midi": 54,
          "name": "F#3",
          "ticks": 19770,
          "time": 105.15959550000001,
          "velocity": 0.4409448818897638
        },
        {
          "duration": 46.670222100000004,
          "durationTicks": 8774,
          "midi": 42,
          "name": "F#2",
          "ticks": 19800,
          "time": 105.31917,
          "velocity": 0.905511811023622
        },
        {
          "duration": 17.78723760000001,
          "durationTicks": 3344,
          "midi": 54,
          "name": "F#3",
          "ticks": 19800,
          "time": 105.31917,
          "velocity": 0.6299212598425197
        },
        {
          "duration": 17.946812100000002,
          "durationTicks": 3374,
          "midi": 54,
          "name": "F#3",
          "ticks": 19830,
          "time": 105.4787445,
          "velocity": 0.4409448818897638
        },
        {
          "duration": 6.457448100000008,
          "durationTicks": 1214,
          "midi": 36,
          "name": "C2",
          "ticks": 19860,
          "time": 105.63831900000001,
          "velocity": 1
        },
        {
          "duration": 47.308520099999996,
          "durationTicks": 8894,
          "midi": 42,
          "name": "F#2",
          "ticks": 19860,
          "time": 105.63831900000001,
          "velocity": 0.905511811023622
        },
        {
          "duration": 17.946812100000002,
          "durationTicks": 3374,
          "midi": 54,
          "name": "F#3",
          "ticks": 19860,
          "time": 105.63831900000001,
          "velocity": 0.6299212598425197
        },
        {
          "duration": 17.946812100000017,
          "durationTicks": 3374,
          "midi": 54,
          "name": "F#3",
          "ticks": 19890,
          "time": 105.7978935,
          "velocity": 0.4409448818897638
        },
        {
          "duration": 6.457448100000008,
          "durationTicks": 1214,
          "midi": 36,
          "name": "C2",
          "ticks": 19920,
          "time": 105.957468,
          "velocity": 1
        },
        {
          "duration": 47.30852010000001,
          "durationTicks": 8894,
          "midi": 42,
          "name": "F#2",
          "ticks": 19920,
          "time": 105.957468,
          "velocity": 0.905511811023622
        },
        {
          "duration": 17.946812100000002,
          "durationTicks": 3374,
          "midi": 54,
          "name": "F#3",
          "ticks": 19920,
          "time": 105.957468,
          "velocity": 0.6299212598425197
        },
        {
          "duration": 17.946812100000002,
          "durationTicks": 3374,
          "midi": 54,
          "name": "F#3",
          "ticks": 19950,
          "time": 106.11704250000001,
          "velocity": 0.4409448818897638
        },
        {
          "duration": 0.07446810000000426,
          "durationTicks": 14,
          "midi": 35,
          "name": "B1",
          "ticks": 19980,
          "time": 106.276617,
          "velocity": 0.905511811023622
        },
        {
          "duration": 0.07446810000000426,
          "durationTicks": 14,
          "midi": 46,
          "name": "A#2",
          "ticks": 19980,
          "time": 106.276617,
          "velocity": 0.905511811023622
        },
        {
          "duration": 7.095746100000014,
          "durationTicks": 1334,
          "midi": 36,
          "name": "C2",
          "ticks": 19980,
          "time": 106.276617,
          "velocity": 0.8661417322834646
        },
        {
          "duration": 17.946812100000002,
          "durationTicks": 3374,
          "midi": 54,
          "name": "F#3",
          "ticks": 19980,
          "time": 106.276617,
          "velocity": 0.6299212598425197
        },
        {
          "duration": 17.946812100000002,
          "durationTicks": 3374,
          "midi": 54,
          "name": "F#3",
          "ticks": 20010,
          "time": 106.4361915,
          "velocity": 0.4409448818897638
        },
        {
          "duration": 46.989371100000014,
          "durationTicks": 8834,
          "midi": 42,
          "name": "F#2",
          "ticks": 20040,
          "time": 106.59576600000001,
          "velocity": 0.905511811023622
        },
        {
          "duration": 18.106386599999993,
          "durationTicks": 3404,
          "midi": 54,
          "name": "F#3",
          "ticks": 20040,
          "time": 106.59576600000001,
          "velocity": 0.6299212598425197
        },
        {
          "duration": 18.106386600000008,
          "durationTicks": 3404,
          "midi": 54,
          "name": "F#3",
          "ticks": 20070,
          "time": 106.7553405,
          "velocity": 0.4409448818897638
        },
        {
          "duration": 6.776597100000004,
          "durationTicks": 1274,
          "midi": 36,
          "name": "C2",
          "ticks": 20100,
          "time": 106.91491500000001,
          "velocity": 1
        },
        {
          "duration": 47.30852010000001,
          "durationTicks": 8894,
          "midi": 42,
          "name": "F#2",
          "ticks": 20100,
          "time": 106.91491500000001,
          "velocity": 0.905511811023622
        },
        {
          "duration": 18.106386600000008,
          "durationTicks": 3404,
          "midi": 54,
          "name": "F#3",
          "ticks": 20100,
          "time": 106.91491500000001,
          "velocity": 0.6299212598425197
        },
        {
          "duration": 18.106386600000008,
          "durationTicks": 3404,
          "midi": 54,
          "name": "F#3",
          "ticks": 20130,
          "time": 107.0744895,
          "velocity": 0.4409448818897638
        },
        {
          "duration": 7.41489510000001,
          "durationTicks": 1394,
          "midi": 36,
          "name": "C2",
          "ticks": 20160,
          "time": 107.234064,
          "velocity": 1
        },
        {
          "duration": 47.308520099999996,
          "durationTicks": 8894,
          "midi": 42,
          "name": "F#2",
          "ticks": 20160,
          "time": 107.234064,
          "velocity": 0.905511811023622
        },
        {
          "duration": 18.106386600000008,
          "durationTicks": 3404,
          "midi": 54,
          "name": "F#3",
          "ticks": 20160,
          "time": 107.234064,
          "velocity": 0.6299212598425197
        },
        {
          "duration": 18.106386600000008,
          "durationTicks": 3404,
          "midi": 54,
          "name": "F#3",
          "ticks": 20190,
          "time": 107.39363850000001,
          "velocity": 0.4409448818897638
        },
        {
          "duration": 47.30852010000001,
          "durationTicks": 8894,
          "midi": 42,
          "name": "F#2",
          "ticks": 20220,
          "time": 107.553213,
          "velocity": 0.905511811023622
        },
        {
          "duration": 18.106386600000008,
          "durationTicks": 3404,
          "midi": 54,
          "name": "F#3",
          "ticks": 20220,
          "time": 107.553213,
          "velocity": 0.6299212598425197
        },
        {
          "duration": 18.265961100000013,
          "durationTicks": 3434,
          "midi": 54,
          "name": "F#3",
          "ticks": 20250,
          "time": 107.7127875,
          "velocity": 0.4409448818897638
        },
        {
          "duration": 47.62766909999999,
          "durationTicks": 8954,
          "midi": 42,
          "name": "F#2",
          "ticks": 20280,
          "time": 107.87236200000001,
          "velocity": 0.905511811023622
        },
        {
          "duration": 18.2659611,
          "durationTicks": 3434,
          "midi": 54,
          "name": "F#3",
          "ticks": 20280,
          "time": 107.87236200000001,
          "velocity": 0.6299212598425197
        },
        {
          "duration": 18.265961100000013,
          "durationTicks": 3434,
          "midi": 54,
          "name": "F#3",
          "ticks": 20310,
          "time": 108.0319365,
          "velocity": 0.4409448818897638
        },
        {
          "duration": 6.776597100000004,
          "durationTicks": 1274,
          "midi": 36,
          "name": "C2",
          "ticks": 20340,
          "time": 108.191511,
          "velocity": 1
        },
        {
          "duration": 47.627669100000006,
          "durationTicks": 8954,
          "midi": 42,
          "name": "F#2",
          "ticks": 20340,
          "time": 108.191511,
          "velocity": 0.905511811023622
        },
        {
          "duration": 18.265961100000013,
          "durationTicks": 3434,
          "midi": 54,
          "name": "F#3",
          "ticks": 20340,
          "time": 108.191511,
          "velocity": 0.6299212598425197
        },
        {
          "duration": 18.2659611,
          "durationTicks": 3434,
          "midi": 54,
          "name": "F#3",
          "ticks": 20370,
          "time": 108.35108550000001,
          "velocity": 0.4409448818897638
        },
        {
          "duration": 7.41489510000001,
          "durationTicks": 1394,
          "midi": 36,
          "name": "C2",
          "ticks": 20400,
          "time": 108.51066,
          "velocity": 1
        },
        {
          "duration": 47.62766910000002,
          "durationTicks": 8954,
          "midi": 42,
          "name": "F#2",
          "ticks": 20400,
          "time": 108.51066,
          "velocity": 0.905511811023622
        },
        {
          "duration": 18.265961100000013,
          "durationTicks": 3434,
          "midi": 54,
          "name": "F#3",
          "ticks": 20400,
          "time": 108.51066,
          "velocity": 0.6299212598425197
        },
        {
          "duration": 18.2659611,
          "durationTicks": 3434,
          "midi": 54,
          "name": "F#3",
          "ticks": 20430,
          "time": 108.6702345,
          "velocity": 0.4409448818897638
        },
        {
          "duration": 47.9468181,
          "durationTicks": 9014,
          "midi": 42,
          "name": "F#2",
          "ticks": 20460,
          "time": 108.82980900000001,
          "velocity": 0.905511811023622
        },
        {
          "duration": 18.425535600000003,
          "durationTicks": 3464,
          "midi": 54,
          "name": "F#3",
          "ticks": 20460,
          "time": 108.82980900000001,
          "velocity": 0.6299212598425197
        },
        {
          "duration": 18.425535600000003,
          "durationTicks": 3464,
          "midi": 54,
          "name": "F#3",
          "ticks": 20490,
          "time": 108.9893835,
          "velocity": 0.4409448818897638
        },
        {
          "duration": 47.946818100000016,
          "durationTicks": 9014,
          "midi": 42,
          "name": "F#2",
          "ticks": 20520,
          "time": 109.14895800000001,
          "velocity": 0.905511811023622
        },
        {
          "duration": 18.425535600000003,
          "durationTicks": 3464,
          "midi": 54,
          "name": "F#3",
          "ticks": 20520,
          "time": 109.14895800000001,
          "velocity": 0.6299212598425197
        },
        {
          "duration": 18.585110099999994,
          "durationTicks": 3494,
          "midi": 54,
          "name": "F#3",
          "ticks": 20550,
          "time": 109.30853250000001,
          "velocity": 0.4409448818897638
        },
        {
          "duration": 6.776597100000004,
          "durationTicks": 1274,
          "midi": 36,
          "name": "C2",
          "ticks": 20580,
          "time": 109.468107,
          "velocity": 1
        },
        {
          "duration": 48.58511610000002,
          "durationTicks": 9134,
          "midi": 42,
          "name": "F#2",
          "ticks": 20580,
          "time": 109.468107,
          "velocity": 0.905511811023622
        },
        {
          "duration": 18.58511010000001,
          "durationTicks": 3494,
          "midi": 54,
          "name": "F#3",
          "ticks": 20580,
          "time": 109.468107,
          "velocity": 0.6299212598425197
        },
        {
          "duration": 18.585110099999994,
          "durationTicks": 3494,
          "midi": 54,
          "name": "F#3",
          "ticks": 20610,
          "time": 109.62768150000001,
          "velocity": 0.4409448818897638
        },
        {
          "duration": 6.776597100000018,
          "durationTicks": 1274,
          "midi": 36,
          "name": "C2",
          "ticks": 20640,
          "time": 109.787256,
          "velocity": 1
        },
        {
          "duration": 48.90426510000002,
          "durationTicks": 9194,
          "midi": 42,
          "name": "F#2",
          "ticks": 20640,
          "time": 109.787256,
          "velocity": 0.905511811023622
        },
        {
          "duration": 18.744684600000014,
          "durationTicks": 3524,
          "midi": 54,
          "name": "F#3",
          "ticks": 20640,
          "time": 109.787256,
          "velocity": 0.6299212598425197
        },
        {
          "duration": 18.7446846,
          "durationTicks": 3524,
          "midi": 54,
          "name": "F#3",
          "ticks": 20670,
          "time": 109.9468305,
          "velocity": 0.4409448818897638
        },
        {
          "duration": 49.2234141,
          "durationTicks": 9254,
          "midi": 42,
          "name": "F#2",
          "ticks": 20700,
          "time": 110.10640500000001,
          "velocity": 0.905511811023622
        },
        {
          "duration": 18.744684600000014,
          "durationTicks": 3524,
          "midi": 54,
          "name": "F#3",
          "ticks": 20700,
          "time": 110.10640500000001,
          "velocity": 0.6299212598425197
        },
        {
          "duration": 18.744684600000014,
          "durationTicks": 3524,
          "midi": 54,
          "name": "F#3",
          "ticks": 20730,
          "time": 110.2659795,
          "velocity": 0.4409448818897638
        },
        {
          "duration": 49.223414100000014,
          "durationTicks": 9254,
          "midi": 42,
          "name": "F#2",
          "ticks": 20760,
          "time": 110.425554,
          "velocity": 0.905511811023622
        },
        {
          "duration": 18.7446846,
          "durationTicks": 3524,
          "midi": 54,
          "name": "F#3",
          "ticks": 20760,
          "time": 110.425554,
          "velocity": 0.6299212598425197
        },
        {
          "duration": 18.744684600000014,
          "durationTicks": 3524,
          "midi": 54,
          "name": "F#3",
          "ticks": 20790,
          "time": 110.58512850000001,
          "velocity": 0.4409448818897638
        },
        {
          "duration": 6.457448100000008,
          "durationTicks": 1214,
          "midi": 36,
          "name": "C2",
          "ticks": 20820,
          "time": 110.744703,
          "velocity": 1
        },
        {
          "duration": 49.2234141,
          "durationTicks": 9254,
          "midi": 42,
          "name": "F#2",
          "ticks": 20820,
          "time": 110.744703,
          "velocity": 0.905511811023622
        },
        {
          "duration": 18.744684600000014,
          "durationTicks": 3524,
          "midi": 54,
          "name": "F#3",
          "ticks": 20820,
          "time": 110.744703,
          "velocity": 0.6299212598425197
        },
        {
          "duration": 18.90425910000002,
          "durationTicks": 3554,
          "midi": 54,
          "name": "F#3",
          "ticks": 20850,
          "time": 110.9042775,
          "velocity": 0.4409448818897638
        },
        {
          "duration": 7.414895099999995,
          "durationTicks": 1394,
          "midi": 36,
          "name": "C2",
          "ticks": 20880,
          "time": 111.06385200000001,
          "velocity": 1
        },
        {
          "duration": 49.54256310000001,
          "durationTicks": 9314,
          "midi": 42,
          "name": "F#2",
          "ticks": 20880,
          "time": 111.06385200000001,
          "velocity": 0.905511811023622
        },
        {
          "duration": 18.904259100000004,
          "durationTicks": 3554,
          "midi": 54,
          "name": "F#3",
          "ticks": 20880,
          "time": 111.06385200000001,
          "velocity": 0.6299212598425197
        },
        {
          "duration": 18.904259100000004,
          "durationTicks": 3554,
          "midi": 54,
          "name": "F#3",
          "ticks": 20910,
          "time": 111.2234265,
          "velocity": 0.4409448818897638
        },
        {
          "duration": 0.07446810000000426,
          "durationTicks": 14,
          "midi": 35,
          "name": "B1",
          "ticks": 20940,
          "time": 111.38300100000001,
          "velocity": 0.905511811023622
        },
        {
          "duration": 0.07446810000000426,
          "durationTicks": 14,
          "midi": 46,
          "name": "A#2",
          "ticks": 20940,
          "time": 111.38300100000001,
          "velocity": 0.905511811023622
        },
        {
          "duration": 7.41489510000001,
          "durationTicks": 1394,
          "midi": 36,
          "name": "C2",
          "ticks": 20940,
          "time": 111.38300100000001,
          "velocity": 0.8661417322834646
        },
        {
          "duration": 18.90425909999999,
          "durationTicks": 3554,
          "midi": 54,
          "name": "F#3",
          "ticks": 20940,
          "time": 111.38300100000001,
          "velocity": 0.6299212598425197
        },
        {
          "duration": 18.904259100000004,
          "durationTicks": 3554,
          "midi": 54,
          "name": "F#3",
          "ticks": 20970,
          "time": 111.54257550000001,
          "velocity": 0.4409448818897638
        },
        {
          "duration": 49.2234141,
          "durationTicks": 9254,
          "midi": 42,
          "name": "F#2",
          "ticks": 21000,
          "time": 111.70215,
          "velocity": 0.905511811023622
        },
        {
          "duration": 18.904259100000004,
          "durationTicks": 3554,
          "midi": 54,
          "name": "F#3",
          "ticks": 21000,
          "time": 111.70215,
          "velocity": 0.6299212598425197
        },
        {
          "duration": 18.90425909999999,
          "durationTicks": 3554,
          "midi": 54,
          "name": "F#3",
          "ticks": 21030,
          "time": 111.86172450000001,
          "velocity": 0.4409448818897638
        },
        {
          "duration": 7.7340441000000055,
          "durationTicks": 1454,
          "midi": 36,
          "name": "C2",
          "ticks": 21060,
          "time": 112.021299,
          "velocity": 1
        },
        {
          "duration": 49.223414100000014,
          "durationTicks": 9254,
          "midi": 42,
          "name": "F#2",
          "ticks": 21060,
          "time": 112.021299,
          "velocity": 0.905511811023622
        },
        {
          "duration": 19.06383360000001,
          "durationTicks": 3584,
          "midi": 54,
          "name": "F#3",
          "ticks": 21060,
          "time": 112.021299,
          "velocity": 0.6299212598425197
        },
        {
          "duration": 19.063833599999995,
          "durationTicks": 3584,
          "midi": 54,
          "name": "F#3",
          "ticks": 21090,
          "time": 112.1808735,
          "velocity": 0.4409448818897638
        },
        {
          "duration": 7.7340441000000055,
          "durationTicks": 1454,
          "midi": 36,
          "name": "C2",
          "ticks": 21120,
          "time": 112.34044800000001,
          "velocity": 1
        },
        {
          "duration": 49.542563099999995,
          "durationTicks": 9314,
          "midi": 42,
          "name": "F#2",
          "ticks": 21120,
          "time": 112.34044800000001,
          "velocity": 0.905511811023622
        },
        {
          "duration": 19.06383360000001,
          "durationTicks": 3584,
          "midi": 54,
          "name": "F#3",
          "ticks": 21120,
          "time": 112.34044800000001,
          "velocity": 0.6299212598425197
        },
        {
          "duration": 19.06383360000001,
          "durationTicks": 3584,
          "midi": 54,
          "name": "F#3",
          "ticks": 21150,
          "time": 112.5000225,
          "velocity": 0.4409448818897638
        },
        {
          "duration": 49.54256310000001,
          "durationTicks": 9314,
          "midi": 42,
          "name": "F#2",
          "ticks": 21180,
          "time": 112.659597,
          "velocity": 0.905511811023622
        },
        {
          "duration": 19.063833599999995,
          "durationTicks": 3584,
          "midi": 54,
          "name": "F#3",
          "ticks": 21180,
          "time": 112.659597,
          "velocity": 0.6299212598425197
        },
        {
          "duration": 19.06383360000001,
          "durationTicks": 3584,
          "midi": 54,
          "name": "F#3",
          "ticks": 21210,
          "time": 112.81917150000001,
          "velocity": 0.4409448818897638
        },
        {
          "duration": 50.180861100000016,
          "durationTicks": 9434,
          "midi": 42,
          "name": "F#2",
          "ticks": 21240,
          "time": 112.978746,
          "velocity": 0.905511811023622
        },
        {
          "duration": 19.06383360000001,
          "durationTicks": 3584,
          "midi": 54,
          "name": "F#3",
          "ticks": 21240,
          "time": 112.978746,
          "velocity": 0.6299212598425197
        },
        {
          "duration": 19.223408100000015,
          "durationTicks": 3614,
          "midi": 54,
          "name": "F#3",
          "ticks": 21270,
          "time": 113.1383205,
          "velocity": 0.4409448818897638
        },
        {
          "duration": 7.7340441000000055,
          "durationTicks": 1454,
          "midi": 36,
          "name": "C2",
          "ticks": 21300,
          "time": 113.29789500000001,
          "velocity": 1
        },
        {
          "duration": 50.180861100000016,
          "durationTicks": 9434,
          "midi": 42,
          "name": "F#2",
          "ticks": 21300,
          "time": 113.29789500000001,
          "velocity": 0.905511811023622
        },
        {
          "duration": 19.2234081,
          "durationTicks": 3614,
          "midi": 54,
          "name": "F#3",
          "ticks": 21300,
          "time": 113.29789500000001,
          "velocity": 0.6299212598425197
        },
        {
          "duration": 19.2234081,
          "durationTicks": 3614,
          "midi": 54,
          "name": "F#3",
          "ticks": 21330,
          "time": 113.4574695,
          "velocity": 0.4409448818897638
        },
        {
          "duration": 7.7340441000000055,
          "durationTicks": 1454,
          "midi": 36,
          "name": "C2",
          "ticks": 21360,
          "time": 113.617044,
          "velocity": 1
        },
        {
          "duration": 50.1808611,
          "durationTicks": 9434,
          "midi": 42,
          "name": "F#2",
          "ticks": 21360,
          "time": 113.617044,
          "velocity": 0.905511811023622
        },
        {
          "duration": 19.223408100000015,
          "durationTicks": 3614,
          "midi": 54,
          "name": "F#3",
          "ticks": 21360,
          "time": 113.617044,
          "velocity": 0.6299212598425197
        },
        {
          "duration": 19.2234081,
          "durationTicks": 3614,
          "midi": 54,
          "name": "F#3",
          "ticks": 21390,
          "time": 113.77661850000001,
          "velocity": 0.4409448818897638
        },
        {
          "duration": 50.5000101,
          "durationTicks": 9494,
          "midi": 42,
          "name": "F#2",
          "ticks": 21420,
          "time": 113.936193,
          "velocity": 0.905511811023622
        },
        {
          "duration": 19.2234081,
          "durationTicks": 3614,
          "midi": 54,
          "name": "F#3",
          "ticks": 21420,
          "time": 113.936193,
          "velocity": 0.6299212598425197
        },
        {
          "duration": 19.223408100000015,
          "durationTicks": 3614,
          "midi": 54,
          "name": "F#3",
          "ticks": 21450,
          "time": 114.09576750000001,
          "velocity": 0.4409448818897638
        },
        {
          "duration": 50.50001010000001,
          "durationTicks": 9494,
          "midi": 42,
          "name": "F#2",
          "ticks": 21480,
          "time": 114.255342,
          "velocity": 0.905511811023622
        },
        {
          "duration": 19.382982600000005,
          "durationTicks": 3644,
          "midi": 54,
          "name": "F#3",
          "ticks": 21480,
          "time": 114.255342,
          "velocity": 0.6299212598425197
        },
        {
          "duration": 19.38298260000002,
          "durationTicks": 3644,
          "midi": 54,
          "name": "F#3",
          "ticks": 21510,
          "time": 114.4149165,
          "velocity": 0.4409448818897638
        },
        {
          "duration": 7.0957460999999995,
          "durationTicks": 1334,
          "midi": 36,
          "name": "C2",
          "ticks": 21540,
          "time": 114.57449100000001,
          "velocity": 1
        },
        {
          "duration": 50.50001010000001,
          "durationTicks": 9494,
          "midi": 42,
          "name": "F#2",
          "ticks": 21540,
          "time": 114.57449100000001,
          "velocity": 0.905511811023622
        },
        {
          "duration": 19.382982600000005,
          "durationTicks": 3644,
          "midi": 54,
          "name": "F#3",
          "ticks": 21540,
          "time": 114.57449100000001,
          "velocity": 0.6299212598425197
        },
        {
          "duration": 19.382982600000005,
          "durationTicks": 3644,
          "midi": 54,
          "name": "F#3",
          "ticks": 21570,
          "time": 114.7340655,
          "velocity": 0.4409448818897638
        },
        {
          "duration": 7.41489510000001,
          "durationTicks": 1394,
          "midi": 36,
          "name": "C2",
          "ticks": 21600,
          "time": 114.89364,
          "velocity": 1
        },
        {
          "duration": 50.81915910000001,
          "durationTicks": 9554,
          "midi": 42,
          "name": "F#2",
          "ticks": 21600,
          "time": 114.89364,
          "velocity": 0.905511811023622
        },
        {
          "duration": 19.38298260000002,
          "durationTicks": 3644,
          "midi": 54,
          "name": "F#3",
          "ticks": 21600,
          "time": 114.89364,
          "velocity": 0.6299212598425197
        },
        {
          "duration": 19.382982600000005,
          "durationTicks": 3644,
          "midi": 54,
          "name": "F#3",
          "ticks": 21630,
          "time": 115.05321450000001,
          "velocity": 0.4409448818897638
        },
        {
          "duration": 50.81915910000002,
          "durationTicks": 9554,
          "midi": 42,
          "name": "F#2",
          "ticks": 21660,
          "time": 115.212789,
          "velocity": 0.905511811023622
        },
        {
          "duration": 19.382982600000005,
          "durationTicks": 3644,
          "midi": 54,
          "name": "F#3",
          "ticks": 21660,
          "time": 115.212789,
          "velocity": 0.6299212598425197
        },
        {
          "duration": 19.54255710000001,
          "durationTicks": 3674,
          "midi": 54,
          "name": "F#3",
          "ticks": 21690,
          "time": 115.3723635,
          "velocity": 0.4409448818897638
        },
        {
          "duration": 50.81915909999999,
          "durationTicks": 9554,
          "midi": 42,
          "name": "F#2",
          "ticks": 21720,
          "time": 115.53193800000001,
          "velocity": 0.905511811023622
        },
        {
          "duration": 19.542557099999996,
          "durationTicks": 3674,
          "midi": 54,
          "name": "F#3",
          "ticks": 21720,
          "time": 115.53193800000001,
          "velocity": 0.6299212598425197
        },
        {
          "duration": 19.542557099999996,
          "durationTicks": 3674,
          "midi": 54,
          "name": "F#3",
          "ticks": 21750,
          "time": 115.6915125,
          "velocity": 0.4409448818897638
        },
        {
          "duration": 7.7340441000000055,
          "durationTicks": 1454,
          "midi": 36,
          "name": "C2",
          "ticks": 21780,
          "time": 115.851087,
          "velocity": 1
        },
        {
          "duration": 51.13830810000002,
          "durationTicks": 9614,
          "midi": 42,
          "name": "F#2",
          "ticks": 21780,
          "time": 115.851087,
          "velocity": 0.905511811023622
        },
        {
          "duration": 19.54255710000001,
          "durationTicks": 3674,
          "midi": 54,
          "name": "F#3",
          "ticks": 21780,
          "time": 115.851087,
          "velocity": 0.6299212598425197
        },
        {
          "duration": 19.542557099999996,
          "durationTicks": 3674,
          "midi": 54,
          "name": "F#3",
          "ticks": 21810,
          "time": 116.01066150000001,
          "velocity": 0.4409448818897638
        },
        {
          "duration": 7.7340441000000055,
          "durationTicks": 1454,
          "midi": 36,
          "name": "C2",
          "ticks": 21840,
          "time": 116.170236,
          "velocity": 1
        },
        {
          "duration": 51.1383081,
          "durationTicks": 9614,
          "midi": 42,
          "name": "F#2",
          "ticks": 21840,
          "time": 116.170236,
          "velocity": 0.905511811023622
        },
        {
          "duration": 19.542557099999996,
          "durationTicks": 3674,
          "midi": 54,
          "name": "F#3",
          "ticks": 21840,
          "time": 116.170236,
          "velocity": 0.6299212598425197
        },
        {
          "duration": 19.54255710000001,
          "durationTicks": 3674,
          "midi": 54,
          "name": "F#3",
          "ticks": 21870,
          "time": 116.32981050000001,
          "velocity": 0.4409448818897638
        },
        {
          "duration": 0.07446810000000426,
          "durationTicks": 14,
          "midi": 35,
          "name": "B1",
          "ticks": 21900,
          "time": 116.48938500000001,
          "velocity": 0.905511811023622
        },
        {
          "duration": 0.07446810000000426,
          "durationTicks": 14,
          "midi": 46,
          "name": "A#2",
          "ticks": 21900,
          "time": 116.48938500000001,
          "velocity": 0.905511811023622
        },
        {
          "duration": 8.372342099999997,
          "durationTicks": 1574,
          "midi": 36,
          "name": "C2",
          "ticks": 21900,
          "time": 116.48938500000001,
          "velocity": 0.8661417322834646
        },
        {
          "duration": 19.702131599999987,
          "durationTicks": 3704,
          "midi": 54,
          "name": "F#3",
          "ticks": 21900,
          "time": 116.48938500000001,
          "velocity": 0.6299212598425197
        },
        {
          "duration": 19.702131600000016,
          "durationTicks": 3704,
          "midi": 54,
          "name": "F#3",
          "ticks": 21930,
          "time": 116.6489595,
          "velocity": 0.4409448818897638
        },
        {
          "duration": 51.4574571,
          "durationTicks": 9674,
          "midi": 42,
          "name": "F#2",
          "ticks": 21960,
          "time": 116.80853400000001,
          "velocity": 0.905511811023622
        },
        {
          "duration": 19.7021316,
          "durationTicks": 3704,
          "midi": 54,
          "name": "F#3",
          "ticks": 21960,
          "time": 116.80853400000001,
          "velocity": 0.6299212598425197
        },
        {
          "duration": 19.7021316,
          "durationTicks": 3704,
          "midi": 54,
          "name": "F#3",
          "ticks": 21990,
          "time": 116.9681085,
          "velocity": 0.4409448818897638
        },
        {
          "duration": 8.053193100000001,
          "durationTicks": 1514,
          "midi": 36,
          "name": "C2",
          "ticks": 22020,
          "time": 117.127683,
          "velocity": 1
        },
        {
          "duration": 51.776606099999995,
          "durationTicks": 9734,
          "midi": 42,
          "name": "F#2",
          "ticks": 22020,
          "time": 117.127683,
          "velocity": 0.905511811023622
        },
        {
          "duration": 19.702131600000016,
          "durationTicks": 3704,
          "midi": 54,
          "name": "F#3",
          "ticks": 22020,
          "time": 117.127683,
          "velocity": 0.6299212598425197
        },
        {
          "duration": 19.7021316,
          "durationTicks": 3704,
          "midi": 54,
          "name": "F#3",
          "ticks": 22050,
          "time": 117.28725750000001,
          "velocity": 0.4409448818897638
        },
        {
          "duration": 8.691491100000007,
          "durationTicks": 1634,
          "midi": 36,
          "name": "C2",
          "ticks": 22080,
          "time": 117.446832,
          "velocity": 1
        },
        {
          "duration": 52.09575510000002,
          "durationTicks": 9794,
          "midi": 42,
          "name": "F#2",
          "ticks": 22080,
          "time": 117.446832,
          "velocity": 0.905511811023622
        },
        {
          "duration": 19.7021316,
          "durationTicks": 3704,
          "midi": 54,
          "name": "F#3",
          "ticks": 22080,
          "time": 117.446832,
          "velocity": 0.6299212598425197
        },
        {
          "duration": 19.861706100000006,
          "durationTicks": 3734,
          "midi": 54,
          "name": "F#3",
          "ticks": 22110,
          "time": 117.6064065,
          "velocity": 0.4409448818897638
        },
        {
          "duration": 52.09575509999999,
          "durationTicks": 9794,
          "midi": 42,
          "name": "F#2",
          "ticks": 22140,
          "time": 117.76598100000001,
          "velocity": 0.905511811023622
        },
        {
          "duration": 19.861706099999992,
          "durationTicks": 3734,
          "midi": 54,
          "name": "F#3",
          "ticks": 22140,
          "time": 117.76598100000001,
          "velocity": 0.6299212598425197
        },
        {
          "duration": 19.86170610000002,
          "durationTicks": 3734,
          "midi": 54,
          "name": "F#3",
          "ticks": 22170,
          "time": 117.9255555,
          "velocity": 0.4409448818897638
        },
        {
          "duration": 52.095755100000005,
          "durationTicks": 9794,
          "midi": 42,
          "name": "F#2",
          "ticks": 22200,
          "time": 118.08513,
          "velocity": 0.905511811023622
        },
        {
          "duration": 20.021280599999997,
          "durationTicks": 3764,
          "midi": 54,
          "name": "F#3",
          "ticks": 22200,
          "time": 118.08513,
          "velocity": 0.6299212598425197
        },
        {
          "duration": 20.02128060000001,
          "durationTicks": 3764,
          "midi": 54,
          "name": "F#3",
          "ticks": 22230,
          "time": 118.24470450000001,
          "velocity": 0.4409448818897638
        },
        {
          "duration": 8.053193100000016,
          "durationTicks": 1514,
          "midi": 36,
          "name": "C2",
          "ticks": 22260,
          "time": 118.404279,
          "velocity": 1
        },
        {
          "duration": 52.4149041,
          "durationTicks": 9854,
          "midi": 42,
          "name": "F#2",
          "ticks": 22260,
          "time": 118.404279,
          "velocity": 0.905511811023622
        },
        {
          "duration": 20.02128060000001,
          "durationTicks": 3764,
          "midi": 54,
          "name": "F#3",
          "ticks": 22260,
          "time": 118.404279,
          "velocity": 0.6299212598425197
        },
        {
          "duration": 20.180855100000016,
          "durationTicks": 3794,
          "midi": 54,
          "name": "F#3",
          "ticks": 22290,
          "time": 118.56385350000001,
          "velocity": 0.4409448818897638
        },
        {
          "duration": 8.053193100000001,
          "durationTicks": 1514,
          "midi": 36,
          "name": "C2",
          "ticks": 22320,
          "time": 118.72342800000001,
          "velocity": 1
        },
        {
          "duration": 52.4149041,
          "durationTicks": 9854,
          "midi": 42,
          "name": "F#2",
          "ticks": 22320,
          "time": 118.72342800000001,
          "velocity": 0.905511811023622
        },
        {
          "duration": 20.180855100000002,
          "durationTicks": 3794,
          "midi": 54,
          "name": "F#3",
          "ticks": 22320,
          "time": 118.72342800000001,
          "velocity": 0.6299212598425197
        },
        {
          "duration": 20.180855100000002,
          "durationTicks": 3794,
          "midi": 54,
          "name": "F#3",
          "ticks": 22350,
          "time": 118.8830025,
          "velocity": 0.4409448818897638
        },
        {
          "duration": 52.414904100000015,
          "durationTicks": 9854,
          "midi": 42,
          "name": "F#2",
          "ticks": 22380,
          "time": 119.04257700000001,
          "velocity": 0.905511811023622
        },
        {
          "duration": 20.180855100000016,
          "durationTicks": 3794,
          "midi": 54,
          "name": "F#3",
          "ticks": 22380,
          "time": 119.04257700000001,
          "velocity": 0.6299212598425197
        },
        {
          "duration": 20.180855100000016,
          "durationTicks": 3794,
          "midi": 54,
          "name": "F#3",
          "ticks": 22410,
          "time": 119.2021515,
          "velocity": 0.4409448818897638
        },
        {
          "duration": 52.73405310000001,
          "durationTicks": 9914,
          "midi": 42,
          "name": "F#2",
          "ticks": 22440,
          "time": 119.361726,
          "velocity": 0.905511811023622
        },
        {
          "duration": 20.180855100000002,
          "durationTicks": 3794,
          "midi": 54,
          "name": "F#3",
          "ticks": 22440,
          "time": 119.361726,
          "velocity": 0.6299212598425197
        },
        {
          "duration": 20.180855100000016,
          "durationTicks": 3794,
          "midi": 54,
          "name": "F#3",
          "ticks": 22470,
          "time": 119.52130050000001,
          "velocity": 0.4409448818897638
        },
        {
          "duration": 7.7340441000000055,
          "durationTicks": 1454,
          "midi": 36,
          "name": "C2",
          "ticks": 22500,
          "time": 119.680875,
          "velocity": 1
        },
        {
          "duration": 52.734053100000025,
          "durationTicks": 9914,
          "midi": 42,
          "name": "F#2",
          "ticks": 22500,
          "time": 119.680875,
          "velocity": 0.905511811023622
        },
        {
          "duration": 20.340429600000007,
          "durationTicks": 3824,
          "midi": 54,
          "name": "F#3",
          "ticks": 22500,
          "time": 119.680875,
          "velocity": 0.6299212598425197
        },
        {
          "duration": 20.340429599999993,
          "durationTicks": 3824,
          "midi": 54,
          "name": "F#3",
          "ticks": 22530,
          "time": 119.8404495,
          "velocity": 0.4409448818897638
        },
        {
          "duration": 8.691491099999993,
          "durationTicks": 1634,
          "midi": 36,
          "name": "C2",
          "ticks": 22560,
          "time": 120.00002400000001,
          "velocity": 1
        },
        {
          "duration": 53.37235110000002,
          "durationTicks": 10034,
          "midi": 42,
          "name": "F#2",
          "ticks": 22560,
          "time": 120.00002400000001,
          "velocity": 0.905511811023622
        },
        {
          "duration": 20.340429600000007,
          "durationTicks": 3824,
          "midi": 54,
          "name": "F#3",
          "ticks": 22560,
          "time": 120.00002400000001,
          "velocity": 0.6299212598425197
        },
        {
          "duration": 20.340429600000007,
          "durationTicks": 3824,
          "midi": 54,
          "name": "F#3",
          "ticks": 22590,
          "time": 120.1595985,
          "velocity": 0.4409448818897638
        },
        {
          "duration": 53.3723511,
          "durationTicks": 10034,
          "midi": 42,
          "name": "F#2",
          "ticks": 22620,
          "time": 120.319173,
          "velocity": 0.905511811023622
        },
        {
          "duration": 20.340429599999993,
          "durationTicks": 3824,
          "midi": 54,
          "name": "F#3",
          "ticks": 22620,
          "time": 120.319173,
          "velocity": 0.6299212598425197
        },
        {
          "duration": 20.340429600000007,
          "durationTicks": 3824,
          "midi": 54,
          "name": "F#3",
          "ticks": 22650,
          "time": 120.47874750000001,
          "velocity": 0.4409448818897638
        },
        {
          "duration": 53.37235110000002,
          "durationTicks": 10034,
          "midi": 42,
          "name": "F#2",
          "ticks": 22680,
          "time": 120.638322,
          "velocity": 0.905511811023622
        },
        {
          "duration": 20.340429600000007,
          "durationTicks": 3824,
          "midi": 54,
          "name": "F#3",
          "ticks": 22680,
          "time": 120.638322,
          "velocity": 0.6299212598425197
        },
        {
          "duration": 20.500004100000012,
          "durationTicks": 3854,
          "midi": 54,
          "name": "F#3",
          "ticks": 22710,
          "time": 120.79789650000001,
          "velocity": 0.4409448818897638
        },
        {
          "duration": 8.053193100000001,
          "durationTicks": 1514,
          "midi": 36,
          "name": "C2",
          "ticks": 22740,
          "time": 120.95747100000001,
          "velocity": 1
        },
        {
          "duration": 53.6915001,
          "durationTicks": 10094,
          "midi": 42,
          "name": "F#2",
          "ticks": 22740,
          "time": 120.95747100000001,
          "velocity": 0.905511811023622
        },
        {
          "duration": 20.500004099999998,
          "durationTicks": 3854,
          "midi": 54,
          "name": "F#3",
          "ticks": 22740,
          "time": 120.95747100000001,
          "velocity": 0.6299212598425197
        },
        {
          "duration": 20.500004099999998,
          "durationTicks": 3854,
          "midi": 54,
          "name": "F#3",
          "ticks": 22770,
          "time": 121.1170455,
          "velocity": 0.4409448818897638
        },
        {
          "duration": 8.691491100000007,
          "durationTicks": 1634,
          "midi": 36,
          "name": "C2",
          "ticks": 22800,
          "time": 121.27662000000001,
          "velocity": 1
        },
        {
          "duration": 53.69150010000001,
          "durationTicks": 10094,
          "midi": 42,
          "name": "F#2",
          "ticks": 22800,
          "time": 121.27662000000001,
          "velocity": 0.905511811023622
        },
        {
          "duration": 20.500004100000012,
          "durationTicks": 3854,
          "midi": 54,
          "name": "F#3",
          "ticks": 22800,
          "time": 121.27662000000001,
          "velocity": 0.6299212598425197
        },
        {
          "duration": 20.500004100000012,
          "durationTicks": 3854,
          "midi": 54,
          "name": "F#3",
          "ticks": 22830,
          "time": 121.4361945,
          "velocity": 0.4409448818897638
        },
        {
          "duration": 0.07446810000000426,
          "durationTicks": 14,
          "midi": 35,
          "name": "B1",
          "ticks": 22860,
          "time": 121.595769,
          "velocity": 0.905511811023622
        },
        {
          "duration": 0.07446810000000426,
          "durationTicks": 14,
          "midi": 46,
          "name": "A#2",
          "ticks": 22860,
          "time": 121.595769,
          "velocity": 0.905511811023622
        },
        {
          "duration": 8.691491099999993,
          "durationTicks": 1634,
          "midi": 36,
          "name": "C2",
          "ticks": 22860,
          "time": 121.595769,
          "velocity": 0.8661417322834646
        },
        {
          "duration": 20.500004099999998,
          "durationTicks": 3854,
          "midi": 54,
          "name": "F#3",
          "ticks": 22860,
          "time": 121.595769,
          "velocity": 0.6299212598425197
        },
        {
          "duration": 20.500004100000012,
          "durationTicks": 3854,
          "midi": 54,
          "name": "F#3",
          "ticks": 22890,
          "time": 121.75534350000001,
          "velocity": 0.4409448818897638
        },
        {
          "duration": 53.3723511,
          "durationTicks": 10034,
          "midi": 42,
          "name": "F#2",
          "ticks": 22920,
          "time": 121.914918,
          "velocity": 0.905511811023622
        },
        {
          "duration": 20.659578600000003,
          "durationTicks": 3884,
          "midi": 54,
          "name": "F#3",
          "ticks": 22920,
          "time": 121.914918,
          "velocity": 0.6299212598425197
        },
        {
          "duration": 20.659578600000017,
          "durationTicks": 3884,
          "midi": 54,
          "name": "F#3",
          "ticks": 22950,
          "time": 122.0744925,
          "velocity": 0.4409448818897638
        },
        {
          "duration": 9.01064009999999,
          "durationTicks": 1694,
          "midi": 36,
          "name": "C2",
          "ticks": 22980,
          "time": 122.23406700000001,
          "velocity": 1
        },
        {
          "duration": 53.69150010000001,
          "durationTicks": 10094,
          "midi": 42,
          "name": "F#2",
          "ticks": 22980,
          "time": 122.23406700000001,
          "velocity": 0.905511811023622
        },
        {
          "duration": 20.659578600000003,
          "durationTicks": 3884,
          "midi": 54,
          "name": "F#3",
          "ticks": 22980,
          "time": 122.23406700000001,
          "velocity": 0.6299212598425197
        },
        {
          "duration": 20.659578600000003,
          "durationTicks": 3884,
          "midi": 54,
          "name": "F#3",
          "ticks": 23010,
          "time": 122.3936415,
          "velocity": 0.4409448818897638
        },
        {
          "duration": 9.010640100000003,
          "durationTicks": 1694,
          "midi": 36,
          "name": "C2",
          "ticks": 23040,
          "time": 122.553216,
          "velocity": 1
        },
        {
          "duration": 53.6915001,
          "durationTicks": 10094,
          "midi": 42,
          "name": "F#2",
          "ticks": 23040,
          "time": 122.553216,
          "velocity": 0.905511811023622
        },
        {
          "duration": 20.659578600000017,
          "durationTicks": 3884,
          "midi": 54,
          "name": "F#3",
          "ticks": 23040,
          "time": 122.553216,
          "velocity": 0.6299212598425197
        },
        {
          "duration": 20.659578600000003,
          "durationTicks": 3884,
          "midi": 54,
          "name": "F#3",
          "ticks": 23070,
          "time": 122.71279050000001,
          "velocity": 0.4409448818897638
        },
        {
          "duration": 53.69150010000001,
          "durationTicks": 10094,
          "midi": 42,
          "name": "F#2",
          "ticks": 23100,
          "time": 122.872365,
          "velocity": 0.905511811023622
        },
        {
          "duration": 20.659578600000003,
          "durationTicks": 3884,
          "midi": 54,
          "name": "F#3",
          "ticks": 23100,
          "time": 122.872365,
          "velocity": 0.6299212598425197
        },
        {
          "duration": 20.81915310000001,
          "durationTicks": 3914,
          "midi": 54,
          "name": "F#3",
          "ticks": 23130,
          "time": 123.03193950000001,
          "velocity": 0.4409448818897638
        },
        {
          "duration": 54.010649099999995,
          "durationTicks": 10154,
          "midi": 42,
          "name": "F#2",
          "ticks": 23160,
          "time": 123.19151400000001,
          "velocity": 0.905511811023622
        },
        {
          "duration": 20.819153099999994,
          "durationTicks": 3914,
          "midi": 54,
          "name": "F#3",
          "ticks": 23160,
          "time": 123.19151400000001,
          "velocity": 0.6299212598425197
        },
        {
          "duration": 20.819153100000023,
          "durationTicks": 3914,
          "midi": 54,
          "name": "F#3",
          "ticks": 23190,
          "time": 123.3510885,
          "velocity": 0.4409448818897638
        },
        {
          "duration": 8.372342100000012,
          "durationTicks": 1574,
          "midi": 36,
          "name": "C2",
          "ticks": 23220,
          "time": 123.51066300000001,
          "velocity": 1
        },
        {
          "duration": 54.01064910000001,
          "durationTicks": 10154,
          "midi": 42,
          "name": "F#2",
          "ticks": 23220,
          "time": 123.51066300000001,
          "velocity": 0.905511811023622
        },
        {
          "duration": 20.81915310000001,
          "durationTicks": 3914,
          "midi": 54,
          "name": "F#3",
          "ticks": 23220,
          "time": 123.51066300000001,
          "velocity": 0.6299212598425197
        },
        {
          "duration": 20.819153099999994,
          "durationTicks": 3914,
          "midi": 54,
          "name": "F#3",
          "ticks": 23250,
          "time": 123.67023750000001,
          "velocity": 0.4409448818897638
        },
        {
          "duration": 8.691491100000007,
          "durationTicks": 1634,
          "midi": 36,
          "name": "C2",
          "ticks": 23280,
          "time": 123.829812,
          "velocity": 1
        },
        {
          "duration": 54.648947100000015,
          "durationTicks": 10274,
          "midi": 42,
          "name": "F#2",
          "ticks": 23280,
          "time": 123.829812,
          "velocity": 0.905511811023622
        },
        {
          "duration": 20.819153099999994,
          "durationTicks": 3914,
          "midi": 54,
          "name": "F#3",
          "ticks": 23280,
          "time": 123.829812,
          "velocity": 0.6299212598425197
        },
        {
          "duration": 20.81915310000001,
          "durationTicks": 3914,
          "midi": 54,
          "name": "F#3",
          "ticks": 23310,
          "time": 123.98938650000001,
          "velocity": 0.4409448818897638
        },
        {
          "duration": 54.96809610000001,
          "durationTicks": 10334,
          "midi": 42,
          "name": "F#2",
          "ticks": 23340,
          "time": 124.148961,
          "velocity": 0.905511811023622
        },
        {
          "duration": 20.9787276,
          "durationTicks": 3944,
          "midi": 54,
          "name": "F#3",
          "ticks": 23340,
          "time": 124.148961,
          "velocity": 0.6299212598425197
        },
        {
          "duration": 20.978727600000013,
          "durationTicks": 3944,
          "midi": 54,
          "name": "F#3",
          "ticks": 23370,
          "time": 124.3085355,
          "velocity": 0.4409448818897638
        },
        {
          "duration": 55.28724509999999,
          "durationTicks": 10394,
          "midi": 42,
          "name": "F#2",
          "ticks": 23400,
          "time": 124.46811000000001,
          "velocity": 0.905511811023622
        },
        {
          "duration": 20.9787276,
          "durationTicks": 3944,
          "midi": 54,
          "name": "F#3",
          "ticks": 23400,
          "time": 124.46811000000001,
          "velocity": 0.6299212598425197
        },
        {
          "duration": 20.9787276,
          "durationTicks": 3944,
          "midi": 54,
          "name": "F#3",
          "ticks": 23430,
          "time": 124.6276845,
          "velocity": 0.4409448818897638
        },
        {
          "duration": 8.053193100000016,
          "durationTicks": 1514,
          "midi": 36,
          "name": "C2",
          "ticks": 23460,
          "time": 124.787259,
          "velocity": 1
        },
        {
          "duration": 55.28724510000001,
          "durationTicks": 10394,
          "midi": 42,
          "name": "F#2",
          "ticks": 23460,
          "time": 124.787259,
          "velocity": 0.905511811023622
        },
        {
          "duration": 20.978727600000013,
          "durationTicks": 3944,
          "midi": 54,
          "name": "F#3",
          "ticks": 23460,
          "time": 124.787259,
          "velocity": 0.6299212598425197
        },
        {
          "duration": 20.9787276,
          "durationTicks": 3944,
          "midi": 54,
          "name": "F#3",
          "ticks": 23490,
          "time": 124.94683350000001,
          "velocity": 0.4409448818897638
        },
        {
          "duration": 8.691491100000022,
          "durationTicks": 1634,
          "midi": 36,
          "name": "C2",
          "ticks": 23520,
          "time": 125.106408,
          "velocity": 1
        },
        {
          "duration": 55.28724510000002,
          "durationTicks": 10394,
          "midi": 42,
          "name": "F#2",
          "ticks": 23520,
          "time": 125.106408,
          "velocity": 0.905511811023622
        },
        {
          "duration": 20.9787276,
          "durationTicks": 3944,
          "midi": 54,
          "name": "F#3",
          "ticks": 23520,
          "time": 125.106408,
          "velocity": 0.6299212598425197
        },
        {
          "duration": 21.138302100000004,
          "durationTicks": 3974,
          "midi": 54,
          "name": "F#3",
          "ticks": 23550,
          "time": 125.2659825,
          "velocity": 0.4409448818897638
        },
        {
          "duration": 55.6063941,
          "durationTicks": 10454,
          "midi": 42,
          "name": "F#2",
          "ticks": 23580,
          "time": 125.42555700000001,
          "velocity": 0.905511811023622
        },
        {
          "duration": 21.13830209999999,
          "durationTicks": 3974,
          "midi": 54,
          "name": "F#3",
          "ticks": 23580,
          "time": 125.42555700000001,
          "velocity": 0.6299212598425197
        },
        {
          "duration": 21.13830210000002,
          "durationTicks": 3974,
          "midi": 54,
          "name": "F#3",
          "ticks": 23610,
          "time": 125.5851315,
          "velocity": 0.4409448818897638
        },
        {
          "duration": 55.60639410000002,
          "durationTicks": 10454,
          "midi": 42,
          "name": "F#2",
          "ticks": 23640,
          "time": 125.74470600000001,
          "velocity": 0.905511811023622
        },
        {
          "duration": 21.138302100000004,
          "durationTicks": 3974,
          "midi": 54,
          "name": "F#3",
          "ticks": 23640,
          "time": 125.74470600000001,
          "velocity": 0.6299212598425197
        },
        {
          "duration": 21.13830209999999,
          "durationTicks": 3974,
          "midi": 54,
          "name": "F#3",
          "ticks": 23670,
          "time": 125.90428050000001,
          "velocity": 0.4409448818897638
        },
        {
          "duration": 8.053193100000001,
          "durationTicks": 1514,
          "midi": 36,
          "name": "C2",
          "ticks": 23700,
          "time": 126.063855,
          "velocity": 1
        },
        {
          "duration": 55.6063941,
          "durationTicks": 10454,
          "midi": 42,
          "name": "F#2",
          "ticks": 23700,
          "time": 126.063855,
          "velocity": 0.905511811023622
        },
        {
          "duration": 21.13830210000002,
          "durationTicks": 3974,
          "midi": 54,
          "name": "F#3",
          "ticks": 23700,
          "time": 126.063855,
          "velocity": 0.6299212598425197
        },
        {
          "duration": 21.138302100000004,
          "durationTicks": 3974,
          "midi": 54,
          "name": "F#3",
          "ticks": 23730,
          "time": 126.22342950000001,
          "velocity": 0.4409448818897638
        },
        {
          "duration": 8.691491100000007,
          "durationTicks": 1634,
          "midi": 36,
          "name": "C2",
          "ticks": 23760,
          "time": 126.383004,
          "velocity": 1
        },
        {
          "duration": 55.92554310000003,
          "durationTicks": 10514,
          "midi": 42,
          "name": "F#2",
          "ticks": 23760,
          "time": 126.383004,
          "velocity": 0.905511811023622
        },
        {
          "duration": 21.297876600000023,
          "durationTicks": 4004,
          "midi": 54,
          "name": "F#3",
          "ticks": 23760,
          "time": 126.383004,
          "velocity": 0.6299212598425197
        },
        {
          "duration": 21.29787660000001,
          "durationTicks": 4004,
          "midi": 54,
          "name": "F#3",
          "ticks": 23790,
          "time": 126.5425785,
          "velocity": 0.4409448818897638
        },
        {
          "duration": 0.07446810000000426,
          "durationTicks": 14,
          "midi": 35,
          "name": "B1",
          "ticks": 23820,
          "time": 126.70215300000001,
          "velocity": 0.905511811023622
        },
        {
          "duration": 0.07446810000000426,
          "durationTicks": 14,
          "midi": 46,
          "name": "A#2",
          "ticks": 23820,
          "time": 126.70215300000001,
          "velocity": 0.905511811023622
        },
        {
          "duration": 8.691491100000007,
          "durationTicks": 1634,
          "midi": 36,
          "name": "C2",
          "ticks": 23820,
          "time": 126.70215300000001,
          "velocity": 0.8661417322834646
        },
        {
          "duration": 21.297876599999995,
          "durationTicks": 4004,
          "midi": 54,
          "name": "F#3",
          "ticks": 23820,
          "time": 126.70215300000001,
          "velocity": 0.6299212598425197
        },
        {
          "duration": 21.457451100000014,
          "durationTicks": 4034,
          "midi": 54,
          "name": "F#3",
          "ticks": 23850,
          "time": 126.8617275,
          "velocity": 0.4409448818897638
        },
        {
          "duration": 55.6063941,
          "durationTicks": 10454,
          "midi": 42,
          "name": "F#2",
          "ticks": 23880,
          "time": 127.021302,
          "velocity": 0.905511811023622
        },
        {
          "duration": 21.4574511,
          "durationTicks": 4034,
          "midi": 54,
          "name": "F#3",
          "ticks": 23880,
          "time": 127.021302,
          "velocity": 0.6299212598425197
        },
        {
          "duration": 21.457451100000014,
          "durationTicks": 4034,
          "midi": 54,
          "name": "F#3",
          "ticks": 23910,
          "time": 127.18087650000001,
          "velocity": 0.4409448818897638
        },
        {
          "duration": 9.010640100000018,
          "durationTicks": 1694,
          "midi": 36,
          "name": "C2",
          "ticks": 23940,
          "time": 127.340451,
          "velocity": 1
        },
        {
          "duration": 56.24469210000001,
          "durationTicks": 10574,
          "midi": 42,
          "name": "F#2",
          "ticks": 23940,
          "time": 127.340451,
          "velocity": 0.905511811023622
        },
        {
          "duration": 21.617025600000005,
          "durationTicks": 4064,
          "midi": 54,
          "name": "F#3",
          "ticks": 23940,
          "time": 127.340451,
          "velocity": 0.6299212598425197
        },
        {
          "duration": 21.61702560000002,
          "durationTicks": 4064,
          "midi": 54,
          "name": "F#3",
          "ticks": 23970,
          "time": 127.5000255,
          "velocity": 0.4409448818897638
        },
        {
          "duration": 9.01064009999999,
          "durationTicks": 1694,
          "midi": 36,
          "name": "C2",
          "ticks": 24000,
          "time": 127.65960000000001,
          "velocity": 1
        },
        {
          "duration": 56.24469210000001,
          "durationTicks": 10574,
          "midi": 42,
          "name": "F#2",
          "ticks": 24000,
          "time": 127.65960000000001,
          "velocity": 0.905511811023622
        },
        {
          "duration": 21.617025600000005,
          "durationTicks": 4064,
          "midi": 54,
          "name": "F#3",
          "ticks": 24000,
          "time": 127.65960000000001,
          "velocity": 0.6299212598425197
        },
        {
          "duration": 21.617025600000005,
          "durationTicks": 4064,
          "midi": 54,
          "name": "F#3",
          "ticks": 24030,
          "time": 127.8191745,
          "velocity": 0.4409448818897638
        },
        {
          "duration": 56.244692099999995,
          "durationTicks": 10574,
          "midi": 42,
          "name": "F#2",
          "ticks": 24060,
          "time": 127.97874900000001,
          "velocity": 0.905511811023622
        },
        {
          "duration": 21.61702559999999,
          "durationTicks": 4064,
          "midi": 54,
          "name": "F#3",
          "ticks": 24060,
          "time": 127.97874900000001,
          "velocity": 0.6299212598425197
        },
        {
          "duration": 21.617025600000005,
          "durationTicks": 4064,
          "midi": 54,
          "name": "F#3",
          "ticks": 24090,
          "time": 128.1383235,
          "velocity": 0.4409448818897638
        },
        {
          "duration": 56.56384110000002,
          "durationTicks": 10634,
          "midi": 42,
          "name": "F#2",
          "ticks": 24120,
          "time": 128.297898,
          "velocity": 0.905511811023622
        },
        {
          "duration": 21.617025600000005,
          "durationTicks": 4064,
          "midi": 54,
          "name": "F#3",
          "ticks": 24120,
          "time": 128.297898,
          "velocity": 0.6299212598425197
        },
        {
          "duration": 21.776600100000024,
          "durationTicks": 4094,
          "midi": 54,
          "name": "F#3",
          "ticks": 24150,
          "time": 128.4574725,
          "velocity": 0.4409448818897638
        },
        {
          "duration": 8.372342099999997,
          "durationTicks": 1574,
          "midi": 36,
          "name": "C2",
          "ticks": 24180,
          "time": 128.617047,
          "velocity": 1
        },
        {
          "duration": 56.56384109999999,
          "durationTicks": 10634,
          "midi": 42,
          "name": "F#2",
          "ticks": 24180,
          "time": 128.617047,
          "velocity": 0.905511811023622
        },
        {
          "duration": 21.776600099999996,
          "durationTicks": 4094,
          "midi": 54,
          "name": "F#3",
          "ticks": 24180,
          "time": 128.617047,
          "velocity": 0.6299212598425197
        },
        {
          "duration": 21.776600099999996,
          "durationTicks": 4094,
          "midi": 54,
          "name": "F#3",
          "ticks": 24210,
          "time": 128.7766215,
          "velocity": 0.4409448818897638
        },
        {
          "duration": 8.691491100000007,
          "durationTicks": 1634,
          "midi": 36,
          "name": "C2",
          "ticks": 24240,
          "time": 128.936196,
          "velocity": 1
        },
        {
          "duration": 56.56384110000002,
          "durationTicks": 10634,
          "midi": 42,
          "name": "F#2",
          "ticks": 24240,
          "time": 128.936196,
          "velocity": 0.905511811023622
        },
        {
          "duration": 21.776600100000024,
          "durationTicks": 4094,
          "midi": 54,
          "name": "F#3",
          "ticks": 24240,
          "time": 128.936196,
          "velocity": 0.6299212598425197
        },
        {
          "duration": 21.776600099999996,
          "durationTicks": 4094,
          "midi": 54,
          "name": "F#3",
          "ticks": 24270,
          "time": 129.09577050000001,
          "velocity": 0.4409448818897638
        },
        {
          "duration": 56.8829901,
          "durationTicks": 10694,
          "midi": 42,
          "name": "F#2",
          "ticks": 24300,
          "time": 129.255345,
          "velocity": 0.905511811023622
        },
        {
          "duration": 21.776600099999996,
          "durationTicks": 4094,
          "midi": 54,
          "name": "F#3",
          "ticks": 24300,
          "time": 129.255345,
          "velocity": 0.6299212598425197
        },
        {
          "duration": 21.776600100000024,
          "durationTicks": 4094,
          "midi": 54,
          "name": "F#3",
          "ticks": 24330,
          "time": 129.4149195,
          "velocity": 0.4409448818897638
        },
        {
          "duration": 56.8829901,
          "durationTicks": 10694,
          "midi": 42,
          "name": "F#2",
          "ticks": 24360,
          "time": 129.57449400000002,
          "velocity": 0.905511811023622
        },
        {
          "duration": 21.936174599999987,
          "durationTicks": 4124,
          "midi": 54,
          "name": "F#3",
          "ticks": 24360,
          "time": 129.57449400000002,
          "velocity": 0.6299212598425197
        },
        {
          "duration": 21.936174600000015,
          "durationTicks": 4124,
          "midi": 54,
          "name": "F#3",
          "ticks": 24390,
          "time": 129.7340685,
          "velocity": 0.4409448818897638
        },
        {
          "duration": 9.010640100000018,
          "durationTicks": 1694,
          "midi": 36,
          "name": "C2",
          "ticks": 24420,
          "time": 129.893643,
          "velocity": 1
        },
        {
          "duration": 56.88299010000003,
          "durationTicks": 10694,
          "midi": 42,
          "name": "F#2",
          "ticks": 24420,
          "time": 129.893643,
          "velocity": 0.905511811023622
        },
        {
          "duration": 21.936174600000015,
          "durationTicks": 4124,
          "midi": 54,
          "name": "F#3",
          "ticks": 24420,
          "time": 129.893643,
          "velocity": 0.6299212598425197
        },
        {
          "duration": 21.936174599999987,
          "durationTicks": 4124,
          "midi": 54,
          "name": "F#3",
          "ticks": 24450,
          "time": 130.05321750000002,
          "velocity": 0.4409448818897638
        },
        {
          "duration": 9.010640100000018,
          "durationTicks": 1694,
          "midi": 36,
          "name": "C2",
          "ticks": 24480,
          "time": 130.212792,
          "velocity": 1
        },
        {
          "duration": 57.20213910000001,
          "durationTicks": 10754,
          "midi": 42,
          "name": "F#2",
          "ticks": 24480,
          "time": 130.212792,
          "velocity": 0.905511811023622
        },
        {
          "duration": 21.936174600000015,
          "durationTicks": 4124,
          "midi": 54,
          "name": "F#3",
          "ticks": 24480,
          "time": 130.212792,
          "velocity": 0.6299212598425197
        },
        {
          "duration": 21.936174600000015,
          "durationTicks": 4124,
          "midi": 54,
          "name": "F#3",
          "ticks": 24510,
          "time": 130.3723665,
          "velocity": 0.4409448818897638
        },
        {
          "duration": 57.20213910000001,
          "durationTicks": 10754,
          "midi": 42,
          "name": "F#2",
          "ticks": 24540,
          "time": 130.53194100000002,
          "velocity": 0.905511811023622
        },
        {
          "duration": 21.936174599999987,
          "durationTicks": 4124,
          "midi": 54,
          "name": "F#3",
          "ticks": 24540,
          "time": 130.53194100000002,
          "velocity": 0.6299212598425197
        },
        {
          "duration": 22.095749100000006,
          "durationTicks": 4154,
          "midi": 54,
          "name": "F#3",
          "ticks": 24570,
          "time": 130.6915155,
          "velocity": 0.4409448818897638
        },
        {
          "duration": 57.8404371,
          "durationTicks": 10874,
          "midi": 42,
          "name": "F#2",
          "ticks": 24600,
          "time": 130.85109,
          "velocity": 0.905511811023622
        },
        {
          "duration": 22.095749100000006,
          "durationTicks": 4154,
          "midi": 54,
          "name": "F#3",
          "ticks": 24600,
          "time": 130.85109,
          "velocity": 0.6299212598425197
        },
        {
          "duration": 22.095749100000006,
          "durationTicks": 4154,
          "midi": 54,
          "name": "F#3",
          "ticks": 24630,
          "time": 131.01066450000002,
          "velocity": 0.4409448818897638
        },
        {
          "duration": 9.01064009999999,
          "durationTicks": 1694,
          "midi": 36,
          "name": "C2",
          "ticks": 24660,
          "time": 131.170239,
          "velocity": 1
        },
        {
          "duration": 58.15958610000001,
          "durationTicks": 10934,
          "midi": 42,
          "name": "F#2",
          "ticks": 24660,
          "time": 131.170239,
          "velocity": 0.905511811023622
        },
        {
          "duration": 22.095749100000006,
          "durationTicks": 4154,
          "midi": 54,
          "name": "F#3",
          "ticks": 24660,
          "time": 131.170239,
          "velocity": 0.6299212598425197
        },
        {
          "duration": 22.095749100000006,
          "durationTicks": 4154,
          "midi": 54,
          "name": "F#3",
          "ticks": 24690,
          "time": 131.3298135,
          "velocity": 0.4409448818897638
        },
        {
          "duration": 9.01064009999999,
          "durationTicks": 1694,
          "midi": 36,
          "name": "C2",
          "ticks": 24720,
          "time": 131.48938800000002,
          "velocity": 1
        },
        {
          "duration": 58.478735099999994,
          "durationTicks": 10994,
          "midi": 42,
          "name": "F#2",
          "ticks": 24720,
          "time": 131.48938800000002,
          "velocity": 0.905511811023622
        },
        {
          "duration": 22.095749100000006,
          "durationTicks": 4154,
          "midi": 54,
          "name": "F#3",
          "ticks": 24720,
          "time": 131.48938800000002,
          "velocity": 0.6299212598425197
        },
        {
          "duration": 22.095749100000006,
          "durationTicks": 4154,
          "midi": 54,
          "name": "F#3",
          "ticks": 24750,
          "time": 131.6489625,
          "velocity": 0.4409448818897638
        },
        {
          "duration": 0.07446810000001847,
          "durationTicks": 14,
          "midi": 35,
          "name": "B1",
          "ticks": 24780,
          "time": 131.808537,
          "velocity": 0.905511811023622
        },
        {
          "duration": 0.07446810000001847,
          "durationTicks": 14,
          "midi": 46,
          "name": "A#2",
          "ticks": 24780,
          "time": 131.808537,
          "velocity": 0.905511811023622
        },
        {
          "duration": 9.64893810000001,
          "durationTicks": 1814,
          "midi": 36,
          "name": "C2",
          "ticks": 24780,
          "time": 131.808537,
          "velocity": 0.8661417322834646
        },
        {
          "duration": 22.255323600000025,
          "durationTicks": 4184,
          "midi": 54,
          "name": "F#3",
          "ticks": 24780,
          "time": 131.808537,
          "velocity": 0.6299212598425197
        },
        {
          "duration": 22.255323599999997,
          "durationTicks": 4184,
          "midi": 54,
          "name": "F#3",
          "ticks": 24810,
          "time": 131.96811150000002,
          "velocity": 0.4409448818897638
        },
        {
          "duration": 58.15958610000001,
          "durationTicks": 10934,
          "midi": 42,
          "name": "F#2",
          "ticks": 24840,
          "time": 132.127686,
          "velocity": 0.905511811023622
        },
        {
          "duration": 22.255323599999997,
          "durationTicks": 4184,
          "midi": 54,
          "name": "F#3",
          "ticks": 24840,
          "time": 132.127686,
          "velocity": 0.6299212598425197
        },
        {
          "duration": 22.255323599999997,
          "durationTicks": 4184,
          "midi": 54,
          "name": "F#3",
          "ticks": 24870,
          "time": 132.2872605,
          "velocity": 0.4409448818897638
        },
        {
          "duration": 9.329789100000028,
          "durationTicks": 1754,
          "midi": 36,
          "name": "C2",
          "ticks": 24900,
          "time": 132.446835,
          "velocity": 1
        },
        {
          "duration": 58.15958610000001,
          "durationTicks": 10934,
          "midi": 42,
          "name": "F#2",
          "ticks": 24900,
          "time": 132.446835,
          "velocity": 0.905511811023622
        },
        {
          "duration": 22.255323600000025,
          "durationTicks": 4184,
          "midi": 54,
          "name": "F#3",
          "ticks": 24900,
          "time": 132.446835,
          "velocity": 0.6299212598425197
        },
        {
          "duration": 22.255323599999997,
          "durationTicks": 4184,
          "midi": 54,
          "name": "F#3",
          "ticks": 24930,
          "time": 132.6064095,
          "velocity": 0.4409448818897638
        },
        {
          "duration": 9.3297891,
          "durationTicks": 1754,
          "midi": 36,
          "name": "C2",
          "ticks": 24960,
          "time": 132.765984,
          "velocity": 1
        },
        {
          "duration": 58.47873510000002,
          "durationTicks": 10994,
          "midi": 42,
          "name": "F#2",
          "ticks": 24960,
          "time": 132.765984,
          "velocity": 0.905511811023622
        },
        {
          "duration": 22.255323599999997,
          "durationTicks": 4184,
          "midi": 54,
          "name": "F#3",
          "ticks": 24960,
          "time": 132.765984,
          "velocity": 0.6299212598425197
        },
        {
          "duration": 22.414898100000016,
          "durationTicks": 4214,
          "midi": 54,
          "name": "F#3",
          "ticks": 24990,
          "time": 132.9255585,
          "velocity": 0.4409448818897638
        },
        {
          "duration": 58.478735099999994,
          "durationTicks": 10994,
          "midi": 42,
          "name": "F#2",
          "ticks": 25020,
          "time": 133.085133,
          "velocity": 0.905511811023622
        },
        {
          "duration": 22.414898099999988,
          "durationTicks": 4214,
          "midi": 54,
          "name": "F#3",
          "ticks": 25020,
          "time": 133.085133,
          "velocity": 0.6299212598425197
        },
        {
          "duration": 22.414898100000016,
          "durationTicks": 4214,
          "midi": 54,
          "name": "F#3",
          "ticks": 25050,
          "time": 133.2447075,
          "velocity": 0.4409448818897638
        },
        {
          "duration": 58.47873510000002,
          "durationTicks": 10994,
          "midi": 42,
          "name": "F#2",
          "ticks": 25080,
          "time": 133.404282,
          "velocity": 0.905511811023622
        },
        {
          "duration": 22.414898100000016,
          "durationTicks": 4214,
          "midi": 54,
          "name": "F#3",
          "ticks": 25080,
          "time": 133.404282,
          "velocity": 0.6299212598425197
        },
        {
          "duration": 22.414898099999988,
          "durationTicks": 4214,
          "midi": 54,
          "name": "F#3",
          "ticks": 25110,
          "time": 133.5638565,
          "velocity": 0.4409448818897638
        },
        {
          "duration": 9.010640100000018,
          "durationTicks": 1694,
          "midi": 36,
          "name": "C2",
          "ticks": 25140,
          "time": 133.723431,
          "velocity": 1
        },
        {
          "duration": 58.797884100000005,
          "durationTicks": 11054,
          "midi": 42,
          "name": "F#2",
          "ticks": 25140,
          "time": 133.723431,
          "velocity": 0.905511811023622
        },
        {
          "duration": 22.414898100000016,
          "durationTicks": 4214,
          "midi": 54,
          "name": "F#3",
          "ticks": 25140,
          "time": 133.723431,
          "velocity": 0.6299212598425197
        },
        {
          "duration": 22.414898100000016,
          "durationTicks": 4214,
          "midi": 54,
          "name": "F#3",
          "ticks": 25170,
          "time": 133.8830055,
          "velocity": 0.4409448818897638
        },
        {
          "duration": 9.01064009999999,
          "durationTicks": 1694,
          "midi": 36,
          "name": "C2",
          "ticks": 25200,
          "time": 134.04258000000002,
          "velocity": 1
        },
        {
          "duration": 58.797884100000005,
          "durationTicks": 11054,
          "midi": 42,
          "name": "F#2",
          "ticks": 25200,
          "time": 134.04258000000002,
          "velocity": 0.905511811023622
        },
        {
          "duration": 22.574472600000007,
          "durationTicks": 4244,
          "midi": 54,
          "name": "F#3",
          "ticks": 25200,
          "time": 134.04258000000002,
          "velocity": 0.6299212598425197
        },
        {
          "duration": 22.574472600000007,
          "durationTicks": 4244,
          "midi": 54,
          "name": "F#3",
          "ticks": 25230,
          "time": 134.2021545,
          "velocity": 0.4409448818897638
        },
        {
          "duration": 59.436182100000025,
          "durationTicks": 11174,
          "midi": 42,
          "name": "F#2",
          "ticks": 25260,
          "time": 134.361729,
          "velocity": 0.905511811023622
        },
        {
          "duration": 22.574472600000007,
          "durationTicks": 4244,
          "midi": 54,
          "name": "F#3",
          "ticks": 25260,
          "time": 134.361729,
          "velocity": 0.6299212598425197
        },
        {
          "duration": 22.574472600000007,
          "durationTicks": 4244,
          "midi": 54,
          "name": "F#3",
          "ticks": 25290,
          "time": 134.52130350000002,
          "velocity": 0.4409448818897638
        },
        {
          "duration": 59.436182099999996,
          "durationTicks": 11174,
          "midi": 42,
          "name": "F#2",
          "ticks": 25320,
          "time": 134.680878,
          "velocity": 0.905511811023622
        },
        {
          "duration": 22.574472600000007,
          "durationTicks": 4244,
          "midi": 54,
          "name": "F#3",
          "ticks": 25320,
          "time": 134.680878,
          "velocity": 0.6299212598425197
        },
        {
          "duration": 22.574472600000007,
          "durationTicks": 4244,
          "midi": 54,
          "name": "F#3",
          "ticks": 25350,
          "time": 134.8404525,
          "velocity": 0.4409448818897638
        },
        {
          "duration": 9.01064009999999,
          "durationTicks": 1694,
          "midi": 36,
          "name": "C2",
          "ticks": 25380,
          "time": 135.00002700000002,
          "velocity": 1
        },
        {
          "duration": 59.436182099999996,
          "durationTicks": 11174,
          "midi": 42,
          "name": "F#2",
          "ticks": 25380,
          "time": 135.00002700000002,
          "velocity": 0.905511811023622
        },
        {
          "duration": 22.574472600000007,
          "durationTicks": 4244,
          "midi": 54,
          "name": "F#3",
          "ticks": 25380,
          "time": 135.00002700000002,
          "velocity": 0.6299212598425197
        },
        {
          "duration": 22.734047099999998,
          "durationTicks": 4274,
          "midi": 54,
          "name": "F#3",
          "ticks": 25410,
          "time": 135.1596015,
          "velocity": 0.4409448818897638
        },
        {
          "duration": 9.010640100000018,
          "durationTicks": 1694,
          "midi": 36,
          "name": "C2",
          "ticks": 25440,
          "time": 135.319176,
          "velocity": 1
        },
        {
          "duration": 59.75533110000001,
          "durationTicks": 11234,
          "midi": 42,
          "name": "F#2",
          "ticks": 25440,
          "time": 135.319176,
          "velocity": 0.905511811023622
        },
        {
          "duration": 22.734047100000026,
          "durationTicks": 4274,
          "midi": 54,
          "name": "F#3",
          "ticks": 25440,
          "time": 135.319176,
          "velocity": 0.6299212598425197
        },
        {
          "duration": 22.734047099999998,
          "durationTicks": 4274,
          "midi": 54,
          "name": "F#3",
          "ticks": 25470,
          "time": 135.47875050000002,
          "velocity": 0.4409448818897638
        },
        {
          "duration": 59.75533110000001,
          "durationTicks": 11234,
          "midi": 42,
          "name": "F#2",
          "ticks": 25500,
          "time": 135.638325,
          "velocity": 0.905511811023622
        },
        {
          "duration": 22.893621600000017,
          "durationTicks": 4304,
          "midi": 54,
          "name": "F#3",
          "ticks": 25500,
          "time": 135.638325,
          "velocity": 0.6299212598425197
        },
        {
          "duration": 22.893621600000017,
          "durationTicks": 4304,
          "midi": 54,
          "name": "F#3",
          "ticks": 25530,
          "time": 135.7978995,
          "velocity": 0.4409448818897638
        },
        {
          "duration": 59.75533110000001,
          "durationTicks": 11234,
          "midi": 42,
          "name": "F#2",
          "ticks": 25560,
          "time": 135.95747400000002,
          "velocity": 0.905511811023622
        },
        {
          "duration": 22.89362159999999,
          "durationTicks": 4304,
          "midi": 54,
          "name": "F#3",
          "ticks": 25560,
          "time": 135.95747400000002,
          "velocity": 0.6299212598425197
        },
        {
          "duration": 23.053196100000008,
          "durationTicks": 4334,
          "midi": 54,
          "name": "F#3",
          "ticks": 25590,
          "time": 136.1170485,
          "velocity": 0.4409448818897638
        },
        {
          "duration": 9.010640100000018,
          "durationTicks": 1694,
          "midi": 36,
          "name": "C2",
          "ticks": 25620,
          "time": 136.276623,
          "velocity": 1
        },
        {
          "duration": 60.07448010000002,
          "durationTicks": 11294,
          "midi": 42,
          "name": "F#2",
          "ticks": 25620,
          "time": 136.276623,
          "velocity": 0.905511811023622
        },
        {
          "duration": 23.053196100000008,
          "durationTicks": 4334,
          "midi": 54,
          "name": "F#3",
          "ticks": 25620,
          "time": 136.276623,
          "velocity": 0.6299212598425197
        },
        {
          "duration": 23.05319609999998,
          "durationTicks": 4334,
          "midi": 54,
          "name": "F#3",
          "ticks": 25650,
          "time": 136.43619750000002,
          "velocity": 0.4409448818897638
        },
        {
          "duration": 9.01064009999999,
          "durationTicks": 1694,
          "midi": 36,
          "name": "C2",
          "ticks": 25680,
          "time": 136.595772,
          "velocity": 1
        },
        {
          "duration": 60.07448010000002,
          "durationTicks": 11294,
          "midi": 42,
          "name": "F#2",
          "ticks": 25680,
          "time": 136.595772,
          "velocity": 0.905511811023622
        },
        {
          "duration": 23.053196100000008,
          "durationTicks": 4334,
          "midi": 54,
          "name": "F#3",
          "ticks": 25680,
          "time": 136.595772,
          "velocity": 0.6299212598425197
        },
        {
          "duration": 23.053196100000008,
          "durationTicks": 4334,
          "midi": 54,
          "name": "F#3",
          "ticks": 25710,
          "time": 136.7553465,
          "velocity": 0.4409448818897638
        },
        {
          "duration": 0.07446809999999005,
          "durationTicks": 14,
          "midi": 35,
          "name": "B1",
          "ticks": 25740,
          "time": 136.91492100000002,
          "velocity": 0.905511811023622
        },
        {
          "duration": 0.07446809999999005,
          "durationTicks": 14,
          "midi": 46,
          "name": "A#2",
          "ticks": 25740,
          "time": 136.91492100000002,
          "velocity": 0.905511811023622
        },
        {
          "duration": 9.648938099999981,
          "durationTicks": 1814,
          "midi": 36,
          "name": "C2",
          "ticks": 25740,
          "time": 136.91492100000002,
          "velocity": 0.8661417322834646
        },
        {
          "duration": 23.05319609999998,
          "durationTicks": 4334,
          "midi": 54,
          "name": "F#3",
          "ticks": 25740,
          "time": 136.91492100000002,
          "velocity": 0.6299212598425197
        },
        {
          "duration": 23.053196100000008,
          "durationTicks": 4334,
          "midi": 54,
          "name": "F#3",
          "ticks": 25770,
          "time": 137.0744955,
          "velocity": 0.4409448818897638
        },
        {
          "duration": 59.75533110000001,
          "durationTicks": 11234,
          "midi": 42,
          "name": "F#2",
          "ticks": 25800,
          "time": 137.23407,
          "velocity": 0.905511811023622
        },
        {
          "duration": 23.2127706,
          "durationTicks": 4364,
          "midi": 54,
          "name": "F#3",
          "ticks": 25800,
          "time": 137.23407,
          "velocity": 0.6299212598425197
        },
        {
          "duration": 23.212770600000027,
          "durationTicks": 4364,
          "midi": 54,
          "name": "F#3",
          "ticks": 25830,
          "time": 137.3936445,
          "velocity": 0.4409448818897638
        },
        {
          "duration": 9.3297891,
          "durationTicks": 1754,
          "midi": 36,
          "name": "C2",
          "ticks": 25860,
          "time": 137.553219,
          "velocity": 1
        },
        {
          "duration": 60.07448009999999,
          "durationTicks": 11294,
          "midi": 42,
          "name": "F#2",
          "ticks": 25860,
          "time": 137.553219,
          "velocity": 0.905511811023622
        },
        {
          "duration": 23.2127706,
          "durationTicks": 4364,
          "midi": 54,
          "name": "F#3",
          "ticks": 25860,
          "time": 137.553219,
          "velocity": 0.6299212598425197
        },
        {
          "duration": 23.2127706,
          "durationTicks": 4364,
          "midi": 54,
          "name": "F#3",
          "ticks": 25890,
          "time": 137.7127935,
          "velocity": 0.4409448818897638
        },
        {
          "duration": 9.329789100000028,
          "durationTicks": 1754,
          "midi": 36,
          "name": "C2",
          "ticks": 25920,
          "time": 137.872368,
          "velocity": 1
        },
        {
          "duration": 60.07448010000002,
          "durationTicks": 11294,
          "midi": 42,
          "name": "F#2",
          "ticks": 25920,
          "time": 137.872368,
          "velocity": 0.905511811023622
        },
        {
          "duration": 23.212770600000027,
          "durationTicks": 4364,
          "midi": 54,
          "name": "F#3",
          "ticks": 25920,
          "time": 137.872368,
          "velocity": 0.6299212598425197
        },
        {
          "duration": 23.2127706,
          "durationTicks": 4364,
          "midi": 54,
          "name": "F#3",
          "ticks": 25950,
          "time": 138.0319425,
          "velocity": 0.4409448818897638
        },
        {
          "duration": 60.71277810000001,
          "durationTicks": 11414,
          "midi": 42,
          "name": "F#2",
          "ticks": 25980,
          "time": 138.191517,
          "velocity": 0.905511811023622
        },
        {
          "duration": 23.2127706,
          "durationTicks": 4364,
          "midi": 54,
          "name": "F#3",
          "ticks": 25980,
          "time": 138.191517,
          "velocity": 0.6299212598425197
        },
        {
          "duration": 23.372345100000018,
          "durationTicks": 4394,
          "midi": 54,
          "name": "F#3",
          "ticks": 26010,
          "time": 138.3510915,
          "velocity": 0.4409448818897638
        },
        {
          "duration": 61.03192709999999,
          "durationTicks": 11474,
          "midi": 42,
          "name": "F#2",
          "ticks": 26040,
          "time": 138.51066600000001,
          "velocity": 0.905511811023622
        },
        {
          "duration": 23.37234509999999,
          "durationTicks": 4394,
          "midi": 54,
          "name": "F#3",
          "ticks": 26040,
          "time": 138.51066600000001,
          "velocity": 0.6299212598425197
        },
        {
          "duration": 23.372345100000018,
          "durationTicks": 4394,
          "midi": 54,
          "name": "F#3",
          "ticks": 26070,
          "time": 138.6702405,
          "velocity": 0.4409448818897638
        },
        {
          "duration": 9.010640100000018,
          "durationTicks": 1694,
          "midi": 36,
          "name": "C2",
          "ticks": 26100,
          "time": 138.829815,
          "velocity": 1
        },
        {
          "duration": 61.35107610000003,
          "durationTicks": 11534,
          "midi": 42,
          "name": "F#2",
          "ticks": 26100,
          "time": 138.829815,
          "velocity": 0.905511811023622
        },
        {
          "duration": 23.372345100000018,
          "durationTicks": 4394,
          "midi": 54,
          "name": "F#3",
          "ticks": 26100,
          "time": 138.829815,
          "velocity": 0.6299212598425197
        },
        {
          "duration": 23.37234509999999,
          "durationTicks": 4394,
          "midi": 54,
          "name": "F#3",
          "ticks": 26130,
          "time": 138.98938950000002,
          "velocity": 0.4409448818897638
        },
        {
          "duration": 9.96808710000002,
          "durationTicks": 1874,
          "midi": 36,
          "name": "C2",
          "ticks": 26160,
          "time": 139.148964,
          "velocity": 1
        },
        {
          "duration": 61.3510761,
          "durationTicks": 11534,
          "midi": 42,
          "name": "F#2",
          "ticks": 26160,
          "time": 139.148964,
          "velocity": 0.905511811023622
        },
        {
          "duration": 23.372345100000018,
          "durationTicks": 4394,
          "midi": 54,
          "name": "F#3",
          "ticks": 26160,
          "time": 139.148964,
          "velocity": 0.6299212598425197
        },
        {
          "duration": 23.372345100000018,
          "durationTicks": 4394,
          "midi": 54,
          "name": "F#3",
          "ticks": 26190,
          "time": 139.3085385,
          "velocity": 0.4409448818897638
        },
        {
          "duration": 61.3510761,
          "durationTicks": 11534,
          "midi": 42,
          "name": "F#2",
          "ticks": 26220,
          "time": 139.46811300000002,
          "velocity": 0.905511811023622
        },
        {
          "duration": 23.53191960000001,
          "durationTicks": 4424,
          "midi": 54,
          "name": "F#3",
          "ticks": 26220,
          "time": 139.46811300000002,
          "velocity": 0.6299212598425197
        },
        {
          "duration": 23.53191960000001,
          "durationTicks": 4424,
          "midi": 54,
          "name": "F#3",
          "ticks": 26250,
          "time": 139.6276875,
          "velocity": 0.4409448818897638
        },
        {
          "duration": 61.67022510000001,
          "durationTicks": 11594,
          "midi": 42,
          "name": "F#2",
          "ticks": 26280,
          "time": 139.787262,
          "velocity": 0.905511811023622
        },
        {
          "duration": 23.53191960000001,
          "durationTicks": 4424,
          "midi": 54,
          "name": "F#3",
          "ticks": 26280,
          "time": 139.787262,
          "velocity": 0.6299212598425197
        },
        {
          "duration": 23.53191960000001,
          "durationTicks": 4424,
          "midi": 54,
          "name": "F#3",
          "ticks": 26310,
          "time": 139.94683650000002,
          "velocity": 0.4409448818897638
        },
        {
          "duration": 9.3297891,
          "durationTicks": 1754,
          "midi": 36,
          "name": "C2",
          "ticks": 26340,
          "time": 140.106411,
          "velocity": 1
        },
        {
          "duration": 61.67022510000001,
          "durationTicks": 11594,
          "midi": 42,
          "name": "F#2",
          "ticks": 26340,
          "time": 140.106411,
          "velocity": 0.905511811023622
        },
        {
          "duration": 23.53191960000001,
          "durationTicks": 4424,
          "midi": 54,
          "name": "F#3",
          "ticks": 26340,
          "time": 140.106411,
          "velocity": 0.6299212598425197
        },
        {
          "duration": 23.53191960000001,
          "durationTicks": 4424,
          "midi": 54,
          "name": "F#3",
          "ticks": 26370,
          "time": 140.2659855,
          "velocity": 0.4409448818897638
        },
        {
          "duration": 9.968087099999991,
          "durationTicks": 1874,
          "midi": 36,
          "name": "C2",
          "ticks": 26400,
          "time": 140.42556000000002,
          "velocity": 1
        },
        {
          "duration": 61.67022510000001,
          "durationTicks": 11594,
          "midi": 42,
          "name": "F#2",
          "ticks": 26400,
          "time": 140.42556000000002,
          "velocity": 0.905511811023622
        },
        {
          "duration": 23.53191959999998,
          "durationTicks": 4424,
          "midi": 54,
          "name": "F#3",
          "ticks": 26400,
          "time": 140.42556000000002,
          "velocity": 0.6299212598425197
        },
        {
          "duration": 23.6914941,
          "durationTicks": 4454,
          "midi": 54,
          "name": "F#3",
          "ticks": 26430,
          "time": 140.5851345,
          "velocity": 0.4409448818897638
        },
        {
          "duration": 61.98937410000002,
          "durationTicks": 11654,
          "midi": 42,
          "name": "F#2",
          "ticks": 26460,
          "time": 140.744709,
          "velocity": 0.905511811023622
        },
        {
          "duration": 23.6914941,
          "durationTicks": 4454,
          "midi": 54,
          "name": "F#3",
          "ticks": 26460,
          "time": 140.744709,
          "velocity": 0.6299212598425197
        },
        {
          "duration": 23.6914941,
          "durationTicks": 4454,
          "midi": 54,
          "name": "F#3",
          "ticks": 26490,
          "time": 140.90428350000002,
          "velocity": 0.4409448818897638
        },
        {
          "duration": 61.98937409999999,
          "durationTicks": 11654,
          "midi": 42,
          "name": "F#2",
          "ticks": 26520,
          "time": 141.063858,
          "velocity": 0.905511811023622
        },
        {
          "duration": 23.6914941,
          "durationTicks": 4454,
          "midi": 54,
          "name": "F#3",
          "ticks": 26520,
          "time": 141.063858,
          "velocity": 0.6299212598425197
        },
        {
          "duration": 23.6914941,
          "durationTicks": 4454,
          "midi": 54,
          "name": "F#3",
          "ticks": 26550,
          "time": 141.2234325,
          "velocity": 0.4409448818897638
        },
        {
          "duration": 9.3297891,
          "durationTicks": 1754,
          "midi": 36,
          "name": "C2",
          "ticks": 26580,
          "time": 141.38300700000002,
          "velocity": 1
        },
        {
          "duration": 62.627672099999984,
          "durationTicks": 11774,
          "midi": 42,
          "name": "F#2",
          "ticks": 26580,
          "time": 141.38300700000002,
          "velocity": 0.905511811023622
        },
        {
          "duration": 23.6914941,
          "durationTicks": 4454,
          "midi": 54,
          "name": "F#3",
          "ticks": 26580,
          "time": 141.38300700000002,
          "velocity": 0.6299212598425197
        },
        {
          "duration": 23.6914941,
          "durationTicks": 4454,
          "midi": 54,
          "name": "F#3",
          "ticks": 26610,
          "time": 141.5425815,
          "velocity": 0.4409448818897638
        },
        {
          "duration": 9.96808710000002,
          "durationTicks": 1874,
          "midi": 36,
          "name": "C2",
          "ticks": 26640,
          "time": 141.702156,
          "velocity": 1
        },
        {
          "duration": 62.62767210000001,
          "durationTicks": 11774,
          "midi": 42,
          "name": "F#2",
          "ticks": 26640,
          "time": 141.702156,
          "velocity": 0.905511811023622
        },
        {
          "duration": 23.85106860000002,
          "durationTicks": 4484,
          "midi": 54,
          "name": "F#3",
          "ticks": 26640,
          "time": 141.702156,
          "velocity": 0.6299212598425197
        },
        {
          "duration": 23.85106860000002,
          "durationTicks": 4484,
          "midi": 54,
          "name": "F#3",
          "ticks": 26670,
          "time": 141.8617305,
          "velocity": 0.4409448818897638
        },
        {
          "duration": 0.07446809999999005,
          "durationTicks": 14,
          "midi": 35,
          "name": "B1",
          "ticks": 26700,
          "time": 142.021305,
          "velocity": 0.905511811023622
        },
        {
          "duration": 0.07446809999999005,
          "durationTicks": 14,
          "midi": 46,
          "name": "A#2",
          "ticks": 26700,
          "time": 142.021305,
          "velocity": 0.905511811023622
        },
        {
          "duration": 9.968087099999991,
          "durationTicks": 1874,
          "midi": 36,
          "name": "C2",
          "ticks": 26700,
          "time": 142.021305,
          "velocity": 0.8661417322834646
        },
        {
          "duration": 23.85106859999999,
          "durationTicks": 4484,
          "midi": 54,
          "name": "F#3",
          "ticks": 26700,
          "time": 142.021305,
          "velocity": 0.6299212598425197
        },
        {
          "duration": 23.85106860000002,
          "durationTicks": 4484,
          "midi": 54,
          "name": "F#3",
          "ticks": 26730,
          "time": 142.1808795,
          "velocity": 0.4409448818897638
        },
        {
          "duration": 62.30852310000003,
          "durationTicks": 11714,
          "midi": 42,
          "name": "F#2",
          "ticks": 26760,
          "time": 142.340454,
          "velocity": 0.905511811023622
        },
        {
          "duration": 23.85106860000002,
          "durationTicks": 4484,
          "midi": 54,
          "name": "F#3",
          "ticks": 26760,
          "time": 142.340454,
          "velocity": 0.6299212598425197
        },
        {
          "duration": 23.85106859999999,
          "durationTicks": 4484,
          "midi": 54,
          "name": "F#3",
          "ticks": 26790,
          "time": 142.5000285,
          "velocity": 0.4409448818897638
        },
        {
          "duration": 9.64893810000001,
          "durationTicks": 1814,
          "midi": 36,
          "name": "C2",
          "ticks": 26820,
          "time": 142.659603,
          "velocity": 1
        },
        {
          "duration": 62.62767210000001,
          "durationTicks": 11774,
          "midi": 42,
          "name": "F#2",
          "ticks": 26820,
          "time": 142.659603,
          "velocity": 0.905511811023622
        },
        {
          "duration": 23.85106860000002,
          "durationTicks": 4484,
          "midi": 54,
          "name": "F#3",
          "ticks": 26820,
          "time": 142.659603,
          "velocity": 0.6299212598425197
        },
        {
          "duration": 24.01064310000001,
          "durationTicks": 4514,
          "midi": 54,
          "name": "F#3",
          "ticks": 26850,
          "time": 142.8191775,
          "velocity": 0.4409448818897638
        },
        {
          "duration": 9.968087099999991,
          "durationTicks": 1874,
          "midi": 36,
          "name": "C2",
          "ticks": 26880,
          "time": 142.97875200000001,
          "velocity": 1
        },
        {
          "duration": 62.62767210000001,
          "durationTicks": 11774,
          "midi": 42,
          "name": "F#2",
          "ticks": 26880,
          "time": 142.97875200000001,
          "velocity": 0.905511811023622
        },
        {
          "duration": 24.01064310000001,
          "durationTicks": 4514,
          "midi": 54,
          "name": "F#3",
          "ticks": 26880,
          "time": 142.97875200000001,
          "velocity": 0.6299212598425197
        },
        {
          "duration": 24.01064310000001,
          "durationTicks": 4514,
          "midi": 54,
          "name": "F#3",
          "ticks": 26910,
          "time": 143.1383265,
          "velocity": 0.4409448818897638
        },
        {
          "duration": 62.62767210000001,
          "durationTicks": 11774,
          "midi": 42,
          "name": "F#2",
          "ticks": 26940,
          "time": 143.297901,
          "velocity": 0.905511811023622
        },
        {
          "duration": 24.01064310000001,
          "durationTicks": 4514,
          "midi": 54,
          "name": "F#3",
          "ticks": 26940,
          "time": 143.297901,
          "velocity": 0.6299212598425197
        },
        {
          "duration": 24.01064310000001,
          "durationTicks": 4514,
          "midi": 54,
          "name": "F#3",
          "ticks": 26970,
          "time": 143.45747550000002,
          "velocity": 0.4409448818897638
        },
        {
          "duration": 62.94682110000002,
          "durationTicks": 11834,
          "midi": 42,
          "name": "F#2",
          "ticks": 27000,
          "time": 143.61705,
          "velocity": 0.905511811023622
        },
        {
          "duration": 24.01064310000001,
          "durationTicks": 4514,
          "midi": 54,
          "name": "F#3",
          "ticks": 27000,
          "time": 143.61705,
          "velocity": 0.6299212598425197
        },
        {
          "duration": 24.01064310000001,
          "durationTicks": 4514,
          "midi": 54,
          "name": "F#3",
          "ticks": 27030,
          "time": 143.7766245,
          "velocity": 0.4409448818897638
        },
        {
          "duration": 9.3297891,
          "durationTicks": 1754,
          "midi": 36,
          "name": "C2",
          "ticks": 27060,
          "time": 143.93619900000002,
          "velocity": 1
        },
        {
          "duration": 62.946821099999994,
          "durationTicks": 11834,
          "midi": 42,
          "name": "F#2",
          "ticks": 27060,
          "time": 143.93619900000002,
          "velocity": 0.905511811023622
        },
        {
          "duration": 24.1702176,
          "durationTicks": 4544,
          "midi": 54,
          "name": "F#3",
          "ticks": 27060,
          "time": 143.93619900000002,
          "velocity": 0.6299212598425197
        },
        {
          "duration": 24.1702176,
          "durationTicks": 4544,
          "midi": 54,
          "name": "F#3",
          "ticks": 27090,
          "time": 144.0957735,
          "velocity": 0.4409448818897638
        },
        {
          "duration": 9.96808710000002,
          "durationTicks": 1874,
          "midi": 36,
          "name": "C2",
          "ticks": 27120,
          "time": 144.255348,
          "velocity": 1
        },
        {
          "duration": 62.94682110000002,
          "durationTicks": 11834,
          "midi": 42,
          "name": "F#2",
          "ticks": 27120,
          "time": 144.255348,
          "velocity": 0.905511811023622
        },
        {
          "duration": 24.17021760000003,
          "durationTicks": 4544,
          "midi": 54,
          "name": "F#3",
          "ticks": 27120,
          "time": 144.255348,
          "velocity": 0.6299212598425197
        },
        {
          "duration": 24.32979209999999,
          "durationTicks": 4574,
          "midi": 54,
          "name": "F#3",
          "ticks": 27150,
          "time": 144.41492250000002,
          "velocity": 0.4409448818897638
        },
        {
          "duration": 63.265970100000004,
          "durationTicks": 11894,
          "midi": 42,
          "name": "F#2",
          "ticks": 27180,
          "time": 144.574497,
          "velocity": 0.905511811023622
        },
        {
          "duration": 24.32979209999999,
          "durationTicks": 4574,
          "midi": 54,
          "name": "F#3",
          "ticks": 27180,
          "time": 144.574497,
          "velocity": 0.6299212598425197
        },
        {
          "duration": 24.32979210000002,
          "durationTicks": 4574,
          "midi": 54,
          "name": "F#3",
          "ticks": 27210,
          "time": 144.7340715,
          "velocity": 0.4409448818897638
        },
        {
          "duration": 63.265970100000004,
          "durationTicks": 11894,
          "midi": 42,
          "name": "F#2",
          "ticks": 27240,
          "time": 144.89364600000002,
          "velocity": 0.905511811023622
        },
        {
          "duration": 24.489366599999983,
          "durationTicks": 4604,
          "midi": 54,
          "name": "F#3",
          "ticks": 27240,
          "time": 144.89364600000002,
          "velocity": 0.6299212598425197
        },
        {
          "duration": 24.48936660000001,
          "durationTicks": 4604,
          "midi": 54,
          "name": "F#3",
          "ticks": 27270,
          "time": 145.0532205,
          "velocity": 0.4409448818897638
        },
        {
          "duration": 9.3297891,
          "durationTicks": 1754,
          "midi": 36,
          "name": "C2",
          "ticks": 27300,
          "time": 145.212795,
          "velocity": 1
        },
        {
          "duration": 63.904268100000024,
          "durationTicks": 12014,
          "midi": 42,
          "name": "F#2",
          "ticks": 27300,
          "time": 145.212795,
          "velocity": 0.905511811023622
        },
        {
          "duration": 24.48936660000001,
          "durationTicks": 4604,
          "midi": 54,
          "name": "F#3",
          "ticks": 27300,
          "time": 145.212795,
          "velocity": 0.6299212598425197
        },
        {
          "duration": 24.489366599999983,
          "durationTicks": 4604,
          "midi": 54,
          "name": "F#3",
          "ticks": 27330,
          "time": 145.37236950000002,
          "velocity": 0.4409448818897638
        },
        {
          "duration": 9.968087099999991,
          "durationTicks": 1874,
          "midi": 36,
          "name": "C2",
          "ticks": 27360,
          "time": 145.531944,
          "velocity": 1
        },
        {
          "duration": 64.2234171,
          "durationTicks": 12074,
          "midi": 42,
          "name": "F#2",
          "ticks": 27360,
          "time": 145.531944,
          "velocity": 0.905511811023622
        },
        {
          "duration": 24.48936660000001,
          "durationTicks": 4604,
          "midi": 54,
          "name": "F#3",
          "ticks": 27360,
          "time": 145.531944,
          "velocity": 0.6299212598425197
        },
        {
          "duration": 24.48936660000001,
          "durationTicks": 4604,
          "midi": 54,
          "name": "F#3",
          "ticks": 27390,
          "time": 145.6915185,
          "velocity": 0.4409448818897638
        },
        {
          "duration": 64.54256609999999,
          "durationTicks": 12134,
          "midi": 42,
          "name": "F#2",
          "ticks": 27420,
          "time": 145.85109300000002,
          "velocity": 0.905511811023622
        },
        {
          "duration": 24.489366599999983,
          "durationTicks": 4604,
          "midi": 54,
          "name": "F#3",
          "ticks": 27420,
          "time": 145.85109300000002,
          "velocity": 0.6299212598425197
        },
        {
          "duration": 24.648941100000002,
          "durationTicks": 4634,
          "midi": 54,
          "name": "F#3",
          "ticks": 27450,
          "time": 146.0106675,
          "velocity": 0.4409448818897638
        },
        {
          "duration": 64.54256610000002,
          "durationTicks": 12134,
          "midi": 42,
          "name": "F#2",
          "ticks": 27480,
          "time": 146.170242,
          "velocity": 0.905511811023622
        },
        {
          "duration": 24.648941100000002,
          "durationTicks": 4634,
          "midi": 54,
          "name": "F#3",
          "ticks": 27480,
          "time": 146.170242,
          "velocity": 0.6299212598425197
        },
        {
          "duration": 24.648941100000002,
          "durationTicks": 4634,
          "midi": 54,
          "name": "F#3",
          "ticks": 27510,
          "time": 146.32981650000002,
          "velocity": 0.4409448818897638
        },
        {
          "duration": 9.3297891,
          "durationTicks": 1754,
          "midi": 36,
          "name": "C2",
          "ticks": 27540,
          "time": 146.489391,
          "velocity": 1
        },
        {
          "duration": 64.54256610000002,
          "durationTicks": 12134,
          "midi": 42,
          "name": "F#2",
          "ticks": 27540,
          "time": 146.489391,
          "velocity": 0.905511811023622
        },
        {
          "duration": 24.648941100000002,
          "durationTicks": 4634,
          "midi": 54,
          "name": "F#3",
          "ticks": 27540,
          "time": 146.489391,
          "velocity": 0.6299212598425197
        },
        {
          "duration": 24.648941100000002,
          "durationTicks": 4634,
          "midi": 54,
          "name": "F#3",
          "ticks": 27570,
          "time": 146.6489655,
          "velocity": 0.4409448818897638
        },
        {
          "duration": 9.96808710000002,
          "durationTicks": 1874,
          "midi": 36,
          "name": "C2",
          "ticks": 27600,
          "time": 146.80854,
          "velocity": 1
        },
        {
          "duration": 64.86171510000003,
          "durationTicks": 12194,
          "midi": 42,
          "name": "F#2",
          "ticks": 27600,
          "time": 146.80854,
          "velocity": 0.905511811023622
        },
        {
          "duration": 24.64894110000003,
          "durationTicks": 4634,
          "midi": 54,
          "name": "F#3",
          "ticks": 27600,
          "time": 146.80854,
          "velocity": 0.6299212598425197
        },
        {
          "duration": 24.648941100000002,
          "durationTicks": 4634,
          "midi": 54,
          "name": "F#3",
          "ticks": 27630,
          "time": 146.9681145,
          "velocity": 0.4409448818897638
        },
        {
          "duration": 0.07446810000001847,
          "durationTicks": 14,
          "midi": 35,
          "name": "B1",
          "ticks": 27660,
          "time": 147.127689,
          "velocity": 0.905511811023622
        },
        {
          "duration": 0.07446810000001847,
          "durationTicks": 14,
          "midi": 46,
          "name": "A#2",
          "ticks": 27660,
          "time": 147.127689,
          "velocity": 0.905511811023622
        },
        {
          "duration": 9.96808710000002,
          "durationTicks": 1874,
          "midi": 36,
          "name": "C2",
          "ticks": 27660,
          "time": 147.127689,
          "velocity": 0.8661417322834646
        },
        {
          "duration": 24.80851560000002,
          "durationTicks": 4664,
          "midi": 54,
          "name": "F#3",
          "ticks": 27660,
          "time": 147.127689,
          "velocity": 0.6299212598425197
        },
        {
          "duration": 24.80851560000002,
          "durationTicks": 4664,
          "midi": 54,
          "name": "F#3",
          "ticks": 27690,
          "time": 147.2872635,
          "velocity": 0.4409448818897638
        },
        {
          "duration": 64.54256609999999,
          "durationTicks": 12134,
          "midi": 42,
          "name": "F#2",
          "ticks": 27720,
          "time": 147.446838,
          "velocity": 0.905511811023622
        },
        {
          "duration": 24.808515599999993,
          "durationTicks": 4664,
          "midi": 54,
          "name": "F#3",
          "ticks": 27720,
          "time": 147.446838,
          "velocity": 0.6299212598425197
        },
        {
          "duration": 24.80851560000002,
          "durationTicks": 4664,
          "midi": 54,
          "name": "F#3",
          "ticks": 27750,
          "time": 147.6064125,
          "velocity": 0.4409448818897638
        },
        {
          "duration": 9.64893810000001,
          "durationTicks": 1814,
          "midi": 36,
          "name": "C2",
          "ticks": 27780,
          "time": 147.765987,
          "velocity": 1
        },
        {
          "duration": 64.54256610000002,
          "durationTicks": 12134,
          "midi": 42,
          "name": "F#2",
          "ticks": 27780,
          "time": 147.765987,
          "velocity": 0.905511811023622
        },
        {
          "duration": 24.80851560000002,
          "durationTicks": 4664,
          "midi": 54,
          "name": "F#3",
          "ticks": 27780,
          "time": 147.765987,
          "velocity": 0.6299212598425197
        },
        {
          "duration": 24.808515599999993,
          "durationTicks": 4664,
          "midi": 54,
          "name": "F#3",
          "ticks": 27810,
          "time": 147.92556150000001,
          "velocity": 0.4409448818897638
        },
        {
          "duration": 9.96808710000002,
          "durationTicks": 1874,
          "midi": 36,
          "name": "C2",
          "ticks": 27840,
          "time": 148.085136,
          "velocity": 1
        },
        {
          "duration": 64.8617151,
          "durationTicks": 12194,
          "midi": 42,
          "name": "F#2",
          "ticks": 27840,
          "time": 148.085136,
          "velocity": 0.905511811023622
        },
        {
          "duration": 24.80851560000002,
          "durationTicks": 4664,
          "midi": 54,
          "name": "F#3",
          "ticks": 27840,
          "time": 148.085136,
          "velocity": 0.6299212598425197
        },
        {
          "duration": 24.968090100000012,
          "durationTicks": 4694,
          "midi": 54,
          "name": "F#3",
          "ticks": 27870,
          "time": 148.2447105,
          "velocity": 0.4409448818897638
        },
        {
          "duration": 64.8617151,
          "durationTicks": 12194,
          "midi": 42,
          "name": "F#2",
          "ticks": 27900,
          "time": 148.40428500000002,
          "velocity": 0.905511811023622
        },
        {
          "duration": 24.968090100000012,
          "durationTicks": 4694,
          "midi": 54,
          "name": "F#3",
          "ticks": 27900,
          "time": 148.40428500000002,
          "velocity": 0.6299212598425197
        },
        {
          "duration": 24.968090100000012,
          "durationTicks": 4694,
          "midi": 54,
          "name": "F#3",
          "ticks": 27930,
          "time": 148.5638595,
          "velocity": 0.4409448818897638
        },
        {
          "duration": 65.50001310000002,
          "durationTicks": 12314,
          "midi": 42,
          "name": "F#2",
          "ticks": 27960,
          "time": 148.723434,
          "velocity": 0.905511811023622
        },
        {
          "duration": 24.968090100000012,
          "durationTicks": 4694,
          "midi": 54,
          "name": "F#3",
          "ticks": 27960,
          "time": 148.723434,
          "velocity": 0.6299212598425197
        },
        {
          "duration": 24.968090099999984,
          "durationTicks": 4694,
          "midi": 54,
          "name": "F#3",
          "ticks": 27990,
          "time": 148.88300850000002,
          "velocity": 0.4409448818897638
        },
        {
          "duration": 10.287236100000001,
          "durationTicks": 1934,
          "midi": 36,
          "name": "C2",
          "ticks": 28020,
          "time": 149.042583,
          "velocity": 1
        },
        {
          "duration": 65.50001310000002,
          "durationTicks": 12314,
          "midi": 42,
          "name": "F#2",
          "ticks": 28020,
          "time": 149.042583,
          "velocity": 0.905511811023622
        },
        {
          "duration": 24.968090100000012,
          "durationTicks": 4694,
          "midi": 54,
          "name": "F#3",
          "ticks": 28020,
          "time": 149.042583,
          "velocity": 0.6299212598425197
        },
        {
          "duration": 24.968090100000012,
          "durationTicks": 4694,
          "midi": 54,
          "name": "F#3",
          "ticks": 28050,
          "time": 149.2021575,
          "velocity": 0.4409448818897638
        },
        {
          "duration": 10.287236100000001,
          "durationTicks": 1934,
          "midi": 36,
          "name": "C2",
          "ticks": 28080,
          "time": 149.36173200000002,
          "velocity": 1
        },
        {
          "duration": 65.50001309999999,
          "durationTicks": 12314,
          "midi": 42,
          "name": "F#2",
          "ticks": 28080,
          "time": 149.36173200000002,
          "velocity": 0.905511811023622
        },
        {
          "duration": 25.127664600000003,
          "durationTicks": 4724,
          "midi": 54,
          "name": "F#3",
          "ticks": 28080,
          "time": 149.36173200000002,
          "velocity": 0.6299212598425197
        },
        {
          "duration": 25.127664600000003,
          "durationTicks": 4724,
          "midi": 54,
          "name": "F#3",
          "ticks": 28110,
          "time": 149.5213065,
          "velocity": 0.4409448818897638
        },
        {
          "duration": 65.81916210000003,
          "durationTicks": 12374,
          "midi": 42,
          "name": "F#2",
          "ticks": 28140,
          "time": 149.680881,
          "velocity": 0.905511811023622
        },
        {
          "duration": 25.127664600000003,
          "durationTicks": 4724,
          "midi": 54,
          "name": "F#3",
          "ticks": 28140,
          "time": 149.680881,
          "velocity": 0.6299212598425197
        },
        {
          "duration": 25.127664600000003,
          "durationTicks": 4724,
          "midi": 54,
          "name": "F#3",
          "ticks": 28170,
          "time": 149.84045550000002,
          "velocity": 0.4409448818897638
        },
        {
          "duration": 65.8191621,
          "durationTicks": 12374,
          "midi": 42,
          "name": "F#2",
          "ticks": 28200,
          "time": 150.00003,
          "velocity": 0.905511811023622
        },
        {
          "duration": 25.127664600000003,
          "durationTicks": 4724,
          "midi": 54,
          "name": "F#3",
          "ticks": 28200,
          "time": 150.00003,
          "velocity": 0.6299212598425197
        },
        {
          "duration": 25.127664600000003,
          "durationTicks": 4724,
          "midi": 54,
          "name": "F#3",
          "ticks": 28230,
          "time": 150.1596045,
          "velocity": 0.4409448818897638
        },
        {
          "duration": 10.287236100000001,
          "durationTicks": 1934,
          "midi": 36,
          "name": "C2",
          "ticks": 28260,
          "time": 150.31917900000002,
          "velocity": 1
        },
        {
          "duration": 65.8191621,
          "durationTicks": 12374,
          "midi": 42,
          "name": "F#2",
          "ticks": 28260,
          "time": 150.31917900000002,
          "velocity": 0.905511811023622
        },
        {
          "duration": 25.127664600000003,
          "durationTicks": 4724,
          "midi": 54,
          "name": "F#3",
          "ticks": 28260,
          "time": 150.31917900000002,
          "velocity": 0.6299212598425197
        },
        {
          "duration": 25.287239099999994,
          "durationTicks": 4754,
          "midi": 54,
          "name": "F#3",
          "ticks": 28290,
          "time": 150.4787535,
          "velocity": 0.4409448818897638
        },
        {
          "duration": 10.287236100000001,
          "durationTicks": 1934,
          "midi": 36,
          "name": "C2",
          "ticks": 28320,
          "time": 150.638328,
          "velocity": 1
        },
        {
          "duration": 66.13831110000001,
          "durationTicks": 12434,
          "midi": 42,
          "name": "F#2",
          "ticks": 28320,
          "time": 150.638328,
          "velocity": 0.905511811023622
        },
        {
          "duration": 25.287239100000022,
          "durationTicks": 4754,
          "midi": 54,
          "name": "F#3",
          "ticks": 28320,
          "time": 150.638328,
          "velocity": 0.6299212598425197
        },
        {
          "duration": 25.287239099999994,
          "durationTicks": 4754,
          "midi": 54,
          "name": "F#3",
          "ticks": 28350,
          "time": 150.79790250000002,
          "velocity": 0.4409448818897638
        },
        {
          "duration": 66.13831110000001,
          "durationTicks": 12434,
          "midi": 42,
          "name": "F#2",
          "ticks": 28380,
          "time": 150.957477,
          "velocity": 0.905511811023622
        },
        {
          "duration": 25.287239099999994,
          "durationTicks": 4754,
          "midi": 54,
          "name": "F#3",
          "ticks": 28380,
          "time": 150.957477,
          "velocity": 0.6299212598425197
        },
        {
          "duration": 25.287239100000022,
          "durationTicks": 4754,
          "midi": 54,
          "name": "F#3",
          "ticks": 28410,
          "time": 151.1170515,
          "velocity": 0.4409448818897638
        },
        {
          "duration": 66.13831109999998,
          "durationTicks": 12434,
          "midi": 42,
          "name": "F#2",
          "ticks": 28440,
          "time": 151.27662600000002,
          "velocity": 0.905511811023622
        },
        {
          "duration": 25.287239099999994,
          "durationTicks": 4754,
          "midi": 54,
          "name": "F#3",
          "ticks": 28440,
          "time": 151.27662600000002,
          "velocity": 0.6299212598425197
        },
        {
          "duration": 25.287239099999994,
          "durationTicks": 4754,
          "midi": 54,
          "name": "F#3",
          "ticks": 28470,
          "time": 151.4362005,
          "velocity": 0.4409448818897638
        },
        {
          "duration": 10.287236100000001,
          "durationTicks": 1934,
          "midi": 36,
          "name": "C2",
          "ticks": 28500,
          "time": 151.595775,
          "velocity": 1
        },
        {
          "duration": 66.45746010000002,
          "durationTicks": 12494,
          "midi": 42,
          "name": "F#2",
          "ticks": 28500,
          "time": 151.595775,
          "velocity": 0.905511811023622
        },
        {
          "duration": 25.446813600000013,
          "durationTicks": 4784,
          "midi": 54,
          "name": "F#3",
          "ticks": 28500,
          "time": 151.595775,
          "velocity": 0.6299212598425197
        },
        {
          "duration": 25.446813600000013,
          "durationTicks": 4784,
          "midi": 54,
          "name": "F#3",
          "ticks": 28530,
          "time": 151.7553495,
          "velocity": 0.4409448818897638
        },
        {
          "duration": 10.287236100000001,
          "durationTicks": 1934,
          "midi": 36,
          "name": "C2",
          "ticks": 28560,
          "time": 151.914924,
          "velocity": 1
        },
        {
          "duration": 66.45746009999999,
          "durationTicks": 12494,
          "midi": 42,
          "name": "F#2",
          "ticks": 28560,
          "time": 151.914924,
          "velocity": 0.905511811023622
        },
        {
          "duration": 25.446813600000013,
          "durationTicks": 4784,
          "midi": 54,
          "name": "F#3",
          "ticks": 28560,
          "time": 151.914924,
          "velocity": 0.6299212598425197
        },
        {
          "duration": 25.446813600000013,
          "durationTicks": 4784,
          "midi": 54,
          "name": "F#3",
          "ticks": 28590,
          "time": 152.0744985,
          "velocity": 0.4409448818897638
        },
        {
          "duration": 0.07446810000001847,
          "durationTicks": 14,
          "midi": 35,
          "name": "B1",
          "ticks": 28620,
          "time": 152.234073,
          "velocity": 0.905511811023622
        },
        {
          "duration": 0.07446810000001847,
          "durationTicks": 14,
          "midi": 46,
          "name": "A#2",
          "ticks": 28620,
          "time": 152.234073,
          "velocity": 0.905511811023622
        },
        {
          "duration": 10.28723610000003,
          "durationTicks": 1934,
          "midi": 36,
          "name": "C2",
          "ticks": 28620,
          "time": 152.234073,
          "velocity": 0.8661417322834646
        },
        {
          "duration": 25.446813600000013,
          "durationTicks": 4784,
          "midi": 54,
          "name": "F#3",
          "ticks": 28620,
          "time": 152.234073,
          "velocity": 0.6299212598425197
        },
        {
          "duration": 25.446813600000013,
          "durationTicks": 4784,
          "midi": 54,
          "name": "F#3",
          "ticks": 28650,
          "time": 152.39364750000001,
          "velocity": 0.4409448818897638
        },
        {
          "duration": 66.7766091,
          "durationTicks": 12554,
          "midi": 42,
          "name": "F#2",
          "ticks": 28680,
          "time": 152.553222,
          "velocity": 0.905511811023622
        },
        {
          "duration": 25.446813600000013,
          "durationTicks": 4784,
          "midi": 54,
          "name": "F#3",
          "ticks": 28680,
          "time": 152.553222,
          "velocity": 0.6299212598425197
        },
        {
          "duration": 25.606388100000004,
          "durationTicks": 4814,
          "midi": 54,
          "name": "F#3",
          "ticks": 28710,
          "time": 152.7127965,
          "velocity": 0.4409448818897638
        },
        {
          "duration": 10.287236100000001,
          "durationTicks": 1934,
          "midi": 36,
          "name": "C2",
          "ticks": 28740,
          "time": 152.87237100000002,
          "velocity": 1
        },
        {
          "duration": 67.09575810000001,
          "durationTicks": 12614,
          "midi": 42,
          "name": "F#2",
          "ticks": 28740,
          "time": 152.87237100000002,
          "velocity": 0.905511811023622
        },
        {
          "duration": 25.606388100000004,
          "durationTicks": 4814,
          "midi": 54,
          "name": "F#3",
          "ticks": 28740,
          "time": 152.87237100000002,
          "velocity": 0.6299212598425197
        },
        {
          "duration": 25.606388100000004,
          "durationTicks": 4814,
          "midi": 54,
          "name": "F#3",
          "ticks": 28770,
          "time": 153.0319455,
          "velocity": 0.4409448818897638
        },
        {
          "duration": 10.28723610000003,
          "durationTicks": 1934,
          "midi": 36,
          "name": "C2",
          "ticks": 28800,
          "time": 153.19152,
          "velocity": 1
        },
        {
          "duration": 67.41490710000002,
          "durationTicks": 12674,
          "midi": 42,
          "name": "F#2",
          "ticks": 28800,
          "time": 153.19152,
          "velocity": 0.905511811023622
        },
        {
          "duration": 25.765962600000023,
          "durationTicks": 4844,
          "midi": 54,
          "name": "F#3",
          "ticks": 28800,
          "time": 153.19152,
          "velocity": 0.6299212598425197
        },
        {
          "duration": 25.765962599999995,
          "durationTicks": 4844,
          "midi": 54,
          "name": "F#3",
          "ticks": 28830,
          "time": 153.35109450000002,
          "velocity": 0.4409448818897638
        },
        {
          "duration": 67.41490710000002,
          "durationTicks": 12674,
          "midi": 42,
          "name": "F#2",
          "ticks": 28860,
          "time": 153.510669,
          "velocity": 0.905511811023622
        },
        {
          "duration": 25.765962599999995,
          "durationTicks": 4844,
          "midi": 54,
          "name": "F#3",
          "ticks": 28860,
          "time": 153.510669,
          "velocity": 0.6299212598425197
        },
        {
          "duration": 25.925537100000014,
          "durationTicks": 4874,
          "midi": 54,
          "name": "F#3",
          "ticks": 28890,
          "time": 153.6702435,
          "velocity": 0.4409448818897638
        },
        {
          "duration": 67.4149071,
          "durationTicks": 12674,
          "midi": 42,
          "name": "F#2",
          "ticks": 28920,
          "time": 153.82981800000002,
          "velocity": 0.905511811023622
        },
        {
          "duration": 25.925537099999985,
          "durationTicks": 4874,
          "midi": 54,
          "name": "F#3",
          "ticks": 28920,
          "time": 153.82981800000002,
          "velocity": 0.6299212598425197
        },
        {
          "duration": 25.925537100000014,
          "durationTicks": 4874,
          "midi": 54,
          "name": "F#3",
          "ticks": 28950,
          "time": 153.9893925,
          "velocity": 0.4409448818897638
        },
        {
          "duration": 10.287236100000001,
          "durationTicks": 1934,
          "midi": 36,
          "name": "C2",
          "ticks": 28980,
          "time": 154.148967,
          "velocity": 1
        },
        {
          "duration": 67.7340561,
          "durationTicks": 12734,
          "midi": 42,
          "name": "F#2",
          "ticks": 28980,
          "time": 154.148967,
          "velocity": 0.905511811023622
        },
        {
          "duration": 25.925537100000014,
          "durationTicks": 4874,
          "midi": 54,
          "name": "F#3",
          "ticks": 28980,
          "time": 154.148967,
          "velocity": 0.6299212598425197
        },
        {
          "duration": 25.925537099999985,
          "durationTicks": 4874,
          "midi": 54,
          "name": "F#3",
          "ticks": 29010,
          "time": 154.30854150000002,
          "velocity": 0.4409448818897638
        },
        {
          "duration": 10.287236100000001,
          "durationTicks": 1934,
          "midi": 36,
          "name": "C2",
          "ticks": 29040,
          "time": 154.468116,
          "velocity": 1
        },
        {
          "duration": 67.7340561,
          "durationTicks": 12734,
          "midi": 42,
          "name": "F#2",
          "ticks": 29040,
          "time": 154.468116,
          "velocity": 0.905511811023622
        },
        {
          "duration": 25.925537100000014,
          "durationTicks": 4874,
          "midi": 54,
          "name": "F#3",
          "ticks": 29040,
          "time": 154.468116,
          "velocity": 0.6299212598425197
        },
        {
          "duration": 25.925537100000014,
          "durationTicks": 4874,
          "midi": 54,
          "name": "F#3",
          "ticks": 29070,
          "time": 154.6276905,
          "velocity": 0.4409448818897638
        },
        {
          "duration": 67.7340561,
          "durationTicks": 12734,
          "midi": 42,
          "name": "F#2",
          "ticks": 29100,
          "time": 154.78726500000002,
          "velocity": 0.905511811023622
        },
        {
          "duration": 26.085111600000005,
          "durationTicks": 4904,
          "midi": 54,
          "name": "F#3",
          "ticks": 29100,
          "time": 154.78726500000002,
          "velocity": 0.6299212598425197
        },
        {
          "duration": 26.085111600000005,
          "durationTicks": 4904,
          "midi": 54,
          "name": "F#3",
          "ticks": 29130,
          "time": 154.9468395,
          "velocity": 0.4409448818897638
        },
        {
          "duration": 68.05320510000001,
          "durationTicks": 12794,
          "midi": 42,
          "name": "F#2",
          "ticks": 29160,
          "time": 155.106414,
          "velocity": 0.905511811023622
        },
        {
          "duration": 26.085111600000005,
          "durationTicks": 4904,
          "midi": 54,
          "name": "F#3",
          "ticks": 29160,
          "time": 155.106414,
          "velocity": 0.6299212598425197
        },
        {
          "duration": 26.085111600000005,
          "durationTicks": 4904,
          "midi": 54,
          "name": "F#3",
          "ticks": 29190,
          "time": 155.26598850000002,
          "velocity": 0.4409448818897638
        },
        {
          "duration": 10.287236100000001,
          "durationTicks": 1934,
          "midi": 36,
          "name": "C2",
          "ticks": 29220,
          "time": 155.425563,
          "velocity": 1
        },
        {
          "duration": 68.05320510000001,
          "durationTicks": 12794,
          "midi": 42,
          "name": "F#2",
          "ticks": 29220,
          "time": 155.425563,
          "velocity": 0.905511811023622
        },
        {
          "duration": 26.085111600000005,
          "durationTicks": 4904,
          "midi": 54,
          "name": "F#3",
          "ticks": 29220,
          "time": 155.425563,
          "velocity": 0.6299212598425197
        },
        {
          "duration": 26.085111600000005,
          "durationTicks": 4904,
          "midi": 54,
          "name": "F#3",
          "ticks": 29250,
          "time": 155.5851375,
          "velocity": 0.4409448818897638
        },
        {
          "duration": 10.287236100000001,
          "durationTicks": 1934,
          "midi": 36,
          "name": "C2",
          "ticks": 29280,
          "time": 155.74471200000002,
          "velocity": 1
        },
        {
          "duration": 68.6915031,
          "durationTicks": 12914,
          "midi": 42,
          "name": "F#2",
          "ticks": 29280,
          "time": 155.74471200000002,
          "velocity": 0.905511811023622
        },
        {
          "duration": 26.085111600000005,
          "durationTicks": 4904,
          "midi": 54,
          "name": "F#3",
          "ticks": 29280,
          "time": 155.74471200000002,
          "velocity": 0.6299212598425197
        },
        {
          "duration": 26.244686099999996,
          "durationTicks": 4934,
          "midi": 54,
          "name": "F#3",
          "ticks": 29310,
          "time": 155.9042865,
          "velocity": 0.4409448818897638
        },
        {
          "duration": 69.01065210000002,
          "durationTicks": 12974,
          "midi": 42,
          "name": "F#2",
          "ticks": 29340,
          "time": 156.063861,
          "velocity": 0.905511811023622
        },
        {
          "duration": 26.244686100000024,
          "durationTicks": 4934,
          "midi": 54,
          "name": "F#3",
          "ticks": 29340,
          "time": 156.063861,
          "velocity": 0.6299212598425197
        },
        {
          "duration": 26.244686100000024,
          "durationTicks": 4934,
          "midi": 54,
          "name": "F#3",
          "ticks": 29370,
          "time": 156.2234355,
          "velocity": 0.4409448818897638
        },
        {
          "duration": 69.3298011,
          "durationTicks": 13034,
          "midi": 42,
          "name": "F#2",
          "ticks": 29400,
          "time": 156.38301,
          "velocity": 0.905511811023622
        },
        {
          "duration": 26.244686099999996,
          "durationTicks": 4934,
          "midi": 54,
          "name": "F#3",
          "ticks": 29400,
          "time": 156.38301,
          "velocity": 0.6299212598425197
        },
        {
          "duration": 26.244686100000024,
          "durationTicks": 4934,
          "midi": 54,
          "name": "F#3",
          "ticks": 29430,
          "time": 156.5425845,
          "velocity": 0.4409448818897638
        },
        {
          "duration": 10.28723610000003,
          "durationTicks": 1934,
          "midi": 36,
          "name": "C2",
          "ticks": 29460,
          "time": 156.702159,
          "velocity": 1
        },
        {
          "duration": 69.32980110000003,
          "durationTicks": 13034,
          "midi": 42,
          "name": "F#2",
          "ticks": 29460,
          "time": 156.702159,
          "velocity": 0.905511811023622
        },
        {
          "duration": 26.244686100000024,
          "durationTicks": 4934,
          "midi": 54,
          "name": "F#3",
          "ticks": 29460,
          "time": 156.702159,
          "velocity": 0.6299212598425197
        },
        {
          "duration": 26.244686099999996,
          "durationTicks": 4934,
          "midi": 54,
          "name": "F#3",
          "ticks": 29490,
          "time": 156.8617335,
          "velocity": 0.4409448818897638
        },
        {
          "duration": 10.287236100000001,
          "durationTicks": 1934,
          "midi": 36,
          "name": "C2",
          "ticks": 29520,
          "time": 157.021308,
          "velocity": 1
        },
        {
          "duration": 69.3298011,
          "durationTicks": 13034,
          "midi": 42,
          "name": "F#2",
          "ticks": 29520,
          "time": 157.021308,
          "velocity": 0.905511811023622
        },
        {
          "duration": 26.404260600000015,
          "durationTicks": 4964,
          "midi": 54,
          "name": "F#3",
          "ticks": 29520,
          "time": 157.021308,
          "velocity": 0.6299212598425197
        },
        {
          "duration": 26.404260600000015,
          "durationTicks": 4964,
          "midi": 54,
          "name": "F#3",
          "ticks": 29550,
          "time": 157.1808825,
          "velocity": 0.4409448818897638
        },
        {
          "duration": 0.07446809999999005,
          "durationTicks": 14,
          "midi": 35,
          "name": "B1",
          "ticks": 29580,
          "time": 157.34045700000001,
          "velocity": 0.905511811023622
        },
        {
          "duration": 0.07446809999999005,
          "durationTicks": 14,
          "midi": 46,
          "name": "A#2",
          "ticks": 29580,
          "time": 157.34045700000001,
          "velocity": 0.905511811023622
        },
        {
          "duration": 10.287236100000001,
          "durationTicks": 1934,
          "midi": 36,
          "name": "C2",
          "ticks": 29580,
          "time": 157.34045700000001,
          "velocity": 0.8661417322834646
        },
        {
          "duration": 26.404260599999986,
          "durationTicks": 4964,
          "midi": 54,
          "name": "F#3",
          "ticks": 29580,
          "time": 157.34045700000001,
          "velocity": 0.6299212598425197
        },
        {
          "duration": 26.404260600000015,
          "durationTicks": 4964,
          "midi": 54,
          "name": "F#3",
          "ticks": 29610,
          "time": 157.5000315,
          "velocity": 0.4409448818897638
        },
        {
          "duration": 69.32980110000003,
          "durationTicks": 13034,
          "midi": 42,
          "name": "F#2",
          "ticks": 29640,
          "time": 157.659606,
          "velocity": 0.905511811023622
        },
        {
          "duration": 26.404260600000015,
          "durationTicks": 4964,
          "midi": 54,
          "name": "F#3",
          "ticks": 29640,
          "time": 157.659606,
          "velocity": 0.6299212598425197
        },
        {
          "duration": 26.404260599999986,
          "durationTicks": 4964,
          "midi": 54,
          "name": "F#3",
          "ticks": 29670,
          "time": 157.81918050000002,
          "velocity": 0.4409448818897638
        },
        {
          "duration": 10.287236100000001,
          "durationTicks": 1934,
          "midi": 36,
          "name": "C2",
          "ticks": 29700,
          "time": 157.978755,
          "velocity": 1
        },
        {
          "duration": 69.3298011,
          "durationTicks": 13034,
          "midi": 42,
          "name": "F#2",
          "ticks": 29700,
          "time": 157.978755,
          "velocity": 0.905511811023622
        },
        {
          "duration": 26.404260600000015,
          "durationTicks": 4964,
          "midi": 54,
          "name": "F#3",
          "ticks": 29700,
          "time": 157.978755,
          "velocity": 0.6299212598425197
        },
        {
          "duration": 26.563835100000006,
          "durationTicks": 4994,
          "midi": 54,
          "name": "F#3",
          "ticks": 29730,
          "time": 158.1383295,
          "velocity": 0.4409448818897638
        },
        {
          "duration": 11.244683100000003,
          "durationTicks": 2114,
          "midi": 36,
          "name": "C2",
          "ticks": 29760,
          "time": 158.29790400000002,
          "velocity": 1
        },
        {
          "duration": 69.3298011,
          "durationTicks": 13034,
          "midi": 42,
          "name": "F#2",
          "ticks": 29760,
          "time": 158.29790400000002,
          "velocity": 0.905511811023622
        },
        {
          "duration": 26.563835100000006,
          "durationTicks": 4994,
          "midi": 54,
          "name": "F#3",
          "ticks": 29760,
          "time": 158.29790400000002,
          "velocity": 0.6299212598425197
        },
        {
          "duration": 26.563835100000006,
          "durationTicks": 4994,
          "midi": 54,
          "name": "F#3",
          "ticks": 29790,
          "time": 158.4574785,
          "velocity": 0.4409448818897638
        },
        {
          "duration": 69.64895010000001,
          "durationTicks": 13094,
          "midi": 42,
          "name": "F#2",
          "ticks": 29820,
          "time": 158.617053,
          "velocity": 0.905511811023622
        },
        {
          "duration": 26.563835100000006,
          "durationTicks": 4994,
          "midi": 54,
          "name": "F#3",
          "ticks": 29820,
          "time": 158.617053,
          "velocity": 0.6299212598425197
        },
        {
          "duration": 26.563835100000006,
          "durationTicks": 4994,
          "midi": 54,
          "name": "F#3",
          "ticks": 29850,
          "time": 158.77662750000002,
          "velocity": 0.4409448818897638
        },
        {
          "duration": 69.64895010000001,
          "durationTicks": 13094,
          "midi": 42,
          "name": "F#2",
          "ticks": 29880,
          "time": 158.936202,
          "velocity": 0.905511811023622
        },
        {
          "duration": 26.563835100000006,
          "durationTicks": 4994,
          "midi": 54,
          "name": "F#3",
          "ticks": 29880,
          "time": 158.936202,
          "velocity": 0.6299212598425197
        },
        {
          "duration": 26.563835100000006,
          "durationTicks": 4994,
          "midi": 54,
          "name": "F#3",
          "ticks": 29910,
          "time": 159.0957765,
          "velocity": 0.4409448818897638
        },
        {
          "duration": 10.606385099999983,
          "durationTicks": 1994,
          "midi": 36,
          "name": "C2",
          "ticks": 29940,
          "time": 159.25535100000002,
          "velocity": 1
        },
        {
          "duration": 70.2872481,
          "durationTicks": 13214,
          "midi": 42,
          "name": "F#2",
          "ticks": 29940,
          "time": 159.25535100000002,
          "velocity": 0.905511811023622
        },
        {
          "duration": 26.723409599999997,
          "durationTicks": 5024,
          "midi": 54,
          "name": "F#3",
          "ticks": 29940,
          "time": 159.25535100000002,
          "velocity": 0.6299212598425197
        },
        {
          "duration": 26.723409599999997,
          "durationTicks": 5024,
          "midi": 54,
          "name": "F#3",
          "ticks": 29970,
          "time": 159.4149255,
          "velocity": 0.4409448818897638
        },
        {
          "duration": 11.244683100000003,
          "durationTicks": 2114,
          "midi": 36,
          "name": "C2",
          "ticks": 30000,
          "time": 159.5745,
          "velocity": 1
        },
        {
          "duration": 70.60639710000001,
          "durationTicks": 13274,
          "midi": 42,
          "name": "F#2",
          "ticks": 30000,
          "time": 159.5745,
          "velocity": 0.905511811023622
        },
        {
          "duration": 26.723409600000025,
          "durationTicks": 5024,
          "midi": 54,
          "name": "F#3",
          "ticks": 30000,
          "time": 159.5745,
          "velocity": 0.6299212598425197
        },
        {
          "duration": 26.723409599999997,
          "durationTicks": 5024,
          "midi": 54,
          "name": "F#3",
          "ticks": 30030,
          "time": 159.73407450000002,
          "velocity": 0.4409448818897638
        },
        {
          "duration": 70.92554610000002,
          "durationTicks": 13334,
          "midi": 42,
          "name": "F#2",
          "ticks": 30060,
          "time": 159.893649,
          "velocity": 0.905511811023622
        },
        {
          "duration": 26.723409599999997,
          "durationTicks": 5024,
          "midi": 54,
          "name": "F#3",
          "ticks": 30060,
          "time": 159.893649,
          "velocity": 0.6299212598425197
        },
        {
          "duration": 26.723409600000025,
          "durationTicks": 5024,
          "midi": 54,
          "name": "F#3",
          "ticks": 30090,
          "time": 160.0532235,
          "velocity": 0.4409448818897638
        },
        {
          "duration": 70.92554609999999,
          "durationTicks": 13334,
          "midi": 42,
          "name": "F#2",
          "ticks": 30120,
          "time": 160.21279800000002,
          "velocity": 0.905511811023622
        },
        {
          "duration": 26.723409599999997,
          "durationTicks": 5024,
          "midi": 54,
          "name": "F#3",
          "ticks": 30120,
          "time": 160.21279800000002,
          "velocity": 0.6299212598425197
        },
        {
          "duration": 26.882984100000016,
          "durationTicks": 5054,
          "midi": 54,
          "name": "F#3",
          "ticks": 30150,
          "time": 160.3723725,
          "velocity": 0.4409448818897638
        },
        {
          "duration": 10.606385100000011,
          "durationTicks": 1994,
          "midi": 36,
          "name": "C2",
          "ticks": 30180,
          "time": 160.531947,
          "velocity": 1
        },
        {
          "duration": 70.92554610000002,
          "durationTicks": 13334,
          "midi": 42,
          "name": "F#2",
          "ticks": 30180,
          "time": 160.531947,
          "velocity": 0.905511811023622
        },
        {
          "duration": 26.882984100000016,
          "durationTicks": 5054,
          "midi": 54,
          "name": "F#3",
          "ticks": 30180,
          "time": 160.531947,
          "velocity": 0.6299212598425197
        },
        {
          "duration": 26.882984099999987,
          "durationTicks": 5054,
          "midi": 54,
          "name": "F#3",
          "ticks": 30210,
          "time": 160.69152150000002,
          "velocity": 0.4409448818897638
        },
        {
          "duration": 11.244683100000003,
          "durationTicks": 2114,
          "midi": 36,
          "name": "C2",
          "ticks": 30240,
          "time": 160.851096,
          "velocity": 1
        },
        {
          "duration": 71.2446951,
          "durationTicks": 13394,
          "midi": 42,
          "name": "F#2",
          "ticks": 30240,
          "time": 160.851096,
          "velocity": 0.905511811023622
        },
        {
          "duration": 26.882984100000016,
          "durationTicks": 5054,
          "midi": 54,
          "name": "F#3",
          "ticks": 30240,
          "time": 160.851096,
          "velocity": 0.6299212598425197
        },
        {
          "duration": 26.882984100000016,
          "durationTicks": 5054,
          "midi": 54,
          "name": "F#3",
          "ticks": 30270,
          "time": 161.0106705,
          "velocity": 0.4409448818897638
        },
        {
          "duration": 71.24469510000003,
          "durationTicks": 13394,
          "midi": 42,
          "name": "F#2",
          "ticks": 30300,
          "time": 161.170245,
          "velocity": 0.905511811023622
        },
        {
          "duration": 26.882984100000016,
          "durationTicks": 5054,
          "midi": 54,
          "name": "F#3",
          "ticks": 30300,
          "time": 161.170245,
          "velocity": 0.6299212598425197
        },
        {
          "duration": 26.882984099999987,
          "durationTicks": 5054,
          "midi": 54,
          "name": "F#3",
          "ticks": 30330,
          "time": 161.3298195,
          "velocity": 0.4409448818897638
        },
        {
          "duration": 71.2446951,
          "durationTicks": 13394,
          "midi": 42,
          "name": "F#2",
          "ticks": 30360,
          "time": 161.489394,
          "velocity": 0.905511811023622
        },
        {
          "duration": 27.042558600000007,
          "durationTicks": 5084,
          "midi": 54,
          "name": "F#3",
          "ticks": 30360,
          "time": 161.489394,
          "velocity": 0.6299212598425197
        },
        {
          "duration": 27.042558600000007,
          "durationTicks": 5084,
          "midi": 54,
          "name": "F#3",
          "ticks": 30390,
          "time": 161.6489685,
          "velocity": 0.4409448818897638
        },
        {
          "duration": 10.606385100000011,
          "durationTicks": 1994,
          "midi": 36,
          "name": "C2",
          "ticks": 30420,
          "time": 161.80854300000001,
          "velocity": 1
        },
        {
          "duration": 71.56384410000001,
          "durationTicks": 13454,
          "midi": 42,
          "name": "F#2",
          "ticks": 30420,
          "time": 161.80854300000001,
          "velocity": 0.905511811023622
        },
        {
          "duration": 27.042558600000007,
          "durationTicks": 5084,
          "midi": 54,
          "name": "F#3",
          "ticks": 30420,
          "time": 161.80854300000001,
          "velocity": 0.6299212598425197
        },
        {
          "duration": 27.202133099999998,
          "durationTicks": 5114,
          "midi": 54,
          "name": "F#3",
          "ticks": 30450,
          "time": 161.9681175,
          "velocity": 0.4409448818897638
        },
        {
          "duration": 10.606385100000011,
          "durationTicks": 1994,
          "midi": 36,
          "name": "C2",
          "ticks": 30480,
          "time": 162.127692,
          "velocity": 1
        },
        {
          "duration": 71.56384410000001,
          "durationTicks": 13454,
          "midi": 42,
          "name": "F#2",
          "ticks": 30480,
          "time": 162.127692,
          "velocity": 0.905511811023622
        },
        {
          "duration": 27.202133100000026,
          "durationTicks": 5114,
          "midi": 54,
          "name": "F#3",
          "ticks": 30480,
          "time": 162.127692,
          "velocity": 0.6299212598425197
        },
        {
          "duration": 27.202133099999998,
          "durationTicks": 5114,
          "midi": 54,
          "name": "F#3",
          "ticks": 30510,
          "time": 162.28726650000002,
          "velocity": 0.4409448818897638
        },
        {
          "duration": 0.07446810000001847,
          "durationTicks": 14,
          "midi": 35,
          "name": "B1",
          "ticks": 30540,
          "time": 162.446841,
          "velocity": 0.905511811023622
        },
        {
          "duration": 0.07446810000001847,
          "durationTicks": 14,
          "midi": 46,
          "name": "A#2",
          "ticks": 30540,
          "time": 162.446841,
          "velocity": 0.905511811023622
        },
        {
          "duration": 10.925534100000021,
          "durationTicks": 2054,
          "midi": 36,
          "name": "C2",
          "ticks": 30540,
          "time": 162.446841,
          "velocity": 0.8661417322834646
        },
        {
          "duration": 27.361707600000017,
          "durationTicks": 5144,
          "midi": 54,
          "name": "F#3",
          "ticks": 30540,
          "time": 162.446841,
          "velocity": 0.6299212598425197
        },
        {
          "duration": 27.361707600000017,
          "durationTicks": 5144,
          "midi": 54,
          "name": "F#3",
          "ticks": 30570,
          "time": 162.6064155,
          "velocity": 0.4409448818897638
        },
        {
          "duration": 71.8829931,
          "durationTicks": 13514,
          "midi": 42,
          "name": "F#2",
          "ticks": 30600,
          "time": 162.76599000000002,
          "velocity": 0.905511811023622
        },
        {
          "duration": 27.36170759999999,
          "durationTicks": 5144,
          "midi": 54,
          "name": "F#3",
          "ticks": 30600,
          "time": 162.76599000000002,
          "velocity": 0.6299212598425197
        },
        {
          "duration": 27.361707600000017,
          "durationTicks": 5144,
          "midi": 54,
          "name": "F#3",
          "ticks": 30630,
          "time": 162.9255645,
          "velocity": 0.4409448818897638
        },
        {
          "duration": 10.606385100000011,
          "durationTicks": 1994,
          "midi": 36,
          "name": "C2",
          "ticks": 30660,
          "time": 163.085139,
          "velocity": 1
        },
        {
          "duration": 72.20214210000003,
          "durationTicks": 13574,
          "midi": 42,
          "name": "F#2",
          "ticks": 30660,
          "time": 163.085139,
          "velocity": 0.905511811023622
        },
        {
          "duration": 27.361707600000017,
          "durationTicks": 5144,
          "midi": 54,
          "name": "F#3",
          "ticks": 30660,
          "time": 163.085139,
          "velocity": 0.6299212598425197
        },
        {
          "duration": 27.36170759999999,
          "durationTicks": 5144,
          "midi": 54,
          "name": "F#3",
          "ticks": 30690,
          "time": 163.24471350000002,
          "velocity": 0.4409448818897638
        },
        {
          "duration": 11.244683100000003,
          "durationTicks": 2114,
          "midi": 36,
          "name": "C2",
          "ticks": 30720,
          "time": 163.404288,
          "velocity": 1
        },
        {
          "duration": 72.52129110000001,
          "durationTicks": 13634,
          "midi": 42,
          "name": "F#2",
          "ticks": 30720,
          "time": 163.404288,
          "velocity": 0.905511811023622
        },
        {
          "duration": 27.361707600000017,
          "durationTicks": 5144,
          "midi": 54,
          "name": "F#3",
          "ticks": 30720,
          "time": 163.404288,
          "velocity": 0.6299212598425197
        },
        {
          "duration": 27.521282100000008,
          "durationTicks": 5174,
          "midi": 54,
          "name": "F#3",
          "ticks": 30750,
          "time": 163.5638625,
          "velocity": 0.4409448818897638
        },
        {
          "duration": 72.52129109999998,
          "durationTicks": 13634,
          "midi": 42,
          "name": "F#2",
          "ticks": 30780,
          "time": 163.72343700000002,
          "velocity": 0.905511811023622
        },
        {
          "duration": 27.521282100000008,
          "durationTicks": 5174,
          "midi": 54,
          "name": "F#3",
          "ticks": 30780,
          "time": 163.72343700000002,
          "velocity": 0.6299212598425197
        },
        {
          "duration": 27.521282100000008,
          "durationTicks": 5174,
          "midi": 54,
          "name": "F#3",
          "ticks": 30810,
          "time": 163.8830115,
          "velocity": 0.4409448818897638
        },
        {
          "duration": 72.52129110000001,
          "durationTicks": 13634,
          "midi": 42,
          "name": "F#2",
          "ticks": 30840,
          "time": 164.042586,
          "velocity": 0.905511811023622
        },
        {
          "duration": 27.521282100000008,
          "durationTicks": 5174,
          "midi": 54,
          "name": "F#3",
          "ticks": 30840,
          "time": 164.042586,
          "velocity": 0.6299212598425197
        },
        {
          "duration": 27.521282100000008,
          "durationTicks": 5174,
          "midi": 54,
          "name": "F#3",
          "ticks": 30870,
          "time": 164.20216050000002,
          "velocity": 0.4409448818897638
        },
        {
          "duration": 10.606385100000011,
          "durationTicks": 1994,
          "midi": 36,
          "name": "C2",
          "ticks": 30900,
          "time": 164.361735,
          "velocity": 1
        },
        {
          "duration": 72.8404401,
          "durationTicks": 13694,
          "midi": 42,
          "name": "F#2",
          "ticks": 30900,
          "time": 164.361735,
          "velocity": 0.905511811023622
        },
        {
          "duration": 27.521282100000008,
          "durationTicks": 5174,
          "midi": 54,
          "name": "F#3",
          "ticks": 30900,
          "time": 164.361735,
          "velocity": 0.6299212598425197
        },
        {
          "duration": 27.521282100000008,
          "durationTicks": 5174,
          "midi": 54,
          "name": "F#3",
          "ticks": 30930,
          "time": 164.5213095,
          "velocity": 0.4409448818897638
        },
        {
          "duration": 11.244683100000003,
          "durationTicks": 2114,
          "midi": 36,
          "name": "C2",
          "ticks": 30960,
          "time": 164.68088400000002,
          "velocity": 1
        },
        {
          "duration": 72.8404401,
          "durationTicks": 13694,
          "midi": 42,
          "name": "F#2",
          "ticks": 30960,
          "time": 164.68088400000002,
          "velocity": 0.905511811023622
        },
        {
          "duration": 27.6808566,
          "durationTicks": 5204,
          "midi": 54,
          "name": "F#3",
          "ticks": 30960,
          "time": 164.68088400000002,
          "velocity": 0.6299212598425197
        },
        {
          "duration": 27.6808566,
          "durationTicks": 5204,
          "midi": 54,
          "name": "F#3",
          "ticks": 30990,
          "time": 164.8404585,
          "velocity": 0.4409448818897638
        },
        {
          "duration": 72.84044010000002,
          "durationTicks": 13694,
          "midi": 42,
          "name": "F#2",
          "ticks": 31020,
          "time": 165.000033,
          "velocity": 0.905511811023622
        },
        {
          "duration": 27.6808566,
          "durationTicks": 5204,
          "midi": 54,
          "name": "F#3",
          "ticks": 31020,
          "time": 165.000033,
          "velocity": 0.6299212598425197
        },
        {
          "duration": 27.6808566,
          "durationTicks": 5204,
          "midi": 54,
          "name": "F#3",
          "ticks": 31050,
          "time": 165.15960750000002,
          "velocity": 0.4409448818897638
        },
        {
          "duration": 73.1595891,
          "durationTicks": 13754,
          "midi": 42,
          "name": "F#2",
          "ticks": 31080,
          "time": 165.319182,
          "velocity": 0.905511811023622
        },
        {
          "duration": 27.6808566,
          "durationTicks": 5204,
          "midi": 54,
          "name": "F#3",
          "ticks": 31080,
          "time": 165.319182,
          "velocity": 0.6299212598425197
        },
        {
          "duration": 27.6808566,
          "durationTicks": 5204,
          "midi": 54,
          "name": "F#3",
          "ticks": 31110,
          "time": 165.4787565,
          "velocity": 0.4409448818897638
        },
        {
          "duration": 10.606385099999983,
          "durationTicks": 1994,
          "midi": 36,
          "name": "C2",
          "ticks": 31140,
          "time": 165.63833100000002,
          "velocity": 1
        },
        {
          "duration": 73.1595891,
          "durationTicks": 13754,
          "midi": 42,
          "name": "F#2",
          "ticks": 31140,
          "time": 165.63833100000002,
          "velocity": 0.905511811023622
        },
        {
          "duration": 27.6808566,
          "durationTicks": 5204,
          "midi": 54,
          "name": "F#3",
          "ticks": 31140,
          "time": 165.63833100000002,
          "velocity": 0.6299212598425197
        },
        {
          "duration": 27.84043109999999,
          "durationTicks": 5234,
          "midi": 54,
          "name": "F#3",
          "ticks": 31170,
          "time": 165.7979055,
          "velocity": 0.4409448818897638
        },
        {
          "duration": 11.244683100000003,
          "durationTicks": 2114,
          "midi": 36,
          "name": "C2",
          "ticks": 31200,
          "time": 165.95748,
          "velocity": 1
        },
        {
          "duration": 73.79788710000003,
          "durationTicks": 13874,
          "midi": 42,
          "name": "F#2",
          "ticks": 31200,
          "time": 165.95748,
          "velocity": 0.905511811023622
        },
        {
          "duration": 27.840431100000018,
          "durationTicks": 5234,
          "midi": 54,
          "name": "F#3",
          "ticks": 31200,
          "time": 165.95748,
          "velocity": 0.6299212598425197
        },
        {
          "duration": 27.840431100000018,
          "durationTicks": 5234,
          "midi": 54,
          "name": "F#3",
          "ticks": 31230,
          "time": 166.1170545,
          "velocity": 0.4409448818897638
        },
        {
          "duration": 27.84043109999999,
          "durationTicks": 5234,
          "midi": 54,
          "name": "F#3",
          "ticks": 31260,
          "time": 166.276629,
          "velocity": 0.6299212598425197
        },
        {
          "duration": 27.840431100000018,
          "durationTicks": 5234,
          "midi": 54,
          "name": "F#3",
          "ticks": 31290,
          "time": 166.4362035,
          "velocity": 0.4409448818897638
        },
        {
          "duration": 27.840431100000018,
          "durationTicks": 5234,
          "midi": 54,
          "name": "F#3",
          "ticks": 31320,
          "time": 166.595778,
          "velocity": 0.6299212598425197
        },
        {
          "duration": 27.84043109999999,
          "durationTicks": 5234,
          "midi": 54,
          "name": "F#3",
          "ticks": 31350,
          "time": 166.75535250000001,
          "velocity": 0.4409448818897638
        },
        {
          "duration": 10.606385100000011,
          "durationTicks": 1994,
          "midi": 36,
          "name": "C2",
          "ticks": 31380,
          "time": 166.914927,
          "velocity": 1
        },
        {
          "duration": 28.00000560000001,
          "durationTicks": 5264,
          "midi": 54,
          "name": "F#3",
          "ticks": 31380,
          "time": 166.914927,
          "velocity": 0.6299212598425197
        },
        {
          "duration": 28.00000560000001,
          "durationTicks": 5264,
          "midi": 54,
          "name": "F#3",
          "ticks": 31410,
          "time": 167.0745015,
          "velocity": 0.4409448818897638
        },
        {
          "duration": 10.606385100000011,
          "durationTicks": 1994,
          "midi": 36,
          "name": "C2",
          "ticks": 31440,
          "time": 167.23407600000002,
          "velocity": 1
        },
        {
          "duration": 28.00000560000001,
          "durationTicks": 5264,
          "midi": 54,
          "name": "F#3",
          "ticks": 31440,
          "time": 167.23407600000002,
          "velocity": 0.6299212598425197
        },
        {
          "duration": 28.00000560000001,
          "durationTicks": 5264,
          "midi": 54,
          "name": "F#3",
          "ticks": 31470,
          "time": 167.3936505,
          "velocity": 0.4409448818897638
        },
        {
          "duration": 0.07446810000001847,
          "durationTicks": 14,
          "midi": 35,
          "name": "B1",
          "ticks": 31500,
          "time": 167.553225,
          "velocity": 0.905511811023622
        },
        {
          "duration": 0.07446810000001847,
          "durationTicks": 14,
          "midi": 46,
          "name": "A#2",
          "ticks": 31500,
          "time": 167.553225,
          "velocity": 0.905511811023622
        },
        {
          "duration": 10.925534100000021,
          "durationTicks": 2054,
          "midi": 36,
          "name": "C2",
          "ticks": 31500,
          "time": 167.553225,
          "velocity": 0.8661417322834646
        },
        {
          "duration": 28.00000560000001,
          "durationTicks": 5264,
          "midi": 54,
          "name": "F#3",
          "ticks": 31500,
          "time": 167.553225,
          "velocity": 0.6299212598425197
        },
        {
          "duration": 28.00000560000001,
          "durationTicks": 5264,
          "midi": 54,
          "name": "F#3",
          "ticks": 31530,
          "time": 167.71279950000002,
          "velocity": 0.4409448818897638
        },
        {
          "duration": 28.00000560000001,
          "durationTicks": 5264,
          "midi": 54,
          "name": "F#3",
          "ticks": 31560,
          "time": 167.872374,
          "velocity": 0.6299212598425197
        },
        {
          "duration": 28.159580100000028,
          "durationTicks": 5294,
          "midi": 54,
          "name": "F#3",
          "ticks": 31590,
          "time": 168.0319485,
          "velocity": 0.4409448818897638
        },
        {
          "duration": 11.563832099999985,
          "durationTicks": 2174,
          "midi": 36,
          "name": "C2",
          "ticks": 31620,
          "time": 168.19152300000002,
          "velocity": 1
        },
        {
          "duration": 28.1595801,
          "durationTicks": 5294,
          "midi": 54,
          "name": "F#3",
          "ticks": 31620,
          "time": 168.19152300000002,
          "velocity": 0.6299212598425197
        },
        {
          "duration": 28.1595801,
          "durationTicks": 5294,
          "midi": 54,
          "name": "F#3",
          "ticks": 31650,
          "time": 168.3510975,
          "velocity": 0.4409448818897638
        },
        {
          "duration": 11.563832100000013,
          "durationTicks": 2174,
          "midi": 36,
          "name": "C2",
          "ticks": 31680,
          "time": 168.510672,
          "velocity": 1
        },
        {
          "duration": 28.159580100000028,
          "durationTicks": 5294,
          "midi": 54,
          "name": "F#3",
          "ticks": 31680,
          "time": 168.510672,
          "velocity": 0.6299212598425197
        },
        {
          "duration": 28.1595801,
          "durationTicks": 5294,
          "midi": 54,
          "name": "F#3",
          "ticks": 31710,
          "time": 168.67024650000002,
          "velocity": 0.4409448818897638
        },
        {
          "duration": 28.1595801,
          "durationTicks": 5294,
          "midi": 54,
          "name": "F#3",
          "ticks": 31740,
          "time": 168.829821,
          "velocity": 0.6299212598425197
        },
        {
          "duration": 28.159580100000028,
          "durationTicks": 5294,
          "midi": 54,
          "name": "F#3",
          "ticks": 31770,
          "time": 168.9893955,
          "velocity": 0.4409448818897638
        },
        {
          "duration": 28.31915459999999,
          "durationTicks": 5324,
          "midi": 54,
          "name": "F#3",
          "ticks": 31800,
          "time": 169.14897000000002,
          "velocity": 0.6299212598425197
        },
        {
          "duration": 28.31915459999999,
          "durationTicks": 5324,
          "midi": 54,
          "name": "F#3",
          "ticks": 31830,
          "time": 169.3085445,
          "velocity": 0.4409448818897638
        },
        {
          "duration": 11.563832100000013,
          "durationTicks": 2174,
          "midi": 36,
          "name": "C2",
          "ticks": 31860,
          "time": 169.468119,
          "velocity": 1
        },
        {
          "duration": 28.31915460000002,
          "durationTicks": 5324,
          "midi": 54,
          "name": "F#3",
          "ticks": 31860,
          "time": 169.468119,
          "velocity": 0.6299212598425197
        },
        {
          "duration": 28.31915459999999,
          "durationTicks": 5324,
          "midi": 54,
          "name": "F#3",
          "ticks": 31890,
          "time": 169.62769350000002,
          "velocity": 0.4409448818897638
        },
        {
          "duration": 11.563832100000013,
          "durationTicks": 2174,
          "midi": 36,
          "name": "C2",
          "ticks": 31920,
          "time": 169.787268,
          "velocity": 1
        },
        {
          "duration": 28.31915459999999,
          "durationTicks": 5324,
          "midi": 54,
          "name": "F#3",
          "ticks": 31920,
          "time": 169.787268,
          "velocity": 0.6299212598425197
        },
        {
          "duration": 28.31915460000002,
          "durationTicks": 5324,
          "midi": 54,
          "name": "F#3",
          "ticks": 31950,
          "time": 169.9468425,
          "velocity": 0.4409448818897638
        },
        {
          "duration": 28.31915459999999,
          "durationTicks": 5324,
          "midi": 54,
          "name": "F#3",
          "ticks": 31980,
          "time": 170.10641700000002,
          "velocity": 0.6299212598425197
        },
        {
          "duration": 28.47872910000001,
          "durationTicks": 5354,
          "midi": 54,
          "name": "F#3",
          "ticks": 32010,
          "time": 170.2659915,
          "velocity": 0.4409448818897638
        },
        {
          "duration": 28.47872910000001,
          "durationTicks": 5354,
          "midi": 54,
          "name": "F#3",
          "ticks": 32040,
          "time": 170.425566,
          "velocity": 0.6299212598425197
        },
        {
          "duration": 28.47872909999998,
          "durationTicks": 5354,
          "midi": 54,
          "name": "F#3",
          "ticks": 32070,
          "time": 170.58514050000002,
          "velocity": 0.4409448818897638
        },
        {
          "duration": 11.563832100000013,
          "durationTicks": 2174,
          "midi": 36,
          "name": "C2",
          "ticks": 32100,
          "time": 170.744715,
          "velocity": 1
        },
        {
          "duration": 28.6383036,
          "durationTicks": 5384,
          "midi": 54,
          "name": "F#3",
          "ticks": 32100,
          "time": 170.744715,
          "velocity": 0.6299212598425197
        },
        {
          "duration": 28.6383036,
          "durationTicks": 5384,
          "midi": 54,
          "name": "F#3",
          "ticks": 32130,
          "time": 170.9042895,
          "velocity": 0.4409448818897638
        },
        {
          "duration": 11.563832100000013,
          "durationTicks": 2174,
          "midi": 36,
          "name": "C2",
          "ticks": 32160,
          "time": 171.063864,
          "velocity": 1
        },
        {
          "duration": 28.63830360000003,
          "durationTicks": 5384,
          "midi": 54,
          "name": "F#3",
          "ticks": 32160,
          "time": 171.063864,
          "velocity": 0.6299212598425197
        },
        {
          "duration": 28.79787809999999,
          "durationTicks": 5414,
          "midi": 54,
          "name": "F#3",
          "ticks": 32190,
          "time": 171.22343850000001,
          "velocity": 0.4409448818897638
        },
        {
          "duration": 28.79787810000002,
          "durationTicks": 5414,
          "midi": 54,
          "name": "F#3",
          "ticks": 32220,
          "time": 171.383013,
          "velocity": 0.6299212598425197
        },
        {
          "duration": 28.79787810000002,
          "durationTicks": 5414,
          "midi": 54,
          "name": "F#3",
          "ticks": 32250,
          "time": 171.5425875,
          "velocity": 0.4409448818897638
        },
        {
          "duration": 28.79787809999999,
          "durationTicks": 5414,
          "midi": 54,
          "name": "F#3",
          "ticks": 32280,
          "time": 171.70216200000002,
          "velocity": 0.6299212598425197
        },
        {
          "duration": 28.79787810000002,
          "durationTicks": 5414,
          "midi": 54,
          "name": "F#3",
          "ticks": 32310,
          "time": 171.8617365,
          "velocity": 0.4409448818897638
        },
        {
          "duration": 10.925534100000021,
          "durationTicks": 2054,
          "midi": 36,
          "name": "C2",
          "ticks": 32340,
          "time": 172.021311,
          "velocity": 1
        },
        {
          "duration": 28.79787810000002,
          "durationTicks": 5414,
          "midi": 54,
          "name": "F#3",
          "ticks": 32340,
          "time": 172.021311,
          "velocity": 0.6299212598425197
        },
        {
          "duration": 28.79787809999999,
          "durationTicks": 5414,
          "midi": 54,
          "name": "F#3",
          "ticks": 32370,
          "time": 172.18088550000002,
          "velocity": 0.4409448818897638
        },
        {
          "duration": 11.244683100000003,
          "durationTicks": 2114,
          "midi": 36,
          "name": "C2",
          "ticks": 32400,
          "time": 172.34046,
          "velocity": 1
        },
        {
          "duration": 28.95745260000001,
          "durationTicks": 5444,
          "midi": 54,
          "name": "F#3",
          "ticks": 32400,
          "time": 172.34046,
          "velocity": 0.6299212598425197
        },
        {
          "duration": 28.95745260000001,
          "durationTicks": 5444,
          "midi": 54,
          "name": "F#3",
          "ticks": 32430,
          "time": 172.5000345,
          "velocity": 0.4409448818897638
        },
        {
          "duration": 0.07446809999999005,
          "durationTicks": 14,
          "midi": 35,
          "name": "B1",
          "ticks": 32460,
          "time": 172.65960900000002,
          "velocity": 0.905511811023622
        },
        {
          "duration": 0.07446809999999005,
          "durationTicks": 14,
          "midi": 46,
          "name": "A#2",
          "ticks": 32460,
          "time": 172.65960900000002,
          "velocity": 0.905511811023622
        },
        {
          "duration": 11.244683100000003,
          "durationTicks": 2114,
          "midi": 36,
          "name": "C2",
          "ticks": 32460,
          "time": 172.65960900000002,
          "velocity": 0.8661417322834646
        },
        {
          "duration": 28.95745260000001,
          "durationTicks": 5444,
          "midi": 54,
          "name": "F#3",
          "ticks": 32460,
          "time": 172.65960900000002,
          "velocity": 0.6299212598425197
        },
        {
          "duration": 28.95745260000001,
          "durationTicks": 5444,
          "midi": 54,
          "name": "F#3",
          "ticks": 32490,
          "time": 172.8191835,
          "velocity": 0.4409448818897638
        },
        {
          "duration": 28.95745260000001,
          "durationTicks": 5444,
          "midi": 54,
          "name": "F#3",
          "ticks": 32520,
          "time": 172.978758,
          "velocity": 0.6299212598425197
        },
        {
          "duration": 28.95745260000001,
          "durationTicks": 5444,
          "midi": 54,
          "name": "F#3",
          "ticks": 32550,
          "time": 173.13833250000002,
          "velocity": 0.4409448818897638
        },
        {
          "duration": 11.563832100000013,
          "durationTicks": 2174,
          "midi": 36,
          "name": "C2",
          "ticks": 32580,
          "time": 173.297907,
          "velocity": 1
        },
        {
          "duration": 28.95745260000001,
          "durationTicks": 5444,
          "midi": 54,
          "name": "F#3",
          "ticks": 32580,
          "time": 173.297907,
          "velocity": 0.6299212598425197
        },
        {
          "duration": 29.1170271,
          "durationTicks": 5474,
          "midi": 54,
          "name": "F#3",
          "ticks": 32610,
          "time": 173.4574815,
          "velocity": 0.4409448818897638
        },
        {
          "duration": 11.563832099999985,
          "durationTicks": 2174,
          "midi": 36,
          "name": "C2",
          "ticks": 32640,
          "time": 173.61705600000002,
          "velocity": 1
        },
        {
          "duration": 29.1170271,
          "durationTicks": 5474,
          "midi": 54,
          "name": "F#3",
          "ticks": 32640,
          "time": 173.61705600000002,
          "velocity": 0.6299212598425197
        },
        {
          "duration": 29.1170271,
          "durationTicks": 5474,
          "midi": 54,
          "name": "F#3",
          "ticks": 32670,
          "time": 173.7766305,
          "velocity": 0.4409448818897638
        },
        {
          "duration": 29.1170271,
          "durationTicks": 5474,
          "midi": 54,
          "name": "F#3",
          "ticks": 32700,
          "time": 173.936205,
          "velocity": 0.6299212598425197
        },
        {
          "duration": 29.1170271,
          "durationTicks": 5474,
          "midi": 54,
          "name": "F#3",
          "ticks": 32730,
          "time": 174.09577950000002,
          "velocity": 0.4409448818897638
        },
        {
          "duration": 29.1170271,
          "durationTicks": 5474,
          "midi": 54,
          "name": "F#3",
          "ticks": 32760,
          "time": 174.255354,
          "velocity": 0.6299212598425197
        },
        {
          "duration": 29.1170271,
          "durationTicks": 5474,
          "midi": 54,
          "name": "F#3",
          "ticks": 32790,
          "time": 174.4149285,
          "velocity": 0.4409448818897638
        },
        {
          "duration": 11.563832099999985,
          "durationTicks": 2174,
          "midi": 36,
          "name": "C2",
          "ticks": 32820,
          "time": 174.57450300000002,
          "velocity": 1
        },
        {
          "duration": 29.276601599999992,
          "durationTicks": 5504,
          "midi": 54,
          "name": "F#3",
          "ticks": 32820,
          "time": 174.57450300000002,
          "velocity": 0.6299212598425197
        },
        {
          "duration": 29.276601599999992,
          "durationTicks": 5504,
          "midi": 54,
          "name": "F#3",
          "ticks": 32850,
          "time": 174.7340775,
          "velocity": 0.4409448818897638
        },
        {
          "duration": 11.563832100000013,
          "durationTicks": 2174,
          "midi": 36,
          "name": "C2",
          "ticks": 32880,
          "time": 174.893652,
          "velocity": 1
        },
        {
          "duration": 29.27660160000002,
          "durationTicks": 5504,
          "midi": 54,
          "name": "F#3",
          "ticks": 32880,
          "time": 174.893652,
          "velocity": 0.6299212598425197
        },
        {
          "duration": 29.276601599999992,
          "durationTicks": 5504,
          "midi": 54,
          "name": "F#3",
          "ticks": 32910,
          "time": 175.05322650000002,
          "velocity": 0.4409448818897638
        },
        {
          "duration": 29.276601599999992,
          "durationTicks": 5504,
          "midi": 54,
          "name": "F#3",
          "ticks": 32940,
          "time": 175.212801,
          "velocity": 0.6299212598425197
        },
        {
          "duration": 29.27660160000002,
          "durationTicks": 5504,
          "midi": 54,
          "name": "F#3",
          "ticks": 32970,
          "time": 175.3723755,
          "velocity": 0.4409448818897638
        },
        {
          "duration": 29.27660160000002,
          "durationTicks": 5504,
          "midi": 54,
          "name": "F#3",
          "ticks": 33000,
          "time": 175.53195,
          "velocity": 0.6299212598425197
        },
        {
          "duration": 29.43617610000001,
          "durationTicks": 5534,
          "midi": 54,
          "name": "F#3",
          "ticks": 33030,
          "time": 175.6915245,
          "velocity": 0.4409448818897638
        },
        {
          "duration": 11.563832100000013,
          "durationTicks": 2174,
          "midi": 36,
          "name": "C2",
          "ticks": 33060,
          "time": 175.851099,
          "velocity": 1
        },
        {
          "duration": 29.43617610000001,
          "durationTicks": 5534,
          "midi": 54,
          "name": "F#3",
          "ticks": 33060,
          "time": 175.851099,
          "velocity": 0.6299212598425197
        },
        {
          "duration": 29.43617610000001,
          "durationTicks": 5534,
          "midi": 54,
          "name": "F#3",
          "ticks": 33090,
          "time": 176.0106735,
          "velocity": 0.4409448818897638
        },
        {
          "duration": 11.563832100000013,
          "durationTicks": 2174,
          "midi": 36,
          "name": "C2",
          "ticks": 33120,
          "time": 176.17024800000002,
          "velocity": 1
        },
        {
          "duration": 29.43617610000001,
          "durationTicks": 5534,
          "midi": 54,
          "name": "F#3",
          "ticks": 33120,
          "time": 176.17024800000002,
          "velocity": 0.6299212598425197
        },
        {
          "duration": 29.43617610000001,
          "durationTicks": 5534,
          "midi": 54,
          "name": "F#3",
          "ticks": 33150,
          "time": 176.3298225,
          "velocity": 0.4409448818897638
        },
        {
          "duration": 29.43617610000001,
          "durationTicks": 5534,
          "midi": 54,
          "name": "F#3",
          "ticks": 33180,
          "time": 176.489397,
          "velocity": 0.6299212598425197
        },
        {
          "duration": 29.43617610000001,
          "durationTicks": 5534,
          "midi": 54,
          "name": "F#3",
          "ticks": 33210,
          "time": 176.64897150000002,
          "velocity": 0.4409448818897638
        },
        {
          "duration": 29.595750600000002,
          "durationTicks": 5564,
          "midi": 54,
          "name": "F#3",
          "ticks": 33240,
          "time": 176.808546,
          "velocity": 0.6299212598425197
        },
        {
          "duration": 29.59575060000003,
          "durationTicks": 5564,
          "midi": 54,
          "name": "F#3",
          "ticks": 33270,
          "time": 176.9681205,
          "velocity": 0.4409448818897638
        },
        {
          "duration": 10.925534099999993,
          "durationTicks": 2054,
          "midi": 36,
          "name": "C2",
          "ticks": 33300,
          "time": 177.12769500000002,
          "velocity": 1
        },
        {
          "duration": 29.595750600000002,
          "durationTicks": 5564,
          "midi": 54,
          "name": "F#3",
          "ticks": 33300,
          "time": 177.12769500000002,
          "velocity": 0.6299212598425197
        },
        {
          "duration": 29.595750600000002,
          "durationTicks": 5564,
          "midi": 54,
          "name": "F#3",
          "ticks": 33330,
          "time": 177.2872695,
          "velocity": 0.4409448818897638
        },
        {
          "duration": 11.244683100000003,
          "durationTicks": 2114,
          "midi": 36,
          "name": "C2",
          "ticks": 33360,
          "time": 177.446844,
          "velocity": 1
        },
        {
          "duration": 29.595750600000002,
          "durationTicks": 5564,
          "midi": 54,
          "name": "F#3",
          "ticks": 33360,
          "time": 177.446844,
          "velocity": 0.6299212598425197
        },
        {
          "duration": 29.595750600000002,
          "durationTicks": 5564,
          "midi": 54,
          "name": "F#3",
          "ticks": 33390,
          "time": 177.60641850000002,
          "velocity": 0.4409448818897638
        },
        {
          "duration": 0.07446810000001847,
          "durationTicks": 14,
          "midi": 35,
          "name": "B1",
          "ticks": 33420,
          "time": 177.765993,
          "velocity": 0.905511811023622
        },
        {
          "duration": 0.07446810000001847,
          "durationTicks": 14,
          "midi": 46,
          "name": "A#2",
          "ticks": 33420,
          "time": 177.765993,
          "velocity": 0.905511811023622
        },
        {
          "duration": 12.202130100000005,
          "durationTicks": 2294,
          "midi": 36,
          "name": "C2",
          "ticks": 33420,
          "time": 177.765993,
          "velocity": 0.8661417322834646
        },
        {
          "duration": 29.595750600000002,
          "durationTicks": 5564,
          "midi": 54,
          "name": "F#3",
          "ticks": 33420,
          "time": 177.765993,
          "velocity": 0.6299212598425197
        },
        {
          "duration": 29.75532510000002,
          "durationTicks": 5594,
          "midi": 54,
          "name": "F#3",
          "ticks": 33450,
          "time": 177.9255675,
          "velocity": 0.4409448818897638
        },
        {
          "duration": 29.755325099999993,
          "durationTicks": 5594,
          "midi": 54,
          "name": "F#3",
          "ticks": 33480,
          "time": 178.08514200000002,
          "velocity": 0.6299212598425197
        },
        {
          "duration": 29.755325099999993,
          "durationTicks": 5594,
          "midi": 54,
          "name": "F#3",
          "ticks": 33510,
          "time": 178.2447165,
          "velocity": 0.4409448818897638
        },
        {
          "duration": 11.882981100000023,
          "durationTicks": 2234,
          "midi": 36,
          "name": "C2",
          "ticks": 33540,
          "time": 178.404291,
          "velocity": 1
        },
        {
          "duration": 29.75532510000002,
          "durationTicks": 5594,
          "midi": 54,
          "name": "F#3",
          "ticks": 33540,
          "time": 178.404291,
          "velocity": 0.6299212598425197
        },
        {
          "duration": 29.755325099999993,
          "durationTicks": 5594,
          "midi": 54,
          "name": "F#3",
          "ticks": 33570,
          "time": 178.56386550000002,
          "velocity": 0.4409448818897638
        },
        {
          "duration": 12.521279100000015,
          "durationTicks": 2354,
          "midi": 36,
          "name": "C2",
          "ticks": 33600,
          "time": 178.72344,
          "velocity": 1
        },
        {
          "duration": 29.755325099999993,
          "durationTicks": 5594,
          "midi": 54,
          "name": "F#3",
          "ticks": 33600,
          "time": 178.72344,
          "velocity": 0.6299212598425197
        },
        {
          "duration": 29.75532510000002,
          "durationTicks": 5594,
          "midi": 54,
          "name": "F#3",
          "ticks": 33630,
          "time": 178.8830145,
          "velocity": 0.4409448818897638
        },
        {
          "duration": 29.914899599999984,
          "durationTicks": 5624,
          "midi": 54,
          "name": "F#3",
          "ticks": 33660,
          "time": 179.04258900000002,
          "velocity": 0.6299212598425197
        },
        {
          "duration": 29.914899600000012,
          "durationTicks": 5624,
          "midi": 54,
          "name": "F#3",
          "ticks": 33690,
          "time": 179.2021635,
          "velocity": 0.4409448818897638
        },
        {
          "duration": 29.914899600000012,
          "durationTicks": 5624,
          "midi": 54,
          "name": "F#3",
          "ticks": 33720,
          "time": 179.361738,
          "velocity": 0.6299212598425197
        },
        {
          "duration": 30.074474100000003,
          "durationTicks": 5654,
          "midi": 54,
          "name": "F#3",
          "ticks": 33750,
          "time": 179.52131250000002,
          "velocity": 0.4409448818897638
        },
        {
          "duration": 11.882981099999995,
          "durationTicks": 2234,
          "midi": 36,
          "name": "C2",
          "ticks": 33780,
          "time": 179.680887,
          "velocity": 1
        },
        {
          "duration": 30.074474100000003,
          "durationTicks": 5654,
          "midi": 54,
          "name": "F#3",
          "ticks": 33780,
          "time": 179.680887,
          "velocity": 0.6299212598425197
        },
        {
          "duration": 30.074474100000003,
          "durationTicks": 5654,
          "midi": 54,
          "name": "F#3",
          "ticks": 33810,
          "time": 179.8404615,
          "velocity": 0.4409448818897638
        },
        {
          "duration": 12.521279099999987,
          "durationTicks": 2354,
          "midi": 36,
          "name": "C2",
          "ticks": 33840,
          "time": 180.00003600000002,
          "velocity": 1
        },
        {
          "duration": 30.234048599999994,
          "durationTicks": 5684,
          "midi": 54,
          "name": "F#3",
          "ticks": 33840,
          "time": 180.00003600000002,
          "velocity": 0.6299212598425197
        },
        {
          "duration": 30.234048599999994,
          "durationTicks": 5684,
          "midi": 54,
          "name": "F#3",
          "ticks": 33870,
          "time": 180.1596105,
          "velocity": 0.4409448818897638
        },
        {
          "duration": 30.234048600000023,
          "durationTicks": 5684,
          "midi": 54,
          "name": "F#3",
          "ticks": 33900,
          "time": 180.319185,
          "velocity": 0.6299212598425197
        },
        {
          "duration": 30.234048600000023,
          "durationTicks": 5684,
          "midi": 54,
          "name": "F#3",
          "ticks": 33930,
          "time": 180.4787595,
          "velocity": 0.4409448818897638
        },
        {
          "duration": 30.234048599999994,
          "durationTicks": 5684,
          "midi": 54,
          "name": "F#3",
          "ticks": 33960,
          "time": 180.63833400000001,
          "velocity": 0.6299212598425197
        },
        {
          "duration": 30.234048600000023,
          "durationTicks": 5684,
          "midi": 54,
          "name": "F#3",
          "ticks": 33990,
          "time": 180.7979085,
          "velocity": 0.4409448818897638
        },
        {
          "duration": 11.882981100000023,
          "durationTicks": 2234,
          "midi": 36,
          "name": "C2",
          "ticks": 34020,
          "time": 180.957483,
          "velocity": 1
        },
        {
          "duration": 30.234048600000023,
          "durationTicks": 5684,
          "midi": 54,
          "name": "F#3",
          "ticks": 34020,
          "time": 180.957483,
          "velocity": 0.6299212598425197
        },
        {
          "duration": 30.393623100000013,
          "durationTicks": 5714,
          "midi": 54,
          "name": "F#3",
          "ticks": 34050,
          "time": 181.11705750000002,
          "velocity": 0.4409448818897638
        },
        {
          "duration": 11.882981099999995,
          "durationTicks": 2234,
          "midi": 36,
          "name": "C2",
          "ticks": 34080,
          "time": 181.276632,
          "velocity": 1
        },
        {
          "duration": 30.393623100000013,
          "durationTicks": 5714,
          "midi": 54,
          "name": "F#3",
          "ticks": 34080,
          "time": 181.276632,
          "velocity": 0.6299212598425197
        },
        {
          "duration": 30.393623100000013,
          "durationTicks": 5714,
          "midi": 54,
          "name": "F#3",
          "ticks": 34110,
          "time": 181.4362065,
          "velocity": 0.4409448818897638
        },
        {
          "duration": 30.393623099999985,
          "durationTicks": 5714,
          "midi": 54,
          "name": "F#3",
          "ticks": 34140,
          "time": 181.59578100000002,
          "velocity": 0.6299212598425197
        },
        {
          "duration": 30.393623100000013,
          "durationTicks": 5714,
          "midi": 54,
          "name": "F#3",
          "ticks": 34170,
          "time": 181.7553555,
          "velocity": 0.4409448818897638
        },
        {
          "duration": 30.393623100000013,
          "durationTicks": 5714,
          "midi": 54,
          "name": "F#3",
          "ticks": 34200,
          "time": 181.91493,
          "velocity": 0.6299212598425197
        },
        {
          "duration": 30.393623099999985,
          "durationTicks": 5714,
          "midi": 54,
          "name": "F#3",
          "ticks": 34230,
          "time": 182.07450450000002,
          "velocity": 0.4409448818897638
        },
        {
          "duration": 11.563832100000013,
          "durationTicks": 2174,
          "midi": 36,
          "name": "C2",
          "ticks": 34260,
          "time": 182.234079,
          "velocity": 1
        },
        {
          "duration": 30.553197600000004,
          "durationTicks": 5744,
          "midi": 54,
          "name": "F#3",
          "ticks": 34260,
          "time": 182.234079,
          "velocity": 0.6299212598425197
        },
        {
          "duration": 30.553197600000004,
          "durationTicks": 5744,
          "midi": 54,
          "name": "F#3",
          "ticks": 34290,
          "time": 182.3936535,
          "velocity": 0.4409448818897638
        },
        {
          "duration": 11.563832099999985,
          "durationTicks": 2174,
          "midi": 36,
          "name": "C2",
          "ticks": 34320,
          "time": 182.55322800000002,
          "velocity": 1
        },
        {
          "duration": 30.553197600000004,
          "durationTicks": 5744,
          "midi": 54,
          "name": "F#3",
          "ticks": 34320,
          "time": 182.55322800000002,
          "velocity": 0.6299212598425197
        },
        {
          "duration": 30.553197600000004,
          "durationTicks": 5744,
          "midi": 54,
          "name": "F#3",
          "ticks": 34350,
          "time": 182.7128025,
          "velocity": 0.4409448818897638
        },
        {
          "duration": 0.07446810000001847,
          "durationTicks": 14,
          "midi": 35,
          "name": "B1",
          "ticks": 34380,
          "time": 182.872377,
          "velocity": 0.905511811023622
        },
        {
          "duration": 0.07446810000001847,
          "durationTicks": 14,
          "midi": 46,
          "name": "A#2",
          "ticks": 34380,
          "time": 182.872377,
          "velocity": 0.905511811023622
        },
        {
          "duration": 12.202130100000005,
          "durationTicks": 2294,
          "midi": 36,
          "name": "C2",
          "ticks": 34380,
          "time": 182.872377,
          "velocity": 0.8661417322834646
        },
        {
          "duration": 30.553197600000004,
          "durationTicks": 5744,
          "midi": 54,
          "name": "F#3",
          "ticks": 34380,
          "time": 182.872377,
          "velocity": 0.6299212598425197
        },
        {
          "duration": 30.553197600000004,
          "durationTicks": 5744,
          "midi": 54,
          "name": "F#3",
          "ticks": 34410,
          "time": 183.03195150000002,
          "velocity": 0.4409448818897638
        },
        {
          "duration": 30.553197600000004,
          "durationTicks": 5744,
          "midi": 54,
          "name": "F#3",
          "ticks": 34440,
          "time": 183.191526,
          "velocity": 0.6299212598425197
        },
        {
          "duration": 30.712772100000024,
          "durationTicks": 5774,
          "midi": 54,
          "name": "F#3",
          "ticks": 34470,
          "time": 183.3511005,
          "velocity": 0.4409448818897638
        },
        {
          "duration": 11.882981099999995,
          "durationTicks": 2234,
          "midi": 36,
          "name": "C2",
          "ticks": 34500,
          "time": 183.51067500000002,
          "velocity": 1
        },
        {
          "duration": 30.712772099999995,
          "durationTicks": 5774,
          "midi": 54,
          "name": "F#3",
          "ticks": 34500,
          "time": 183.51067500000002,
          "velocity": 0.6299212598425197
        },
        {
          "duration": 30.712772099999995,
          "durationTicks": 5774,
          "midi": 54,
          "name": "F#3",
          "ticks": 34530,
          "time": 183.6702495,
          "velocity": 0.4409448818897638
        },
        {
          "duration": 12.521279100000015,
          "durationTicks": 2354,
          "midi": 36,
          "name": "C2",
          "ticks": 34560,
          "time": 183.829824,
          "velocity": 1
        },
        {
          "duration": 30.712772100000024,
          "durationTicks": 5774,
          "midi": 54,
          "name": "F#3",
          "ticks": 34560,
          "time": 183.829824,
          "velocity": 0.6299212598425197
        },
        {
          "duration": 30.712772099999995,
          "durationTicks": 5774,
          "midi": 54,
          "name": "F#3",
          "ticks": 34590,
          "time": 183.98939850000002,
          "velocity": 0.4409448818897638
        },
        {
          "duration": 30.712772099999995,
          "durationTicks": 5774,
          "midi": 54,
          "name": "F#3",
          "ticks": 34620,
          "time": 184.148973,
          "velocity": 0.6299212598425197
        },
        {
          "duration": 30.712772100000024,
          "durationTicks": 5774,
          "midi": 54,
          "name": "F#3",
          "ticks": 34650,
          "time": 184.3085475,
          "velocity": 0.4409448818897638
        },
        {
          "duration": 30.872346599999986,
          "durationTicks": 5804,
          "midi": 54,
          "name": "F#3",
          "ticks": 34680,
          "time": 184.46812200000002,
          "velocity": 0.6299212598425197
        },
        {
          "duration": 30.872346600000014,
          "durationTicks": 5804,
          "midi": 54,
          "name": "F#3",
          "ticks": 34710,
          "time": 184.6276965,
          "velocity": 0.4409448818897638
        },
        {
          "duration": 11.882981100000023,
          "durationTicks": 2234,
          "midi": 36,
          "name": "C2",
          "ticks": 34740,
          "time": 184.787271,
          "velocity": 1
        },
        {
          "duration": 30.872346600000014,
          "durationTicks": 5804,
          "midi": 54,
          "name": "F#3",
          "ticks": 34740,
          "time": 184.787271,
          "velocity": 0.6299212598425197
        },
        {
          "duration": 30.872346599999986,
          "durationTicks": 5804,
          "midi": 54,
          "name": "F#3",
          "ticks": 34770,
          "time": 184.94684550000002,
          "velocity": 0.4409448818897638
        },
        {
          "duration": 12.521279099999987,
          "durationTicks": 2354,
          "midi": 36,
          "name": "C2",
          "ticks": 34800,
          "time": 185.10642,
          "velocity": 1
        },
        {
          "duration": 30.872346600000014,
          "durationTicks": 5804,
          "midi": 54,
          "name": "F#3",
          "ticks": 34800,
          "time": 185.10642,
          "velocity": 0.6299212598425197
        },
        {
          "duration": 30.872346600000014,
          "durationTicks": 5804,
          "midi": 54,
          "name": "F#3",
          "ticks": 34830,
          "time": 185.2659945,
          "velocity": 0.4409448818897638
        },
        {
          "duration": 30.872346600000014,
          "durationTicks": 5804,
          "midi": 54,
          "name": "F#3",
          "ticks": 34860,
          "time": 185.425569,
          "velocity": 0.6299212598425197
        },
        {
          "duration": 31.031921100000005,
          "durationTicks": 5834,
          "midi": 54,
          "name": "F#3",
          "ticks": 34890,
          "time": 185.58514350000002,
          "velocity": 0.4409448818897638
        },
        {
          "duration": 31.031921100000005,
          "durationTicks": 5834,
          "midi": 54,
          "name": "F#3",
          "ticks": 34920,
          "time": 185.744718,
          "velocity": 0.6299212598425197
        },
        {
          "duration": 31.031921100000005,
          "durationTicks": 5834,
          "midi": 54,
          "name": "F#3",
          "ticks": 34950,
          "time": 185.9042925,
          "velocity": 0.4409448818897638
        },
        {
          "duration": 11.882981099999995,
          "durationTicks": 2234,
          "midi": 36,
          "name": "C2",
          "ticks": 34980,
          "time": 186.06386700000002,
          "velocity": 1
        },
        {
          "duration": 31.031921100000005,
          "durationTicks": 5834,
          "midi": 54,
          "name": "F#3",
          "ticks": 34980,
          "time": 186.06386700000002,
          "velocity": 0.6299212598425197
        },
        {
          "duration": 31.031921100000005,
          "durationTicks": 5834,
          "midi": 54,
          "name": "F#3",
          "ticks": 35010,
          "time": 186.2234415,
          "velocity": 0.4409448818897638
        },
        {
          "duration": 11.882981100000023,
          "durationTicks": 2234,
          "midi": 36,
          "name": "C2",
          "ticks": 35040,
          "time": 186.383016,
          "velocity": 1
        },
        {
          "duration": 31.031921100000005,
          "durationTicks": 5834,
          "midi": 54,
          "name": "F#3",
          "ticks": 35040,
          "time": 186.383016,
          "velocity": 0.6299212598425197
        },
        {
          "duration": 31.031921100000005,
          "durationTicks": 5834,
          "midi": 54,
          "name": "F#3",
          "ticks": 35070,
          "time": 186.54259050000002,
          "velocity": 0.4409448818897638
        },
        {
          "duration": 31.191495599999996,
          "durationTicks": 5864,
          "midi": 54,
          "name": "F#3",
          "ticks": 35100,
          "time": 186.702165,
          "velocity": 0.6299212598425197
        },
        {
          "duration": 31.191495600000025,
          "durationTicks": 5864,
          "midi": 54,
          "name": "F#3",
          "ticks": 35130,
          "time": 186.8617395,
          "velocity": 0.4409448818897638
        },
        {
          "duration": 31.191495599999996,
          "durationTicks": 5864,
          "midi": 54,
          "name": "F#3",
          "ticks": 35160,
          "time": 187.02131400000002,
          "velocity": 0.6299212598425197
        },
        {
          "duration": 31.191495599999996,
          "durationTicks": 5864,
          "midi": 54,
          "name": "F#3",
          "ticks": 35190,
          "time": 187.1808885,
          "velocity": 0.4409448818897638
        },
        {
          "duration": 11.563832100000013,
          "durationTicks": 2174,
          "midi": 36,
          "name": "C2",
          "ticks": 35220,
          "time": 187.340463,
          "velocity": 1
        },
        {
          "duration": 31.191495600000025,
          "durationTicks": 5864,
          "midi": 54,
          "name": "F#3",
          "ticks": 35220,
          "time": 187.340463,
          "velocity": 0.6299212598425197
        },
        {
          "duration": 31.191495599999996,
          "durationTicks": 5864,
          "midi": 54,
          "name": "F#3",
          "ticks": 35250,
          "time": 187.50003750000002,
          "velocity": 0.4409448818897638
        },
        {
          "duration": 12.521279100000015,
          "durationTicks": 2354,
          "midi": 36,
          "name": "C2",
          "ticks": 35280,
          "time": 187.659612,
          "velocity": 1
        },
        {
          "duration": 31.191495599999996,
          "durationTicks": 5864,
          "midi": 54,
          "name": "F#3",
          "ticks": 35280,
          "time": 187.659612,
          "velocity": 0.6299212598425197
        },
        {
          "duration": 31.351070100000015,
          "durationTicks": 5894,
          "midi": 54,
          "name": "F#3",
          "ticks": 35310,
          "time": 187.8191865,
          "velocity": 0.4409448818897638
        },
        {
          "duration": 0.07446809999999005,
          "durationTicks": 14,
          "midi": 35,
          "name": "B1",
          "ticks": 35340,
          "time": 187.97876100000002,
          "velocity": 0.905511811023622
        },
        {
          "duration": 0.07446809999999005,
          "durationTicks": 14,
          "midi": 46,
          "name": "A#2",
          "ticks": 35340,
          "time": 187.97876100000002,
          "velocity": 0.905511811023622
        },
        {
          "duration": 12.521279099999987,
          "durationTicks": 2354,
          "midi": 36,
          "name": "C2",
          "ticks": 35340,
          "time": 187.97876100000002,
          "velocity": 0.8661417322834646
        },
        {
          "duration": 31.351070099999987,
          "durationTicks": 5894,
          "midi": 54,
          "name": "F#3",
          "ticks": 35340,
          "time": 187.97876100000002,
          "velocity": 0.6299212598425197
        },
        {
          "duration": 31.351070100000015,
          "durationTicks": 5894,
          "midi": 54,
          "name": "F#3",
          "ticks": 35370,
          "time": 188.1383355,
          "velocity": 0.4409448818897638
        },
        {
          "duration": 31.510644600000006,
          "durationTicks": 5924,
          "midi": 54,
          "name": "F#3",
          "ticks": 35400,
          "time": 188.29791,
          "velocity": 0.6299212598425197
        },
        {
          "duration": 31.510644600000006,
          "durationTicks": 5924,
          "midi": 54,
          "name": "F#3",
          "ticks": 35430,
          "time": 188.45748450000002,
          "velocity": 0.4409448818897638
        },
        {
          "duration": 12.840428099999997,
          "durationTicks": 2414,
          "midi": 36,
          "name": "C2",
          "ticks": 35460,
          "time": 188.617059,
          "velocity": 1
        },
        {
          "duration": 31.510644600000006,
          "durationTicks": 5924,
          "midi": 54,
          "name": "F#3",
          "ticks": 35460,
          "time": 188.617059,
          "velocity": 0.6299212598425197
        },
        {
          "duration": 31.670219100000025,
          "durationTicks": 5954,
          "midi": 54,
          "name": "F#3",
          "ticks": 35490,
          "time": 188.7766335,
          "velocity": 0.4409448818897638
        },
        {
          "duration": 12.840428099999997,
          "durationTicks": 2414,
          "midi": 36,
          "name": "C2",
          "ticks": 35520,
          "time": 188.93620800000002,
          "velocity": 1
        },
        {
          "duration": 31.670219099999997,
          "durationTicks": 5954,
          "midi": 54,
          "name": "F#3",
          "ticks": 35520,
          "time": 188.93620800000002,
          "velocity": 0.6299212598425197
        },
        {
          "duration": 31.670219099999997,
          "durationTicks": 5954,
          "midi": 54,
          "name": "F#3",
          "ticks": 35550,
          "time": 189.0957825,
          "velocity": 0.4409448818897638
        },
        {
          "duration": 31.670219100000025,
          "durationTicks": 5954,
          "midi": 54,
          "name": "F#3",
          "ticks": 35580,
          "time": 189.255357,
          "velocity": 0.6299212598425197
        },
        {
          "duration": 31.670219099999997,
          "durationTicks": 5954,
          "midi": 54,
          "name": "F#3",
          "ticks": 35610,
          "time": 189.41493150000002,
          "velocity": 0.4409448818897638
        },
        {
          "duration": 31.670219099999997,
          "durationTicks": 5954,
          "midi": 54,
          "name": "F#3",
          "ticks": 35640,
          "time": 189.574506,
          "velocity": 0.6299212598425197
        },
        {
          "duration": 31.670219100000025,
          "durationTicks": 5954,
          "midi": 54,
          "name": "F#3",
          "ticks": 35670,
          "time": 189.7340805,
          "velocity": 0.4409448818897638
        },
        {
          "duration": 12.840428100000025,
          "durationTicks": 2414,
          "midi": 36,
          "name": "C2",
          "ticks": 35700,
          "time": 189.893655,
          "velocity": 1
        },
        {
          "duration": 31.829793600000016,
          "durationTicks": 5984,
          "midi": 54,
          "name": "F#3",
          "ticks": 35700,
          "time": 189.893655,
          "velocity": 0.6299212598425197
        },
        {
          "duration": 31.829793599999988,
          "durationTicks": 5984,
          "midi": 54,
          "name": "F#3",
          "ticks": 35730,
          "time": 190.05322950000001,
          "velocity": 0.4409448818897638
        },
        {
          "duration": 12.840428099999997,
          "durationTicks": 2414,
          "midi": 36,
          "name": "C2",
          "ticks": 35760,
          "time": 190.212804,
          "velocity": 1
        },
        {
          "duration": 31.829793600000016,
          "durationTicks": 5984,
          "midi": 54,
          "name": "F#3",
          "ticks": 35760,
          "time": 190.212804,
          "velocity": 0.6299212598425197
        },
        {
          "duration": 31.829793600000016,
          "durationTicks": 5984,
          "midi": 54,
          "name": "F#3",
          "ticks": 35790,
          "time": 190.3723785,
          "velocity": 0.4409448818897638
        },
        {
          "duration": 31.829793599999988,
          "durationTicks": 5984,
          "midi": 54,
          "name": "F#3",
          "ticks": 35820,
          "time": 190.53195300000002,
          "velocity": 0.6299212598425197
        },
        {
          "duration": 31.829793600000016,
          "durationTicks": 5984,
          "midi": 54,
          "name": "F#3",
          "ticks": 35850,
          "time": 190.6915275,
          "velocity": 0.4409448818897638
        },
        {
          "duration": 31.829793600000016,
          "durationTicks": 5984,
          "midi": 54,
          "name": "F#3",
          "ticks": 35880,
          "time": 190.851102,
          "velocity": 0.6299212598425197
        },
        {
          "duration": 31.989368100000007,
          "durationTicks": 6014,
          "midi": 54,
          "name": "F#3",
          "ticks": 35910,
          "time": 191.01067650000002,
          "velocity": 0.4409448818897638
        },
        {
          "duration": 12.202130100000005,
          "durationTicks": 2294,
          "midi": 36,
          "name": "C2",
          "ticks": 35940,
          "time": 191.170251,
          "velocity": 1
        },
        {
          "duration": 31.989368100000007,
          "durationTicks": 6014,
          "midi": 54,
          "name": "F#3",
          "ticks": 35940,
          "time": 191.170251,
          "velocity": 0.6299212598425197
        },
        {
          "duration": 31.989368100000007,
          "durationTicks": 6014,
          "midi": 54,
          "name": "F#3",
          "ticks": 35970,
          "time": 191.3298255,
          "velocity": 0.4409448818897638
        },
        {
          "duration": 12.521279099999987,
          "durationTicks": 2354,
          "midi": 36,
          "name": "C2",
          "ticks": 36000,
          "time": 191.48940000000002,
          "velocity": 1
        },
        {
          "duration": 31.989368100000007,
          "durationTicks": 6014,
          "midi": 54,
          "name": "F#3",
          "ticks": 36000,
          "time": 191.48940000000002,
          "velocity": 0.6299212598425197
        },
        {
          "duration": 31.989368100000007,
          "durationTicks": 6014,
          "midi": 54,
          "name": "F#3",
          "ticks": 36030,
          "time": 191.6489745,
          "velocity": 0.4409448818897638
        },
        {
          "duration": 31.989368100000007,
          "durationTicks": 6014,
          "midi": 54,
          "name": "F#3",
          "ticks": 36060,
          "time": 191.808549,
          "velocity": 0.6299212598425197
        },
        {
          "duration": 31.989368100000007,
          "durationTicks": 6014,
          "midi": 54,
          "name": "F#3",
          "ticks": 36090,
          "time": 191.96812350000002,
          "velocity": 0.4409448818897638
        },
        {
          "duration": 32.1489426,
          "durationTicks": 6044,
          "midi": 54,
          "name": "F#3",
          "ticks": 36120,
          "time": 192.127698,
          "velocity": 0.6299212598425197
        },
        {
          "duration": 32.14894260000003,
          "durationTicks": 6044,
          "midi": 54,
          "name": "F#3",
          "ticks": 36150,
          "time": 192.2872725,
          "velocity": 0.4409448818897638
        },
        {
          "duration": 11.882981099999995,
          "durationTicks": 2234,
          "midi": 36,
          "name": "C2",
          "ticks": 36180,
          "time": 192.44684700000002,
          "velocity": 1
        },
        {
          "duration": 32.1489426,
          "durationTicks": 6044,
          "midi": 54,
          "name": "F#3",
          "ticks": 36180,
          "time": 192.44684700000002,
          "velocity": 0.6299212598425197
        },
        {
          "duration": 32.30851710000002,
          "durationTicks": 6074,
          "midi": 54,
          "name": "F#3",
          "ticks": 36210,
          "time": 192.6064215,
          "velocity": 0.4409448818897638
        },
        {
          "duration": 12.521279100000015,
          "durationTicks": 2354,
          "midi": 36,
          "name": "C2",
          "ticks": 36240,
          "time": 192.765996,
          "velocity": 1
        },
        {
          "duration": 32.30851710000002,
          "durationTicks": 6074,
          "midi": 54,
          "name": "F#3",
          "ticks": 36240,
          "time": 192.765996,
          "velocity": 0.6299212598425197
        },
        {
          "duration": 32.30851709999999,
          "durationTicks": 6074,
          "midi": 54,
          "name": "F#3",
          "ticks": 36270,
          "time": 192.92557050000002,
          "velocity": 0.4409448818897638
        },
        {
          "duration": 0.07446809999999005,
          "durationTicks": 14,
          "midi": 35,
          "name": "B1",
          "ticks": 36300,
          "time": 193.085145,
          "velocity": 0.905511811023622
        },
        {
          "duration": 0.07446809999999005,
          "durationTicks": 14,
          "midi": 46,
          "name": "A#2",
          "ticks": 36300,
          "time": 193.085145,
          "velocity": 0.905511811023622
        },
        {
          "duration": 12.521279100000015,
          "durationTicks": 2354,
          "midi": 36,
          "name": "C2",
          "ticks": 36300,
          "time": 193.085145,
          "velocity": 0.8661417322834646
        },
        {
          "duration": 32.46809160000001,
          "durationTicks": 6104,
          "midi": 54,
          "name": "F#3",
          "ticks": 36300,
          "time": 193.085145,
          "velocity": 0.6299212598425197
        },
        {
          "duration": 32.46809160000001,
          "durationTicks": 6104,
          "midi": 54,
          "name": "F#3",
          "ticks": 36330,
          "time": 193.2447195,
          "velocity": 0.4409448818897638
        },
        {
          "duration": 32.46809160000001,
          "durationTicks": 6104,
          "midi": 54,
          "name": "F#3",
          "ticks": 36360,
          "time": 193.40429400000002,
          "velocity": 0.6299212598425197
        },
        {
          "duration": 32.46809160000001,
          "durationTicks": 6104,
          "midi": 54,
          "name": "F#3",
          "ticks": 36390,
          "time": 193.5638685,
          "velocity": 0.4409448818897638
        },
        {
          "duration": 12.840428100000025,
          "durationTicks": 2414,
          "midi": 36,
          "name": "C2",
          "ticks": 36420,
          "time": 193.723443,
          "velocity": 1
        },
        {
          "duration": 32.46809160000001,
          "durationTicks": 6104,
          "midi": 54,
          "name": "F#3",
          "ticks": 36420,
          "time": 193.723443,
          "velocity": 0.6299212598425197
        },
        {
          "duration": 32.46809159999998,
          "durationTicks": 6104,
          "midi": 54,
          "name": "F#3",
          "ticks": 36450,
          "time": 193.88301750000002,
          "velocity": 0.4409448818897638
        },
        {
          "duration": 12.840428099999997,
          "durationTicks": 2414,
          "midi": 36,
          "name": "C2",
          "ticks": 36480,
          "time": 194.042592,
          "velocity": 1
        },
        {
          "duration": 32.46809160000001,
          "durationTicks": 6104,
          "midi": 54,
          "name": "F#3",
          "ticks": 36480,
          "time": 194.042592,
          "velocity": 0.6299212598425197
        },
        {
          "duration": 32.6276661,
          "durationTicks": 6134,
          "midi": 54,
          "name": "F#3",
          "ticks": 36510,
          "time": 194.2021665,
          "velocity": 0.4409448818897638
        },
        {
          "duration": 32.6276661,
          "durationTicks": 6134,
          "midi": 54,
          "name": "F#3",
          "ticks": 36540,
          "time": 194.36174100000002,
          "velocity": 0.6299212598425197
        },
        {
          "duration": 32.6276661,
          "durationTicks": 6134,
          "midi": 54,
          "name": "F#3",
          "ticks": 36570,
          "time": 194.52131550000001,
          "velocity": 0.4409448818897638
        },
        {
          "duration": 32.6276661,
          "durationTicks": 6134,
          "midi": 54,
          "name": "F#3",
          "ticks": 36600,
          "time": 194.68089,
          "velocity": 0.6299212598425197
        },
        {
          "duration": 32.62766610000003,
          "durationTicks": 6134,
          "midi": 54,
          "name": "F#3",
          "ticks": 36630,
          "time": 194.8404645,
          "velocity": 0.4409448818897638
        },
        {
          "duration": 12.840428099999997,
          "durationTicks": 2414,
          "midi": 36,
          "name": "C2",
          "ticks": 36660,
          "time": 195.00003900000002,
          "velocity": 1
        },
        {
          "duration": 32.6276661,
          "durationTicks": 6134,
          "midi": 54,
          "name": "F#3",
          "ticks": 36660,
          "time": 195.00003900000002,
          "velocity": 0.6299212598425197
        },
        {
          "duration": 32.6276661,
          "durationTicks": 6134,
          "midi": 54,
          "name": "F#3",
          "ticks": 36690,
          "time": 195.1596135,
          "velocity": 0.4409448818897638
        },
        {
          "duration": 12.840428100000025,
          "durationTicks": 2414,
          "midi": 36,
          "name": "C2",
          "ticks": 36720,
          "time": 195.319188,
          "velocity": 1
        },
        {
          "duration": 32.78724060000002,
          "durationTicks": 6164,
          "midi": 54,
          "name": "F#3",
          "ticks": 36720,
          "time": 195.319188,
          "velocity": 0.6299212598425197
        },
        {
          "duration": 32.78724059999999,
          "durationTicks": 6164,
          "midi": 54,
          "name": "F#3",
          "ticks": 36750,
          "time": 195.47876250000002,
          "velocity": 0.4409448818897638
        },
        {
          "duration": 32.78724060000002,
          "durationTicks": 6164,
          "midi": 54,
          "name": "F#3",
          "ticks": 36780,
          "time": 195.638337,
          "velocity": 0.6299212598425197
        },
        {
          "duration": 32.78724060000002,
          "durationTicks": 6164,
          "midi": 54,
          "name": "F#3",
          "ticks": 36810,
          "time": 195.7979115,
          "velocity": 0.4409448818897638
        },
        {
          "duration": 32.78724059999999,
          "durationTicks": 6164,
          "midi": 54,
          "name": "F#3",
          "ticks": 36840,
          "time": 195.95748600000002,
          "velocity": 0.6299212598425197
        },
        {
          "duration": 32.78724060000002,
          "durationTicks": 6164,
          "midi": 54,
          "name": "F#3",
          "ticks": 36870,
          "time": 196.1170605,
          "velocity": 0.4409448818897638
        },
        {
          "duration": 12.202130100000005,
          "durationTicks": 2294,
          "midi": 36,
          "name": "C2",
          "ticks": 36900,
          "time": 196.276635,
          "velocity": 1
        },
        {
          "duration": 32.78724060000002,
          "durationTicks": 6164,
          "midi": 54,
          "name": "F#3",
          "ticks": 36900,
          "time": 196.276635,
          "velocity": 0.6299212598425197
        },
        {
          "duration": 32.94681510000001,
          "durationTicks": 6194,
          "midi": 54,
          "name": "F#3",
          "ticks": 36930,
          "time": 196.43620950000002,
          "velocity": 0.4409448818897638
        },
        {
          "duration": 12.521279100000015,
          "durationTicks": 2354,
          "midi": 36,
          "name": "C2",
          "ticks": 36960,
          "time": 196.595784,
          "velocity": 1
        },
        {
          "duration": 32.94681510000001,
          "durationTicks": 6194,
          "midi": 54,
          "name": "F#3",
          "ticks": 36960,
          "time": 196.595784,
          "velocity": 0.6299212598425197
        },
        {
          "duration": 32.94681510000001,
          "durationTicks": 6194,
          "midi": 54,
          "name": "F#3",
          "ticks": 36990,
          "time": 196.7553585,
          "velocity": 0.4409448818897638
        },
        {
          "duration": 33.1063896,
          "durationTicks": 6224,
          "midi": 54,
          "name": "F#3",
          "ticks": 37020,
          "time": 196.91493300000002,
          "velocity": 0.6299212598425197
        },
        {
          "duration": 33.1063896,
          "durationTicks": 6224,
          "midi": 54,
          "name": "F#3",
          "ticks": 37050,
          "time": 197.0745075,
          "velocity": 0.4409448818897638
        },
        {
          "duration": 33.10638960000003,
          "durationTicks": 6224,
          "midi": 54,
          "name": "F#3",
          "ticks": 37080,
          "time": 197.234082,
          "velocity": 0.6299212598425197
        },
        {
          "duration": 33.26596409999999,
          "durationTicks": 6254,
          "midi": 54,
          "name": "F#3",
          "ticks": 37110,
          "time": 197.39365650000002,
          "velocity": 0.4409448818897638
        },
        {
          "duration": 12.840428099999997,
          "durationTicks": 2414,
          "midi": 36,
          "name": "C2",
          "ticks": 37140,
          "time": 197.553231,
          "velocity": 1
        },
        {
          "duration": 33.26596410000002,
          "durationTicks": 6254,
          "midi": 54,
          "name": "F#3",
          "ticks": 37140,
          "time": 197.553231,
          "velocity": 0.6299212598425197
        },
        {
          "duration": 33.26596410000002,
          "durationTicks": 6254,
          "midi": 54,
          "name": "F#3",
          "ticks": 37170,
          "time": 197.7128055,
          "velocity": 0.4409448818897638
        },
        {
          "duration": 12.840428099999997,
          "durationTicks": 2414,
          "midi": 36,
          "name": "C2",
          "ticks": 37200,
          "time": 197.87238000000002,
          "velocity": 1
        },
        {
          "duration": 33.26596409999999,
          "durationTicks": 6254,
          "midi": 54,
          "name": "F#3",
          "ticks": 37200,
          "time": 197.87238000000002,
          "velocity": 0.6299212598425197
        },
        {
          "duration": 33.26596409999999,
          "durationTicks": 6254,
          "midi": 54,
          "name": "F#3",
          "ticks": 37230,
          "time": 198.0319545,
          "velocity": 0.4409448818897638
        },
        {
          "duration": 0.07446810000001847,
          "durationTicks": 14,
          "midi": 35,
          "name": "B1",
          "ticks": 37260,
          "time": 198.191529,
          "velocity": 0.905511811023622
        },
        {
          "duration": 0.07446810000001847,
          "durationTicks": 14,
          "midi": 46,
          "name": "A#2",
          "ticks": 37260,
          "time": 198.191529,
          "velocity": 0.905511811023622
        },
        {
          "duration": 13.478726100000017,
          "durationTicks": 2534,
          "midi": 36,
          "name": "C2",
          "ticks": 37260,
          "time": 198.191529,
          "velocity": 0.8661417322834646
        },
        {
          "duration": 33.26596410000002,
          "durationTicks": 6254,
          "midi": 54,
          "name": "F#3",
          "ticks": 37260,
          "time": 198.191529,
          "velocity": 0.6299212598425197
        },
        {
          "duration": 33.26596409999999,
          "durationTicks": 6254,
          "midi": 54,
          "name": "F#3",
          "ticks": 37290,
          "time": 198.35110350000002,
          "velocity": 0.4409448818897638
        },
        {
          "duration": 33.42553860000001,
          "durationTicks": 6284,
          "midi": 54,
          "name": "F#3",
          "ticks": 37320,
          "time": 198.510678,
          "velocity": 0.6299212598425197
        },
        {
          "duration": 33.42553860000001,
          "durationTicks": 6284,
          "midi": 54,
          "name": "F#3",
          "ticks": 37350,
          "time": 198.6702525,
          "velocity": 0.4409448818897638
        },
        {
          "duration": 13.159577099999979,
          "durationTicks": 2474,
          "midi": 36,
          "name": "C2",
          "ticks": 37380,
          "time": 198.82982700000002,
          "velocity": 1
        },
        {
          "duration": 33.42553859999998,
          "durationTicks": 6284,
          "midi": 54,
          "name": "F#3",
          "ticks": 37380,
          "time": 198.82982700000002,
          "velocity": 0.6299212598425197
        },
        {
          "duration": 33.42553860000001,
          "durationTicks": 6284,
          "midi": 54,
          "name": "F#3",
          "ticks": 37410,
          "time": 198.9894015,
          "velocity": 0.4409448818897638
        },
        {
          "duration": 13.797875099999999,
          "durationTicks": 2594,
          "midi": 36,
          "name": "C2",
          "ticks": 37440,
          "time": 199.148976,
          "velocity": 1
        },
        {
          "duration": 33.42553860000001,
          "durationTicks": 6284,
          "midi": 54,
          "name": "F#3",
          "ticks": 37440,
          "time": 199.148976,
          "velocity": 0.6299212598425197
        },
        {
          "duration": 33.42553859999998,
          "durationTicks": 6284,
          "midi": 54,
          "name": "F#3",
          "ticks": 37470,
          "time": 199.30855050000002,
          "velocity": 0.4409448818897638
        },
        {
          "duration": 33.42553860000001,
          "durationTicks": 6284,
          "midi": 54,
          "name": "F#3",
          "ticks": 37500,
          "time": 199.46812500000001,
          "velocity": 0.6299212598425197
        },
        {
          "duration": 33.5851131,
          "durationTicks": 6314,
          "midi": 54,
          "name": "F#3",
          "ticks": 37530,
          "time": 199.6276995,
          "velocity": 0.4409448818897638
        },
        {
          "duration": 33.58511310000003,
          "durationTicks": 6314,
          "midi": 54,
          "name": "F#3",
          "ticks": 37560,
          "time": 199.787274,
          "velocity": 0.6299212598425197
        },
        {
          "duration": 33.5851131,
          "durationTicks": 6314,
          "midi": 54,
          "name": "F#3",
          "ticks": 37590,
          "time": 199.94684850000002,
          "velocity": 0.4409448818897638
        },
        {
          "duration": 13.159577100000007,
          "durationTicks": 2474,
          "midi": 36,
          "name": "C2",
          "ticks": 37620,
          "time": 200.106423,
          "velocity": 1
        },
        {
          "duration": 33.5851131,
          "durationTicks": 6314,
          "midi": 54,
          "name": "F#3",
          "ticks": 37620,
          "time": 200.106423,
          "velocity": 0.6299212598425197
        },
        {
          "duration": 33.58511310000003,
          "durationTicks": 6314,
          "midi": 54,
          "name": "F#3",
          "ticks": 37650,
          "time": 200.2659975,
          "velocity": 0.4409448818897638
        },
        {
          "duration": 13.159577100000007,
          "durationTicks": 2474,
          "midi": 36,
          "name": "C2",
          "ticks": 37680,
          "time": 200.42557200000002,
          "velocity": 1
        },
        {
          "duration": 33.5851131,
          "durationTicks": 6314,
          "midi": 54,
          "name": "F#3",
          "ticks": 37680,
          "time": 200.42557200000002,
          "velocity": 0.6299212598425197
        },
        {
          "duration": 33.5851131,
          "durationTicks": 6314,
          "midi": 54,
          "name": "F#3",
          "ticks": 37710,
          "time": 200.5851465,
          "velocity": 0.4409448818897638
        },
        {
          "duration": 33.74468760000002,
          "durationTicks": 6344,
          "midi": 54,
          "name": "F#3",
          "ticks": 37740,
          "time": 200.744721,
          "velocity": 0.6299212598425197
        },
        {
          "duration": 33.74468759999999,
          "durationTicks": 6344,
          "midi": 54,
          "name": "F#3",
          "ticks": 37770,
          "time": 200.90429550000002,
          "velocity": 0.4409448818897638
        },
        {
          "duration": 33.74468760000002,
          "durationTicks": 6344,
          "midi": 54,
          "name": "F#3",
          "ticks": 37800,
          "time": 201.06387,
          "velocity": 0.6299212598425197
        },
        {
          "duration": 33.90426210000001,
          "durationTicks": 6374,
          "midi": 54,
          "name": "F#3",
          "ticks": 37830,
          "time": 201.2234445,
          "velocity": 0.4409448818897638
        },
        {
          "duration": 12.840428099999997,
          "durationTicks": 2414,
          "midi": 36,
          "name": "C2",
          "ticks": 37860,
          "time": 201.38301900000002,
          "velocity": 1
        },
        {
          "duration": 33.90426210000001,
          "durationTicks": 6374,
          "midi": 54,
          "name": "F#3",
          "ticks": 37860,
          "time": 201.38301900000002,
          "velocity": 0.6299212598425197
        },
        {
          "duration": 33.90426210000001,
          "durationTicks": 6374,
          "midi": 54,
          "name": "F#3",
          "ticks": 37890,
          "time": 201.5425935,
          "velocity": 0.4409448818897638
        },
        {
          "duration": 12.840428100000025,
          "durationTicks": 2414,
          "midi": 36,
          "name": "C2",
          "ticks": 37920,
          "time": 201.702168,
          "velocity": 1
        },
        {
          "duration": 34.06383660000003,
          "durationTicks": 6404,
          "midi": 54,
          "name": "F#3",
          "ticks": 37920,
          "time": 201.702168,
          "velocity": 0.6299212598425197
        },
        {
          "duration": 34.0638366,
          "durationTicks": 6404,
          "midi": 54,
          "name": "F#3",
          "ticks": 37950,
          "time": 201.86174250000002,
          "velocity": 0.4409448818897638
        },
        {
          "duration": 34.0638366,
          "durationTicks": 6404,
          "midi": 54,
          "name": "F#3",
          "ticks": 37980,
          "time": 202.021317,
          "velocity": 0.6299212598425197
        },
        {
          "duration": 34.0638366,
          "durationTicks": 6404,
          "midi": 54,
          "name": "F#3",
          "ticks": 38010,
          "time": 202.1808915,
          "velocity": 0.4409448818897638
        },
        {
          "duration": 34.0638366,
          "durationTicks": 6404,
          "midi": 54,
          "name": "F#3",
          "ticks": 38040,
          "time": 202.34046600000002,
          "velocity": 0.6299212598425197
        },
        {
          "duration": 34.0638366,
          "durationTicks": 6404,
          "midi": 54,
          "name": "F#3",
          "ticks": 38070,
          "time": 202.5000405,
          "velocity": 0.4409448818897638
        },
        {
          "duration": 12.840428100000025,
          "durationTicks": 2414,
          "midi": 36,
          "name": "C2",
          "ticks": 38100,
          "time": 202.659615,
          "velocity": 1
        },
        {
          "duration": 34.0638366,
          "durationTicks": 6404,
          "midi": 54,
          "name": "F#3",
          "ticks": 38100,
          "time": 202.659615,
          "velocity": 0.6299212598425197
        },
        {
          "duration": 34.22341109999999,
          "durationTicks": 6434,
          "midi": 54,
          "name": "F#3",
          "ticks": 38130,
          "time": 202.81918950000002,
          "velocity": 0.4409448818897638
        },
        {
          "duration": 12.840428099999997,
          "durationTicks": 2414,
          "midi": 36,
          "name": "C2",
          "ticks": 38160,
          "time": 202.978764,
          "velocity": 1
        },
        {
          "duration": 34.22341109999999,
          "durationTicks": 6434,
          "midi": 54,
          "name": "F#3",
          "ticks": 38160,
          "time": 202.978764,
          "velocity": 0.6299212598425197
        },
        {
          "duration": 34.22341110000002,
          "durationTicks": 6434,
          "midi": 54,
          "name": "F#3",
          "ticks": 38190,
          "time": 203.1383385,
          "velocity": 0.4409448818897638
        },
        {
          "duration": 0.07446809999999005,
          "durationTicks": 14,
          "midi": 35,
          "name": "B1",
          "ticks": 38220,
          "time": 203.29791300000002,
          "velocity": 0.905511811023622
        },
        {
          "duration": 0.07446809999999005,
          "durationTicks": 14,
          "midi": 46,
          "name": "A#2",
          "ticks": 38220,
          "time": 203.29791300000002,
          "velocity": 0.905511811023622
        },
        {
          "duration": 13.478726099999989,
          "durationTicks": 2534,
          "midi": 36,
          "name": "C2",
          "ticks": 38220,
          "time": 203.29791300000002,
          "velocity": 0.8661417322834646
        },
        {
          "duration": 34.22341109999999,
          "durationTicks": 6434,
          "midi": 54,
          "name": "F#3",
          "ticks": 38220,
          "time": 203.29791300000002,
          "velocity": 0.6299212598425197
        },
        {
          "duration": 34.22341109999999,
          "durationTicks": 6434,
          "midi": 54,
          "name": "F#3",
          "ticks": 38250,
          "time": 203.4574875,
          "velocity": 0.4409448818897638
        },
        {
          "duration": 34.22341110000002,
          "durationTicks": 6434,
          "midi": 54,
          "name": "F#3",
          "ticks": 38280,
          "time": 203.617062,
          "velocity": 0.6299212598425197
        },
        {
          "duration": 34.22341109999999,
          "durationTicks": 6434,
          "midi": 54,
          "name": "F#3",
          "ticks": 38310,
          "time": 203.77663650000002,
          "velocity": 0.4409448818897638
        },
        {
          "duration": 13.159577100000007,
          "durationTicks": 2474,
          "midi": 36,
          "name": "C2",
          "ticks": 38340,
          "time": 203.93621100000001,
          "velocity": 1
        },
        {
          "duration": 34.38298560000001,
          "durationTicks": 6464,
          "midi": 54,
          "name": "F#3",
          "ticks": 38340,
          "time": 203.93621100000001,
          "velocity": 0.6299212598425197
        },
        {
          "duration": 34.38298560000001,
          "durationTicks": 6464,
          "midi": 54,
          "name": "F#3",
          "ticks": 38370,
          "time": 204.0957855,
          "velocity": 0.4409448818897638
        },
        {
          "duration": 13.797875100000027,
          "durationTicks": 2594,
          "midi": 36,
          "name": "C2",
          "ticks": 38400,
          "time": 204.25536,
          "velocity": 1
        },
        {
          "duration": 34.38298560000001,
          "durationTicks": 6464,
          "midi": 54,
          "name": "F#3",
          "ticks": 38400,
          "time": 204.25536,
          "velocity": 0.6299212598425197
        },
        {
          "duration": 34.38298560000001,
          "durationTicks": 6464,
          "midi": 54,
          "name": "F#3",
          "ticks": 38430,
          "time": 204.41493450000002,
          "velocity": 0.4409448818897638
        },
        {
          "duration": 34.38298560000001,
          "durationTicks": 6464,
          "midi": 54,
          "name": "F#3",
          "ticks": 38460,
          "time": 204.574509,
          "velocity": 0.6299212598425197
        },
        {
          "duration": 34.38298560000001,
          "durationTicks": 6464,
          "midi": 54,
          "name": "F#3",
          "ticks": 38490,
          "time": 204.7340835,
          "velocity": 0.4409448818897638
        },
        {
          "duration": 34.38298560000001,
          "durationTicks": 6464,
          "midi": 54,
          "name": "F#3",
          "ticks": 38520,
          "time": 204.89365800000002,
          "velocity": 0.6299212598425197
        },
        {
          "duration": 34.5425601,
          "durationTicks": 6494,
          "midi": 54,
          "name": "F#3",
          "ticks": 38550,
          "time": 205.0532325,
          "velocity": 0.4409448818897638
        },
        {
          "duration": 13.159577100000007,
          "durationTicks": 2474,
          "midi": 36,
          "name": "C2",
          "ticks": 38580,
          "time": 205.212807,
          "velocity": 1
        },
        {
          "duration": 34.54256010000003,
          "durationTicks": 6494,
          "midi": 54,
          "name": "F#3",
          "ticks": 38580,
          "time": 205.212807,
          "velocity": 0.6299212598425197
        },
        {
          "duration": 34.5425601,
          "durationTicks": 6494,
          "midi": 54,
          "name": "F#3",
          "ticks": 38610,
          "time": 205.37238150000002,
          "velocity": 0.4409448818897638
        },
        {
          "duration": 13.159577100000007,
          "durationTicks": 2474,
          "midi": 36,
          "name": "C2",
          "ticks": 38640,
          "time": 205.531956,
          "velocity": 1
        },
        {
          "duration": 12.840428099999997,
          "durationTicks": 2414,
          "midi": 36,
          "name": "C2",
          "ticks": 38820,
          "time": 206.489403,
          "velocity": 1
        },
        {
          "duration": 13.797875099999999,
          "durationTicks": 2594,
          "midi": 36,
          "name": "C2",
          "ticks": 38880,
          "time": 206.80855200000002,
          "velocity": 1
        },
        {
          "duration": 13.159577100000007,
          "durationTicks": 2474,
          "midi": 36,
          "name": "C2",
          "ticks": 39060,
          "time": 207.76599900000002,
          "velocity": 1
        },
        {
          "duration": 13.797875099999999,
          "durationTicks": 2594,
          "midi": 36,
          "name": "C2",
          "ticks": 39120,
          "time": 208.085148,
          "velocity": 1
        },
        {
          "duration": 0.07446809999999005,
          "durationTicks": 14,
          "midi": 35,
          "name": "B1",
          "ticks": 39180,
          "time": 208.404297,
          "velocity": 0.905511811023622
        },
        {
          "duration": 0.07446809999999005,
          "durationTicks": 14,
          "midi": 46,
          "name": "A#2",
          "ticks": 39180,
          "time": 208.404297,
          "velocity": 0.905511811023622
        },
        {
          "duration": 13.797875099999999,
          "durationTicks": 2594,
          "midi": 36,
          "name": "C2",
          "ticks": 39180,
          "time": 208.404297,
          "velocity": 0.8661417322834646
        },
        {
          "duration": 14.117024100000009,
          "durationTicks": 2654,
          "midi": 36,
          "name": "C2",
          "ticks": 39300,
          "time": 209.042595,
          "velocity": 1
        },
        {
          "duration": 14.117024100000009,
          "durationTicks": 2654,
          "midi": 36,
          "name": "C2",
          "ticks": 39360,
          "time": 209.36174400000002,
          "velocity": 1
        },
        {
          "duration": 13.478726099999989,
          "durationTicks": 2534,
          "midi": 36,
          "name": "C2",
          "ticks": 39540,
          "time": 210.31919100000002,
          "velocity": 1
        },
        {
          "duration": 13.797875100000027,
          "durationTicks": 2594,
          "midi": 36,
          "name": "C2",
          "ticks": 39600,
          "time": 210.63834,
          "velocity": 1
        },
        {
          "duration": 14.117024100000009,
          "durationTicks": 2654,
          "midi": 36,
          "name": "C2",
          "ticks": 39780,
          "time": 211.595787,
          "velocity": 1
        },
        {
          "duration": 14.117024100000009,
          "durationTicks": 2654,
          "midi": 36,
          "name": "C2",
          "ticks": 39840,
          "time": 211.914936,
          "velocity": 1
        },
        {
          "duration": 14.117024100000009,
          "durationTicks": 2654,
          "midi": 36,
          "name": "C2",
          "ticks": 40020,
          "time": 212.872383,
          "velocity": 1
        },
        {
          "duration": 14.11702409999998,
          "durationTicks": 2654,
          "midi": 36,
          "name": "C2",
          "ticks": 40080,
          "time": 213.19153200000002,
          "velocity": 1
        },
        {
          "duration": 0.07446810000001847,
          "durationTicks": 14,
          "midi": 35,
          "name": "B1",
          "ticks": 40140,
          "time": 213.510681,
          "velocity": 0.905511811023622
        },
        {
          "duration": 0.07446810000001847,
          "durationTicks": 14,
          "midi": 46,
          "name": "A#2",
          "ticks": 40140,
          "time": 213.510681,
          "velocity": 0.905511811023622
        },
        {
          "duration": 14.7553221,
          "durationTicks": 2774,
          "midi": 36,
          "name": "C2",
          "ticks": 40140,
          "time": 213.510681,
          "velocity": 0.8661417322834646
        },
        {
          "duration": 14.436173100000019,
          "durationTicks": 2714,
          "midi": 36,
          "name": "C2",
          "ticks": 40260,
          "time": 214.148979,
          "velocity": 1
        },
        {
          "duration": 14.436173100000019,
          "durationTicks": 2714,
          "midi": 36,
          "name": "C2",
          "ticks": 40320,
          "time": 214.468128,
          "velocity": 1
        },
        {
          "duration": 14.117024100000009,
          "durationTicks": 2654,
          "midi": 36,
          "name": "C2",
          "ticks": 40500,
          "time": 215.425575,
          "velocity": 1
        },
        {
          "duration": 15.074471100000011,
          "durationTicks": 2834,
          "midi": 36,
          "name": "C2",
          "ticks": 40560,
          "time": 215.74472400000002,
          "velocity": 1
        },
        {
          "duration": 14.43617309999999,
          "durationTicks": 2714,
          "midi": 36,
          "name": "C2",
          "ticks": 40740,
          "time": 216.70217100000002,
          "velocity": 1
        },
        {
          "duration": 15.074471100000011,
          "durationTicks": 2834,
          "midi": 36,
          "name": "C2",
          "ticks": 40800,
          "time": 217.02132,
          "velocity": 1
        },
        {
          "duration": 14.436173100000019,
          "durationTicks": 2714,
          "midi": 36,
          "name": "C2",
          "ticks": 40980,
          "time": 217.978767,
          "velocity": 1
        },
        {
          "duration": 15.074471100000011,
          "durationTicks": 2834,
          "midi": 36,
          "name": "C2",
          "ticks": 41040,
          "time": 218.29791600000001,
          "velocity": 1
        },
        {
          "duration": 0.07446809999999005,
          "durationTicks": 14,
          "midi": 35,
          "name": "B1",
          "ticks": 41100,
          "time": 218.61706500000003,
          "velocity": 0.905511811023622
        },
        {
          "duration": 0.07446809999999005,
          "durationTicks": 14,
          "midi": 46,
          "name": "A#2",
          "ticks": 41100,
          "time": 218.61706500000003,
          "velocity": 0.905511811023622
        },
        {
          "duration": 15.074471099999982,
          "durationTicks": 2834,
          "midi": 36,
          "name": "C2",
          "ticks": 41100,
          "time": 218.61706500000003,
          "velocity": 0.8661417322834646
        },
        {
          "duration": 14.7553221,
          "durationTicks": 2774,
          "midi": 36,
          "name": "C2",
          "ticks": 41220,
          "time": 219.25536300000002,
          "velocity": 1
        },
        {
          "duration": 15.074471100000011,
          "durationTicks": 2834,
          "midi": 36,
          "name": "C2",
          "ticks": 41280,
          "time": 219.574512,
          "velocity": 1
        },
        {
          "duration": 15.393620100000021,
          "durationTicks": 2894,
          "midi": 36,
          "name": "C2",
          "ticks": 41460,
          "time": 220.531959,
          "velocity": 1
        },
        {
          "duration": 15.393620099999993,
          "durationTicks": 2894,
          "midi": 36,
          "name": "C2",
          "ticks": 41520,
          "time": 220.851108,
          "velocity": 1
        },
        {
          "duration": 15.393620099999993,
          "durationTicks": 2894,
          "midi": 36,
          "name": "C2",
          "ticks": 41700,
          "time": 221.808555,
          "velocity": 1
        },
        {
          "duration": 15.393620099999993,
          "durationTicks": 2894,
          "midi": 36,
          "name": "C2",
          "ticks": 41760,
          "time": 222.12770400000002,
          "velocity": 1
        },
        {
          "duration": 15.393620099999993,
          "durationTicks": 2894,
          "midi": 36,
          "name": "C2",
          "ticks": 41940,
          "time": 223.08515100000002,
          "velocity": 1
        },
        {
          "duration": 15.393620100000021,
          "durationTicks": 2894,
          "midi": 36,
          "name": "C2",
          "ticks": 42000,
          "time": 223.4043,
          "velocity": 1
        },
        {
          "duration": 0.07446809999999005,
          "durationTicks": 14,
          "midi": 35,
          "name": "B1",
          "ticks": 42060,
          "time": 223.72344900000002,
          "velocity": 0.905511811023622
        },
        {
          "duration": 0.07446809999999005,
          "durationTicks": 14,
          "midi": 46,
          "name": "A#2",
          "ticks": 42060,
          "time": 223.72344900000002,
          "velocity": 0.905511811023622
        },
        {
          "duration": 15.393620099999993,
          "durationTicks": 2894,
          "midi": 36,
          "name": "C2",
          "ticks": 42060,
          "time": 223.72344900000002,
          "velocity": 0.8661417322834646
        },
        {
          "duration": 15.393620100000021,
          "durationTicks": 2894,
          "midi": 36,
          "name": "C2",
          "ticks": 42180,
          "time": 224.361747,
          "velocity": 1
        },
        {
          "duration": 0.07446810000001847,
          "durationTicks": 14,
          "midi": 35,
          "name": "B1",
          "ticks": 43020,
          "time": 228.829833,
          "velocity": 0.905511811023622
        },
        {
          "duration": 0.07446810000001847,
          "durationTicks": 14,
          "midi": 46,
          "name": "A#2",
          "ticks": 43020,
          "time": 228.829833,
          "velocity": 0.905511811023622
        },
        {
          "duration": 0.07446810000001847,
          "durationTicks": 14,
          "midi": 35,
          "name": "B1",
          "ticks": 43980,
          "time": 233.936217,
          "velocity": 0.905511811023622
        },
        {
          "duration": 0.07446810000001847,
          "durationTicks": 14,
          "midi": 46,
          "name": "A#2",
          "ticks": 43980,
          "time": 233.936217,
          "velocity": 0.905511811023622
        },
        {
          "duration": 0.07446809999999005,
          "durationTicks": 14,
          "midi": 35,
          "name": "B1",
          "ticks": 44940,
          "time": 239.04260100000002,
          "velocity": 0.905511811023622
        },
        {
          "duration": 0.07446809999999005,
          "durationTicks": 14,
          "midi": 46,
          "name": "A#2",
          "ticks": 44940,
          "time": 239.04260100000002,
          "velocity": 0.905511811023622
        }
      ],
      "endOfTrackTicks": 45104
    },
    {
      "channel": 9,
      "controlChanges": {},
      "pitchBends": [],
      "instrument": {
        "family": "drums",
        "name": "standard kit",
        "number": 0
      },
      "name": "",
      "notes": [
        {
          "duration": 0.07446810000000001,
          "durationTicks": 14,
          "midi": 58,
          "name": "A#3",
          "ticks": 1,
          "time": 0.00531915,
          "velocity": 0.7874015748031497
        },
        {
          "duration": 0.07446809999999998,
          "durationTicks": 14,
          "midi": 58,
          "name": "A#3",
          "ticks": 61,
          "time": 0.32446815,
          "velocity": 0.47244094488188976
        },
        {
          "duration": 0.07446810000000004,
          "durationTicks": 14,
          "midi": 37,
          "name": "C#2",
          "ticks": 121,
          "time": 0.64361715,
          "velocity": 0.9448818897637795
        },
        {
          "duration": 0.07446810000000004,
          "durationTicks": 14,
          "midi": 37,
          "name": "C#2",
          "ticks": 361,
          "time": 1.9202131500000001,
          "velocity": 0.9448818897637795
        },
        {
          "duration": 0.07446809999999981,
          "durationTicks": 14,
          "midi": 37,
          "name": "C#2",
          "ticks": 601,
          "time": 3.1968091500000004,
          "velocity": 0.9448818897637795
        },
        {
          "duration": 0.07446809999999981,
          "durationTicks": 14,
          "midi": 37,
          "name": "C#2",
          "ticks": 841,
          "time": 4.4734051500000005,
          "velocity": 0.9448818897637795
        },
        {
          "duration": 0.07446809999999981,
          "durationTicks": 14,
          "midi": 37,
          "name": "C#2",
          "ticks": 1081,
          "time": 5.75000115,
          "velocity": 0.9448818897637795
        },
        {
          "duration": 0.07446809999999981,
          "durationTicks": 14,
          "midi": 28,
          "name": "E1",
          "ticks": 1081,
          "time": 5.75000115,
          "velocity": 0.7874015748031497
        },
        {
          "duration": 0.0744681000000007,
          "durationTicks": 14,
          "midi": 37,
          "name": "C#2",
          "ticks": 1321,
          "time": 7.02659715,
          "velocity": 0.9448818897637795
        },
        {
          "duration": 0.0744681000000007,
          "durationTicks": 14,
          "midi": 28,
          "name": "E1",
          "ticks": 1321,
          "time": 7.02659715,
          "velocity": 0.7874015748031497
        },
        {
          "duration": 0.0744681000000007,
          "durationTicks": 14,
          "midi": 37,
          "name": "C#2",
          "ticks": 1561,
          "time": 8.30319315,
          "velocity": 0.9448818897637795
        },
        {
          "duration": 0.0744681000000007,
          "durationTicks": 14,
          "midi": 28,
          "name": "E1",
          "ticks": 1561,
          "time": 8.30319315,
          "velocity": 0.7874015748031497
        },
        {
          "duration": 0.0744681000000007,
          "durationTicks": 14,
          "midi": 37,
          "name": "C#2",
          "ticks": 1801,
          "time": 9.57978915,
          "velocity": 0.9448818897637795
        },
        {
          "duration": 0.0744681000000007,
          "durationTicks": 14,
          "midi": 28,
          "name": "E1",
          "ticks": 1801,
          "time": 9.57978915,
          "velocity": 0.7874015748031497
        },
        {
          "duration": 0.0744681000000007,
          "durationTicks": 14,
          "midi": 58,
          "name": "A#3",
          "ticks": 1921,
          "time": 10.21808715,
          "velocity": 0.7874015748031497
        },
        {
          "duration": 0.0744681000000007,
          "durationTicks": 14,
          "midi": 37,
          "name": "C#2",
          "ticks": 2041,
          "time": 10.85638515,
          "velocity": 0.9448818897637795
        },
        {
          "duration": 0.0744681000000007,
          "durationTicks": 14,
          "midi": 28,
          "name": "E1",
          "ticks": 2041,
          "time": 10.85638515,
          "velocity": 0.7874015748031497
        },
        {
          "duration": 0.07446809999999893,
          "durationTicks": 14,
          "midi": 37,
          "name": "C#2",
          "ticks": 2281,
          "time": 12.13298115,
          "velocity": 0.9448818897637795
        },
        {
          "duration": 0.07446809999999893,
          "durationTicks": 14,
          "midi": 28,
          "name": "E1",
          "ticks": 2281,
          "time": 12.13298115,
          "velocity": 0.7874015748031497
        },
        {
          "duration": 0.0744681000000007,
          "durationTicks": 14,
          "midi": 37,
          "name": "C#2",
          "ticks": 2521,
          "time": 13.40957715,
          "velocity": 0.9448818897637795
        },
        {
          "duration": 0.0744681000000007,
          "durationTicks": 14,
          "midi": 28,
          "name": "E1",
          "ticks": 2521,
          "time": 13.40957715,
          "velocity": 0.7874015748031497
        },
        {
          "duration": 0.0744681000000007,
          "durationTicks": 14,
          "midi": 37,
          "name": "C#2",
          "ticks": 2761,
          "time": 14.68617315,
          "velocity": 0.9448818897637795
        },
        {
          "duration": 0.0744681000000007,
          "durationTicks": 14,
          "midi": 28,
          "name": "E1",
          "ticks": 2761,
          "time": 14.68617315,
          "velocity": 0.7874015748031497
        },
        {
          "duration": 0.0744681000000007,
          "durationTicks": 14,
          "midi": 37,
          "name": "C#2",
          "ticks": 3001,
          "time": 15.96276915,
          "velocity": 0.9448818897637795
        },
        {
          "duration": 0.0744681000000007,
          "durationTicks": 14,
          "midi": 28,
          "name": "E1",
          "ticks": 3001,
          "time": 15.96276915,
          "velocity": 0.7874015748031497
        },
        {
          "duration": 0.0744681000000007,
          "durationTicks": 14,
          "midi": 37,
          "name": "C#2",
          "ticks": 3241,
          "time": 17.23936515,
          "velocity": 0.9448818897637795
        },
        {
          "duration": 0.0744681000000007,
          "durationTicks": 14,
          "midi": 28,
          "name": "E1",
          "ticks": 3241,
          "time": 17.23936515,
          "velocity": 0.7874015748031497
        },
        {
          "duration": 0.0744681000000007,
          "durationTicks": 14,
          "midi": 37,
          "name": "C#2",
          "ticks": 3481,
          "time": 18.51596115,
          "velocity": 0.9448818897637795
        },
        {
          "duration": 0.0744681000000007,
          "durationTicks": 14,
          "midi": 28,
          "name": "E1",
          "ticks": 3481,
          "time": 18.51596115,
          "velocity": 0.7874015748031497
        },
        {
          "duration": 0.0744681000000007,
          "durationTicks": 14,
          "midi": 37,
          "name": "C#2",
          "ticks": 3721,
          "time": 19.79255715,
          "velocity": 0.9448818897637795
        },
        {
          "duration": 0.0744681000000007,
          "durationTicks": 14,
          "midi": 28,
          "name": "E1",
          "ticks": 3721,
          "time": 19.79255715,
          "velocity": 0.7874015748031497
        },
        {
          "duration": 0.0744681000000007,
          "durationTicks": 14,
          "midi": 58,
          "name": "A#3",
          "ticks": 3841,
          "time": 20.43085515,
          "velocity": 0.7874015748031497
        },
        {
          "duration": 0.0744681000000007,
          "durationTicks": 14,
          "midi": 37,
          "name": "C#2",
          "ticks": 3961,
          "time": 21.06915315,
          "velocity": 0.9448818897637795
        },
        {
          "duration": 0.0744681000000007,
          "durationTicks": 14,
          "midi": 28,
          "name": "E1",
          "ticks": 3961,
          "time": 21.06915315,
          "velocity": 0.7874015748031497
        },
        {
          "duration": 0.0744681000000007,
          "durationTicks": 14,
          "midi": 37,
          "name": "C#2",
          "ticks": 4201,
          "time": 22.34574915,
          "velocity": 0.9448818897637795
        },
        {
          "duration": 0.0744681000000007,
          "durationTicks": 14,
          "midi": 28,
          "name": "E1",
          "ticks": 4201,
          "time": 22.34574915,
          "velocity": 0.7874015748031497
        },
        {
          "duration": 0.0744681000000007,
          "durationTicks": 14,
          "midi": 37,
          "name": "C#2",
          "ticks": 4441,
          "time": 23.62234515,
          "velocity": 0.9448818897637795
        },
        {
          "duration": 0.0744681000000007,
          "durationTicks": 14,
          "midi": 28,
          "name": "E1",
          "ticks": 4441,
          "time": 23.62234515,
          "velocity": 0.7874015748031497
        },
        {
          "duration": 0.07446809999999715,
          "durationTicks": 14,
          "midi": 37,
          "name": "C#2",
          "ticks": 4681,
          "time": 24.898941150000002,
          "velocity": 0.9448818897637795
        },
        {
          "duration": 0.07446809999999715,
          "durationTicks": 14,
          "midi": 28,
          "name": "E1",
          "ticks": 4681,
          "time": 24.898941150000002,
          "velocity": 0.7874015748031497
        },
        {
          "duration": 0.0744681000000007,
          "durationTicks": 14,
          "midi": 37,
          "name": "C#2",
          "ticks": 4921,
          "time": 26.17553715,
          "velocity": 0.9448818897637795
        },
        {
          "duration": 0.0744681000000007,
          "durationTicks": 14,
          "midi": 28,
          "name": "E1",
          "ticks": 4921,
          "time": 26.17553715,
          "velocity": 0.7874015748031497
        },
        {
          "duration": 0.0744681000000007,
          "durationTicks": 14,
          "midi": 37,
          "name": "C#2",
          "ticks": 5161,
          "time": 27.45213315,
          "velocity": 0.9448818897637795
        },
        {
          "duration": 0.0744681000000007,
          "durationTicks": 14,
          "midi": 28,
          "name": "E1",
          "ticks": 5161,
          "time": 27.45213315,
          "velocity": 0.7874015748031497
        },
        {
          "duration": 0.0744681000000007,
          "durationTicks": 14,
          "midi": 37,
          "name": "C#2",
          "ticks": 5401,
          "time": 28.72872915,
          "velocity": 0.9448818897637795
        },
        {
          "duration": 0.0744681000000007,
          "durationTicks": 14,
          "midi": 28,
          "name": "E1",
          "ticks": 5401,
          "time": 28.72872915,
          "velocity": 0.7874015748031497
        },
        {
          "duration": 0.0744681000000007,
          "durationTicks": 14,
          "midi": 37,
          "name": "C#2",
          "ticks": 5641,
          "time": 30.00532515,
          "velocity": 0.9448818897637795
        },
        {
          "duration": 0.0744681000000007,
          "durationTicks": 14,
          "midi": 28,
          "name": "E1",
          "ticks": 5641,
          "time": 30.00532515,
          "velocity": 0.7874015748031497
        },
        {
          "duration": 0.0744681000000007,
          "durationTicks": 14,
          "midi": 58,
          "name": "A#3",
          "ticks": 5761,
          "time": 30.64362315,
          "velocity": 0.7874015748031497
        },
        {
          "duration": 0.0744681000000007,
          "durationTicks": 14,
          "midi": 37,
          "name": "C#2",
          "ticks": 5881,
          "time": 31.281921150000002,
          "velocity": 0.9448818897637795
        },
        {
          "duration": 0.0744681000000007,
          "durationTicks": 14,
          "midi": 28,
          "name": "E1",
          "ticks": 5881,
          "time": 31.281921150000002,
          "velocity": 0.7874015748031497
        },
        {
          "duration": 0.07446810000000426,
          "durationTicks": 14,
          "midi": 37,
          "name": "C#2",
          "ticks": 6121,
          "time": 32.55851715,
          "velocity": 0.9448818897637795
        },
        {
          "duration": 0.07446810000000426,
          "durationTicks": 14,
          "midi": 28,
          "name": "E1",
          "ticks": 6121,
          "time": 32.55851715,
          "velocity": 0.7874015748031497
        },
        {
          "duration": 0.07446810000000426,
          "durationTicks": 14,
          "midi": 37,
          "name": "C#2",
          "ticks": 6361,
          "time": 33.83511315,
          "velocity": 0.9448818897637795
        },
        {
          "duration": 0.07446810000000426,
          "durationTicks": 14,
          "midi": 28,
          "name": "E1",
          "ticks": 6361,
          "time": 33.83511315,
          "velocity": 0.7874015748031497
        },
        {
          "duration": 0.07446809999999715,
          "durationTicks": 14,
          "midi": 37,
          "name": "C#2",
          "ticks": 6601,
          "time": 35.11170915,
          "velocity": 0.9448818897637795
        },
        {
          "duration": 0.07446809999999715,
          "durationTicks": 14,
          "midi": 28,
          "name": "E1",
          "ticks": 6601,
          "time": 35.11170915,
          "velocity": 0.7874015748031497
        },
        {
          "duration": 0.07446809999999715,
          "durationTicks": 14,
          "midi": 58,
          "name": "A#3",
          "ticks": 6721,
          "time": 35.75000715,
          "velocity": 0.7874015748031497
        },
        {
          "duration": 0.07446810000000426,
          "durationTicks": 14,
          "midi": 37,
          "name": "C#2",
          "ticks": 6841,
          "time": 36.38830515,
          "velocity": 0.9448818897637795
        },
        {
          "duration": 0.07446810000000426,
          "durationTicks": 14,
          "midi": 28,
          "name": "E1",
          "ticks": 6841,
          "time": 36.38830515,
          "velocity": 0.7874015748031497
        },
        {
          "duration": 0.07446810000000426,
          "durationTicks": 14,
          "midi": 37,
          "name": "C#2",
          "ticks": 7081,
          "time": 37.66490115,
          "velocity": 0.9448818897637795
        },
        {
          "duration": 0.07446810000000426,
          "durationTicks": 14,
          "midi": 28,
          "name": "E1",
          "ticks": 7081,
          "time": 37.66490115,
          "velocity": 0.7874015748031497
        },
        {
          "duration": 0.07446809999999715,
          "durationTicks": 14,
          "midi": 37,
          "name": "C#2",
          "ticks": 7321,
          "time": 38.941497150000004,
          "velocity": 0.9448818897637795
        },
        {
          "duration": 0.07446809999999715,
          "durationTicks": 14,
          "midi": 28,
          "name": "E1",
          "ticks": 7321,
          "time": 38.941497150000004,
          "velocity": 0.7874015748031497
        },
        {
          "duration": 0.07446809999999715,
          "durationTicks": 14,
          "midi": 37,
          "name": "C#2",
          "ticks": 7561,
          "time": 40.21809315,
          "velocity": 0.9448818897637795
        },
        {
          "duration": 0.07446809999999715,
          "durationTicks": 14,
          "midi": 28,
          "name": "E1",
          "ticks": 7561,
          "time": 40.21809315,
          "velocity": 0.7874015748031497
        },
        {
          "duration": 0.07446809999999715,
          "durationTicks": 14,
          "midi": 37,
          "name": "C#2",
          "ticks": 7801,
          "time": 41.494689150000006,
          "velocity": 0.9448818897637795
        },
        {
          "duration": 0.07446809999999715,
          "durationTicks": 14,
          "midi": 28,
          "name": "E1",
          "ticks": 7801,
          "time": 41.494689150000006,
          "velocity": 0.7874015748031497
        },
        {
          "duration": 0.07446809999999715,
          "durationTicks": 14,
          "midi": 37,
          "name": "C#2",
          "ticks": 8041,
          "time": 42.771285150000004,
          "velocity": 0.9448818897637795
        },
        {
          "duration": 0.07446809999999715,
          "durationTicks": 14,
          "midi": 28,
          "name": "E1",
          "ticks": 8041,
          "time": 42.771285150000004,
          "velocity": 0.7874015748031497
        },
        {
          "duration": 0.07446809999999005,
          "durationTicks": 14,
          "midi": 37,
          "name": "C#2",
          "ticks": 8281,
          "time": 44.04788115000001,
          "velocity": 0.9448818897637795
        },
        {
          "duration": 0.07446809999999005,
          "durationTicks": 14,
          "midi": 28,
          "name": "E1",
          "ticks": 8281,
          "time": 44.04788115000001,
          "velocity": 0.7874015748031497
        },
        {
          "duration": 0.07446809999999715,
          "durationTicks": 14,
          "midi": 37,
          "name": "C#2",
          "ticks": 8521,
          "time": 45.32447715000001,
          "velocity": 0.9448818897637795
        },
        {
          "duration": 0.07446809999999715,
          "durationTicks": 14,
          "midi": 28,
          "name": "E1",
          "ticks": 8521,
          "time": 45.32447715000001,
          "velocity": 0.7874015748031497
        },
        {
          "duration": 0.07446809999999715,
          "durationTicks": 14,
          "midi": 58,
          "name": "A#3",
          "ticks": 8641,
          "time": 45.962775150000006,
          "velocity": 0.7874015748031497
        },
        {
          "duration": 0.07446809999999715,
          "durationTicks": 14,
          "midi": 37,
          "name": "C#2",
          "ticks": 8761,
          "time": 46.601073150000005,
          "velocity": 0.9448818897637795
        },
        {
          "duration": 0.07446809999999715,
          "durationTicks": 14,
          "midi": 28,
          "name": "E1",
          "ticks": 8761,
          "time": 46.601073150000005,
          "velocity": 0.7874015748031497
        },
        {
          "duration": 0.07446809999999005,
          "durationTicks": 14,
          "midi": 37,
          "name": "C#2",
          "ticks": 9001,
          "time": 47.87766915000001,
          "velocity": 0.9448818897637795
        },
        {
          "duration": 0.07446809999999005,
          "durationTicks": 14,
          "midi": 28,
          "name": "E1",
          "ticks": 9001,
          "time": 47.87766915000001,
          "velocity": 0.7874015748031497
        },
        {
          "duration": 0.07446809999999715,
          "durationTicks": 14,
          "midi": 37,
          "name": "C#2",
          "ticks": 9241,
          "time": 49.15426515000001,
          "velocity": 0.9448818897637795
        },
        {
          "duration": 0.07446809999999715,
          "durationTicks": 14,
          "midi": 28,
          "name": "E1",
          "ticks": 9241,
          "time": 49.15426515000001,
          "velocity": 0.7874015748031497
        },
        {
          "duration": 0.07446809999999715,
          "durationTicks": 14,
          "midi": 37,
          "name": "C#2",
          "ticks": 9481,
          "time": 50.430861150000005,
          "velocity": 0.9448818897637795
        },
        {
          "duration": 0.07446809999999715,
          "durationTicks": 14,
          "midi": 28,
          "name": "E1",
          "ticks": 9481,
          "time": 50.430861150000005,
          "velocity": 0.7874015748031497
        },
        {
          "duration": 0.07446809999999715,
          "durationTicks": 14,
          "midi": 37,
          "name": "C#2",
          "ticks": 9721,
          "time": 51.70745715,
          "velocity": 0.9448818897637795
        },
        {
          "duration": 0.07446809999999715,
          "durationTicks": 14,
          "midi": 28,
          "name": "E1",
          "ticks": 9721,
          "time": 51.70745715,
          "velocity": 0.7874015748031497
        },
        {
          "duration": 0.07446809999999715,
          "durationTicks": 14,
          "midi": 37,
          "name": "C#2",
          "ticks": 9961,
          "time": 52.98405315000001,
          "velocity": 0.9448818897637795
        },
        {
          "duration": 0.07446809999999715,
          "durationTicks": 14,
          "midi": 28,
          "name": "E1",
          "ticks": 9961,
          "time": 52.98405315000001,
          "velocity": 0.7874015748031497
        },
        {
          "duration": 0.07446809999999715,
          "durationTicks": 14,
          "midi": 37,
          "name": "C#2",
          "ticks": 10201,
          "time": 54.260649150000006,
          "velocity": 0.9448818897637795
        },
        {
          "duration": 0.07446809999999715,
          "durationTicks": 14,
          "midi": 28,
          "name": "E1",
          "ticks": 10201,
          "time": 54.260649150000006,
          "velocity": 0.7874015748031497
        },
        {
          "duration": 0.07446809999999715,
          "durationTicks": 14,
          "midi": 37,
          "name": "C#2",
          "ticks": 10441,
          "time": 55.537245150000004,
          "velocity": 0.9448818897637795
        },
        {
          "duration": 0.07446809999999715,
          "durationTicks": 14,
          "midi": 28,
          "name": "E1",
          "ticks": 10441,
          "time": 55.537245150000004,
          "velocity": 0.7874015748031497
        },
        {
          "duration": 0.07446809999999005,
          "durationTicks": 14,
          "midi": 58,
          "name": "A#3",
          "ticks": 10561,
          "time": 56.17554315000001,
          "velocity": 0.7874015748031497
        },
        {
          "duration": 0.07446809999999715,
          "durationTicks": 14,
          "midi": 37,
          "name": "C#2",
          "ticks": 10681,
          "time": 56.81384115000001,
          "velocity": 0.9448818897637795
        },
        {
          "duration": 0.07446809999999715,
          "durationTicks": 14,
          "midi": 28,
          "name": "E1",
          "ticks": 10681,
          "time": 56.81384115000001,
          "velocity": 0.7874015748031497
        },
        {
          "duration": 0.07446809999999715,
          "durationTicks": 14,
          "midi": 37,
          "name": "C#2",
          "ticks": 10921,
          "time": 58.09043715000001,
          "velocity": 0.9448818897637795
        },
        {
          "duration": 0.07446809999999715,
          "durationTicks": 14,
          "midi": 28,
          "name": "E1",
          "ticks": 10921,
          "time": 58.09043715000001,
          "velocity": 0.7874015748031497
        },
        {
          "duration": 0.07446809999999715,
          "durationTicks": 14,
          "midi": 37,
          "name": "C#2",
          "ticks": 11161,
          "time": 59.367033150000005,
          "velocity": 0.9448818897637795
        },
        {
          "duration": 0.07446809999999715,
          "durationTicks": 14,
          "midi": 28,
          "name": "E1",
          "ticks": 11161,
          "time": 59.367033150000005,
          "velocity": 0.7874015748031497
        },
        {
          "duration": 0.07446809999999005,
          "durationTicks": 14,
          "midi": 37,
          "name": "C#2",
          "ticks": 11401,
          "time": 60.64362915000001,
          "velocity": 0.9448818897637795
        },
        {
          "duration": 0.07446809999999005,
          "durationTicks": 14,
          "midi": 28,
          "name": "E1",
          "ticks": 11401,
          "time": 60.64362915000001,
          "velocity": 0.7874015748031497
        },
        {
          "duration": 0.07446809999999715,
          "durationTicks": 14,
          "midi": 37,
          "name": "C#2",
          "ticks": 11641,
          "time": 61.92022515000001,
          "velocity": 0.9448818897637795
        },
        {
          "duration": 0.07446809999999715,
          "durationTicks": 14,
          "midi": 28,
          "name": "E1",
          "ticks": 11641,
          "time": 61.92022515000001,
          "velocity": 0.7874015748031497
        },
        {
          "duration": 0.07446809999999715,
          "durationTicks": 14,
          "midi": 37,
          "name": "C#2",
          "ticks": 11881,
          "time": 63.196821150000005,
          "velocity": 0.9448818897637795
        },
        {
          "duration": 0.07446809999999715,
          "durationTicks": 14,
          "midi": 28,
          "name": "E1",
          "ticks": 11881,
          "time": 63.196821150000005,
          "velocity": 0.7874015748031497
        },
        {
          "duration": 0.07446810000000426,
          "durationTicks": 14,
          "midi": 37,
          "name": "C#2",
          "ticks": 12121,
          "time": 64.47341715,
          "velocity": 0.9448818897637795
        },
        {
          "duration": 0.07446810000000426,
          "durationTicks": 14,
          "midi": 28,
          "name": "E1",
          "ticks": 12121,
          "time": 64.47341715,
          "velocity": 0.7874015748031497
        },
        {
          "duration": 0.07446810000000426,
          "durationTicks": 14,
          "midi": 37,
          "name": "C#2",
          "ticks": 12361,
          "time": 65.75001315,
          "velocity": 0.9448818897637795
        },
        {
          "duration": 0.07446810000000426,
          "durationTicks": 14,
          "midi": 28,
          "name": "E1",
          "ticks": 12361,
          "time": 65.75001315,
          "velocity": 0.7874015748031497
        },
        {
          "duration": 0.07446809999999005,
          "durationTicks": 14,
          "midi": 58,
          "name": "A#3",
          "ticks": 12481,
          "time": 66.38831115,
          "velocity": 0.7874015748031497
        },
        {
          "duration": 0.07446809999999005,
          "durationTicks": 14,
          "midi": 37,
          "name": "C#2",
          "ticks": 12601,
          "time": 67.02660915000001,
          "velocity": 0.9448818897637795
        },
        {
          "duration": 0.07446809999999005,
          "durationTicks": 14,
          "midi": 28,
          "name": "E1",
          "ticks": 12601,
          "time": 67.02660915000001,
          "velocity": 0.7874015748031497
        },
        {
          "duration": 0.07446809999999005,
          "durationTicks": 14,
          "midi": 37,
          "name": "C#2",
          "ticks": 12841,
          "time": 68.30320515000001,
          "velocity": 0.9448818897637795
        },
        {
          "duration": 0.07446809999999005,
          "durationTicks": 14,
          "midi": 28,
          "name": "E1",
          "ticks": 12841,
          "time": 68.30320515000001,
          "velocity": 0.7874015748031497
        },
        {
          "duration": 0.07446809999999005,
          "durationTicks": 14,
          "midi": 37,
          "name": "C#2",
          "ticks": 13081,
          "time": 69.57980115000001,
          "velocity": 0.9448818897637795
        },
        {
          "duration": 0.07446809999999005,
          "durationTicks": 14,
          "midi": 28,
          "name": "E1",
          "ticks": 13081,
          "time": 69.57980115000001,
          "velocity": 0.7874015748031497
        },
        {
          "duration": 0.07446809999999005,
          "durationTicks": 14,
          "midi": 37,
          "name": "C#2",
          "ticks": 13321,
          "time": 70.85639715,
          "velocity": 0.9448818897637795
        },
        {
          "duration": 0.07446809999999005,
          "durationTicks": 14,
          "midi": 28,
          "name": "E1",
          "ticks": 13321,
          "time": 70.85639715,
          "velocity": 0.7874015748031497
        },
        {
          "duration": 0.07446810000000426,
          "durationTicks": 14,
          "midi": 37,
          "name": "C#2",
          "ticks": 13561,
          "time": 72.13299315,
          "velocity": 0.9448818897637795
        },
        {
          "duration": 0.07446810000000426,
          "durationTicks": 14,
          "midi": 28,
          "name": "E1",
          "ticks": 13561,
          "time": 72.13299315,
          "velocity": 0.7874015748031497
        },
        {
          "duration": 0.07446810000000426,
          "durationTicks": 14,
          "midi": 37,
          "name": "C#2",
          "ticks": 13801,
          "time": 73.40958915,
          "velocity": 0.9448818897637795
        },
        {
          "duration": 0.07446810000000426,
          "durationTicks": 14,
          "midi": 28,
          "name": "E1",
          "ticks": 13801,
          "time": 73.40958915,
          "velocity": 0.7874015748031497
        },
        {
          "duration": 0.07446809999999005,
          "durationTicks": 14,
          "midi": 37,
          "name": "C#2",
          "ticks": 14041,
          "time": 74.68618515000001,
          "velocity": 0.9448818897637795
        },
        {
          "duration": 0.07446809999999005,
          "durationTicks": 14,
          "midi": 28,
          "name": "E1",
          "ticks": 14041,
          "time": 74.68618515000001,
          "velocity": 0.7874015748031497
        },
        {
          "duration": 0.07446809999999005,
          "durationTicks": 14,
          "midi": 37,
          "name": "C#2",
          "ticks": 14281,
          "time": 75.96278115000001,
          "velocity": 0.9448818897637795
        },
        {
          "duration": 0.07446809999999005,
          "durationTicks": 14,
          "midi": 28,
          "name": "E1",
          "ticks": 14281,
          "time": 75.96278115000001,
          "velocity": 0.7874015748031497
        },
        {
          "duration": 0.07446810000000426,
          "durationTicks": 14,
          "midi": 58,
          "name": "A#3",
          "ticks": 14401,
          "time": 76.60107915,
          "velocity": 0.7874015748031497
        },
        {
          "duration": 0.07446809999999005,
          "durationTicks": 14,
          "midi": 37,
          "name": "C#2",
          "ticks": 14521,
          "time": 77.23937715000001,
          "velocity": 0.9448818897637795
        },
        {
          "duration": 0.07446809999999005,
          "durationTicks": 14,
          "midi": 28,
          "name": "E1",
          "ticks": 14521,
          "time": 77.23937715000001,
          "velocity": 0.7874015748031497
        },
        {
          "duration": 0.07446809999999005,
          "durationTicks": 14,
          "midi": 37,
          "name": "C#2",
          "ticks": 14761,
          "time": 78.51597315000001,
          "velocity": 0.9448818897637795
        },
        {
          "duration": 0.07446809999999005,
          "durationTicks": 14,
          "midi": 28,
          "name": "E1",
          "ticks": 14761,
          "time": 78.51597315000001,
          "velocity": 0.7874015748031497
        },
        {
          "duration": 0.07446810000000426,
          "durationTicks": 14,
          "midi": 37,
          "name": "C#2",
          "ticks": 15001,
          "time": 79.79256915,
          "velocity": 0.9448818897637795
        },
        {
          "duration": 0.07446810000000426,
          "durationTicks": 14,
          "midi": 28,
          "name": "E1",
          "ticks": 15001,
          "time": 79.79256915,
          "velocity": 0.7874015748031497
        },
        {
          "duration": 0.07446810000000426,
          "durationTicks": 14,
          "midi": 37,
          "name": "C#2",
          "ticks": 15241,
          "time": 81.06916515,
          "velocity": 0.9448818897637795
        },
        {
          "duration": 0.07446810000000426,
          "durationTicks": 14,
          "midi": 28,
          "name": "E1",
          "ticks": 15241,
          "time": 81.06916515,
          "velocity": 0.7874015748031497
        },
        {
          "duration": 0.07446810000000426,
          "durationTicks": 14,
          "midi": 37,
          "name": "C#2",
          "ticks": 15481,
          "time": 82.34576115,
          "velocity": 0.9448818897637795
        },
        {
          "duration": 0.07446810000000426,
          "durationTicks": 14,
          "midi": 28,
          "name": "E1",
          "ticks": 15481,
          "time": 82.34576115,
          "velocity": 0.7874015748031497
        },
        {
          "duration": 0.07446810000000426,
          "durationTicks": 14,
          "midi": 37,
          "name": "C#2",
          "ticks": 15721,
          "time": 83.62235715,
          "velocity": 0.9448818897637795
        },
        {
          "duration": 0.07446810000000426,
          "durationTicks": 14,
          "midi": 28,
          "name": "E1",
          "ticks": 15721,
          "time": 83.62235715,
          "velocity": 0.7874015748031497
        },
        {
          "duration": 0.07446810000000426,
          "durationTicks": 14,
          "midi": 37,
          "name": "C#2",
          "ticks": 15961,
          "time": 84.89895315,
          "velocity": 0.9448818897637795
        },
        {
          "duration": 0.07446810000000426,
          "durationTicks": 14,
          "midi": 28,
          "name": "E1",
          "ticks": 15961,
          "time": 84.89895315,
          "velocity": 0.7874015748031497
        },
        {
          "duration": 0.07446810000000426,
          "durationTicks": 14,
          "midi": 37,
          "name": "C#2",
          "ticks": 16201,
          "time": 86.17554915,
          "velocity": 0.9448818897637795
        },
        {
          "duration": 0.07446810000000426,
          "durationTicks": 14,
          "midi": 28,
          "name": "E1",
          "ticks": 16201,
          "time": 86.17554915,
          "velocity": 0.7874015748031497
        },
        {
          "duration": 0.07446810000000426,
          "durationTicks": 14,
          "midi": 58,
          "name": "A#3",
          "ticks": 16321,
          "time": 86.81384715,
          "velocity": 0.7874015748031497
        },
        {
          "duration": 0.07446810000001847,
          "durationTicks": 14,
          "midi": 37,
          "name": "C#2",
          "ticks": 16441,
          "time": 87.45214514999999,
          "velocity": 0.9448818897637795
        },
        {
          "duration": 0.07446810000001847,
          "durationTicks": 14,
          "midi": 28,
          "name": "E1",
          "ticks": 16441,
          "time": 87.45214514999999,
          "velocity": 0.7874015748031497
        },
        {
          "duration": 0.07446810000000426,
          "durationTicks": 14,
          "midi": 37,
          "name": "C#2",
          "ticks": 16681,
          "time": 88.72874115,
          "velocity": 0.9448818897637795
        },
        {
          "duration": 0.07446810000000426,
          "durationTicks": 14,
          "midi": 28,
          "name": "E1",
          "ticks": 16681,
          "time": 88.72874115,
          "velocity": 0.7874015748031497
        },
        {
          "duration": 0.07446810000000426,
          "durationTicks": 14,
          "midi": 37,
          "name": "C#2",
          "ticks": 16921,
          "time": 90.00533715,
          "velocity": 0.9448818897637795
        },
        {
          "duration": 0.07446810000000426,
          "durationTicks": 14,
          "midi": 28,
          "name": "E1",
          "ticks": 16921,
          "time": 90.00533715,
          "velocity": 0.7874015748031497
        },
        {
          "duration": 0.07446810000000426,
          "durationTicks": 14,
          "midi": 37,
          "name": "C#2",
          "ticks": 17161,
          "time": 91.28193315,
          "velocity": 0.9448818897637795
        },
        {
          "duration": 0.07446810000000426,
          "durationTicks": 14,
          "midi": 28,
          "name": "E1",
          "ticks": 17161,
          "time": 91.28193315,
          "velocity": 0.7874015748031497
        },
        {
          "duration": 0.07446810000000426,
          "durationTicks": 14,
          "midi": 37,
          "name": "C#2",
          "ticks": 17401,
          "time": 92.55852915,
          "velocity": 0.9448818897637795
        },
        {
          "duration": 0.07446810000000426,
          "durationTicks": 14,
          "midi": 28,
          "name": "E1",
          "ticks": 17401,
          "time": 92.55852915,
          "velocity": 0.7874015748031497
        },
        {
          "duration": 0.07446810000000426,
          "durationTicks": 14,
          "midi": 37,
          "name": "C#2",
          "ticks": 17641,
          "time": 93.83512515,
          "velocity": 0.9448818897637795
        },
        {
          "duration": 0.07446810000000426,
          "durationTicks": 14,
          "midi": 28,
          "name": "E1",
          "ticks": 17641,
          "time": 93.83512515,
          "velocity": 0.7874015748031497
        },
        {
          "duration": 0.07446810000000426,
          "durationTicks": 14,
          "midi": 37,
          "name": "C#2",
          "ticks": 17881,
          "time": 95.11172115,
          "velocity": 0.9448818897637795
        },
        {
          "duration": 0.07446810000000426,
          "durationTicks": 14,
          "midi": 28,
          "name": "E1",
          "ticks": 17881,
          "time": 95.11172115,
          "velocity": 0.7874015748031497
        },
        {
          "duration": 0.07446810000000426,
          "durationTicks": 14,
          "midi": 37,
          "name": "C#2",
          "ticks": 18121,
          "time": 96.38831715,
          "velocity": 0.9448818897637795
        },
        {
          "duration": 0.07446810000000426,
          "durationTicks": 14,
          "midi": 28,
          "name": "E1",
          "ticks": 18121,
          "time": 96.38831715,
          "velocity": 0.7874015748031497
        },
        {
          "duration": 0.07446810000000426,
          "durationTicks": 14,
          "midi": 58,
          "name": "A#3",
          "ticks": 18241,
          "time": 97.02661515,
          "velocity": 0.7874015748031497
        },
        {
          "duration": 0.07446810000000426,
          "durationTicks": 14,
          "midi": 37,
          "name": "C#2",
          "ticks": 18361,
          "time": 97.66491315,
          "velocity": 0.9448818897637795
        },
        {
          "duration": 0.07446810000000426,
          "durationTicks": 14,
          "midi": 28,
          "name": "E1",
          "ticks": 18361,
          "time": 97.66491315,
          "velocity": 0.7874015748031497
        },
        {
          "duration": 0.07446810000000426,
          "durationTicks": 14,
          "midi": 37,
          "name": "C#2",
          "ticks": 18601,
          "time": 98.94150915,
          "velocity": 0.9448818897637795
        },
        {
          "duration": 0.07446810000000426,
          "durationTicks": 14,
          "midi": 28,
          "name": "E1",
          "ticks": 18601,
          "time": 98.94150915,
          "velocity": 0.7874015748031497
        },
        {
          "duration": 0.07446810000000426,
          "durationTicks": 14,
          "midi": 37,
          "name": "C#2",
          "ticks": 18841,
          "time": 100.21810515,
          "velocity": 0.9448818897637795
        },
        {
          "duration": 0.07446810000000426,
          "durationTicks": 14,
          "midi": 28,
          "name": "E1",
          "ticks": 18841,
          "time": 100.21810515,
          "velocity": 0.7874015748031497
        },
        {
          "duration": 0.07446810000000426,
          "durationTicks": 14,
          "midi": 37,
          "name": "C#2",
          "ticks": 19081,
          "time": 101.49470115,
          "velocity": 0.9448818897637795
        },
        {
          "duration": 0.07446810000000426,
          "durationTicks": 14,
          "midi": 28,
          "name": "E1",
          "ticks": 19081,
          "time": 101.49470115,
          "velocity": 0.7874015748031497
        },
        {
          "duration": 0.07446810000000426,
          "durationTicks": 14,
          "midi": 37,
          "name": "C#2",
          "ticks": 19321,
          "time": 102.77129715,
          "velocity": 0.9448818897637795
        },
        {
          "duration": 0.07446810000000426,
          "durationTicks": 14,
          "midi": 28,
          "name": "E1",
          "ticks": 19321,
          "time": 102.77129715,
          "velocity": 0.7874015748031497
        },
        {
          "duration": 0.07446810000000426,
          "durationTicks": 14,
          "midi": 37,
          "name": "C#2",
          "ticks": 19561,
          "time": 104.04789315000001,
          "velocity": 0.9448818897637795
        },
        {
          "duration": 0.07446810000000426,
          "durationTicks": 14,
          "midi": 28,
          "name": "E1",
          "ticks": 19561,
          "time": 104.04789315000001,
          "velocity": 0.7874015748031497
        },
        {
          "duration": 0.07446810000000426,
          "durationTicks": 14,
          "midi": 37,
          "name": "C#2",
          "ticks": 19801,
          "time": 105.32448915,
          "velocity": 0.9448818897637795
        },
        {
          "duration": 0.07446810000000426,
          "durationTicks": 14,
          "midi": 28,
          "name": "E1",
          "ticks": 19801,
          "time": 105.32448915,
          "velocity": 0.7874015748031497
        },
        {
          "duration": 0.07446810000000426,
          "durationTicks": 14,
          "midi": 37,
          "name": "C#2",
          "ticks": 20041,
          "time": 106.60108515,
          "velocity": 0.9448818897637795
        },
        {
          "duration": 0.07446810000000426,
          "durationTicks": 14,
          "midi": 28,
          "name": "E1",
          "ticks": 20041,
          "time": 106.60108515,
          "velocity": 0.7874015748031497
        },
        {
          "duration": 0.07446810000000426,
          "durationTicks": 14,
          "midi": 58,
          "name": "A#3",
          "ticks": 20161,
          "time": 107.23938315,
          "velocity": 0.7874015748031497
        },
        {
          "duration": 0.07446810000000426,
          "durationTicks": 14,
          "midi": 37,
          "name": "C#2",
          "ticks": 20281,
          "time": 107.87768115,
          "velocity": 0.9448818897637795
        },
        {
          "duration": 0.07446810000000426,
          "durationTicks": 14,
          "midi": 28,
          "name": "E1",
          "ticks": 20281,
          "time": 107.87768115,
          "velocity": 0.7874015748031497
        },
        {
          "duration": 0.07446810000000426,
          "durationTicks": 14,
          "midi": 37,
          "name": "C#2",
          "ticks": 20521,
          "time": 109.15427715,
          "velocity": 0.9448818897637795
        },
        {
          "duration": 0.07446810000000426,
          "durationTicks": 14,
          "midi": 28,
          "name": "E1",
          "ticks": 20521,
          "time": 109.15427715,
          "velocity": 0.7874015748031497
        },
        {
          "duration": 0.07446810000000426,
          "durationTicks": 14,
          "midi": 37,
          "name": "C#2",
          "ticks": 20761,
          "time": 110.43087315,
          "velocity": 0.9448818897637795
        },
        {
          "duration": 0.07446810000000426,
          "durationTicks": 14,
          "midi": 28,
          "name": "E1",
          "ticks": 20761,
          "time": 110.43087315,
          "velocity": 0.7874015748031497
        },
        {
          "duration": 0.07446810000000426,
          "durationTicks": 14,
          "midi": 37,
          "name": "C#2",
          "ticks": 21001,
          "time": 111.70746915,
          "velocity": 0.9448818897637795
        },
        {
          "duration": 0.07446810000000426,
          "durationTicks": 14,
          "midi": 28,
          "name": "E1",
          "ticks": 21001,
          "time": 111.70746915,
          "velocity": 0.7874015748031497
        },
        {
          "duration": 0.07446810000000426,
          "durationTicks": 14,
          "midi": 37,
          "name": "C#2",
          "ticks": 21241,
          "time": 112.98406515,
          "velocity": 0.9448818897637795
        },
        {
          "duration": 0.07446810000000426,
          "durationTicks": 14,
          "midi": 28,
          "name": "E1",
          "ticks": 21241,
          "time": 112.98406515,
          "velocity": 0.7874015748031497
        },
        {
          "duration": 0.07446810000000426,
          "durationTicks": 14,
          "midi": 37,
          "name": "C#2",
          "ticks": 21481,
          "time": 114.26066115,
          "velocity": 0.9448818897637795
        },
        {
          "duration": 0.07446810000000426,
          "durationTicks": 14,
          "midi": 28,
          "name": "E1",
          "ticks": 21481,
          "time": 114.26066115,
          "velocity": 0.7874015748031497
        },
        {
          "duration": 0.07446810000000426,
          "durationTicks": 14,
          "midi": 37,
          "name": "C#2",
          "ticks": 21721,
          "time": 115.53725715,
          "velocity": 0.9448818897637795
        },
        {
          "duration": 0.07446810000000426,
          "durationTicks": 14,
          "midi": 28,
          "name": "E1",
          "ticks": 21721,
          "time": 115.53725715,
          "velocity": 0.7874015748031497
        },
        {
          "duration": 0.07446810000000426,
          "durationTicks": 14,
          "midi": 37,
          "name": "C#2",
          "ticks": 21961,
          "time": 116.81385315,
          "velocity": 0.9448818897637795
        },
        {
          "duration": 0.07446810000000426,
          "durationTicks": 14,
          "midi": 28,
          "name": "E1",
          "ticks": 21961,
          "time": 116.81385315,
          "velocity": 0.7874015748031497
        },
        {
          "duration": 0.07446810000000426,
          "durationTicks": 14,
          "midi": 58,
          "name": "A#3",
          "ticks": 22081,
          "time": 117.45215115,
          "velocity": 0.7874015748031497
        },
        {
          "duration": 0.07446810000000426,
          "durationTicks": 14,
          "midi": 37,
          "name": "C#2",
          "ticks": 22201,
          "time": 118.09044915,
          "velocity": 0.9448818897637795
        },
        {
          "duration": 0.07446810000000426,
          "durationTicks": 14,
          "midi": 28,
          "name": "E1",
          "ticks": 22201,
          "time": 118.09044915,
          "velocity": 0.7874015748031497
        },
        {
          "duration": 0.07446810000000426,
          "durationTicks": 14,
          "midi": 37,
          "name": "C#2",
          "ticks": 22441,
          "time": 119.36704515,
          "velocity": 0.9448818897637795
        },
        {
          "duration": 0.07446810000000426,
          "durationTicks": 14,
          "midi": 28,
          "name": "E1",
          "ticks": 22441,
          "time": 119.36704515,
          "velocity": 0.7874015748031497
        },
        {
          "duration": 0.07446810000000426,
          "durationTicks": 14,
          "midi": 37,
          "name": "C#2",
          "ticks": 22681,
          "time": 120.64364115000001,
          "velocity": 0.9448818897637795
        },
        {
          "duration": 0.07446810000000426,
          "durationTicks": 14,
          "midi": 28,
          "name": "E1",
          "ticks": 22681,
          "time": 120.64364115000001,
          "velocity": 0.7874015748031497
        },
        {
          "duration": 0.07446810000000426,
          "durationTicks": 14,
          "midi": 37,
          "name": "C#2",
          "ticks": 22921,
          "time": 121.92023715,
          "velocity": 0.9448818897637795
        },
        {
          "duration": 0.07446810000000426,
          "durationTicks": 14,
          "midi": 28,
          "name": "E1",
          "ticks": 22921,
          "time": 121.92023715,
          "velocity": 0.7874015748031497
        },
        {
          "duration": 0.07446810000000426,
          "durationTicks": 14,
          "midi": 58,
          "name": "A#3",
          "ticks": 23041,
          "time": 122.55853515,
          "velocity": 0.7874015748031497
        },
        {
          "duration": 0.07446810000000426,
          "durationTicks": 14,
          "midi": 37,
          "name": "C#2",
          "ticks": 23161,
          "time": 123.19683315,
          "velocity": 0.9448818897637795
        },
        {
          "duration": 0.07446810000000426,
          "durationTicks": 14,
          "midi": 28,
          "name": "E1",
          "ticks": 23161,
          "time": 123.19683315,
          "velocity": 0.7874015748031497
        },
        {
          "duration": 0.07446810000000426,
          "durationTicks": 14,
          "midi": 37,
          "name": "C#2",
          "ticks": 23401,
          "time": 124.47342915,
          "velocity": 0.9448818897637795
        },
        {
          "duration": 0.07446810000000426,
          "durationTicks": 14,
          "midi": 28,
          "name": "E1",
          "ticks": 23401,
          "time": 124.47342915,
          "velocity": 0.7874015748031497
        },
        {
          "duration": 0.07446810000000426,
          "durationTicks": 14,
          "midi": 37,
          "name": "C#2",
          "ticks": 23641,
          "time": 125.75002515,
          "velocity": 0.9448818897637795
        },
        {
          "duration": 0.07446810000000426,
          "durationTicks": 14,
          "midi": 28,
          "name": "E1",
          "ticks": 23641,
          "time": 125.75002515,
          "velocity": 0.7874015748031497
        },
        {
          "duration": 0.07446810000000426,
          "durationTicks": 14,
          "midi": 37,
          "name": "C#2",
          "ticks": 23881,
          "time": 127.02662115,
          "velocity": 0.9448818897637795
        },
        {
          "duration": 0.07446810000000426,
          "durationTicks": 14,
          "midi": 28,
          "name": "E1",
          "ticks": 23881,
          "time": 127.02662115,
          "velocity": 0.7874015748031497
        },
        {
          "duration": 0.07446810000000426,
          "durationTicks": 14,
          "midi": 58,
          "name": "A#3",
          "ticks": 24001,
          "time": 127.66491915,
          "velocity": 0.7874015748031497
        },
        {
          "duration": 0.07446810000001847,
          "durationTicks": 14,
          "midi": 37,
          "name": "C#2",
          "ticks": 24121,
          "time": 128.30321715,
          "velocity": 0.9448818897637795
        },
        {
          "duration": 0.07446810000001847,
          "durationTicks": 14,
          "midi": 28,
          "name": "E1",
          "ticks": 24121,
          "time": 128.30321715,
          "velocity": 0.7874015748031497
        },
        {
          "duration": 0.07446809999999005,
          "durationTicks": 14,
          "midi": 37,
          "name": "C#2",
          "ticks": 24361,
          "time": 129.57981315,
          "velocity": 0.9448818897637795
        },
        {
          "duration": 0.07446809999999005,
          "durationTicks": 14,
          "midi": 28,
          "name": "E1",
          "ticks": 24361,
          "time": 129.57981315,
          "velocity": 0.7874015748031497
        },
        {
          "duration": 0.07446810000001847,
          "durationTicks": 14,
          "midi": 37,
          "name": "C#2",
          "ticks": 24601,
          "time": 130.85640915,
          "velocity": 0.9448818897637795
        },
        {
          "duration": 0.07446810000001847,
          "durationTicks": 14,
          "midi": 28,
          "name": "E1",
          "ticks": 24601,
          "time": 130.85640915,
          "velocity": 0.7874015748031497
        },
        {
          "duration": 0.07446809999999005,
          "durationTicks": 14,
          "midi": 37,
          "name": "C#2",
          "ticks": 24841,
          "time": 132.13300515,
          "velocity": 0.9448818897637795
        },
        {
          "duration": 0.07446809999999005,
          "durationTicks": 14,
          "midi": 28,
          "name": "E1",
          "ticks": 24841,
          "time": 132.13300515,
          "velocity": 0.7874015748031497
        },
        {
          "duration": 0.07446809999999005,
          "durationTicks": 14,
          "midi": 37,
          "name": "C#2",
          "ticks": 25081,
          "time": 133.40960115000001,
          "velocity": 0.9448818897637795
        },
        {
          "duration": 0.07446809999999005,
          "durationTicks": 14,
          "midi": 28,
          "name": "E1",
          "ticks": 25081,
          "time": 133.40960115000001,
          "velocity": 0.7874015748031497
        },
        {
          "duration": 0.07446810000001847,
          "durationTicks": 14,
          "midi": 37,
          "name": "C#2",
          "ticks": 25321,
          "time": 134.68619715,
          "velocity": 0.9448818897637795
        },
        {
          "duration": 0.07446810000001847,
          "durationTicks": 14,
          "midi": 28,
          "name": "E1",
          "ticks": 25321,
          "time": 134.68619715,
          "velocity": 0.7874015748031497
        },
        {
          "duration": 0.07446809999999005,
          "durationTicks": 14,
          "midi": 37,
          "name": "C#2",
          "ticks": 25561,
          "time": 135.96279315,
          "velocity": 0.9448818897637795
        },
        {
          "duration": 0.07446809999999005,
          "durationTicks": 14,
          "midi": 28,
          "name": "E1",
          "ticks": 25561,
          "time": 135.96279315,
          "velocity": 0.7874015748031497
        },
        {
          "duration": 0.07446810000001847,
          "durationTicks": 14,
          "midi": 37,
          "name": "C#2",
          "ticks": 25801,
          "time": 137.23938915,
          "velocity": 0.9448818897637795
        },
        {
          "duration": 0.07446810000001847,
          "durationTicks": 14,
          "midi": 28,
          "name": "E1",
          "ticks": 25801,
          "time": 137.23938915,
          "velocity": 0.7874015748031497
        },
        {
          "duration": 0.07446809999999005,
          "durationTicks": 14,
          "midi": 58,
          "name": "A#3",
          "ticks": 25921,
          "time": 137.87768715,
          "velocity": 0.7874015748031497
        },
        {
          "duration": 0.07446809999999005,
          "durationTicks": 14,
          "midi": 37,
          "name": "C#2",
          "ticks": 26041,
          "time": 138.51598515,
          "velocity": 0.9448818897637795
        },
        {
          "duration": 0.07446809999999005,
          "durationTicks": 14,
          "midi": 28,
          "name": "E1",
          "ticks": 26041,
          "time": 138.51598515,
          "velocity": 0.7874015748031497
        },
        {
          "duration": 0.07446810000001847,
          "durationTicks": 14,
          "midi": 37,
          "name": "C#2",
          "ticks": 26281,
          "time": 139.79258115,
          "velocity": 0.9448818897637795
        },
        {
          "duration": 0.07446810000001847,
          "durationTicks": 14,
          "midi": 28,
          "name": "E1",
          "ticks": 26281,
          "time": 139.79258115,
          "velocity": 0.7874015748031497
        },
        {
          "duration": 0.07446810000001847,
          "durationTicks": 14,
          "midi": 37,
          "name": "C#2",
          "ticks": 26521,
          "time": 141.06917715,
          "velocity": 0.9448818897637795
        },
        {
          "duration": 0.07446810000001847,
          "durationTicks": 14,
          "midi": 28,
          "name": "E1",
          "ticks": 26521,
          "time": 141.06917715,
          "velocity": 0.7874015748031497
        },
        {
          "duration": 0.07446809999999005,
          "durationTicks": 14,
          "midi": 37,
          "name": "C#2",
          "ticks": 26761,
          "time": 142.34577315,
          "velocity": 0.9448818897637795
        },
        {
          "duration": 0.07446809999999005,
          "durationTicks": 14,
          "midi": 28,
          "name": "E1",
          "ticks": 26761,
          "time": 142.34577315,
          "velocity": 0.7874015748031497
        },
        {
          "duration": 0.07446810000001847,
          "durationTicks": 14,
          "midi": 37,
          "name": "C#2",
          "ticks": 27001,
          "time": 143.62236915,
          "velocity": 0.9448818897637795
        },
        {
          "duration": 0.07446810000001847,
          "durationTicks": 14,
          "midi": 28,
          "name": "E1",
          "ticks": 27001,
          "time": 143.62236915,
          "velocity": 0.7874015748031497
        },
        {
          "duration": 0.07446809999999005,
          "durationTicks": 14,
          "midi": 37,
          "name": "C#2",
          "ticks": 27241,
          "time": 144.89896515,
          "velocity": 0.9448818897637795
        },
        {
          "duration": 0.07446809999999005,
          "durationTicks": 14,
          "midi": 28,
          "name": "E1",
          "ticks": 27241,
          "time": 144.89896515,
          "velocity": 0.7874015748031497
        },
        {
          "duration": 0.07446810000001847,
          "durationTicks": 14,
          "midi": 37,
          "name": "C#2",
          "ticks": 27481,
          "time": 146.17556115,
          "velocity": 0.9448818897637795
        },
        {
          "duration": 0.07446810000001847,
          "durationTicks": 14,
          "midi": 28,
          "name": "E1",
          "ticks": 27481,
          "time": 146.17556115,
          "velocity": 0.7874015748031497
        },
        {
          "duration": 0.07446809999999005,
          "durationTicks": 14,
          "midi": 37,
          "name": "C#2",
          "ticks": 27721,
          "time": 147.45215715,
          "velocity": 0.9448818897637795
        },
        {
          "duration": 0.07446809999999005,
          "durationTicks": 14,
          "midi": 28,
          "name": "E1",
          "ticks": 27721,
          "time": 147.45215715,
          "velocity": 0.7874015748031497
        },
        {
          "duration": 0.07446810000001847,
          "durationTicks": 14,
          "midi": 58,
          "name": "A#3",
          "ticks": 27841,
          "time": 148.09045515,
          "velocity": 0.7874015748031497
        },
        {
          "duration": 0.07446810000001847,
          "durationTicks": 14,
          "midi": 37,
          "name": "C#2",
          "ticks": 27961,
          "time": 148.72875315,
          "velocity": 0.9448818897637795
        },
        {
          "duration": 0.07446810000001847,
          "durationTicks": 14,
          "midi": 28,
          "name": "E1",
          "ticks": 27961,
          "time": 148.72875315,
          "velocity": 0.7874015748031497
        },
        {
          "duration": 0.07446810000001847,
          "durationTicks": 14,
          "midi": 37,
          "name": "C#2",
          "ticks": 28201,
          "time": 150.00534915,
          "velocity": 0.9448818897637795
        },
        {
          "duration": 0.07446810000001847,
          "durationTicks": 14,
          "midi": 28,
          "name": "E1",
          "ticks": 28201,
          "time": 150.00534915,
          "velocity": 0.7874015748031497
        },
        {
          "duration": 0.07446809999999005,
          "durationTicks": 14,
          "midi": 37,
          "name": "C#2",
          "ticks": 28441,
          "time": 151.28194515,
          "velocity": 0.9448818897637795
        },
        {
          "duration": 0.07446809999999005,
          "durationTicks": 14,
          "midi": 28,
          "name": "E1",
          "ticks": 28441,
          "time": 151.28194515,
          "velocity": 0.7874015748031497
        },
        {
          "duration": 0.07446810000001847,
          "durationTicks": 14,
          "midi": 37,
          "name": "C#2",
          "ticks": 28681,
          "time": 152.55854115,
          "velocity": 0.9448818897637795
        },
        {
          "duration": 0.07446810000001847,
          "durationTicks": 14,
          "midi": 28,
          "name": "E1",
          "ticks": 28681,
          "time": 152.55854115,
          "velocity": 0.7874015748031497
        },
        {
          "duration": 0.07446809999999005,
          "durationTicks": 14,
          "midi": 37,
          "name": "C#2",
          "ticks": 28921,
          "time": 153.83513715,
          "velocity": 0.9448818897637795
        },
        {
          "duration": 0.07446809999999005,
          "durationTicks": 14,
          "midi": 28,
          "name": "E1",
          "ticks": 28921,
          "time": 153.83513715,
          "velocity": 0.7874015748031497
        },
        {
          "duration": 0.07446810000001847,
          "durationTicks": 14,
          "midi": 37,
          "name": "C#2",
          "ticks": 29161,
          "time": 155.11173315,
          "velocity": 0.9448818897637795
        },
        {
          "duration": 0.07446810000001847,
          "durationTicks": 14,
          "midi": 28,
          "name": "E1",
          "ticks": 29161,
          "time": 155.11173315,
          "velocity": 0.7874015748031497
        },
        {
          "duration": 0.07446809999999005,
          "durationTicks": 14,
          "midi": 37,
          "name": "C#2",
          "ticks": 29401,
          "time": 156.38832915,
          "velocity": 0.9448818897637795
        },
        {
          "duration": 0.07446809999999005,
          "durationTicks": 14,
          "midi": 28,
          "name": "E1",
          "ticks": 29401,
          "time": 156.38832915,
          "velocity": 0.7874015748031497
        },
        {
          "duration": 0.07446809999999005,
          "durationTicks": 14,
          "midi": 37,
          "name": "C#2",
          "ticks": 29641,
          "time": 157.66492515000002,
          "velocity": 0.9448818897637795
        },
        {
          "duration": 0.07446809999999005,
          "durationTicks": 14,
          "midi": 28,
          "name": "E1",
          "ticks": 29641,
          "time": 157.66492515000002,
          "velocity": 0.7874015748031497
        },
        {
          "duration": 0.07446809999999005,
          "durationTicks": 14,
          "midi": 58,
          "name": "A#3",
          "ticks": 29761,
          "time": 158.30322315,
          "velocity": 0.7874015748031497
        },
        {
          "duration": 0.07446810000001847,
          "durationTicks": 14,
          "midi": 37,
          "name": "C#2",
          "ticks": 29881,
          "time": 158.94152115,
          "velocity": 0.9448818897637795
        },
        {
          "duration": 0.07446810000001847,
          "durationTicks": 14,
          "midi": 28,
          "name": "E1",
          "ticks": 29881,
          "time": 158.94152115,
          "velocity": 0.7874015748031497
        },
        {
          "duration": 0.07446809999999005,
          "durationTicks": 14,
          "midi": 37,
          "name": "C#2",
          "ticks": 30121,
          "time": 160.21811715,
          "velocity": 0.9448818897637795
        },
        {
          "duration": 0.07446809999999005,
          "durationTicks": 14,
          "midi": 28,
          "name": "E1",
          "ticks": 30121,
          "time": 160.21811715,
          "velocity": 0.7874015748031497
        },
        {
          "duration": 0.07446810000001847,
          "durationTicks": 14,
          "midi": 37,
          "name": "C#2",
          "ticks": 30361,
          "time": 161.49471315,
          "velocity": 0.9448818897637795
        },
        {
          "duration": 0.07446810000001847,
          "durationTicks": 14,
          "midi": 28,
          "name": "E1",
          "ticks": 30361,
          "time": 161.49471315,
          "velocity": 0.7874015748031497
        },
        {
          "duration": 0.07446809999999005,
          "durationTicks": 14,
          "midi": 37,
          "name": "C#2",
          "ticks": 30601,
          "time": 162.77130915,
          "velocity": 0.9448818897637795
        },
        {
          "duration": 0.07446809999999005,
          "durationTicks": 14,
          "midi": 28,
          "name": "E1",
          "ticks": 30601,
          "time": 162.77130915,
          "velocity": 0.7874015748031497
        },
        {
          "duration": 0.07446810000001847,
          "durationTicks": 14,
          "midi": 37,
          "name": "C#2",
          "ticks": 30841,
          "time": 164.04790515,
          "velocity": 0.9448818897637795
        },
        {
          "duration": 0.07446810000001847,
          "durationTicks": 14,
          "midi": 28,
          "name": "E1",
          "ticks": 30841,
          "time": 164.04790515,
          "velocity": 0.7874015748031497
        },
        {
          "duration": 0.07446810000001847,
          "durationTicks": 14,
          "midi": 37,
          "name": "C#2",
          "ticks": 31081,
          "time": 165.32450115,
          "velocity": 0.9448818897637795
        },
        {
          "duration": 0.07446810000001847,
          "durationTicks": 14,
          "midi": 28,
          "name": "E1",
          "ticks": 31081,
          "time": 165.32450115,
          "velocity": 0.7874015748031497
        },
        {
          "duration": 0.07446809999999005,
          "durationTicks": 14,
          "midi": 37,
          "name": "C#2",
          "ticks": 31321,
          "time": 166.60109715000002,
          "velocity": 0.9448818897637795
        },
        {
          "duration": 0.07446809999999005,
          "durationTicks": 14,
          "midi": 28,
          "name": "E1",
          "ticks": 31321,
          "time": 166.60109715000002,
          "velocity": 0.7874015748031497
        },
        {
          "duration": 0.07446810000001847,
          "durationTicks": 14,
          "midi": 37,
          "name": "C#2",
          "ticks": 31561,
          "time": 167.87769315,
          "velocity": 0.9448818897637795
        },
        {
          "duration": 0.07446810000001847,
          "durationTicks": 14,
          "midi": 28,
          "name": "E1",
          "ticks": 31561,
          "time": 167.87769315,
          "velocity": 0.7874015748031497
        },
        {
          "duration": 0.07446810000001847,
          "durationTicks": 14,
          "midi": 58,
          "name": "A#3",
          "ticks": 31681,
          "time": 168.51599115,
          "velocity": 0.7874015748031497
        },
        {
          "duration": 0.07446809999999005,
          "durationTicks": 14,
          "midi": 37,
          "name": "C#2",
          "ticks": 31801,
          "time": 169.15428915,
          "velocity": 0.9448818897637795
        },
        {
          "duration": 0.07446809999999005,
          "durationTicks": 14,
          "midi": 28,
          "name": "E1",
          "ticks": 31801,
          "time": 169.15428915,
          "velocity": 0.7874015748031497
        },
        {
          "duration": 0.07446810000001847,
          "durationTicks": 14,
          "midi": 37,
          "name": "C#2",
          "ticks": 32041,
          "time": 170.43088515,
          "velocity": 0.9448818897637795
        },
        {
          "duration": 0.07446810000001847,
          "durationTicks": 14,
          "midi": 28,
          "name": "E1",
          "ticks": 32041,
          "time": 170.43088515,
          "velocity": 0.7874015748031497
        },
        {
          "duration": 0.07446809999999005,
          "durationTicks": 14,
          "midi": 37,
          "name": "C#2",
          "ticks": 32281,
          "time": 171.70748115,
          "velocity": 0.9448818897637795
        },
        {
          "duration": 0.07446809999999005,
          "durationTicks": 14,
          "midi": 28,
          "name": "E1",
          "ticks": 32281,
          "time": 171.70748115,
          "velocity": 0.7874015748031497
        },
        {
          "duration": 0.07446810000001847,
          "durationTicks": 14,
          "midi": 37,
          "name": "C#2",
          "ticks": 32521,
          "time": 172.98407715,
          "velocity": 0.9448818897637795
        },
        {
          "duration": 0.07446810000001847,
          "durationTicks": 14,
          "midi": 28,
          "name": "E1",
          "ticks": 32521,
          "time": 172.98407715,
          "velocity": 0.7874015748031497
        },
        {
          "duration": 0.07446810000001847,
          "durationTicks": 14,
          "midi": 37,
          "name": "C#2",
          "ticks": 32761,
          "time": 174.26067315,
          "velocity": 0.9448818897637795
        },
        {
          "duration": 0.07446810000001847,
          "durationTicks": 14,
          "midi": 28,
          "name": "E1",
          "ticks": 32761,
          "time": 174.26067315,
          "velocity": 0.7874015748031497
        },
        {
          "duration": 0.07446809999999005,
          "durationTicks": 14,
          "midi": 37,
          "name": "C#2",
          "ticks": 33001,
          "time": 175.53726915000001,
          "velocity": 0.9448818897637795
        },
        {
          "duration": 0.07446809999999005,
          "durationTicks": 14,
          "midi": 28,
          "name": "E1",
          "ticks": 33001,
          "time": 175.53726915000001,
          "velocity": 0.7874015748031497
        },
        {
          "duration": 0.07446810000001847,
          "durationTicks": 14,
          "midi": 37,
          "name": "C#2",
          "ticks": 33241,
          "time": 176.81386515,
          "velocity": 0.9448818897637795
        },
        {
          "duration": 0.07446810000001847,
          "durationTicks": 14,
          "midi": 28,
          "name": "E1",
          "ticks": 33241,
          "time": 176.81386515,
          "velocity": 0.7874015748031497
        },
        {
          "duration": 0.07446809999999005,
          "durationTicks": 14,
          "midi": 37,
          "name": "C#2",
          "ticks": 33481,
          "time": 178.09046115,
          "velocity": 0.9448818897637795
        },
        {
          "duration": 0.07446809999999005,
          "durationTicks": 14,
          "midi": 28,
          "name": "E1",
          "ticks": 33481,
          "time": 178.09046115,
          "velocity": 0.7874015748031497
        },
        {
          "duration": 0.07446810000001847,
          "durationTicks": 14,
          "midi": 58,
          "name": "A#3",
          "ticks": 33601,
          "time": 178.72875915,
          "velocity": 0.7874015748031497
        },
        {
          "duration": 0.07446810000001847,
          "durationTicks": 14,
          "midi": 37,
          "name": "C#2",
          "ticks": 33721,
          "time": 179.36705715,
          "velocity": 0.9448818897637795
        },
        {
          "duration": 0.07446810000001847,
          "durationTicks": 14,
          "midi": 28,
          "name": "E1",
          "ticks": 33721,
          "time": 179.36705715,
          "velocity": 0.7874015748031497
        },
        {
          "duration": 0.07446809999999005,
          "durationTicks": 14,
          "midi": 37,
          "name": "C#2",
          "ticks": 33961,
          "time": 180.64365315,
          "velocity": 0.9448818897637795
        },
        {
          "duration": 0.07446809999999005,
          "durationTicks": 14,
          "midi": 28,
          "name": "E1",
          "ticks": 33961,
          "time": 180.64365315,
          "velocity": 0.7874015748031497
        },
        {
          "duration": 0.07446809999999005,
          "durationTicks": 14,
          "midi": 37,
          "name": "C#2",
          "ticks": 34201,
          "time": 181.92024915000002,
          "velocity": 0.9448818897637795
        },
        {
          "duration": 0.07446809999999005,
          "durationTicks": 14,
          "midi": 28,
          "name": "E1",
          "ticks": 34201,
          "time": 181.92024915000002,
          "velocity": 0.7874015748031497
        },
        {
          "duration": 0.07446810000001847,
          "durationTicks": 14,
          "midi": 37,
          "name": "C#2",
          "ticks": 34441,
          "time": 183.19684515,
          "velocity": 0.9448818897637795
        },
        {
          "duration": 0.07446810000001847,
          "durationTicks": 14,
          "midi": 28,
          "name": "E1",
          "ticks": 34441,
          "time": 183.19684515,
          "velocity": 0.7874015748031497
        },
        {
          "duration": 0.07446809999999005,
          "durationTicks": 14,
          "midi": 37,
          "name": "C#2",
          "ticks": 34681,
          "time": 184.47344115,
          "velocity": 0.9448818897637795
        },
        {
          "duration": 0.07446809999999005,
          "durationTicks": 14,
          "midi": 28,
          "name": "E1",
          "ticks": 34681,
          "time": 184.47344115,
          "velocity": 0.7874015748031497
        },
        {
          "duration": 0.07446810000001847,
          "durationTicks": 14,
          "midi": 37,
          "name": "C#2",
          "ticks": 34921,
          "time": 185.75003715,
          "velocity": 0.9448818897637795
        },
        {
          "duration": 0.07446810000001847,
          "durationTicks": 14,
          "midi": 28,
          "name": "E1",
          "ticks": 34921,
          "time": 185.75003715,
          "velocity": 0.7874015748031497
        },
        {
          "duration": 0.07446809999999005,
          "durationTicks": 14,
          "midi": 37,
          "name": "C#2",
          "ticks": 35161,
          "time": 187.02663315,
          "velocity": 0.9448818897637795
        },
        {
          "duration": 0.07446809999999005,
          "durationTicks": 14,
          "midi": 28,
          "name": "E1",
          "ticks": 35161,
          "time": 187.02663315,
          "velocity": 0.7874015748031497
        },
        {
          "duration": 0.07446810000001847,
          "durationTicks": 14,
          "midi": 37,
          "name": "C#2",
          "ticks": 35401,
          "time": 188.30322915,
          "velocity": 0.9448818897637795
        },
        {
          "duration": 0.07446810000001847,
          "durationTicks": 14,
          "midi": 28,
          "name": "E1",
          "ticks": 35401,
          "time": 188.30322915,
          "velocity": 0.7874015748031497
        },
        {
          "duration": 0.07446809999999005,
          "durationTicks": 14,
          "midi": 58,
          "name": "A#3",
          "ticks": 35521,
          "time": 188.94152715,
          "velocity": 0.7874015748031497
        },
        {
          "duration": 0.07446810000001847,
          "durationTicks": 14,
          "midi": 37,
          "name": "C#2",
          "ticks": 35641,
          "time": 189.57982515,
          "velocity": 0.9448818897637795
        },
        {
          "duration": 0.07446810000001847,
          "durationTicks": 14,
          "midi": 28,
          "name": "E1",
          "ticks": 35641,
          "time": 189.57982515,
          "velocity": 0.7874015748031497
        },
        {
          "duration": 0.07446809999999005,
          "durationTicks": 14,
          "midi": 37,
          "name": "C#2",
          "ticks": 35881,
          "time": 190.85642115000002,
          "velocity": 0.9448818897637795
        },
        {
          "duration": 0.07446809999999005,
          "durationTicks": 14,
          "midi": 28,
          "name": "E1",
          "ticks": 35881,
          "time": 190.85642115000002,
          "velocity": 0.7874015748031497
        },
        {
          "duration": 0.07446810000001847,
          "durationTicks": 14,
          "midi": 37,
          "name": "C#2",
          "ticks": 36121,
          "time": 192.13301715,
          "velocity": 0.9448818897637795
        },
        {
          "duration": 0.07446810000001847,
          "durationTicks": 14,
          "midi": 28,
          "name": "E1",
          "ticks": 36121,
          "time": 192.13301715,
          "velocity": 0.7874015748031497
        },
        {
          "duration": 0.07446809999999005,
          "durationTicks": 14,
          "midi": 37,
          "name": "C#2",
          "ticks": 36361,
          "time": 193.40961315,
          "velocity": 0.9448818897637795
        },
        {
          "duration": 0.07446809999999005,
          "durationTicks": 14,
          "midi": 28,
          "name": "E1",
          "ticks": 36361,
          "time": 193.40961315,
          "velocity": 0.7874015748031497
        },
        {
          "duration": 0.07446810000001847,
          "durationTicks": 14,
          "midi": 37,
          "name": "C#2",
          "ticks": 36601,
          "time": 194.68620915,
          "velocity": 0.9448818897637795
        },
        {
          "duration": 0.07446810000001847,
          "durationTicks": 14,
          "midi": 28,
          "name": "E1",
          "ticks": 36601,
          "time": 194.68620915,
          "velocity": 0.7874015748031497
        },
        {
          "duration": 0.07446809999999005,
          "durationTicks": 14,
          "midi": 37,
          "name": "C#2",
          "ticks": 36841,
          "time": 195.96280515,
          "velocity": 0.9448818897637795
        },
        {
          "duration": 0.07446809999999005,
          "durationTicks": 14,
          "midi": 28,
          "name": "E1",
          "ticks": 36841,
          "time": 195.96280515,
          "velocity": 0.7874015748031497
        },
        {
          "duration": 0.07446810000001847,
          "durationTicks": 14,
          "midi": 37,
          "name": "C#2",
          "ticks": 37081,
          "time": 197.23940115,
          "velocity": 0.9448818897637795
        },
        {
          "duration": 0.07446810000001847,
          "durationTicks": 14,
          "midi": 28,
          "name": "E1",
          "ticks": 37081,
          "time": 197.23940115,
          "velocity": 0.7874015748031497
        },
        {
          "duration": 0.07446810000001847,
          "durationTicks": 14,
          "midi": 37,
          "name": "C#2",
          "ticks": 37321,
          "time": 198.51599715,
          "velocity": 0.9448818897637795
        },
        {
          "duration": 0.07446810000001847,
          "durationTicks": 14,
          "midi": 28,
          "name": "E1",
          "ticks": 37321,
          "time": 198.51599715,
          "velocity": 0.7874015748031497
        },
        {
          "duration": 0.07446810000001847,
          "durationTicks": 14,
          "midi": 58,
          "name": "A#3",
          "ticks": 37441,
          "time": 199.15429515,
          "velocity": 0.7874015748031497
        },
        {
          "duration": 0.07446809999999005,
          "durationTicks": 14,
          "midi": 37,
          "name": "C#2",
          "ticks": 37561,
          "time": 199.79259315000002,
          "velocity": 0.9448818897637795
        },
        {
          "duration": 0.07446809999999005,
          "durationTicks": 14,
          "midi": 28,
          "name": "E1",
          "ticks": 37561,
          "time": 199.79259315000002,
          "velocity": 0.7874015748031497
        },
        {
          "duration": 0.07446810000001847,
          "durationTicks": 14,
          "midi": 37,
          "name": "C#2",
          "ticks": 37801,
          "time": 201.06918915,
          "velocity": 0.9448818897637795
        },
        {
          "duration": 0.07446810000001847,
          "durationTicks": 14,
          "midi": 28,
          "name": "E1",
          "ticks": 37801,
          "time": 201.06918915,
          "velocity": 0.7874015748031497
        },
        {
          "duration": 0.07446809999999005,
          "durationTicks": 14,
          "midi": 37,
          "name": "C#2",
          "ticks": 38041,
          "time": 202.34578515,
          "velocity": 0.9448818897637795
        },
        {
          "duration": 0.07446809999999005,
          "durationTicks": 14,
          "midi": 28,
          "name": "E1",
          "ticks": 38041,
          "time": 202.34578515,
          "velocity": 0.7874015748031497
        },
        {
          "duration": 0.07446810000001847,
          "durationTicks": 14,
          "midi": 37,
          "name": "C#2",
          "ticks": 38281,
          "time": 203.62238115,
          "velocity": 0.9448818897637795
        },
        {
          "duration": 0.07446810000001847,
          "durationTicks": 14,
          "midi": 28,
          "name": "E1",
          "ticks": 38281,
          "time": 203.62238115,
          "velocity": 0.7874015748031497
        },
        {
          "duration": 0.07446809999999005,
          "durationTicks": 14,
          "midi": 37,
          "name": "C#2",
          "ticks": 38521,
          "time": 204.89897715,
          "velocity": 0.9448818897637795
        },
        {
          "duration": 0.07446809999999005,
          "durationTicks": 14,
          "midi": 28,
          "name": "E1",
          "ticks": 38521,
          "time": 204.89897715,
          "velocity": 0.7874015748031497
        },
        {
          "duration": 0.07446809999999005,
          "durationTicks": 14,
          "midi": 37,
          "name": "C#2",
          "ticks": 38761,
          "time": 206.17557315000002,
          "velocity": 0.9448818897637795
        },
        {
          "duration": 0.07446809999999005,
          "durationTicks": 14,
          "midi": 28,
          "name": "E1",
          "ticks": 38761,
          "time": 206.17557315000002,
          "velocity": 0.7874015748031497
        },
        {
          "duration": 0.07446810000001847,
          "durationTicks": 14,
          "midi": 37,
          "name": "C#2",
          "ticks": 39001,
          "time": 207.45216915,
          "velocity": 0.9448818897637795
        },
        {
          "duration": 0.07446810000001847,
          "durationTicks": 14,
          "midi": 28,
          "name": "E1",
          "ticks": 39001,
          "time": 207.45216915,
          "velocity": 0.7874015748031497
        },
        {
          "duration": 0.07446809999999005,
          "durationTicks": 14,
          "midi": 37,
          "name": "C#2",
          "ticks": 39241,
          "time": 208.72876515000002,
          "velocity": 0.9448818897637795
        },
        {
          "duration": 0.07446809999999005,
          "durationTicks": 14,
          "midi": 28,
          "name": "E1",
          "ticks": 39241,
          "time": 208.72876515000002,
          "velocity": 0.7874015748031497
        },
        {
          "duration": 0.07446809999999005,
          "durationTicks": 14,
          "midi": 58,
          "name": "A#3",
          "ticks": 39361,
          "time": 209.36706315,
          "velocity": 0.7874015748031497
        },
        {
          "duration": 0.07446810000001847,
          "durationTicks": 14,
          "midi": 37,
          "name": "C#2",
          "ticks": 39481,
          "time": 210.00536115,
          "velocity": 0.9448818897637795
        },
        {
          "duration": 0.07446810000001847,
          "durationTicks": 14,
          "midi": 28,
          "name": "E1",
          "ticks": 39481,
          "time": 210.00536115,
          "velocity": 0.7874015748031497
        },
        {
          "duration": 0.07446809999999005,
          "durationTicks": 14,
          "midi": 37,
          "name": "C#2",
          "ticks": 39721,
          "time": 211.28195715,
          "velocity": 0.9448818897637795
        },
        {
          "duration": 0.07446809999999005,
          "durationTicks": 14,
          "midi": 28,
          "name": "E1",
          "ticks": 39721,
          "time": 211.28195715,
          "velocity": 0.7874015748031497
        },
        {
          "duration": 0.07446810000001847,
          "durationTicks": 14,
          "midi": 37,
          "name": "C#2",
          "ticks": 39961,
          "time": 212.55855315,
          "velocity": 0.9448818897637795
        },
        {
          "duration": 0.07446810000001847,
          "durationTicks": 14,
          "midi": 28,
          "name": "E1",
          "ticks": 39961,
          "time": 212.55855315,
          "velocity": 0.7874015748031497
        },
        {
          "duration": 0.07446809999999005,
          "durationTicks": 14,
          "midi": 37,
          "name": "C#2",
          "ticks": 40201,
          "time": 213.83514915,
          "velocity": 0.9448818897637795
        },
        {
          "duration": 0.07446809999999005,
          "durationTicks": 14,
          "midi": 28,
          "name": "E1",
          "ticks": 40201,
          "time": 213.83514915,
          "velocity": 0.7874015748031497
        },
        {
          "duration": 0.07446809999999005,
          "durationTicks": 14,
          "midi": 37,
          "name": "C#2",
          "ticks": 40441,
          "time": 215.11174515000002,
          "velocity": 0.9448818897637795
        },
        {
          "duration": 0.07446809999999005,
          "durationTicks": 14,
          "midi": 28,
          "name": "E1",
          "ticks": 40441,
          "time": 215.11174515000002,
          "velocity": 0.7874015748031497
        },
        {
          "duration": 0.07446810000001847,
          "durationTicks": 14,
          "midi": 37,
          "name": "C#2",
          "ticks": 40681,
          "time": 216.38834115,
          "velocity": 0.9448818897637795
        },
        {
          "duration": 0.07446810000001847,
          "durationTicks": 14,
          "midi": 28,
          "name": "E1",
          "ticks": 40681,
          "time": 216.38834115,
          "velocity": 0.7874015748031497
        },
        {
          "duration": 0.07446809999999005,
          "durationTicks": 14,
          "midi": 37,
          "name": "C#2",
          "ticks": 40921,
          "time": 217.66493715000001,
          "velocity": 0.9448818897637795
        },
        {
          "duration": 0.07446809999999005,
          "durationTicks": 14,
          "midi": 28,
          "name": "E1",
          "ticks": 40921,
          "time": 217.66493715000001,
          "velocity": 0.7874015748031497
        },
        {
          "duration": 0.07446810000001847,
          "durationTicks": 14,
          "midi": 37,
          "name": "C#2",
          "ticks": 41161,
          "time": 218.94153315,
          "velocity": 0.9448818897637795
        },
        {
          "duration": 0.07446810000001847,
          "durationTicks": 14,
          "midi": 28,
          "name": "E1",
          "ticks": 41161,
          "time": 218.94153315,
          "velocity": 0.7874015748031497
        },
        {
          "duration": 0.07446809999999005,
          "durationTicks": 14,
          "midi": 58,
          "name": "A#3",
          "ticks": 41281,
          "time": 219.57983115000002,
          "velocity": 0.7874015748031497
        },
        {
          "duration": 0.07446809999999005,
          "durationTicks": 14,
          "midi": 37,
          "name": "C#2",
          "ticks": 41401,
          "time": 220.21812915,
          "velocity": 0.9448818897637795
        },
        {
          "duration": 0.07446809999999005,
          "durationTicks": 14,
          "midi": 28,
          "name": "E1",
          "ticks": 41401,
          "time": 220.21812915,
          "velocity": 0.7874015748031497
        },
        {
          "duration": 0.07446810000001847,
          "durationTicks": 14,
          "midi": 37,
          "name": "C#2",
          "ticks": 41641,
          "time": 221.49472515,
          "velocity": 0.9448818897637795
        },
        {
          "duration": 0.07446810000001847,
          "durationTicks": 14,
          "midi": 28,
          "name": "E1",
          "ticks": 41641,
          "time": 221.49472515,
          "velocity": 0.7874015748031497
        },
        {
          "duration": 0.07446810000001847,
          "durationTicks": 14,
          "midi": 37,
          "name": "C#2",
          "ticks": 41881,
          "time": 222.77132115,
          "velocity": 0.9448818897637795
        },
        {
          "duration": 0.07446810000001847,
          "durationTicks": 14,
          "midi": 28,
          "name": "E1",
          "ticks": 41881,
          "time": 222.77132115,
          "velocity": 0.7874015748031497
        },
        {
          "duration": 0.07446809999999005,
          "durationTicks": 14,
          "midi": 37,
          "name": "C#2",
          "ticks": 42121,
          "time": 224.04791715000002,
          "velocity": 0.9448818897637795
        },
        {
          "duration": 0.07446809999999005,
          "durationTicks": 14,
          "midi": 28,
          "name": "E1",
          "ticks": 42121,
          "time": 224.04791715000002,
          "velocity": 0.7874015748031497
        },
        {
          "duration": 0.07446809999999005,
          "durationTicks": 14,
          "midi": 58,
          "name": "A#3",
          "ticks": 42241,
          "time": 224.68621515,
          "velocity": 0.7874015748031497
        },
        {
          "duration": 0.07446810000001847,
          "durationTicks": 14,
          "midi": 37,
          "name": "C#2",
          "ticks": 42361,
          "time": 225.32451315,
          "velocity": 0.9448818897637795
        },
        {
          "duration": 0.07446810000001847,
          "durationTicks": 14,
          "midi": 28,
          "name": "E1",
          "ticks": 42361,
          "time": 225.32451315,
          "velocity": 0.7874015748031497
        },
        {
          "duration": 0.07446809999999005,
          "durationTicks": 14,
          "midi": 37,
          "name": "C#2",
          "ticks": 42601,
          "time": 226.60110915,
          "velocity": 0.9448818897637795
        },
        {
          "duration": 0.07446809999999005,
          "durationTicks": 14,
          "midi": 28,
          "name": "E1",
          "ticks": 42601,
          "time": 226.60110915,
          "velocity": 0.7874015748031497
        },
        {
          "duration": 0.07446810000001847,
          "durationTicks": 14,
          "midi": 37,
          "name": "C#2",
          "ticks": 42841,
          "time": 227.87770515,
          "velocity": 0.9448818897637795
        },
        {
          "duration": 0.07446810000001847,
          "durationTicks": 14,
          "midi": 28,
          "name": "E1",
          "ticks": 42841,
          "time": 227.87770515,
          "velocity": 0.7874015748031497
        },
        {
          "duration": 0.07446809999999005,
          "durationTicks": 14,
          "midi": 37,
          "name": "C#2",
          "ticks": 43081,
          "time": 229.15430115,
          "velocity": 0.9448818897637795
        },
        {
          "duration": 0.07446809999999005,
          "durationTicks": 14,
          "midi": 28,
          "name": "E1",
          "ticks": 43081,
          "time": 229.15430115,
          "velocity": 0.7874015748031497
        },
        {
          "duration": 0.07446810000001847,
          "durationTicks": 14,
          "midi": 58,
          "name": "A#3",
          "ticks": 43201,
          "time": 229.79259915,
          "velocity": 0.7874015748031497
        },
        {
          "duration": 0.07446810000001847,
          "durationTicks": 14,
          "midi": 37,
          "name": "C#2",
          "ticks": 43321,
          "time": 230.43089715,
          "velocity": 0.9448818897637795
        },
        {
          "duration": 0.07446810000001847,
          "durationTicks": 14,
          "midi": 28,
          "name": "E1",
          "ticks": 43321,
          "time": 230.43089715,
          "velocity": 0.7874015748031497
        },
        {
          "duration": 0.07446810000001847,
          "durationTicks": 14,
          "midi": 37,
          "name": "C#2",
          "ticks": 43561,
          "time": 231.70749315,
          "velocity": 0.9448818897637795
        },
        {
          "duration": 0.07446810000001847,
          "durationTicks": 14,
          "midi": 28,
          "name": "E1",
          "ticks": 43561,
          "time": 231.70749315,
          "velocity": 0.7874015748031497
        },
        {
          "duration": 0.07446809999999005,
          "durationTicks": 14,
          "midi": 37,
          "name": "C#2",
          "ticks": 43801,
          "time": 232.98408915000002,
          "velocity": 0.9448818897637795
        },
        {
          "duration": 0.07446809999999005,
          "durationTicks": 14,
          "midi": 28,
          "name": "E1",
          "ticks": 43801,
          "time": 232.98408915000002,
          "velocity": 0.7874015748031497
        },
        {
          "duration": 0.07446810000001847,
          "durationTicks": 14,
          "midi": 37,
          "name": "C#2",
          "ticks": 44041,
          "time": 234.26068515,
          "velocity": 0.9448818897637795
        },
        {
          "duration": 0.07446810000001847,
          "durationTicks": 14,
          "midi": 28,
          "name": "E1",
          "ticks": 44041,
          "time": 234.26068515,
          "velocity": 0.7874015748031497
        },
        {
          "duration": 0.07446809999999005,
          "durationTicks": 14,
          "midi": 58,
          "name": "A#3",
          "ticks": 44161,
          "time": 234.89898315000002,
          "velocity": 0.7874015748031497
        },
        {
          "duration": 0.07446809999999005,
          "durationTicks": 14,
          "midi": 37,
          "name": "C#2",
          "ticks": 44281,
          "time": 235.53728115,
          "velocity": 0.9448818897637795
        },
        {
          "duration": 0.07446809999999005,
          "durationTicks": 14,
          "midi": 28,
          "name": "E1",
          "ticks": 44281,
          "time": 235.53728115,
          "velocity": 0.7874015748031497
        },
        {
          "duration": 0.07446810000001847,
          "durationTicks": 14,
          "midi": 37,
          "name": "C#2",
          "ticks": 44521,
          "time": 236.81387715,
          "velocity": 0.9448818897637795
        },
        {
          "duration": 0.07446810000001847,
          "durationTicks": 14,
          "midi": 28,
          "name": "E1",
          "ticks": 44521,
          "time": 236.81387715,
          "velocity": 0.7874015748031497
        },
        {
          "duration": 0.07446809999999005,
          "durationTicks": 14,
          "midi": 37,
          "name": "C#2",
          "ticks": 44761,
          "time": 238.09047315,
          "velocity": 0.9448818897637795
        },
        {
          "duration": 0.07446809999999005,
          "durationTicks": 14,
          "midi": 28,
          "name": "E1",
          "ticks": 44761,
          "time": 238.09047315,
          "velocity": 0.7874015748031497
        },
        {
          "duration": 0.07446809999999005,
          "durationTicks": 14,
          "midi": 37,
          "name": "C#2",
          "ticks": 45001,
          "time": 239.36706915000002,
          "velocity": 0.9448818897637795
        },
        {
          "duration": 0.07446809999999005,
          "durationTicks": 14,
          "midi": 28,
          "name": "E1",
          "ticks": 45001,
          "time": 239.36706915000002,
          "velocity": 0.7874015748031497
        }
      ]
    },
    {
      "channel": 0,
      "controlChanges": {
        "7": [
          {
            "number": 7,
            "ticks": 0,
            "time": 0,
            "value": 0.8661417322834646
          }
        ]
      },
      "pitchBends": [],
      "instrument": {
        "family": "bass",
        "name": "fretless bass",
        "number": 35
      },
      "name": "Bass",
      "notes": [
        {
          "duration": 0.14361705000000136,
          "durationTicks": 27,
          "midi": 35,
          "name": "B1",
          "ticks": 1920,
          "time": 10.212768,
          "velocity": 0.7874015748031497
        },
        {
          "duration": 0.1436170499999978,
          "durationTicks": 27,
          "midi": 33,
          "name": "A1",
          "ticks": 1948,
          "time": 10.361704200000002,
          "velocity": 0.7874015748031497
        },
        {
          "duration": 0.18617024999999998,
          "durationTicks": 35,
          "midi": 30,
          "name": "F#1",
          "ticks": 1972,
          "time": 10.489363800000001,
          "velocity": 0.7874015748031497
        },
        {
          "duration": 0.16489364999999978,
          "durationTicks": 31,
          "midi": 35,
          "name": "B1",
          "ticks": 2008,
          "time": 10.680853200000001,
          "velocity": 0.7874015748031497
        },
        {
          "duration": 0.16489364999999978,
          "durationTicks": 31,
          "midi": 35,
          "name": "B1",
          "ticks": 2160,
          "time": 11.489364,
          "velocity": 0.7874015748031497
        },
        {
          "duration": 0.18617025000000176,
          "durationTicks": 35,
          "midi": 38,
          "name": "D2",
          "ticks": 2190,
          "time": 11.6489385,
          "velocity": 0.7874015748031497
        },
        {
          "duration": 0.18617024999999998,
          "durationTicks": 35,
          "midi": 40,
          "name": "E2",
          "ticks": 2220,
          "time": 11.808513000000001,
          "velocity": 0.7086614173228346
        },
        {
          "duration": 0.16489364999999978,
          "durationTicks": 31,
          "midi": 42,
          "name": "F#2",
          "ticks": 2250,
          "time": 11.968087500000001,
          "velocity": 0.7874015748031497
        },
        {
          "duration": 0.14361705000000136,
          "durationTicks": 27,
          "midi": 35,
          "name": "B1",
          "ticks": 2400,
          "time": 12.76596,
          "velocity": 0.7874015748031497
        },
        {
          "duration": 0.1861702499999982,
          "durationTicks": 35,
          "midi": 38,
          "name": "D2",
          "ticks": 2428,
          "time": 12.914896200000001,
          "velocity": 0.7874015748031497
        },
        {
          "duration": 0.18617025000000176,
          "durationTicks": 35,
          "midi": 40,
          "name": "E2",
          "ticks": 2452,
          "time": 13.0425558,
          "velocity": 0.7086614173228346
        },
        {
          "duration": 0.16489364999999978,
          "durationTicks": 31,
          "midi": 42,
          "name": "F#2",
          "ticks": 2488,
          "time": 13.2340452,
          "velocity": 0.7874015748031497
        },
        {
          "duration": 0.14361705000000136,
          "durationTicks": 27,
          "midi": 35,
          "name": "B1",
          "ticks": 2640,
          "time": 14.042556000000001,
          "velocity": 0.7874015748031497
        },
        {
          "duration": 0.14361704999999958,
          "durationTicks": 27,
          "midi": 33,
          "name": "A1",
          "ticks": 2668,
          "time": 14.1914922,
          "velocity": 0.7874015748031497
        },
        {
          "duration": 0.2606383499999989,
          "durationTicks": 49,
          "midi": 30,
          "name": "F#1",
          "ticks": 2692,
          "time": 14.3191518,
          "velocity": 0.7874015748031497
        },
        {
          "duration": 0.16489364999999978,
          "durationTicks": 31,
          "midi": 35,
          "name": "B1",
          "ticks": 2728,
          "time": 14.510641200000002,
          "velocity": 0.7874015748031497
        },
        {
          "duration": 0.14361705000000136,
          "durationTicks": 27,
          "midi": 35,
          "name": "B1",
          "ticks": 2880,
          "time": 15.319152,
          "velocity": 0.7874015748031497
        },
        {
          "duration": 0.1436170499999978,
          "durationTicks": 27,
          "midi": 33,
          "name": "A1",
          "ticks": 2908,
          "time": 15.468088200000002,
          "velocity": 0.7874015748031497
        },
        {
          "duration": 0.18617024999999998,
          "durationTicks": 35,
          "midi": 30,
          "name": "F#1",
          "ticks": 2932,
          "time": 15.595747800000002,
          "velocity": 0.7874015748031497
        },
        {
          "duration": 0.16489364999999978,
          "durationTicks": 31,
          "midi": 35,
          "name": "B1",
          "ticks": 2968,
          "time": 15.787237200000002,
          "velocity": 0.7874015748031497
        },
        {
          "duration": 0.16489364999999978,
          "durationTicks": 31,
          "midi": 35,
          "name": "B1",
          "ticks": 3120,
          "time": 16.595748,
          "velocity": 0.7874015748031497
        },
        {
          "duration": 0.18617024999999643,
          "durationTicks": 35,
          "midi": 38,
          "name": "D2",
          "ticks": 3148,
          "time": 16.744684200000002,
          "velocity": 0.7874015748031497
        },
        {
          "duration": 0.18617025000000353,
          "durationTicks": 35,
          "midi": 40,
          "name": "E2",
          "ticks": 3172,
          "time": 16.8723438,
          "velocity": 0.7086614173228346
        },
        {
          "duration": 0.16489364999999978,
          "durationTicks": 31,
          "midi": 42,
          "name": "F#2",
          "ticks": 3208,
          "time": 17.0638332,
          "velocity": 0.7874015748031497
        },
        {
          "duration": 0.14361704999999958,
          "durationTicks": 27,
          "midi": 35,
          "name": "B1",
          "ticks": 3360,
          "time": 17.872344000000002,
          "velocity": 0.7874015748031497
        },
        {
          "duration": 0.18617024999999643,
          "durationTicks": 35,
          "midi": 38,
          "name": "D2",
          "ticks": 3388,
          "time": 18.021280200000003,
          "velocity": 0.7874015748031497
        },
        {
          "duration": 0.18617024999999998,
          "durationTicks": 35,
          "midi": 40,
          "name": "E2",
          "ticks": 3412,
          "time": 18.1489398,
          "velocity": 0.7086614173228346
        },
        {
          "duration": 0.16489364999999978,
          "durationTicks": 31,
          "midi": 42,
          "name": "F#2",
          "ticks": 3448,
          "time": 18.340429200000003,
          "velocity": 0.7874015748031497
        },
        {
          "duration": 0.14361705000000313,
          "durationTicks": 27,
          "midi": 35,
          "name": "B1",
          "ticks": 3600,
          "time": 19.14894,
          "velocity": 0.7874015748031497
        },
        {
          "duration": 0.14361704999999958,
          "durationTicks": 27,
          "midi": 33,
          "name": "A1",
          "ticks": 3628,
          "time": 19.2978762,
          "velocity": 0.7874015748031497
        },
        {
          "duration": 0.26063834999999713,
          "durationTicks": 49,
          "midi": 30,
          "name": "F#1",
          "ticks": 3652,
          "time": 19.425535800000002,
          "velocity": 0.7874015748031497
        },
        {
          "duration": 0.16489364999999978,
          "durationTicks": 31,
          "midi": 35,
          "name": "B1",
          "ticks": 3688,
          "time": 19.6170252,
          "velocity": 0.7874015748031497
        },
        {
          "duration": 0.14361704999999958,
          "durationTicks": 27,
          "midi": 35,
          "name": "B1",
          "ticks": 3840,
          "time": 20.425536,
          "velocity": 0.7874015748031497
        },
        {
          "duration": 0.14361704999999958,
          "durationTicks": 27,
          "midi": 33,
          "name": "A1",
          "ticks": 3868,
          "time": 20.574472200000002,
          "velocity": 0.7874015748031497
        },
        {
          "duration": 0.18617025000000353,
          "durationTicks": 35,
          "midi": 30,
          "name": "F#1",
          "ticks": 3892,
          "time": 20.7021318,
          "velocity": 0.7874015748031497
        },
        {
          "duration": 0.16489364999999978,
          "durationTicks": 31,
          "midi": 35,
          "name": "B1",
          "ticks": 3928,
          "time": 20.893621200000002,
          "velocity": 0.7874015748031497
        },
        {
          "duration": 0.16489364999999978,
          "durationTicks": 31,
          "midi": 35,
          "name": "B1",
          "ticks": 4080,
          "time": 21.702132000000002,
          "velocity": 0.7874015748031497
        },
        {
          "duration": 0.18617024999999998,
          "durationTicks": 35,
          "midi": 38,
          "name": "D2",
          "ticks": 4108,
          "time": 21.8510682,
          "velocity": 0.7874015748031497
        },
        {
          "duration": 0.18617025000000353,
          "durationTicks": 35,
          "midi": 40,
          "name": "E2",
          "ticks": 4132,
          "time": 21.978727799999998,
          "velocity": 0.7086614173228346
        },
        {
          "duration": 0.16489364999999978,
          "durationTicks": 31,
          "midi": 42,
          "name": "F#2",
          "ticks": 4168,
          "time": 22.170217200000003,
          "velocity": 0.7874015748031497
        },
        {
          "duration": 0.14361705000000313,
          "durationTicks": 27,
          "midi": 35,
          "name": "B1",
          "ticks": 4320,
          "time": 22.978728,
          "velocity": 0.7874015748031497
        },
        {
          "duration": 0.18617024999999998,
          "durationTicks": 35,
          "midi": 38,
          "name": "D2",
          "ticks": 4348,
          "time": 23.1276642,
          "velocity": 0.7874015748031497
        },
        {
          "duration": 0.18617025000000353,
          "durationTicks": 35,
          "midi": 40,
          "name": "E2",
          "ticks": 4372,
          "time": 23.2553238,
          "velocity": 0.7086614173228346
        },
        {
          "duration": 0.16489364999999978,
          "durationTicks": 31,
          "midi": 42,
          "name": "F#2",
          "ticks": 4408,
          "time": 23.4468132,
          "velocity": 0.7874015748031497
        },
        {
          "duration": 0.14361704999999958,
          "durationTicks": 27,
          "midi": 35,
          "name": "B1",
          "ticks": 4560,
          "time": 24.255324,
          "velocity": 0.7874015748031497
        },
        {
          "duration": 0.14361704999999958,
          "durationTicks": 27,
          "midi": 33,
          "name": "A1",
          "ticks": 4588,
          "time": 24.404260200000003,
          "velocity": 0.7874015748031497
        },
        {
          "duration": 0.2606383500000007,
          "durationTicks": 49,
          "midi": 30,
          "name": "F#1",
          "ticks": 4612,
          "time": 24.5319198,
          "velocity": 0.7874015748031497
        },
        {
          "duration": 0.16489364999999978,
          "durationTicks": 31,
          "midi": 35,
          "name": "B1",
          "ticks": 4648,
          "time": 24.723409200000003,
          "velocity": 0.7874015748031497
        },
        {
          "duration": 0.14361705000000313,
          "durationTicks": 27,
          "midi": 35,
          "name": "B1",
          "ticks": 4800,
          "time": 25.53192,
          "velocity": 0.7874015748031497
        },
        {
          "duration": 0.14361705000000313,
          "durationTicks": 27,
          "midi": 33,
          "name": "A1",
          "ticks": 4828,
          "time": 25.6808562,
          "velocity": 0.7874015748031497
        },
        {
          "duration": 0.18617025000000353,
          "durationTicks": 35,
          "midi": 30,
          "name": "F#1",
          "ticks": 4852,
          "time": 25.8085158,
          "velocity": 0.7874015748031497
        },
        {
          "duration": 0.16489364999999978,
          "durationTicks": 31,
          "midi": 35,
          "name": "B1",
          "ticks": 4888,
          "time": 26.0000052,
          "velocity": 0.7874015748031497
        },
        {
          "duration": 0.16489364999999978,
          "durationTicks": 31,
          "midi": 35,
          "name": "B1",
          "ticks": 5040,
          "time": 26.808516,
          "velocity": 0.7874015748031497
        },
        {
          "duration": 0.18617024999999643,
          "durationTicks": 35,
          "midi": 38,
          "name": "D2",
          "ticks": 5068,
          "time": 26.957452200000002,
          "velocity": 0.7874015748031497
        },
        {
          "duration": 0.18617025000000353,
          "durationTicks": 35,
          "midi": 40,
          "name": "E2",
          "ticks": 5092,
          "time": 27.0851118,
          "velocity": 0.7086614173228346
        },
        {
          "duration": 0.16489364999999978,
          "durationTicks": 31,
          "midi": 42,
          "name": "F#2",
          "ticks": 5128,
          "time": 27.2766012,
          "velocity": 0.7874015748031497
        },
        {
          "duration": 0.14361704999999958,
          "durationTicks": 27,
          "midi": 35,
          "name": "B1",
          "ticks": 5280,
          "time": 28.085112000000002,
          "velocity": 0.7874015748031497
        },
        {
          "duration": 0.18617024999999643,
          "durationTicks": 35,
          "midi": 38,
          "name": "D2",
          "ticks": 5308,
          "time": 28.234048200000004,
          "velocity": 0.7874015748031497
        },
        {
          "duration": 0.18617025000000353,
          "durationTicks": 35,
          "midi": 40,
          "name": "E2",
          "ticks": 5332,
          "time": 28.361707799999998,
          "velocity": 0.7086614173228346
        },
        {
          "duration": 0.16489364999999978,
          "durationTicks": 31,
          "midi": 42,
          "name": "F#2",
          "ticks": 5368,
          "time": 28.553197200000003,
          "velocity": 0.7874015748031497
        },
        {
          "duration": 0.14361705000000313,
          "durationTicks": 27,
          "midi": 35,
          "name": "B1",
          "ticks": 5520,
          "time": 29.361708,
          "velocity": 0.7874015748031497
        },
        {
          "duration": 0.14361705000000313,
          "durationTicks": 27,
          "midi": 33,
          "name": "A1",
          "ticks": 5548,
          "time": 29.5106442,
          "velocity": 0.7874015748031497
        },
        {
          "duration": 0.26063835000000424,
          "durationTicks": 49,
          "midi": 30,
          "name": "F#1",
          "ticks": 5572,
          "time": 29.6383038,
          "velocity": 0.7874015748031497
        },
        {
          "duration": 0.16489364999999978,
          "durationTicks": 31,
          "midi": 35,
          "name": "B1",
          "ticks": 5608,
          "time": 29.8297932,
          "velocity": 0.7874015748031497
        },
        {
          "duration": 0.14361704999999958,
          "durationTicks": 27,
          "midi": 35,
          "name": "B1",
          "ticks": 5760,
          "time": 30.638304,
          "velocity": 0.7874015748031497
        },
        {
          "duration": 0.14361704999999958,
          "durationTicks": 27,
          "midi": 33,
          "name": "A1",
          "ticks": 5788,
          "time": 30.787240200000003,
          "velocity": 0.7874015748031497
        },
        {
          "duration": 0.18617025000000353,
          "durationTicks": 35,
          "midi": 30,
          "name": "F#1",
          "ticks": 5812,
          "time": 30.9148998,
          "velocity": 0.7874015748031497
        },
        {
          "duration": 0.16489364999999978,
          "durationTicks": 31,
          "midi": 35,
          "name": "B1",
          "ticks": 5848,
          "time": 31.106389200000002,
          "velocity": 0.7874015748031497
        },
        {
          "duration": 0.16489364999999623,
          "durationTicks": 31,
          "midi": 35,
          "name": "B1",
          "ticks": 6000,
          "time": 31.914900000000003,
          "velocity": 0.7874015748031497
        },
        {
          "duration": 0.18617024999999643,
          "durationTicks": 35,
          "midi": 38,
          "name": "D2",
          "ticks": 6028,
          "time": 32.063836200000004,
          "velocity": 0.7874015748031497
        },
        {
          "duration": 0.18617025000000353,
          "durationTicks": 35,
          "midi": 40,
          "name": "E2",
          "ticks": 6052,
          "time": 32.1914958,
          "velocity": 0.7086614173228346
        },
        {
          "duration": 0.16489365000000333,
          "durationTicks": 31,
          "midi": 42,
          "name": "F#2",
          "ticks": 6088,
          "time": 32.3829852,
          "velocity": 0.7874015748031497
        },
        {
          "duration": 0.14361705000000313,
          "durationTicks": 27,
          "midi": 35,
          "name": "B1",
          "ticks": 6240,
          "time": 33.191496,
          "velocity": 0.7874015748031497
        },
        {
          "duration": 0.18617024999999643,
          "durationTicks": 35,
          "midi": 38,
          "name": "D2",
          "ticks": 6268,
          "time": 33.3404322,
          "velocity": 0.7874015748031497
        },
        {
          "duration": 0.18617025000000353,
          "durationTicks": 35,
          "midi": 40,
          "name": "E2",
          "ticks": 6292,
          "time": 33.468091799999996,
          "velocity": 0.7086614173228346
        },
        {
          "duration": 0.16489364999999623,
          "durationTicks": 31,
          "midi": 42,
          "name": "F#2",
          "ticks": 6328,
          "time": 33.659581200000005,
          "velocity": 0.7874015748031497
        },
        {
          "duration": 0.14361705000000313,
          "durationTicks": 27,
          "midi": 35,
          "name": "B1",
          "ticks": 6480,
          "time": 34.468092,
          "velocity": 0.7874015748031497
        },
        {
          "duration": 0.14361705000000313,
          "durationTicks": 27,
          "midi": 33,
          "name": "A1",
          "ticks": 6508,
          "time": 34.6170282,
          "velocity": 0.7874015748031497
        },
        {
          "duration": 0.2606383500000007,
          "durationTicks": 49,
          "midi": 30,
          "name": "F#1",
          "ticks": 6532,
          "time": 34.7446878,
          "velocity": 0.7874015748031497
        },
        {
          "duration": 0.16489364999999623,
          "durationTicks": 31,
          "midi": 35,
          "name": "B1",
          "ticks": 6568,
          "time": 34.9361772,
          "velocity": 0.7874015748031497
        },
        {
          "duration": 0.14361704999999603,
          "durationTicks": 27,
          "midi": 35,
          "name": "B1",
          "ticks": 6720,
          "time": 35.744688000000004,
          "velocity": 0.7874015748031497
        },
        {
          "duration": 0.14361704999999603,
          "durationTicks": 27,
          "midi": 33,
          "name": "A1",
          "ticks": 6748,
          "time": 35.893624200000005,
          "velocity": 0.7874015748031497
        },
        {
          "duration": 0.18617025000000353,
          "durationTicks": 35,
          "midi": 30,
          "name": "F#1",
          "ticks": 6772,
          "time": 36.0212838,
          "velocity": 0.7874015748031497
        },
        {
          "duration": 0.16489365000000333,
          "durationTicks": 31,
          "midi": 35,
          "name": "B1",
          "ticks": 6808,
          "time": 36.2127732,
          "velocity": 0.7874015748031497
        },
        {
          "duration": 0.16489365000000333,
          "durationTicks": 31,
          "midi": 35,
          "name": "B1",
          "ticks": 6960,
          "time": 37.021284,
          "velocity": 0.7874015748031497
        },
        {
          "duration": 0.18617024999999643,
          "durationTicks": 35,
          "midi": 38,
          "name": "D2",
          "ticks": 6988,
          "time": 37.1702202,
          "velocity": 0.7874015748031497
        },
        {
          "duration": 0.18617025000000353,
          "durationTicks": 35,
          "midi": 40,
          "name": "E2",
          "ticks": 7012,
          "time": 37.2978798,
          "velocity": 0.7086614173228346
        },
        {
          "duration": 0.16489364999999623,
          "durationTicks": 31,
          "midi": 42,
          "name": "F#2",
          "ticks": 7048,
          "time": 37.489369200000006,
          "velocity": 0.7874015748031497
        },
        {
          "duration": 0.14361705000000313,
          "durationTicks": 27,
          "midi": 35,
          "name": "B1",
          "ticks": 7200,
          "time": 38.29788,
          "velocity": 0.7874015748031497
        },
        {
          "duration": 0.18617025000000353,
          "durationTicks": 35,
          "midi": 38,
          "name": "D2",
          "ticks": 7228,
          "time": 38.4468162,
          "velocity": 0.7874015748031497
        },
        {
          "duration": 0.18617025000000353,
          "durationTicks": 35,
          "midi": 40,
          "name": "E2",
          "ticks": 7252,
          "time": 38.5744758,
          "velocity": 0.7086614173228346
        },
        {
          "duration": 0.16489364999999623,
          "durationTicks": 31,
          "midi": 42,
          "name": "F#2",
          "ticks": 7288,
          "time": 38.765965200000004,
          "velocity": 0.7874015748031497
        },
        {
          "duration": 0.14361704999999603,
          "durationTicks": 27,
          "midi": 35,
          "name": "B1",
          "ticks": 7440,
          "time": 39.574476000000004,
          "velocity": 0.7874015748031497
        },
        {
          "duration": 0.14361704999999603,
          "durationTicks": 27,
          "midi": 33,
          "name": "A1",
          "ticks": 7468,
          "time": 39.723412200000006,
          "velocity": 0.7874015748031497
        },
        {
          "duration": 0.2606383500000007,
          "durationTicks": 49,
          "midi": 30,
          "name": "F#1",
          "ticks": 7492,
          "time": 39.8510718,
          "velocity": 0.7874015748031497
        },
        {
          "duration": 0.16489365000000333,
          "durationTicks": 31,
          "midi": 35,
          "name": "B1",
          "ticks": 7528,
          "time": 40.0425612,
          "velocity": 0.7874015748031497
        },
        {
          "duration": 0.14361704999999603,
          "durationTicks": 27,
          "midi": 35,
          "name": "B1",
          "ticks": 7680,
          "time": 40.851072,
          "velocity": 0.7874015748031497
        },
        {
          "duration": 0.14361704999999603,
          "durationTicks": 27,
          "midi": 33,
          "name": "A1",
          "ticks": 7708,
          "time": 41.0000082,
          "velocity": 0.7874015748031497
        },
        {
          "duration": 0.18617024999999643,
          "durationTicks": 35,
          "midi": 30,
          "name": "F#1",
          "ticks": 7732,
          "time": 41.127667800000005,
          "velocity": 0.7874015748031497
        },
        {
          "duration": 0.16489364999999623,
          "durationTicks": 31,
          "midi": 35,
          "name": "B1",
          "ticks": 7768,
          "time": 41.3191572,
          "velocity": 0.7874015748031497
        },
        {
          "duration": 0.16489365000000333,
          "durationTicks": 31,
          "midi": 35,
          "name": "B1",
          "ticks": 7920,
          "time": 42.127668,
          "velocity": 0.7874015748031497
        },
        {
          "duration": 0.18617025000000353,
          "durationTicks": 35,
          "midi": 38,
          "name": "D2",
          "ticks": 7948,
          "time": 42.2766042,
          "velocity": 0.7874015748031497
        },
        {
          "duration": 0.18617024999999643,
          "durationTicks": 35,
          "midi": 40,
          "name": "E2",
          "ticks": 7972,
          "time": 42.4042638,
          "velocity": 0.7086614173228346
        },
        {
          "duration": 0.16489364999999623,
          "durationTicks": 31,
          "midi": 42,
          "name": "F#2",
          "ticks": 8008,
          "time": 42.595753200000004,
          "velocity": 0.7874015748031497
        },
        {
          "duration": 0.14361704999999603,
          "durationTicks": 27,
          "midi": 35,
          "name": "B1",
          "ticks": 8160,
          "time": 43.404264000000005,
          "velocity": 0.7874015748031497
        },
        {
          "duration": 0.18617024999999643,
          "durationTicks": 35,
          "midi": 38,
          "name": "D2",
          "ticks": 8188,
          "time": 43.553200200000006,
          "velocity": 0.7874015748031497
        },
        {
          "duration": 0.18617024999998932,
          "durationTicks": 35,
          "midi": 40,
          "name": "E2",
          "ticks": 8212,
          "time": 43.68085980000001,
          "velocity": 0.7086614173228346
        },
        {
          "duration": 0.16489364999999623,
          "durationTicks": 31,
          "midi": 42,
          "name": "F#2",
          "ticks": 8248,
          "time": 43.8723492,
          "velocity": 0.7874015748031497
        },
        {
          "duration": 0.14361704999999603,
          "durationTicks": 27,
          "midi": 35,
          "name": "B1",
          "ticks": 8400,
          "time": 44.68086,
          "velocity": 0.7874015748031497
        },
        {
          "duration": 0.14361704999999603,
          "durationTicks": 27,
          "midi": 33,
          "name": "A1",
          "ticks": 8428,
          "time": 44.829796200000004,
          "velocity": 0.7874015748031497
        },
        {
          "duration": 0.2606383500000007,
          "durationTicks": 49,
          "midi": 30,
          "name": "F#1",
          "ticks": 8452,
          "time": 44.957455800000005,
          "velocity": 0.7874015748031497
        },
        {
          "duration": 0.16489364999999623,
          "durationTicks": 31,
          "midi": 35,
          "name": "B1",
          "ticks": 8488,
          "time": 45.1489452,
          "velocity": 0.7874015748031497
        },
        {
          "duration": 0.14361704999999603,
          "durationTicks": 27,
          "midi": 35,
          "name": "B1",
          "ticks": 8640,
          "time": 45.957456,
          "velocity": 0.7874015748031497
        },
        {
          "duration": 0.14361704999999603,
          "durationTicks": 27,
          "midi": 33,
          "name": "A1",
          "ticks": 8668,
          "time": 46.1063922,
          "velocity": 0.7874015748031497
        },
        {
          "duration": 0.18617024999999643,
          "durationTicks": 35,
          "midi": 30,
          "name": "F#1",
          "ticks": 8692,
          "time": 46.2340518,
          "velocity": 0.7874015748031497
        },
        {
          "duration": 0.16489364999999623,
          "durationTicks": 31,
          "midi": 35,
          "name": "B1",
          "ticks": 8728,
          "time": 46.425541200000005,
          "velocity": 0.7874015748031497
        },
        {
          "duration": 0.16489365000000333,
          "durationTicks": 31,
          "midi": 35,
          "name": "B1",
          "ticks": 8880,
          "time": 47.234052000000005,
          "velocity": 0.7874015748031497
        },
        {
          "duration": 0.18617025000000353,
          "durationTicks": 35,
          "midi": 38,
          "name": "D2",
          "ticks": 8908,
          "time": 47.3829882,
          "velocity": 0.7874015748031497
        },
        {
          "duration": 0.18617024999998932,
          "durationTicks": 35,
          "midi": 40,
          "name": "E2",
          "ticks": 8932,
          "time": 47.51064780000001,
          "velocity": 0.7086614173228346
        },
        {
          "duration": 0.16489364999999623,
          "durationTicks": 31,
          "midi": 42,
          "name": "F#2",
          "ticks": 8968,
          "time": 47.7021372,
          "velocity": 0.7874015748031497
        },
        {
          "duration": 0.14361704999999603,
          "durationTicks": 27,
          "midi": 35,
          "name": "B1",
          "ticks": 9120,
          "time": 48.510648,
          "velocity": 0.7874015748031497
        },
        {
          "duration": 0.18617025000000353,
          "durationTicks": 35,
          "midi": 38,
          "name": "D2",
          "ticks": 9148,
          "time": 48.659584200000005,
          "velocity": 0.7874015748031497
        },
        {
          "duration": 0.18617024999999643,
          "durationTicks": 35,
          "midi": 40,
          "name": "E2",
          "ticks": 9172,
          "time": 48.787243800000006,
          "velocity": 0.7086614173228346
        },
        {
          "duration": 0.16489364999999623,
          "durationTicks": 31,
          "midi": 42,
          "name": "F#2",
          "ticks": 9208,
          "time": 48.9787332,
          "velocity": 0.7874015748031497
        },
        {
          "duration": 0.14361704999999603,
          "durationTicks": 27,
          "midi": 35,
          "name": "B1",
          "ticks": 9360,
          "time": 49.787244,
          "velocity": 0.7874015748031497
        },
        {
          "duration": 0.14361704999999603,
          "durationTicks": 27,
          "midi": 33,
          "name": "A1",
          "ticks": 9388,
          "time": 49.9361802,
          "velocity": 0.7874015748031497
        },
        {
          "duration": 0.2606383500000007,
          "durationTicks": 49,
          "midi": 30,
          "name": "F#1",
          "ticks": 9412,
          "time": 50.063839800000004,
          "velocity": 0.7874015748031497
        },
        {
          "duration": 0.16489364999999623,
          "durationTicks": 31,
          "midi": 35,
          "name": "B1",
          "ticks": 9448,
          "time": 50.255329200000006,
          "velocity": 0.7874015748031497
        },
        {
          "duration": 0.14361705000000313,
          "durationTicks": 27,
          "midi": 35,
          "name": "B1",
          "ticks": 9600,
          "time": 51.06384,
          "velocity": 0.7874015748031497
        },
        {
          "duration": 0.14361704999999603,
          "durationTicks": 27,
          "midi": 33,
          "name": "A1",
          "ticks": 9628,
          "time": 51.2127762,
          "velocity": 0.7874015748031497
        },
        {
          "duration": 0.18617024999999643,
          "durationTicks": 35,
          "midi": 30,
          "name": "F#1",
          "ticks": 9652,
          "time": 51.3404358,
          "velocity": 0.7874015748031497
        },
        {
          "duration": 0.16489364999999623,
          "durationTicks": 31,
          "midi": 35,
          "name": "B1",
          "ticks": 9688,
          "time": 51.5319252,
          "velocity": 0.7874015748031497
        },
        {
          "duration": 0.16489365000000333,
          "durationTicks": 31,
          "midi": 35,
          "name": "B1",
          "ticks": 9840,
          "time": 52.340436000000004,
          "velocity": 0.7874015748031497
        },
        {
          "duration": 0.18617025000000353,
          "durationTicks": 35,
          "midi": 38,
          "name": "D2",
          "ticks": 9868,
          "time": 52.489372200000005,
          "velocity": 0.7874015748031497
        },
        {
          "duration": 0.18617024999998932,
          "durationTicks": 35,
          "midi": 40,
          "name": "E2",
          "ticks": 9892,
          "time": 52.61703180000001,
          "velocity": 0.7086614173228346
        },
        {
          "duration": 0.16489364999999623,
          "durationTicks": 31,
          "midi": 42,
          "name": "F#2",
          "ticks": 9928,
          "time": 52.8085212,
          "velocity": 0.7874015748031497
        },
        {
          "duration": 0.14361704999999603,
          "durationTicks": 27,
          "midi": 35,
          "name": "B1",
          "ticks": 10080,
          "time": 53.617032,
          "velocity": 0.7874015748031497
        },
        {
          "duration": 0.18617025000000353,
          "durationTicks": 35,
          "midi": 38,
          "name": "D2",
          "ticks": 10108,
          "time": 53.7659682,
          "velocity": 0.7874015748031497
        },
        {
          "duration": 0.18617024999999643,
          "durationTicks": 35,
          "midi": 40,
          "name": "E2",
          "ticks": 10132,
          "time": 53.893627800000004,
          "velocity": 0.7086614173228346
        },
        {
          "duration": 0.16489364999998912,
          "durationTicks": 31,
          "midi": 42,
          "name": "F#2",
          "ticks": 10168,
          "time": 54.085117200000006,
          "velocity": 0.7874015748031497
        },
        {
          "duration": 0.14361704999999603,
          "durationTicks": 27,
          "midi": 35,
          "name": "B1",
          "ticks": 10320,
          "time": 54.893628,
          "velocity": 0.7874015748031497
        },
        {
          "duration": 0.14361704999999603,
          "durationTicks": 27,
          "midi": 33,
          "name": "A1",
          "ticks": 10348,
          "time": 55.0425642,
          "velocity": 0.7874015748031497
        },
        {
          "duration": 0.2606383500000007,
          "durationTicks": 49,
          "midi": 30,
          "name": "F#1",
          "ticks": 10372,
          "time": 55.1702238,
          "velocity": 0.7874015748031497
        },
        {
          "duration": 0.16489364999999623,
          "durationTicks": 31,
          "midi": 35,
          "name": "B1",
          "ticks": 10408,
          "time": 55.361713200000004,
          "velocity": 0.7874015748031497
        },
        {
          "duration": 0.14361704999999603,
          "durationTicks": 27,
          "midi": 35,
          "name": "B1",
          "ticks": 10560,
          "time": 56.170224000000005,
          "velocity": 0.7874015748031497
        },
        {
          "duration": 0.14361704999999603,
          "durationTicks": 27,
          "midi": 33,
          "name": "A1",
          "ticks": 10588,
          "time": 56.319160200000006,
          "velocity": 0.7874015748031497
        },
        {
          "duration": 0.18617024999998932,
          "durationTicks": 35,
          "midi": 30,
          "name": "F#1",
          "ticks": 10612,
          "time": 56.44681980000001,
          "velocity": 0.7874015748031497
        },
        {
          "duration": 0.16489364999999623,
          "durationTicks": 31,
          "midi": 35,
          "name": "B1",
          "ticks": 10648,
          "time": 56.6383092,
          "velocity": 0.7874015748031497
        },
        {
          "duration": 0.16489365000000333,
          "durationTicks": 31,
          "midi": 35,
          "name": "B1",
          "ticks": 10800,
          "time": 57.44682,
          "velocity": 0.7874015748031497
        },
        {
          "duration": 0.18617025000000353,
          "durationTicks": 35,
          "midi": 38,
          "name": "D2",
          "ticks": 10828,
          "time": 57.595756200000004,
          "velocity": 0.7874015748031497
        },
        {
          "duration": 0.18617024999999643,
          "durationTicks": 35,
          "midi": 40,
          "name": "E2",
          "ticks": 10852,
          "time": 57.723415800000005,
          "velocity": 0.7086614173228346
        },
        {
          "duration": 0.16489364999998912,
          "durationTicks": 31,
          "midi": 42,
          "name": "F#2",
          "ticks": 10888,
          "time": 57.91490520000001,
          "velocity": 0.7874015748031497
        },
        {
          "duration": 0.14361704999999603,
          "durationTicks": 27,
          "midi": 35,
          "name": "B1",
          "ticks": 11040,
          "time": 58.723416,
          "velocity": 0.7874015748031497
        },
        {
          "duration": 0.18617025000000353,
          "durationTicks": 35,
          "midi": 38,
          "name": "D2",
          "ticks": 11068,
          "time": 58.8723522,
          "velocity": 0.7874015748031497
        },
        {
          "duration": 0.18617024999999643,
          "durationTicks": 35,
          "midi": 40,
          "name": "E2",
          "ticks": 11092,
          "time": 59.0000118,
          "velocity": 0.7086614173228346
        },
        {
          "duration": 0.16489364999999623,
          "durationTicks": 31,
          "midi": 42,
          "name": "F#2",
          "ticks": 11128,
          "time": 59.191501200000005,
          "velocity": 0.7874015748031497
        },
        {
          "duration": 0.14361704999999603,
          "durationTicks": 27,
          "midi": 35,
          "name": "B1",
          "ticks": 11280,
          "time": 60.000012000000005,
          "velocity": 0.7874015748031497
        },
        {
          "duration": 0.14361704999999603,
          "durationTicks": 27,
          "midi": 33,
          "name": "A1",
          "ticks": 11308,
          "time": 60.14894820000001,
          "velocity": 0.7874015748031497
        },
        {
          "duration": 0.2606383499999936,
          "durationTicks": 49,
          "midi": 30,
          "name": "F#1",
          "ticks": 11332,
          "time": 60.27660780000001,
          "velocity": 0.7874015748031497
        },
        {
          "duration": 0.16489364999999623,
          "durationTicks": 31,
          "midi": 35,
          "name": "B1",
          "ticks": 11368,
          "time": 60.4680972,
          "velocity": 0.7874015748031497
        },
        {
          "duration": 0.14361704999999603,
          "durationTicks": 27,
          "midi": 35,
          "name": "B1",
          "ticks": 11520,
          "time": 61.276608,
          "velocity": 0.7874015748031497
        },
        {
          "duration": 0.14361704999999603,
          "durationTicks": 27,
          "midi": 33,
          "name": "A1",
          "ticks": 11548,
          "time": 61.425544200000004,
          "velocity": 0.7874015748031497
        },
        {
          "duration": 0.18617024999999643,
          "durationTicks": 35,
          "midi": 30,
          "name": "F#1",
          "ticks": 11572,
          "time": 61.553203800000006,
          "velocity": 0.7874015748031497
        },
        {
          "duration": 0.16489364999999623,
          "durationTicks": 31,
          "midi": 35,
          "name": "B1",
          "ticks": 11608,
          "time": 61.7446932,
          "velocity": 0.7874015748031497
        },
        {
          "duration": 0.16489365000000333,
          "durationTicks": 31,
          "midi": 35,
          "name": "B1",
          "ticks": 11760,
          "time": 62.553204,
          "velocity": 0.7874015748031497
        },
        {
          "duration": 0.18617025000000353,
          "durationTicks": 35,
          "midi": 38,
          "name": "D2",
          "ticks": 11788,
          "time": 62.7021402,
          "velocity": 0.7874015748031497
        },
        {
          "duration": 0.18617024999999643,
          "durationTicks": 35,
          "midi": 40,
          "name": "E2",
          "ticks": 11812,
          "time": 62.8297998,
          "velocity": 0.7086614173228346
        },
        {
          "duration": 0.16489364999999623,
          "durationTicks": 31,
          "midi": 42,
          "name": "F#2",
          "ticks": 11848,
          "time": 63.021289200000005,
          "velocity": 0.7874015748031497
        },
        {
          "duration": 0.14361704999999603,
          "durationTicks": 27,
          "midi": 35,
          "name": "B1",
          "ticks": 12000,
          "time": 63.829800000000006,
          "velocity": 0.7874015748031497
        },
        {
          "duration": 0.18617024999999643,
          "durationTicks": 35,
          "midi": 38,
          "name": "D2",
          "ticks": 12028,
          "time": 63.97873620000001,
          "velocity": 0.7874015748031497
        },
        {
          "duration": 0.18617025000000353,
          "durationTicks": 35,
          "midi": 40,
          "name": "E2",
          "ticks": 12052,
          "time": 64.1063958,
          "velocity": 0.7086614173228346
        },
        {
          "duration": 0.16489364999998202,
          "durationTicks": 31,
          "midi": 42,
          "name": "F#2",
          "ticks": 12088,
          "time": 64.29788520000001,
          "velocity": 0.7874015748031497
        },
        {
          "duration": 0.14361704999998892,
          "durationTicks": 27,
          "midi": 35,
          "name": "B1",
          "ticks": 12240,
          "time": 65.106396,
          "velocity": 0.7874015748031497
        },
        {
          "duration": 0.14361705000000313,
          "durationTicks": 27,
          "midi": 33,
          "name": "A1",
          "ticks": 12268,
          "time": 65.2553322,
          "velocity": 0.7874015748031497
        },
        {
          "duration": 0.2606383500000078,
          "durationTicks": 49,
          "midi": 30,
          "name": "F#1",
          "ticks": 12292,
          "time": 65.3829918,
          "velocity": 0.7874015748031497
        },
        {
          "duration": 0.16489364999999623,
          "durationTicks": 31,
          "midi": 35,
          "name": "B1",
          "ticks": 12328,
          "time": 65.57448120000001,
          "velocity": 0.7874015748031497
        },
        {
          "duration": 0.14361705000000313,
          "durationTicks": 27,
          "midi": 35,
          "name": "B1",
          "ticks": 12480,
          "time": 66.382992,
          "velocity": 0.7874015748031497
        },
        {
          "duration": 0.14361704999998892,
          "durationTicks": 27,
          "midi": 33,
          "name": "A1",
          "ticks": 12508,
          "time": 66.53192820000001,
          "velocity": 0.7874015748031497
        },
        {
          "duration": 0.18617024999998932,
          "durationTicks": 35,
          "midi": 30,
          "name": "F#1",
          "ticks": 12532,
          "time": 66.65958780000001,
          "velocity": 0.7874015748031497
        },
        {
          "duration": 0.16489364999999623,
          "durationTicks": 31,
          "midi": 35,
          "name": "B1",
          "ticks": 12568,
          "time": 66.8510772,
          "velocity": 0.7874015748031497
        },
        {
          "duration": 0.16489365000001044,
          "durationTicks": 31,
          "midi": 35,
          "name": "B1",
          "ticks": 12720,
          "time": 67.659588,
          "velocity": 0.7874015748031497
        },
        {
          "duration": 0.18617025000000353,
          "durationTicks": 35,
          "midi": 38,
          "name": "D2",
          "ticks": 12748,
          "time": 67.80852420000001,
          "velocity": 0.7874015748031497
        },
        {
          "duration": 0.18617024999998932,
          "durationTicks": 35,
          "midi": 40,
          "name": "E2",
          "ticks": 12772,
          "time": 67.93618380000001,
          "velocity": 0.7086614173228346
        },
        {
          "duration": 0.16489364999999623,
          "durationTicks": 31,
          "midi": 42,
          "name": "F#2",
          "ticks": 12808,
          "time": 68.1276732,
          "velocity": 0.7874015748031497
        },
        {
          "duration": 0.14361705000000313,
          "durationTicks": 27,
          "midi": 35,
          "name": "B1",
          "ticks": 12960,
          "time": 68.936184,
          "velocity": 0.7874015748031497
        },
        {
          "duration": 0.18617025000000353,
          "durationTicks": 35,
          "midi": 38,
          "name": "D2",
          "ticks": 12988,
          "time": 69.0851202,
          "velocity": 0.7874015748031497
        },
        {
          "duration": 0.18617024999998932,
          "durationTicks": 35,
          "midi": 40,
          "name": "E2",
          "ticks": 13012,
          "time": 69.2127798,
          "velocity": 0.7086614173228346
        },
        {
          "duration": 0.16489364999999623,
          "durationTicks": 31,
          "midi": 42,
          "name": "F#2",
          "ticks": 13048,
          "time": 69.4042692,
          "velocity": 0.7874015748031497
        },
        {
          "duration": 0.14361704999998892,
          "durationTicks": 27,
          "midi": 35,
          "name": "B1",
          "ticks": 13200,
          "time": 70.21278000000001,
          "velocity": 0.7874015748031497
        },
        {
          "duration": 0.14361705000000313,
          "durationTicks": 27,
          "midi": 33,
          "name": "A1",
          "ticks": 13228,
          "time": 70.3617162,
          "velocity": 0.7874015748031497
        },
        {
          "duration": 0.2606383499999936,
          "durationTicks": 49,
          "midi": 30,
          "name": "F#1",
          "ticks": 13252,
          "time": 70.4893758,
          "velocity": 0.7874015748031497
        },
        {
          "duration": 0.16489364999999623,
          "durationTicks": 31,
          "midi": 35,
          "name": "B1",
          "ticks": 13288,
          "time": 70.6808652,
          "velocity": 0.7874015748031497
        },
        {
          "duration": 0.14361704999998892,
          "durationTicks": 27,
          "midi": 35,
          "name": "B1",
          "ticks": 13440,
          "time": 71.48937600000001,
          "velocity": 0.7874015748031497
        },
        {
          "duration": 0.14361705000000313,
          "durationTicks": 27,
          "midi": 33,
          "name": "A1",
          "ticks": 13468,
          "time": 71.6383122,
          "velocity": 0.7874015748031497
        },
        {
          "duration": 0.18617025000000353,
          "durationTicks": 35,
          "midi": 30,
          "name": "F#1",
          "ticks": 13492,
          "time": 71.7659718,
          "velocity": 0.7874015748031497
        },
        {
          "duration": 0.16489364999999623,
          "durationTicks": 31,
          "midi": 35,
          "name": "B1",
          "ticks": 13528,
          "time": 71.9574612,
          "velocity": 0.7874015748031497
        },
        {
          "duration": 0.16489364999999623,
          "durationTicks": 31,
          "midi": 35,
          "name": "B1",
          "ticks": 13680,
          "time": 72.765972,
          "velocity": 0.7874015748031497
        },
        {
          "duration": 0.18617025000000353,
          "durationTicks": 35,
          "midi": 38,
          "name": "D2",
          "ticks": 13708,
          "time": 72.9149082,
          "velocity": 0.7874015748031497
        },
        {
          "duration": 0.18617025000000353,
          "durationTicks": 35,
          "midi": 40,
          "name": "E2",
          "ticks": 13732,
          "time": 73.0425678,
          "velocity": 0.7086614173228346
        },
        {
          "duration": 0.16489364999999623,
          "durationTicks": 31,
          "midi": 42,
          "name": "F#2",
          "ticks": 13768,
          "time": 73.23405720000001,
          "velocity": 0.7874015748031497
        },
        {
          "duration": 0.14361705000000313,
          "durationTicks": 27,
          "midi": 35,
          "name": "B1",
          "ticks": 13920,
          "time": 74.042568,
          "velocity": 0.7874015748031497
        },
        {
          "duration": 0.18617024999998932,
          "durationTicks": 35,
          "midi": 38,
          "name": "D2",
          "ticks": 13948,
          "time": 74.19150420000001,
          "velocity": 0.7874015748031497
        },
        {
          "duration": 0.18617024999998932,
          "durationTicks": 35,
          "midi": 40,
          "name": "E2",
          "ticks": 13972,
          "time": 74.31916380000001,
          "velocity": 0.7086614173228346
        },
        {
          "duration": 0.16489364999999623,
          "durationTicks": 31,
          "midi": 42,
          "name": "F#2",
          "ticks": 14008,
          "time": 74.51065320000001,
          "velocity": 0.7874015748031497
        },
        {
          "duration": 0.14361705000000313,
          "durationTicks": 27,
          "midi": 35,
          "name": "B1",
          "ticks": 14160,
          "time": 75.319164,
          "velocity": 0.7874015748031497
        },
        {
          "duration": 0.14361704999998892,
          "durationTicks": 27,
          "midi": 33,
          "name": "A1",
          "ticks": 14188,
          "time": 75.46810020000001,
          "velocity": 0.7874015748031497
        },
        {
          "duration": 0.2606383499999936,
          "durationTicks": 49,
          "midi": 30,
          "name": "F#1",
          "ticks": 14212,
          "time": 75.59575980000001,
          "velocity": 0.7874015748031497
        },
        {
          "duration": 0.16489364999999623,
          "durationTicks": 31,
          "midi": 35,
          "name": "B1",
          "ticks": 14248,
          "time": 75.7872492,
          "velocity": 0.7874015748031497
        },
        {
          "duration": 0.14361705000000313,
          "durationTicks": 27,
          "midi": 35,
          "name": "B1",
          "ticks": 14400,
          "time": 76.59576,
          "velocity": 0.7874015748031497
        },
        {
          "duration": 0.14361704999998892,
          "durationTicks": 27,
          "midi": 33,
          "name": "A1",
          "ticks": 14428,
          "time": 76.7446962,
          "velocity": 0.7874015748031497
        },
        {
          "duration": 0.18617024999998932,
          "durationTicks": 35,
          "midi": 30,
          "name": "F#1",
          "ticks": 14452,
          "time": 76.87235580000001,
          "velocity": 0.7874015748031497
        },
        {
          "duration": 0.16489364999999623,
          "durationTicks": 31,
          "midi": 35,
          "name": "B1",
          "ticks": 14488,
          "time": 77.0638452,
          "velocity": 0.7874015748031497
        },
        {
          "duration": 0.16489364999999623,
          "durationTicks": 31,
          "midi": 35,
          "name": "B1",
          "ticks": 14640,
          "time": 77.87235600000001,
          "velocity": 0.7874015748031497
        },
        {
          "duration": 0.18617025000000353,
          "durationTicks": 35,
          "midi": 38,
          "name": "D2",
          "ticks": 14668,
          "time": 78.0212922,
          "velocity": 0.7874015748031497
        },
        {
          "duration": 0.18617024999998932,
          "durationTicks": 35,
          "midi": 40,
          "name": "E2",
          "ticks": 14692,
          "time": 78.1489518,
          "velocity": 0.7086614173228346
        },
        {
          "duration": 0.16489364999999623,
          "durationTicks": 31,
          "midi": 42,
          "name": "F#2",
          "ticks": 14728,
          "time": 78.3404412,
          "velocity": 0.7874015748031497
        },
        {
          "duration": 0.14361704999998892,
          "durationTicks": 27,
          "midi": 35,
          "name": "B1",
          "ticks": 14880,
          "time": 79.14895200000001,
          "velocity": 0.7874015748031497
        },
        {
          "duration": 0.18617025000000353,
          "durationTicks": 35,
          "midi": 38,
          "name": "D2",
          "ticks": 14908,
          "time": 79.2978882,
          "velocity": 0.7874015748031497
        },
        {
          "duration": 0.18617025000000353,
          "durationTicks": 35,
          "midi": 40,
          "name": "E2",
          "ticks": 14932,
          "time": 79.4255478,
          "velocity": 0.7086614173228346
        },
        {
          "duration": 0.16489364999999623,
          "durationTicks": 31,
          "midi": 42,
          "name": "F#2",
          "ticks": 14968,
          "time": 79.6170372,
          "velocity": 0.7874015748031497
        },
        {
          "duration": 0.14361704999998892,
          "durationTicks": 27,
          "midi": 35,
          "name": "B1",
          "ticks": 15120,
          "time": 80.425548,
          "velocity": 0.7874015748031497
        },
        {
          "duration": 0.14361705000000313,
          "durationTicks": 27,
          "midi": 33,
          "name": "A1",
          "ticks": 15148,
          "time": 80.5744842,
          "velocity": 0.7874015748031497
        },
        {
          "duration": 0.2606383500000078,
          "durationTicks": 49,
          "midi": 30,
          "name": "F#1",
          "ticks": 15172,
          "time": 80.7021438,
          "velocity": 0.7874015748031497
        },
        {
          "duration": 0.16489364999999623,
          "durationTicks": 31,
          "midi": 35,
          "name": "B1",
          "ticks": 15208,
          "time": 80.89363320000001,
          "velocity": 0.7874015748031497
        },
        {
          "duration": 0.14361705000000313,
          "durationTicks": 27,
          "midi": 35,
          "name": "B1",
          "ticks": 15360,
          "time": 81.702144,
          "velocity": 0.7874015748031497
        },
        {
          "duration": 0.14361705000001734,
          "durationTicks": 27,
          "midi": 33,
          "name": "A1",
          "ticks": 15388,
          "time": 81.8510802,
          "velocity": 0.7874015748031497
        },
        {
          "duration": 0.18617025000000353,
          "durationTicks": 35,
          "midi": 30,
          "name": "F#1",
          "ticks": 15412,
          "time": 81.9787398,
          "velocity": 0.7874015748031497
        },
        {
          "duration": 0.16489365000001044,
          "durationTicks": 31,
          "midi": 35,
          "name": "B1",
          "ticks": 15448,
          "time": 82.1702292,
          "velocity": 0.7874015748031497
        },
        {
          "duration": 0.16489364999999623,
          "durationTicks": 31,
          "midi": 35,
          "name": "B1",
          "ticks": 15600,
          "time": 82.97874,
          "velocity": 0.7874015748031497
        },
        {
          "duration": 0.18617025000001775,
          "durationTicks": 35,
          "midi": 38,
          "name": "D2",
          "ticks": 15628,
          "time": 83.1276762,
          "velocity": 0.7874015748031497
        },
        {
          "duration": 0.18617024999998932,
          "durationTicks": 35,
          "midi": 40,
          "name": "E2",
          "ticks": 15652,
          "time": 83.25533580000001,
          "velocity": 0.7086614173228346
        },
        {
          "duration": 0.16489365000001044,
          "durationTicks": 31,
          "midi": 42,
          "name": "F#2",
          "ticks": 15688,
          "time": 83.44682519999999,
          "velocity": 0.7874015748031497
        },
        {
          "duration": 0.14361705000000313,
          "durationTicks": 27,
          "midi": 35,
          "name": "B1",
          "ticks": 15840,
          "time": 84.255336,
          "velocity": 0.7874015748031497
        },
        {
          "duration": 0.18617025000001775,
          "durationTicks": 35,
          "midi": 38,
          "name": "D2",
          "ticks": 15868,
          "time": 84.4042722,
          "velocity": 0.7874015748031497
        },
        {
          "duration": 0.18617024999998932,
          "durationTicks": 35,
          "midi": 40,
          "name": "E2",
          "ticks": 15892,
          "time": 84.53193180000001,
          "velocity": 0.7086614173228346
        },
        {
          "duration": 0.16489365000002465,
          "durationTicks": 31,
          "midi": 42,
          "name": "F#2",
          "ticks": 15928,
          "time": 84.72342119999999,
          "velocity": 0.7874015748031497
        },
        {
          "duration": 0.14361705000000313,
          "durationTicks": 27,
          "midi": 35,
          "name": "B1",
          "ticks": 16080,
          "time": 85.531932,
          "velocity": 0.7874015748031497
        },
        {
          "duration": 0.14361705000001734,
          "durationTicks": 27,
          "midi": 33,
          "name": "A1",
          "ticks": 16108,
          "time": 85.68086819999999,
          "velocity": 0.7874015748031497
        },
        {
          "duration": 0.2606383499999936,
          "durationTicks": 49,
          "midi": 30,
          "name": "F#1",
          "ticks": 16132,
          "time": 85.80852780000001,
          "velocity": 0.7874015748031497
        },
        {
          "duration": 0.16489365000001044,
          "durationTicks": 31,
          "midi": 35,
          "name": "B1",
          "ticks": 16168,
          "time": 86.0000172,
          "velocity": 0.7874015748031497
        },
        {
          "duration": 0.14361704999998892,
          "durationTicks": 27,
          "midi": 35,
          "name": "B1",
          "ticks": 16320,
          "time": 86.80852800000001,
          "velocity": 0.7874015748031497
        },
        {
          "duration": 0.14361705000001734,
          "durationTicks": 27,
          "midi": 33,
          "name": "A1",
          "ticks": 16348,
          "time": 86.95746419999999,
          "velocity": 0.7874015748031497
        },
        {
          "duration": 0.18617024999998932,
          "durationTicks": 35,
          "midi": 30,
          "name": "F#1",
          "ticks": 16372,
          "time": 87.0851238,
          "velocity": 0.7874015748031497
        },
        {
          "duration": 0.16489365000001044,
          "durationTicks": 31,
          "midi": 35,
          "name": "B1",
          "ticks": 16408,
          "time": 87.2766132,
          "velocity": 0.7874015748031497
        },
        {
          "duration": 0.16489364999999623,
          "durationTicks": 31,
          "midi": 35,
          "name": "B1",
          "ticks": 16560,
          "time": 88.08512400000001,
          "velocity": 0.7874015748031497
        },
        {
          "duration": 0.18617025000000353,
          "durationTicks": 35,
          "midi": 38,
          "name": "D2",
          "ticks": 16588,
          "time": 88.2340602,
          "velocity": 0.7874015748031497
        },
        {
          "duration": 0.18617025000000353,
          "durationTicks": 35,
          "midi": 40,
          "name": "E2",
          "ticks": 16612,
          "time": 88.3617198,
          "velocity": 0.7086614173228346
        },
        {
          "duration": 0.16489365000001044,
          "durationTicks": 31,
          "midi": 42,
          "name": "F#2",
          "ticks": 16648,
          "time": 88.5532092,
          "velocity": 0.7874015748031497
        },
        {
          "duration": 0.14361704999998892,
          "durationTicks": 27,
          "midi": 35,
          "name": "B1",
          "ticks": 16800,
          "time": 89.36172,
          "velocity": 0.7874015748031497
        },
        {
          "duration": 0.18617025000000353,
          "durationTicks": 35,
          "midi": 38,
          "name": "D2",
          "ticks": 16828,
          "time": 89.5106562,
          "velocity": 0.7874015748031497
        },
        {
          "duration": 0.18617025000000353,
          "durationTicks": 35,
          "midi": 40,
          "name": "E2",
          "ticks": 16852,
          "time": 89.6383158,
          "velocity": 0.7086614173228346
        },
        {
          "duration": 0.16489365000001044,
          "durationTicks": 31,
          "midi": 42,
          "name": "F#2",
          "ticks": 16888,
          "time": 89.8298052,
          "velocity": 0.7874015748031497
        },
        {
          "duration": 0.14361705000000313,
          "durationTicks": 27,
          "midi": 35,
          "name": "B1",
          "ticks": 17040,
          "time": 90.638316,
          "velocity": 0.7874015748031497
        },
        {
          "duration": 0.14361705000001734,
          "durationTicks": 27,
          "midi": 33,
          "name": "A1",
          "ticks": 17068,
          "time": 90.7872522,
          "velocity": 0.7874015748031497
        },
        {
          "duration": 0.2606383499999936,
          "durationTicks": 49,
          "midi": 30,
          "name": "F#1",
          "ticks": 17092,
          "time": 90.91491180000001,
          "velocity": 0.7874015748031497
        },
        {
          "duration": 0.16489365000001044,
          "durationTicks": 31,
          "midi": 35,
          "name": "B1",
          "ticks": 17128,
          "time": 91.1064012,
          "velocity": 0.7874015748031497
        },
        {
          "duration": 0.14361705000000313,
          "durationTicks": 27,
          "midi": 35,
          "name": "B1",
          "ticks": 17280,
          "time": 91.914912,
          "velocity": 0.7874015748031497
        },
        {
          "duration": 0.14361705000001734,
          "durationTicks": 27,
          "midi": 33,
          "name": "A1",
          "ticks": 17308,
          "time": 92.0638482,
          "velocity": 0.7874015748031497
        },
        {
          "duration": 0.18617024999998932,
          "durationTicks": 35,
          "midi": 30,
          "name": "F#1",
          "ticks": 17332,
          "time": 92.19150780000001,
          "velocity": 0.7874015748031497
        },
        {
          "duration": 0.16489365000002465,
          "durationTicks": 31,
          "midi": 35,
          "name": "B1",
          "ticks": 17368,
          "time": 92.38299719999999,
          "velocity": 0.7874015748031497
        },
        {
          "duration": 0.16489364999999623,
          "durationTicks": 31,
          "midi": 35,
          "name": "B1",
          "ticks": 17520,
          "time": 93.191508,
          "velocity": 0.7874015748031497
        },
        {
          "duration": 0.18617025000001775,
          "durationTicks": 35,
          "midi": 38,
          "name": "D2",
          "ticks": 17548,
          "time": 93.3404442,
          "velocity": 0.7874015748031497
        },
        {
          "duration": 0.18617024999998932,
          "durationTicks": 35,
          "midi": 40,
          "name": "E2",
          "ticks": 17572,
          "time": 93.46810380000001,
          "velocity": 0.7086614173228346
        },
        {
          "duration": 0.16489365000001044,
          "durationTicks": 31,
          "midi": 42,
          "name": "F#2",
          "ticks": 17608,
          "time": 93.6595932,
          "velocity": 0.7874015748031497
        },
        {
          "duration": 0.14361704999998892,
          "durationTicks": 27,
          "midi": 35,
          "name": "B1",
          "ticks": 17760,
          "time": 94.46810400000001,
          "velocity": 0.7874015748031497
        },
        {
          "duration": 0.18617025000001775,
          "durationTicks": 35,
          "midi": 38,
          "name": "D2",
          "ticks": 17788,
          "time": 94.61704019999999,
          "velocity": 0.7874015748031497
        },
        {
          "duration": 0.18617024999998932,
          "durationTicks": 35,
          "midi": 40,
          "name": "E2",
          "ticks": 17812,
          "time": 94.7446998,
          "velocity": 0.7086614173228346
        },
        {
          "duration": 0.16489365000001044,
          "durationTicks": 31,
          "midi": 42,
          "name": "F#2",
          "ticks": 17848,
          "time": 94.9361892,
          "velocity": 0.7874015748031497
        },
        {
          "duration": 0.14361704999998892,
          "durationTicks": 27,
          "midi": 35,
          "name": "B1",
          "ticks": 18000,
          "time": 95.74470000000001,
          "velocity": 0.7874015748031497
        },
        {
          "duration": 0.14361705000000313,
          "durationTicks": 27,
          "midi": 33,
          "name": "A1",
          "ticks": 18028,
          "time": 95.8936362,
          "velocity": 0.7874015748031497
        },
        {
          "duration": 0.2606383500000078,
          "durationTicks": 49,
          "midi": 30,
          "name": "F#1",
          "ticks": 18052,
          "time": 96.0212958,
          "velocity": 0.7874015748031497
        },
        {
          "duration": 0.16489365000001044,
          "durationTicks": 31,
          "midi": 35,
          "name": "B1",
          "ticks": 18088,
          "time": 96.2127852,
          "velocity": 0.7874015748031497
        },
        {
          "duration": 0.14361704999998892,
          "durationTicks": 27,
          "midi": 35,
          "name": "B1",
          "ticks": 18240,
          "time": 97.021296,
          "velocity": 0.7874015748031497
        },
        {
          "duration": 0.14361705000000313,
          "durationTicks": 27,
          "midi": 33,
          "name": "A1",
          "ticks": 18268,
          "time": 97.1702322,
          "velocity": 0.7874015748031497
        },
        {
          "duration": 0.18617025000000353,
          "durationTicks": 35,
          "midi": 30,
          "name": "F#1",
          "ticks": 18292,
          "time": 97.2978918,
          "velocity": 0.7874015748031497
        },
        {
          "duration": 0.16489365000001044,
          "durationTicks": 31,
          "midi": 35,
          "name": "B1",
          "ticks": 18328,
          "time": 97.4893812,
          "velocity": 0.7874015748031497
        },
        {
          "duration": 0.16489364999999623,
          "durationTicks": 31,
          "midi": 35,
          "name": "B1",
          "ticks": 18480,
          "time": 98.297892,
          "velocity": 0.7874015748031497
        },
        {
          "duration": 0.18617025000000353,
          "durationTicks": 35,
          "midi": 38,
          "name": "D2",
          "ticks": 18508,
          "time": 98.4468282,
          "velocity": 0.7874015748031497
        },
        {
          "duration": 0.18617024999998932,
          "durationTicks": 35,
          "midi": 40,
          "name": "E2",
          "ticks": 18532,
          "time": 98.57448780000001,
          "velocity": 0.7086614173228346
        },
        {
          "duration": 0.16489365000001044,
          "durationTicks": 31,
          "midi": 42,
          "name": "F#2",
          "ticks": 18568,
          "time": 98.7659772,
          "velocity": 0.7874015748031497
        },
        {
          "duration": 0.14361705000000313,
          "durationTicks": 27,
          "midi": 35,
          "name": "B1",
          "ticks": 18720,
          "time": 99.574488,
          "velocity": 0.7874015748031497
        },
        {
          "duration": 0.18617025000001775,
          "durationTicks": 35,
          "midi": 38,
          "name": "D2",
          "ticks": 18748,
          "time": 99.7234242,
          "velocity": 0.7874015748031497
        },
        {
          "duration": 0.18617024999998932,
          "durationTicks": 35,
          "midi": 40,
          "name": "E2",
          "ticks": 18772,
          "time": 99.85108380000001,
          "velocity": 0.7086614173228346
        },
        {
          "duration": 0.16489365000001044,
          "durationTicks": 31,
          "midi": 42,
          "name": "F#2",
          "ticks": 18808,
          "time": 100.04257319999999,
          "velocity": 0.7874015748031497
        },
        {
          "duration": 0.14361705000000313,
          "durationTicks": 27,
          "midi": 35,
          "name": "B1",
          "ticks": 18960,
          "time": 100.851084,
          "velocity": 0.7874015748031497
        },
        {
          "duration": 0.14361705000001734,
          "durationTicks": 27,
          "midi": 33,
          "name": "A1",
          "ticks": 18988,
          "time": 101.0000202,
          "velocity": 0.7874015748031497
        },
        {
          "duration": 0.2606383499999936,
          "durationTicks": 49,
          "midi": 30,
          "name": "F#1",
          "ticks": 19012,
          "time": 101.12767980000001,
          "velocity": 0.7874015748031497
        },
        {
          "duration": 0.16489365000002465,
          "durationTicks": 31,
          "midi": 35,
          "name": "B1",
          "ticks": 19048,
          "time": 101.31916919999999,
          "velocity": 0.7874015748031497
        },
        {
          "duration": 0.14361705000000313,
          "durationTicks": 27,
          "midi": 35,
          "name": "B1",
          "ticks": 19200,
          "time": 102.12768,
          "velocity": 0.7874015748031497
        },
        {
          "duration": 0.14361705000001734,
          "durationTicks": 27,
          "midi": 33,
          "name": "A1",
          "ticks": 19228,
          "time": 102.27661619999999,
          "velocity": 0.7874015748031497
        },
        {
          "duration": 0.18617024999998932,
          "durationTicks": 35,
          "midi": 30,
          "name": "F#1",
          "ticks": 19252,
          "time": 102.40427580000001,
          "velocity": 0.7874015748031497
        },
        {
          "duration": 0.16489365000001044,
          "durationTicks": 31,
          "midi": 35,
          "name": "B1",
          "ticks": 19288,
          "time": 102.5957652,
          "velocity": 0.7874015748031497
        },
        {
          "duration": 0.16489364999999623,
          "durationTicks": 31,
          "midi": 35,
          "name": "B1",
          "ticks": 19440,
          "time": 103.40427600000001,
          "velocity": 0.7874015748031497
        },
        {
          "duration": 0.18617025000001775,
          "durationTicks": 35,
          "midi": 38,
          "name": "D2",
          "ticks": 19468,
          "time": 103.55321219999999,
          "velocity": 0.7874015748031497
        },
        {
          "duration": 0.18617024999998932,
          "durationTicks": 35,
          "midi": 40,
          "name": "E2",
          "ticks": 19492,
          "time": 103.6808718,
          "velocity": 0.7086614173228346
        },
        {
          "duration": 0.16489365000001044,
          "durationTicks": 31,
          "midi": 42,
          "name": "F#2",
          "ticks": 19528,
          "time": 103.8723612,
          "velocity": 0.7874015748031497
        },
        {
          "duration": 0.14361704999998892,
          "durationTicks": 27,
          "midi": 35,
          "name": "B1",
          "ticks": 19680,
          "time": 104.68087200000001,
          "velocity": 0.7874015748031497
        },
        {
          "duration": 0.18617025000000353,
          "durationTicks": 35,
          "midi": 38,
          "name": "D2",
          "ticks": 19708,
          "time": 104.8298082,
          "velocity": 0.7874015748031497
        },
        {
          "duration": 0.18617025000000353,
          "durationTicks": 35,
          "midi": 40,
          "name": "E2",
          "ticks": 19732,
          "time": 104.9574678,
          "velocity": 0.7086614173228346
        },
        {
          "duration": 0.16489365000001044,
          "durationTicks": 31,
          "midi": 42,
          "name": "F#2",
          "ticks": 19768,
          "time": 105.1489572,
          "velocity": 0.7874015748031497
        },
        {
          "duration": 0.14361704999998892,
          "durationTicks": 27,
          "midi": 35,
          "name": "B1",
          "ticks": 19920,
          "time": 105.957468,
          "velocity": 0.7874015748031497
        },
        {
          "duration": 0.14361705000001734,
          "durationTicks": 27,
          "midi": 33,
          "name": "A1",
          "ticks": 19948,
          "time": 106.1064042,
          "velocity": 0.7874015748031497
        },
        {
          "duration": 0.2606383500000078,
          "durationTicks": 49,
          "midi": 30,
          "name": "F#1",
          "ticks": 19972,
          "time": 106.2340638,
          "velocity": 0.7874015748031497
        },
        {
          "duration": 0.16489365000001044,
          "durationTicks": 31,
          "midi": 35,
          "name": "B1",
          "ticks": 20008,
          "time": 106.4255532,
          "velocity": 0.7874015748031497
        },
        {
          "duration": 0.14361705000000313,
          "durationTicks": 27,
          "midi": 35,
          "name": "B1",
          "ticks": 20160,
          "time": 107.234064,
          "velocity": 0.7874015748031497
        },
        {
          "duration": 0.14361705000001734,
          "durationTicks": 27,
          "midi": 33,
          "name": "A1",
          "ticks": 20188,
          "time": 107.3830002,
          "velocity": 0.7874015748031497
        },
        {
          "duration": 0.18617024999998932,
          "durationTicks": 35,
          "midi": 30,
          "name": "F#1",
          "ticks": 20212,
          "time": 107.51065980000001,
          "velocity": 0.7874015748031497
        },
        {
          "duration": 0.16489365000001044,
          "durationTicks": 31,
          "midi": 35,
          "name": "B1",
          "ticks": 20248,
          "time": 107.7021492,
          "velocity": 0.7874015748031497
        },
        {
          "duration": 0.16489364999999623,
          "durationTicks": 31,
          "midi": 35,
          "name": "B1",
          "ticks": 20400,
          "time": 108.51066,
          "velocity": 0.7874015748031497
        },
        {
          "duration": 0.18617025000001775,
          "durationTicks": 35,
          "midi": 38,
          "name": "D2",
          "ticks": 20428,
          "time": 108.6595962,
          "velocity": 0.7874015748031497
        },
        {
          "duration": 0.18617024999998932,
          "durationTicks": 35,
          "midi": 40,
          "name": "E2",
          "ticks": 20452,
          "time": 108.78725580000001,
          "velocity": 0.7086614173228346
        },
        {
          "duration": 0.16489365000002465,
          "durationTicks": 31,
          "midi": 42,
          "name": "F#2",
          "ticks": 20488,
          "time": 108.97874519999999,
          "velocity": 0.7874015748031497
        },
        {
          "duration": 0.14361705000000313,
          "durationTicks": 27,
          "midi": 35,
          "name": "B1",
          "ticks": 20640,
          "time": 109.787256,
          "velocity": 0.7874015748031497
        },
        {
          "duration": 0.18617025000001775,
          "durationTicks": 35,
          "midi": 38,
          "name": "D2",
          "ticks": 20668,
          "time": 109.9361922,
          "velocity": 0.7874015748031497
        },
        {
          "duration": 0.18617024999998932,
          "durationTicks": 35,
          "midi": 40,
          "name": "E2",
          "ticks": 20692,
          "time": 110.06385180000001,
          "velocity": 0.7086614173228346
        },
        {
          "duration": 0.16489365000001044,
          "durationTicks": 31,
          "midi": 42,
          "name": "F#2",
          "ticks": 20728,
          "time": 110.2553412,
          "velocity": 0.7874015748031497
        },
        {
          "duration": 0.14361704999998892,
          "durationTicks": 27,
          "midi": 35,
          "name": "B1",
          "ticks": 20880,
          "time": 111.06385200000001,
          "velocity": 0.7874015748031497
        },
        {
          "duration": 0.14361705000001734,
          "durationTicks": 27,
          "midi": 33,
          "name": "A1",
          "ticks": 20908,
          "time": 111.21278819999999,
          "velocity": 0.7874015748031497
        },
        {
          "duration": 0.2606383499999936,
          "durationTicks": 49,
          "midi": 30,
          "name": "F#1",
          "ticks": 20932,
          "time": 111.3404478,
          "velocity": 0.7874015748031497
        },
        {
          "duration": 0.16489365000001044,
          "durationTicks": 31,
          "midi": 35,
          "name": "B1",
          "ticks": 20968,
          "time": 111.5319372,
          "velocity": 0.7874015748031497
        },
        {
          "duration": 0.14361704999998892,
          "durationTicks": 27,
          "midi": 35,
          "name": "B1",
          "ticks": 21120,
          "time": 112.34044800000001,
          "velocity": 0.7874015748031497
        },
        {
          "duration": 0.14361705000000313,
          "durationTicks": 27,
          "midi": 33,
          "name": "A1",
          "ticks": 21148,
          "time": 112.4893842,
          "velocity": 0.7874015748031497
        },
        {
          "duration": 0.18617025000000353,
          "durationTicks": 35,
          "midi": 30,
          "name": "F#1",
          "ticks": 21172,
          "time": 112.6170438,
          "velocity": 0.7874015748031497
        },
        {
          "duration": 0.16489365000001044,
          "durationTicks": 31,
          "midi": 35,
          "name": "B1",
          "ticks": 21208,
          "time": 112.8085332,
          "velocity": 0.7874015748031497
        },
        {
          "duration": 0.16489364999999623,
          "durationTicks": 31,
          "midi": 35,
          "name": "B1",
          "ticks": 21360,
          "time": 113.617044,
          "velocity": 0.7874015748031497
        },
        {
          "duration": 0.18617025000000353,
          "durationTicks": 35,
          "midi": 38,
          "name": "D2",
          "ticks": 21388,
          "time": 113.7659802,
          "velocity": 0.7874015748031497
        },
        {
          "duration": 0.18617025000000353,
          "durationTicks": 35,
          "midi": 40,
          "name": "E2",
          "ticks": 21412,
          "time": 113.8936398,
          "velocity": 0.7086614173228346
        },
        {
          "duration": 0.16489365000001044,
          "durationTicks": 31,
          "midi": 42,
          "name": "F#2",
          "ticks": 21448,
          "time": 114.0851292,
          "velocity": 0.7874015748031497
        },
        {
          "duration": 0.14361705000000313,
          "durationTicks": 27,
          "midi": 35,
          "name": "B1",
          "ticks": 21600,
          "time": 114.89364,
          "velocity": 0.7874015748031497
        },
        {
          "duration": 0.18617025000000353,
          "durationTicks": 35,
          "midi": 38,
          "name": "D2",
          "ticks": 21628,
          "time": 115.0425762,
          "velocity": 0.7874015748031497
        },
        {
          "duration": 0.18617024999998932,
          "durationTicks": 35,
          "midi": 40,
          "name": "E2",
          "ticks": 21652,
          "time": 115.17023580000001,
          "velocity": 0.7086614173228346
        },
        {
          "duration": 0.16489365000001044,
          "durationTicks": 31,
          "midi": 42,
          "name": "F#2",
          "ticks": 21688,
          "time": 115.3617252,
          "velocity": 0.7874015748031497
        },
        {
          "duration": 0.14361705000000313,
          "durationTicks": 27,
          "midi": 35,
          "name": "B1",
          "ticks": 21840,
          "time": 116.170236,
          "velocity": 0.7874015748031497
        },
        {
          "duration": 0.14361705000001734,
          "durationTicks": 27,
          "midi": 33,
          "name": "A1",
          "ticks": 21868,
          "time": 116.3191722,
          "velocity": 0.7874015748031497
        },
        {
          "duration": 0.2606383499999936,
          "durationTicks": 49,
          "midi": 30,
          "name": "F#1",
          "ticks": 21892,
          "time": 116.44683180000001,
          "velocity": 0.7874015748031497
        },
        {
          "duration": 0.16489365000002465,
          "durationTicks": 31,
          "midi": 35,
          "name": "B1",
          "ticks": 21928,
          "time": 116.6383212,
          "velocity": 0.7874015748031497
        },
        {
          "duration": 0.14361705000000313,
          "durationTicks": 27,
          "midi": 35,
          "name": "B1",
          "ticks": 22080,
          "time": 117.446832,
          "velocity": 0.7874015748031497
        },
        {
          "duration": 0.14361705000001734,
          "durationTicks": 27,
          "midi": 33,
          "name": "A1",
          "ticks": 22108,
          "time": 117.5957682,
          "velocity": 0.7874015748031497
        },
        {
          "duration": 0.18617024999998932,
          "durationTicks": 35,
          "midi": 30,
          "name": "F#1",
          "ticks": 22132,
          "time": 117.72342780000001,
          "velocity": 0.7874015748031497
        },
        {
          "duration": 0.16489365000002465,
          "durationTicks": 31,
          "midi": 35,
          "name": "B1",
          "ticks": 22168,
          "time": 117.91491719999999,
          "velocity": 0.7874015748031497
        },
        {
          "duration": 0.16489364999998202,
          "durationTicks": 31,
          "midi": 35,
          "name": "B1",
          "ticks": 22320,
          "time": 118.72342800000001,
          "velocity": 0.7874015748031497
        },
        {
          "duration": 0.18617025000001775,
          "durationTicks": 35,
          "midi": 38,
          "name": "D2",
          "ticks": 22348,
          "time": 118.87236419999999,
          "velocity": 0.7874015748031497
        },
        {
          "duration": 0.18617024999998932,
          "durationTicks": 35,
          "midi": 40,
          "name": "E2",
          "ticks": 22372,
          "time": 119.00002380000001,
          "velocity": 0.7086614173228346
        },
        {
          "duration": 0.16489365000001044,
          "durationTicks": 31,
          "midi": 42,
          "name": "F#2",
          "ticks": 22408,
          "time": 119.1915132,
          "velocity": 0.7874015748031497
        },
        {
          "duration": 0.14361704999998892,
          "durationTicks": 27,
          "midi": 35,
          "name": "B1",
          "ticks": 22560,
          "time": 120.00002400000001,
          "velocity": 0.7874015748031497
        },
        {
          "duration": 0.18617025000001775,
          "durationTicks": 35,
          "midi": 38,
          "name": "D2",
          "ticks": 22588,
          "time": 120.14896019999999,
          "velocity": 0.7874015748031497
        },
        {
          "duration": 0.18617025000000353,
          "durationTicks": 35,
          "midi": 40,
          "name": "E2",
          "ticks": 22612,
          "time": 120.2766198,
          "velocity": 0.7086614173228346
        },
        {
          "duration": 0.16489365000001044,
          "durationTicks": 31,
          "midi": 42,
          "name": "F#2",
          "ticks": 22648,
          "time": 120.4681092,
          "velocity": 0.7874015748031497
        },
        {
          "duration": 0.14361704999998892,
          "durationTicks": 27,
          "midi": 35,
          "name": "B1",
          "ticks": 22800,
          "time": 121.27662000000001,
          "velocity": 0.7874015748031497
        },
        {
          "duration": 0.14361705000000313,
          "durationTicks": 27,
          "midi": 33,
          "name": "A1",
          "ticks": 22828,
          "time": 121.4255562,
          "velocity": 0.7874015748031497
        },
        {
          "duration": 0.2606383500000078,
          "durationTicks": 49,
          "midi": 30,
          "name": "F#1",
          "ticks": 22852,
          "time": 121.5532158,
          "velocity": 0.7874015748031497
        },
        {
          "duration": 0.16489365000001044,
          "durationTicks": 31,
          "midi": 35,
          "name": "B1",
          "ticks": 22888,
          "time": 121.7447052,
          "velocity": 0.7874015748031497
        },
        {
          "duration": 0.14361705000000313,
          "durationTicks": 27,
          "midi": 35,
          "name": "B1",
          "ticks": 23040,
          "time": 122.553216,
          "velocity": 0.7874015748031497
        },
        {
          "duration": 0.14361705000001734,
          "durationTicks": 27,
          "midi": 33,
          "name": "A1",
          "ticks": 23068,
          "time": 122.7021522,
          "velocity": 0.7874015748031497
        },
        {
          "duration": 0.18617025000000353,
          "durationTicks": 35,
          "midi": 30,
          "name": "F#1",
          "ticks": 23092,
          "time": 122.8298118,
          "velocity": 0.7874015748031497
        },
        {
          "duration": 0.16489365000001044,
          "durationTicks": 31,
          "midi": 35,
          "name": "B1",
          "ticks": 23128,
          "time": 123.0213012,
          "velocity": 0.7874015748031497
        },
        {
          "duration": 0.16489364999999623,
          "durationTicks": 31,
          "midi": 35,
          "name": "B1",
          "ticks": 23280,
          "time": 123.829812,
          "velocity": 0.7874015748031497
        },
        {
          "duration": 0.18617025000001775,
          "durationTicks": 35,
          "midi": 38,
          "name": "D2",
          "ticks": 23308,
          "time": 123.9787482,
          "velocity": 0.7874015748031497
        },
        {
          "duration": 0.18617024999998932,
          "durationTicks": 35,
          "midi": 40,
          "name": "E2",
          "ticks": 23332,
          "time": 124.10640780000001,
          "velocity": 0.7086614173228346
        },
        {
          "duration": 0.16489365000001044,
          "durationTicks": 31,
          "midi": 42,
          "name": "F#2",
          "ticks": 23368,
          "time": 124.2978972,
          "velocity": 0.7874015748031497
        },
        {
          "duration": 0.14361705000000313,
          "durationTicks": 27,
          "midi": 35,
          "name": "B1",
          "ticks": 23520,
          "time": 125.106408,
          "velocity": 0.7874015748031497
        },
        {
          "duration": 0.18617025000001775,
          "durationTicks": 35,
          "midi": 38,
          "name": "D2",
          "ticks": 23548,
          "time": 125.2553442,
          "velocity": 0.7874015748031497
        },
        {
          "duration": 0.18617024999998932,
          "durationTicks": 35,
          "midi": 40,
          "name": "E2",
          "ticks": 23572,
          "time": 125.38300380000001,
          "velocity": 0.7086614173228346
        },
        {
          "duration": 0.16489365000002465,
          "durationTicks": 31,
          "midi": 42,
          "name": "F#2",
          "ticks": 23608,
          "time": 125.57449319999999,
          "velocity": 0.7874015748031497
        },
        {
          "duration": 0.14361705000000313,
          "durationTicks": 27,
          "midi": 35,
          "name": "B1",
          "ticks": 23760,
          "time": 126.383004,
          "velocity": 0.7874015748031497
        },
        {
          "duration": 0.14361705000001734,
          "durationTicks": 27,
          "midi": 33,
          "name": "A1",
          "ticks": 23788,
          "time": 126.5319402,
          "velocity": 0.7874015748031497
        },
        {
          "duration": 0.2606383499999936,
          "durationTicks": 49,
          "midi": 30,
          "name": "F#1",
          "ticks": 23812,
          "time": 126.65959980000001,
          "velocity": 0.7874015748031497
        },
        {
          "duration": 0.16489365000001044,
          "durationTicks": 31,
          "midi": 35,
          "name": "B1",
          "ticks": 23848,
          "time": 126.8510892,
          "velocity": 0.7874015748031497
        },
        {
          "duration": 0.14361705000001734,
          "durationTicks": 27,
          "midi": 35,
          "name": "B1",
          "ticks": 25920,
          "time": 137.872368,
          "velocity": 0.7874015748031497
        },
        {
          "duration": 0.14361705000001734,
          "durationTicks": 27,
          "midi": 33,
          "name": "A1",
          "ticks": 25948,
          "time": 138.0213042,
          "velocity": 0.7874015748031497
        },
        {
          "duration": 0.1861702499999751,
          "durationTicks": 35,
          "midi": 30,
          "name": "F#1",
          "ticks": 25972,
          "time": 138.14896380000002,
          "velocity": 0.7874015748031497
        },
        {
          "duration": 0.16489365000003886,
          "durationTicks": 31,
          "midi": 35,
          "name": "B1",
          "ticks": 26008,
          "time": 138.34045319999998,
          "velocity": 0.7874015748031497
        },
        {
          "duration": 0.16489364999998202,
          "durationTicks": 31,
          "midi": 35,
          "name": "B1",
          "ticks": 26160,
          "time": 139.148964,
          "velocity": 0.7874015748031497
        },
        {
          "duration": 0.18617025000003196,
          "durationTicks": 35,
          "midi": 38,
          "name": "D2",
          "ticks": 26188,
          "time": 139.2979002,
          "velocity": 0.7874015748031497
        },
        {
          "duration": 0.18617025000000353,
          "durationTicks": 35,
          "midi": 40,
          "name": "E2",
          "ticks": 26212,
          "time": 139.4255598,
          "velocity": 0.7086614173228346
        },
        {
          "duration": 0.16489365000001044,
          "durationTicks": 31,
          "midi": 42,
          "name": "F#2",
          "ticks": 26248,
          "time": 139.6170492,
          "velocity": 0.7874015748031497
        },
        {
          "duration": 0.14361704999998892,
          "durationTicks": 27,
          "midi": 35,
          "name": "B1",
          "ticks": 26400,
          "time": 140.42556000000002,
          "velocity": 0.7874015748031497
        },
        {
          "duration": 0.18617025000000353,
          "durationTicks": 35,
          "midi": 38,
          "name": "D2",
          "ticks": 26428,
          "time": 140.5744962,
          "velocity": 0.7874015748031497
        },
        {
          "duration": 0.18617025000000353,
          "durationTicks": 35,
          "midi": 40,
          "name": "E2",
          "ticks": 26452,
          "time": 140.7021558,
          "velocity": 0.7086614173228346
        },
        {
          "duration": 0.16489365000001044,
          "durationTicks": 31,
          "midi": 42,
          "name": "F#2",
          "ticks": 26488,
          "time": 140.8936452,
          "velocity": 0.7874015748031497
        },
        {
          "duration": 0.14361704999998892,
          "durationTicks": 27,
          "midi": 35,
          "name": "B1",
          "ticks": 26640,
          "time": 141.702156,
          "velocity": 0.7874015748031497
        },
        {
          "duration": 0.14361704999998892,
          "durationTicks": 27,
          "midi": 33,
          "name": "A1",
          "ticks": 26668,
          "time": 141.8510922,
          "velocity": 0.7874015748031497
        },
        {
          "duration": 0.260638350000022,
          "durationTicks": 49,
          "midi": 30,
          "name": "F#1",
          "ticks": 26692,
          "time": 141.9787518,
          "velocity": 0.7874015748031497
        },
        {
          "duration": 0.16489365000001044,
          "durationTicks": 31,
          "midi": 35,
          "name": "B1",
          "ticks": 26728,
          "time": 142.1702412,
          "velocity": 0.7874015748031497
        },
        {
          "duration": 0.14361704999998892,
          "durationTicks": 27,
          "midi": 35,
          "name": "B1",
          "ticks": 26880,
          "time": 142.97875200000001,
          "velocity": 0.7874015748031497
        },
        {
          "duration": 0.14361705000001734,
          "durationTicks": 27,
          "midi": 33,
          "name": "A1",
          "ticks": 26908,
          "time": 143.1276882,
          "velocity": 0.7874015748031497
        },
        {
          "duration": 0.18617025000000353,
          "durationTicks": 35,
          "midi": 30,
          "name": "F#1",
          "ticks": 26932,
          "time": 143.2553478,
          "velocity": 0.7874015748031497
        },
        {
          "duration": 0.16489365000001044,
          "durationTicks": 31,
          "midi": 35,
          "name": "B1",
          "ticks": 26968,
          "time": 143.4468372,
          "velocity": 0.7874015748031497
        },
        {
          "duration": 0.16489365000001044,
          "durationTicks": 31,
          "midi": 35,
          "name": "B1",
          "ticks": 27120,
          "time": 144.255348,
          "velocity": 0.7874015748031497
        },
        {
          "duration": 0.18617025000000353,
          "durationTicks": 35,
          "midi": 38,
          "name": "D2",
          "ticks": 27148,
          "time": 144.4042842,
          "velocity": 0.7874015748031497
        },
        {
          "duration": 0.1861702499999751,
          "durationTicks": 35,
          "midi": 40,
          "name": "E2",
          "ticks": 27172,
          "time": 144.53194380000002,
          "velocity": 0.7086614173228346
        },
        {
          "duration": 0.16489365000001044,
          "durationTicks": 31,
          "midi": 42,
          "name": "F#2",
          "ticks": 27208,
          "time": 144.7234332,
          "velocity": 0.7874015748031497
        },
        {
          "duration": 0.14361704999998892,
          "durationTicks": 27,
          "midi": 35,
          "name": "B1",
          "ticks": 27360,
          "time": 145.531944,
          "velocity": 0.7874015748031497
        },
        {
          "duration": 0.18617025000003196,
          "durationTicks": 35,
          "midi": 38,
          "name": "D2",
          "ticks": 27388,
          "time": 145.6808802,
          "velocity": 0.7874015748031497
        },
        {
          "duration": 0.18617025000000353,
          "durationTicks": 35,
          "midi": 40,
          "name": "E2",
          "ticks": 27412,
          "time": 145.8085398,
          "velocity": 0.7086614173228346
        },
        {
          "duration": 0.16489365000001044,
          "durationTicks": 31,
          "midi": 42,
          "name": "F#2",
          "ticks": 27448,
          "time": 146.0000292,
          "velocity": 0.7874015748031497
        },
        {
          "duration": 0.14361705000001734,
          "durationTicks": 27,
          "midi": 35,
          "name": "B1",
          "ticks": 27600,
          "time": 146.80854,
          "velocity": 0.7874015748031497
        },
        {
          "duration": 0.14361705000001734,
          "durationTicks": 27,
          "midi": 33,
          "name": "A1",
          "ticks": 27628,
          "time": 146.9574762,
          "velocity": 0.7874015748031497
        },
        {
          "duration": 0.2606383499999936,
          "durationTicks": 49,
          "midi": 30,
          "name": "F#1",
          "ticks": 27652,
          "time": 147.08513580000002,
          "velocity": 0.7874015748031497
        },
        {
          "duration": 0.16489365000001044,
          "durationTicks": 31,
          "midi": 35,
          "name": "B1",
          "ticks": 27688,
          "time": 147.2766252,
          "velocity": 0.7874015748031497
        },
        {
          "duration": 0.14361704999998892,
          "durationTicks": 27,
          "midi": 35,
          "name": "B1",
          "ticks": 27840,
          "time": 148.085136,
          "velocity": 0.7874015748031497
        },
        {
          "duration": 0.14361705000001734,
          "durationTicks": 27,
          "midi": 33,
          "name": "A1",
          "ticks": 27868,
          "time": 148.23407219999999,
          "velocity": 0.7874015748031497
        },
        {
          "duration": 0.18617025000000353,
          "durationTicks": 35,
          "midi": 30,
          "name": "F#1",
          "ticks": 27892,
          "time": 148.3617318,
          "velocity": 0.7874015748031497
        },
        {
          "duration": 0.16489365000001044,
          "durationTicks": 31,
          "midi": 35,
          "name": "B1",
          "ticks": 27928,
          "time": 148.5532212,
          "velocity": 0.7874015748031497
        },
        {
          "duration": 0.16489364999998202,
          "durationTicks": 31,
          "midi": 35,
          "name": "B1",
          "ticks": 28080,
          "time": 149.36173200000002,
          "velocity": 0.7874015748031497
        },
        {
          "duration": 0.18617025000000353,
          "durationTicks": 35,
          "midi": 38,
          "name": "D2",
          "ticks": 28108,
          "time": 149.5106682,
          "velocity": 0.7874015748031497
        },
        {
          "duration": 0.18617025000000353,
          "durationTicks": 35,
          "midi": 40,
          "name": "E2",
          "ticks": 28132,
          "time": 149.6383278,
          "velocity": 0.7086614173228346
        },
        {
          "duration": 0.16489365000001044,
          "durationTicks": 31,
          "midi": 42,
          "name": "F#2",
          "ticks": 28168,
          "time": 149.8298172,
          "velocity": 0.7874015748031497
        },
        {
          "duration": 0.14361704999998892,
          "durationTicks": 27,
          "midi": 35,
          "name": "B1",
          "ticks": 28320,
          "time": 150.638328,
          "velocity": 0.7874015748031497
        },
        {
          "duration": 0.18617025000000353,
          "durationTicks": 35,
          "midi": 38,
          "name": "D2",
          "ticks": 28348,
          "time": 150.7872642,
          "velocity": 0.7874015748031497
        },
        {
          "duration": 0.18617025000000353,
          "durationTicks": 35,
          "midi": 40,
          "name": "E2",
          "ticks": 28372,
          "time": 150.9149238,
          "velocity": 0.7086614173228346
        },
        {
          "duration": 0.16489365000001044,
          "durationTicks": 31,
          "midi": 42,
          "name": "F#2",
          "ticks": 28408,
          "time": 151.1064132,
          "velocity": 0.7874015748031497
        },
        {
          "duration": 0.14361704999998892,
          "durationTicks": 27,
          "midi": 35,
          "name": "B1",
          "ticks": 28560,
          "time": 151.914924,
          "velocity": 0.7874015748031497
        },
        {
          "duration": 0.14361705000001734,
          "durationTicks": 27,
          "midi": 33,
          "name": "A1",
          "ticks": 28588,
          "time": 152.0638602,
          "velocity": 0.7874015748031497
        },
        {
          "duration": 0.2606383499999936,
          "durationTicks": 49,
          "midi": 30,
          "name": "F#1",
          "ticks": 28612,
          "time": 152.1915198,
          "velocity": 0.7874015748031497
        },
        {
          "duration": 0.16489365000001044,
          "durationTicks": 31,
          "midi": 35,
          "name": "B1",
          "ticks": 28648,
          "time": 152.3830092,
          "velocity": 0.7874015748031497
        },
        {
          "duration": 0.14361705000001734,
          "durationTicks": 27,
          "midi": 35,
          "name": "B1",
          "ticks": 28800,
          "time": 153.19152,
          "velocity": 0.7874015748031497
        },
        {
          "duration": 0.14361705000001734,
          "durationTicks": 27,
          "midi": 33,
          "name": "A1",
          "ticks": 28828,
          "time": 153.3404562,
          "velocity": 0.7874015748031497
        },
        {
          "duration": 0.1861702499999751,
          "durationTicks": 35,
          "midi": 30,
          "name": "F#1",
          "ticks": 28852,
          "time": 153.46811580000002,
          "velocity": 0.7874015748031497
        },
        {
          "duration": 0.16489365000003886,
          "durationTicks": 31,
          "midi": 35,
          "name": "B1",
          "ticks": 28888,
          "time": 153.6596052,
          "velocity": 0.7874015748031497
        },
        {
          "duration": 0.16489364999998202,
          "durationTicks": 31,
          "midi": 35,
          "name": "B1",
          "ticks": 29040,
          "time": 154.468116,
          "velocity": 0.7874015748031497
        },
        {
          "duration": 0.18617025000003196,
          "durationTicks": 35,
          "midi": 38,
          "name": "D2",
          "ticks": 29068,
          "time": 154.6170522,
          "velocity": 0.7874015748031497
        },
        {
          "duration": 0.18617025000000353,
          "durationTicks": 35,
          "midi": 40,
          "name": "E2",
          "ticks": 29092,
          "time": 154.7447118,
          "velocity": 0.7086614173228346
        },
        {
          "duration": 0.16489365000001044,
          "durationTicks": 31,
          "midi": 42,
          "name": "F#2",
          "ticks": 29128,
          "time": 154.9362012,
          "velocity": 0.7874015748031497
        },
        {
          "duration": 0.14361704999998892,
          "durationTicks": 27,
          "midi": 35,
          "name": "B1",
          "ticks": 29280,
          "time": 155.74471200000002,
          "velocity": 0.7874015748031497
        },
        {
          "duration": 0.18617025000000353,
          "durationTicks": 35,
          "midi": 38,
          "name": "D2",
          "ticks": 29308,
          "time": 155.8936482,
          "velocity": 0.7874015748031497
        },
        {
          "duration": 0.1861702499999751,
          "durationTicks": 35,
          "midi": 40,
          "name": "E2",
          "ticks": 29332,
          "time": 156.02130780000002,
          "velocity": 0.7086614173228346
        },
        {
          "duration": 0.16489365000001044,
          "durationTicks": 31,
          "midi": 42,
          "name": "F#2",
          "ticks": 29368,
          "time": 156.2127972,
          "velocity": 0.7874015748031497
        },
        {
          "duration": 0.14361704999998892,
          "durationTicks": 27,
          "midi": 35,
          "name": "B1",
          "ticks": 29520,
          "time": 157.021308,
          "velocity": 0.7874015748031497
        },
        {
          "duration": 0.14361704999998892,
          "durationTicks": 27,
          "midi": 33,
          "name": "A1",
          "ticks": 29548,
          "time": 157.1702442,
          "velocity": 0.7874015748031497
        },
        {
          "duration": 0.260638350000022,
          "durationTicks": 49,
          "midi": 30,
          "name": "F#1",
          "ticks": 29572,
          "time": 157.2979038,
          "velocity": 0.7874015748031497
        },
        {
          "duration": 0.16489365000001044,
          "durationTicks": 31,
          "midi": 35,
          "name": "B1",
          "ticks": 29608,
          "time": 157.4893932,
          "velocity": 0.7874015748031497
        },
        {
          "duration": 0.14361705000001734,
          "durationTicks": 27,
          "midi": 35,
          "name": "B1",
          "ticks": 33600,
          "time": 178.72344,
          "velocity": 0.7874015748031497
        },
        {
          "duration": 0.14361704999998892,
          "durationTicks": 27,
          "midi": 33,
          "name": "A1",
          "ticks": 33628,
          "time": 178.87237620000002,
          "velocity": 0.7874015748031497
        },
        {
          "duration": 0.18617025000000353,
          "durationTicks": 35,
          "midi": 30,
          "name": "F#1",
          "ticks": 33652,
          "time": 179.0000358,
          "velocity": 0.7874015748031497
        },
        {
          "duration": 0.16489364999998202,
          "durationTicks": 31,
          "midi": 35,
          "name": "B1",
          "ticks": 33688,
          "time": 179.19152520000003,
          "velocity": 0.7874015748031497
        },
        {
          "duration": 0.16489364999998202,
          "durationTicks": 31,
          "midi": 35,
          "name": "B1",
          "ticks": 33840,
          "time": 180.00003600000002,
          "velocity": 0.7874015748031497
        },
        {
          "duration": 0.1861702499999751,
          "durationTicks": 35,
          "midi": 38,
          "name": "D2",
          "ticks": 33868,
          "time": 180.14897220000003,
          "velocity": 0.7874015748031497
        },
        {
          "duration": 0.18617025000000353,
          "durationTicks": 35,
          "midi": 40,
          "name": "E2",
          "ticks": 33892,
          "time": 180.27663180000002,
          "velocity": 0.7086614173228346
        },
        {
          "duration": 0.16489365000001044,
          "durationTicks": 31,
          "midi": 42,
          "name": "F#2",
          "ticks": 33928,
          "time": 180.4681212,
          "velocity": 0.7874015748031497
        },
        {
          "duration": 0.14361705000001734,
          "durationTicks": 27,
          "midi": 35,
          "name": "B1",
          "ticks": 34080,
          "time": 181.276632,
          "velocity": 0.7874015748031497
        },
        {
          "duration": 0.1861702499999751,
          "durationTicks": 35,
          "midi": 38,
          "name": "D2",
          "ticks": 34108,
          "time": 181.42556820000001,
          "velocity": 0.7874015748031497
        },
        {
          "duration": 0.18617025000003196,
          "durationTicks": 35,
          "midi": 40,
          "name": "E2",
          "ticks": 34132,
          "time": 181.5532278,
          "velocity": 0.7086614173228346
        },
        {
          "duration": 0.16489364999998202,
          "durationTicks": 31,
          "midi": 42,
          "name": "F#2",
          "ticks": 34168,
          "time": 181.74471720000003,
          "velocity": 0.7874015748031497
        },
        {
          "duration": 0.14361705000001734,
          "durationTicks": 27,
          "midi": 35,
          "name": "B1",
          "ticks": 34320,
          "time": 182.55322800000002,
          "velocity": 0.7874015748031497
        },
        {
          "duration": 0.1436170499999605,
          "durationTicks": 27,
          "midi": 33,
          "name": "A1",
          "ticks": 34348,
          "time": 182.70216420000003,
          "velocity": 0.7874015748031497
        },
        {
          "duration": 0.26063834999996516,
          "durationTicks": 49,
          "midi": 30,
          "name": "F#1",
          "ticks": 34372,
          "time": 182.8298238,
          "velocity": 0.7874015748031497
        },
        {
          "duration": 0.16489365000001044,
          "durationTicks": 31,
          "midi": 35,
          "name": "B1",
          "ticks": 34408,
          "time": 183.0213132,
          "velocity": 0.7874015748031497
        },
        {
          "duration": 0.14361705000001734,
          "durationTicks": 27,
          "midi": 35,
          "name": "B1",
          "ticks": 34560,
          "time": 183.829824,
          "velocity": 0.7874015748031497
        },
        {
          "duration": 0.14361704999998892,
          "durationTicks": 27,
          "midi": 33,
          "name": "A1",
          "ticks": 34588,
          "time": 183.9787602,
          "velocity": 0.7874015748031497
        },
        {
          "duration": 0.18617025000003196,
          "durationTicks": 35,
          "midi": 30,
          "name": "F#1",
          "ticks": 34612,
          "time": 184.1064198,
          "velocity": 0.7874015748031497
        },
        {
          "duration": 0.16489364999998202,
          "durationTicks": 31,
          "midi": 35,
          "name": "B1",
          "ticks": 34648,
          "time": 184.29790920000002,
          "velocity": 0.7874015748031497
        },
        {
          "duration": 0.16489364999998202,
          "durationTicks": 31,
          "midi": 35,
          "name": "B1",
          "ticks": 34800,
          "time": 185.10642,
          "velocity": 0.7874015748031497
        },
        {
          "duration": 0.1861702499999751,
          "durationTicks": 35,
          "midi": 38,
          "name": "D2",
          "ticks": 34828,
          "time": 185.25535620000002,
          "velocity": 0.7874015748031497
        },
        {
          "duration": 0.18617025000000353,
          "durationTicks": 35,
          "midi": 40,
          "name": "E2",
          "ticks": 34852,
          "time": 185.3830158,
          "velocity": 0.7086614173228346
        },
        {
          "duration": 0.16489364999998202,
          "durationTicks": 31,
          "midi": 42,
          "name": "F#2",
          "ticks": 34888,
          "time": 185.57450520000003,
          "velocity": 0.7874015748031497
        },
        {
          "duration": 0.14361705000001734,
          "durationTicks": 27,
          "midi": 35,
          "name": "B1",
          "ticks": 35040,
          "time": 186.383016,
          "velocity": 0.7874015748031497
        },
        {
          "duration": 0.1861702499999751,
          "durationTicks": 35,
          "midi": 38,
          "name": "D2",
          "ticks": 35068,
          "time": 186.5319522,
          "velocity": 0.7874015748031497
        },
        {
          "duration": 0.18617025000000353,
          "durationTicks": 35,
          "midi": 40,
          "name": "E2",
          "ticks": 35092,
          "time": 186.65961180000002,
          "velocity": 0.7086614173228346
        },
        {
          "duration": 0.16489365000001044,
          "durationTicks": 31,
          "midi": 42,
          "name": "F#2",
          "ticks": 35128,
          "time": 186.85110120000002,
          "velocity": 0.7874015748031497
        },
        {
          "duration": 0.14361705000001734,
          "durationTicks": 27,
          "midi": 35,
          "name": "B1",
          "ticks": 35280,
          "time": 187.659612,
          "velocity": 0.7874015748031497
        },
        {
          "duration": 0.14361704999998892,
          "durationTicks": 27,
          "midi": 33,
          "name": "A1",
          "ticks": 35308,
          "time": 187.80854820000002,
          "velocity": 0.7874015748031497
        },
        {
          "duration": 0.2606383499999936,
          "durationTicks": 49,
          "midi": 30,
          "name": "F#1",
          "ticks": 35332,
          "time": 187.9362078,
          "velocity": 0.7874015748031497
        },
        {
          "duration": 0.16489364999998202,
          "durationTicks": 31,
          "midi": 35,
          "name": "B1",
          "ticks": 35368,
          "time": 188.12769720000003,
          "velocity": 0.7874015748031497
        },
        {
          "duration": 0.14361704999998892,
          "durationTicks": 27,
          "midi": 35,
          "name": "B1",
          "ticks": 35520,
          "time": 188.93620800000002,
          "velocity": 0.7874015748031497
        },
        {
          "duration": 0.1436170499999605,
          "durationTicks": 27,
          "midi": 33,
          "name": "A1",
          "ticks": 35548,
          "time": 189.08514420000003,
          "velocity": 0.7874015748031497
        },
        {
          "duration": 0.18617025000000353,
          "durationTicks": 35,
          "midi": 30,
          "name": "F#1",
          "ticks": 35572,
          "time": 189.21280380000002,
          "velocity": 0.7874015748031497
        },
        {
          "duration": 0.16489365000001044,
          "durationTicks": 31,
          "midi": 35,
          "name": "B1",
          "ticks": 35608,
          "time": 189.4042932,
          "velocity": 0.7874015748031497
        },
        {
          "duration": 0.16489365000001044,
          "durationTicks": 31,
          "midi": 35,
          "name": "B1",
          "ticks": 35760,
          "time": 190.212804,
          "velocity": 0.7874015748031497
        },
        {
          "duration": 0.1861702499999751,
          "durationTicks": 35,
          "midi": 38,
          "name": "D2",
          "ticks": 35788,
          "time": 190.3617402,
          "velocity": 0.7874015748031497
        },
        {
          "duration": 0.18617025000003196,
          "durationTicks": 35,
          "midi": 40,
          "name": "E2",
          "ticks": 35812,
          "time": 190.4893998,
          "velocity": 0.7086614173228346
        },
        {
          "duration": 0.16489364999998202,
          "durationTicks": 31,
          "midi": 42,
          "name": "F#2",
          "ticks": 35848,
          "time": 190.68088920000002,
          "velocity": 0.7874015748031497
        },
        {
          "duration": 0.14361705000001734,
          "durationTicks": 27,
          "midi": 35,
          "name": "B1",
          "ticks": 36000,
          "time": 191.48940000000002,
          "velocity": 0.7874015748031497
        },
        {
          "duration": 0.1861702499999751,
          "durationTicks": 35,
          "midi": 38,
          "name": "D2",
          "ticks": 36028,
          "time": 191.63833620000003,
          "velocity": 0.7874015748031497
        },
        {
          "duration": 0.18617025000000353,
          "durationTicks": 35,
          "midi": 40,
          "name": "E2",
          "ticks": 36052,
          "time": 191.7659958,
          "velocity": 0.7086614173228346
        },
        {
          "duration": 0.16489365000001044,
          "durationTicks": 31,
          "midi": 42,
          "name": "F#2",
          "ticks": 36088,
          "time": 191.9574852,
          "velocity": 0.7874015748031497
        },
        {
          "duration": 0.14361705000001734,
          "durationTicks": 27,
          "midi": 35,
          "name": "B1",
          "ticks": 36240,
          "time": 192.765996,
          "velocity": 0.7874015748031497
        },
        {
          "duration": 0.14361704999998892,
          "durationTicks": 27,
          "midi": 33,
          "name": "A1",
          "ticks": 36268,
          "time": 192.9149322,
          "velocity": 0.7874015748031497
        },
        {
          "duration": 0.26063834999996516,
          "durationTicks": 49,
          "midi": 30,
          "name": "F#1",
          "ticks": 36292,
          "time": 193.04259180000003,
          "velocity": 0.7874015748031497
        },
        {
          "duration": 0.16489364999998202,
          "durationTicks": 31,
          "midi": 35,
          "name": "B1",
          "ticks": 36328,
          "time": 193.23408120000002,
          "velocity": 0.7874015748031497
        },
        {
          "duration": 0.14361705000001734,
          "durationTicks": 27,
          "midi": 35,
          "name": "B1",
          "ticks": 36480,
          "time": 194.042592,
          "velocity": 0.7874015748031497
        },
        {
          "duration": 0.14361704999998892,
          "durationTicks": 27,
          "midi": 33,
          "name": "A1",
          "ticks": 36508,
          "time": 194.19152820000002,
          "velocity": 0.7874015748031497
        },
        {
          "duration": 0.18617025000000353,
          "durationTicks": 35,
          "midi": 30,
          "name": "F#1",
          "ticks": 36532,
          "time": 194.3191878,
          "velocity": 0.7874015748031497
        },
        {
          "duration": 0.16489364999998202,
          "durationTicks": 31,
          "midi": 35,
          "name": "B1",
          "ticks": 36568,
          "time": 194.51067720000003,
          "velocity": 0.7874015748031497
        },
        {
          "duration": 0.16489365000001044,
          "durationTicks": 31,
          "midi": 35,
          "name": "B1",
          "ticks": 36720,
          "time": 195.319188,
          "velocity": 0.7874015748031497
        },
        {
          "duration": 0.18617025000000353,
          "durationTicks": 35,
          "midi": 38,
          "name": "D2",
          "ticks": 36748,
          "time": 195.4681242,
          "velocity": 0.7874015748031497
        },
        {
          "duration": 0.18617025000000353,
          "durationTicks": 35,
          "midi": 40,
          "name": "E2",
          "ticks": 36772,
          "time": 195.59578380000002,
          "velocity": 0.7086614173228346
        },
        {
          "duration": 0.16489365000001044,
          "durationTicks": 31,
          "midi": 42,
          "name": "F#2",
          "ticks": 36808,
          "time": 195.78727320000002,
          "velocity": 0.7874015748031497
        },
        {
          "duration": 0.14361705000001734,
          "durationTicks": 27,
          "midi": 35,
          "name": "B1",
          "ticks": 36960,
          "time": 196.595784,
          "velocity": 0.7874015748031497
        },
        {
          "duration": 0.1861702499999751,
          "durationTicks": 35,
          "midi": 38,
          "name": "D2",
          "ticks": 36988,
          "time": 196.74472020000002,
          "velocity": 0.7874015748031497
        },
        {
          "duration": 0.18617025000003196,
          "durationTicks": 35,
          "midi": 40,
          "name": "E2",
          "ticks": 37012,
          "time": 196.8723798,
          "velocity": 0.7086614173228346
        },
        {
          "duration": 0.16489364999998202,
          "durationTicks": 31,
          "midi": 42,
          "name": "F#2",
          "ticks": 37048,
          "time": 197.06386920000003,
          "velocity": 0.7874015748031497
        },
        {
          "duration": 0.14361705000001734,
          "durationTicks": 27,
          "midi": 35,
          "name": "B1",
          "ticks": 37200,
          "time": 197.87238000000002,
          "velocity": 0.7874015748031497
        },
        {
          "duration": 0.1436170499999605,
          "durationTicks": 27,
          "midi": 33,
          "name": "A1",
          "ticks": 37228,
          "time": 198.02131620000003,
          "velocity": 0.7874015748031497
        },
        {
          "duration": 0.26063834999996516,
          "durationTicks": 49,
          "midi": 30,
          "name": "F#1",
          "ticks": 37252,
          "time": 198.14897580000002,
          "velocity": 0.7874015748031497
        },
        {
          "duration": 0.16489365000001044,
          "durationTicks": 31,
          "midi": 35,
          "name": "B1",
          "ticks": 37288,
          "time": 198.3404652,
          "velocity": 0.7874015748031497
        },
        {
          "duration": 0.14361705000001734,
          "durationTicks": 27,
          "midi": 35,
          "name": "B1",
          "ticks": 37440,
          "time": 199.148976,
          "velocity": 0.7874015748031497
        },
        {
          "duration": 0.14361704999998892,
          "durationTicks": 27,
          "midi": 33,
          "name": "A1",
          "ticks": 37468,
          "time": 199.2979122,
          "velocity": 0.7874015748031497
        },
        {
          "duration": 0.18617025000003196,
          "durationTicks": 35,
          "midi": 30,
          "name": "F#1",
          "ticks": 37492,
          "time": 199.4255718,
          "velocity": 0.7874015748031497
        },
        {
          "duration": 0.16489364999998202,
          "durationTicks": 31,
          "midi": 35,
          "name": "B1",
          "ticks": 37528,
          "time": 199.61706120000002,
          "velocity": 0.7874015748031497
        },
        {
          "duration": 0.16489364999998202,
          "durationTicks": 31,
          "midi": 35,
          "name": "B1",
          "ticks": 37680,
          "time": 200.42557200000002,
          "velocity": 0.7874015748031497
        },
        {
          "duration": 0.1861702499999751,
          "durationTicks": 35,
          "midi": 38,
          "name": "D2",
          "ticks": 37708,
          "time": 200.57450820000003,
          "velocity": 0.7874015748031497
        },
        {
          "duration": 0.18617025000000353,
          "durationTicks": 35,
          "midi": 40,
          "name": "E2",
          "ticks": 37732,
          "time": 200.7021678,
          "velocity": 0.7086614173228346
        },
        {
          "duration": 0.16489365000001044,
          "durationTicks": 31,
          "midi": 42,
          "name": "F#2",
          "ticks": 37768,
          "time": 200.8936572,
          "velocity": 0.7874015748031497
        },
        {
          "duration": 0.14361705000001734,
          "durationTicks": 27,
          "midi": 35,
          "name": "B1",
          "ticks": 37920,
          "time": 201.702168,
          "velocity": 0.7874015748031497
        },
        {
          "duration": 0.1861702499999751,
          "durationTicks": 35,
          "midi": 38,
          "name": "D2",
          "ticks": 37948,
          "time": 201.8511042,
          "velocity": 0.7874015748031497
        },
        {
          "duration": 0.18617025000000353,
          "durationTicks": 35,
          "midi": 40,
          "name": "E2",
          "ticks": 37972,
          "time": 201.97876380000002,
          "velocity": 0.7086614173228346
        },
        {
          "duration": 0.16489364999998202,
          "durationTicks": 31,
          "midi": 42,
          "name": "F#2",
          "ticks": 38008,
          "time": 202.17025320000002,
          "velocity": 0.7874015748031497
        },
        {
          "duration": 0.14361705000001734,
          "durationTicks": 27,
          "midi": 35,
          "name": "B1",
          "ticks": 38160,
          "time": 202.978764,
          "velocity": 0.7874015748031497
        },
        {
          "duration": 0.14361704999998892,
          "durationTicks": 27,
          "midi": 33,
          "name": "A1",
          "ticks": 38188,
          "time": 203.12770020000002,
          "velocity": 0.7874015748031497
        },
        {
          "duration": 0.2606383499999936,
          "durationTicks": 49,
          "midi": 30,
          "name": "F#1",
          "ticks": 38212,
          "time": 203.2553598,
          "velocity": 0.7874015748031497
        },
        {
          "duration": 0.16489364999998202,
          "durationTicks": 31,
          "midi": 35,
          "name": "B1",
          "ticks": 38248,
          "time": 203.44684920000003,
          "velocity": 0.7874015748031497
        },
        {
          "duration": 0.14361705000001734,
          "durationTicks": 27,
          "midi": 35,
          "name": "B1",
          "ticks": 38400,
          "time": 204.25536,
          "velocity": 0.7874015748031497
        },
        {
          "duration": 0.1436170499999605,
          "durationTicks": 27,
          "midi": 33,
          "name": "A1",
          "ticks": 38428,
          "time": 204.40429620000003,
          "velocity": 0.7874015748031497
        },
        {
          "duration": 0.18617025000000353,
          "durationTicks": 35,
          "midi": 30,
          "name": "F#1",
          "ticks": 38452,
          "time": 204.53195580000002,
          "velocity": 0.7874015748031497
        },
        {
          "duration": 0.16489365000001044,
          "durationTicks": 31,
          "midi": 35,
          "name": "B1",
          "ticks": 38488,
          "time": 204.72344520000001,
          "velocity": 0.7874015748031497
        },
        {
          "duration": 0.16489365000001044,
          "durationTicks": 31,
          "midi": 35,
          "name": "B1",
          "ticks": 38640,
          "time": 205.531956,
          "velocity": 0.7874015748031497
        },
        {
          "duration": 0.1861702499999751,
          "durationTicks": 35,
          "midi": 38,
          "name": "D2",
          "ticks": 38668,
          "time": 205.68089220000002,
          "velocity": 0.7874015748031497
        },
        {
          "duration": 0.18617025000003196,
          "durationTicks": 35,
          "midi": 40,
          "name": "E2",
          "ticks": 38692,
          "time": 205.8085518,
          "velocity": 0.7086614173228346
        },
        {
          "duration": 0.16489364999998202,
          "durationTicks": 31,
          "midi": 42,
          "name": "F#2",
          "ticks": 38728,
          "time": 206.00004120000003,
          "velocity": 0.7874015748031497
        },
        {
          "duration": 0.14361705000001734,
          "durationTicks": 27,
          "midi": 35,
          "name": "B1",
          "ticks": 38880,
          "time": 206.80855200000002,
          "velocity": 0.7874015748031497
        },
        {
          "duration": 0.1861702499999751,
          "durationTicks": 35,
          "midi": 38,
          "name": "D2",
          "ticks": 38908,
          "time": 206.95748820000003,
          "velocity": 0.7874015748031497
        },
        {
          "duration": 0.18617025000000353,
          "durationTicks": 35,
          "midi": 40,
          "name": "E2",
          "ticks": 38932,
          "time": 207.08514780000002,
          "velocity": 0.7086614173228346
        },
        {
          "duration": 0.16489365000001044,
          "durationTicks": 31,
          "midi": 42,
          "name": "F#2",
          "ticks": 38968,
          "time": 207.2766372,
          "velocity": 0.7874015748031497
        },
        {
          "duration": 0.14361705000001734,
          "durationTicks": 27,
          "midi": 35,
          "name": "B1",
          "ticks": 39120,
          "time": 208.085148,
          "velocity": 0.7874015748031497
        },
        {
          "duration": 0.14361704999998892,
          "durationTicks": 27,
          "midi": 33,
          "name": "A1",
          "ticks": 39148,
          "time": 208.2340842,
          "velocity": 0.7874015748031497
        },
        {
          "duration": 0.2606383499999936,
          "durationTicks": 49,
          "midi": 30,
          "name": "F#1",
          "ticks": 39172,
          "time": 208.3617438,
          "velocity": 0.7874015748031497
        },
        {
          "duration": 0.16489364999998202,
          "durationTicks": 31,
          "midi": 35,
          "name": "B1",
          "ticks": 39208,
          "time": 208.55323320000002,
          "velocity": 0.7874015748031497
        },
        {
          "duration": 0.14361705000001734,
          "durationTicks": 27,
          "midi": 35,
          "name": "B1",
          "ticks": 39360,
          "time": 209.36174400000002,
          "velocity": 0.7874015748031497
        },
        {
          "duration": 0.1436170499999605,
          "durationTicks": 27,
          "midi": 33,
          "name": "A1",
          "ticks": 39388,
          "time": 209.51068020000002,
          "velocity": 0.7874015748031497
        },
        {
          "duration": 0.18617025000000353,
          "durationTicks": 35,
          "midi": 30,
          "name": "F#1",
          "ticks": 39412,
          "time": 209.6383398,
          "velocity": 0.7874015748031497
        },
        {
          "duration": 0.16489365000001044,
          "durationTicks": 31,
          "midi": 35,
          "name": "B1",
          "ticks": 39448,
          "time": 209.8298292,
          "velocity": 0.7874015748031497
        },
        {
          "duration": 0.16489365000001044,
          "durationTicks": 31,
          "midi": 35,
          "name": "B1",
          "ticks": 39600,
          "time": 210.63834,
          "velocity": 0.7874015748031497
        },
        {
          "duration": 0.1861702499999751,
          "durationTicks": 35,
          "midi": 38,
          "name": "D2",
          "ticks": 39628,
          "time": 210.7872762,
          "velocity": 0.7874015748031497
        },
        {
          "duration": 0.18617025000000353,
          "durationTicks": 35,
          "midi": 40,
          "name": "E2",
          "ticks": 39652,
          "time": 210.91493580000002,
          "velocity": 0.7086614173228346
        },
        {
          "duration": 0.16489365000001044,
          "durationTicks": 31,
          "midi": 42,
          "name": "F#2",
          "ticks": 39688,
          "time": 211.10642520000002,
          "velocity": 0.7874015748031497
        },
        {
          "duration": 0.14361705000001734,
          "durationTicks": 27,
          "midi": 35,
          "name": "B1",
          "ticks": 39840,
          "time": 211.914936,
          "velocity": 0.7874015748031497
        },
        {
          "duration": 0.1861702499999751,
          "durationTicks": 35,
          "midi": 38,
          "name": "D2",
          "ticks": 39868,
          "time": 212.06387220000002,
          "velocity": 0.7874015748031497
        },
        {
          "duration": 0.18617025000003196,
          "durationTicks": 35,
          "midi": 40,
          "name": "E2",
          "ticks": 39892,
          "time": 212.1915318,
          "velocity": 0.7086614173228346
        },
        {
          "duration": 0.16489364999998202,
          "durationTicks": 31,
          "midi": 42,
          "name": "F#2",
          "ticks": 39928,
          "time": 212.38302120000003,
          "velocity": 0.7874015748031497
        },
        {
          "duration": 0.14361704999998892,
          "durationTicks": 27,
          "midi": 35,
          "name": "B1",
          "ticks": 40080,
          "time": 213.19153200000002,
          "velocity": 0.7874015748031497
        },
        {
          "duration": 0.1436170499999605,
          "durationTicks": 27,
          "midi": 33,
          "name": "A1",
          "ticks": 40108,
          "time": 213.34046820000003,
          "velocity": 0.7874015748031497
        },
        {
          "duration": 0.26063834999996516,
          "durationTicks": 49,
          "midi": 30,
          "name": "F#1",
          "ticks": 40132,
          "time": 213.46812780000002,
          "velocity": 0.7874015748031497
        },
        {
          "duration": 0.16489365000001044,
          "durationTicks": 31,
          "midi": 35,
          "name": "B1",
          "ticks": 40168,
          "time": 213.6596172,
          "velocity": 0.7874015748031497
        },
        {
          "duration": 0.14361705000001734,
          "durationTicks": 27,
          "midi": 35,
          "name": "B1",
          "ticks": 40320,
          "time": 214.468128,
          "velocity": 0.7874015748031497
        },
        {
          "duration": 0.14361704999998892,
          "durationTicks": 27,
          "midi": 33,
          "name": "A1",
          "ticks": 40348,
          "time": 214.61706420000002,
          "velocity": 0.7874015748031497
        },
        {
          "duration": 0.18617025000003196,
          "durationTicks": 35,
          "midi": 30,
          "name": "F#1",
          "ticks": 40372,
          "time": 214.7447238,
          "velocity": 0.7874015748031497
        },
        {
          "duration": 0.16489364999998202,
          "durationTicks": 31,
          "midi": 35,
          "name": "B1",
          "ticks": 40408,
          "time": 214.93621320000003,
          "velocity": 0.7874015748031497
        },
        {
          "duration": 0.16489364999998202,
          "durationTicks": 31,
          "midi": 35,
          "name": "B1",
          "ticks": 40560,
          "time": 215.74472400000002,
          "velocity": 0.7874015748031497
        },
        {
          "duration": 0.1861702499999751,
          "durationTicks": 35,
          "midi": 38,
          "name": "D2",
          "ticks": 40588,
          "time": 215.89366020000003,
          "velocity": 0.7874015748031497
        },
        {
          "duration": 0.18617025000000353,
          "durationTicks": 35,
          "midi": 40,
          "name": "E2",
          "ticks": 40612,
          "time": 216.02131980000001,
          "velocity": 0.7086614173228346
        },
        {
          "duration": 0.16489365000001044,
          "durationTicks": 31,
          "midi": 42,
          "name": "F#2",
          "ticks": 40648,
          "time": 216.2128092,
          "velocity": 0.7874015748031497
        },
        {
          "duration": 0.14361705000001734,
          "durationTicks": 27,
          "midi": 35,
          "name": "B1",
          "ticks": 40800,
          "time": 217.02132,
          "velocity": 0.7874015748031497
        },
        {
          "duration": 0.1861702499999751,
          "durationTicks": 35,
          "midi": 38,
          "name": "D2",
          "ticks": 40828,
          "time": 217.1702562,
          "velocity": 0.7874015748031497
        },
        {
          "duration": 0.18617025000000353,
          "durationTicks": 35,
          "midi": 40,
          "name": "E2",
          "ticks": 40852,
          "time": 217.29791580000003,
          "velocity": 0.7086614173228346
        },
        {
          "duration": 0.16489364999998202,
          "durationTicks": 31,
          "midi": 42,
          "name": "F#2",
          "ticks": 40888,
          "time": 217.48940520000002,
          "velocity": 0.7874015748031497
        },
        {
          "duration": 0.14361705000001734,
          "durationTicks": 27,
          "midi": 35,
          "name": "B1",
          "ticks": 41040,
          "time": 218.29791600000001,
          "velocity": 0.7874015748031497
        },
        {
          "duration": 0.14361704999998892,
          "durationTicks": 27,
          "midi": 33,
          "name": "A1",
          "ticks": 41068,
          "time": 218.44685220000002,
          "velocity": 0.7874015748031497
        },
        {
          "duration": 0.2606383499999936,
          "durationTicks": 49,
          "midi": 30,
          "name": "F#1",
          "ticks": 41092,
          "time": 218.5745118,
          "velocity": 0.7874015748031497
        },
        {
          "duration": 0.16489364999998202,
          "durationTicks": 31,
          "midi": 35,
          "name": "B1",
          "ticks": 41128,
          "time": 218.76600120000003,
          "velocity": 0.7874015748031497
        },
        {
          "duration": 0.14361705000001734,
          "durationTicks": 27,
          "midi": 35,
          "name": "B1",
          "ticks": 41280,
          "time": 219.574512,
          "velocity": 0.7874015748031497
        },
        {
          "duration": 0.14361704999998892,
          "durationTicks": 27,
          "midi": 33,
          "name": "A1",
          "ticks": 41308,
          "time": 219.7234482,
          "velocity": 0.7874015748031497
        },
        {
          "duration": 0.18617025000000353,
          "durationTicks": 35,
          "midi": 30,
          "name": "F#1",
          "ticks": 41332,
          "time": 219.85110780000002,
          "velocity": 0.7874015748031497
        },
        {
          "duration": 0.16489365000001044,
          "durationTicks": 31,
          "midi": 35,
          "name": "B1",
          "ticks": 41368,
          "time": 220.04259720000002,
          "velocity": 0.7874015748031497
        },
        {
          "duration": 0.16489364999998202,
          "durationTicks": 31,
          "midi": 35,
          "name": "B1",
          "ticks": 41520,
          "time": 220.851108,
          "velocity": 0.7874015748031497
        },
        {
          "duration": 0.1861702499999751,
          "durationTicks": 35,
          "midi": 38,
          "name": "D2",
          "ticks": 41548,
          "time": 221.00004420000002,
          "velocity": 0.7874015748031497
        },
        {
          "duration": 0.18617025000003196,
          "durationTicks": 35,
          "midi": 40,
          "name": "E2",
          "ticks": 41572,
          "time": 221.1277038,
          "velocity": 0.7086614173228346
        },
        {
          "duration": 0.16489364999998202,
          "durationTicks": 31,
          "midi": 42,
          "name": "F#2",
          "ticks": 41608,
          "time": 221.31919320000003,
          "velocity": 0.7874015748031497
        },
        {
          "duration": 0.14361704999998892,
          "durationTicks": 27,
          "midi": 35,
          "name": "B1",
          "ticks": 41760,
          "time": 222.12770400000002,
          "velocity": 0.7874015748031497
        },
        {
          "duration": 0.1861702499999751,
          "durationTicks": 35,
          "midi": 38,
          "name": "D2",
          "ticks": 41788,
          "time": 222.27664020000003,
          "velocity": 0.7874015748031497
        },
        {
          "duration": 0.18617025000000353,
          "durationTicks": 35,
          "midi": 40,
          "name": "E2",
          "ticks": 41812,
          "time": 222.40429980000002,
          "velocity": 0.7086614173228346
        },
        {
          "duration": 0.16489365000001044,
          "durationTicks": 31,
          "midi": 42,
          "name": "F#2",
          "ticks": 41848,
          "time": 222.5957892,
          "velocity": 0.7874015748031497
        },
        {
          "duration": 0.14361705000001734,
          "durationTicks": 27,
          "midi": 35,
          "name": "B1",
          "ticks": 42000,
          "time": 223.4043,
          "velocity": 0.7874015748031497
        },
        {
          "duration": 0.14361704999998892,
          "durationTicks": 27,
          "midi": 33,
          "name": "A1",
          "ticks": 42028,
          "time": 223.55323620000001,
          "velocity": 0.7874015748031497
        },
        {
          "duration": 0.2606383499999936,
          "durationTicks": 49,
          "midi": 30,
          "name": "F#1",
          "ticks": 42052,
          "time": 223.6808958,
          "velocity": 0.7874015748031497
        },
        {
          "duration": 0.16489364999998202,
          "durationTicks": 31,
          "midi": 35,
          "name": "B1",
          "ticks": 42088,
          "time": 223.87238520000002,
          "velocity": 0.7874015748031497
        },
        {
          "duration": 0.14361705000001734,
          "durationTicks": 27,
          "midi": 35,
          "name": "B1",
          "ticks": 42240,
          "time": 224.68089600000002,
          "velocity": 0.7874015748031497
        },
        {
          "duration": 0.1436170499999605,
          "durationTicks": 27,
          "midi": 33,
          "name": "A1",
          "ticks": 42268,
          "time": 224.82983220000003,
          "velocity": 0.7874015748031497
        },
        {
          "duration": 0.18617025000000353,
          "durationTicks": 35,
          "midi": 30,
          "name": "F#1",
          "ticks": 42292,
          "time": 224.9574918,
          "velocity": 0.7874015748031497
        },
        {
          "duration": 0.16489365000001044,
          "durationTicks": 31,
          "midi": 35,
          "name": "B1",
          "ticks": 42328,
          "time": 225.1489812,
          "velocity": 0.7874015748031497
        },
        {
          "duration": 0.16489365000001044,
          "durationTicks": 31,
          "midi": 35,
          "name": "B1",
          "ticks": 42480,
          "time": 225.957492,
          "velocity": 0.7874015748031497
        },
        {
          "duration": 0.1861702499999751,
          "durationTicks": 35,
          "midi": 38,
          "name": "D2",
          "ticks": 42508,
          "time": 226.1064282,
          "velocity": 0.7874015748031497
        },
        {
          "duration": 0.18617025000000353,
          "durationTicks": 35,
          "midi": 40,
          "name": "E2",
          "ticks": 42532,
          "time": 226.23408780000003,
          "velocity": 0.7086614173228346
        },
        {
          "duration": 0.16489364999998202,
          "durationTicks": 31,
          "midi": 42,
          "name": "F#2",
          "ticks": 42568,
          "time": 226.42557720000002,
          "velocity": 0.7874015748031497
        },
        {
          "duration": 0.14361705000001734,
          "durationTicks": 27,
          "midi": 35,
          "name": "B1",
          "ticks": 42720,
          "time": 227.234088,
          "velocity": 0.7874015748031497
        },
        {
          "duration": 0.1861702499999751,
          "durationTicks": 35,
          "midi": 38,
          "name": "D2",
          "ticks": 42748,
          "time": 227.38302420000002,
          "velocity": 0.7874015748031497
        },
        {
          "duration": 0.18617025000000353,
          "durationTicks": 35,
          "midi": 40,
          "name": "E2",
          "ticks": 42772,
          "time": 227.5106838,
          "velocity": 0.7086614173228346
        },
        {
          "duration": 0.16489364999998202,
          "durationTicks": 31,
          "midi": 42,
          "name": "F#2",
          "ticks": 42808,
          "time": 227.70217320000003,
          "velocity": 0.7874015748031497
        },
        {
          "duration": 0.14361705000001734,
          "durationTicks": 27,
          "midi": 35,
          "name": "B1",
          "ticks": 42960,
          "time": 228.510684,
          "velocity": 0.7874015748031497
        },
        {
          "duration": 0.1436170499999605,
          "durationTicks": 27,
          "midi": 33,
          "name": "A1",
          "ticks": 42988,
          "time": 228.65962020000003,
          "velocity": 0.7874015748031497
        },
        {
          "duration": 0.26063834999996516,
          "durationTicks": 49,
          "midi": 30,
          "name": "F#1",
          "ticks": 43012,
          "time": 228.78727980000002,
          "velocity": 0.7874015748031497
        },
        {
          "duration": 0.16489365000001044,
          "durationTicks": 31,
          "midi": 35,
          "name": "B1",
          "ticks": 43048,
          "time": 228.97876920000002,
          "velocity": 0.7874015748031497
        },
        {
          "duration": 0.14361705000001734,
          "durationTicks": 27,
          "midi": 35,
          "name": "B1",
          "ticks": 43200,
          "time": 229.78728,
          "velocity": 0.7874015748031497
        },
        {
          "duration": 0.14361704999998892,
          "durationTicks": 27,
          "midi": 33,
          "name": "A1",
          "ticks": 43228,
          "time": 229.93621620000002,
          "velocity": 0.7874015748031497
        },
        {
          "duration": 0.18617025000003196,
          "durationTicks": 35,
          "midi": 30,
          "name": "F#1",
          "ticks": 43252,
          "time": 230.0638758,
          "velocity": 0.7874015748031497
        },
        {
          "duration": 0.16489364999998202,
          "durationTicks": 31,
          "midi": 35,
          "name": "B1",
          "ticks": 43288,
          "time": 230.25536520000003,
          "velocity": 0.7874015748031497
        },
        {
          "duration": 0.16489364999998202,
          "durationTicks": 31,
          "midi": 35,
          "name": "B1",
          "ticks": 43440,
          "time": 231.06387600000002,
          "velocity": 0.7874015748031497
        },
        {
          "duration": 0.1861702499999751,
          "durationTicks": 35,
          "midi": 38,
          "name": "D2",
          "ticks": 43468,
          "time": 231.21281220000003,
          "velocity": 0.7874015748031497
        },
        {
          "duration": 0.18617025000000353,
          "durationTicks": 35,
          "midi": 40,
          "name": "E2",
          "ticks": 43492,
          "time": 231.34047180000002,
          "velocity": 0.7086614173228346
        },
        {
          "duration": 0.16489365000001044,
          "durationTicks": 31,
          "midi": 42,
          "name": "F#2",
          "ticks": 43528,
          "time": 231.5319612,
          "velocity": 0.7874015748031497
        },
        {
          "duration": 0.14361705000001734,
          "durationTicks": 27,
          "midi": 35,
          "name": "B1",
          "ticks": 43680,
          "time": 232.340472,
          "velocity": 0.7874015748031497
        },
        {
          "duration": 0.1861702499999751,
          "durationTicks": 35,
          "midi": 38,
          "name": "D2",
          "ticks": 43708,
          "time": 232.4894082,
          "velocity": 0.7874015748031497
        },
        {
          "duration": 0.18617025000003196,
          "durationTicks": 35,
          "midi": 40,
          "name": "E2",
          "ticks": 43732,
          "time": 232.6170678,
          "velocity": 0.7086614173228346
        },
        {
          "duration": 0.16489364999998202,
          "durationTicks": 31,
          "midi": 42,
          "name": "F#2",
          "ticks": 43768,
          "time": 232.80855720000002,
          "velocity": 0.7874015748031497
        },
        {
          "duration": 0.14361705000001734,
          "durationTicks": 27,
          "midi": 35,
          "name": "B1",
          "ticks": 43920,
          "time": 233.61706800000002,
          "velocity": 0.7874015748031497
        },
        {
          "duration": 0.1436170499999605,
          "durationTicks": 27,
          "midi": 33,
          "name": "A1",
          "ticks": 43948,
          "time": 233.76600420000003,
          "velocity": 0.7874015748031497
        },
        {
          "duration": 0.2606383499999936,
          "durationTicks": 49,
          "midi": 30,
          "name": "F#1",
          "ticks": 43972,
          "time": 233.8936638,
          "velocity": 0.7874015748031497
        },
        {
          "duration": 0.16489365000001044,
          "durationTicks": 31,
          "midi": 35,
          "name": "B1",
          "ticks": 44008,
          "time": 234.0851532,
          "velocity": 0.7874015748031497
        },
        {
          "duration": 0.14361705000001734,
          "durationTicks": 27,
          "midi": 35,
          "name": "B1",
          "ticks": 44160,
          "time": 234.893664,
          "velocity": 0.7874015748031497
        },
        {
          "duration": 0.14361704999998892,
          "durationTicks": 27,
          "midi": 33,
          "name": "A1",
          "ticks": 44188,
          "time": 235.0426002,
          "velocity": 0.7874015748031497
        },
        {
          "duration": 0.18617025000000353,
          "durationTicks": 35,
          "midi": 30,
          "name": "F#1",
          "ticks": 44212,
          "time": 235.17025980000003,
          "velocity": 0.7874015748031497
        },
        {
          "duration": 0.16489365000001044,
          "durationTicks": 31,
          "midi": 35,
          "name": "B1",
          "ticks": 44248,
          "time": 235.36174920000002,
          "velocity": 0.7874015748031497
        },
        {
          "duration": 0.16489364999998202,
          "durationTicks": 31,
          "midi": 35,
          "name": "B1",
          "ticks": 44400,
          "time": 236.17026,
          "velocity": 0.7874015748031497
        },
        {
          "duration": 0.1861702499999751,
          "durationTicks": 35,
          "midi": 38,
          "name": "D2",
          "ticks": 44428,
          "time": 236.31919620000002,
          "velocity": 0.7874015748031497
        },
        {
          "duration": 0.18617025000000353,
          "durationTicks": 35,
          "midi": 40,
          "name": "E2",
          "ticks": 44452,
          "time": 236.4468558,
          "velocity": 0.7086614173228346
        },
        {
          "duration": 0.16489364999998202,
          "durationTicks": 31,
          "midi": 42,
          "name": "F#2",
          "ticks": 44488,
          "time": 236.63834520000003,
          "velocity": 0.7874015748031497
        },
        {
          "duration": 0.14361704999998892,
          "durationTicks": 27,
          "midi": 35,
          "name": "B1",
          "ticks": 44640,
          "time": 237.44685600000003,
          "velocity": 0.7874015748031497
        },
        {
          "duration": 0.1861702499999751,
          "durationTicks": 35,
          "midi": 38,
          "name": "D2",
          "ticks": 44668,
          "time": 237.59579220000003,
          "velocity": 0.7874015748031497
        },
        {
          "duration": 0.18617025000000353,
          "durationTicks": 35,
          "midi": 40,
          "name": "E2",
          "ticks": 44692,
          "time": 237.72345180000002,
          "velocity": 0.7086614173228346
        },
        {
          "duration": 0.16489365000001044,
          "durationTicks": 31,
          "midi": 42,
          "name": "F#2",
          "ticks": 44728,
          "time": 237.91494120000002,
          "velocity": 0.7874015748031497
        },
        {
          "duration": 0.14361705000001734,
          "durationTicks": 27,
          "midi": 35,
          "name": "B1",
          "ticks": 44880,
          "time": 238.723452,
          "velocity": 0.7874015748031497
        },
        {
          "duration": 0.14361704999998892,
          "durationTicks": 27,
          "midi": 33,
          "name": "A1",
          "ticks": 44908,
          "time": 238.87238820000002,
          "velocity": 0.7874015748031497
        },
        {
          "duration": 0.2606383499999936,
          "durationTicks": 49,
          "midi": 30,
          "name": "F#1",
          "ticks": 44932,
          "time": 239.0000478,
          "velocity": 0.7874015748031497
        },
        {
          "duration": 0.16489364999998202,
          "durationTicks": 31,
          "midi": 35,
          "name": "B1",
          "ticks": 44968,
          "time": 239.19153720000003,
          "velocity": 0.7874015748031497
        }
      ],
      "endOfTrackTicks": 44999
    },
    {
      "channel": 1,
      "controlChanges": {
        "7": [
          {
            "number": 7,
            "ticks": 0,
            "time": 0,
            "value": 0.7559055118110236
          }
        ],
        "93": [
          {
            "number": 93,
            "ticks": 960,
            "time": 5.106384,
            "value": 0.9448818897637795
          }
        ]
      },
      "pitchBends": [
        {
          "ticks": 981,
          "time": 5.21808615,
          "value": -0.015625
        },
        {
          "ticks": 983,
          "time": 5.2287244500000005,
          "value": -0.03125
        },
        {
          "ticks": 985,
          "time": 5.239362750000001,
          "value": -0.0625
        },
        {
          "ticks": 986,
          "time": 5.244681900000001,
          "value": -0.078125
        },
        {
          "ticks": 987,
          "time": 5.25000105,
          "value": -0.109375
        },
        {
          "ticks": 992,
          "time": 5.276596800000001,
          "value": 0
        },
        {
          "ticks": 12501,
          "time": 66.49469415,
          "value": -0.015625
        },
        {
          "ticks": 12503,
          "time": 66.50533245,
          "value": -0.03125
        },
        {
          "ticks": 12505,
          "time": 66.51597075,
          "value": -0.0625
        },
        {
          "ticks": 12506,
          "time": 66.5212899,
          "value": -0.078125
        },
        {
          "ticks": 12507,
          "time": 66.52660905,
          "value": -0.109375
        },
        {
          "ticks": 12512,
          "time": 66.5532048,
          "value": 0
        },
        {
          "ticks": 13461,
          "time": 71.60107815,
          "value": -0.015625
        },
        {
          "ticks": 13463,
          "time": 71.61171645,
          "value": -0.03125
        },
        {
          "ticks": 13465,
          "time": 71.62235475,
          "value": -0.0625
        },
        {
          "ticks": 13466,
          "time": 71.6276739,
          "value": -0.078125
        },
        {
          "ticks": 13467,
          "time": 71.63299305,
          "value": -0.109375
        },
        {
          "ticks": 13472,
          "time": 71.65958880000001,
          "value": 0
        },
        {
          "ticks": 20181,
          "time": 107.34576615000002,
          "value": -0.015625
        },
        {
          "ticks": 20183,
          "time": 107.35640445,
          "value": -0.03125
        },
        {
          "ticks": 20185,
          "time": 107.36704275000001,
          "value": -0.0625
        },
        {
          "ticks": 20186,
          "time": 107.3723619,
          "value": -0.078125
        },
        {
          "ticks": 20187,
          "time": 107.37768105,
          "value": -0.109375
        },
        {
          "ticks": 20192,
          "time": 107.40427680000002,
          "value": 0
        },
        {
          "ticks": 21141,
          "time": 112.45215015000001,
          "value": -0.015625
        },
        {
          "ticks": 21143,
          "time": 112.46278845,
          "value": -0.03125
        },
        {
          "ticks": 21145,
          "time": 112.47342675000002,
          "value": -0.0625
        },
        {
          "ticks": 21146,
          "time": 112.4787459,
          "value": -0.078125
        },
        {
          "ticks": 21147,
          "time": 112.48406505,
          "value": -0.109375
        },
        {
          "ticks": 21152,
          "time": 112.51066080000001,
          "value": 0
        },
        {
          "ticks": 22101,
          "time": 117.55853415000001,
          "value": -0.015625
        },
        {
          "ticks": 22103,
          "time": 117.56917245,
          "value": -0.03125
        },
        {
          "ticks": 22105,
          "time": 117.57981075000001,
          "value": -0.0625
        },
        {
          "ticks": 22106,
          "time": 117.58512990000001,
          "value": -0.078125
        },
        {
          "ticks": 22107,
          "time": 117.59044905,
          "value": -0.109375
        },
        {
          "ticks": 22112,
          "time": 117.61704480000002,
          "value": 0
        },
        {
          "ticks": 23061,
          "time": 122.66491815000002,
          "value": -0.015625
        },
        {
          "ticks": 23063,
          "time": 122.67555645,
          "value": -0.03125
        },
        {
          "ticks": 23065,
          "time": 122.68619475000001,
          "value": -0.0625
        },
        {
          "ticks": 23066,
          "time": 122.6915139,
          "value": -0.078125
        },
        {
          "ticks": 23067,
          "time": 122.69683305000001,
          "value": -0.109375
        },
        {
          "ticks": 23072,
          "time": 122.72342880000001,
          "value": 0
        },
        {
          "ticks": 37461,
          "time": 199.26067815000002,
          "value": -0.015625
        },
        {
          "ticks": 37463,
          "time": 199.27131645,
          "value": -0.03125
        },
        {
          "ticks": 37465,
          "time": 199.28195475,
          "value": -0.0625
        },
        {
          "ticks": 37466,
          "time": 199.2872739,
          "value": -0.078125
        },
        {
          "ticks": 37467,
          "time": 199.29259305000002,
          "value": -0.109375
        },
        {
          "ticks": 37472,
          "time": 199.3191888,
          "value": 0
        },
        {
          "ticks": 38421,
          "time": 204.36706215,
          "value": -0.015625
        },
        {
          "ticks": 38423,
          "time": 204.37770045000002,
          "value": -0.03125
        },
        {
          "ticks": 38425,
          "time": 204.38833875,
          "value": -0.0625
        },
        {
          "ticks": 38426,
          "time": 204.3936579,
          "value": -0.078125
        },
        {
          "ticks": 38427,
          "time": 204.39897705,
          "value": -0.109375
        },
        {
          "ticks": 38432,
          "time": 204.4255728,
          "value": 0
        },
        {
          "ticks": 39381,
          "time": 209.47344615000003,
          "value": -0.015625
        },
        {
          "ticks": 39383,
          "time": 209.48408445,
          "value": -0.03125
        },
        {
          "ticks": 39385,
          "time": 209.49472275,
          "value": -0.0625
        },
        {
          "ticks": 39386,
          "time": 209.50004189999999,
          "value": -0.078125
        },
        {
          "ticks": 39387,
          "time": 209.50536105000003,
          "value": -0.109375
        },
        {
          "ticks": 39392,
          "time": 209.5319568,
          "value": 0
        },
        {
          "ticks": 40341,
          "time": 214.57983015000002,
          "value": -0.015625
        },
        {
          "ticks": 40343,
          "time": 214.59046845,
          "value": -0.03125
        },
        {
          "ticks": 40345,
          "time": 214.60110674999999,
          "value": -0.0625
        },
        {
          "ticks": 40346,
          "time": 214.6064259,
          "value": -0.078125
        },
        {
          "ticks": 40347,
          "time": 214.61174505000002,
          "value": -0.109375
        },
        {
          "ticks": 40352,
          "time": 214.6383408,
          "value": 0
        },
        {
          "ticks": 41301,
          "time": 219.68621415,
          "value": -0.015625
        },
        {
          "ticks": 41303,
          "time": 219.69685245,
          "value": -0.03125
        },
        {
          "ticks": 41305,
          "time": 219.70749075,
          "value": -0.0625
        },
        {
          "ticks": 41306,
          "time": 219.7128099,
          "value": -0.078125
        },
        {
          "ticks": 41307,
          "time": 219.71812905000002,
          "value": -0.109375
        },
        {
          "ticks": 41312,
          "time": 219.7447248,
          "value": 0
        },
        {
          "ticks": 42261,
          "time": 224.79259815000003,
          "value": -0.015625
        },
        {
          "ticks": 42263,
          "time": 224.80323645,
          "value": -0.03125
        },
        {
          "ticks": 42265,
          "time": 224.81387475,
          "value": -0.0625
        },
        {
          "ticks": 42266,
          "time": 224.8191939,
          "value": -0.078125
        },
        {
          "ticks": 42267,
          "time": 224.82451305000004,
          "value": -0.109375
        },
        {
          "ticks": 42272,
          "time": 224.8511088,
          "value": 0
        },
        {
          "ticks": 43221,
          "time": 229.89898215000002,
          "value": -0.015625
        },
        {
          "ticks": 43223,
          "time": 229.90962045,
          "value": -0.03125
        },
        {
          "ticks": 43225,
          "time": 229.92025875,
          "value": -0.0625
        },
        {
          "ticks": 43226,
          "time": 229.9255779,
          "value": -0.078125
        },
        {
          "ticks": 43227,
          "time": 229.93089705000003,
          "value": -0.109375
        },
        {
          "ticks": 43232,
          "time": 229.9574928,
          "value": 0
        },
        {
          "ticks": 44181,
          "time": 235.00536615000001,
          "value": -0.015625
        },
        {
          "ticks": 44183,
          "time": 235.01600445,
          "value": -0.03125
        },
        {
          "ticks": 44185,
          "time": 235.02664275,
          "value": -0.0625
        },
        {
          "ticks": 44186,
          "time": 235.0319619,
          "value": -0.078125
        },
        {
          "ticks": 44187,
          "time": 235.03728105000002,
          "value": -0.109375
        },
        {
          "ticks": 44192,
          "time": 235.0638768,
          "value": 0
        }
      ],
      "instrument": {
        "family": "organ",
        "name": "accordion",
        "number": 21
      },
      "name": "High synth",
      "notes": [
        {
          "duration": 0.3457447499999997,
          "durationTicks": 65,
          "midi": 95,
          "name": "B6",
          "ticks": 960,
          "time": 5.106384,
          "velocity": 0.5511811023622047
        },
        {
          "duration": 0.3351064500000005,
          "durationTicks": 63,
          "midi": 93,
          "name": "A6",
          "ticks": 1019,
          "time": 5.4202138500000006,
          "velocity": 0.6299212598425197
        },
        {
          "duration": 0.3563830500000007,
          "durationTicks": 67,
          "midi": 95,
          "name": "B6",
          "ticks": 1080,
          "time": 5.744682,
          "velocity": 0.7086614173228346
        },
        {
          "duration": 0.3563830499999998,
          "durationTicks": 67,
          "midi": 97,
          "name": "C#7",
          "ticks": 1140,
          "time": 6.063831,
          "velocity": 0.5511811023622047
        },
        {
          "duration": 0.3563830500000007,
          "durationTicks": 67,
          "midi": 95,
          "name": "B6",
          "ticks": 1200,
          "time": 6.38298,
          "velocity": 0.7086614173228346
        },
        {
          "duration": 0.6968086500000004,
          "durationTicks": 131,
          "midi": 93,
          "name": "A6",
          "ticks": 1260,
          "time": 6.702129,
          "velocity": 0.7086614173228346
        },
        {
          "duration": 0.32978730000000045,
          "durationTicks": 62,
          "midi": 91,
          "name": "G6",
          "ticks": 1380,
          "time": 7.340427,
          "velocity": 0.7086614173228346
        },
        {
          "duration": 0.65425545,
          "durationTicks": 123,
          "midi": 90,
          "name": "F#6",
          "ticks": 1440,
          "time": 7.659576,
          "velocity": 0.7086614173228346
        },
        {
          "duration": 0.35106390000000154,
          "durationTicks": 66,
          "midi": 88,
          "name": "E6",
          "ticks": 1560,
          "time": 8.297874,
          "velocity": 0.7086614173228346
        },
        {
          "duration": 1.5478726500000004,
          "durationTicks": 291,
          "midi": 90,
          "name": "F#6",
          "ticks": 1624,
          "time": 8.6382996,
          "velocity": 0.7086614173228346
        },
        {
          "duration": 0.3457447500000086,
          "durationTicks": 65,
          "midi": 95,
          "name": "B6",
          "ticks": 12480,
          "time": 66.382992,
          "velocity": 0.5511811023622047
        },
        {
          "duration": 0.33510645000001205,
          "durationTicks": 63,
          "midi": 93,
          "name": "A6",
          "ticks": 12539,
          "time": 66.69682184999999,
          "velocity": 0.6299212598425197
        },
        {
          "duration": 0.35638305000000514,
          "durationTicks": 67,
          "midi": 95,
          "name": "B6",
          "ticks": 12600,
          "time": 67.02129000000001,
          "velocity": 0.7086614173228346
        },
        {
          "duration": 0.35638305000000514,
          "durationTicks": 67,
          "midi": 97,
          "name": "C#7",
          "ticks": 12660,
          "time": 67.340439,
          "velocity": 0.5511811023622047
        },
        {
          "duration": 0.35638305000000514,
          "durationTicks": 67,
          "midi": 95,
          "name": "B6",
          "ticks": 12720,
          "time": 67.659588,
          "velocity": 0.7086614173228346
        },
        {
          "duration": 0.6968086499999941,
          "durationTicks": 131,
          "midi": 93,
          "name": "A6",
          "ticks": 12780,
          "time": 67.97873700000001,
          "velocity": 0.7086614173228346
        },
        {
          "duration": 0.32978730000000667,
          "durationTicks": 62,
          "midi": 91,
          "name": "G6",
          "ticks": 12900,
          "time": 68.617035,
          "velocity": 0.7086614173228346
        },
        {
          "duration": 0.654255450000008,
          "durationTicks": 123,
          "midi": 90,
          "name": "F#6",
          "ticks": 12960,
          "time": 68.936184,
          "velocity": 0.7086614173228346
        },
        {
          "duration": 0.35106389999999976,
          "durationTicks": 66,
          "midi": 88,
          "name": "E6",
          "ticks": 13080,
          "time": 69.574482,
          "velocity": 0.7086614173228346
        },
        {
          "duration": 1.547872649999988,
          "durationTicks": 291,
          "midi": 90,
          "name": "F#6",
          "ticks": 13144,
          "time": 69.9149076,
          "velocity": 0.7086614173228346
        },
        {
          "duration": 0.3457447499999944,
          "durationTicks": 65,
          "midi": 95,
          "name": "B6",
          "ticks": 13440,
          "time": 71.48937600000001,
          "velocity": 0.5511811023622047
        },
        {
          "duration": 0.33510645000001205,
          "durationTicks": 63,
          "midi": 93,
          "name": "A6",
          "ticks": 13499,
          "time": 71.80320585,
          "velocity": 0.6299212598425197
        },
        {
          "duration": 0.35638305000000514,
          "durationTicks": 67,
          "midi": 95,
          "name": "B6",
          "ticks": 13560,
          "time": 72.127674,
          "velocity": 0.7086614173228346
        },
        {
          "duration": 0.35638304999999093,
          "durationTicks": 67,
          "midi": 97,
          "name": "C#7",
          "ticks": 13620,
          "time": 72.44682300000001,
          "velocity": 0.5511811023622047
        },
        {
          "duration": 0.35638305000000514,
          "durationTicks": 67,
          "midi": 95,
          "name": "B6",
          "ticks": 13680,
          "time": 72.765972,
          "velocity": 0.7086614173228346
        },
        {
          "duration": 0.6968086500000084,
          "durationTicks": 131,
          "midi": 93,
          "name": "A6",
          "ticks": 13740,
          "time": 73.085121,
          "velocity": 0.7086614173228346
        },
        {
          "duration": 0.32978729999999246,
          "durationTicks": 62,
          "midi": 91,
          "name": "G6",
          "ticks": 13860,
          "time": 73.723419,
          "velocity": 0.7086614173228346
        },
        {
          "duration": 0.654255450000008,
          "durationTicks": 123,
          "midi": 90,
          "name": "F#6",
          "ticks": 13920,
          "time": 74.042568,
          "velocity": 0.7086614173228346
        },
        {
          "duration": 0.35106389999999976,
          "durationTicks": 66,
          "midi": 88,
          "name": "E6",
          "ticks": 14040,
          "time": 74.68086600000001,
          "velocity": 0.7086614173228346
        },
        {
          "duration": 1.5478726500000022,
          "durationTicks": 291,
          "midi": 90,
          "name": "F#6",
          "ticks": 14104,
          "time": 75.0212916,
          "velocity": 0.7086614173228346
        },
        {
          "duration": 0.3457447499999944,
          "durationTicks": 65,
          "midi": 95,
          "name": "B6",
          "ticks": 20160,
          "time": 107.234064,
          "velocity": 0.5511811023622047
        },
        {
          "duration": 0.33510645000001205,
          "durationTicks": 63,
          "midi": 93,
          "name": "A6",
          "ticks": 20219,
          "time": 107.54789385000001,
          "velocity": 0.6299212598425197
        },
        {
          "duration": 0.35638305000000514,
          "durationTicks": 67,
          "midi": 95,
          "name": "B6",
          "ticks": 20280,
          "time": 107.87236200000001,
          "velocity": 0.7086614173228346
        },
        {
          "duration": 0.35638305000000514,
          "durationTicks": 67,
          "midi": 97,
          "name": "C#7",
          "ticks": 20340,
          "time": 108.191511,
          "velocity": 0.5511811023622047
        },
        {
          "duration": 0.35638305000000514,
          "durationTicks": 67,
          "midi": 95,
          "name": "B6",
          "ticks": 20400,
          "time": 108.51066,
          "velocity": 0.7086614173228346
        },
        {
          "duration": 0.6968086499999941,
          "durationTicks": 131,
          "midi": 93,
          "name": "A6",
          "ticks": 20460,
          "time": 108.82980900000001,
          "velocity": 0.7086614173228346
        },
        {
          "duration": 0.32978730000000667,
          "durationTicks": 62,
          "midi": 91,
          "name": "G6",
          "ticks": 20580,
          "time": 109.468107,
          "velocity": 0.7086614173228346
        },
        {
          "duration": 0.654255450000008,
          "durationTicks": 123,
          "midi": 90,
          "name": "F#6",
          "ticks": 20640,
          "time": 109.787256,
          "velocity": 0.7086614173228346
        },
        {
          "duration": 0.351063900000014,
          "durationTicks": 66,
          "midi": 88,
          "name": "E6",
          "ticks": 20760,
          "time": 110.425554,
          "velocity": 0.7086614173228346
        },
        {
          "duration": 1.5478726500000022,
          "durationTicks": 291,
          "midi": 90,
          "name": "F#6",
          "ticks": 20824,
          "time": 110.76597960000001,
          "velocity": 0.7086614173228346
        },
        {
          "duration": 0.3457447499999944,
          "durationTicks": 65,
          "midi": 95,
          "name": "B6",
          "ticks": 21120,
          "time": 112.34044800000001,
          "velocity": 0.5511811023622047
        },
        {
          "duration": 0.33510644999999784,
          "durationTicks": 63,
          "midi": 93,
          "name": "A6",
          "ticks": 21179,
          "time": 112.65427785000001,
          "velocity": 0.6299212598425197
        },
        {
          "duration": 0.35638305000000514,
          "durationTicks": 67,
          "midi": 95,
          "name": "B6",
          "ticks": 21240,
          "time": 112.978746,
          "velocity": 0.7086614173228346
        },
        {
          "duration": 0.35638304999999093,
          "durationTicks": 67,
          "midi": 97,
          "name": "C#7",
          "ticks": 21300,
          "time": 113.29789500000001,
          "velocity": 0.5511811023622047
        },
        {
          "duration": 0.35638305000000514,
          "durationTicks": 67,
          "midi": 95,
          "name": "B6",
          "ticks": 21360,
          "time": 113.617044,
          "velocity": 0.7086614173228346
        },
        {
          "duration": 0.6968086500000084,
          "durationTicks": 131,
          "midi": 93,
          "name": "A6",
          "ticks": 21420,
          "time": 113.936193,
          "velocity": 0.7086614173228346
        },
        {
          "duration": 0.32978730000000667,
          "durationTicks": 62,
          "midi": 91,
          "name": "G6",
          "ticks": 21540,
          "time": 114.57449100000001,
          "velocity": 0.7086614173228346
        },
        {
          "duration": 0.654255450000008,
          "durationTicks": 123,
          "midi": 90,
          "name": "F#6",
          "ticks": 21600,
          "time": 114.89364,
          "velocity": 0.7086614173228346
        },
        {
          "duration": 0.35106389999999976,
          "durationTicks": 66,
          "midi": 88,
          "name": "E6",
          "ticks": 21720,
          "time": 115.53193800000001,
          "velocity": 0.7086614173228346
        },
        {
          "duration": 1.5478726500000164,
          "durationTicks": 291,
          "midi": 90,
          "name": "F#6",
          "ticks": 21784,
          "time": 115.8723636,
          "velocity": 0.7086614173228346
        },
        {
          "duration": 0.3457447499999944,
          "durationTicks": 65,
          "midi": 95,
          "name": "B6",
          "ticks": 22080,
          "time": 117.446832,
          "velocity": 0.5511811023622047
        },
        {
          "duration": 0.33510645000001205,
          "durationTicks": 63,
          "midi": 93,
          "name": "A6",
          "ticks": 22139,
          "time": 117.76066185,
          "velocity": 0.6299212598425197
        },
        {
          "duration": 0.35638305000000514,
          "durationTicks": 67,
          "midi": 95,
          "name": "B6",
          "ticks": 22200,
          "time": 118.08513,
          "velocity": 0.7086614173228346
        },
        {
          "duration": 0.35638305000000514,
          "durationTicks": 67,
          "midi": 97,
          "name": "C#7",
          "ticks": 22260,
          "time": 118.404279,
          "velocity": 0.5511811023622047
        },
        {
          "duration": 0.35638304999999093,
          "durationTicks": 67,
          "midi": 95,
          "name": "B6",
          "ticks": 22320,
          "time": 118.72342800000001,
          "velocity": 0.7086614173228346
        },
        {
          "duration": 0.6968086499999941,
          "durationTicks": 131,
          "midi": 93,
          "name": "A6",
          "ticks": 22380,
          "time": 119.04257700000001,
          "velocity": 0.7086614173228346
        },
        {
          "duration": 0.3297873000000209,
          "durationTicks": 62,
          "midi": 91,
          "name": "G6",
          "ticks": 22500,
          "time": 119.680875,
          "velocity": 0.7086614173228346
        },
        {
          "duration": 0.6542554499999937,
          "durationTicks": 123,
          "midi": 90,
          "name": "F#6",
          "ticks": 22560,
          "time": 120.00002400000001,
          "velocity": 0.7086614173228346
        },
        {
          "duration": 0.351063900000014,
          "durationTicks": 66,
          "midi": 88,
          "name": "E6",
          "ticks": 22680,
          "time": 120.638322,
          "velocity": 0.7086614173228346
        },
        {
          "duration": 1.5478726500000022,
          "durationTicks": 291,
          "midi": 90,
          "name": "F#6",
          "ticks": 22744,
          "time": 120.9787476,
          "velocity": 0.7086614173228346
        },
        {
          "duration": 0.3457447499999944,
          "durationTicks": 65,
          "midi": 95,
          "name": "B6",
          "ticks": 23040,
          "time": 122.553216,
          "velocity": 0.5511811023622047
        },
        {
          "duration": 0.33510644999999784,
          "durationTicks": 63,
          "midi": 93,
          "name": "A6",
          "ticks": 23099,
          "time": 122.86704585000001,
          "velocity": 0.6299212598425197
        },
        {
          "duration": 0.35638304999999093,
          "durationTicks": 67,
          "midi": 95,
          "name": "B6",
          "ticks": 23160,
          "time": 123.19151400000001,
          "velocity": 0.7086614173228346
        },
        {
          "duration": 0.35638305000000514,
          "durationTicks": 67,
          "midi": 97,
          "name": "C#7",
          "ticks": 23220,
          "time": 123.51066300000001,
          "velocity": 0.5511811023622047
        },
        {
          "duration": 0.35638305000000514,
          "durationTicks": 67,
          "midi": 95,
          "name": "B6",
          "ticks": 23280,
          "time": 123.829812,
          "velocity": 0.7086614173228346
        },
        {
          "duration": 0.6968086500000084,
          "durationTicks": 131,
          "midi": 93,
          "name": "A6",
          "ticks": 23340,
          "time": 124.148961,
          "velocity": 0.7086614173228346
        },
        {
          "duration": 0.32978730000000667,
          "durationTicks": 62,
          "midi": 91,
          "name": "G6",
          "ticks": 23460,
          "time": 124.787259,
          "velocity": 0.7086614173228346
        },
        {
          "duration": 0.654255450000008,
          "durationTicks": 123,
          "midi": 90,
          "name": "F#6",
          "ticks": 23520,
          "time": 125.106408,
          "velocity": 0.7086614173228346
        },
        {
          "duration": 0.35106389999999976,
          "durationTicks": 66,
          "midi": 88,
          "name": "E6",
          "ticks": 23640,
          "time": 125.74470600000001,
          "velocity": 0.7086614173228346
        },
        {
          "duration": 1.5478726500000022,
          "durationTicks": 291,
          "midi": 90,
          "name": "F#6",
          "ticks": 23704,
          "time": 126.08513160000001,
          "velocity": 0.7086614173228346
        },
        {
          "duration": 0.3457447500000228,
          "durationTicks": 65,
          "midi": 95,
          "name": "B6",
          "ticks": 37440,
          "time": 199.148976,
          "velocity": 0.5511811023622047
        },
        {
          "duration": 0.3351064499999836,
          "durationTicks": 63,
          "midi": 93,
          "name": "A6",
          "ticks": 37499,
          "time": 199.46280585000002,
          "velocity": 0.6299212598425197
        },
        {
          "duration": 0.35638305000000514,
          "durationTicks": 67,
          "midi": 95,
          "name": "B6",
          "ticks": 37560,
          "time": 199.787274,
          "velocity": 0.7086614173228346
        },
        {
          "duration": 0.35638305000000514,
          "durationTicks": 67,
          "midi": 97,
          "name": "C#7",
          "ticks": 37620,
          "time": 200.106423,
          "velocity": 0.5511811023622047
        },
        {
          "duration": 0.35638305000000514,
          "durationTicks": 67,
          "midi": 95,
          "name": "B6",
          "ticks": 37680,
          "time": 200.42557200000002,
          "velocity": 0.7086614173228346
        },
        {
          "duration": 0.6968086500000084,
          "durationTicks": 131,
          "midi": 93,
          "name": "A6",
          "ticks": 37740,
          "time": 200.744721,
          "velocity": 0.7086614173228346
        },
        {
          "duration": 0.32978729999999246,
          "durationTicks": 62,
          "midi": 91,
          "name": "G6",
          "ticks": 37860,
          "time": 201.38301900000002,
          "velocity": 0.7086614173228346
        },
        {
          "duration": 0.6542554499999937,
          "durationTicks": 123,
          "midi": 90,
          "name": "F#6",
          "ticks": 37920,
          "time": 201.702168,
          "velocity": 0.7086614173228346
        },
        {
          "duration": 0.35106389999998555,
          "durationTicks": 66,
          "midi": 88,
          "name": "E6",
          "ticks": 38040,
          "time": 202.34046600000002,
          "velocity": 0.7086614173228346
        },
        {
          "duration": 1.547872649999988,
          "durationTicks": 291,
          "midi": 90,
          "name": "F#6",
          "ticks": 38104,
          "time": 202.68089160000002,
          "velocity": 0.7086614173228346
        },
        {
          "duration": 0.3457447500000228,
          "durationTicks": 65,
          "midi": 95,
          "name": "B6",
          "ticks": 38400,
          "time": 204.25536,
          "velocity": 0.5511811023622047
        },
        {
          "duration": 0.3351064499999836,
          "durationTicks": 63,
          "midi": 93,
          "name": "A6",
          "ticks": 38459,
          "time": 204.56918985000001,
          "velocity": 0.6299212598425197
        },
        {
          "duration": 0.35638305000000514,
          "durationTicks": 67,
          "midi": 95,
          "name": "B6",
          "ticks": 38520,
          "time": 204.89365800000002,
          "velocity": 0.7086614173228346
        },
        {
          "duration": 0.35638305000000514,
          "durationTicks": 67,
          "midi": 97,
          "name": "C#7",
          "ticks": 38580,
          "time": 205.212807,
          "velocity": 0.5511811023622047
        },
        {
          "duration": 0.35638305000000514,
          "durationTicks": 67,
          "midi": 95,
          "name": "B6",
          "ticks": 38640,
          "time": 205.531956,
          "velocity": 0.7086614173228346
        },
        {
          "duration": 0.6968086499999799,
          "durationTicks": 131,
          "midi": 93,
          "name": "A6",
          "ticks": 38700,
          "time": 205.85110500000002,
          "velocity": 0.7086614173228346
        },
        {
          "duration": 0.32978729999999246,
          "durationTicks": 62,
          "midi": 91,
          "name": "G6",
          "ticks": 38820,
          "time": 206.489403,
          "velocity": 0.7086614173228346
        },
        {
          "duration": 0.6542554499999653,
          "durationTicks": 123,
          "midi": 90,
          "name": "F#6",
          "ticks": 38880,
          "time": 206.80855200000002,
          "velocity": 0.7086614173228346
        },
        {
          "duration": 0.351063900000014,
          "durationTicks": 66,
          "midi": 88,
          "name": "E6",
          "ticks": 39000,
          "time": 207.44685,
          "velocity": 0.7086614173228346
        },
        {
          "duration": 1.547872649999988,
          "durationTicks": 291,
          "midi": 90,
          "name": "F#6",
          "ticks": 39064,
          "time": 207.78727560000002,
          "velocity": 0.7086614173228346
        },
        {
          "duration": 0.3457447499999944,
          "durationTicks": 65,
          "midi": 95,
          "name": "B6",
          "ticks": 39360,
          "time": 209.36174400000002,
          "velocity": 0.5511811023622047
        },
        {
          "duration": 0.3351064499999836,
          "durationTicks": 63,
          "midi": 93,
          "name": "A6",
          "ticks": 39419,
          "time": 209.67557385,
          "velocity": 0.6299212598425197
        },
        {
          "duration": 0.35638305000000514,
          "durationTicks": 67,
          "midi": 95,
          "name": "B6",
          "ticks": 39480,
          "time": 210.000042,
          "velocity": 0.7086614173228346
        },
        {
          "duration": 0.35638305000000514,
          "durationTicks": 67,
          "midi": 97,
          "name": "C#7",
          "ticks": 39540,
          "time": 210.31919100000002,
          "velocity": 0.5511811023622047
        },
        {
          "duration": 0.35638305000000514,
          "durationTicks": 67,
          "midi": 95,
          "name": "B6",
          "ticks": 39600,
          "time": 210.63834,
          "velocity": 0.7086614173228346
        },
        {
          "duration": 0.6968086499999799,
          "durationTicks": 131,
          "midi": 93,
          "name": "A6",
          "ticks": 39660,
          "time": 210.957489,
          "velocity": 0.7086614173228346
        },
        {
          "duration": 0.32978729999999246,
          "durationTicks": 62,
          "midi": 91,
          "name": "G6",
          "ticks": 39780,
          "time": 211.595787,
          "velocity": 0.7086614173228346
        },
        {
          "duration": 0.6542554499999937,
          "durationTicks": 123,
          "midi": 90,
          "name": "F#6",
          "ticks": 39840,
          "time": 211.914936,
          "velocity": 0.7086614173228346
        },
        {
          "duration": 0.351063900000014,
          "durationTicks": 66,
          "midi": 88,
          "name": "E6",
          "ticks": 39960,
          "time": 212.553234,
          "velocity": 0.7086614173228346
        },
        {
          "duration": 1.5478726499999595,
          "durationTicks": 291,
          "midi": 90,
          "name": "F#6",
          "ticks": 40024,
          "time": 212.89365960000003,
          "velocity": 0.7086614173228346
        },
        {
          "duration": 0.3457447500000228,
          "durationTicks": 65,
          "midi": 95,
          "name": "B6",
          "ticks": 40320,
          "time": 214.468128,
          "velocity": 0.5511811023622047
        },
        {
          "duration": 0.3351064499999836,
          "durationTicks": 63,
          "midi": 93,
          "name": "A6",
          "ticks": 40379,
          "time": 214.78195785000003,
          "velocity": 0.6299212598425197
        },
        {
          "duration": 0.35638305000000514,
          "durationTicks": 67,
          "midi": 95,
          "name": "B6",
          "ticks": 40440,
          "time": 215.106426,
          "velocity": 0.7086614173228346
        },
        {
          "duration": 0.35638305000000514,
          "durationTicks": 67,
          "midi": 97,
          "name": "C#7",
          "ticks": 40500,
          "time": 215.425575,
          "velocity": 0.5511811023622047
        },
        {
          "duration": 0.35638305000000514,
          "durationTicks": 67,
          "midi": 95,
          "name": "B6",
          "ticks": 40560,
          "time": 215.74472400000002,
          "velocity": 0.7086614173228346
        },
        {
          "duration": 0.6968086499999799,
          "durationTicks": 131,
          "midi": 93,
          "name": "A6",
          "ticks": 40620,
          "time": 216.063873,
          "velocity": 0.7086614173228346
        },
        {
          "duration": 0.32978729999999246,
          "durationTicks": 62,
          "midi": 91,
          "name": "G6",
          "ticks": 40740,
          "time": 216.70217100000002,
          "velocity": 0.7086614173228346
        },
        {
          "duration": 0.6542554499999937,
          "durationTicks": 123,
          "midi": 90,
          "name": "F#6",
          "ticks": 40800,
          "time": 217.02132,
          "velocity": 0.7086614173228346
        },
        {
          "duration": 0.35106389999998555,
          "durationTicks": 66,
          "midi": 88,
          "name": "E6",
          "ticks": 40920,
          "time": 217.65961800000002,
          "velocity": 0.7086614173228346
        },
        {
          "duration": 1.5478726499999595,
          "durationTicks": 291,
          "midi": 90,
          "name": "F#6",
          "ticks": 40984,
          "time": 218.00004360000003,
          "velocity": 0.7086614173228346
        },
        {
          "duration": 0.3457447500000228,
          "durationTicks": 65,
          "midi": 95,
          "name": "B6",
          "ticks": 41280,
          "time": 219.574512,
          "velocity": 0.5511811023622047
        },
        {
          "duration": 0.3351064499999836,
          "durationTicks": 63,
          "midi": 93,
          "name": "A6",
          "ticks": 41339,
          "time": 219.88834185000002,
          "velocity": 0.6299212598425197
        },
        {
          "duration": 0.35638305000000514,
          "durationTicks": 67,
          "midi": 95,
          "name": "B6",
          "ticks": 41400,
          "time": 220.21281000000002,
          "velocity": 0.7086614173228346
        },
        {
          "duration": 0.35638305000000514,
          "durationTicks": 67,
          "midi": 97,
          "name": "C#7",
          "ticks": 41460,
          "time": 220.531959,
          "velocity": 0.5511811023622047
        },
        {
          "duration": 0.35638305000000514,
          "durationTicks": 67,
          "midi": 95,
          "name": "B6",
          "ticks": 41520,
          "time": 220.851108,
          "velocity": 0.7086614173228346
        },
        {
          "duration": 0.6968086499999799,
          "durationTicks": 131,
          "midi": 93,
          "name": "A6",
          "ticks": 41580,
          "time": 221.17025700000002,
          "velocity": 0.7086614173228346
        },
        {
          "duration": 0.32978729999999246,
          "durationTicks": 62,
          "midi": 91,
          "name": "G6",
          "ticks": 41700,
          "time": 221.808555,
          "velocity": 0.7086614173228346
        },
        {
          "duration": 0.6542554499999653,
          "durationTicks": 123,
          "midi": 90,
          "name": "F#6",
          "ticks": 41760,
          "time": 222.12770400000002,
          "velocity": 0.7086614173228346
        },
        {
          "duration": 0.351063900000014,
          "durationTicks": 66,
          "midi": 88,
          "name": "E6",
          "ticks": 41880,
          "time": 222.76600200000001,
          "velocity": 0.7086614173228346
        },
        {
          "duration": 1.547872649999988,
          "durationTicks": 291,
          "midi": 90,
          "name": "F#6",
          "ticks": 41944,
          "time": 223.10642760000002,
          "velocity": 0.7086614173228346
        },
        {
          "duration": 0.3457447499999944,
          "durationTicks": 65,
          "midi": 95,
          "name": "B6",
          "ticks": 42240,
          "time": 224.68089600000002,
          "velocity": 0.5511811023622047
        },
        {
          "duration": 0.3351064499999836,
          "durationTicks": 63,
          "midi": 93,
          "name": "A6",
          "ticks": 42299,
          "time": 224.99472585,
          "velocity": 0.6299212598425197
        },
        {
          "duration": 0.35638305000000514,
          "durationTicks": 67,
          "midi": 95,
          "name": "B6",
          "ticks": 42360,
          "time": 225.319194,
          "velocity": 0.7086614173228346
        },
        {
          "duration": 0.35638305000000514,
          "durationTicks": 67,
          "midi": 97,
          "name": "C#7",
          "ticks": 42420,
          "time": 225.63834300000002,
          "velocity": 0.5511811023622047
        },
        {
          "duration": 0.35638305000000514,
          "durationTicks": 67,
          "midi": 95,
          "name": "B6",
          "ticks": 42480,
          "time": 225.957492,
          "velocity": 0.7086614173228346
        },
        {
          "duration": 0.6968086499999799,
          "durationTicks": 131,
          "midi": 93,
          "name": "A6",
          "ticks": 42540,
          "time": 226.276641,
          "velocity": 0.7086614173228346
        },
        {
          "duration": 0.32978729999999246,
          "durationTicks": 62,
          "midi": 91,
          "name": "G6",
          "ticks": 42660,
          "time": 226.914939,
          "velocity": 0.7086614173228346
        },
        {
          "duration": 0.6542554499999937,
          "durationTicks": 123,
          "midi": 90,
          "name": "F#6",
          "ticks": 42720,
          "time": 227.234088,
          "velocity": 0.7086614173228346
        },
        {
          "duration": 0.351063900000014,
          "durationTicks": 66,
          "midi": 88,
          "name": "E6",
          "ticks": 42840,
          "time": 227.872386,
          "velocity": 0.7086614173228346
        },
        {
          "duration": 1.5478726499999595,
          "durationTicks": 291,
          "midi": 90,
          "name": "F#6",
          "ticks": 42904,
          "time": 228.21281160000004,
          "velocity": 0.7086614173228346
        },
        {
          "duration": 0.3457447500000228,
          "durationTicks": 65,
          "midi": 95,
          "name": "B6",
          "ticks": 43200,
          "time": 229.78728,
          "velocity": 0.5511811023622047
        },
        {
          "duration": 0.3351064499999836,
          "durationTicks": 63,
          "midi": 93,
          "name": "A6",
          "ticks": 43259,
          "time": 230.10110985000003,
          "velocity": 0.6299212598425197
        },
        {
          "duration": 0.35638305000000514,
          "durationTicks": 67,
          "midi": 95,
          "name": "B6",
          "ticks": 43320,
          "time": 230.425578,
          "velocity": 0.7086614173228346
        },
        {
          "duration": 0.35638305000000514,
          "durationTicks": 67,
          "midi": 97,
          "name": "C#7",
          "ticks": 43380,
          "time": 230.744727,
          "velocity": 0.5511811023622047
        },
        {
          "duration": 0.35638305000000514,
          "durationTicks": 67,
          "midi": 95,
          "name": "B6",
          "ticks": 43440,
          "time": 231.06387600000002,
          "velocity": 0.7086614173228346
        },
        {
          "duration": 0.6968086499999799,
          "durationTicks": 131,
          "midi": 93,
          "name": "A6",
          "ticks": 43500,
          "time": 231.383025,
          "velocity": 0.7086614173228346
        },
        {
          "duration": 0.32978729999996403,
          "durationTicks": 62,
          "midi": 91,
          "name": "G6",
          "ticks": 43620,
          "time": 232.02132300000002,
          "velocity": 0.7086614173228346
        },
        {
          "duration": 0.6542554499999937,
          "durationTicks": 123,
          "midi": 90,
          "name": "F#6",
          "ticks": 43680,
          "time": 232.340472,
          "velocity": 0.7086614173228346
        },
        {
          "duration": 0.35106389999998555,
          "durationTicks": 66,
          "midi": 88,
          "name": "E6",
          "ticks": 43800,
          "time": 232.97877000000003,
          "velocity": 0.7086614173228346
        },
        {
          "duration": 1.5478726499999595,
          "durationTicks": 291,
          "midi": 90,
          "name": "F#6",
          "ticks": 43864,
          "time": 233.31919560000003,
          "velocity": 0.7086614173228346
        },
        {
          "duration": 0.3457447500000228,
          "durationTicks": 65,
          "midi": 95,
          "name": "B6",
          "ticks": 44160,
          "time": 234.893664,
          "velocity": 0.5511811023622047
        },
        {
          "duration": 0.3351064499999836,
          "durationTicks": 63,
          "midi": 93,
          "name": "A6",
          "ticks": 44219,
          "time": 235.20749385000002,
          "velocity": 0.6299212598425197
        },
        {
          "duration": 0.35638305000000514,
          "durationTicks": 67,
          "midi": 95,
          "name": "B6",
          "ticks": 44280,
          "time": 235.53196200000002,
          "velocity": 0.7086614173228346
        },
        {
          "duration": 0.35638305000000514,
          "durationTicks": 67,
          "midi": 97,
          "name": "C#7",
          "ticks": 44340,
          "time": 235.851111,
          "velocity": 0.5511811023622047
        },
        {
          "duration": 0.35638305000000514,
          "durationTicks": 67,
          "midi": 95,
          "name": "B6",
          "ticks": 44400,
          "time": 236.17026,
          "velocity": 0.7086614173228346
        },
        {
          "duration": 0.6968086499999799,
          "durationTicks": 131,
          "midi": 93,
          "name": "A6",
          "ticks": 44460,
          "time": 236.48940900000002,
          "velocity": 0.7086614173228346
        },
        {
          "duration": 0.32978729999999246,
          "durationTicks": 62,
          "midi": 91,
          "name": "G6",
          "ticks": 44580,
          "time": 237.12770700000002,
          "velocity": 0.7086614173228346
        },
        {
          "duration": 0.6542554499999653,
          "durationTicks": 123,
          "midi": 90,
          "name": "F#6",
          "ticks": 44640,
          "time": 237.44685600000003,
          "velocity": 0.7086614173228346
        },
        {
          "duration": 0.351063900000014,
          "durationTicks": 66,
          "midi": 88,
          "name": "E6",
          "ticks": 44760,
          "time": 238.08515400000002,
          "velocity": 0.7086614173228346
        },
        {
          "duration": 1.547872649999988,
          "durationTicks": 291,
          "midi": 90,
          "name": "F#6",
          "ticks": 44824,
          "time": 238.42557960000002,
          "velocity": 0.7086614173228346
        }
      ],
      "endOfTrackTicks": 45115
    },
    {
      "channel": 2,
      "controlChanges": {
        "7": [
          {
            "number": 7,
            "ticks": 0,
            "time": 0,
            "value": 0.8503937007874016
          }
        ]
      },
      "pitchBends": [],
      "instrument": {
        "family": "pipe",
        "name": "flute",
        "number": 73
      },
      "name": "Flute",
      "notes": [
        {
          "duration": 0.0638298,
          "durationTicks": 12,
          "midi": 71,
          "name": "B4",
          "ticks": 0,
          "time": 0,
          "velocity": 0.3937007874015748
        },
        {
          "duration": 0.07446810000000004,
          "durationTicks": 14,
          "midi": 71,
          "name": "B4",
          "ticks": 120,
          "time": 0.638298,
          "velocity": 0.5511811023622047
        },
        {
          "duration": 0.07446809999999993,
          "durationTicks": 14,
          "midi": 71,
          "name": "B4",
          "ticks": 180,
          "time": 0.957447,
          "velocity": 0.5511811023622047
        },
        {
          "duration": 0.07446809999999981,
          "durationTicks": 14,
          "midi": 69,
          "name": "A4",
          "ticks": 600,
          "time": 3.19149,
          "velocity": 0.5511811023622047
        },
        {
          "duration": 0.07446809999999981,
          "durationTicks": 14,
          "midi": 69,
          "name": "A4",
          "ticks": 660,
          "time": 3.5106390000000003,
          "velocity": 0.5511811023622047
        },
        {
          "duration": 0.07446809999999981,
          "durationTicks": 14,
          "midi": 66,
          "name": "F#4",
          "ticks": 720,
          "time": 3.829788,
          "velocity": 0.23622047244094488
        },
        {
          "duration": 0.0744681000000007,
          "durationTicks": 14,
          "midi": 71,
          "name": "B4",
          "ticks": 1080,
          "time": 5.744682,
          "velocity": 0.5511811023622047
        },
        {
          "duration": 0.07446809999999981,
          "durationTicks": 14,
          "midi": 71,
          "name": "B4",
          "ticks": 1140,
          "time": 6.063831,
          "velocity": 0.5511811023622047
        },
        {
          "duration": 0.0744681000000007,
          "durationTicks": 14,
          "midi": 69,
          "name": "A4",
          "ticks": 1560,
          "time": 8.297874,
          "velocity": 0.5511811023622047
        },
        {
          "duration": 0.0744681000000007,
          "durationTicks": 14,
          "midi": 69,
          "name": "A4",
          "ticks": 1620,
          "time": 8.617023,
          "velocity": 0.5511811023622047
        },
        {
          "duration": 0.0744681000000007,
          "durationTicks": 14,
          "midi": 66,
          "name": "F#4",
          "ticks": 1680,
          "time": 8.936172000000001,
          "velocity": 0.23622047244094488
        },
        {
          "duration": 0.07446809999999893,
          "durationTicks": 14,
          "midi": 71,
          "name": "B4",
          "ticks": 2040,
          "time": 10.851066000000001,
          "velocity": 0.5511811023622047
        },
        {
          "duration": 0.0744681000000007,
          "durationTicks": 14,
          "midi": 71,
          "name": "B4",
          "ticks": 2100,
          "time": 11.170215,
          "velocity": 0.5511811023622047
        },
        {
          "duration": 0.0744681000000007,
          "durationTicks": 14,
          "midi": 69,
          "name": "A4",
          "ticks": 2520,
          "time": 13.404258,
          "velocity": 0.5511811023622047
        },
        {
          "duration": 0.0744681000000007,
          "durationTicks": 14,
          "midi": 69,
          "name": "A4",
          "ticks": 2580,
          "time": 13.723407,
          "velocity": 0.5511811023622047
        },
        {
          "duration": 0.0744681000000007,
          "durationTicks": 14,
          "midi": 66,
          "name": "F#4",
          "ticks": 2640,
          "time": 14.042556000000001,
          "velocity": 0.23622047244094488
        },
        {
          "duration": 0.0744681000000007,
          "durationTicks": 14,
          "midi": 71,
          "name": "B4",
          "ticks": 3000,
          "time": 15.957450000000001,
          "velocity": 0.5511811023622047
        },
        {
          "duration": 0.0744681000000007,
          "durationTicks": 14,
          "midi": 71,
          "name": "B4",
          "ticks": 3060,
          "time": 16.276599,
          "velocity": 0.5511811023622047
        },
        {
          "duration": 0.0744681000000007,
          "durationTicks": 14,
          "midi": 69,
          "name": "A4",
          "ticks": 3480,
          "time": 18.510642,
          "velocity": 0.5511811023622047
        },
        {
          "duration": 0.0744681000000007,
          "durationTicks": 14,
          "midi": 69,
          "name": "A4",
          "ticks": 3540,
          "time": 18.829791,
          "velocity": 0.5511811023622047
        },
        {
          "duration": 0.0744681000000007,
          "durationTicks": 14,
          "midi": 66,
          "name": "F#4",
          "ticks": 3600,
          "time": 19.14894,
          "velocity": 0.23622047244094488
        },
        {
          "duration": 0.0744681000000007,
          "durationTicks": 14,
          "midi": 71,
          "name": "B4",
          "ticks": 3960,
          "time": 21.063834,
          "velocity": 0.5511811023622047
        },
        {
          "duration": 0.0744681000000007,
          "durationTicks": 14,
          "midi": 71,
          "name": "B4",
          "ticks": 4020,
          "time": 21.382983,
          "velocity": 0.5511811023622047
        },
        {
          "duration": 0.07446809999999715,
          "durationTicks": 14,
          "midi": 69,
          "name": "A4",
          "ticks": 4440,
          "time": 23.617026000000003,
          "velocity": 0.5511811023622047
        },
        {
          "duration": 0.0744681000000007,
          "durationTicks": 14,
          "midi": 69,
          "name": "A4",
          "ticks": 4500,
          "time": 23.936175000000002,
          "velocity": 0.5511811023622047
        },
        {
          "duration": 0.0744681000000007,
          "durationTicks": 14,
          "midi": 66,
          "name": "F#4",
          "ticks": 4560,
          "time": 24.255324,
          "velocity": 0.23622047244094488
        },
        {
          "duration": 0.0744681000000007,
          "durationTicks": 14,
          "midi": 71,
          "name": "B4",
          "ticks": 4920,
          "time": 26.170218000000002,
          "velocity": 0.5511811023622047
        },
        {
          "duration": 0.0744681000000007,
          "durationTicks": 14,
          "midi": 71,
          "name": "B4",
          "ticks": 4980,
          "time": 26.489367,
          "velocity": 0.5511811023622047
        },
        {
          "duration": 0.0744681000000007,
          "durationTicks": 14,
          "midi": 69,
          "name": "A4",
          "ticks": 5400,
          "time": 28.72341,
          "velocity": 0.5511811023622047
        },
        {
          "duration": 0.0744681000000007,
          "durationTicks": 14,
          "midi": 69,
          "name": "A4",
          "ticks": 5460,
          "time": 29.042559,
          "velocity": 0.5511811023622047
        },
        {
          "duration": 0.0744681000000007,
          "durationTicks": 14,
          "midi": 66,
          "name": "F#4",
          "ticks": 5520,
          "time": 29.361708,
          "velocity": 0.23622047244094488
        },
        {
          "duration": 0.0744681000000007,
          "durationTicks": 14,
          "midi": 71,
          "name": "B4",
          "ticks": 5880,
          "time": 31.276602,
          "velocity": 0.5511811023622047
        },
        {
          "duration": 0.0744681000000007,
          "durationTicks": 14,
          "midi": 71,
          "name": "B4",
          "ticks": 5940,
          "time": 31.595751,
          "velocity": 0.5511811023622047
        },
        {
          "duration": 0.07446810000000426,
          "durationTicks": 14,
          "midi": 69,
          "name": "A4",
          "ticks": 6360,
          "time": 33.829794,
          "velocity": 0.5511811023622047
        },
        {
          "duration": 0.07446809999999715,
          "durationTicks": 14,
          "midi": 69,
          "name": "A4",
          "ticks": 6420,
          "time": 34.148943,
          "velocity": 0.5511811023622047
        },
        {
          "duration": 0.07446810000000426,
          "durationTicks": 14,
          "midi": 66,
          "name": "F#4",
          "ticks": 6480,
          "time": 34.468092,
          "velocity": 0.23622047244094488
        },
        {
          "duration": 0.07446809999999715,
          "durationTicks": 14,
          "midi": 71,
          "name": "B4",
          "ticks": 6840,
          "time": 36.382986,
          "velocity": 0.5511811023622047
        },
        {
          "duration": 0.07446810000000426,
          "durationTicks": 14,
          "midi": 71,
          "name": "B4",
          "ticks": 6900,
          "time": 36.702135,
          "velocity": 0.5511811023622047
        },
        {
          "duration": 0.07446809999999715,
          "durationTicks": 14,
          "midi": 69,
          "name": "A4",
          "ticks": 7320,
          "time": 38.936178000000005,
          "velocity": 0.5511811023622047
        },
        {
          "duration": 0.07446810000000426,
          "durationTicks": 14,
          "midi": 69,
          "name": "A4",
          "ticks": 7380,
          "time": 39.255327,
          "velocity": 0.5511811023622047
        },
        {
          "duration": 0.07446809999999715,
          "durationTicks": 14,
          "midi": 66,
          "name": "F#4",
          "ticks": 7440,
          "time": 39.574476000000004,
          "velocity": 0.23622047244094488
        },
        {
          "duration": 0.07446809999999715,
          "durationTicks": 14,
          "midi": 71,
          "name": "B4",
          "ticks": 7800,
          "time": 41.48937,
          "velocity": 0.5511811023622047
        },
        {
          "duration": 0.07446809999999715,
          "durationTicks": 14,
          "midi": 71,
          "name": "B4",
          "ticks": 7860,
          "time": 41.808519000000004,
          "velocity": 0.5511811023622047
        },
        {
          "duration": 0.07446809999999715,
          "durationTicks": 14,
          "midi": 69,
          "name": "A4",
          "ticks": 8280,
          "time": 44.042562000000004,
          "velocity": 0.5511811023622047
        },
        {
          "duration": 0.07446809999999715,
          "durationTicks": 14,
          "midi": 69,
          "name": "A4",
          "ticks": 8340,
          "time": 44.361711,
          "velocity": 0.5511811023622047
        },
        {
          "duration": 0.07446809999999715,
          "durationTicks": 14,
          "midi": 66,
          "name": "F#4",
          "ticks": 8400,
          "time": 44.68086,
          "velocity": 0.23622047244094488
        },
        {
          "duration": 0.07446809999999715,
          "durationTicks": 14,
          "midi": 71,
          "name": "B4",
          "ticks": 8760,
          "time": 46.595754,
          "velocity": 0.5511811023622047
        },
        {
          "duration": 0.07446809999999715,
          "durationTicks": 14,
          "midi": 71,
          "name": "B4",
          "ticks": 8820,
          "time": 46.914903,
          "velocity": 0.5511811023622047
        },
        {
          "duration": 0.07446809999999715,
          "durationTicks": 14,
          "midi": 69,
          "name": "A4",
          "ticks": 9240,
          "time": 49.148946,
          "velocity": 0.5511811023622047
        },
        {
          "duration": 0.07446809999999005,
          "durationTicks": 14,
          "midi": 69,
          "name": "A4",
          "ticks": 9300,
          "time": 49.468095000000005,
          "velocity": 0.5511811023622047
        },
        {
          "duration": 0.07446809999999715,
          "durationTicks": 14,
          "midi": 66,
          "name": "F#4",
          "ticks": 9360,
          "time": 49.787244,
          "velocity": 0.23622047244094488
        },
        {
          "duration": 0.07446809999999005,
          "durationTicks": 14,
          "midi": 71,
          "name": "B4",
          "ticks": 9720,
          "time": 51.702138000000005,
          "velocity": 0.5511811023622047
        },
        {
          "duration": 0.07446809999999715,
          "durationTicks": 14,
          "midi": 71,
          "name": "B4",
          "ticks": 9780,
          "time": 52.021287,
          "velocity": 0.5511811023622047
        },
        {
          "duration": 0.07446809999999715,
          "durationTicks": 14,
          "midi": 69,
          "name": "A4",
          "ticks": 10200,
          "time": 54.25533,
          "velocity": 0.5511811023622047
        },
        {
          "duration": 0.07446809999999715,
          "durationTicks": 14,
          "midi": 69,
          "name": "A4",
          "ticks": 10260,
          "time": 54.574479000000004,
          "velocity": 0.5511811023622047
        },
        {
          "duration": 0.07446809999999715,
          "durationTicks": 14,
          "midi": 66,
          "name": "F#4",
          "ticks": 10320,
          "time": 54.893628,
          "velocity": 0.23622047244094488
        },
        {
          "duration": 0.07446809999999715,
          "durationTicks": 14,
          "midi": 71,
          "name": "B4",
          "ticks": 10680,
          "time": 56.808522,
          "velocity": 0.5511811023622047
        },
        {
          "duration": 0.07446809999999715,
          "durationTicks": 14,
          "midi": 71,
          "name": "B4",
          "ticks": 10740,
          "time": 57.127671,
          "velocity": 0.5511811023622047
        },
        {
          "duration": 0.07446809999999005,
          "durationTicks": 14,
          "midi": 69,
          "name": "A4",
          "ticks": 11160,
          "time": 59.361714000000006,
          "velocity": 0.5511811023622047
        },
        {
          "duration": 0.07446809999999715,
          "durationTicks": 14,
          "midi": 69,
          "name": "A4",
          "ticks": 11220,
          "time": 59.680863,
          "velocity": 0.5511811023622047
        },
        {
          "duration": 0.07446809999999005,
          "durationTicks": 14,
          "midi": 66,
          "name": "F#4",
          "ticks": 11280,
          "time": 60.000012000000005,
          "velocity": 0.23622047244094488
        },
        {
          "duration": 0.07446809999999715,
          "durationTicks": 14,
          "midi": 71,
          "name": "B4",
          "ticks": 11640,
          "time": 61.914906,
          "velocity": 0.5511811023622047
        },
        {
          "duration": 0.07446809999999715,
          "durationTicks": 14,
          "midi": 71,
          "name": "B4",
          "ticks": 11700,
          "time": 62.234055000000005,
          "velocity": 0.5511811023622047
        },
        {
          "duration": 0.07446810000000426,
          "durationTicks": 14,
          "midi": 69,
          "name": "A4",
          "ticks": 12120,
          "time": 64.468098,
          "velocity": 0.5511811023622047
        },
        {
          "duration": 0.07446809999999005,
          "durationTicks": 14,
          "midi": 69,
          "name": "A4",
          "ticks": 12180,
          "time": 64.78724700000001,
          "velocity": 0.5511811023622047
        },
        {
          "duration": 0.07446809999999005,
          "durationTicks": 14,
          "midi": 66,
          "name": "F#4",
          "ticks": 12240,
          "time": 65.106396,
          "velocity": 0.23622047244094488
        },
        {
          "duration": 0.07446809999999005,
          "durationTicks": 14,
          "midi": 71,
          "name": "B4",
          "ticks": 12600,
          "time": 67.02129000000001,
          "velocity": 0.5511811023622047
        },
        {
          "duration": 0.07446809999999005,
          "durationTicks": 14,
          "midi": 71,
          "name": "B4",
          "ticks": 12660,
          "time": 67.340439,
          "velocity": 0.5511811023622047
        },
        {
          "duration": 0.07446809999999005,
          "durationTicks": 14,
          "midi": 69,
          "name": "A4",
          "ticks": 13080,
          "time": 69.574482,
          "velocity": 0.5511811023622047
        },
        {
          "duration": 0.07446810000000426,
          "durationTicks": 14,
          "midi": 69,
          "name": "A4",
          "ticks": 13140,
          "time": 69.893631,
          "velocity": 0.5511811023622047
        },
        {
          "duration": 0.07446809999999005,
          "durationTicks": 14,
          "midi": 66,
          "name": "F#4",
          "ticks": 13200,
          "time": 70.21278000000001,
          "velocity": 0.23622047244094488
        },
        {
          "duration": 0.07446810000000426,
          "durationTicks": 14,
          "midi": 71,
          "name": "B4",
          "ticks": 13560,
          "time": 72.127674,
          "velocity": 0.5511811023622047
        },
        {
          "duration": 0.07446809999999005,
          "durationTicks": 14,
          "midi": 71,
          "name": "B4",
          "ticks": 13620,
          "time": 72.44682300000001,
          "velocity": 0.5511811023622047
        },
        {
          "duration": 0.07446809999999005,
          "durationTicks": 14,
          "midi": 69,
          "name": "A4",
          "ticks": 14040,
          "time": 74.68086600000001,
          "velocity": 0.5511811023622047
        },
        {
          "duration": 0.07446809999999005,
          "durationTicks": 14,
          "midi": 69,
          "name": "A4",
          "ticks": 14100,
          "time": 75.000015,
          "velocity": 0.5511811023622047
        },
        {
          "duration": 0.07446810000000426,
          "durationTicks": 14,
          "midi": 66,
          "name": "F#4",
          "ticks": 14160,
          "time": 75.319164,
          "velocity": 0.23622047244094488
        },
        {
          "duration": 0.07446809999999005,
          "durationTicks": 14,
          "midi": 71,
          "name": "B4",
          "ticks": 14520,
          "time": 77.234058,
          "velocity": 0.5511811023622047
        },
        {
          "duration": 0.07446810000000426,
          "durationTicks": 14,
          "midi": 71,
          "name": "B4",
          "ticks": 14580,
          "time": 77.553207,
          "velocity": 0.5511811023622047
        },
        {
          "duration": 0.07446810000000426,
          "durationTicks": 14,
          "midi": 69,
          "name": "A4",
          "ticks": 15000,
          "time": 79.78725,
          "velocity": 0.5511811023622047
        },
        {
          "duration": 0.07446809999999005,
          "durationTicks": 14,
          "midi": 69,
          "name": "A4",
          "ticks": 15060,
          "time": 80.10639900000001,
          "velocity": 0.5511811023622047
        },
        {
          "duration": 0.07446809999999005,
          "durationTicks": 14,
          "midi": 66,
          "name": "F#4",
          "ticks": 15120,
          "time": 80.425548,
          "velocity": 0.23622047244094488
        },
        {
          "duration": 0.07446810000000426,
          "durationTicks": 14,
          "midi": 71,
          "name": "B4",
          "ticks": 15480,
          "time": 82.34044200000001,
          "velocity": 0.5511811023622047
        },
        {
          "duration": 0.07446810000000426,
          "durationTicks": 14,
          "midi": 71,
          "name": "B4",
          "ticks": 15540,
          "time": 82.659591,
          "velocity": 0.5511811023622047
        },
        {
          "duration": 0.07446810000000426,
          "durationTicks": 14,
          "midi": 69,
          "name": "A4",
          "ticks": 15960,
          "time": 84.893634,
          "velocity": 0.5511811023622047
        },
        {
          "duration": 0.07446810000000426,
          "durationTicks": 14,
          "midi": 69,
          "name": "A4",
          "ticks": 16020,
          "time": 85.212783,
          "velocity": 0.5511811023622047
        },
        {
          "duration": 0.07446810000001847,
          "durationTicks": 14,
          "midi": 66,
          "name": "F#4",
          "ticks": 16080,
          "time": 85.531932,
          "velocity": 0.23622047244094488
        },
        {
          "duration": 0.07446810000000426,
          "durationTicks": 14,
          "midi": 71,
          "name": "B4",
          "ticks": 16440,
          "time": 87.446826,
          "velocity": 0.5511811023622047
        },
        {
          "duration": 0.07446810000001847,
          "durationTicks": 14,
          "midi": 71,
          "name": "B4",
          "ticks": 16500,
          "time": 87.765975,
          "velocity": 0.5511811023622047
        },
        {
          "duration": 0.07446810000000426,
          "durationTicks": 14,
          "midi": 69,
          "name": "A4",
          "ticks": 16920,
          "time": 90.00001800000001,
          "velocity": 0.5511811023622047
        },
        {
          "duration": 0.07446810000000426,
          "durationTicks": 14,
          "midi": 69,
          "name": "A4",
          "ticks": 16980,
          "time": 90.31916700000001,
          "velocity": 0.5511811023622047
        },
        {
          "duration": 0.07446810000000426,
          "durationTicks": 14,
          "midi": 66,
          "name": "F#4",
          "ticks": 17040,
          "time": 90.638316,
          "velocity": 0.23622047244094488
        },
        {
          "duration": 0.07446810000000426,
          "durationTicks": 14,
          "midi": 71,
          "name": "B4",
          "ticks": 17400,
          "time": 92.55321,
          "velocity": 0.5511811023622047
        },
        {
          "duration": 0.07446810000000426,
          "durationTicks": 14,
          "midi": 71,
          "name": "B4",
          "ticks": 17460,
          "time": 92.872359,
          "velocity": 0.5511811023622047
        },
        {
          "duration": 0.07446810000000426,
          "durationTicks": 14,
          "midi": 69,
          "name": "A4",
          "ticks": 17880,
          "time": 95.106402,
          "velocity": 0.5511811023622047
        },
        {
          "duration": 0.07446810000000426,
          "durationTicks": 14,
          "midi": 69,
          "name": "A4",
          "ticks": 17940,
          "time": 95.425551,
          "velocity": 0.5511811023622047
        },
        {
          "duration": 0.07446810000000426,
          "durationTicks": 14,
          "midi": 66,
          "name": "F#4",
          "ticks": 18000,
          "time": 95.74470000000001,
          "velocity": 0.23622047244094488
        },
        {
          "duration": 0.07446810000000426,
          "durationTicks": 14,
          "midi": 71,
          "name": "B4",
          "ticks": 18360,
          "time": 97.659594,
          "velocity": 0.5511811023622047
        },
        {
          "duration": 0.07446810000000426,
          "durationTicks": 14,
          "midi": 71,
          "name": "B4",
          "ticks": 18420,
          "time": 97.97874300000001,
          "velocity": 0.5511811023622047
        },
        {
          "duration": 0.07446810000000426,
          "durationTicks": 14,
          "midi": 69,
          "name": "A4",
          "ticks": 18840,
          "time": 100.21278600000001,
          "velocity": 0.5511811023622047
        },
        {
          "duration": 0.07446810000000426,
          "durationTicks": 14,
          "midi": 69,
          "name": "A4",
          "ticks": 18900,
          "time": 100.531935,
          "velocity": 0.5511811023622047
        },
        {
          "duration": 0.07446810000000426,
          "durationTicks": 14,
          "midi": 66,
          "name": "F#4",
          "ticks": 18960,
          "time": 100.851084,
          "velocity": 0.23622047244094488
        },
        {
          "duration": 0.07446810000000426,
          "durationTicks": 14,
          "midi": 71,
          "name": "B4",
          "ticks": 19320,
          "time": 102.765978,
          "velocity": 0.5511811023622047
        },
        {
          "duration": 0.07446810000000426,
          "durationTicks": 14,
          "midi": 71,
          "name": "B4",
          "ticks": 19380,
          "time": 103.085127,
          "velocity": 0.5511811023622047
        },
        {
          "duration": 0.07446810000000426,
          "durationTicks": 14,
          "midi": 69,
          "name": "A4",
          "ticks": 19800,
          "time": 105.31917,
          "velocity": 0.5511811023622047
        },
        {
          "duration": 0.07446810000000426,
          "durationTicks": 14,
          "midi": 69,
          "name": "A4",
          "ticks": 19860,
          "time": 105.63831900000001,
          "velocity": 0.5511811023622047
        },
        {
          "duration": 0.07446810000000426,
          "durationTicks": 14,
          "midi": 66,
          "name": "F#4",
          "ticks": 19920,
          "time": 105.957468,
          "velocity": 0.23622047244094488
        },
        {
          "duration": 0.07446810000000426,
          "durationTicks": 14,
          "midi": 71,
          "name": "B4",
          "ticks": 20280,
          "time": 107.87236200000001,
          "velocity": 0.5511811023622047
        },
        {
          "duration": 0.07446810000000426,
          "durationTicks": 14,
          "midi": 71,
          "name": "B4",
          "ticks": 20340,
          "time": 108.191511,
          "velocity": 0.5511811023622047
        },
        {
          "duration": 0.07446810000000426,
          "durationTicks": 14,
          "midi": 69,
          "name": "A4",
          "ticks": 20760,
          "time": 110.425554,
          "velocity": 0.5511811023622047
        },
        {
          "duration": 0.07446810000000426,
          "durationTicks": 14,
          "midi": 69,
          "name": "A4",
          "ticks": 20820,
          "time": 110.744703,
          "velocity": 0.5511811023622047
        },
        {
          "duration": 0.07446810000000426,
          "durationTicks": 14,
          "midi": 66,
          "name": "F#4",
          "ticks": 20880,
          "time": 111.06385200000001,
          "velocity": 0.23622047244094488
        },
        {
          "duration": 0.07446810000000426,
          "durationTicks": 14,
          "midi": 71,
          "name": "B4",
          "ticks": 21240,
          "time": 112.978746,
          "velocity": 0.5511811023622047
        },
        {
          "duration": 0.07446810000000426,
          "durationTicks": 14,
          "midi": 71,
          "name": "B4",
          "ticks": 21300,
          "time": 113.29789500000001,
          "velocity": 0.5511811023622047
        },
        {
          "duration": 0.07446810000000426,
          "durationTicks": 14,
          "midi": 69,
          "name": "A4",
          "ticks": 21720,
          "time": 115.53193800000001,
          "velocity": 0.5511811023622047
        },
        {
          "duration": 0.07446810000000426,
          "durationTicks": 14,
          "midi": 69,
          "name": "A4",
          "ticks": 21780,
          "time": 115.851087,
          "velocity": 0.5511811023622047
        },
        {
          "duration": 0.07446810000000426,
          "durationTicks": 14,
          "midi": 66,
          "name": "F#4",
          "ticks": 21840,
          "time": 116.170236,
          "velocity": 0.23622047244094488
        },
        {
          "duration": 0.07446810000000426,
          "durationTicks": 14,
          "midi": 71,
          "name": "B4",
          "ticks": 22200,
          "time": 118.08513,
          "velocity": 0.5511811023622047
        },
        {
          "duration": 0.07446810000000426,
          "durationTicks": 14,
          "midi": 71,
          "name": "B4",
          "ticks": 22260,
          "time": 118.404279,
          "velocity": 0.5511811023622047
        },
        {
          "duration": 0.07446810000000426,
          "durationTicks": 14,
          "midi": 69,
          "name": "A4",
          "ticks": 22680,
          "time": 120.638322,
          "velocity": 0.5511811023622047
        },
        {
          "duration": 0.07446810000000426,
          "durationTicks": 14,
          "midi": 69,
          "name": "A4",
          "ticks": 22740,
          "time": 120.95747100000001,
          "velocity": 0.5511811023622047
        },
        {
          "duration": 0.07446810000000426,
          "durationTicks": 14,
          "midi": 66,
          "name": "F#4",
          "ticks": 22800,
          "time": 121.27662000000001,
          "velocity": 0.23622047244094488
        },
        {
          "duration": 0.07446810000000426,
          "durationTicks": 14,
          "midi": 71,
          "name": "B4",
          "ticks": 23160,
          "time": 123.19151400000001,
          "velocity": 0.5511811023622047
        },
        {
          "duration": 0.07446810000000426,
          "durationTicks": 14,
          "midi": 71,
          "name": "B4",
          "ticks": 23220,
          "time": 123.51066300000001,
          "velocity": 0.5511811023622047
        },
        {
          "duration": 0.07446810000000426,
          "durationTicks": 14,
          "midi": 69,
          "name": "A4",
          "ticks": 23640,
          "time": 125.74470600000001,
          "velocity": 0.5511811023622047
        },
        {
          "duration": 0.07446810000000426,
          "durationTicks": 14,
          "midi": 69,
          "name": "A4",
          "ticks": 23700,
          "time": 126.063855,
          "velocity": 0.5511811023622047
        },
        {
          "duration": 0.07446810000001847,
          "durationTicks": 14,
          "midi": 66,
          "name": "F#4",
          "ticks": 23760,
          "time": 126.383004,
          "velocity": 0.23622047244094488
        },
        {
          "duration": 0.07446810000001847,
          "durationTicks": 14,
          "midi": 71,
          "name": "B4",
          "ticks": 24120,
          "time": 128.297898,
          "velocity": 0.5511811023622047
        },
        {
          "duration": 0.07446809999999005,
          "durationTicks": 14,
          "midi": 71,
          "name": "B4",
          "ticks": 24180,
          "time": 128.617047,
          "velocity": 0.5511811023622047
        },
        {
          "duration": 0.07446810000001847,
          "durationTicks": 14,
          "midi": 69,
          "name": "A4",
          "ticks": 24600,
          "time": 130.85109,
          "velocity": 0.5511811023622047
        },
        {
          "duration": 0.07446809999999005,
          "durationTicks": 14,
          "midi": 69,
          "name": "A4",
          "ticks": 24660,
          "time": 131.170239,
          "velocity": 0.5511811023622047
        },
        {
          "duration": 0.07446809999999005,
          "durationTicks": 14,
          "midi": 66,
          "name": "F#4",
          "ticks": 24720,
          "time": 131.48938800000002,
          "velocity": 0.23622047244094488
        },
        {
          "duration": 0.07446810000001847,
          "durationTicks": 14,
          "midi": 71,
          "name": "B4",
          "ticks": 25080,
          "time": 133.404282,
          "velocity": 0.5511811023622047
        },
        {
          "duration": 0.07446810000001847,
          "durationTicks": 14,
          "midi": 71,
          "name": "B4",
          "ticks": 25140,
          "time": 133.723431,
          "velocity": 0.5511811023622047
        },
        {
          "duration": 0.07446809999999005,
          "durationTicks": 14,
          "midi": 69,
          "name": "A4",
          "ticks": 25560,
          "time": 135.95747400000002,
          "velocity": 0.5511811023622047
        },
        {
          "duration": 0.07446810000001847,
          "durationTicks": 14,
          "midi": 69,
          "name": "A4",
          "ticks": 25620,
          "time": 136.276623,
          "velocity": 0.5511811023622047
        },
        {
          "duration": 0.07446809999999005,
          "durationTicks": 14,
          "midi": 66,
          "name": "F#4",
          "ticks": 25680,
          "time": 136.595772,
          "velocity": 0.23622047244094488
        },
        {
          "duration": 0.07446809999999005,
          "durationTicks": 14,
          "midi": 71,
          "name": "B4",
          "ticks": 26040,
          "time": 138.51066600000001,
          "velocity": 0.5511811023622047
        },
        {
          "duration": 0.07446810000001847,
          "durationTicks": 14,
          "midi": 71,
          "name": "B4",
          "ticks": 26100,
          "time": 138.829815,
          "velocity": 0.5511811023622047
        },
        {
          "duration": 0.07446809999999005,
          "durationTicks": 14,
          "midi": 69,
          "name": "A4",
          "ticks": 26520,
          "time": 141.063858,
          "velocity": 0.5511811023622047
        },
        {
          "duration": 0.07446809999999005,
          "durationTicks": 14,
          "midi": 69,
          "name": "A4",
          "ticks": 26580,
          "time": 141.38300700000002,
          "velocity": 0.5511811023622047
        },
        {
          "duration": 0.07446810000001847,
          "durationTicks": 14,
          "midi": 66,
          "name": "F#4",
          "ticks": 26640,
          "time": 141.702156,
          "velocity": 0.23622047244094488
        },
        {
          "duration": 0.07446810000001847,
          "durationTicks": 14,
          "midi": 71,
          "name": "B4",
          "ticks": 27000,
          "time": 143.61705,
          "velocity": 0.5511811023622047
        },
        {
          "duration": 0.07446809999999005,
          "durationTicks": 14,
          "midi": 71,
          "name": "B4",
          "ticks": 27060,
          "time": 143.93619900000002,
          "velocity": 0.5511811023622047
        },
        {
          "duration": 0.07446810000001847,
          "durationTicks": 14,
          "midi": 69,
          "name": "A4",
          "ticks": 27480,
          "time": 146.170242,
          "velocity": 0.5511811023622047
        },
        {
          "duration": 0.07446809999999005,
          "durationTicks": 14,
          "midi": 69,
          "name": "A4",
          "ticks": 27540,
          "time": 146.489391,
          "velocity": 0.5511811023622047
        },
        {
          "duration": 0.07446810000001847,
          "durationTicks": 14,
          "midi": 66,
          "name": "F#4",
          "ticks": 27600,
          "time": 146.80854,
          "velocity": 0.23622047244094488
        },
        {
          "duration": 0.07446810000001847,
          "durationTicks": 14,
          "midi": 71,
          "name": "B4",
          "ticks": 27960,
          "time": 148.723434,
          "velocity": 0.5511811023622047
        },
        {
          "duration": 0.07446810000001847,
          "durationTicks": 14,
          "midi": 71,
          "name": "B4",
          "ticks": 28020,
          "time": 149.042583,
          "velocity": 0.5511811023622047
        },
        {
          "duration": 0.07446809999999005,
          "durationTicks": 14,
          "midi": 69,
          "name": "A4",
          "ticks": 28440,
          "time": 151.27662600000002,
          "velocity": 0.5511811023622047
        },
        {
          "duration": 0.07446810000001847,
          "durationTicks": 14,
          "midi": 69,
          "name": "A4",
          "ticks": 28500,
          "time": 151.595775,
          "velocity": 0.5511811023622047
        },
        {
          "duration": 0.07446809999999005,
          "durationTicks": 14,
          "midi": 66,
          "name": "F#4",
          "ticks": 28560,
          "time": 151.914924,
          "velocity": 0.23622047244094488
        },
        {
          "duration": 0.07446809999999005,
          "durationTicks": 14,
          "midi": 71,
          "name": "B4",
          "ticks": 28920,
          "time": 153.82981800000002,
          "velocity": 0.5511811023622047
        },
        {
          "duration": 0.07446810000001847,
          "durationTicks": 14,
          "midi": 71,
          "name": "B4",
          "ticks": 28980,
          "time": 154.148967,
          "velocity": 0.5511811023622047
        },
        {
          "duration": 0.07446809999999005,
          "durationTicks": 14,
          "midi": 69,
          "name": "A4",
          "ticks": 29400,
          "time": 156.38301,
          "velocity": 0.5511811023622047
        },
        {
          "duration": 0.07446810000001847,
          "durationTicks": 14,
          "midi": 69,
          "name": "A4",
          "ticks": 29460,
          "time": 156.702159,
          "velocity": 0.5511811023622047
        },
        {
          "duration": 0.07446810000001847,
          "durationTicks": 14,
          "midi": 66,
          "name": "F#4",
          "ticks": 29520,
          "time": 157.021308,
          "velocity": 0.23622047244094488
        },
        {
          "duration": 0.07446809999999005,
          "durationTicks": 14,
          "midi": 71,
          "name": "B4",
          "ticks": 29880,
          "time": 158.936202,
          "velocity": 0.5511811023622047
        },
        {
          "duration": 0.07446809999999005,
          "durationTicks": 14,
          "midi": 71,
          "name": "B4",
          "ticks": 29940,
          "time": 159.25535100000002,
          "velocity": 0.5511811023622047
        },
        {
          "duration": 0.07446810000001847,
          "durationTicks": 14,
          "midi": 69,
          "name": "A4",
          "ticks": 30360,
          "time": 161.489394,
          "velocity": 0.5511811023622047
        },
        {
          "duration": 0.07446809999999005,
          "durationTicks": 14,
          "midi": 69,
          "name": "A4",
          "ticks": 30420,
          "time": 161.80854300000001,
          "velocity": 0.5511811023622047
        },
        {
          "duration": 0.07446810000001847,
          "durationTicks": 14,
          "midi": 66,
          "name": "F#4",
          "ticks": 30480,
          "time": 162.127692,
          "velocity": 0.23622047244094488
        },
        {
          "duration": 0.07446810000001847,
          "durationTicks": 14,
          "midi": 71,
          "name": "B4",
          "ticks": 30840,
          "time": 164.042586,
          "velocity": 0.5511811023622047
        },
        {
          "duration": 0.07446809999999005,
          "durationTicks": 14,
          "midi": 71,
          "name": "B4",
          "ticks": 30900,
          "time": 164.361735,
          "velocity": 0.5511811023622047
        },
        {
          "duration": 0.07446810000001847,
          "durationTicks": 14,
          "midi": 69,
          "name": "A4",
          "ticks": 31320,
          "time": 166.595778,
          "velocity": 0.5511811023622047
        },
        {
          "duration": 0.07446810000001847,
          "durationTicks": 14,
          "midi": 69,
          "name": "A4",
          "ticks": 31380,
          "time": 166.914927,
          "velocity": 0.5511811023622047
        },
        {
          "duration": 0.07446809999999005,
          "durationTicks": 14,
          "midi": 66,
          "name": "F#4",
          "ticks": 31440,
          "time": 167.23407600000002,
          "velocity": 0.23622047244094488
        },
        {
          "duration": 0.07446809999999005,
          "durationTicks": 14,
          "midi": 71,
          "name": "B4",
          "ticks": 31800,
          "time": 169.14897000000002,
          "velocity": 0.5511811023622047
        },
        {
          "duration": 0.07446810000001847,
          "durationTicks": 14,
          "midi": 71,
          "name": "B4",
          "ticks": 31860,
          "time": 169.468119,
          "velocity": 0.5511811023622047
        },
        {
          "duration": 0.07446809999999005,
          "durationTicks": 14,
          "midi": 69,
          "name": "A4",
          "ticks": 32280,
          "time": 171.70216200000002,
          "velocity": 0.5511811023622047
        },
        {
          "duration": 0.07446810000001847,
          "durationTicks": 14,
          "midi": 69,
          "name": "A4",
          "ticks": 32340,
          "time": 172.021311,
          "velocity": 0.5511811023622047
        },
        {
          "duration": 0.07446810000001847,
          "durationTicks": 14,
          "midi": 66,
          "name": "F#4",
          "ticks": 32400,
          "time": 172.34046,
          "velocity": 0.23622047244094488
        },
        {
          "duration": 0.07446809999999005,
          "durationTicks": 14,
          "midi": 71,
          "name": "B4",
          "ticks": 32760,
          "time": 174.255354,
          "velocity": 0.5511811023622047
        },
        {
          "duration": 0.07446809999999005,
          "durationTicks": 14,
          "midi": 71,
          "name": "B4",
          "ticks": 32820,
          "time": 174.57450300000002,
          "velocity": 0.5511811023622047
        },
        {
          "duration": 0.07446810000001847,
          "durationTicks": 14,
          "midi": 69,
          "name": "A4",
          "ticks": 33240,
          "time": 176.808546,
          "velocity": 0.5511811023622047
        },
        {
          "duration": 0.07446809999999005,
          "durationTicks": 14,
          "midi": 69,
          "name": "A4",
          "ticks": 33300,
          "time": 177.12769500000002,
          "velocity": 0.5511811023622047
        },
        {
          "duration": 0.07446810000001847,
          "durationTicks": 14,
          "midi": 66,
          "name": "F#4",
          "ticks": 33360,
          "time": 177.446844,
          "velocity": 0.23622047244094488
        },
        {
          "duration": 0.07446810000001847,
          "durationTicks": 14,
          "midi": 71,
          "name": "B4",
          "ticks": 33720,
          "time": 179.361738,
          "velocity": 0.5511811023622047
        },
        {
          "duration": 0.07446809999999005,
          "durationTicks": 14,
          "midi": 71,
          "name": "B4",
          "ticks": 33780,
          "time": 179.680887,
          "velocity": 0.5511811023622047
        },
        {
          "duration": 0.07446810000001847,
          "durationTicks": 14,
          "midi": 69,
          "name": "A4",
          "ticks": 34200,
          "time": 181.91493,
          "velocity": 0.5511811023622047
        },
        {
          "duration": 0.07446810000001847,
          "durationTicks": 14,
          "midi": 69,
          "name": "A4",
          "ticks": 34260,
          "time": 182.234079,
          "velocity": 0.5511811023622047
        },
        {
          "duration": 0.07446809999999005,
          "durationTicks": 14,
          "midi": 66,
          "name": "F#4",
          "ticks": 34320,
          "time": 182.55322800000002,
          "velocity": 0.23622047244094488
        },
        {
          "duration": 0.07446809999999005,
          "durationTicks": 14,
          "midi": 71,
          "name": "B4",
          "ticks": 34680,
          "time": 184.46812200000002,
          "velocity": 0.5511811023622047
        },
        {
          "duration": 0.07446810000001847,
          "durationTicks": 14,
          "midi": 71,
          "name": "B4",
          "ticks": 34740,
          "time": 184.787271,
          "velocity": 0.5511811023622047
        },
        {
          "duration": 0.07446809999999005,
          "durationTicks": 14,
          "midi": 69,
          "name": "A4",
          "ticks": 35160,
          "time": 187.02131400000002,
          "velocity": 0.5511811023622047
        },
        {
          "duration": 0.07446810000001847,
          "durationTicks": 14,
          "midi": 69,
          "name": "A4",
          "ticks": 35220,
          "time": 187.340463,
          "velocity": 0.5511811023622047
        },
        {
          "duration": 0.07446810000001847,
          "durationTicks": 14,
          "midi": 66,
          "name": "F#4",
          "ticks": 35280,
          "time": 187.659612,
          "velocity": 0.23622047244094488
        },
        {
          "duration": 0.07446809999999005,
          "durationTicks": 14,
          "midi": 71,
          "name": "B4",
          "ticks": 35640,
          "time": 189.574506,
          "velocity": 0.5511811023622047
        },
        {
          "duration": 0.07446810000001847,
          "durationTicks": 14,
          "midi": 71,
          "name": "B4",
          "ticks": 35700,
          "time": 189.893655,
          "velocity": 0.5511811023622047
        },
        {
          "duration": 0.07446810000001847,
          "durationTicks": 14,
          "midi": 69,
          "name": "A4",
          "ticks": 36120,
          "time": 192.127698,
          "velocity": 0.5511811023622047
        },
        {
          "duration": 0.07446809999999005,
          "durationTicks": 14,
          "midi": 69,
          "name": "A4",
          "ticks": 36180,
          "time": 192.44684700000002,
          "velocity": 0.5511811023622047
        },
        {
          "duration": 0.07446810000001847,
          "durationTicks": 14,
          "midi": 66,
          "name": "F#4",
          "ticks": 36240,
          "time": 192.765996,
          "velocity": 0.23622047244094488
        },
        {
          "duration": 0.07446810000001847,
          "durationTicks": 14,
          "midi": 71,
          "name": "B4",
          "ticks": 36600,
          "time": 194.68089,
          "velocity": 0.5511811023622047
        },
        {
          "duration": 0.07446809999999005,
          "durationTicks": 14,
          "midi": 71,
          "name": "B4",
          "ticks": 36660,
          "time": 195.00003900000002,
          "velocity": 0.5511811023622047
        },
        {
          "duration": 0.07446810000001847,
          "durationTicks": 14,
          "midi": 69,
          "name": "A4",
          "ticks": 37080,
          "time": 197.234082,
          "velocity": 0.5511811023622047
        },
        {
          "duration": 0.07446809999999005,
          "durationTicks": 14,
          "midi": 69,
          "name": "A4",
          "ticks": 37140,
          "time": 197.553231,
          "velocity": 0.5511811023622047
        },
        {
          "duration": 0.07446809999999005,
          "durationTicks": 14,
          "midi": 66,
          "name": "F#4",
          "ticks": 37200,
          "time": 197.87238000000002,
          "velocity": 0.23622047244094488
        },
        {
          "duration": 0.07446810000001847,
          "durationTicks": 14,
          "midi": 71,
          "name": "B4",
          "ticks": 37560,
          "time": 199.787274,
          "velocity": 0.5511811023622047
        },
        {
          "duration": 0.07446810000001847,
          "durationTicks": 14,
          "midi": 71,
          "name": "B4",
          "ticks": 37620,
          "time": 200.106423,
          "velocity": 0.5511811023622047
        },
        {
          "duration": 0.07446809999999005,
          "durationTicks": 14,
          "midi": 69,
          "name": "A4",
          "ticks": 38040,
          "time": 202.34046600000002,
          "velocity": 0.5511811023622047
        },
        {
          "duration": 0.07446810000001847,
          "durationTicks": 14,
          "midi": 69,
          "name": "A4",
          "ticks": 38100,
          "time": 202.659615,
          "velocity": 0.5511811023622047
        },
        {
          "duration": 0.07446809999999005,
          "durationTicks": 14,
          "midi": 66,
          "name": "F#4",
          "ticks": 38160,
          "time": 202.978764,
          "velocity": 0.23622047244094488
        },
        {
          "duration": 0.07446809999999005,
          "durationTicks": 14,
          "midi": 71,
          "name": "B4",
          "ticks": 38520,
          "time": 204.89365800000002,
          "velocity": 0.5511811023622047
        },
        {
          "duration": 0.07446810000001847,
          "durationTicks": 14,
          "midi": 71,
          "name": "B4",
          "ticks": 38580,
          "time": 205.212807,
          "velocity": 0.5511811023622047
        },
        {
          "duration": 0.07446809999999005,
          "durationTicks": 14,
          "midi": 69,
          "name": "A4",
          "ticks": 39000,
          "time": 207.44685,
          "velocity": 0.5511811023622047
        },
        {
          "duration": 0.07446809999999005,
          "durationTicks": 14,
          "midi": 69,
          "name": "A4",
          "ticks": 39060,
          "time": 207.76599900000002,
          "velocity": 0.5511811023622047
        },
        {
          "duration": 0.07446810000001847,
          "durationTicks": 14,
          "midi": 66,
          "name": "F#4",
          "ticks": 39120,
          "time": 208.085148,
          "velocity": 0.23622047244094488
        },
        {
          "duration": 0.07446810000001847,
          "durationTicks": 14,
          "midi": 71,
          "name": "B4",
          "ticks": 39480,
          "time": 210.000042,
          "velocity": 0.5511811023622047
        },
        {
          "duration": 0.07446809999999005,
          "durationTicks": 14,
          "midi": 71,
          "name": "B4",
          "ticks": 39540,
          "time": 210.31919100000002,
          "velocity": 0.5511811023622047
        },
        {
          "duration": 0.07446810000001847,
          "durationTicks": 14,
          "midi": 69,
          "name": "A4",
          "ticks": 39960,
          "time": 212.553234,
          "velocity": 0.5511811023622047
        },
        {
          "duration": 0.07446809999999005,
          "durationTicks": 14,
          "midi": 69,
          "name": "A4",
          "ticks": 40020,
          "time": 212.872383,
          "velocity": 0.5511811023622047
        },
        {
          "duration": 0.07446809999999005,
          "durationTicks": 14,
          "midi": 66,
          "name": "F#4",
          "ticks": 40080,
          "time": 213.19153200000002,
          "velocity": 0.23622047244094488
        },
        {
          "duration": 0.07446810000001847,
          "durationTicks": 14,
          "midi": 71,
          "name": "B4",
          "ticks": 40440,
          "time": 215.106426,
          "velocity": 0.5511811023622047
        },
        {
          "duration": 0.07446810000001847,
          "durationTicks": 14,
          "midi": 71,
          "name": "B4",
          "ticks": 40500,
          "time": 215.425575,
          "velocity": 0.5511811023622047
        },
        {
          "duration": 0.07446809999999005,
          "durationTicks": 14,
          "midi": 69,
          "name": "A4",
          "ticks": 40920,
          "time": 217.65961800000002,
          "velocity": 0.5511811023622047
        },
        {
          "duration": 0.07446810000001847,
          "durationTicks": 14,
          "midi": 69,
          "name": "A4",
          "ticks": 40980,
          "time": 217.978767,
          "velocity": 0.5511811023622047
        },
        {
          "duration": 0.07446809999999005,
          "durationTicks": 14,
          "midi": 66,
          "name": "F#4",
          "ticks": 41040,
          "time": 218.29791600000001,
          "velocity": 0.23622047244094488
        },
        {
          "duration": 0.07446809999999005,
          "durationTicks": 14,
          "midi": 71,
          "name": "B4",
          "ticks": 41400,
          "time": 220.21281000000002,
          "velocity": 0.5511811023622047
        },
        {
          "duration": 0.07446810000001847,
          "durationTicks": 14,
          "midi": 71,
          "name": "B4",
          "ticks": 41460,
          "time": 220.531959,
          "velocity": 0.5511811023622047
        },
        {
          "duration": 0.07446809999999005,
          "durationTicks": 14,
          "midi": 69,
          "name": "A4",
          "ticks": 41880,
          "time": 222.76600200000001,
          "velocity": 0.5511811023622047
        },
        {
          "duration": 0.07446809999999005,
          "durationTicks": 14,
          "midi": 69,
          "name": "A4",
          "ticks": 41940,
          "time": 223.08515100000002,
          "velocity": 0.5511811023622047
        },
        {
          "duration": 0.07446810000001847,
          "durationTicks": 14,
          "midi": 66,
          "name": "F#4",
          "ticks": 42000,
          "time": 223.4043,
          "velocity": 0.23622047244094488
        },
        {
          "duration": 0.07446810000001847,
          "durationTicks": 14,
          "midi": 71,
          "name": "B4",
          "ticks": 42360,
          "time": 225.319194,
          "velocity": 0.5511811023622047
        },
        {
          "duration": 0.07446809999999005,
          "durationTicks": 14,
          "midi": 71,
          "name": "B4",
          "ticks": 42420,
          "time": 225.63834300000002,
          "velocity": 0.5511811023622047
        },
        {
          "duration": 0.07446810000001847,
          "durationTicks": 14,
          "midi": 69,
          "name": "A4",
          "ticks": 42840,
          "time": 227.872386,
          "velocity": 0.5511811023622047
        },
        {
          "duration": 0.07446809999999005,
          "durationTicks": 14,
          "midi": 69,
          "name": "A4",
          "ticks": 42900,
          "time": 228.19153500000002,
          "velocity": 0.5511811023622047
        },
        {
          "duration": 0.07446810000001847,
          "durationTicks": 14,
          "midi": 66,
          "name": "F#4",
          "ticks": 42960,
          "time": 228.510684,
          "velocity": 0.23622047244094488
        },
        {
          "duration": 0.07446810000001847,
          "durationTicks": 14,
          "midi": 71,
          "name": "B4",
          "ticks": 43320,
          "time": 230.425578,
          "velocity": 0.5511811023622047
        },
        {
          "duration": 0.07446810000001847,
          "durationTicks": 14,
          "midi": 71,
          "name": "B4",
          "ticks": 43380,
          "time": 230.744727,
          "velocity": 0.5511811023622047
        },
        {
          "duration": 0.07446809999999005,
          "durationTicks": 14,
          "midi": 69,
          "name": "A4",
          "ticks": 43800,
          "time": 232.97877000000003,
          "velocity": 0.5511811023622047
        },
        {
          "duration": 0.07446810000001847,
          "durationTicks": 14,
          "midi": 69,
          "name": "A4",
          "ticks": 43860,
          "time": 233.297919,
          "velocity": 0.5511811023622047
        },
        {
          "duration": 0.07446809999999005,
          "durationTicks": 14,
          "midi": 66,
          "name": "F#4",
          "ticks": 43920,
          "time": 233.61706800000002,
          "velocity": 0.23622047244094488
        },
        {
          "duration": 0.07446809999999005,
          "durationTicks": 14,
          "midi": 71,
          "name": "B4",
          "ticks": 44280,
          "time": 235.53196200000002,
          "velocity": 0.5511811023622047
        },
        {
          "duration": 0.07446810000001847,
          "durationTicks": 14,
          "midi": 71,
          "name": "B4",
          "ticks": 44340,
          "time": 235.851111,
          "velocity": 0.5511811023622047
        },
        {
          "duration": 0.07446809999999005,
          "durationTicks": 14,
          "midi": 69,
          "name": "A4",
          "ticks": 44760,
          "time": 238.08515400000002,
          "velocity": 0.5511811023622047
        },
        {
          "duration": 0.07446810000001847,
          "durationTicks": 14,
          "midi": 69,
          "name": "A4",
          "ticks": 44820,
          "time": 238.404303,
          "velocity": 0.5511811023622047
        },
        {
          "duration": 0.07446810000001847,
          "durationTicks": 14,
          "midi": 66,
          "name": "F#4",
          "ticks": 44880,
          "time": 238.723452,
          "velocity": 0.23622047244094488
        }
      ],
      "endOfTrackTicks": 44894
    },
    {
      "channel": 3,
      "controlChanges": {
        "7": [
          {
            "number": 7,
            "ticks": 0,
            "time": 0,
            "value": 0.9291338582677166
          }
        ]
      },
      "pitchBends": [],
      "instrument": {
        "family": "ensemble",
        "name": "synthstrings 1",
        "number": 50
      },
      "name": "Synth strings",
      "notes": [
        {
          "duration": 1.0585108499999976,
          "durationTicks": 199,
          "midi": 83,
          "name": "B5",
          "ticks": 10560,
          "time": 56.170224000000005,
          "velocity": 0.6299212598425197
        },
        {
          "duration": 0.3882979500000019,
          "durationTicks": 73,
          "midi": 81,
          "name": "A5",
          "ticks": 10730,
          "time": 57.0744795,
          "velocity": 0.6299212598425197
        },
        {
          "duration": 0.6276597000000024,
          "durationTicks": 118,
          "midi": 78,
          "name": "F#5",
          "ticks": 10790,
          "time": 57.393628500000005,
          "velocity": 0.6299212598425197
        },
        {
          "duration": 0.3404256000000032,
          "durationTicks": 64,
          "midi": 76,
          "name": "E5",
          "ticks": 10910,
          "time": 58.031926500000004,
          "velocity": 0.6299212598425197
        },
        {
          "duration": 2.9202133499999903,
          "durationTicks": 549,
          "midi": 78,
          "name": "F#5",
          "ticks": 10970,
          "time": 58.35107550000001,
          "velocity": 0.6299212598425197
        },
        {
          "duration": 1.0585108499999976,
          "durationTicks": 199,
          "midi": 83,
          "name": "B5",
          "ticks": 11520,
          "time": 61.276608,
          "velocity": 0.6299212598425197
        },
        {
          "duration": 0.3882979500000019,
          "durationTicks": 73,
          "midi": 81,
          "name": "A5",
          "ticks": 11690,
          "time": 62.18086350000001,
          "velocity": 0.6299212598425197
        },
        {
          "duration": 0.6276597000000024,
          "durationTicks": 118,
          "midi": 78,
          "name": "F#5",
          "ticks": 11750,
          "time": 62.500012500000004,
          "velocity": 0.6299212598425197
        },
        {
          "duration": 0.3404256000000032,
          "durationTicks": 64,
          "midi": 76,
          "name": "E5",
          "ticks": 11870,
          "time": 63.1383105,
          "velocity": 0.6299212598425197
        },
        {
          "duration": 2.9202133499999903,
          "durationTicks": 549,
          "midi": 78,
          "name": "F#5",
          "ticks": 11930,
          "time": 63.457459500000006,
          "velocity": 0.6299212598425197
        },
        {
          "duration": 1.0585108499999905,
          "durationTicks": 199,
          "midi": 83,
          "name": "B5",
          "ticks": 18240,
          "time": 97.021296,
          "velocity": 0.6299212598425197
        },
        {
          "duration": 0.388297950000009,
          "durationTicks": 73,
          "midi": 81,
          "name": "A5",
          "ticks": 18410,
          "time": 97.9255515,
          "velocity": 0.6299212598425197
        },
        {
          "duration": 0.6276597000000095,
          "durationTicks": 118,
          "midi": 78,
          "name": "F#5",
          "ticks": 18470,
          "time": 98.2447005,
          "velocity": 0.6299212598425197
        },
        {
          "duration": 0.3404256000000032,
          "durationTicks": 64,
          "midi": 76,
          "name": "E5",
          "ticks": 18590,
          "time": 98.8829985,
          "velocity": 0.6299212598425197
        },
        {
          "duration": 2.9202133500000116,
          "durationTicks": 549,
          "midi": 78,
          "name": "F#5",
          "ticks": 18650,
          "time": 99.2021475,
          "velocity": 0.6299212598425197
        },
        {
          "duration": 1.0585108500000047,
          "durationTicks": 199,
          "midi": 83,
          "name": "B5",
          "ticks": 19200,
          "time": 102.12768,
          "velocity": 0.6299212598425197
        },
        {
          "duration": 0.388297950000009,
          "durationTicks": 73,
          "midi": 81,
          "name": "A5",
          "ticks": 19370,
          "time": 103.0319355,
          "velocity": 0.6299212598425197
        },
        {
          "duration": 0.6276597000000095,
          "durationTicks": 118,
          "midi": 78,
          "name": "F#5",
          "ticks": 19430,
          "time": 103.3510845,
          "velocity": 0.6299212598425197
        },
        {
          "duration": 0.340425599999989,
          "durationTicks": 64,
          "midi": 76,
          "name": "E5",
          "ticks": 19550,
          "time": 103.9893825,
          "velocity": 0.6299212598425197
        },
        {
          "duration": 2.9202133500000116,
          "durationTicks": 549,
          "midi": 78,
          "name": "F#5",
          "ticks": 19610,
          "time": 104.3085315,
          "velocity": 0.6299212598425197
        },
        {
          "duration": 1.2712768500000209,
          "durationTicks": 239,
          "midi": 86,
          "name": "D6",
          "ticks": 27840,
          "time": 148.085136,
          "velocity": 0.6299212598425197
        },
        {
          "duration": 1.9148940000000039,
          "durationTicks": 360,
          "midi": 85,
          "name": "C#6",
          "ticks": 28080,
          "time": 149.36173200000002,
          "velocity": 0.6299212598425197
        },
        {
          "duration": 0.31382984999999053,
          "durationTicks": 59,
          "midi": 86,
          "name": "D6",
          "ticks": 28440,
          "time": 151.27662600000002,
          "velocity": 0.6299212598425197
        },
        {
          "duration": 0.39361710000000016,
          "durationTicks": 74,
          "midi": 88,
          "name": "E6",
          "ticks": 28490,
          "time": 151.5425835,
          "velocity": 0.6299212598425197
        },
        {
          "duration": 1.962766350000038,
          "durationTicks": 369,
          "midi": 86,
          "name": "D6",
          "ticks": 28550,
          "time": 151.8617325,
          "velocity": 0.6299212598425197
        },
        {
          "duration": 0.28723409999997784,
          "durationTicks": 54,
          "midi": 88,
          "name": "E6",
          "ticks": 28920,
          "time": 153.82981800000002,
          "velocity": 0.6299212598425197
        },
        {
          "duration": 0.3670213499999875,
          "durationTicks": 69,
          "midi": 90,
          "name": "F#6",
          "ticks": 28980,
          "time": 154.148967,
          "velocity": 0.6299212598425197
        },
        {
          "duration": 1.9627663499999812,
          "durationTicks": 369,
          "midi": 88,
          "name": "E6",
          "ticks": 29040,
          "time": 154.468116,
          "velocity": 0.6299212598425197
        },
        {
          "duration": 0.3244681500000013,
          "durationTicks": 61,
          "midi": 90,
          "name": "F#6",
          "ticks": 29400,
          "time": 156.38301,
          "velocity": 0.6299212598425197
        },
        {
          "duration": 0.3404256000000032,
          "durationTicks": 64,
          "midi": 93,
          "name": "A6",
          "ticks": 29454,
          "time": 156.6702441,
          "velocity": 0.6299212598425197
        },
        {
          "duration": 1.3244683499999894,
          "durationTicks": 249,
          "midi": 90,
          "name": "F#6",
          "ticks": 29515,
          "time": 156.99471225000002,
          "velocity": 0.6299212598425197
        }
      ],
      "endOfTrackTicks": 29764
    },
    {
      "channel": 4,
      "controlChanges": {
        "1": [
          {
            "number": 1,
            "ticks": 0,
            "time": 0,
            "value": 0.8188976377952756
          }
        ],
        "7": [
          {
            "number": 7,
            "ticks": 0,
            "time": 0,
            "value": 0.6299212598425197
          }
        ],
        "64": [
          {
            "number": 64,
            "ticks": 0,
            "time": 0,
            "value": 0.5511811023622047
          }
        ]
      },
      "pitchBends": [],
      "instrument": {
        "family": "guitar",
        "name": "electric guitar (jazz)",
        "number": 26
      },
      "name": "Jazz guitar",
      "notes": [
        {
          "duration": 0.6329788500000001,
          "durationTicks": 119,
          "midi": 66,
          "name": "F#4",
          "ticks": 0,
          "time": 0,
          "velocity": 0.6299212598425197
        },
        {
          "duration": 0.63297885,
          "durationTicks": 119,
          "midi": 64,
          "name": "E4",
          "ticks": 240,
          "time": 1.276596,
          "velocity": 0.6299212598425197
        },
        {
          "duration": 0.6329788500000002,
          "durationTicks": 119,
          "midi": 66,
          "name": "F#4",
          "ticks": 720,
          "time": 3.829788,
          "velocity": 0.6299212598425197
        },
        {
          "duration": 0.6329788500000006,
          "durationTicks": 119,
          "midi": 66,
          "name": "F#4",
          "ticks": 960,
          "time": 5.106384,
          "velocity": 0.6299212598425197
        },
        {
          "duration": 0.6329788500000006,
          "durationTicks": 119,
          "midi": 64,
          "name": "E4",
          "ticks": 1200,
          "time": 6.38298,
          "velocity": 0.6299212598425197
        },
        {
          "duration": 0.6329788500000006,
          "durationTicks": 119,
          "midi": 66,
          "name": "F#4",
          "ticks": 1680,
          "time": 8.936172000000001,
          "velocity": 0.6299212598425197
        },
        {
          "duration": 0.6329788500000006,
          "durationTicks": 119,
          "midi": 66,
          "name": "F#4",
          "ticks": 1920,
          "time": 10.212768,
          "velocity": 0.6299212598425197
        },
        {
          "duration": 0.6329788500000006,
          "durationTicks": 119,
          "midi": 64,
          "name": "E4",
          "ticks": 2160,
          "time": 11.489364,
          "velocity": 0.6299212598425197
        },
        {
          "duration": 0.6329788500000006,
          "durationTicks": 119,
          "midi": 66,
          "name": "F#4",
          "ticks": 2640,
          "time": 14.042556000000001,
          "velocity": 0.6299212598425197
        },
        {
          "duration": 0.6329788500000006,
          "durationTicks": 119,
          "midi": 66,
          "name": "F#4",
          "ticks": 2880,
          "time": 15.319152,
          "velocity": 0.6299212598425197
        },
        {
          "duration": 0.6329788500000006,
          "durationTicks": 119,
          "midi": 64,
          "name": "E4",
          "ticks": 3120,
          "time": 16.595748,
          "velocity": 0.6299212598425197
        },
        {
          "duration": 0.6329788500000006,
          "durationTicks": 119,
          "midi": 66,
          "name": "F#4",
          "ticks": 3600,
          "time": 19.14894,
          "velocity": 0.6299212598425197
        },
        {
          "duration": 0.6329788500000006,
          "durationTicks": 119,
          "midi": 66,
          "name": "F#4",
          "ticks": 3840,
          "time": 20.425536,
          "velocity": 0.6299212598425197
        },
        {
          "duration": 0.6329788500000006,
          "durationTicks": 119,
          "midi": 64,
          "name": "E4",
          "ticks": 4080,
          "time": 21.702132000000002,
          "velocity": 0.6299212598425197
        },
        {
          "duration": 0.6329788500000006,
          "durationTicks": 119,
          "midi": 66,
          "name": "F#4",
          "ticks": 4560,
          "time": 24.255324,
          "velocity": 0.6299212598425197
        },
        {
          "duration": 0.6329788500000006,
          "durationTicks": 119,
          "midi": 66,
          "name": "F#4",
          "ticks": 4800,
          "time": 25.53192,
          "velocity": 0.6299212598425197
        },
        {
          "duration": 0.6329788500000006,
          "durationTicks": 119,
          "midi": 64,
          "name": "E4",
          "ticks": 5040,
          "time": 26.808516,
          "velocity": 0.6299212598425197
        },
        {
          "duration": 0.6329788500000006,
          "durationTicks": 119,
          "midi": 66,
          "name": "F#4",
          "ticks": 5520,
          "time": 29.361708,
          "velocity": 0.6299212598425197
        },
        {
          "duration": 0.6329788500000006,
          "durationTicks": 119,
          "midi": 66,
          "name": "F#4",
          "ticks": 5760,
          "time": 30.638304,
          "velocity": 0.6299212598425197
        },
        {
          "duration": 0.6329788500000006,
          "durationTicks": 119,
          "midi": 64,
          "name": "E4",
          "ticks": 6000,
          "time": 31.914900000000003,
          "velocity": 0.6299212598425197
        },
        {
          "duration": 0.6329788500000006,
          "durationTicks": 119,
          "midi": 66,
          "name": "F#4",
          "ticks": 6480,
          "time": 34.468092,
          "velocity": 0.6299212598425197
        },
        {
          "duration": 0.6329788500000006,
          "durationTicks": 119,
          "midi": 66,
          "name": "F#4",
          "ticks": 6720,
          "time": 35.744688000000004,
          "velocity": 0.6299212598425197
        },
        {
          "duration": 0.6329788500000006,
          "durationTicks": 119,
          "midi": 64,
          "name": "E4",
          "ticks": 6960,
          "time": 37.021284,
          "velocity": 0.6299212598425197
        },
        {
          "duration": 0.6329788500000006,
          "durationTicks": 119,
          "midi": 66,
          "name": "F#4",
          "ticks": 7440,
          "time": 39.574476000000004,
          "velocity": 0.6299212598425197
        },
        {
          "duration": 0.6329788499999935,
          "durationTicks": 119,
          "midi": 66,
          "name": "F#4",
          "ticks": 7680,
          "time": 40.851072,
          "velocity": 0.6299212598425197
        },
        {
          "duration": 0.6329788500000006,
          "durationTicks": 119,
          "midi": 64,
          "name": "E4",
          "ticks": 7920,
          "time": 42.127668,
          "velocity": 0.6299212598425197
        },
        {
          "duration": 0.6329788499999935,
          "durationTicks": 119,
          "midi": 66,
          "name": "F#4",
          "ticks": 8400,
          "time": 44.68086,
          "velocity": 0.6299212598425197
        },
        {
          "duration": 0.6329788500000006,
          "durationTicks": 119,
          "midi": 66,
          "name": "F#4",
          "ticks": 8640,
          "time": 45.957456,
          "velocity": 0.6299212598425197
        },
        {
          "duration": 0.6329788499999935,
          "durationTicks": 119,
          "midi": 64,
          "name": "E4",
          "ticks": 8880,
          "time": 47.234052000000005,
          "velocity": 0.6299212598425197
        },
        {
          "duration": 0.6329788500000006,
          "durationTicks": 119,
          "midi": 66,
          "name": "F#4",
          "ticks": 9360,
          "time": 49.787244,
          "velocity": 0.6299212598425197
        },
        {
          "duration": 0.6329788500000006,
          "durationTicks": 119,
          "midi": 66,
          "name": "F#4",
          "ticks": 9600,
          "time": 51.06384,
          "velocity": 0.6299212598425197
        },
        {
          "duration": 0.6329788499999935,
          "durationTicks": 119,
          "midi": 64,
          "name": "E4",
          "ticks": 9840,
          "time": 52.340436000000004,
          "velocity": 0.6299212598425197
        },
        {
          "duration": 0.6329788500000006,
          "durationTicks": 119,
          "midi": 66,
          "name": "F#4",
          "ticks": 10320,
          "time": 54.893628,
          "velocity": 0.6299212598425197
        },
        {
          "duration": 0.6329788499999935,
          "durationTicks": 119,
          "midi": 66,
          "name": "F#4",
          "ticks": 10560,
          "time": 56.170224000000005,
          "velocity": 0.6299212598425197
        },
        {
          "duration": 0.6329788499999935,
          "durationTicks": 119,
          "midi": 64,
          "name": "E4",
          "ticks": 10800,
          "time": 57.44682,
          "velocity": 0.6299212598425197
        },
        {
          "duration": 0.6329788499999935,
          "durationTicks": 119,
          "midi": 66,
          "name": "F#4",
          "ticks": 11280,
          "time": 60.000012000000005,
          "velocity": 0.6299212598425197
        },
        {
          "duration": 0.6329788499999935,
          "durationTicks": 119,
          "midi": 66,
          "name": "F#4",
          "ticks": 11520,
          "time": 61.276608,
          "velocity": 0.6299212598425197
        },
        {
          "duration": 0.6329788500000006,
          "durationTicks": 119,
          "midi": 64,
          "name": "E4",
          "ticks": 11760,
          "time": 62.553204,
          "velocity": 0.6299212598425197
        },
        {
          "duration": 0.6329788500000006,
          "durationTicks": 119,
          "midi": 66,
          "name": "F#4",
          "ticks": 12240,
          "time": 65.106396,
          "velocity": 0.6299212598425197
        },
        {
          "duration": 0.6329788500000006,
          "durationTicks": 119,
          "midi": 66,
          "name": "F#4",
          "ticks": 12480,
          "time": 66.382992,
          "velocity": 0.6299212598425197
        },
        {
          "duration": 0.6329788500000006,
          "durationTicks": 119,
          "midi": 64,
          "name": "E4",
          "ticks": 12720,
          "time": 67.659588,
          "velocity": 0.6299212598425197
        },
        {
          "duration": 0.6329788499999864,
          "durationTicks": 119,
          "midi": 66,
          "name": "F#4",
          "ticks": 13200,
          "time": 70.21278000000001,
          "velocity": 0.6299212598425197
        },
        {
          "duration": 0.6329788499999864,
          "durationTicks": 119,
          "midi": 66,
          "name": "F#4",
          "ticks": 13440,
          "time": 71.48937600000001,
          "velocity": 0.6299212598425197
        },
        {
          "duration": 0.6329788500000006,
          "durationTicks": 119,
          "midi": 64,
          "name": "E4",
          "ticks": 13680,
          "time": 72.765972,
          "velocity": 0.6299212598425197
        },
        {
          "duration": 0.6329788500000006,
          "durationTicks": 119,
          "midi": 66,
          "name": "F#4",
          "ticks": 14160,
          "time": 75.319164,
          "velocity": 0.6299212598425197
        },
        {
          "duration": 0.6329788500000006,
          "durationTicks": 119,
          "midi": 66,
          "name": "F#4",
          "ticks": 14400,
          "time": 76.59576,
          "velocity": 0.6299212598425197
        },
        {
          "duration": 0.6329788499999864,
          "durationTicks": 119,
          "midi": 64,
          "name": "E4",
          "ticks": 14640,
          "time": 77.87235600000001,
          "velocity": 0.6299212598425197
        },
        {
          "duration": 0.6329788500000006,
          "durationTicks": 119,
          "midi": 66,
          "name": "F#4",
          "ticks": 15120,
          "time": 80.425548,
          "velocity": 0.6299212598425197
        },
        {
          "duration": 0.6329788500000006,
          "durationTicks": 119,
          "midi": 66,
          "name": "F#4",
          "ticks": 15360,
          "time": 81.702144,
          "velocity": 0.6299212598425197
        },
        {
          "duration": 0.6329788500000006,
          "durationTicks": 119,
          "midi": 64,
          "name": "E4",
          "ticks": 15600,
          "time": 82.97874,
          "velocity": 0.6299212598425197
        },
        {
          "duration": 0.6329788500000149,
          "durationTicks": 119,
          "midi": 66,
          "name": "F#4",
          "ticks": 16080,
          "time": 85.531932,
          "velocity": 0.6299212598425197
        },
        {
          "duration": 0.6329788500000006,
          "durationTicks": 119,
          "midi": 66,
          "name": "F#4",
          "ticks": 16320,
          "time": 86.80852800000001,
          "velocity": 0.6299212598425197
        },
        {
          "duration": 0.6329788500000006,
          "durationTicks": 119,
          "midi": 64,
          "name": "E4",
          "ticks": 16560,
          "time": 88.08512400000001,
          "velocity": 0.6299212598425197
        },
        {
          "duration": 0.6329788500000006,
          "durationTicks": 119,
          "midi": 66,
          "name": "F#4",
          "ticks": 17040,
          "time": 90.638316,
          "velocity": 0.6299212598425197
        },
        {
          "duration": 0.6329788500000149,
          "durationTicks": 119,
          "midi": 66,
          "name": "F#4",
          "ticks": 17280,
          "time": 91.914912,
          "velocity": 0.6299212598425197
        },
        {
          "duration": 0.6329788500000149,
          "durationTicks": 119,
          "midi": 64,
          "name": "E4",
          "ticks": 17520,
          "time": 93.191508,
          "velocity": 0.6299212598425197
        },
        {
          "duration": 0.6329788500000006,
          "durationTicks": 119,
          "midi": 66,
          "name": "F#4",
          "ticks": 18000,
          "time": 95.74470000000001,
          "velocity": 0.6299212598425197
        },
        {
          "duration": 0.6329788500000006,
          "durationTicks": 119,
          "midi": 66,
          "name": "F#4",
          "ticks": 18240,
          "time": 97.021296,
          "velocity": 0.6299212598425197
        },
        {
          "duration": 0.6329788500000006,
          "durationTicks": 119,
          "midi": 64,
          "name": "E4",
          "ticks": 18480,
          "time": 98.297892,
          "velocity": 0.6299212598425197
        },
        {
          "duration": 0.6329788500000149,
          "durationTicks": 119,
          "midi": 66,
          "name": "F#4",
          "ticks": 18960,
          "time": 100.851084,
          "velocity": 0.6299212598425197
        },
        {
          "duration": 0.6329788500000149,
          "durationTicks": 119,
          "midi": 66,
          "name": "F#4",
          "ticks": 19200,
          "time": 102.12768,
          "velocity": 0.6299212598425197
        },
        {
          "duration": 0.6329788500000006,
          "durationTicks": 119,
          "midi": 64,
          "name": "E4",
          "ticks": 19440,
          "time": 103.40427600000001,
          "velocity": 0.6299212598425197
        },
        {
          "duration": 0.6329788500000006,
          "durationTicks": 119,
          "midi": 66,
          "name": "F#4",
          "ticks": 19920,
          "time": 105.957468,
          "velocity": 0.6299212598425197
        },
        {
          "duration": 0.6329788500000006,
          "durationTicks": 119,
          "midi": 66,
          "name": "F#4",
          "ticks": 20160,
          "time": 107.234064,
          "velocity": 0.6299212598425197
        },
        {
          "duration": 0.6329788500000149,
          "durationTicks": 119,
          "midi": 64,
          "name": "E4",
          "ticks": 20400,
          "time": 108.51066,
          "velocity": 0.6299212598425197
        },
        {
          "duration": 0.6329788500000006,
          "durationTicks": 119,
          "midi": 66,
          "name": "F#4",
          "ticks": 20880,
          "time": 111.06385200000001,
          "velocity": 0.6299212598425197
        },
        {
          "duration": 0.6329788500000006,
          "durationTicks": 119,
          "midi": 66,
          "name": "F#4",
          "ticks": 21120,
          "time": 112.34044800000001,
          "velocity": 0.6299212598425197
        },
        {
          "duration": 0.6329788500000006,
          "durationTicks": 119,
          "midi": 64,
          "name": "E4",
          "ticks": 21360,
          "time": 113.617044,
          "velocity": 0.6299212598425197
        },
        {
          "duration": 0.6329788500000149,
          "durationTicks": 119,
          "midi": 66,
          "name": "F#4",
          "ticks": 21840,
          "time": 116.170236,
          "velocity": 0.6299212598425197
        },
        {
          "duration": 0.6329788500000149,
          "durationTicks": 119,
          "midi": 66,
          "name": "F#4",
          "ticks": 22080,
          "time": 117.446832,
          "velocity": 0.6299212598425197
        },
        {
          "duration": 0.6329788500000006,
          "durationTicks": 119,
          "midi": 64,
          "name": "E4",
          "ticks": 22320,
          "time": 118.72342800000001,
          "velocity": 0.6299212598425197
        },
        {
          "duration": 0.6329788500000006,
          "durationTicks": 119,
          "midi": 66,
          "name": "F#4",
          "ticks": 22800,
          "time": 121.27662000000001,
          "velocity": 0.6299212598425197
        },
        {
          "duration": 0.6329788500000006,
          "durationTicks": 119,
          "midi": 66,
          "name": "F#4",
          "ticks": 23040,
          "time": 122.553216,
          "velocity": 0.6299212598425197
        },
        {
          "duration": 0.6329788500000006,
          "durationTicks": 119,
          "midi": 64,
          "name": "E4",
          "ticks": 23280,
          "time": 123.829812,
          "velocity": 0.6299212598425197
        },
        {
          "duration": 0.6329788500000149,
          "durationTicks": 119,
          "midi": 66,
          "name": "F#4",
          "ticks": 23760,
          "time": 126.383004,
          "velocity": 0.6299212598425197
        },
        {
          "duration": 0.6329788500000006,
          "durationTicks": 119,
          "midi": 66,
          "name": "F#4",
          "ticks": 24000,
          "time": 127.65960000000001,
          "velocity": 0.6299212598425197
        },
        {
          "duration": 0.6329788500000291,
          "durationTicks": 119,
          "midi": 64,
          "name": "E4",
          "ticks": 24240,
          "time": 128.936196,
          "velocity": 0.6299212598425197
        },
        {
          "duration": 0.6329788500000006,
          "durationTicks": 119,
          "midi": 66,
          "name": "F#4",
          "ticks": 24720,
          "time": 131.48938800000002,
          "velocity": 0.6299212598425197
        },
        {
          "duration": 0.6329788500000006,
          "durationTicks": 119,
          "midi": 66,
          "name": "F#4",
          "ticks": 24960,
          "time": 132.765984,
          "velocity": 0.6299212598425197
        },
        {
          "duration": 0.6329788500000006,
          "durationTicks": 119,
          "midi": 64,
          "name": "E4",
          "ticks": 25200,
          "time": 134.04258000000002,
          "velocity": 0.6299212598425197
        },
        {
          "duration": 0.6329788500000006,
          "durationTicks": 119,
          "midi": 66,
          "name": "F#4",
          "ticks": 25680,
          "time": 136.595772,
          "velocity": 0.6299212598425197
        },
        {
          "duration": 0.6329788500000291,
          "durationTicks": 119,
          "midi": 66,
          "name": "F#4",
          "ticks": 25920,
          "time": 137.872368,
          "velocity": 0.6299212598425197
        },
        {
          "duration": 0.6329788500000006,
          "durationTicks": 119,
          "midi": 64,
          "name": "E4",
          "ticks": 26160,
          "time": 139.148964,
          "velocity": 0.6299212598425197
        },
        {
          "duration": 0.6329788500000006,
          "durationTicks": 119,
          "midi": 66,
          "name": "F#4",
          "ticks": 26640,
          "time": 141.702156,
          "velocity": 0.6299212598425197
        },
        {
          "duration": 0.6329788500000006,
          "durationTicks": 119,
          "midi": 66,
          "name": "F#4",
          "ticks": 26880,
          "time": 142.97875200000001,
          "velocity": 0.6299212598425197
        },
        {
          "duration": 0.6329788500000006,
          "durationTicks": 119,
          "midi": 64,
          "name": "E4",
          "ticks": 27120,
          "time": 144.255348,
          "velocity": 0.6299212598425197
        },
        {
          "duration": 0.6329788500000291,
          "durationTicks": 119,
          "midi": 66,
          "name": "F#4",
          "ticks": 27600,
          "time": 146.80854,
          "velocity": 0.6299212598425197
        },
        {
          "duration": 0.6329788500000006,
          "durationTicks": 119,
          "midi": 66,
          "name": "F#4",
          "ticks": 27840,
          "time": 148.085136,
          "velocity": 0.6299212598425197
        },
        {
          "duration": 0.6329788500000006,
          "durationTicks": 119,
          "midi": 64,
          "name": "E4",
          "ticks": 28080,
          "time": 149.36173200000002,
          "velocity": 0.6299212598425197
        },
        {
          "duration": 0.6329788500000006,
          "durationTicks": 119,
          "midi": 66,
          "name": "F#4",
          "ticks": 28560,
          "time": 151.914924,
          "velocity": 0.6299212598425197
        },
        {
          "duration": 0.6329788500000291,
          "durationTicks": 119,
          "midi": 66,
          "name": "F#4",
          "ticks": 28800,
          "time": 153.19152,
          "velocity": 0.6299212598425197
        },
        {
          "duration": 0.6329788500000006,
          "durationTicks": 119,
          "midi": 64,
          "name": "E4",
          "ticks": 29040,
          "time": 154.468116,
          "velocity": 0.6299212598425197
        },
        {
          "duration": 0.6329788500000006,
          "durationTicks": 119,
          "midi": 66,
          "name": "F#4",
          "ticks": 29520,
          "time": 157.021308,
          "velocity": 0.6299212598425197
        },
        {
          "duration": 0.6329788500000006,
          "durationTicks": 119,
          "midi": 66,
          "name": "F#4",
          "ticks": 29760,
          "time": 158.29790400000002,
          "velocity": 0.6299212598425197
        },
        {
          "duration": 0.6329788500000006,
          "durationTicks": 119,
          "midi": 64,
          "name": "E4",
          "ticks": 30000,
          "time": 159.5745,
          "velocity": 0.6299212598425197
        },
        {
          "duration": 0.6329788500000291,
          "durationTicks": 119,
          "midi": 66,
          "name": "F#4",
          "ticks": 30480,
          "time": 162.127692,
          "velocity": 0.6299212598425197
        },
        {
          "duration": 0.6329788500000006,
          "durationTicks": 119,
          "midi": 66,
          "name": "F#4",
          "ticks": 30720,
          "time": 163.404288,
          "velocity": 0.6299212598425197
        },
        {
          "duration": 0.6329788500000006,
          "durationTicks": 119,
          "midi": 64,
          "name": "E4",
          "ticks": 30960,
          "time": 164.68088400000002,
          "velocity": 0.6299212598425197
        },
        {
          "duration": 0.6329788500000006,
          "durationTicks": 119,
          "midi": 66,
          "name": "F#4",
          "ticks": 31440,
          "time": 167.23407600000002,
          "velocity": 0.6299212598425197
        },
        {
          "duration": 0.6329788500000006,
          "durationTicks": 119,
          "midi": 66,
          "name": "F#4",
          "ticks": 31680,
          "time": 168.510672,
          "velocity": 0.6299212598425197
        },
        {
          "duration": 0.6329788500000006,
          "durationTicks": 119,
          "midi": 64,
          "name": "E4",
          "ticks": 31920,
          "time": 169.787268,
          "velocity": 0.6299212598425197
        },
        {
          "duration": 0.6329788500000006,
          "durationTicks": 119,
          "midi": 66,
          "name": "F#4",
          "ticks": 32400,
          "time": 172.34046,
          "velocity": 0.6299212598425197
        },
        {
          "duration": 0.6329788500000006,
          "durationTicks": 119,
          "midi": 66,
          "name": "F#4",
          "ticks": 32640,
          "time": 173.61705600000002,
          "velocity": 0.6299212598425197
        },
        {
          "duration": 0.6329788500000006,
          "durationTicks": 119,
          "midi": 64,
          "name": "E4",
          "ticks": 32880,
          "time": 174.893652,
          "velocity": 0.6299212598425197
        },
        {
          "duration": 0.6329788500000291,
          "durationTicks": 119,
          "midi": 66,
          "name": "F#4",
          "ticks": 33360,
          "time": 177.446844,
          "velocity": 0.6299212598425197
        },
        {
          "duration": 0.6329788500000006,
          "durationTicks": 119,
          "midi": 66,
          "name": "F#4",
          "ticks": 33600,
          "time": 178.72344,
          "velocity": 0.6299212598425197
        },
        {
          "duration": 0.6329788500000006,
          "durationTicks": 119,
          "midi": 64,
          "name": "E4",
          "ticks": 33840,
          "time": 180.00003600000002,
          "velocity": 0.6299212598425197
        },
        {
          "duration": 0.6329788500000006,
          "durationTicks": 119,
          "midi": 66,
          "name": "F#4",
          "ticks": 34320,
          "time": 182.55322800000002,
          "velocity": 0.6299212598425197
        },
        {
          "duration": 0.6329788500000006,
          "durationTicks": 119,
          "midi": 66,
          "name": "F#4",
          "ticks": 34560,
          "time": 183.829824,
          "velocity": 0.6299212598425197
        },
        {
          "duration": 0.6329788500000006,
          "durationTicks": 119,
          "midi": 64,
          "name": "E4",
          "ticks": 34800,
          "time": 185.10642,
          "velocity": 0.6299212598425197
        },
        {
          "duration": 0.6329788500000006,
          "durationTicks": 119,
          "midi": 66,
          "name": "F#4",
          "ticks": 35280,
          "time": 187.659612,
          "velocity": 0.6299212598425197
        },
        {
          "duration": 0.6329788500000006,
          "durationTicks": 119,
          "midi": 66,
          "name": "F#4",
          "ticks": 35520,
          "time": 188.93620800000002,
          "velocity": 0.6299212598425197
        },
        {
          "duration": 0.6329788500000006,
          "durationTicks": 119,
          "midi": 64,
          "name": "E4",
          "ticks": 35760,
          "time": 190.212804,
          "velocity": 0.6299212598425197
        },
        {
          "duration": 0.6329788500000006,
          "durationTicks": 119,
          "midi": 66,
          "name": "F#4",
          "ticks": 36240,
          "time": 192.765996,
          "velocity": 0.6299212598425197
        },
        {
          "duration": 0.6329788500000006,
          "durationTicks": 119,
          "midi": 66,
          "name": "F#4",
          "ticks": 36480,
          "time": 194.042592,
          "velocity": 0.6299212598425197
        },
        {
          "duration": 0.6329788500000291,
          "durationTicks": 119,
          "midi": 64,
          "name": "E4",
          "ticks": 36720,
          "time": 195.319188,
          "velocity": 0.6299212598425197
        },
        {
          "duration": 0.6329788500000006,
          "durationTicks": 119,
          "midi": 66,
          "name": "F#4",
          "ticks": 37200,
          "time": 197.87238000000002,
          "velocity": 0.6299212598425197
        },
        {
          "duration": 0.6329788500000006,
          "durationTicks": 119,
          "midi": 66,
          "name": "F#4",
          "ticks": 37440,
          "time": 199.148976,
          "velocity": 0.6299212598425197
        },
        {
          "duration": 0.6329788500000006,
          "durationTicks": 119,
          "midi": 64,
          "name": "E4",
          "ticks": 37680,
          "time": 200.42557200000002,
          "velocity": 0.6299212598425197
        },
        {
          "duration": 0.6329788500000006,
          "durationTicks": 119,
          "midi": 66,
          "name": "F#4",
          "ticks": 38160,
          "time": 202.978764,
          "velocity": 0.6299212598425197
        },
        {
          "duration": 0.6329788500000291,
          "durationTicks": 119,
          "midi": 66,
          "name": "F#4",
          "ticks": 38400,
          "time": 204.25536,
          "velocity": 0.6299212598425197
        },
        {
          "duration": 0.6329788500000006,
          "durationTicks": 119,
          "midi": 64,
          "name": "E4",
          "ticks": 38640,
          "time": 205.531956,
          "velocity": 0.6299212598425197
        },
        {
          "duration": 0.6329788500000006,
          "durationTicks": 119,
          "midi": 66,
          "name": "F#4",
          "ticks": 39120,
          "time": 208.085148,
          "velocity": 0.6299212598425197
        },
        {
          "duration": 0.6329788500000006,
          "durationTicks": 119,
          "midi": 66,
          "name": "F#4",
          "ticks": 39360,
          "time": 209.36174400000002,
          "velocity": 0.6299212598425197
        },
        {
          "duration": 0.6329788500000291,
          "durationTicks": 119,
          "midi": 64,
          "name": "E4",
          "ticks": 39600,
          "time": 210.63834,
          "velocity": 0.6299212598425197
        },
        {
          "duration": 0.6329788500000006,
          "durationTicks": 119,
          "midi": 66,
          "name": "F#4",
          "ticks": 40080,
          "time": 213.19153200000002,
          "velocity": 0.6299212598425197
        },
        {
          "duration": 0.6329788500000006,
          "durationTicks": 119,
          "midi": 66,
          "name": "F#4",
          "ticks": 40320,
          "time": 214.468128,
          "velocity": 0.6299212598425197
        },
        {
          "duration": 0.6329788500000006,
          "durationTicks": 119,
          "midi": 64,
          "name": "E4",
          "ticks": 40560,
          "time": 215.74472400000002,
          "velocity": 0.6299212598425197
        },
        {
          "duration": 0.6329788500000006,
          "durationTicks": 119,
          "midi": 66,
          "name": "F#4",
          "ticks": 41040,
          "time": 218.29791600000001,
          "velocity": 0.6299212598425197
        },
        {
          "duration": 0.6329788500000291,
          "durationTicks": 119,
          "midi": 66,
          "name": "F#4",
          "ticks": 41280,
          "time": 219.574512,
          "velocity": 0.6299212598425197
        },
        {
          "duration": 0.6329788500000006,
          "durationTicks": 119,
          "midi": 64,
          "name": "E4",
          "ticks": 41520,
          "time": 220.851108,
          "velocity": 0.6299212598425197
        },
        {
          "duration": 0.6329788500000006,
          "durationTicks": 119,
          "midi": 66,
          "name": "F#4",
          "ticks": 42000,
          "time": 223.4043,
          "velocity": 0.6299212598425197
        },
        {
          "duration": 0.6329788500000006,
          "durationTicks": 119,
          "midi": 66,
          "name": "F#4",
          "ticks": 42240,
          "time": 224.68089600000002,
          "velocity": 0.6299212598425197
        },
        {
          "duration": 0.6329788500000006,
          "durationTicks": 119,
          "midi": 64,
          "name": "E4",
          "ticks": 42480,
          "time": 225.957492,
          "velocity": 0.6299212598425197
        },
        {
          "duration": 0.6329788500000291,
          "durationTicks": 119,
          "midi": 66,
          "name": "F#4",
          "ticks": 42960,
          "time": 228.510684,
          "velocity": 0.6299212598425197
        },
        {
          "duration": 0.6329788500000006,
          "durationTicks": 119,
          "midi": 66,
          "name": "F#4",
          "ticks": 43200,
          "time": 229.78728,
          "velocity": 0.6299212598425197
        },
        {
          "duration": 0.6329788500000006,
          "durationTicks": 119,
          "midi": 64,
          "name": "E4",
          "ticks": 43440,
          "time": 231.06387600000002,
          "velocity": 0.6299212598425197
        },
        {
          "duration": 0.6329788500000006,
          "durationTicks": 119,
          "midi": 66,
          "name": "F#4",
          "ticks": 43920,
          "time": 233.61706800000002,
          "velocity": 0.6299212598425197
        },
        {
          "duration": 0.6329788500000291,
          "durationTicks": 119,
          "midi": 66,
          "name": "F#4",
          "ticks": 44160,
          "time": 234.893664,
          "velocity": 0.6299212598425197
        },
        {
          "duration": 0.6329788500000006,
          "durationTicks": 119,
          "midi": 64,
          "name": "E4",
          "ticks": 44400,
          "time": 236.17026,
          "velocity": 0.6299212598425197
        },
        {
          "duration": 0.6329788500000006,
          "durationTicks": 119,
          "midi": 66,
          "name": "F#4",
          "ticks": 44880,
          "time": 238.723452,
          "velocity": 0.6299212598425197
        }
      ],
      "endOfTrackTicks": 44999
    },
    {
      "channel": 0,
      "controlChanges": {},
      "pitchBends": [],
      "instrument": {
        "family": "piano",
        "name": "acoustic grand piano",
        "number": 0
      },
      "name": "\"Nuthin' But A 'G'",
      "notes": [],
      "endOfTrackTicks": 0
    },
    {
      "channel": 0,
      "controlChanges": {},
      "pitchBends": [],
      "instrument": {
        "family": "piano",
        "name": "acoustic grand piano",
        "number": 0
      },
      "name": " Thang\"",
      "notes": [],
      "endOfTrackTicks": 0
    },
    {
      "channel": 0,
      "controlChanges": {},
      "pitchBends": [],
      "instrument": {
        "family": "piano",
        "name": "acoustic grand piano",
        "number": 0
      },
      "name": "-------------------------------",
      "notes": [],
      "endOfTrackTicks": 0
    },
    {
      "channel": 0,
      "controlChanges": {},
      "pitchBends": [],
      "instrument": {
        "family": "piano",
        "name": "acoustic grand piano",
        "number": 0
      },
      "name": "By Dr. Dre",
      "notes": [],
      "endOfTrackTicks": 0
    },
    {
      "channel": 0,
      "controlChanges": {},
      "pitchBends": [],
      "instrument": {
        "family": "piano",
        "name": "acoustic grand piano",
        "number": 0
      },
      "name": "-------------------------------",
      "notes": [],
      "endOfTrackTicks": 0
    },
    {
      "channel": 0,
      "controlChanges": {},
      "pitchBends": [],
      "instrument": {
        "family": "piano",
        "name": "acoustic grand piano",
        "number": 0
      },
      "name": "sequenced by",
      "notes": [],
      "endOfTrackTicks": 0
    },
    {
      "channel": 0,
      "controlChanges": {},
      "pitchBends": [],
      "instrument": {
        "family": "piano",
        "name": "acoustic grand piano",
        "number": 0
      },
      "name": "Chris Walters",
      "notes": [],
      "endOfTrackTicks": 0
    },
    {
      "channel": 0,
      "controlChanges": {},
      "pitchBends": [],
      "instrument": {
        "family": "piano",
        "name": "acoustic grand piano",
        "number": 0
      },
      "name": "cmw74@aol.com",
      "notes": [],
      "endOfTrackTicks": 0
    }
  ]
}