{
  "header": {
    "keySignatures": [
      {
        "key": "C",
        "scale": "major",
        "ticks": 0
      }
    ],
    "meta": [
      {
        "text": "Yingtsing Chao\n",
        "ticks": 0,
        "type": "text"
      }
    ],
    "name": "Ruff Ryder's Anthem",
    "ppq": 120,
    "tempos": [
      {
        "bpm": 89.9999550000225,
        "ticks": 0
      }
    ],
    "timeSignatures": [
      {
        "ticks": 0,
        "timeSignature": [
          4,
          4
        ],
        "measures": 0
      }
    ]
  },
  "tracks": [
    {
      "channel": 0,
      "controlChanges": {
        "7": [
          {
            "number": 7,
            "ticks": 0,
            "time": 0,
            "value": 0.7874015748031497
          }
        ]
      },
      "pitchBends": [],
      "instrument": {
        "family": "guitar",
        "name": "electric guitar (clean)",
        "number": 27
      },
      "name": "",
      "notes": [
        {
          "duration": 0.16666675,
          "durationTicks": 30,
          "midi": 58,
          "name": "A#3",
          "ticks": 0,
          "time": 0,
          "velocity": 0.7874015748031497
        },
        {
          "duration": 0.16666675,
          "durationTicks": 30,
          "midi": 58,
          "name": "A#3",
          "ticks": 30,
          "time": 0.16666675,
          "velocity": 0.7874015748031497
        },
        {
          "duration": 0.16666674999999997,
          "durationTicks": 30,
          "midi": 58,
          "name": "A#3",
          "ticks": 90,
          "time": 0.50000025,
          "velocity": 0.7874015748031497
        },
        {
          "duration": 0.16666674999999997,
          "durationTicks": 30,
          "midi": 63,
          "name": "D#4",
          "ticks": 120,
          "time": 0.666667,
          "velocity": 0.7874015748031497
        },
        {
          "duration": 0.16666674999999986,
          "durationTicks": 30,
          "midi": 63,
          "name": "D#4",
          "ticks": 180,
          "time": 1.0000005,
          "velocity": 0.7874015748031497
        },
        {
          "duration": 0.16666675000000009,
          "durationTicks": 30,
          "midi": 58,
          "name": "A#3",
          "ticks": 240,
          "time": 1.333334,
          "velocity": 0.7874015748031497
        },
        {
          "duration": 0.16666674999999986,
          "durationTicks": 30,
          "midi": 58,
          "name": "A#3",
          "ticks": 270,
          "time": 1.50000075,
          "velocity": 0.7874015748031497
        },
        {
          "duration": 0.16666675000000009,
          "durationTicks": 30,
          "midi": 58,
          "name": "A#3",
          "ticks": 330,
          "time": 1.83333425,
          "velocity": 0.7874015748031497
        },
        {
          "duration": 0.16666675000000009,
          "durationTicks": 30,
          "midi": 61,
          "name": "C#4",
          "ticks": 360,
          "time": 2.000001,
          "velocity": 0.7874015748031497
        },
        {
          "duration": 0.16666675000000009,
          "durationTicks": 30,
          "midi": 61,
          "name": "C#4",
          "ticks": 420,
          "time": 2.3333345,
          "velocity": 0.7874015748031497
        },
        {
          "duration": 0.33333350000000017,
          "durationTicks": 60,
          "midi": 58,
          "name": "A#3",
          "ticks": 480,
          "time": 2.666668,
          "velocity": 0.7874015748031497
        },
        {
          "duration": 0.16666675000000009,
          "durationTicks": 30,
          "midi": 58,
          "name": "A#3",
          "ticks": 570,
          "time": 3.16666825,
          "velocity": 0.7874015748031497
        },
        {
          "duration": 0.16666675000000009,
          "durationTicks": 30,
          "midi": 61,
          "name": "C#4",
          "ticks": 600,
          "time": 3.333335,
          "velocity": 0.7874015748031497
        },
        {
          "duration": 0.16666675000000009,
          "durationTicks": 30,
          "midi": 61,
          "name": "C#4",
          "ticks": 660,
          "time": 3.6666685,
          "velocity": 0.7874015748031497
        },
        {
          "duration": 0.33333350000000017,
          "durationTicks": 60,
          "midi": 58,
          "name": "A#3",
          "ticks": 720,
          "time": 4.000002,
          "velocity": 0.7874015748031497
        },
        {
          "duration": 0.3333334999999993,
          "durationTicks": 60,
          "midi": 61,
          "name": "C#4",
          "ticks": 780,
          "time": 4.3333355000000005,
          "velocity": 0.7874015748031497
        },
        {
          "duration": 0.33333350000000017,
          "durationTicks": 60,
          "midi": 58,
          "name": "A#3",
          "ticks": 840,
          "time": 4.666669,
          "velocity": 0.7874015748031497
        },
        {
          "duration": 0.33333350000000017,
          "durationTicks": 60,
          "midi": 61,
          "name": "C#4",
          "ticks": 900,
          "time": 5.0000025,
          "velocity": 0.7874015748031497
        },
        {
          "duration": 0.16666675000000009,
          "durationTicks": 30,
          "midi": 58,
          "name": "A#3",
          "ticks": 960,
          "time": 5.333336,
          "velocity": 0.7874015748031497
        },
        {
          "duration": 0.16666675000000009,
          "durationTicks": 30,
          "midi": 58,
          "name": "A#3",
          "ticks": 1050,
          "time": 5.83333625,
          "velocity": 0.7874015748031497
        },
        {
          "duration": 0.16666675000000009,
          "durationTicks": 30,
          "midi": 61,
          "name": "C#4",
          "ticks": 1080,
          "time": 6.000003,
          "velocity": 0.7874015748031497
        },
        {
          "duration": 0.16666675000000009,
          "durationTicks": 30,
          "midi": 61,
          "name": "C#4",
          "ticks": 1140,
          "time": 6.3333365,
          "velocity": 0.7874015748031497
        },
        {
          "duration": 0.16666675000000009,
          "durationTicks": 30,
          "midi": 56,
          "name": "G#3",
          "ticks": 1200,
          "time": 6.66667,
          "velocity": 0.7874015748031497
        },
        {
          "duration": 0.16666675000000009,
          "durationTicks": 30,
          "midi": 56,
          "name": "G#3",
          "ticks": 1260,
          "time": 7.0000035,
          "velocity": 0.7874015748031497
        },
        {
          "duration": 0.16666675000000009,
          "durationTicks": 30,
          "midi": 61,
          "name": "C#4",
          "ticks": 1320,
          "time": 7.333337,
          "velocity": 0.7874015748031497
        },
        {
          "duration": 0.16666675000000009,
          "durationTicks": 30,
          "midi": 61,
          "name": "C#4",
          "ticks": 1380,
          "time": 7.6666705,
          "velocity": 0.7874015748031497
        },
        {
          "duration": 0.1666667499999992,
          "durationTicks": 30,
          "midi": 58,
          "name": "A#3",
          "ticks": 1440,
          "time": 8.000004,
          "velocity": 0.7874015748031497
        },
        {
          "duration": 0.16666675000000097,
          "durationTicks": 30,
          "midi": 58,
          "name": "A#3",
          "ticks": 1530,
          "time": 8.50000425,
          "velocity": 0.7874015748031497
        },
        {
          "duration": 0.1666667499999992,
          "durationTicks": 30,
          "midi": 58,
          "name": "A#3",
          "ticks": 1560,
          "time": 8.666671000000001,
          "velocity": 0.7874015748031497
        },
        {
          "duration": 0.1666667499999992,
          "durationTicks": 30,
          "midi": 58,
          "name": "A#3",
          "ticks": 1650,
          "time": 9.16667125,
          "velocity": 0.7874015748031497
        },
        {
          "duration": 0.16666675000000097,
          "durationTicks": 30,
          "midi": 58,
          "name": "A#3",
          "ticks": 1680,
          "time": 9.333338,
          "velocity": 0.7874015748031497
        },
        {
          "duration": 0.1666667499999992,
          "durationTicks": 30,
          "midi": 58,
          "name": "A#3",
          "ticks": 1770,
          "time": 9.83333825,
          "velocity": 0.7874015748031497
        },
        {
          "duration": 0.16666675000000097,
          "durationTicks": 30,
          "midi": 58,
          "name": "A#3",
          "ticks": 1800,
          "time": 10.000005,
          "velocity": 0.7874015748031497
        },
        {
          "duration": 0.1666667499999992,
          "durationTicks": 30,
          "midi": 58,
          "name": "A#3",
          "ticks": 1920,
          "time": 10.666672,
          "velocity": 0.7874015748031497
        },
        {
          "duration": 0.16666675000000097,
          "durationTicks": 30,
          "midi": 58,
          "name": "A#3",
          "ticks": 1950,
          "time": 10.83333875,
          "velocity": 0.7874015748031497
        },
        {
          "duration": 0.16666675000000097,
          "durationTicks": 30,
          "midi": 58,
          "name": "A#3",
          "ticks": 2010,
          "time": 11.16667225,
          "velocity": 0.7874015748031497
        },
        {
          "duration": 0.1666667499999992,
          "durationTicks": 30,
          "midi": 63,
          "name": "D#4",
          "ticks": 2040,
          "time": 11.333339,
          "velocity": 0.7874015748031497
        },
        {
          "duration": 0.1666667499999992,
          "durationTicks": 30,
          "midi": 63,
          "name": "D#4",
          "ticks": 2100,
          "time": 11.6666725,
          "velocity": 0.7874015748031497
        },
        {
          "duration": 0.1666667499999992,
          "durationTicks": 30,
          "midi": 58,
          "name": "A#3",
          "ticks": 2160,
          "time": 12.000006,
          "velocity": 0.7874015748031497
        },
        {
          "duration": 0.16666675000000097,
          "durationTicks": 30,
          "midi": 58,
          "name": "A#3",
          "ticks": 2190,
          "time": 12.16667275,
          "velocity": 0.7874015748031497
        },
        {
          "duration": 0.1666667499999992,
          "durationTicks": 30,
          "midi": 58,
          "name": "A#3",
          "ticks": 2250,
          "time": 12.50000625,
          "velocity": 0.7874015748031497
        },
        {
          "duration": 0.16666675000000097,
          "durationTicks": 30,
          "midi": 61,
          "name": "C#4",
          "ticks": 2280,
          "time": 12.666673,
          "velocity": 0.7874015748031497
        },
        {
          "duration": 0.16666675000000097,
          "durationTicks": 30,
          "midi": 61,
          "name": "C#4",
          "ticks": 2340,
          "time": 13.0000065,
          "velocity": 0.7874015748031497
        },
        {
          "duration": 0.33333350000000017,
          "durationTicks": 60,
          "midi": 58,
          "name": "A#3",
          "ticks": 2400,
          "time": 13.33334,
          "velocity": 0.7874015748031497
        },
        {
          "duration": 0.1666667499999992,
          "durationTicks": 30,
          "midi": 58,
          "name": "A#3",
          "ticks": 2490,
          "time": 13.833340250000001,
          "velocity": 0.7874015748031497
        },
        {
          "duration": 0.16666675000000097,
          "durationTicks": 30,
          "midi": 61,
          "name": "C#4",
          "ticks": 2520,
          "time": 14.000007,
          "velocity": 0.7874015748031497
        },
        {
          "duration": 0.1666667499999992,
          "durationTicks": 30,
          "midi": 61,
          "name": "C#4",
          "ticks": 2580,
          "time": 14.3333405,
          "velocity": 0.7874015748031497
        },
        {
          "duration": 0.33333350000000017,
          "durationTicks": 60,
          "midi": 58,
          "name": "A#3",
          "ticks": 2640,
          "time": 14.666674,
          "velocity": 0.7874015748031497
        },
        {
          "duration": 0.33333350000000017,
          "durationTicks": 60,
          "midi": 61,
          "name": "C#4",
          "ticks": 2700,
          "time": 15.0000075,
          "velocity": 0.7874015748031497
        },
        {
          "duration": 0.33333350000000017,
          "durationTicks": 60,
          "midi": 58,
          "name": "A#3",
          "ticks": 2760,
          "time": 15.333341,
          "velocity": 0.7874015748031497
        },
        {
          "duration": 0.33333350000000017,
          "durationTicks": 60,
          "midi": 61,
          "name": "C#4",
          "ticks": 2820,
          "time": 15.666674500000001,
          "velocity": 0.7874015748031497
        },
        {
          "duration": 0.16666674999999742,
          "durationTicks": 30,
          "midi": 58,
          "name": "A#3",
          "ticks": 2880,
          "time": 16.000008,
          "velocity": 0.7874015748031497
        },
        {
          "duration": 0.16666675000000097,
          "durationTicks": 30,
          "midi": 58,
          "name": "A#3",
          "ticks": 2970,
          "time": 16.50000825,
          "velocity": 0.7874015748031497
        },
        {
          "duration": 0.16666674999999742,
          "durationTicks": 30,
          "midi": 61,
          "name": "C#4",
          "ticks": 3000,
          "time": 16.666675,
          "velocity": 0.7874015748031497
        },
        {
          "duration": 0.16666675000000097,
          "durationTicks": 30,
          "midi": 61,
          "name": "C#4",
          "ticks": 3060,
          "time": 17.0000085,
          "velocity": 0.7874015748031497
        },
        {
          "duration": 0.16666674999999742,
          "durationTicks": 30,
          "midi": 56,
          "name": "G#3",
          "ticks": 3120,
          "time": 17.333342000000002,
          "velocity": 0.7874015748031497
        },
        {
          "duration": 0.16666675000000097,
          "durationTicks": 30,
          "midi": 56,
          "name": "G#3",
          "ticks": 3180,
          "time": 17.6666755,
          "velocity": 0.7874015748031497
        },
        {
          "duration": 0.16666675000000097,
          "durationTicks": 30,
          "midi": 61,
          "name": "C#4",
          "ticks": 3240,
          "time": 18.000009,
          "velocity": 0.7874015748031497
        },
        {
          "duration": 0.16666675000000097,
          "durationTicks": 30,
          "midi": 61,
          "name": "C#4",
          "ticks": 3300,
          "time": 18.3333425,
          "velocity": 0.7874015748031497
        },
        {
          "duration": 0.16666675000000097,
          "durationTicks": 30,
          "midi": 58,
          "name": "A#3",
          "ticks": 3360,
          "time": 18.666676,
          "velocity": 0.7874015748031497
        },
        {
          "duration": 0.16666675000000097,
          "durationTicks": 30,
          "midi": 58,
          "name": "A#3",
          "ticks": 3390,
          "time": 18.83334275,
          "velocity": 0.7874015748031497
        },
        {
          "duration": 0.16666674999999742,
          "durationTicks": 30,
          "midi": 58,
          "name": "A#3",
          "ticks": 3450,
          "time": 19.166676250000002,
          "velocity": 0.7874015748031497
        },
        {
          "duration": 0.16666675000000097,
          "durationTicks": 30,
          "midi": 61,
          "name": "C#4",
          "ticks": 3480,
          "time": 19.333343,
          "velocity": 0.7874015748031497
        },
        {
          "duration": 0.16666674999999742,
          "durationTicks": 30,
          "midi": 61,
          "name": "C#4",
          "ticks": 3540,
          "time": 19.6666765,
          "velocity": 0.7874015748031497
        },
        {
          "duration": 0.16666675000000097,
          "durationTicks": 30,
          "midi": 58,
          "name": "A#3",
          "ticks": 3600,
          "time": 20.00001,
          "velocity": 0.7874015748031497
        },
        {
          "duration": 0.16666675000000097,
          "durationTicks": 30,
          "midi": 58,
          "name": "A#3",
          "ticks": 3630,
          "time": 20.16667675,
          "velocity": 0.7874015748031497
        },
        {
          "duration": 0.16666675000000097,
          "durationTicks": 30,
          "midi": 58,
          "name": "A#3",
          "ticks": 3690,
          "time": 20.50001025,
          "velocity": 0.7874015748031497
        },
        {
          "duration": 0.16666675000000097,
          "durationTicks": 30,
          "midi": 61,
          "name": "C#4",
          "ticks": 3720,
          "time": 20.666677,
          "velocity": 0.7874015748031497
        },
        {
          "duration": 0.16666674999999742,
          "durationTicks": 30,
          "midi": 61,
          "name": "C#4",
          "ticks": 3780,
          "time": 21.000010500000002,
          "velocity": 0.7874015748031497
        },
        {
          "duration": 0.16666675000000097,
          "durationTicks": 30,
          "midi": 58,
          "name": "A#3",
          "ticks": 3840,
          "time": 21.333344,
          "velocity": 0.7874015748031497
        },
        {
          "duration": 0.16666674999999742,
          "durationTicks": 30,
          "midi": 58,
          "name": "A#3",
          "ticks": 3870,
          "time": 21.50001075,
          "velocity": 0.7874015748031497
        },
        {
          "duration": 0.16666675000000097,
          "durationTicks": 30,
          "midi": 58,
          "name": "A#3",
          "ticks": 3930,
          "time": 21.83334425,
          "velocity": 0.7874015748031497
        },
        {
          "duration": 0.16666675000000097,
          "durationTicks": 30,
          "midi": 63,
          "name": "D#4",
          "ticks": 3960,
          "time": 22.000011,
          "velocity": 0.7874015748031497
        },
        {
          "duration": 0.16666675000000097,
          "durationTicks": 30,
          "midi": 63,
          "name": "D#4",
          "ticks": 4020,
          "time": 22.3333445,
          "velocity": 0.7874015748031497
        },
        {
          "duration": 0.16666675000000097,
          "durationTicks": 30,
          "midi": 58,
          "name": "A#3",
          "ticks": 4080,
          "time": 22.666678,
          "velocity": 0.7874015748031497
        },
        {
          "duration": 0.16666674999999742,
          "durationTicks": 30,
          "midi": 58,
          "name": "A#3",
          "ticks": 4110,
          "time": 22.833344750000002,
          "velocity": 0.7874015748031497
        },
        {
          "duration": 0.16666675000000097,
          "durationTicks": 30,
          "midi": 58,
          "name": "A#3",
          "ticks": 4170,
          "time": 23.16667825,
          "velocity": 0.7874015748031497
        },
        {
          "duration": 0.16666674999999742,
          "durationTicks": 30,
          "midi": 61,
          "name": "C#4",
          "ticks": 4200,
          "time": 23.333345,
          "velocity": 0.7874015748031497
        },
        {
          "duration": 0.16666675000000097,
          "durationTicks": 30,
          "midi": 61,
          "name": "C#4",
          "ticks": 4260,
          "time": 23.6666785,
          "velocity": 0.7874015748031497
        },
        {
          "duration": 0.3333334999999984,
          "durationTicks": 60,
          "midi": 58,
          "name": "A#3",
          "ticks": 4320,
          "time": 24.000012,
          "velocity": 0.7874015748031497
        },
        {
          "duration": 0.16666675000000097,
          "durationTicks": 30,
          "midi": 58,
          "name": "A#3",
          "ticks": 4410,
          "time": 24.50001225,
          "velocity": 0.7874015748031497
        },
        {
          "duration": 0.16666674999999742,
          "durationTicks": 30,
          "midi": 61,
          "name": "C#4",
          "ticks": 4440,
          "time": 24.666679000000002,
          "velocity": 0.7874015748031497
        },
        {
          "duration": 0.16666675000000097,
          "durationTicks": 30,
          "midi": 61,
          "name": "C#4",
          "ticks": 4500,
          "time": 25.0000125,
          "velocity": 0.7874015748031497
        },
        {
          "duration": 0.33333350000000195,
          "durationTicks": 60,
          "midi": 58,
          "name": "A#3",
          "ticks": 4560,
          "time": 25.333346,
          "velocity": 0.7874015748031497
        },
        {
          "duration": 0.3333334999999984,
          "durationTicks": 60,
          "midi": 61,
          "name": "C#4",
          "ticks": 4620,
          "time": 25.6666795,
          "velocity": 0.7874015748031497
        },
        {
          "duration": 0.33333350000000195,
          "durationTicks": 60,
          "midi": 58,
          "name": "A#3",
          "ticks": 4680,
          "time": 26.000013,
          "velocity": 0.7874015748031497
        },
        {
          "duration": 0.3333334999999984,
          "durationTicks": 60,
          "midi": 61,
          "name": "C#4",
          "ticks": 4740,
          "time": 26.3333465,
          "velocity": 0.7874015748031497
        },
        {
          "duration": 0.16666675000000097,
          "durationTicks": 30,
          "midi": 58,
          "name": "A#3",
          "ticks": 4800,
          "time": 26.66668,
          "velocity": 0.7874015748031497
        },
        {
          "duration": 0.16666675000000097,
          "durationTicks": 30,
          "midi": 58,
          "name": "A#3",
          "ticks": 4890,
          "time": 27.16668025,
          "velocity": 0.7874015748031497
        },
        {
          "duration": 0.16666675000000097,
          "durationTicks": 30,
          "midi": 61,
          "name": "C#4",
          "ticks": 4920,
          "time": 27.333347,
          "velocity": 0.7874015748031497
        },
        {
          "duration": 0.16666674999999742,
          "durationTicks": 30,
          "midi": 61,
          "name": "C#4",
          "ticks": 4980,
          "time": 27.666680500000002,
          "velocity": 0.7874015748031497
        },
        {
          "duration": 0.16666675000000097,
          "durationTicks": 30,
          "midi": 56,
          "name": "G#3",
          "ticks": 5040,
          "time": 28.000014,
          "velocity": 0.7874015748031497
        },
        {
          "duration": 0.16666674999999742,
          "durationTicks": 30,
          "midi": 56,
          "name": "G#3",
          "ticks": 5100,
          "time": 28.333347500000002,
          "velocity": 0.7874015748031497
        },
        {
          "duration": 0.16666675000000097,
          "durationTicks": 30,
          "midi": 61,
          "name": "C#4",
          "ticks": 5160,
          "time": 28.666681,
          "velocity": 0.7874015748031497
        },
        {
          "duration": 0.16666675000000097,
          "durationTicks": 30,
          "midi": 61,
          "name": "C#4",
          "ticks": 5220,
          "time": 29.0000145,
          "velocity": 0.7874015748031497
        },
        {
          "duration": 0.16666675000000097,
          "durationTicks": 30,
          "midi": 58,
          "name": "A#3",
          "ticks": 5280,
          "time": 29.333348,
          "velocity": 0.7874015748031497
        },
        {
          "duration": 0.16666674999999742,
          "durationTicks": 30,
          "midi": 58,
          "name": "A#3",
          "ticks": 5310,
          "time": 29.500014750000002,
          "velocity": 0.7874015748031497
        },
        {
          "duration": 0.16666675000000097,
          "durationTicks": 30,
          "midi": 58,
          "name": "A#3",
          "ticks": 5370,
          "time": 29.83334825,
          "velocity": 0.7874015748031497
        },
        {
          "duration": 0.16666675000000097,
          "durationTicks": 30,
          "midi": 61,
          "name": "C#4",
          "ticks": 5400,
          "time": 30.000015,
          "velocity": 0.7874015748031497
        },
        {
          "duration": 0.16666675000000097,
          "durationTicks": 30,
          "midi": 61,
          "name": "C#4",
          "ticks": 5460,
          "time": 30.3333485,
          "velocity": 0.7874015748031497
        },
        {
          "duration": 0.16666674999999742,
          "durationTicks": 30,
          "midi": 58,
          "name": "A#3",
          "ticks": 5520,
          "time": 30.666682,
          "velocity": 0.7874015748031497
        },
        {
          "duration": 0.16666675000000097,
          "durationTicks": 30,
          "midi": 58,
          "name": "A#3",
          "ticks": 5550,
          "time": 30.83334875,
          "velocity": 0.7874015748031497
        },
        {
          "duration": 0.16666675000000097,
          "durationTicks": 30,
          "midi": 58,
          "name": "A#3",
          "ticks": 5610,
          "time": 31.16668225,
          "velocity": 0.7874015748031497
        },
        {
          "duration": 0.16666674999999742,
          "durationTicks": 30,
          "midi": 61,
          "name": "C#4",
          "ticks": 5640,
          "time": 31.333349000000002,
          "velocity": 0.7874015748031497
        },
        {
          "duration": 0.16666675000000097,
          "durationTicks": 30,
          "midi": 61,
          "name": "C#4",
          "ticks": 5700,
          "time": 31.6666825,
          "velocity": 0.7874015748031497
        },
        {
          "duration": 0.16666674999999742,
          "durationTicks": 30,
          "midi": 58,
          "name": "A#3",
          "ticks": 5760,
          "time": 32.000016,
          "velocity": 0.7874015748031497
        },
        {
          "duration": 0.16666674999999742,
          "durationTicks": 30,
          "midi": 58,
          "name": "A#3",
          "ticks": 5790,
          "time": 32.16668275,
          "velocity": 0.7874015748031497
        },
        {
          "duration": 0.16666674999999742,
          "durationTicks": 30,
          "midi": 58,
          "name": "A#3",
          "ticks": 5850,
          "time": 32.50001625,
          "velocity": 0.7874015748031497
        },
        {
          "duration": 0.16666675000000453,
          "durationTicks": 30,
          "midi": 63,
          "name": "D#4",
          "ticks": 5880,
          "time": 32.666683,
          "velocity": 0.7874015748031497
        },
        {
          "duration": 0.16666674999999742,
          "durationTicks": 30,
          "midi": 63,
          "name": "D#4",
          "ticks": 5940,
          "time": 33.0000165,
          "velocity": 0.7874015748031497
        },
        {
          "duration": 0.16666674999999742,
          "durationTicks": 30,
          "midi": 58,
          "name": "A#3",
          "ticks": 6000,
          "time": 33.33335,
          "velocity": 0.7874015748031497
        },
        {
          "duration": 0.16666674999999742,
          "durationTicks": 30,
          "midi": 58,
          "name": "A#3",
          "ticks": 6030,
          "time": 33.50001675,
          "velocity": 0.7874015748031497
        },
        {
          "duration": 0.16666674999999742,
          "durationTicks": 30,
          "midi": 58,
          "name": "A#3",
          "ticks": 6090,
          "time": 33.83335025,
          "velocity": 0.7874015748031497
        },
        {
          "duration": 0.16666674999999742,
          "durationTicks": 30,
          "midi": 61,
          "name": "C#4",
          "ticks": 6120,
          "time": 34.000017,
          "velocity": 0.7874015748031497
        },
        {
          "duration": 0.16666674999999742,
          "durationTicks": 30,
          "midi": 61,
          "name": "C#4",
          "ticks": 6180,
          "time": 34.3333505,
          "velocity": 0.7874015748031497
        },
        {
          "duration": 0.33333349999999484,
          "durationTicks": 60,
          "midi": 58,
          "name": "A#3",
          "ticks": 6240,
          "time": 34.666684000000004,
          "velocity": 0.7874015748031497
        },
        {
          "duration": 0.16666674999999742,
          "durationTicks": 30,
          "midi": 58,
          "name": "A#3",
          "ticks": 6330,
          "time": 35.16668425,
          "velocity": 0.7874015748031497
        },
        {
          "duration": 0.16666674999999742,
          "durationTicks": 30,
          "midi": 61,
          "name": "C#4",
          "ticks": 6360,
          "time": 35.333351,
          "velocity": 0.7874015748031497
        },
        {
          "duration": 0.16666674999999742,
          "durationTicks": 30,
          "midi": 61,
          "name": "C#4",
          "ticks": 6420,
          "time": 35.6666845,
          "velocity": 0.7874015748031497
        },
        {
          "duration": 0.33333350000000195,
          "durationTicks": 60,
          "midi": 58,
          "name": "A#3",
          "ticks": 6480,
          "time": 36.000018,
          "velocity": 0.7874015748031497
        },
        {
          "duration": 0.33333350000000195,
          "durationTicks": 60,
          "midi": 61,
          "name": "C#4",
          "ticks": 6540,
          "time": 36.3333515,
          "velocity": 0.7874015748031497
        },
        {
          "duration": 0.33333350000000195,
          "durationTicks": 60,
          "midi": 58,
          "name": "A#3",
          "ticks": 6600,
          "time": 36.666685,
          "velocity": 0.7874015748031497
        },
        {
          "duration": 0.33333349999999484,
          "durationTicks": 60,
          "midi": 61,
          "name": "C#4",
          "ticks": 6660,
          "time": 37.0000185,
          "velocity": 0.7874015748031497
        },
        {
          "duration": 0.16666675000000453,
          "durationTicks": 30,
          "midi": 58,
          "name": "A#3",
          "ticks": 6720,
          "time": 37.333352,
          "velocity": 0.7874015748031497
        },
        {
          "duration": 0.16666675000000453,
          "durationTicks": 30,
          "midi": 58,
          "name": "A#3",
          "ticks": 6810,
          "time": 37.83335225,
          "velocity": 0.7874015748031497
        },
        {
          "duration": 0.16666674999999742,
          "durationTicks": 30,
          "midi": 61,
          "name": "C#4",
          "ticks": 6840,
          "time": 38.000019,
          "velocity": 0.7874015748031497
        },
        {
          "duration": 0.16666674999999742,
          "durationTicks": 30,
          "midi": 61,
          "name": "C#4",
          "ticks": 6900,
          "time": 38.333352500000004,
          "velocity": 0.7874015748031497
        },
        {
          "duration": 0.16666675000000453,
          "durationTicks": 30,
          "midi": 56,
          "name": "G#3",
          "ticks": 6960,
          "time": 38.666686,
          "velocity": 0.7874015748031497
        },
        {
          "duration": 0.16666674999999742,
          "durationTicks": 30,
          "midi": 56,
          "name": "G#3",
          "ticks": 7020,
          "time": 39.0000195,
          "velocity": 0.7874015748031497
        },
        {
          "duration": 0.16666674999999742,
          "durationTicks": 30,
          "midi": 61,
          "name": "C#4",
          "ticks": 7080,
          "time": 39.333353,
          "velocity": 0.7874015748031497
        },
        {
          "duration": 0.16666675000000453,
          "durationTicks": 30,
          "midi": 61,
          "name": "C#4",
          "ticks": 7140,
          "time": 39.6666865,
          "velocity": 0.7874015748031497
        },
        {
          "duration": 0.16666675000000453,
          "durationTicks": 30,
          "midi": 58,
          "name": "A#3",
          "ticks": 7200,
          "time": 40.00002,
          "velocity": 0.7874015748031497
        },
        {
          "duration": 0.16666674999999742,
          "durationTicks": 30,
          "midi": 58,
          "name": "A#3",
          "ticks": 7230,
          "time": 40.166686750000004,
          "velocity": 0.7874015748031497
        },
        {
          "duration": 0.16666675000000453,
          "durationTicks": 30,
          "midi": 58,
          "name": "A#3",
          "ticks": 7290,
          "time": 40.50002025,
          "velocity": 0.7874015748031497
        },
        {
          "duration": 0.16666674999999742,
          "durationTicks": 30,
          "midi": 61,
          "name": "C#4",
          "ticks": 7320,
          "time": 40.666687,
          "velocity": 0.7874015748031497
        },
        {
          "duration": 0.16666675000000453,
          "durationTicks": 30,
          "midi": 61,
          "name": "C#4",
          "ticks": 7380,
          "time": 41.0000205,
          "velocity": 0.7874015748031497
        },
        {
          "duration": 0.16666674999999742,
          "durationTicks": 30,
          "midi": 58,
          "name": "A#3",
          "ticks": 7440,
          "time": 41.333354,
          "velocity": 0.7874015748031497
        },
        {
          "duration": 0.16666675000000453,
          "durationTicks": 30,
          "midi": 58,
          "name": "A#3",
          "ticks": 7470,
          "time": 41.50002075,
          "velocity": 0.7874015748031497
        },
        {
          "duration": 0.16666675000000453,
          "durationTicks": 30,
          "midi": 58,
          "name": "A#3",
          "ticks": 7530,
          "time": 41.83335425,
          "velocity": 0.7874015748031497
        },
        {
          "duration": 0.16666674999999742,
          "durationTicks": 30,
          "midi": 61,
          "name": "C#4",
          "ticks": 7560,
          "time": 42.000021000000004,
          "velocity": 0.7874015748031497
        },
        {
          "duration": 0.16666675000000453,
          "durationTicks": 30,
          "midi": 61,
          "name": "C#4",
          "ticks": 7620,
          "time": 42.3333545,
          "velocity": 0.7874015748031497
        },
        {
          "duration": 0.16666674999999742,
          "durationTicks": 30,
          "midi": 58,
          "name": "A#3",
          "ticks": 7680,
          "time": 42.666688,
          "velocity": 0.7874015748031497
        },
        {
          "duration": 0.16666675000000453,
          "durationTicks": 30,
          "midi": 58,
          "name": "A#3",
          "ticks": 7710,
          "time": 42.83335475,
          "velocity": 0.7874015748031497
        },
        {
          "duration": 0.16666674999999742,
          "durationTicks": 30,
          "midi": 58,
          "name": "A#3",
          "ticks": 7770,
          "time": 43.16668825,
          "velocity": 0.7874015748031497
        },
        {
          "duration": 0.16666675000000453,
          "durationTicks": 30,
          "midi": 63,
          "name": "D#4",
          "ticks": 7800,
          "time": 43.333355,
          "velocity": 0.7874015748031497
        },
        {
          "duration": 0.16666675000000453,
          "durationTicks": 30,
          "midi": 63,
          "name": "D#4",
          "ticks": 7860,
          "time": 43.6666885,
          "velocity": 0.7874015748031497
        },
        {
          "duration": 0.16666674999999742,
          "durationTicks": 30,
          "midi": 58,
          "name": "A#3",
          "ticks": 7920,
          "time": 44.000022,
          "velocity": 0.7874015748031497
        },
        {
          "duration": 0.16666675000000453,
          "durationTicks": 30,
          "midi": 58,
          "name": "A#3",
          "ticks": 7950,
          "time": 44.16668875,
          "velocity": 0.7874015748031497
        },
        {
          "duration": 0.16666674999999742,
          "durationTicks": 30,
          "midi": 58,
          "name": "A#3",
          "ticks": 8010,
          "time": 44.50002225,
          "velocity": 0.7874015748031497
        },
        {
          "duration": 0.16666675000000453,
          "durationTicks": 30,
          "midi": 61,
          "name": "C#4",
          "ticks": 8040,
          "time": 44.666689,
          "velocity": 0.7874015748031497
        },
        {
          "duration": 0.16666674999999742,
          "durationTicks": 30,
          "midi": 61,
          "name": "C#4",
          "ticks": 8100,
          "time": 45.0000225,
          "velocity": 0.7874015748031497
        },
        {
          "duration": 0.33333350000000195,
          "durationTicks": 60,
          "midi": 58,
          "name": "A#3",
          "ticks": 8160,
          "time": 45.333356,
          "velocity": 0.7874015748031497
        },
        {
          "duration": 0.16666674999999742,
          "durationTicks": 30,
          "midi": 58,
          "name": "A#3",
          "ticks": 8250,
          "time": 45.83335625,
          "velocity": 0.7874015748031497
        },
        {
          "duration": 0.16666675000000453,
          "durationTicks": 30,
          "midi": 61,
          "name": "C#4",
          "ticks": 8280,
          "time": 46.000023,
          "velocity": 0.7874015748031497
        },
        {
          "duration": 0.16666674999999742,
          "durationTicks": 30,
          "midi": 61,
          "name": "C#4",
          "ticks": 8340,
          "time": 46.3333565,
          "velocity": 0.7874015748031497
        },
        {
          "duration": 0.33333349999999484,
          "durationTicks": 60,
          "midi": 58,
          "name": "A#3",
          "ticks": 8400,
          "time": 46.66669,
          "velocity": 0.7874015748031497
        },
        {
          "duration": 0.33333350000000195,
          "durationTicks": 60,
          "midi": 61,
          "name": "C#4",
          "ticks": 8460,
          "time": 47.0000235,
          "velocity": 0.7874015748031497
        },
        {
          "duration": 0.33333350000000195,
          "durationTicks": 60,
          "midi": 58,
          "name": "A#3",
          "ticks": 8520,
          "time": 47.333357,
          "velocity": 0.7874015748031497
        },
        {
          "duration": 0.33333350000000195,
          "durationTicks": 60,
          "midi": 61,
          "name": "C#4",
          "ticks": 8580,
          "time": 47.6666905,
          "velocity": 0.7874015748031497
        },
        {
          "duration": 0.16666674999999742,
          "durationTicks": 30,
          "midi": 58,
          "name": "A#3",
          "ticks": 8640,
          "time": 48.000024,
          "velocity": 0.7874015748031497
        },
        {
          "duration": 0.16666674999999742,
          "durationTicks": 30,
          "midi": 58,
          "name": "A#3",
          "ticks": 8730,
          "time": 48.50002425,
          "velocity": 0.7874015748031497
        },
        {
          "duration": 0.16666674999999742,
          "durationTicks": 30,
          "midi": 61,
          "name": "C#4",
          "ticks": 8760,
          "time": 48.666691,
          "velocity": 0.7874015748031497
        },
        {
          "duration": 0.16666674999999742,
          "durationTicks": 30,
          "midi": 61,
          "name": "C#4",
          "ticks": 8820,
          "time": 49.0000245,
          "velocity": 0.7874015748031497
        },
        {
          "duration": 0.16666674999999742,
          "durationTicks": 30,
          "midi": 56,
          "name": "G#3",
          "ticks": 8880,
          "time": 49.333358000000004,
          "velocity": 0.7874015748031497
        },
        {
          "duration": 0.16666675000000453,
          "durationTicks": 30,
          "midi": 56,
          "name": "G#3",
          "ticks": 8940,
          "time": 49.6666915,
          "velocity": 0.7874015748031497
        },
        {
          "duration": 0.16666674999999742,
          "durationTicks": 30,
          "midi": 61,
          "name": "C#4",
          "ticks": 9000,
          "time": 50.000025,
          "velocity": 0.7874015748031497
        },
        {
          "duration": 0.16666674999999742,
          "durationTicks": 30,
          "midi": 61,
          "name": "C#4",
          "ticks": 9060,
          "time": 50.3333585,
          "velocity": 0.7874015748031497
        },
        {
          "duration": 0.16666675000000453,
          "durationTicks": 30,
          "midi": 58,
          "name": "A#3",
          "ticks": 9120,
          "time": 50.666692,
          "velocity": 0.7874015748031497
        },
        {
          "duration": 0.16666674999999742,
          "durationTicks": 30,
          "midi": 58,
          "name": "A#3",
          "ticks": 9150,
          "time": 50.83335875,
          "velocity": 0.7874015748031497
        },
        {
          "duration": 0.16666674999999742,
          "durationTicks": 30,
          "midi": 58,
          "name": "A#3",
          "ticks": 9210,
          "time": 51.166692250000004,
          "velocity": 0.7874015748031497
        },
        {
          "duration": 0.16666674999999742,
          "durationTicks": 30,
          "midi": 61,
          "name": "C#4",
          "ticks": 9240,
          "time": 51.333359,
          "velocity": 0.7874015748031497
        },
        {
          "duration": 0.16666674999999742,
          "durationTicks": 30,
          "midi": 61,
          "name": "C#4",
          "ticks": 9300,
          "time": 51.6666925,
          "velocity": 0.7874015748031497
        },
        {
          "duration": 0.16666675000000453,
          "durationTicks": 30,
          "midi": 58,
          "name": "A#3",
          "ticks": 9360,
          "time": 52.000026,
          "velocity": 0.7874015748031497
        },
        {
          "duration": 0.16666674999999742,
          "durationTicks": 30,
          "midi": 58,
          "name": "A#3",
          "ticks": 9390,
          "time": 52.16669275,
          "velocity": 0.7874015748031497
        },
        {
          "duration": 0.16666675000000453,
          "durationTicks": 30,
          "midi": 58,
          "name": "A#3",
          "ticks": 9450,
          "time": 52.50002625,
          "velocity": 0.7874015748031497
        },
        {
          "duration": 0.16666674999999742,
          "durationTicks": 30,
          "midi": 61,
          "name": "C#4",
          "ticks": 9480,
          "time": 52.666693,
          "velocity": 0.7874015748031497
        },
        {
          "duration": 0.16666674999999742,
          "durationTicks": 30,
          "midi": 61,
          "name": "C#4",
          "ticks": 9540,
          "time": 53.000026500000004,
          "velocity": 0.7874015748031497
        },
        {
          "duration": 0.16666675000000453,
          "durationTicks": 30,
          "midi": 58,
          "name": "A#3",
          "ticks": 9600,
          "time": 53.33336,
          "velocity": 0.7874015748031497
        },
        {
          "duration": 0.16666674999999742,
          "durationTicks": 30,
          "midi": 58,
          "name": "A#3",
          "ticks": 9630,
          "time": 53.50002675,
          "velocity": 0.7874015748031497
        },
        {
          "duration": 0.16666675000000453,
          "durationTicks": 30,
          "midi": 58,
          "name": "A#3",
          "ticks": 9690,
          "time": 53.83336025,
          "velocity": 0.7874015748031497
        },
        {
          "duration": 0.16666674999999742,
          "durationTicks": 30,
          "midi": 63,
          "name": "D#4",
          "ticks": 9720,
          "time": 54.000027,
          "velocity": 0.7874015748031497
        },
        {
          "duration": 0.16666675000000453,
          "durationTicks": 30,
          "midi": 63,
          "name": "D#4",
          "ticks": 9780,
          "time": 54.3333605,
          "velocity": 0.7874015748031497
        },
        {
          "duration": 0.16666675000000453,
          "durationTicks": 30,
          "midi": 58,
          "name": "A#3",
          "ticks": 9840,
          "time": 54.666694,
          "velocity": 0.7874015748031497
        },
        {
          "duration": 0.16666674999999742,
          "durationTicks": 30,
          "midi": 58,
          "name": "A#3",
          "ticks": 9870,
          "time": 54.833360750000004,
          "velocity": 0.7874015748031497
        },
        {
          "duration": 0.16666675000000453,
          "durationTicks": 30,
          "midi": 58,
          "name": "A#3",
          "ticks": 9930,
          "time": 55.16669425,
          "velocity": 0.7874015748031497
        },
        {
          "duration": 0.16666674999999742,
          "durationTicks": 30,
          "midi": 61,
          "name": "C#4",
          "ticks": 9960,
          "time": 55.333361000000004,
          "velocity": 0.7874015748031497
        },
        {
          "duration": 0.16666675000000453,
          "durationTicks": 30,
          "midi": 61,
          "name": "C#4",
          "ticks": 10020,
          "time": 55.6666945,
          "velocity": 0.7874015748031497
        },
        {
          "duration": 0.33333350000000195,
          "durationTicks": 60,
          "midi": 58,
          "name": "A#3",
          "ticks": 10080,
          "time": 56.000028,
          "velocity": 0.7874015748031497
        },
        {
          "duration": 0.16666675000000453,
          "durationTicks": 30,
          "midi": 58,
          "name": "A#3",
          "ticks": 10170,
          "time": 56.50002825,
          "velocity": 0.7874015748031497
        },
        {
          "duration": 0.16666674999999742,
          "durationTicks": 30,
          "midi": 61,
          "name": "C#4",
          "ticks": 10200,
          "time": 56.666695000000004,
          "velocity": 0.7874015748031497
        },
        {
          "duration": 0.16666675000000453,
          "durationTicks": 30,
          "midi": 61,
          "name": "C#4",
          "ticks": 10260,
          "time": 57.0000285,
          "velocity": 0.7874015748031497
        },
        {
          "duration": 0.33333350000000195,
          "durationTicks": 60,
          "midi": 58,
          "name": "A#3",
          "ticks": 10320,
          "time": 57.333362,
          "velocity": 0.7874015748031497
        },
        {
          "duration": 0.33333349999999484,
          "durationTicks": 60,
          "midi": 61,
          "name": "C#4",
          "ticks": 10380,
          "time": 57.6666955,
          "velocity": 0.7874015748031497
        },
        {
          "duration": 0.33333350000000195,
          "durationTicks": 60,
          "midi": 58,
          "name": "A#3",
          "ticks": 10440,
          "time": 58.000029,
          "velocity": 0.7874015748031497
        },
        {
          "duration": 0.33333350000000195,
          "durationTicks": 60,
          "midi": 61,
          "name": "C#4",
          "ticks": 10500,
          "time": 58.3333625,
          "velocity": 0.7874015748031497
        },
        {
          "duration": 0.16666674999999742,
          "durationTicks": 30,
          "midi": 58,
          "name": "A#3",
          "ticks": 10560,
          "time": 58.666696,
          "velocity": 0.7874015748031497
        },
        {
          "duration": 0.16666674999999742,
          "durationTicks": 30,
          "midi": 58,
          "name": "A#3",
          "ticks": 10650,
          "time": 59.16669625,
          "velocity": 0.7874015748031497
        },
        {
          "duration": 0.16666675000000453,
          "durationTicks": 30,
          "midi": 61,
          "name": "C#4",
          "ticks": 10680,
          "time": 59.333363,
          "velocity": 0.7874015748031497
        },
        {
          "duration": 0.16666674999999742,
          "durationTicks": 30,
          "midi": 61,
          "name": "C#4",
          "ticks": 10740,
          "time": 59.6666965,
          "velocity": 0.7874015748031497
        },
        {
          "duration": 0.16666674999999742,
          "durationTicks": 30,
          "midi": 56,
          "name": "G#3",
          "ticks": 10800,
          "time": 60.00003,
          "velocity": 0.7874015748031497
        },
        {
          "duration": 0.16666674999999742,
          "durationTicks": 30,
          "midi": 56,
          "name": "G#3",
          "ticks": 10860,
          "time": 60.333363500000004,
          "velocity": 0.7874015748031497
        },
        {
          "duration": 0.16666675000000453,
          "durationTicks": 30,
          "midi": 61,
          "name": "C#4",
          "ticks": 10920,
          "time": 60.666697,
          "velocity": 0.7874015748031497
        },
        {
          "duration": 0.16666674999999742,
          "durationTicks": 30,
          "midi": 61,
          "name": "C#4",
          "ticks": 10980,
          "time": 61.0000305,
          "velocity": 0.7874015748031497
        },
        {
          "duration": 0.16666674999999742,
          "durationTicks": 30,
          "midi": 58,
          "name": "A#3",
          "ticks": 11040,
          "time": 61.333364,
          "velocity": 0.7874015748031497
        },
        {
          "duration": 0.16666674999999742,
          "durationTicks": 30,
          "midi": 58,
          "name": "A#3",
          "ticks": 11070,
          "time": 61.50003075,
          "velocity": 0.7874015748031497
        },
        {
          "duration": 0.16666674999999742,
          "durationTicks": 30,
          "midi": 58,
          "name": "A#3",
          "ticks": 11130,
          "time": 61.83336425,
          "velocity": 0.7874015748031497
        },
        {
          "duration": 0.16666675000000453,
          "durationTicks": 30,
          "midi": 61,
          "name": "C#4",
          "ticks": 11160,
          "time": 62.000031,
          "velocity": 0.7874015748031497
        },
        {
          "duration": 0.16666674999999742,
          "durationTicks": 30,
          "midi": 61,
          "name": "C#4",
          "ticks": 11220,
          "time": 62.3333645,
          "velocity": 0.7874015748031497
        },
        {
          "duration": 0.16666674999999742,
          "durationTicks": 30,
          "midi": 58,
          "name": "A#3",
          "ticks": 11280,
          "time": 62.666698000000004,
          "velocity": 0.7874015748031497
        },
        {
          "duration": 0.16666674999999742,
          "durationTicks": 30,
          "midi": 58,
          "name": "A#3",
          "ticks": 11310,
          "time": 62.83336475,
          "velocity": 0.7874015748031497
        },
        {
          "duration": 0.16666674999999742,
          "durationTicks": 30,
          "midi": 58,
          "name": "A#3",
          "ticks": 11370,
          "time": 63.16669825,
          "velocity": 0.7874015748031497
        },
        {
          "duration": 0.16666674999999742,
          "durationTicks": 30,
          "midi": 61,
          "name": "C#4",
          "ticks": 11400,
          "time": 63.333365,
          "velocity": 0.7874015748031497
        },
        {
          "duration": 0.16666674999999742,
          "durationTicks": 30,
          "midi": 61,
          "name": "C#4",
          "ticks": 11460,
          "time": 63.6666985,
          "velocity": 0.7874015748031497
        },
        {
          "duration": 0.16666674999999032,
          "durationTicks": 30,
          "midi": 58,
          "name": "A#3",
          "ticks": 11520,
          "time": 64.000032,
          "velocity": 0.7874015748031497
        },
        {
          "duration": 0.16666675000000453,
          "durationTicks": 30,
          "midi": 58,
          "name": "A#3",
          "ticks": 11550,
          "time": 64.16669875,
          "velocity": 0.7874015748031497
        },
        {
          "duration": 0.16666674999999032,
          "durationTicks": 30,
          "midi": 58,
          "name": "A#3",
          "ticks": 11610,
          "time": 64.50003225,
          "velocity": 0.7874015748031497
        },
        {
          "duration": 0.16666675000000453,
          "durationTicks": 30,
          "midi": 63,
          "name": "D#4",
          "ticks": 11640,
          "time": 64.666699,
          "velocity": 0.7874015748031497
        },
        {
          "duration": 0.16666675000000453,
          "durationTicks": 30,
          "midi": 63,
          "name": "D#4",
          "ticks": 11700,
          "time": 65.0000325,
          "velocity": 0.7874015748031497
        },
        {
          "duration": 0.16666675000000453,
          "durationTicks": 30,
          "midi": 58,
          "name": "A#3",
          "ticks": 11760,
          "time": 65.333366,
          "velocity": 0.7874015748031497
        },
        {
          "duration": 0.16666675000000453,
          "durationTicks": 30,
          "midi": 58,
          "name": "A#3",
          "ticks": 11790,
          "time": 65.50003275,
          "velocity": 0.7874015748031497
        },
        {
          "duration": 0.16666675000000453,
          "durationTicks": 30,
          "midi": 58,
          "name": "A#3",
          "ticks": 11850,
          "time": 65.83336625,
          "velocity": 0.7874015748031497
        },
        {
          "duration": 0.16666675000000453,
          "durationTicks": 30,
          "midi": 61,
          "name": "C#4",
          "ticks": 11880,
          "time": 66.000033,
          "velocity": 0.7874015748031497
        },
        {
          "duration": 0.16666675000000453,
          "durationTicks": 30,
          "midi": 61,
          "name": "C#4",
          "ticks": 11940,
          "time": 66.3333665,
          "velocity": 0.7874015748031497
        },
        {
          "duration": 0.33333349999999484,
          "durationTicks": 60,
          "midi": 58,
          "name": "A#3",
          "ticks": 12000,
          "time": 66.6667,
          "velocity": 0.7874015748031497
        },
        {
          "duration": 0.16666674999999032,
          "durationTicks": 30,
          "midi": 58,
          "name": "A#3",
          "ticks": 12090,
          "time": 67.16670025,
          "velocity": 0.7874015748031497
        },
        {
          "duration": 0.16666675000000453,
          "durationTicks": 30,
          "midi": 61,
          "name": "C#4",
          "ticks": 12120,
          "time": 67.333367,
          "velocity": 0.7874015748031497
        },
        {
          "duration": 0.16666674999999032,
          "durationTicks": 30,
          "midi": 61,
          "name": "C#4",
          "ticks": 12180,
          "time": 67.6667005,
          "velocity": 0.7874015748031497
        },
        {
          "duration": 0.33333349999999484,
          "durationTicks": 60,
          "midi": 58,
          "name": "A#3",
          "ticks": 12240,
          "time": 68.000034,
          "velocity": 0.7874015748031497
        },
        {
          "duration": 0.33333350000000905,
          "durationTicks": 60,
          "midi": 61,
          "name": "C#4",
          "ticks": 12300,
          "time": 68.3333675,
          "velocity": 0.7874015748031497
        },
        {
          "duration": 0.33333349999999484,
          "durationTicks": 60,
          "midi": 58,
          "name": "A#3",
          "ticks": 12360,
          "time": 68.666701,
          "velocity": 0.7874015748031497
        },
        {
          "duration": 0.33333350000000905,
          "durationTicks": 60,
          "midi": 61,
          "name": "C#4",
          "ticks": 12420,
          "time": 69.0000345,
          "velocity": 0.7874015748031497
        },
        {
          "duration": 0.16666674999999032,
          "durationTicks": 30,
          "midi": 58,
          "name": "A#3",
          "ticks": 12480,
          "time": 69.33336800000001,
          "velocity": 0.7874015748031497
        },
        {
          "duration": 0.16666674999999032,
          "durationTicks": 30,
          "midi": 58,
          "name": "A#3",
          "ticks": 12570,
          "time": 69.83336825,
          "velocity": 0.7874015748031497
        },
        {
          "duration": 0.16666675000000453,
          "durationTicks": 30,
          "midi": 61,
          "name": "C#4",
          "ticks": 12600,
          "time": 70.000035,
          "velocity": 0.7874015748031497
        },
        {
          "duration": 0.16666674999999032,
          "durationTicks": 30,
          "midi": 61,
          "name": "C#4",
          "ticks": 12660,
          "time": 70.3333685,
          "velocity": 0.7874015748031497
        },
        {
          "duration": 0.16666675000000453,
          "durationTicks": 30,
          "midi": 56,
          "name": "G#3",
          "ticks": 12720,
          "time": 70.666702,
          "velocity": 0.7874015748031497
        },
        {
          "duration": 0.16666675000000453,
          "durationTicks": 30,
          "midi": 56,
          "name": "G#3",
          "ticks": 12780,
          "time": 71.0000355,
          "velocity": 0.7874015748031497
        },
        {
          "duration": 0.16666674999999032,
          "durationTicks": 30,
          "midi": 61,
          "name": "C#4",
          "ticks": 12840,
          "time": 71.333369,
          "velocity": 0.7874015748031497
        },
        {
          "duration": 0.16666675000000453,
          "durationTicks": 30,
          "midi": 61,
          "name": "C#4",
          "ticks": 12900,
          "time": 71.6667025,
          "velocity": 0.7874015748031497
        },
        {
          "duration": 0.16666675000000453,
          "durationTicks": 30,
          "midi": 58,
          "name": "A#3",
          "ticks": 12960,
          "time": 72.000036,
          "velocity": 0.7874015748031497
        },
        {
          "duration": 0.16666675000000453,
          "durationTicks": 30,
          "midi": 58,
          "name": "A#3",
          "ticks": 12990,
          "time": 72.16670275,
          "velocity": 0.7874015748031497
        },
        {
          "duration": 0.16666674999999032,
          "durationTicks": 30,
          "midi": 58,
          "name": "A#3",
          "ticks": 13050,
          "time": 72.50003625000001,
          "velocity": 0.7874015748031497
        },
        {
          "duration": 0.16666675000000453,
          "durationTicks": 30,
          "midi": 61,
          "name": "C#4",
          "ticks": 13080,
          "time": 72.666703,
          "velocity": 0.7874015748031497
        },
        {
          "duration": 0.16666674999999032,
          "durationTicks": 30,
          "midi": 61,
          "name": "C#4",
          "ticks": 13140,
          "time": 73.00003650000001,
          "velocity": 0.7874015748031497
        },
        {
          "duration": 0.16666675000000453,
          "durationTicks": 30,
          "midi": 58,
          "name": "A#3",
          "ticks": 13200,
          "time": 73.33337,
          "velocity": 0.7874015748031497
        },
        {
          "duration": 0.16666674999999032,
          "durationTicks": 30,
          "midi": 58,
          "name": "A#3",
          "ticks": 13230,
          "time": 73.50003675,
          "velocity": 0.7874015748031497
        },
        {
          "duration": 0.16666675000000453,
          "durationTicks": 30,
          "midi": 58,
          "name": "A#3",
          "ticks": 13290,
          "time": 73.83337025,
          "velocity": 0.7874015748031497
        },
        {
          "duration": 0.16666674999999032,
          "durationTicks": 30,
          "midi": 61,
          "name": "C#4",
          "ticks": 13320,
          "time": 74.000037,
          "velocity": 0.7874015748031497
        },
        {
          "duration": 0.16666675000000453,
          "durationTicks": 30,
          "midi": 61,
          "name": "C#4",
          "ticks": 13380,
          "time": 74.3333705,
          "velocity": 0.7874015748031497
        },
        {
          "duration": 0.16666675000000453,
          "durationTicks": 30,
          "midi": 58,
          "name": "A#3",
          "ticks": 13440,
          "time": 74.666704,
          "velocity": 0.7874015748031497
        },
        {
          "duration": 0.16666675000000453,
          "durationTicks": 30,
          "midi": 58,
          "name": "A#3",
          "ticks": 13470,
          "time": 74.83337075,
          "velocity": 0.7874015748031497
        },
        {
          "duration": 0.16666675000000453,
          "durationTicks": 30,
          "midi": 58,
          "name": "A#3",
          "ticks": 13530,
          "time": 75.16670425,
          "velocity": 0.7874015748031497
        },
        {
          "duration": 0.16666675000000453,
          "durationTicks": 30,
          "midi": 63,
          "name": "D#4",
          "ticks": 13560,
          "time": 75.333371,
          "velocity": 0.7874015748031497
        },
        {
          "duration": 0.16666675000000453,
          "durationTicks": 30,
          "midi": 63,
          "name": "D#4",
          "ticks": 13620,
          "time": 75.6667045,
          "velocity": 0.7874015748031497
        },
        {
          "duration": 0.16666675000000453,
          "durationTicks": 30,
          "midi": 58,
          "name": "A#3",
          "ticks": 13680,
          "time": 76.000038,
          "velocity": 0.7874015748031497
        },
        {
          "duration": 0.16666674999999032,
          "durationTicks": 30,
          "midi": 58,
          "name": "A#3",
          "ticks": 13710,
          "time": 76.16670475000001,
          "velocity": 0.7874015748031497
        },
        {
          "duration": 0.16666675000000453,
          "durationTicks": 30,
          "midi": 58,
          "name": "A#3",
          "ticks": 13770,
          "time": 76.50003825,
          "velocity": 0.7874015748031497
        },
        {
          "duration": 0.16666674999999032,
          "durationTicks": 30,
          "midi": 61,
          "name": "C#4",
          "ticks": 13800,
          "time": 76.66670500000001,
          "velocity": 0.7874015748031497
        },
        {
          "duration": 0.16666675000000453,
          "durationTicks": 30,
          "midi": 61,
          "name": "C#4",
          "ticks": 13860,
          "time": 77.0000385,
          "velocity": 0.7874015748031497
        },
        {
          "duration": 0.33333350000000905,
          "durationTicks": 60,
          "midi": 58,
          "name": "A#3",
          "ticks": 13920,
          "time": 77.333372,
          "velocity": 0.7874015748031497
        },
        {
          "duration": 0.16666675000000453,
          "durationTicks": 30,
          "midi": 58,
          "name": "A#3",
          "ticks": 14010,
          "time": 77.83337225,
          "velocity": 0.7874015748031497
        },
        {
          "duration": 0.16666675000000453,
          "durationTicks": 30,
          "midi": 61,
          "name": "C#4",
          "ticks": 14040,
          "time": 78.000039,
          "velocity": 0.7874015748031497
        },
        {
          "duration": 0.16666675000000453,
          "durationTicks": 30,
          "midi": 61,
          "name": "C#4",
          "ticks": 14100,
          "time": 78.3333725,
          "velocity": 0.7874015748031497
        },
        {
          "duration": 0.33333349999999484,
          "durationTicks": 60,
          "midi": 58,
          "name": "A#3",
          "ticks": 14160,
          "time": 78.666706,
          "velocity": 0.7874015748031497
        },
        {
          "duration": 0.33333349999999484,
          "durationTicks": 60,
          "midi": 61,
          "name": "C#4",
          "ticks": 14220,
          "time": 79.0000395,
          "velocity": 0.7874015748031497
        },
        {
          "duration": 0.33333350000000905,
          "durationTicks": 60,
          "midi": 58,
          "name": "A#3",
          "ticks": 14280,
          "time": 79.333373,
          "velocity": 0.7874015748031497
        },
        {
          "duration": 0.33333349999999484,
          "durationTicks": 60,
          "midi": 61,
          "name": "C#4",
          "ticks": 14340,
          "time": 79.6667065,
          "velocity": 0.7874015748031497
        },
        {
          "duration": 0.16666675000000453,
          "durationTicks": 30,
          "midi": 58,
          "name": "A#3",
          "ticks": 14400,
          "time": 80.00004,
          "velocity": 0.7874015748031497
        },
        {
          "duration": 0.16666675000000453,
          "durationTicks": 30,
          "midi": 58,
          "name": "A#3",
          "ticks": 14490,
          "time": 80.50004025,
          "velocity": 0.7874015748031497
        },
        {
          "duration": 0.16666675000000453,
          "durationTicks": 30,
          "midi": 61,
          "name": "C#4",
          "ticks": 14520,
          "time": 80.666707,
          "velocity": 0.7874015748031497
        },
        {
          "duration": 0.16666675000000453,
          "durationTicks": 30,
          "midi": 61,
          "name": "C#4",
          "ticks": 14580,
          "time": 81.0000405,
          "velocity": 0.7874015748031497
        },
        {
          "duration": 0.16666674999999032,
          "durationTicks": 30,
          "midi": 56,
          "name": "G#3",
          "ticks": 14640,
          "time": 81.333374,
          "velocity": 0.7874015748031497
        },
        {
          "duration": 0.16666675000000453,
          "durationTicks": 30,
          "midi": 56,
          "name": "G#3",
          "ticks": 14700,
          "time": 81.6667075,
          "velocity": 0.7874015748031497
        },
        {
          "duration": 0.16666675000000453,
          "durationTicks": 30,
          "midi": 61,
          "name": "C#4",
          "ticks": 14760,
          "time": 82.000041,
          "velocity": 0.7874015748031497
        },
        {
          "duration": 0.16666674999999032,
          "durationTicks": 30,
          "midi": 61,
          "name": "C#4",
          "ticks": 14820,
          "time": 82.3333745,
          "velocity": 0.7874015748031497
        },
        {
          "duration": 0.16666675000000453,
          "durationTicks": 30,
          "midi": 58,
          "name": "A#3",
          "ticks": 14880,
          "time": 82.666708,
          "velocity": 0.7874015748031497
        },
        {
          "duration": 0.16666674999999032,
          "durationTicks": 30,
          "midi": 58,
          "name": "A#3",
          "ticks": 14910,
          "time": 82.83337475,
          "velocity": 0.7874015748031497
        },
        {
          "duration": 0.16666675000000453,
          "durationTicks": 30,
          "midi": 58,
          "name": "A#3",
          "ticks": 14970,
          "time": 83.16670825,
          "velocity": 0.7874015748031497
        },
        {
          "duration": 0.16666675000000453,
          "durationTicks": 30,
          "midi": 61,
          "name": "C#4",
          "ticks": 15000,
          "time": 83.333375,
          "velocity": 0.7874015748031497
        },
        {
          "duration": 0.16666675000000453,
          "durationTicks": 30,
          "midi": 61,
          "name": "C#4",
          "ticks": 15060,
          "time": 83.6667085,
          "velocity": 0.7874015748031497
        },
        {
          "duration": 0.16666674999999032,
          "durationTicks": 30,
          "midi": 58,
          "name": "A#3",
          "ticks": 15120,
          "time": 84.00004200000001,
          "velocity": 0.7874015748031497
        },
        {
          "duration": 0.16666675000000453,
          "durationTicks": 30,
          "midi": 58,
          "name": "A#3",
          "ticks": 15150,
          "time": 84.16670875,
          "velocity": 0.7874015748031497
        },
        {
          "duration": 0.16666674999999032,
          "durationTicks": 30,
          "midi": 58,
          "name": "A#3",
          "ticks": 15210,
          "time": 84.50004225,
          "velocity": 0.7874015748031497
        },
        {
          "duration": 0.16666675000000453,
          "durationTicks": 30,
          "midi": 61,
          "name": "C#4",
          "ticks": 15240,
          "time": 84.666709,
          "velocity": 0.7874015748031497
        },
        {
          "duration": 0.16666674999999032,
          "durationTicks": 30,
          "midi": 61,
          "name": "C#4",
          "ticks": 15300,
          "time": 85.0000425,
          "velocity": 0.7874015748031497
        },
        {
          "duration": 0.16666675000000453,
          "durationTicks": 30,
          "midi": 58,
          "name": "A#3",
          "ticks": 15360,
          "time": 85.333376,
          "velocity": 0.7874015748031497
        },
        {
          "duration": 0.16666674999999032,
          "durationTicks": 30,
          "midi": 58,
          "name": "A#3",
          "ticks": 15390,
          "time": 85.50004275,
          "velocity": 0.7874015748031497
        },
        {
          "duration": 0.16666675000000453,
          "durationTicks": 30,
          "midi": 58,
          "name": "A#3",
          "ticks": 15450,
          "time": 85.83337625,
          "velocity": 0.7874015748031497
        },
        {
          "duration": 0.16666674999999032,
          "durationTicks": 30,
          "midi": 63,
          "name": "D#4",
          "ticks": 15480,
          "time": 86.000043,
          "velocity": 0.7874015748031497
        },
        {
          "duration": 0.16666675000000453,
          "durationTicks": 30,
          "midi": 63,
          "name": "D#4",
          "ticks": 15540,
          "time": 86.3333765,
          "velocity": 0.7874015748031497
        },
        {
          "duration": 0.16666675000000453,
          "durationTicks": 30,
          "midi": 58,
          "name": "A#3",
          "ticks": 15600,
          "time": 86.66671,
          "velocity": 0.7874015748031497
        },
        {
          "duration": 0.16666675000000453,
          "durationTicks": 30,
          "midi": 58,
          "name": "A#3",
          "ticks": 15630,
          "time": 86.83337675,
          "velocity": 0.7874015748031497
        },
        {
          "duration": 0.16666675000000453,
          "durationTicks": 30,
          "midi": 58,
          "name": "A#3",
          "ticks": 15690,
          "time": 87.16671025,
          "velocity": 0.7874015748031497
        },
        {
          "duration": 0.16666675000000453,
          "durationTicks": 30,
          "midi": 61,
          "name": "C#4",
          "ticks": 15720,
          "time": 87.333377,
          "velocity": 0.7874015748031497
        },
        {
          "duration": 0.16666674999999032,
          "durationTicks": 30,
          "midi": 61,
          "name": "C#4",
          "ticks": 15780,
          "time": 87.66671050000001,
          "velocity": 0.7874015748031497
        },
        {
          "duration": 0.33333349999999484,
          "durationTicks": 60,
          "midi": 58,
          "name": "A#3",
          "ticks": 15840,
          "time": 88.000044,
          "velocity": 0.7874015748031497
        },
        {
          "duration": 0.16666675000000453,
          "durationTicks": 30,
          "midi": 58,
          "name": "A#3",
          "ticks": 15930,
          "time": 88.50004425,
          "velocity": 0.7874015748031497
        },
        {
          "duration": 0.16666674999999032,
          "durationTicks": 30,
          "midi": 61,
          "name": "C#4",
          "ticks": 15960,
          "time": 88.666711,
          "velocity": 0.7874015748031497
        },
        {
          "duration": 0.16666675000000453,
          "durationTicks": 30,
          "midi": 61,
          "name": "C#4",
          "ticks": 16020,
          "time": 89.0000445,
          "velocity": 0.7874015748031497
        },
        {
          "duration": 0.33333350000000905,
          "durationTicks": 60,
          "midi": 58,
          "name": "A#3",
          "ticks": 16080,
          "time": 89.333378,
          "velocity": 0.7874015748031497
        },
        {
          "duration": 0.33333349999999484,
          "durationTicks": 60,
          "midi": 61,
          "name": "C#4",
          "ticks": 16140,
          "time": 89.6667115,
          "velocity": 0.7874015748031497
        },
        {
          "duration": 0.33333349999999484,
          "durationTicks": 60,
          "midi": 58,
          "name": "A#3",
          "ticks": 16200,
          "time": 90.000045,
          "velocity": 0.7874015748031497
        },
        {
          "duration": 0.33333350000000905,
          "durationTicks": 60,
          "midi": 61,
          "name": "C#4",
          "ticks": 16260,
          "time": 90.3333785,
          "velocity": 0.7874015748031497
        },
        {
          "duration": 0.16666674999999032,
          "durationTicks": 30,
          "midi": 58,
          "name": "A#3",
          "ticks": 16320,
          "time": 90.666712,
          "velocity": 0.7874015748031497
        },
        {
          "duration": 0.16666675000000453,
          "durationTicks": 30,
          "midi": 58,
          "name": "A#3",
          "ticks": 16410,
          "time": 91.16671225,
          "velocity": 0.7874015748031497
        },
        {
          "duration": 0.16666674999999032,
          "durationTicks": 30,
          "midi": 61,
          "name": "C#4",
          "ticks": 16440,
          "time": 91.33337900000001,
          "velocity": 0.7874015748031497
        },
        {
          "duration": 0.16666675000000453,
          "durationTicks": 30,
          "midi": 61,
          "name": "C#4",
          "ticks": 16500,
          "time": 91.6667125,
          "velocity": 0.7874015748031497
        },
        {
          "duration": 0.16666675000000453,
          "durationTicks": 30,
          "midi": 56,
          "name": "G#3",
          "ticks": 16560,
          "time": 92.000046,
          "velocity": 0.7874015748031497
        },
        {
          "duration": 0.16666674999999032,
          "durationTicks": 30,
          "midi": 56,
          "name": "G#3",
          "ticks": 16620,
          "time": 92.3333795,
          "velocity": 0.7874015748031497
        },
        {
          "duration": 0.16666675000000453,
          "durationTicks": 30,
          "midi": 61,
          "name": "C#4",
          "ticks": 16680,
          "time": 92.666713,
          "velocity": 0.7874015748031497
        },
        {
          "duration": 0.16666675000000453,
          "durationTicks": 30,
          "midi": 61,
          "name": "C#4",
          "ticks": 16740,
          "time": 93.0000465,
          "velocity": 0.7874015748031497
        },
        {
          "duration": 0.16666674999999032,
          "durationTicks": 30,
          "midi": 58,
          "name": "A#3",
          "ticks": 16800,
          "time": 93.33338,
          "velocity": 0.7874015748031497
        },
        {
          "duration": 0.16666675000000453,
          "durationTicks": 30,
          "midi": 58,
          "name": "A#3",
          "ticks": 16830,
          "time": 93.50004675,
          "velocity": 0.7874015748031497
        },
        {
          "duration": 0.16666674999999032,
          "durationTicks": 30,
          "midi": 58,
          "name": "A#3",
          "ticks": 16890,
          "time": 93.83338025,
          "velocity": 0.7874015748031497
        },
        {
          "duration": 0.16666675000000453,
          "durationTicks": 30,
          "midi": 61,
          "name": "C#4",
          "ticks": 16920,
          "time": 94.000047,
          "velocity": 0.7874015748031497
        },
        {
          "duration": 0.16666674999999032,
          "durationTicks": 30,
          "midi": 61,
          "name": "C#4",
          "ticks": 16980,
          "time": 94.3333805,
          "velocity": 0.7874015748031497
        },
        {
          "duration": 0.16666675000000453,
          "durationTicks": 30,
          "midi": 58,
          "name": "A#3",
          "ticks": 17040,
          "time": 94.666714,
          "velocity": 0.7874015748031497
        },
        {
          "duration": 0.16666675000000453,
          "durationTicks": 30,
          "midi": 58,
          "name": "A#3",
          "ticks": 17070,
          "time": 94.83338075,
          "velocity": 0.7874015748031497
        },
        {
          "duration": 0.16666675000000453,
          "durationTicks": 30,
          "midi": 58,
          "name": "A#3",
          "ticks": 17130,
          "time": 95.16671425,
          "velocity": 0.7874015748031497
        },
        {
          "duration": 0.16666675000000453,
          "durationTicks": 30,
          "midi": 61,
          "name": "C#4",
          "ticks": 17160,
          "time": 95.333381,
          "velocity": 0.7874015748031497
        },
        {
          "duration": 0.16666675000000453,
          "durationTicks": 30,
          "midi": 61,
          "name": "C#4",
          "ticks": 17220,
          "time": 95.6667145,
          "velocity": 0.7874015748031497
        },
        {
          "duration": 0.16666674999999032,
          "durationTicks": 30,
          "midi": 58,
          "name": "A#3",
          "ticks": 17280,
          "time": 96.000048,
          "velocity": 0.7874015748031497
        },
        {
          "duration": 0.16666675000000453,
          "durationTicks": 30,
          "midi": 58,
          "name": "A#3",
          "ticks": 17310,
          "time": 96.16671475,
          "velocity": 0.7874015748031497
        },
        {
          "duration": 0.16666674999999032,
          "durationTicks": 30,
          "midi": 58,
          "name": "A#3",
          "ticks": 17370,
          "time": 96.50004825,
          "velocity": 0.7874015748031497
        },
        {
          "duration": 0.16666675000000453,
          "durationTicks": 30,
          "midi": 63,
          "name": "D#4",
          "ticks": 17400,
          "time": 96.666715,
          "velocity": 0.7874015748031497
        },
        {
          "duration": 0.16666674999999032,
          "durationTicks": 30,
          "midi": 63,
          "name": "D#4",
          "ticks": 17460,
          "time": 97.0000485,
          "velocity": 0.7874015748031497
        },
        {
          "duration": 0.16666675000000453,
          "durationTicks": 30,
          "midi": 58,
          "name": "A#3",
          "ticks": 17520,
          "time": 97.333382,
          "velocity": 0.7874015748031497
        },
        {
          "duration": 0.16666674999999032,
          "durationTicks": 30,
          "midi": 58,
          "name": "A#3",
          "ticks": 17550,
          "time": 97.50004875,
          "velocity": 0.7874015748031497
        },
        {
          "duration": 0.16666675000000453,
          "durationTicks": 30,
          "midi": 58,
          "name": "A#3",
          "ticks": 17610,
          "time": 97.83338225,
          "velocity": 0.7874015748031497
        },
        {
          "duration": 0.16666674999999032,
          "durationTicks": 30,
          "midi": 61,
          "name": "C#4",
          "ticks": 17640,
          "time": 98.000049,
          "velocity": 0.7874015748031497
        },
        {
          "duration": 0.16666675000000453,
          "durationTicks": 30,
          "midi": 61,
          "name": "C#4",
          "ticks": 17700,
          "time": 98.3333825,
          "velocity": 0.7874015748031497
        },
        {
          "duration": 0.33333349999999484,
          "durationTicks": 60,
          "midi": 58,
          "name": "A#3",
          "ticks": 17760,
          "time": 98.66671600000001,
          "velocity": 0.7874015748031497
        },
        {
          "duration": 0.16666674999999032,
          "durationTicks": 30,
          "midi": 58,
          "name": "A#3",
          "ticks": 17850,
          "time": 99.16671625000001,
          "velocity": 0.7874015748031497
        },
        {
          "duration": 0.16666675000000453,
          "durationTicks": 30,
          "midi": 61,
          "name": "C#4",
          "ticks": 17880,
          "time": 99.333383,
          "velocity": 0.7874015748031497
        },
        {
          "duration": 0.16666674999999032,
          "durationTicks": 30,
          "midi": 61,
          "name": "C#4",
          "ticks": 17940,
          "time": 99.6667165,
          "velocity": 0.7874015748031497
        },
        {
          "duration": 0.33333349999999484,
          "durationTicks": 60,
          "midi": 58,
          "name": "A#3",
          "ticks": 18000,
          "time": 100.00005,
          "velocity": 0.7874015748031497
        },
        {
          "duration": 0.33333350000000905,
          "durationTicks": 60,
          "midi": 61,
          "name": "C#4",
          "ticks": 18060,
          "time": 100.3333835,
          "velocity": 0.7874015748031497
        },
        {
          "duration": 0.33333349999999484,
          "durationTicks": 60,
          "midi": 58,
          "name": "A#3",
          "ticks": 18120,
          "time": 100.666717,
          "velocity": 0.7874015748031497
        },
        {
          "duration": 0.33333349999999484,
          "durationTicks": 60,
          "midi": 61,
          "name": "C#4",
          "ticks": 18180,
          "time": 101.0000505,
          "velocity": 0.7874015748031497
        },
        {
          "duration": 0.16666675000000453,
          "durationTicks": 30,
          "midi": 58,
          "name": "A#3",
          "ticks": 18240,
          "time": 101.333384,
          "velocity": 0.7874015748031497
        },
        {
          "duration": 0.16666675000000453,
          "durationTicks": 30,
          "midi": 58,
          "name": "A#3",
          "ticks": 18330,
          "time": 101.83338425,
          "velocity": 0.7874015748031497
        },
        {
          "duration": 0.16666675000000453,
          "durationTicks": 30,
          "midi": 61,
          "name": "C#4",
          "ticks": 18360,
          "time": 102.000051,
          "velocity": 0.7874015748031497
        },
        {
          "duration": 0.16666674999999032,
          "durationTicks": 30,
          "midi": 61,
          "name": "C#4",
          "ticks": 18420,
          "time": 102.33338450000001,
          "velocity": 0.7874015748031497
        },
        {
          "duration": 0.16666675000000453,
          "durationTicks": 30,
          "midi": 56,
          "name": "G#3",
          "ticks": 18480,
          "time": 102.666718,
          "velocity": 0.7874015748031497
        },
        {
          "duration": 0.16666675000000453,
          "durationTicks": 30,
          "midi": 56,
          "name": "G#3",
          "ticks": 18540,
          "time": 103.0000515,
          "velocity": 0.7874015748031497
        },
        {
          "duration": 0.16666674999999032,
          "durationTicks": 30,
          "midi": 61,
          "name": "C#4",
          "ticks": 18600,
          "time": 103.333385,
          "velocity": 0.7874015748031497
        },
        {
          "duration": 0.16666675000000453,
          "durationTicks": 30,
          "midi": 61,
          "name": "C#4",
          "ticks": 18660,
          "time": 103.6667185,
          "velocity": 0.7874015748031497
        },
        {
          "duration": 0.16666675000000453,
          "durationTicks": 30,
          "midi": 58,
          "name": "A#3",
          "ticks": 18720,
          "time": 104.000052,
          "velocity": 0.7874015748031497
        },
        {
          "duration": 0.16666675000000453,
          "durationTicks": 30,
          "midi": 58,
          "name": "A#3",
          "ticks": 18750,
          "time": 104.16671875,
          "velocity": 0.7874015748031497
        },
        {
          "duration": 0.16666675000000453,
          "durationTicks": 30,
          "midi": 58,
          "name": "A#3",
          "ticks": 18810,
          "time": 104.50005225,
          "velocity": 0.7874015748031497
        },
        {
          "duration": 0.16666675000000453,
          "durationTicks": 30,
          "midi": 61,
          "name": "C#4",
          "ticks": 18840,
          "time": 104.666719,
          "velocity": 0.7874015748031497
        },
        {
          "duration": 0.16666675000000453,
          "durationTicks": 30,
          "midi": 61,
          "name": "C#4",
          "ticks": 18900,
          "time": 105.0000525,
          "velocity": 0.7874015748031497
        },
        {
          "duration": 0.16666674999999032,
          "durationTicks": 30,
          "midi": 58,
          "name": "A#3",
          "ticks": 18960,
          "time": 105.333386,
          "velocity": 0.7874015748031497
        },
        {
          "duration": 0.16666675000000453,
          "durationTicks": 30,
          "midi": 58,
          "name": "A#3",
          "ticks": 18990,
          "time": 105.50005275,
          "velocity": 0.7874015748031497
        },
        {
          "duration": 0.16666675000000453,
          "durationTicks": 30,
          "midi": 58,
          "name": "A#3",
          "ticks": 19050,
          "time": 105.83338625,
          "velocity": 0.7874015748031497
        },
        {
          "duration": 0.16666674999999032,
          "durationTicks": 30,
          "midi": 61,
          "name": "C#4",
          "ticks": 19080,
          "time": 106.00005300000001,
          "velocity": 0.7874015748031497
        },
        {
          "duration": 0.16666675000000453,
          "durationTicks": 30,
          "midi": 61,
          "name": "C#4",
          "ticks": 19140,
          "time": 106.3333865,
          "velocity": 0.7874015748031497
        },
        {
          "duration": 0.16666675000000453,
          "durationTicks": 30,
          "midi": 58,
          "name": "A#3",
          "ticks": 19200,
          "time": 106.66672,
          "velocity": 0.7874015748031497
        },
        {
          "duration": 0.16666675000000453,
          "durationTicks": 30,
          "midi": 58,
          "name": "A#3",
          "ticks": 19230,
          "time": 106.83338675,
          "velocity": 0.7874015748031497
        },
        {
          "duration": 0.16666675000000453,
          "durationTicks": 30,
          "midi": 58,
          "name": "A#3",
          "ticks": 19290,
          "time": 107.16672025,
          "velocity": 0.7874015748031497
        },
        {
          "duration": 0.16666675000000453,
          "durationTicks": 30,
          "midi": 63,
          "name": "D#4",
          "ticks": 19320,
          "time": 107.333387,
          "velocity": 0.7874015748031497
        },
        {
          "duration": 0.16666675000000453,
          "durationTicks": 30,
          "midi": 63,
          "name": "D#4",
          "ticks": 19380,
          "time": 107.6667205,
          "velocity": 0.7874015748031497
        },
        {
          "duration": 0.16666674999999032,
          "durationTicks": 30,
          "midi": 58,
          "name": "A#3",
          "ticks": 19440,
          "time": 108.000054,
          "velocity": 0.7874015748031497
        },
        {
          "duration": 0.16666675000000453,
          "durationTicks": 30,
          "midi": 58,
          "name": "A#3",
          "ticks": 19470,
          "time": 108.16672075,
          "velocity": 0.7874015748031497
        },
        {
          "duration": 0.16666674999999032,
          "durationTicks": 30,
          "midi": 58,
          "name": "A#3",
          "ticks": 19530,
          "time": 108.50005425,
          "velocity": 0.7874015748031497
        },
        {
          "duration": 0.16666675000000453,
          "durationTicks": 30,
          "midi": 61,
          "name": "C#4",
          "ticks": 19560,
          "time": 108.666721,
          "velocity": 0.7874015748031497
        },
        {
          "duration": 0.16666674999999032,
          "durationTicks": 30,
          "midi": 61,
          "name": "C#4",
          "ticks": 19620,
          "time": 109.0000545,
          "velocity": 0.7874015748031497
        },
        {
          "duration": 0.33333350000000905,
          "durationTicks": 60,
          "midi": 58,
          "name": "A#3",
          "ticks": 19680,
          "time": 109.333388,
          "velocity": 0.7874015748031497
        },
        {
          "duration": 0.16666675000000453,
          "durationTicks": 30,
          "midi": 58,
          "name": "A#3",
          "ticks": 19770,
          "time": 109.83338825,
          "velocity": 0.7874015748031497
        },
        {
          "duration": 0.16666675000000453,
          "durationTicks": 30,
          "midi": 61,
          "name": "C#4",
          "ticks": 19800,
          "time": 110.000055,
          "velocity": 0.7874015748031497
        },
        {
          "duration": 0.16666675000000453,
          "durationTicks": 30,
          "midi": 61,
          "name": "C#4",
          "ticks": 19860,
          "time": 110.3333885,
          "velocity": 0.7874015748031497
        },
        {
          "duration": 0.33333349999999484,
          "durationTicks": 60,
          "midi": 58,
          "name": "A#3",
          "ticks": 19920,
          "time": 110.66672200000001,
          "velocity": 0.7874015748031497
        },
        {
          "duration": 0.33333349999999484,
          "durationTicks": 60,
          "midi": 61,
          "name": "C#4",
          "ticks": 19980,
          "time": 111.0000555,
          "velocity": 0.7874015748031497
        },
        {
          "duration": 0.33333350000000905,
          "durationTicks": 60,
          "midi": 58,
          "name": "A#3",
          "ticks": 20040,
          "time": 111.333389,
          "velocity": 0.7874015748031497
        },
        {
          "duration": 0.33333349999999484,
          "durationTicks": 60,
          "midi": 61,
          "name": "C#4",
          "ticks": 20100,
          "time": 111.6667225,
          "velocity": 0.7874015748031497
        },
        {
          "duration": 0.16666675000000453,
          "durationTicks": 30,
          "midi": 58,
          "name": "A#3",
          "ticks": 20160,
          "time": 112.000056,
          "velocity": 0.7874015748031497
        },
        {
          "duration": 0.16666675000000453,
          "durationTicks": 30,
          "midi": 58,
          "name": "A#3",
          "ticks": 20250,
          "time": 112.50005625,
          "velocity": 0.7874015748031497
        },
        {
          "duration": 0.16666674999999032,
          "durationTicks": 30,
          "midi": 61,
          "name": "C#4",
          "ticks": 20280,
          "time": 112.666723,
          "velocity": 0.7874015748031497
        },
        {
          "duration": 0.16666675000000453,
          "durationTicks": 30,
          "midi": 61,
          "name": "C#4",
          "ticks": 20340,
          "time": 113.0000565,
          "velocity": 0.7874015748031497
        },
        {
          "duration": 0.16666674999999032,
          "durationTicks": 30,
          "midi": 56,
          "name": "G#3",
          "ticks": 20400,
          "time": 113.33339000000001,
          "velocity": 0.7874015748031497
        },
        {
          "duration": 0.16666675000000453,
          "durationTicks": 30,
          "midi": 56,
          "name": "G#3",
          "ticks": 20460,
          "time": 113.6667235,
          "velocity": 0.7874015748031497
        },
        {
          "duration": 0.16666675000000453,
          "durationTicks": 30,
          "midi": 61,
          "name": "C#4",
          "ticks": 20520,
          "time": 114.000057,
          "velocity": 0.7874015748031497
        },
        {
          "duration": 0.16666674999999032,
          "durationTicks": 30,
          "midi": 61,
          "name": "C#4",
          "ticks": 20580,
          "time": 114.33339050000001,
          "velocity": 0.7874015748031497
        },
        {
          "duration": 0.16666675000000453,
          "durationTicks": 30,
          "midi": 58,
          "name": "A#3",
          "ticks": 20640,
          "time": 114.666724,
          "velocity": 0.7874015748031497
        },
        {
          "duration": 0.16666674999999032,
          "durationTicks": 30,
          "midi": 58,
          "name": "A#3",
          "ticks": 20670,
          "time": 114.83339075,
          "velocity": 0.7874015748031497
        },
        {
          "duration": 0.16666675000000453,
          "durationTicks": 30,
          "midi": 58,
          "name": "A#3",
          "ticks": 20730,
          "time": 115.16672425,
          "velocity": 0.7874015748031497
        },
        {
          "duration": 0.16666674999999032,
          "durationTicks": 30,
          "midi": 61,
          "name": "C#4",
          "ticks": 20760,
          "time": 115.333391,
          "velocity": 0.7874015748031497
        },
        {
          "duration": 0.16666675000000453,
          "durationTicks": 30,
          "midi": 61,
          "name": "C#4",
          "ticks": 20820,
          "time": 115.6667245,
          "velocity": 0.7874015748031497
        },
        {
          "duration": 0.16666675000000453,
          "durationTicks": 30,
          "midi": 58,
          "name": "A#3",
          "ticks": 20880,
          "time": 116.000058,
          "velocity": 0.7874015748031497
        },
        {
          "duration": 0.16666675000000453,
          "durationTicks": 30,
          "midi": 58,
          "name": "A#3",
          "ticks": 20910,
          "time": 116.16672475,
          "velocity": 0.7874015748031497
        },
        {
          "duration": 0.16666675000000453,
          "durationTicks": 30,
          "midi": 58,
          "name": "A#3",
          "ticks": 20970,
          "time": 116.50005825,
          "velocity": 0.7874015748031497
        },
        {
          "duration": 0.16666675000000453,
          "durationTicks": 30,
          "midi": 61,
          "name": "C#4",
          "ticks": 21000,
          "time": 116.666725,
          "velocity": 0.7874015748031497
        },
        {
          "duration": 0.16666674999999032,
          "durationTicks": 30,
          "midi": 61,
          "name": "C#4",
          "ticks": 21060,
          "time": 117.00005850000001,
          "velocity": 0.7874015748031497
        },
        {
          "duration": 0.16666675000000453,
          "durationTicks": 30,
          "midi": 58,
          "name": "A#3",
          "ticks": 21120,
          "time": 117.333392,
          "velocity": 0.7874015748031497
        },
        {
          "duration": 0.16666674999999032,
          "durationTicks": 30,
          "midi": 58,
          "name": "A#3",
          "ticks": 21150,
          "time": 117.50005875000001,
          "velocity": 0.7874015748031497
        },
        {
          "duration": 0.16666675000000453,
          "durationTicks": 30,
          "midi": 58,
          "name": "A#3",
          "ticks": 21210,
          "time": 117.83339225,
          "velocity": 0.7874015748031497
        },
        {
          "duration": 0.16666674999999032,
          "durationTicks": 30,
          "midi": 63,
          "name": "D#4",
          "ticks": 21240,
          "time": 118.00005900000001,
          "velocity": 0.7874015748031497
        },
        {
          "duration": 0.16666675000000453,
          "durationTicks": 30,
          "midi": 63,
          "name": "D#4",
          "ticks": 21300,
          "time": 118.3333925,
          "velocity": 0.7874015748031497
        },
        {
          "duration": 0.16666675000000453,
          "durationTicks": 30,
          "midi": 58,
          "name": "A#3",
          "ticks": 21360,
          "time": 118.666726,
          "velocity": 0.7874015748031497
        },
        {
          "duration": 0.16666675000000453,
          "durationTicks": 30,
          "midi": 58,
          "name": "A#3",
          "ticks": 21390,
          "time": 118.83339275,
          "velocity": 0.7874015748031497
        },
        {
          "duration": 0.16666675000000453,
          "durationTicks": 30,
          "midi": 58,
          "name": "A#3",
          "ticks": 21450,
          "time": 119.16672625,
          "velocity": 0.7874015748031497
        },
        {
          "duration": 0.16666675000000453,
          "durationTicks": 30,
          "midi": 61,
          "name": "C#4",
          "ticks": 21480,
          "time": 119.333393,
          "velocity": 0.7874015748031497
        },
        {
          "duration": 0.16666675000000453,
          "durationTicks": 30,
          "midi": 61,
          "name": "C#4",
          "ticks": 21540,
          "time": 119.6667265,
          "velocity": 0.7874015748031497
        },
        {
          "duration": 0.33333349999999484,
          "durationTicks": 60,
          "midi": 58,
          "name": "A#3",
          "ticks": 21600,
          "time": 120.00006,
          "velocity": 0.7874015748031497
        },
        {
          "duration": 0.16666675000000453,
          "durationTicks": 30,
          "midi": 58,
          "name": "A#3",
          "ticks": 21690,
          "time": 120.50006025,
          "velocity": 0.7874015748031497
        },
        {
          "duration": 0.16666674999999032,
          "durationTicks": 30,
          "midi": 61,
          "name": "C#4",
          "ticks": 21720,
          "time": 120.66672700000001,
          "velocity": 0.7874015748031497
        },
        {
          "duration": 0.16666675000000453,
          "durationTicks": 30,
          "midi": 61,
          "name": "C#4",
          "ticks": 21780,
          "time": 121.0000605,
          "velocity": 0.7874015748031497
        },
        {
          "duration": 0.33333350000000905,
          "durationTicks": 60,
          "midi": 58,
          "name": "A#3",
          "ticks": 21840,
          "time": 121.333394,
          "velocity": 0.7874015748031497
        },
        {
          "duration": 0.33333349999999484,
          "durationTicks": 60,
          "midi": 61,
          "name": "C#4",
          "ticks": 21900,
          "time": 121.66672750000001,
          "velocity": 0.7874015748031497
        },
        {
          "duration": 0.33333349999999484,
          "durationTicks": 60,
          "midi": 58,
          "name": "A#3",
          "ticks": 21960,
          "time": 122.000061,
          "velocity": 0.7874015748031497
        },
        {
          "duration": 0.33333350000000905,
          "durationTicks": 60,
          "midi": 61,
          "name": "C#4",
          "ticks": 22020,
          "time": 122.3333945,
          "velocity": 0.7874015748031497
        },
        {
          "duration": 0.16666674999999032,
          "durationTicks": 30,
          "midi": 58,
          "name": "A#3",
          "ticks": 22080,
          "time": 122.666728,
          "velocity": 0.7874015748031497
        },
        {
          "duration": 0.16666674999999032,
          "durationTicks": 30,
          "midi": 58,
          "name": "A#3",
          "ticks": 22170,
          "time": 123.16672825,
          "velocity": 0.7874015748031497
        },
        {
          "duration": 0.16666675000000453,
          "durationTicks": 30,
          "midi": 61,
          "name": "C#4",
          "ticks": 22200,
          "time": 123.333395,
          "velocity": 0.7874015748031497
        },
        {
          "duration": 0.16666674999999032,
          "durationTicks": 30,
          "midi": 61,
          "name": "C#4",
          "ticks": 22260,
          "time": 123.6667285,
          "velocity": 0.7874015748031497
        },
        {
          "duration": 0.16666675000000453,
          "durationTicks": 30,
          "midi": 56,
          "name": "G#3",
          "ticks": 22320,
          "time": 124.000062,
          "velocity": 0.7874015748031497
        },
        {
          "duration": 0.16666674999999032,
          "durationTicks": 30,
          "midi": 56,
          "name": "G#3",
          "ticks": 22380,
          "time": 124.33339550000001,
          "velocity": 0.7874015748031497
        },
        {
          "duration": 0.16666675000000453,
          "durationTicks": 30,
          "midi": 61,
          "name": "C#4",
          "ticks": 22440,
          "time": 124.666729,
          "velocity": 0.7874015748031497
        },
        {
          "duration": 0.16666675000000453,
          "durationTicks": 30,
          "midi": 61,
          "name": "C#4",
          "ticks": 22500,
          "time": 125.0000625,
          "velocity": 0.7874015748031497
        },
        {
          "duration": 0.16666674999999032,
          "durationTicks": 30,
          "midi": 58,
          "name": "A#3",
          "ticks": 22560,
          "time": 125.33339600000001,
          "velocity": 0.7874015748031497
        },
        {
          "duration": 0.16666675000000453,
          "durationTicks": 30,
          "midi": 58,
          "name": "A#3",
          "ticks": 22590,
          "time": 125.50006275,
          "velocity": 0.7874015748031497
        },
        {
          "duration": 0.16666674999999032,
          "durationTicks": 30,
          "midi": 58,
          "name": "A#3",
          "ticks": 22650,
          "time": 125.83339625,
          "velocity": 0.7874015748031497
        },
        {
          "duration": 0.16666675000000453,
          "durationTicks": 30,
          "midi": 61,
          "name": "C#4",
          "ticks": 22680,
          "time": 126.000063,
          "velocity": 0.7874015748031497
        },
        {
          "duration": 0.16666674999999032,
          "durationTicks": 30,
          "midi": 61,
          "name": "C#4",
          "ticks": 22740,
          "time": 126.3333965,
          "velocity": 0.7874015748031497
        },
        {
          "duration": 0.16666675000000453,
          "durationTicks": 30,
          "midi": 58,
          "name": "A#3",
          "ticks": 22800,
          "time": 126.66673,
          "velocity": 0.7874015748031497
        },
        {
          "duration": 0.16666674999999032,
          "durationTicks": 30,
          "midi": 58,
          "name": "A#3",
          "ticks": 22830,
          "time": 126.83339675,
          "velocity": 0.7874015748031497
        },
        {
          "duration": 0.16666675000000453,
          "durationTicks": 30,
          "midi": 58,
          "name": "A#3",
          "ticks": 22890,
          "time": 127.16673025,
          "velocity": 0.7874015748031497
        },
        {
          "duration": 0.16666674999999032,
          "durationTicks": 30,
          "midi": 61,
          "name": "C#4",
          "ticks": 22920,
          "time": 127.333397,
          "velocity": 0.7874015748031497
        },
        {
          "duration": 0.16666675000000453,
          "durationTicks": 30,
          "midi": 61,
          "name": "C#4",
          "ticks": 22980,
          "time": 127.6667305,
          "velocity": 0.7874015748031497
        },
        {
          "duration": 0.16666674999999032,
          "durationTicks": 30,
          "midi": 58,
          "name": "A#3",
          "ticks": 23040,
          "time": 128.000064,
          "velocity": 0.7874015748031497
        },
        {
          "duration": 0.16666674999999032,
          "durationTicks": 30,
          "midi": 58,
          "name": "A#3",
          "ticks": 23070,
          "time": 128.16673075,
          "velocity": 0.7874015748031497
        },
        {
          "duration": 0.16666674999999032,
          "durationTicks": 30,
          "midi": 58,
          "name": "A#3",
          "ticks": 23130,
          "time": 128.50006425,
          "velocity": 0.7874015748031497
        },
        {
          "duration": 0.16666674999999032,
          "durationTicks": 30,
          "midi": 63,
          "name": "D#4",
          "ticks": 23160,
          "time": 128.666731,
          "velocity": 0.7874015748031497
        },
        {
          "duration": 0.16666674999999032,
          "durationTicks": 30,
          "midi": 63,
          "name": "D#4",
          "ticks": 23220,
          "time": 129.0000645,
          "velocity": 0.7874015748031497
        },
        {
          "duration": 0.16666675000001874,
          "durationTicks": 30,
          "midi": 58,
          "name": "A#3",
          "ticks": 23280,
          "time": 129.333398,
          "velocity": 0.7874015748031497
        },
        {
          "duration": 0.16666674999999032,
          "durationTicks": 30,
          "midi": 58,
          "name": "A#3",
          "ticks": 23310,
          "time": 129.50006475,
          "velocity": 0.7874015748031497
        },
        {
          "duration": 0.16666675000001874,
          "durationTicks": 30,
          "midi": 58,
          "name": "A#3",
          "ticks": 23370,
          "time": 129.83339825,
          "velocity": 0.7874015748031497
        },
        {
          "duration": 0.16666674999999032,
          "durationTicks": 30,
          "midi": 61,
          "name": "C#4",
          "ticks": 23400,
          "time": 130.000065,
          "velocity": 0.7874015748031497
        },
        {
          "duration": 0.16666674999999032,
          "durationTicks": 30,
          "midi": 61,
          "name": "C#4",
          "ticks": 23460,
          "time": 130.33339850000002,
          "velocity": 0.7874015748031497
        },
        {
          "duration": 0.33333350000000905,
          "durationTicks": 60,
          "midi": 58,
          "name": "A#3",
          "ticks": 23520,
          "time": 130.666732,
          "velocity": 0.7874015748031497
        },
        {
          "duration": 0.16666675000001874,
          "durationTicks": 30,
          "midi": 58,
          "name": "A#3",
          "ticks": 23610,
          "time": 131.16673225,
          "velocity": 0.7874015748031497
        },
        {
          "duration": 0.16666674999999032,
          "durationTicks": 30,
          "midi": 61,
          "name": "C#4",
          "ticks": 23640,
          "time": 131.33339900000001,
          "velocity": 0.7874015748031497
        },
        {
          "duration": 0.16666675000001874,
          "durationTicks": 30,
          "midi": 61,
          "name": "C#4",
          "ticks": 23700,
          "time": 131.6667325,
          "velocity": 0.7874015748031497
        },
        {
          "duration": 0.33333350000000905,
          "durationTicks": 60,
          "midi": 58,
          "name": "A#3",
          "ticks": 23760,
          "time": 132.000066,
          "velocity": 0.7874015748031497
        },
        {
          "duration": 0.33333349999998063,
          "durationTicks": 60,
          "midi": 61,
          "name": "C#4",
          "ticks": 23820,
          "time": 132.3333995,
          "velocity": 0.7874015748031497
        },
        {
          "duration": 0.33333350000000905,
          "durationTicks": 60,
          "midi": 58,
          "name": "A#3",
          "ticks": 23880,
          "time": 132.666733,
          "velocity": 0.7874015748031497
        },
        {
          "duration": 0.33333350000000905,
          "durationTicks": 60,
          "midi": 61,
          "name": "C#4",
          "ticks": 23940,
          "time": 133.0000665,
          "velocity": 0.7874015748031497
        },
        {
          "duration": 0.16666674999999032,
          "durationTicks": 30,
          "midi": 58,
          "name": "A#3",
          "ticks": 24000,
          "time": 133.3334,
          "velocity": 0.7874015748031497
        },
        {
          "duration": 0.16666674999999032,
          "durationTicks": 30,
          "midi": 58,
          "name": "A#3",
          "ticks": 24090,
          "time": 133.83340025,
          "velocity": 0.7874015748031497
        },
        {
          "duration": 0.16666674999999032,
          "durationTicks": 30,
          "midi": 61,
          "name": "C#4",
          "ticks": 24120,
          "time": 134.000067,
          "velocity": 0.7874015748031497
        },
        {
          "duration": 0.16666674999999032,
          "durationTicks": 30,
          "midi": 61,
          "name": "C#4",
          "ticks": 24180,
          "time": 134.3334005,
          "velocity": 0.7874015748031497
        },
        {
          "duration": 0.16666675000001874,
          "durationTicks": 30,
          "midi": 56,
          "name": "G#3",
          "ticks": 24240,
          "time": 134.666734,
          "velocity": 0.7874015748031497
        },
        {
          "duration": 0.16666674999999032,
          "durationTicks": 30,
          "midi": 56,
          "name": "G#3",
          "ticks": 24300,
          "time": 135.0000675,
          "velocity": 0.7874015748031497
        },
        {
          "duration": 0.16666674999999032,
          "durationTicks": 30,
          "midi": 61,
          "name": "C#4",
          "ticks": 24360,
          "time": 135.333401,
          "velocity": 0.7874015748031497
        },
        {
          "duration": 0.16666675000001874,
          "durationTicks": 30,
          "midi": 61,
          "name": "C#4",
          "ticks": 24420,
          "time": 135.6667345,
          "velocity": 0.7874015748031497
        },
        {
          "duration": 0.16666674999999032,
          "durationTicks": 30,
          "midi": 58,
          "name": "A#3",
          "ticks": 24480,
          "time": 136.000068,
          "velocity": 0.7874015748031497
        },
        {
          "duration": 0.16666675000001874,
          "durationTicks": 30,
          "midi": 58,
          "name": "A#3",
          "ticks": 24510,
          "time": 136.16673475,
          "velocity": 0.7874015748031497
        },
        {
          "duration": 0.16666674999999032,
          "durationTicks": 30,
          "midi": 58,
          "name": "A#3",
          "ticks": 24570,
          "time": 136.50006825,
          "velocity": 0.7874015748031497
        },
        {
          "duration": 0.16666675000001874,
          "durationTicks": 30,
          "midi": 61,
          "name": "C#4",
          "ticks": 24600,
          "time": 136.666735,
          "velocity": 0.7874015748031497
        },
        {
          "duration": 0.16666674999999032,
          "durationTicks": 30,
          "midi": 61,
          "name": "C#4",
          "ticks": 24660,
          "time": 137.0000685,
          "velocity": 0.7874015748031497
        },
        {
          "duration": 0.16666674999999032,
          "durationTicks": 30,
          "midi": 58,
          "name": "A#3",
          "ticks": 24720,
          "time": 137.333402,
          "velocity": 0.7874015748031497
        },
        {
          "duration": 0.16666675000001874,
          "durationTicks": 30,
          "midi": 58,
          "name": "A#3",
          "ticks": 24750,
          "time": 137.50006875,
          "velocity": 0.7874015748031497
        },
        {
          "duration": 0.16666674999999032,
          "durationTicks": 30,
          "midi": 58,
          "name": "A#3",
          "ticks": 24810,
          "time": 137.83340225,
          "velocity": 0.7874015748031497
        },
        {
          "duration": 0.16666675000001874,
          "durationTicks": 30,
          "midi": 61,
          "name": "C#4",
          "ticks": 24840,
          "time": 138.000069,
          "velocity": 0.7874015748031497
        },
        {
          "duration": 0.16666674999999032,
          "durationTicks": 30,
          "midi": 61,
          "name": "C#4",
          "ticks": 24900,
          "time": 138.3334025,
          "velocity": 0.7874015748031497
        },
        {
          "duration": 0.16666674999999032,
          "durationTicks": 30,
          "midi": 58,
          "name": "A#3",
          "ticks": 24960,
          "time": 138.66673600000001,
          "velocity": 0.7874015748031497
        },
        {
          "duration": 0.16666674999999032,
          "durationTicks": 30,
          "midi": 58,
          "name": "A#3",
          "ticks": 24990,
          "time": 138.83340275,
          "velocity": 0.7874015748031497
        },
        {
          "duration": 0.16666674999999032,
          "durationTicks": 30,
          "midi": 58,
          "name": "A#3",
          "ticks": 25050,
          "time": 139.16673625,
          "velocity": 0.7874015748031497
        },
        {
          "duration": 0.16666674999999032,
          "durationTicks": 30,
          "midi": 63,
          "name": "D#4",
          "ticks": 25080,
          "time": 139.333403,
          "velocity": 0.7874015748031497
        },
        {
          "duration": 0.16666674999999032,
          "durationTicks": 30,
          "midi": 63,
          "name": "D#4",
          "ticks": 25140,
          "time": 139.6667365,
          "velocity": 0.7874015748031497
        },
        {
          "duration": 0.16666675000001874,
          "durationTicks": 30,
          "midi": 58,
          "name": "A#3",
          "ticks": 25200,
          "time": 140.00007,
          "velocity": 0.7874015748031497
        },
        {
          "duration": 0.16666674999999032,
          "durationTicks": 30,
          "midi": 58,
          "name": "A#3",
          "ticks": 25230,
          "time": 140.16673675,
          "velocity": 0.7874015748031497
        },
        {
          "duration": 0.16666675000001874,
          "durationTicks": 30,
          "midi": 58,
          "name": "A#3",
          "ticks": 25290,
          "time": 140.50007025,
          "velocity": 0.7874015748031497
        },
        {
          "duration": 0.16666674999999032,
          "durationTicks": 30,
          "midi": 61,
          "name": "C#4",
          "ticks": 25320,
          "time": 140.666737,
          "velocity": 0.7874015748031497
        },
        {
          "duration": 0.16666675000001874,
          "durationTicks": 30,
          "midi": 61,
          "name": "C#4",
          "ticks": 25380,
          "time": 141.0000705,
          "velocity": 0.7874015748031497
        },
        {
          "duration": 0.33333350000000905,
          "durationTicks": 60,
          "midi": 58,
          "name": "A#3",
          "ticks": 25440,
          "time": 141.333404,
          "velocity": 0.7874015748031497
        },
        {
          "duration": 0.16666674999999032,
          "durationTicks": 30,
          "midi": 58,
          "name": "A#3",
          "ticks": 25530,
          "time": 141.83340425,
          "velocity": 0.7874015748031497
        },
        {
          "duration": 0.16666675000001874,
          "durationTicks": 30,
          "midi": 61,
          "name": "C#4",
          "ticks": 25560,
          "time": 142.000071,
          "velocity": 0.7874015748031497
        },
        {
          "duration": 0.16666674999999032,
          "durationTicks": 30,
          "midi": 61,
          "name": "C#4",
          "ticks": 25620,
          "time": 142.3334045,
          "velocity": 0.7874015748031497
        },
        {
          "duration": 0.33333349999998063,
          "durationTicks": 60,
          "midi": 58,
          "name": "A#3",
          "ticks": 25680,
          "time": 142.666738,
          "velocity": 0.7874015748031497
        },
        {
          "duration": 0.33333350000000905,
          "durationTicks": 60,
          "midi": 61,
          "name": "C#4",
          "ticks": 25740,
          "time": 143.0000715,
          "velocity": 0.7874015748031497
        },
        {
          "duration": 0.33333350000000905,
          "durationTicks": 60,
          "midi": 58,
          "name": "A#3",
          "ticks": 25800,
          "time": 143.333405,
          "velocity": 0.7874015748031497
        },
        {
          "duration": 0.33333349999998063,
          "durationTicks": 60,
          "midi": 61,
          "name": "C#4",
          "ticks": 25860,
          "time": 143.6667385,
          "velocity": 0.7874015748031497
        },
        {
          "duration": 0.16666675000001874,
          "durationTicks": 30,
          "midi": 58,
          "name": "A#3",
          "ticks": 25920,
          "time": 144.000072,
          "velocity": 0.7874015748031497
        },
        {
          "duration": 0.16666675000001874,
          "durationTicks": 30,
          "midi": 58,
          "name": "A#3",
          "ticks": 26010,
          "time": 144.50007225,
          "velocity": 0.7874015748031497
        },
        {
          "duration": 0.16666674999999032,
          "durationTicks": 30,
          "midi": 61,
          "name": "C#4",
          "ticks": 26040,
          "time": 144.666739,
          "velocity": 0.7874015748031497
        },
        {
          "duration": 0.16666674999999032,
          "durationTicks": 30,
          "midi": 61,
          "name": "C#4",
          "ticks": 26100,
          "time": 145.00007250000002,
          "velocity": 0.7874015748031497
        },
        {
          "duration": 0.16666675000001874,
          "durationTicks": 30,
          "midi": 56,
          "name": "G#3",
          "ticks": 26160,
          "time": 145.333406,
          "velocity": 0.7874015748031497
        },
        {
          "duration": 0.16666674999999032,
          "durationTicks": 30,
          "midi": 56,
          "name": "G#3",
          "ticks": 26220,
          "time": 145.6667395,
          "velocity": 0.7874015748031497
        },
        {
          "duration": 0.16666674999999032,
          "durationTicks": 30,
          "midi": 61,
          "name": "C#4",
          "ticks": 26280,
          "time": 146.00007300000001,
          "velocity": 0.7874015748031497
        },
        {
          "duration": 0.16666675000001874,
          "durationTicks": 30,
          "midi": 61,
          "name": "C#4",
          "ticks": 26340,
          "time": 146.3334065,
          "velocity": 0.7874015748031497
        },
        {
          "duration": 0.16666674999999032,
          "durationTicks": 30,
          "midi": 58,
          "name": "A#3",
          "ticks": 26400,
          "time": 146.66674,
          "velocity": 0.7874015748031497
        },
        {
          "duration": 0.16666675000001874,
          "durationTicks": 30,
          "midi": 58,
          "name": "A#3",
          "ticks": 26430,
          "time": 146.83340675,
          "velocity": 0.7874015748031497
        },
        {
          "duration": 0.16666674999999032,
          "durationTicks": 30,
          "midi": 58,
          "name": "A#3",
          "ticks": 26490,
          "time": 147.16674025,
          "velocity": 0.7874015748031497
        },
        {
          "duration": 0.16666675000001874,
          "durationTicks": 30,
          "midi": 61,
          "name": "C#4",
          "ticks": 26520,
          "time": 147.333407,
          "velocity": 0.7874015748031497
        },
        {
          "duration": 0.16666674999999032,
          "durationTicks": 30,
          "midi": 61,
          "name": "C#4",
          "ticks": 26580,
          "time": 147.6667405,
          "velocity": 0.7874015748031497
        },
        {
          "duration": 0.16666674999999032,
          "durationTicks": 30,
          "midi": 58,
          "name": "A#3",
          "ticks": 26640,
          "time": 148.000074,
          "velocity": 0.7874015748031497
        },
        {
          "duration": 0.16666674999999032,
          "durationTicks": 30,
          "midi": 58,
          "name": "A#3",
          "ticks": 26670,
          "time": 148.16674075,
          "velocity": 0.7874015748031497
        },
        {
          "duration": 0.16666674999999032,
          "durationTicks": 30,
          "midi": 58,
          "name": "A#3",
          "ticks": 26730,
          "time": 148.50007425,
          "velocity": 0.7874015748031497
        },
        {
          "duration": 0.16666674999999032,
          "durationTicks": 30,
          "midi": 61,
          "name": "C#4",
          "ticks": 26760,
          "time": 148.666741,
          "velocity": 0.7874015748031497
        },
        {
          "duration": 0.16666674999999032,
          "durationTicks": 30,
          "midi": 61,
          "name": "C#4",
          "ticks": 26820,
          "time": 149.0000745,
          "velocity": 0.7874015748031497
        },
        {
          "duration": 0.16666675000001874,
          "durationTicks": 30,
          "midi": 58,
          "name": "A#3",
          "ticks": 26880,
          "time": 149.333408,
          "velocity": 0.7874015748031497
        },
        {
          "duration": 0.16666674999999032,
          "durationTicks": 30,
          "midi": 58,
          "name": "A#3",
          "ticks": 26910,
          "time": 149.50007475,
          "velocity": 0.7874015748031497
        },
        {
          "duration": 0.16666675000001874,
          "durationTicks": 30,
          "midi": 58,
          "name": "A#3",
          "ticks": 26970,
          "time": 149.83340825,
          "velocity": 0.7874015748031497
        },
        {
          "duration": 0.16666674999999032,
          "durationTicks": 30,
          "midi": 63,
          "name": "D#4",
          "ticks": 27000,
          "time": 150.000075,
          "velocity": 0.7874015748031497
        },
        {
          "duration": 0.16666675000001874,
          "durationTicks": 30,
          "midi": 63,
          "name": "D#4",
          "ticks": 27060,
          "time": 150.3334085,
          "velocity": 0.7874015748031497
        },
        {
          "duration": 0.16666674999999032,
          "durationTicks": 30,
          "midi": 58,
          "name": "A#3",
          "ticks": 27120,
          "time": 150.666742,
          "velocity": 0.7874015748031497
        },
        {
          "duration": 0.16666675000001874,
          "durationTicks": 30,
          "midi": 58,
          "name": "A#3",
          "ticks": 27150,
          "time": 150.83340875,
          "velocity": 0.7874015748031497
        },
        {
          "duration": 0.16666674999999032,
          "durationTicks": 30,
          "midi": 58,
          "name": "A#3",
          "ticks": 27210,
          "time": 151.16674225,
          "velocity": 0.7874015748031497
        },
        {
          "duration": 0.16666675000001874,
          "durationTicks": 30,
          "midi": 61,
          "name": "C#4",
          "ticks": 27240,
          "time": 151.333409,
          "velocity": 0.7874015748031497
        },
        {
          "duration": 0.16666674999999032,
          "durationTicks": 30,
          "midi": 61,
          "name": "C#4",
          "ticks": 27300,
          "time": 151.6667425,
          "velocity": 0.7874015748031497
        },
        {
          "duration": 0.33333350000000905,
          "durationTicks": 60,
          "midi": 58,
          "name": "A#3",
          "ticks": 27360,
          "time": 152.000076,
          "velocity": 0.7874015748031497
        },
        {
          "duration": 0.16666674999999032,
          "durationTicks": 30,
          "midi": 58,
          "name": "A#3",
          "ticks": 27450,
          "time": 152.50007625,
          "velocity": 0.7874015748031497
        },
        {
          "duration": 0.16666675000001874,
          "durationTicks": 30,
          "midi": 61,
          "name": "C#4",
          "ticks": 27480,
          "time": 152.666743,
          "velocity": 0.7874015748031497
        },
        {
          "duration": 0.16666674999999032,
          "durationTicks": 30,
          "midi": 61,
          "name": "C#4",
          "ticks": 27540,
          "time": 153.0000765,
          "velocity": 0.7874015748031497
        },
        {
          "duration": 0.33333349999998063,
          "durationTicks": 60,
          "midi": 58,
          "name": "A#3",
          "ticks": 27600,
          "time": 153.33341000000001,
          "velocity": 0.7874015748031497
        },
        {
          "duration": 0.33333350000000905,
          "durationTicks": 60,
          "midi": 61,
          "name": "C#4",
          "ticks": 27660,
          "time": 153.6667435,
          "velocity": 0.7874015748031497
        },
        {
          "duration": 0.33333350000000905,
          "durationTicks": 60,
          "midi": 58,
          "name": "A#3",
          "ticks": 27720,
          "time": 154.000077,
          "velocity": 0.7874015748031497
        },
        {
          "duration": 0.33333349999998063,
          "durationTicks": 60,
          "midi": 61,
          "name": "C#4",
          "ticks": 27780,
          "time": 154.3334105,
          "velocity": 0.7874015748031497
        },
        {
          "duration": 0.16666675000001874,
          "durationTicks": 30,
          "midi": 58,
          "name": "A#3",
          "ticks": 27840,
          "time": 154.666744,
          "velocity": 0.7874015748031497
        },
        {
          "duration": 0.16666675000001874,
          "durationTicks": 30,
          "midi": 58,
          "name": "A#3",
          "ticks": 27930,
          "time": 155.16674425,
          "velocity": 0.7874015748031497
        },
        {
          "duration": 0.16666674999999032,
          "durationTicks": 30,
          "midi": 61,
          "name": "C#4",
          "ticks": 27960,
          "time": 155.333411,
          "velocity": 0.7874015748031497
        },
        {
          "duration": 0.16666675000001874,
          "durationTicks": 30,
          "midi": 61,
          "name": "C#4",
          "ticks": 28020,
          "time": 155.6667445,
          "velocity": 0.7874015748031497
        },
        {
          "duration": 0.16666674999999032,
          "durationTicks": 30,
          "midi": 56,
          "name": "G#3",
          "ticks": 28080,
          "time": 156.000078,
          "velocity": 0.7874015748031497
        },
        {
          "duration": 0.16666674999999032,
          "durationTicks": 30,
          "midi": 56,
          "name": "G#3",
          "ticks": 28140,
          "time": 156.3334115,
          "velocity": 0.7874015748031497
        },
        {
          "duration": 0.16666675000001874,
          "durationTicks": 30,
          "midi": 61,
          "name": "C#4",
          "ticks": 28200,
          "time": 156.666745,
          "velocity": 0.7874015748031497
        },
        {
          "duration": 0.16666674999999032,
          "durationTicks": 30,
          "midi": 61,
          "name": "C#4",
          "ticks": 28260,
          "time": 157.0000785,
          "velocity": 0.7874015748031497
        },
        {
          "duration": 0.16666674999999032,
          "durationTicks": 30,
          "midi": 58,
          "name": "A#3",
          "ticks": 28320,
          "time": 157.333412,
          "velocity": 0.7874015748031497
        },
        {
          "duration": 0.16666674999999032,
          "durationTicks": 30,
          "midi": 58,
          "name": "A#3",
          "ticks": 28410,
          "time": 157.83341225,
          "velocity": 0.7874015748031497
        },
        {
          "duration": 0.16666674999999032,
          "durationTicks": 30,
          "midi": 58,
          "name": "A#3",
          "ticks": 28440,
          "time": 158.000079,
          "velocity": 0.7874015748031497
        },
        {
          "duration": 0.16666674999999032,
          "durationTicks": 30,
          "midi": 58,
          "name": "A#3",
          "ticks": 28530,
          "time": 158.50007925,
          "velocity": 0.7874015748031497
        },
        {
          "duration": 0.16666675000001874,
          "durationTicks": 30,
          "midi": 58,
          "name": "A#3",
          "ticks": 28560,
          "time": 158.666746,
          "velocity": 0.7874015748031497
        },
        {
          "duration": 0.16666675000001874,
          "durationTicks": 30,
          "midi": 58,
          "name": "A#3",
          "ticks": 28650,
          "time": 159.16674625,
          "velocity": 0.7874015748031497
        },
        {
          "duration": 0.16666674999999032,
          "durationTicks": 30,
          "midi": 58,
          "name": "A#3",
          "ticks": 28680,
          "time": 159.333413,
          "velocity": 0.7874015748031497
        },
        {
          "duration": 0.16666675000001874,
          "durationTicks": 30,
          "midi": 58,
          "name": "A#3",
          "ticks": 28800,
          "time": 160.00008,
          "velocity": 0.7874015748031497
        },
        {
          "duration": 0.16666674999999032,
          "durationTicks": 30,
          "midi": 58,
          "name": "A#3",
          "ticks": 28830,
          "time": 160.16674675000002,
          "velocity": 0.7874015748031497
        },
        {
          "duration": 0.16666675000001874,
          "durationTicks": 30,
          "midi": 58,
          "name": "A#3",
          "ticks": 28890,
          "time": 160.50008025,
          "velocity": 0.7874015748031497
        },
        {
          "duration": 0.16666674999999032,
          "durationTicks": 30,
          "midi": 63,
          "name": "D#4",
          "ticks": 28920,
          "time": 160.66674700000002,
          "velocity": 0.7874015748031497
        },
        {
          "duration": 0.16666675000001874,
          "durationTicks": 30,
          "midi": 63,
          "name": "D#4",
          "ticks": 28980,
          "time": 161.0000805,
          "velocity": 0.7874015748031497
        },
        {
          "duration": 0.16666674999999032,
          "durationTicks": 30,
          "midi": 58,
          "name": "A#3",
          "ticks": 29040,
          "time": 161.333414,
          "velocity": 0.7874015748031497
        },
        {
          "duration": 0.16666675000001874,
          "durationTicks": 30,
          "midi": 58,
          "name": "A#3",
          "ticks": 29070,
          "time": 161.50008075,
          "velocity": 0.7874015748031497
        },
        {
          "duration": 0.16666674999999032,
          "durationTicks": 30,
          "midi": 58,
          "name": "A#3",
          "ticks": 29130,
          "time": 161.83341425,
          "velocity": 0.7874015748031497
        },
        {
          "duration": 0.16666675000001874,
          "durationTicks": 30,
          "midi": 61,
          "name": "C#4",
          "ticks": 29160,
          "time": 162.000081,
          "velocity": 0.7874015748031497
        },
        {
          "duration": 0.16666674999999032,
          "durationTicks": 30,
          "midi": 61,
          "name": "C#4",
          "ticks": 29220,
          "time": 162.3334145,
          "velocity": 0.7874015748031497
        },
        {
          "duration": 0.33333349999998063,
          "durationTicks": 60,
          "midi": 58,
          "name": "A#3",
          "ticks": 29280,
          "time": 162.666748,
          "velocity": 0.7874015748031497
        },
        {
          "duration": 0.16666674999999032,
          "durationTicks": 30,
          "midi": 58,
          "name": "A#3",
          "ticks": 29370,
          "time": 163.16674825,
          "velocity": 0.7874015748031497
        },
        {
          "duration": 0.16666674999999032,
          "durationTicks": 30,
          "midi": 61,
          "name": "C#4",
          "ticks": 29400,
          "time": 163.333415,
          "velocity": 0.7874015748031497
        },
        {
          "duration": 0.16666674999999032,
          "durationTicks": 30,
          "midi": 61,
          "name": "C#4",
          "ticks": 29460,
          "time": 163.6667485,
          "velocity": 0.7874015748031497
        },
        {
          "duration": 0.33333350000000905,
          "durationTicks": 60,
          "midi": 58,
          "name": "A#3",
          "ticks": 29520,
          "time": 164.000082,
          "velocity": 0.7874015748031497
        },
        {
          "duration": 0.33333350000000905,
          "durationTicks": 60,
          "midi": 61,
          "name": "C#4",
          "ticks": 29580,
          "time": 164.3334155,
          "velocity": 0.7874015748031497
        },
        {
          "duration": 0.33333349999998063,
          "durationTicks": 60,
          "midi": 58,
          "name": "A#3",
          "ticks": 29640,
          "time": 164.666749,
          "velocity": 0.7874015748031497
        },
        {
          "duration": 0.33333350000000905,
          "durationTicks": 60,
          "midi": 61,
          "name": "C#4",
          "ticks": 29700,
          "time": 165.0000825,
          "velocity": 0.7874015748031497
        },
        {
          "duration": 0.16666674999999032,
          "durationTicks": 30,
          "midi": 58,
          "name": "A#3",
          "ticks": 29760,
          "time": 165.333416,
          "velocity": 0.7874015748031497
        },
        {
          "duration": 0.16666674999999032,
          "durationTicks": 30,
          "midi": 58,
          "name": "A#3",
          "ticks": 29850,
          "time": 165.83341625,
          "velocity": 0.7874015748031497
        },
        {
          "duration": 0.16666675000001874,
          "durationTicks": 30,
          "midi": 61,
          "name": "C#4",
          "ticks": 29880,
          "time": 166.000083,
          "velocity": 0.7874015748031497
        },
        {
          "duration": 0.16666674999999032,
          "durationTicks": 30,
          "midi": 61,
          "name": "C#4",
          "ticks": 29940,
          "time": 166.3334165,
          "velocity": 0.7874015748031497
        },
        {
          "duration": 0.16666674999999032,
          "durationTicks": 30,
          "midi": 56,
          "name": "G#3",
          "ticks": 30000,
          "time": 166.66675,
          "velocity": 0.7874015748031497
        },
        {
          "duration": 0.16666674999999032,
          "durationTicks": 30,
          "midi": 56,
          "name": "G#3",
          "ticks": 30060,
          "time": 167.00008350000002,
          "velocity": 0.7874015748031497
        },
        {
          "duration": 0.16666675000001874,
          "durationTicks": 30,
          "midi": 61,
          "name": "C#4",
          "ticks": 30120,
          "time": 167.333417,
          "velocity": 0.7874015748031497
        },
        {
          "duration": 0.16666674999999032,
          "durationTicks": 30,
          "midi": 61,
          "name": "C#4",
          "ticks": 30180,
          "time": 167.6667505,
          "velocity": 0.7874015748031497
        },
        {
          "duration": 0.16666674999999032,
          "durationTicks": 30,
          "midi": 58,
          "name": "A#3",
          "ticks": 30240,
          "time": 168.00008400000002,
          "velocity": 0.7874015748031497
        },
        {
          "duration": 0.16666674999999032,
          "durationTicks": 30,
          "midi": 58,
          "name": "A#3",
          "ticks": 30270,
          "time": 168.16675075,
          "velocity": 0.7874015748031497
        },
        {
          "duration": 0.16666674999999032,
          "durationTicks": 30,
          "midi": 58,
          "name": "A#3",
          "ticks": 30330,
          "time": 168.50008425000001,
          "velocity": 0.7874015748031497
        },
        {
          "duration": 0.16666674999999032,
          "durationTicks": 30,
          "midi": 61,
          "name": "C#4",
          "ticks": 30360,
          "time": 168.666751,
          "velocity": 0.7874015748031497
        },
        {
          "duration": 0.16666674999999032,
          "durationTicks": 30,
          "midi": 61,
          "name": "C#4",
          "ticks": 30420,
          "time": 169.0000845,
          "velocity": 0.7874015748031497
        },
        {
          "duration": 0.16666675000001874,
          "durationTicks": 30,
          "midi": 58,
          "name": "A#3",
          "ticks": 30480,
          "time": 169.333418,
          "velocity": 0.7874015748031497
        },
        {
          "duration": 0.16666674999999032,
          "durationTicks": 30,
          "midi": 58,
          "name": "A#3",
          "ticks": 30510,
          "time": 169.50008475,
          "velocity": 0.7874015748031497
        },
        {
          "duration": 0.16666675000001874,
          "durationTicks": 30,
          "midi": 58,
          "name": "A#3",
          "ticks": 30570,
          "time": 169.83341825,
          "velocity": 0.7874015748031497
        },
        {
          "duration": 0.16666674999999032,
          "durationTicks": 30,
          "midi": 61,
          "name": "C#4",
          "ticks": 30600,
          "time": 170.000085,
          "velocity": 0.7874015748031497
        },
        {
          "duration": 0.16666675000001874,
          "durationTicks": 30,
          "midi": 61,
          "name": "C#4",
          "ticks": 30660,
          "time": 170.3334185,
          "velocity": 0.7874015748031497
        },
        {
          "duration": 0.16666674999999032,
          "durationTicks": 30,
          "midi": 58,
          "name": "A#3",
          "ticks": 30720,
          "time": 170.666752,
          "velocity": 0.7874015748031497
        },
        {
          "duration": 0.16666675000001874,
          "durationTicks": 30,
          "midi": 58,
          "name": "A#3",
          "ticks": 30750,
          "time": 170.83341875,
          "velocity": 0.7874015748031497
        },
        {
          "duration": 0.16666674999999032,
          "durationTicks": 30,
          "midi": 58,
          "name": "A#3",
          "ticks": 30810,
          "time": 171.16675225,
          "velocity": 0.7874015748031497
        },
        {
          "duration": 0.16666675000001874,
          "durationTicks": 30,
          "midi": 63,
          "name": "D#4",
          "ticks": 30840,
          "time": 171.333419,
          "velocity": 0.7874015748031497
        },
        {
          "duration": 0.16666674999999032,
          "durationTicks": 30,
          "midi": 63,
          "name": "D#4",
          "ticks": 30900,
          "time": 171.6667525,
          "velocity": 0.7874015748031497
        },
        {
          "duration": 0.16666674999999032,
          "durationTicks": 30,
          "midi": 58,
          "name": "A#3",
          "ticks": 30960,
          "time": 172.000086,
          "velocity": 0.7874015748031497
        },
        {
          "duration": 0.16666674999999032,
          "durationTicks": 30,
          "midi": 58,
          "name": "A#3",
          "ticks": 30990,
          "time": 172.16675275,
          "velocity": 0.7874015748031497
        },
        {
          "duration": 0.16666674999999032,
          "durationTicks": 30,
          "midi": 58,
          "name": "A#3",
          "ticks": 31050,
          "time": 172.50008625,
          "velocity": 0.7874015748031497
        },
        {
          "duration": 0.16666674999999032,
          "durationTicks": 30,
          "midi": 61,
          "name": "C#4",
          "ticks": 31080,
          "time": 172.666753,
          "velocity": 0.7874015748031497
        },
        {
          "duration": 0.16666674999999032,
          "durationTicks": 30,
          "midi": 61,
          "name": "C#4",
          "ticks": 31140,
          "time": 173.0000865,
          "velocity": 0.7874015748031497
        },
        {
          "duration": 0.33333350000000905,
          "durationTicks": 60,
          "midi": 58,
          "name": "A#3",
          "ticks": 31200,
          "time": 173.33342,
          "velocity": 0.7874015748031497
        },
        {
          "duration": 0.16666675000001874,
          "durationTicks": 30,
          "midi": 58,
          "name": "A#3",
          "ticks": 31290,
          "time": 173.83342025,
          "velocity": 0.7874015748031497
        },
        {
          "duration": 0.16666674999999032,
          "durationTicks": 30,
          "midi": 61,
          "name": "C#4",
          "ticks": 31320,
          "time": 174.000087,
          "velocity": 0.7874015748031497
        },
        {
          "duration": 0.16666675000001874,
          "durationTicks": 30,
          "midi": 61,
          "name": "C#4",
          "ticks": 31380,
          "time": 174.3334205,
          "velocity": 0.7874015748031497
        },
        {
          "duration": 0.33333350000000905,
          "durationTicks": 60,
          "midi": 58,
          "name": "A#3",
          "ticks": 31440,
          "time": 174.666754,
          "velocity": 0.7874015748031497
        },
        {
          "duration": 0.33333350000000905,
          "durationTicks": 60,
          "midi": 61,
          "name": "C#4",
          "ticks": 31500,
          "time": 175.0000875,
          "velocity": 0.7874015748031497
        },
        {
          "duration": 0.33333349999998063,
          "durationTicks": 60,
          "midi": 58,
          "name": "A#3",
          "ticks": 31560,
          "time": 175.33342100000002,
          "velocity": 0.7874015748031497
        },
        {
          "duration": 0.33333350000000905,
          "durationTicks": 60,
          "midi": 61,
          "name": "C#4",
          "ticks": 31620,
          "time": 175.6667545,
          "velocity": 0.7874015748031497
        },
        {
          "duration": 0.16666674999999032,
          "durationTicks": 30,
          "midi": 58,
          "name": "A#3",
          "ticks": 31680,
          "time": 176.000088,
          "velocity": 0.7874015748031497
        },
        {
          "duration": 0.16666674999999032,
          "durationTicks": 30,
          "midi": 58,
          "name": "A#3",
          "ticks": 31770,
          "time": 176.50008825,
          "velocity": 0.7874015748031497
        },
        {
          "duration": 0.16666675000001874,
          "durationTicks": 30,
          "midi": 61,
          "name": "C#4",
          "ticks": 31800,
          "time": 176.666755,
          "velocity": 0.7874015748031497
        },
        {
          "duration": 0.16666674999999032,
          "durationTicks": 30,
          "midi": 61,
          "name": "C#4",
          "ticks": 31860,
          "time": 177.0000885,
          "velocity": 0.7874015748031497
        },
        {
          "duration": 0.16666674999999032,
          "durationTicks": 30,
          "midi": 56,
          "name": "G#3",
          "ticks": 31920,
          "time": 177.333422,
          "velocity": 0.7874015748031497
        },
        {
          "duration": 0.16666675000001874,
          "durationTicks": 30,
          "midi": 56,
          "name": "G#3",
          "ticks": 31980,
          "time": 177.6667555,
          "velocity": 0.7874015748031497
        },
        {
          "duration": 0.16666674999999032,
          "durationTicks": 30,
          "midi": 61,
          "name": "C#4",
          "ticks": 32040,
          "time": 178.000089,
          "velocity": 0.7874015748031497
        },
        {
          "duration": 0.16666674999999032,
          "durationTicks": 30,
          "midi": 61,
          "name": "C#4",
          "ticks": 32100,
          "time": 178.3334225,
          "velocity": 0.7874015748031497
        },
        {
          "duration": 0.16666675000001874,
          "durationTicks": 30,
          "midi": 58,
          "name": "A#3",
          "ticks": 32160,
          "time": 178.666756,
          "velocity": 0.7874015748031497
        },
        {
          "duration": 0.16666674999999032,
          "durationTicks": 30,
          "midi": 58,
          "name": "A#3",
          "ticks": 32190,
          "time": 178.83342275,
          "velocity": 0.7874015748031497
        },
        {
          "duration": 0.16666675000001874,
          "durationTicks": 30,
          "midi": 58,
          "name": "A#3",
          "ticks": 32250,
          "time": 179.16675625,
          "velocity": 0.7874015748031497
        },
        {
          "duration": 0.16666674999999032,
          "durationTicks": 30,
          "midi": 61,
          "name": "C#4",
          "ticks": 32280,
          "time": 179.333423,
          "velocity": 0.7874015748031497
        },
        {
          "duration": 0.16666675000001874,
          "durationTicks": 30,
          "midi": 61,
          "name": "C#4",
          "ticks": 32340,
          "time": 179.6667565,
          "velocity": 0.7874015748031497
        },
        {
          "duration": 0.16666674999999032,
          "durationTicks": 30,
          "midi": 58,
          "name": "A#3",
          "ticks": 32400,
          "time": 180.00009,
          "velocity": 0.7874015748031497
        },
        {
          "duration": 0.16666675000001874,
          "durationTicks": 30,
          "midi": 58,
          "name": "A#3",
          "ticks": 32430,
          "time": 180.16675675,
          "velocity": 0.7874015748031497
        },
        {
          "duration": 0.16666674999999032,
          "durationTicks": 30,
          "midi": 58,
          "name": "A#3",
          "ticks": 32490,
          "time": 180.50009025,
          "velocity": 0.7874015748031497
        },
        {
          "duration": 0.16666675000001874,
          "durationTicks": 30,
          "midi": 61,
          "name": "C#4",
          "ticks": 32520,
          "time": 180.666757,
          "velocity": 0.7874015748031497
        },
        {
          "duration": 0.16666674999999032,
          "durationTicks": 30,
          "midi": 61,
          "name": "C#4",
          "ticks": 32580,
          "time": 181.0000905,
          "velocity": 0.7874015748031497
        },
        {
          "duration": 0.16666674999999032,
          "durationTicks": 30,
          "midi": 58,
          "name": "A#3",
          "ticks": 32640,
          "time": 181.333424,
          "velocity": 0.7874015748031497
        },
        {
          "duration": 0.16666674999999032,
          "durationTicks": 30,
          "midi": 58,
          "name": "A#3",
          "ticks": 32670,
          "time": 181.50009075,
          "velocity": 0.7874015748031497
        },
        {
          "duration": 0.16666674999999032,
          "durationTicks": 30,
          "midi": 58,
          "name": "A#3",
          "ticks": 32730,
          "time": 181.83342425,
          "velocity": 0.7874015748031497
        },
        {
          "duration": 0.16666675000001874,
          "durationTicks": 30,
          "midi": 63,
          "name": "D#4",
          "ticks": 32760,
          "time": 182.000091,
          "velocity": 0.7874015748031497
        },
        {
          "duration": 0.16666674999999032,
          "durationTicks": 30,
          "midi": 63,
          "name": "D#4",
          "ticks": 32820,
          "time": 182.3334245,
          "velocity": 0.7874015748031497
        },
        {
          "duration": 0.16666674999999032,
          "durationTicks": 30,
          "midi": 58,
          "name": "A#3",
          "ticks": 32880,
          "time": 182.66675800000002,
          "velocity": 0.7874015748031497
        },
        {
          "duration": 0.16666674999999032,
          "durationTicks": 30,
          "midi": 58,
          "name": "A#3",
          "ticks": 32910,
          "time": 182.83342475,
          "velocity": 0.7874015748031497
        },
        {
          "duration": 0.16666674999999032,
          "durationTicks": 30,
          "midi": 58,
          "name": "A#3",
          "ticks": 32970,
          "time": 183.16675825000002,
          "velocity": 0.7874015748031497
        },
        {
          "duration": 0.16666674999999032,
          "durationTicks": 30,
          "midi": 61,
          "name": "C#4",
          "ticks": 33000,
          "time": 183.333425,
          "velocity": 0.7874015748031497
        },
        {
          "duration": 0.16666674999999032,
          "durationTicks": 30,
          "midi": 61,
          "name": "C#4",
          "ticks": 33060,
          "time": 183.66675850000001,
          "velocity": 0.7874015748031497
        },
        {
          "duration": 0.33333350000000905,
          "durationTicks": 60,
          "midi": 58,
          "name": "A#3",
          "ticks": 33120,
          "time": 184.000092,
          "velocity": 0.7874015748031497
        },
        {
          "duration": 0.16666675000001874,
          "durationTicks": 30,
          "midi": 58,
          "name": "A#3",
          "ticks": 33210,
          "time": 184.50009225,
          "velocity": 0.7874015748031497
        },
        {
          "duration": 0.16666674999999032,
          "durationTicks": 30,
          "midi": 61,
          "name": "C#4",
          "ticks": 33240,
          "time": 184.666759,
          "velocity": 0.7874015748031497
        },
        {
          "duration": 0.16666675000001874,
          "durationTicks": 30,
          "midi": 61,
          "name": "C#4",
          "ticks": 33300,
          "time": 185.0000925,
          "velocity": 0.7874015748031497
        },
        {
          "duration": 0.33333350000000905,
          "durationTicks": 60,
          "midi": 58,
          "name": "A#3",
          "ticks": 33360,
          "time": 185.333426,
          "velocity": 0.7874015748031497
        },
        {
          "duration": 0.33333349999998063,
          "durationTicks": 60,
          "midi": 61,
          "name": "C#4",
          "ticks": 33420,
          "time": 185.6667595,
          "velocity": 0.7874015748031497
        },
        {
          "duration": 0.33333350000000905,
          "durationTicks": 60,
          "midi": 58,
          "name": "A#3",
          "ticks": 33480,
          "time": 186.000093,
          "velocity": 0.7874015748031497
        },
        {
          "duration": 0.33333350000000905,
          "durationTicks": 60,
          "midi": 61,
          "name": "C#4",
          "ticks": 33540,
          "time": 186.3334265,
          "velocity": 0.7874015748031497
        },
        {
          "duration": 0.16666674999999032,
          "durationTicks": 30,
          "midi": 58,
          "name": "A#3",
          "ticks": 33600,
          "time": 186.66676,
          "velocity": 0.7874015748031497
        },
        {
          "duration": 0.16666674999999032,
          "durationTicks": 30,
          "midi": 58,
          "name": "A#3",
          "ticks": 33690,
          "time": 187.16676025,
          "velocity": 0.7874015748031497
        },
        {
          "duration": 0.16666674999999032,
          "durationTicks": 30,
          "midi": 61,
          "name": "C#4",
          "ticks": 33720,
          "time": 187.333427,
          "velocity": 0.7874015748031497
        },
        {
          "duration": 0.16666674999999032,
          "durationTicks": 30,
          "midi": 61,
          "name": "C#4",
          "ticks": 33780,
          "time": 187.6667605,
          "velocity": 0.7874015748031497
        },
        {
          "duration": 0.16666675000001874,
          "durationTicks": 30,
          "midi": 56,
          "name": "G#3",
          "ticks": 33840,
          "time": 188.000094,
          "velocity": 0.7874015748031497
        },
        {
          "duration": 0.16666674999999032,
          "durationTicks": 30,
          "midi": 56,
          "name": "G#3",
          "ticks": 33900,
          "time": 188.3334275,
          "velocity": 0.7874015748031497
        },
        {
          "duration": 0.16666674999999032,
          "durationTicks": 30,
          "midi": 61,
          "name": "C#4",
          "ticks": 33960,
          "time": 188.666761,
          "velocity": 0.7874015748031497
        },
        {
          "duration": 0.16666675000001874,
          "durationTicks": 30,
          "midi": 61,
          "name": "C#4",
          "ticks": 34020,
          "time": 189.0000945,
          "velocity": 0.7874015748031497
        },
        {
          "duration": 0.16666675000001874,
          "durationTicks": 30,
          "midi": 58,
          "name": "A#3",
          "ticks": 34080,
          "time": 189.333428,
          "velocity": 0.7874015748031497
        },
        {
          "duration": 0.16666674999999032,
          "durationTicks": 30,
          "midi": 58,
          "name": "A#3",
          "ticks": 34110,
          "time": 189.50009475000002,
          "velocity": 0.7874015748031497
        },
        {
          "duration": 0.16666675000001874,
          "durationTicks": 30,
          "midi": 58,
          "name": "A#3",
          "ticks": 34170,
          "time": 189.83342825,
          "velocity": 0.7874015748031497
        },
        {
          "duration": 0.16666674999999032,
          "durationTicks": 30,
          "midi": 61,
          "name": "C#4",
          "ticks": 34200,
          "time": 190.00009500000002,
          "velocity": 0.7874015748031497
        },
        {
          "duration": 0.16666675000001874,
          "durationTicks": 30,
          "midi": 61,
          "name": "C#4",
          "ticks": 34260,
          "time": 190.3334285,
          "velocity": 0.7874015748031497
        },
        {
          "duration": 0.16666674999999032,
          "durationTicks": 30,
          "midi": 58,
          "name": "A#3",
          "ticks": 34320,
          "time": 190.666762,
          "velocity": 0.7874015748031497
        },
        {
          "duration": 0.16666675000001874,
          "durationTicks": 30,
          "midi": 58,
          "name": "A#3",
          "ticks": 34350,
          "time": 190.83342875,
          "velocity": 0.7874015748031497
        },
        {
          "duration": 0.16666674999999032,
          "durationTicks": 30,
          "midi": 58,
          "name": "A#3",
          "ticks": 34410,
          "time": 191.16676225,
          "velocity": 0.7874015748031497
        },
        {
          "duration": 0.16666675000001874,
          "durationTicks": 30,
          "midi": 61,
          "name": "C#4",
          "ticks": 34440,
          "time": 191.333429,
          "velocity": 0.7874015748031497
        },
        {
          "duration": 0.16666674999999032,
          "durationTicks": 30,
          "midi": 61,
          "name": "C#4",
          "ticks": 34500,
          "time": 191.6667625,
          "velocity": 0.7874015748031497
        },
        {
          "duration": 0.16666674999999032,
          "durationTicks": 30,
          "midi": 58,
          "name": "A#3",
          "ticks": 34560,
          "time": 192.000096,
          "velocity": 0.7874015748031497
        },
        {
          "duration": 0.16666674999999032,
          "durationTicks": 30,
          "midi": 58,
          "name": "A#3",
          "ticks": 34590,
          "time": 192.16676275,
          "velocity": 0.7874015748031497
        },
        {
          "duration": 0.16666674999999032,
          "durationTicks": 30,
          "midi": 58,
          "name": "A#3",
          "ticks": 34650,
          "time": 192.50009625,
          "velocity": 0.7874015748031497
        },
        {
          "duration": 0.16666674999999032,
          "durationTicks": 30,
          "midi": 63,
          "name": "D#4",
          "ticks": 34680,
          "time": 192.666763,
          "velocity": 0.7874015748031497
        },
        {
          "duration": 0.16666674999999032,
          "durationTicks": 30,
          "midi": 63,
          "name": "D#4",
          "ticks": 34740,
          "time": 193.0000965,
          "velocity": 0.7874015748031497
        },
        {
          "duration": 0.16666675000001874,
          "durationTicks": 30,
          "midi": 58,
          "name": "A#3",
          "ticks": 34800,
          "time": 193.33343,
          "velocity": 0.7874015748031497
        },
        {
          "duration": 0.16666674999999032,
          "durationTicks": 30,
          "midi": 58,
          "name": "A#3",
          "ticks": 34830,
          "time": 193.50009675,
          "velocity": 0.7874015748031497
        },
        {
          "duration": 0.16666675000001874,
          "durationTicks": 30,
          "midi": 58,
          "name": "A#3",
          "ticks": 34890,
          "time": 193.83343025,
          "velocity": 0.7874015748031497
        },
        {
          "duration": 0.16666674999999032,
          "durationTicks": 30,
          "midi": 61,
          "name": "C#4",
          "ticks": 34920,
          "time": 194.000097,
          "velocity": 0.7874015748031497
        },
        {
          "duration": 0.16666675000001874,
          "durationTicks": 30,
          "midi": 61,
          "name": "C#4",
          "ticks": 34980,
          "time": 194.3334305,
          "velocity": 0.7874015748031497
        },
        {
          "duration": 0.33333350000000905,
          "durationTicks": 60,
          "midi": 58,
          "name": "A#3",
          "ticks": 35040,
          "time": 194.666764,
          "velocity": 0.7874015748031497
        },
        {
          "duration": 0.16666674999999032,
          "durationTicks": 30,
          "midi": 58,
          "name": "A#3",
          "ticks": 35130,
          "time": 195.16676425,
          "velocity": 0.7874015748031497
        },
        {
          "duration": 0.16666675000001874,
          "durationTicks": 30,
          "midi": 61,
          "name": "C#4",
          "ticks": 35160,
          "time": 195.333431,
          "velocity": 0.7874015748031497
        },
        {
          "duration": 0.16666674999999032,
          "durationTicks": 30,
          "midi": 61,
          "name": "C#4",
          "ticks": 35220,
          "time": 195.6667645,
          "velocity": 0.7874015748031497
        },
        {
          "duration": 0.33333349999998063,
          "durationTicks": 60,
          "midi": 58,
          "name": "A#3",
          "ticks": 35280,
          "time": 196.000098,
          "velocity": 0.7874015748031497
        },
        {
          "duration": 0.33333350000000905,
          "durationTicks": 60,
          "midi": 61,
          "name": "C#4",
          "ticks": 35340,
          "time": 196.3334315,
          "velocity": 0.7874015748031497
        },
        {
          "duration": 0.33333350000000905,
          "durationTicks": 60,
          "midi": 58,
          "name": "A#3",
          "ticks": 35400,
          "time": 196.666765,
          "velocity": 0.7874015748031497
        },
        {
          "duration": 0.33333350000000905,
          "durationTicks": 60,
          "midi": 61,
          "name": "C#4",
          "ticks": 35460,
          "time": 197.0000985,
          "velocity": 0.7874015748031497
        },
        {
          "duration": 0.16666674999999032,
          "durationTicks": 30,
          "midi": 58,
          "name": "A#3",
          "ticks": 35520,
          "time": 197.33343200000002,
          "velocity": 0.7874015748031497
        },
        {
          "duration": 0.16666674999999032,
          "durationTicks": 30,
          "midi": 58,
          "name": "A#3",
          "ticks": 35610,
          "time": 197.83343225000002,
          "velocity": 0.7874015748031497
        },
        {
          "duration": 0.16666674999999032,
          "durationTicks": 30,
          "midi": 61,
          "name": "C#4",
          "ticks": 35640,
          "time": 198.000099,
          "velocity": 0.7874015748031497
        },
        {
          "duration": 0.16666674999999032,
          "durationTicks": 30,
          "midi": 61,
          "name": "C#4",
          "ticks": 35700,
          "time": 198.33343250000001,
          "velocity": 0.7874015748031497
        },
        {
          "duration": 0.16666675000001874,
          "durationTicks": 30,
          "midi": 56,
          "name": "G#3",
          "ticks": 35760,
          "time": 198.666766,
          "velocity": 0.7874015748031497
        },
        {
          "duration": 0.16666674999999032,
          "durationTicks": 30,
          "midi": 56,
          "name": "G#3",
          "ticks": 35820,
          "time": 199.0000995,
          "velocity": 0.7874015748031497
        },
        {
          "duration": 0.16666674999999032,
          "durationTicks": 30,
          "midi": 61,
          "name": "C#4",
          "ticks": 35880,
          "time": 199.333433,
          "velocity": 0.7874015748031497
        },
        {
          "duration": 0.16666675000001874,
          "durationTicks": 30,
          "midi": 61,
          "name": "C#4",
          "ticks": 35940,
          "time": 199.6667665,
          "velocity": 0.7874015748031497
        },
        {
          "duration": 0.16666674999999032,
          "durationTicks": 30,
          "midi": 58,
          "name": "A#3",
          "ticks": 36000,
          "time": 200.0001,
          "velocity": 0.7874015748031497
        },
        {
          "duration": 0.16666675000001874,
          "durationTicks": 30,
          "midi": 58,
          "name": "A#3",
          "ticks": 36030,
          "time": 200.16676675,
          "velocity": 0.7874015748031497
        },
        {
          "duration": 0.16666674999999032,
          "durationTicks": 30,
          "midi": 58,
          "name": "A#3",
          "ticks": 36090,
          "time": 200.50010025,
          "velocity": 0.7874015748031497
        },
        {
          "duration": 0.16666675000001874,
          "durationTicks": 30,
          "midi": 61,
          "name": "C#4",
          "ticks": 36120,
          "time": 200.666767,
          "velocity": 0.7874015748031497
        },
        {
          "duration": 0.16666674999999032,
          "durationTicks": 30,
          "midi": 61,
          "name": "C#4",
          "ticks": 36180,
          "time": 201.0001005,
          "velocity": 0.7874015748031497
        },
        {
          "duration": 0.16666674999999032,
          "durationTicks": 30,
          "midi": 58,
          "name": "A#3",
          "ticks": 36240,
          "time": 201.333434,
          "velocity": 0.7874015748031497
        },
        {
          "duration": 0.16666674999999032,
          "durationTicks": 30,
          "midi": 58,
          "name": "A#3",
          "ticks": 36270,
          "time": 201.50010075,
          "velocity": 0.7874015748031497
        },
        {
          "duration": 0.16666674999999032,
          "durationTicks": 30,
          "midi": 58,
          "name": "A#3",
          "ticks": 36330,
          "time": 201.83343425,
          "velocity": 0.7874015748031497
        },
        {
          "duration": 0.16666674999999032,
          "durationTicks": 30,
          "midi": 61,
          "name": "C#4",
          "ticks": 36360,
          "time": 202.000101,
          "velocity": 0.7874015748031497
        },
        {
          "duration": 0.16666674999999032,
          "durationTicks": 30,
          "midi": 61,
          "name": "C#4",
          "ticks": 36420,
          "time": 202.3334345,
          "velocity": 0.7874015748031497
        },
        {
          "duration": 0.16666675000001874,
          "durationTicks": 30,
          "midi": 58,
          "name": "A#3",
          "ticks": 36480,
          "time": 202.666768,
          "velocity": 0.7874015748031497
        },
        {
          "duration": 0.16666674999999032,
          "durationTicks": 30,
          "midi": 58,
          "name": "A#3",
          "ticks": 36510,
          "time": 202.83343475,
          "velocity": 0.7874015748031497
        },
        {
          "duration": 0.16666675000001874,
          "durationTicks": 30,
          "midi": 58,
          "name": "A#3",
          "ticks": 36570,
          "time": 203.16676825,
          "velocity": 0.7874015748031497
        },
        {
          "duration": 0.16666674999999032,
          "durationTicks": 30,
          "midi": 63,
          "name": "D#4",
          "ticks": 36600,
          "time": 203.333435,
          "velocity": 0.7874015748031497
        },
        {
          "duration": 0.16666675000001874,
          "durationTicks": 30,
          "midi": 63,
          "name": "D#4",
          "ticks": 36660,
          "time": 203.6667685,
          "velocity": 0.7874015748031497
        },
        {
          "duration": 0.16666675000001874,
          "durationTicks": 30,
          "midi": 58,
          "name": "A#3",
          "ticks": 36720,
          "time": 204.000102,
          "velocity": 0.7874015748031497
        },
        {
          "duration": 0.16666674999999032,
          "durationTicks": 30,
          "midi": 58,
          "name": "A#3",
          "ticks": 36750,
          "time": 204.16676875000002,
          "velocity": 0.7874015748031497
        },
        {
          "duration": 0.16666675000001874,
          "durationTicks": 30,
          "midi": 58,
          "name": "A#3",
          "ticks": 36810,
          "time": 204.50010225,
          "velocity": 0.7874015748031497
        },
        {
          "duration": 0.16666674999999032,
          "durationTicks": 30,
          "midi": 61,
          "name": "C#4",
          "ticks": 36840,
          "time": 204.66676900000002,
          "velocity": 0.7874015748031497
        },
        {
          "duration": 0.16666675000001874,
          "durationTicks": 30,
          "midi": 61,
          "name": "C#4",
          "ticks": 36900,
          "time": 205.0001025,
          "velocity": 0.7874015748031497
        },
        {
          "duration": 0.33333350000000905,
          "durationTicks": 60,
          "midi": 58,
          "name": "A#3",
          "ticks": 36960,
          "time": 205.333436,
          "velocity": 0.7874015748031497
        },
        {
          "duration": 0.16666674999999032,
          "durationTicks": 30,
          "midi": 58,
          "name": "A#3",
          "ticks": 37050,
          "time": 205.83343625,
          "velocity": 0.7874015748031497
        },
        {
          "duration": 0.16666675000001874,
          "durationTicks": 30,
          "midi": 61,
          "name": "C#4",
          "ticks": 37080,
          "time": 206.000103,
          "velocity": 0.7874015748031497
        },
        {
          "duration": 0.16666674999999032,
          "durationTicks": 30,
          "midi": 61,
          "name": "C#4",
          "ticks": 37140,
          "time": 206.3334365,
          "velocity": 0.7874015748031497
        },
        {
          "duration": 0.33333349999998063,
          "durationTicks": 60,
          "midi": 58,
          "name": "A#3",
          "ticks": 37200,
          "time": 206.66677,
          "velocity": 0.7874015748031497
        },
        {
          "duration": 0.33333350000000905,
          "durationTicks": 60,
          "midi": 61,
          "name": "C#4",
          "ticks": 37260,
          "time": 207.0001035,
          "velocity": 0.7874015748031497
        },
        {
          "duration": 0.33333350000000905,
          "durationTicks": 60,
          "midi": 58,
          "name": "A#3",
          "ticks": 37320,
          "time": 207.333437,
          "velocity": 0.7874015748031497
        },
        {
          "duration": 0.33333349999998063,
          "durationTicks": 60,
          "midi": 61,
          "name": "C#4",
          "ticks": 37380,
          "time": 207.6667705,
          "velocity": 0.7874015748031497
        }
      ],
      "endOfTrackTicks": 37440
    },
    {
      "channel": 9,
      "controlChanges": {
        "7": [
          {
            "number": 7,
            "ticks": 0,
            "time": 0,
            "value": 1
          }
        ]
      },
      "pitchBends": [],
      "instrument": {
        "family": "drums",
        "name": "standard kit",
        "number": 0
      },
      "name": "",
      "notes": [
        {
          "duration": 0.083333375,
          "durationTicks": 15,
          "midi": 42,
          "name": "F#2",
          "ticks": 0,
          "time": 0,
          "velocity": 0.7874015748031497
        },
        {
          "duration": 0.08333337499999871,
          "durationTicks": 15,
          "midi": 36,
          "name": "C2",
          "ticks": 1440,
          "time": 8.000004,
          "velocity": 0.7874015748031497
        },
        {
          "duration": 0.08333337499999871,
          "durationTicks": 15,
          "midi": 42,
          "name": "F#2",
          "ticks": 1440,
          "time": 8.000004,
          "velocity": 0.7874015748031497
        },
        {
          "duration": 0.08333337499999871,
          "durationTicks": 15,
          "midi": 80,
          "name": "G#5",
          "ticks": 1440,
          "time": 8.000004,
          "velocity": 0.7874015748031497
        },
        {
          "duration": 0.08333337499999871,
          "durationTicks": 15,
          "midi": 38,
          "name": "D2",
          "ticks": 1500,
          "time": 8.3333375,
          "velocity": 0.7874015748031497
        },
        {
          "duration": 0.08333337499999871,
          "durationTicks": 15,
          "midi": 42,
          "name": "F#2",
          "ticks": 1500,
          "time": 8.3333375,
          "velocity": 0.7874015748031497
        },
        {
          "duration": 0.08333337499999871,
          "durationTicks": 15,
          "midi": 80,
          "name": "G#5",
          "ticks": 1500,
          "time": 8.3333375,
          "velocity": 0.7874015748031497
        },
        {
          "duration": 0.08333337499999871,
          "durationTicks": 15,
          "midi": 36,
          "name": "C2",
          "ticks": 1560,
          "time": 8.666671000000001,
          "velocity": 0.7874015748031497
        },
        {
          "duration": 0.08333337499999871,
          "durationTicks": 15,
          "midi": 42,
          "name": "F#2",
          "ticks": 1560,
          "time": 8.666671000000001,
          "velocity": 0.7874015748031497
        },
        {
          "duration": 0.08333337499999871,
          "durationTicks": 15,
          "midi": 80,
          "name": "G#5",
          "ticks": 1560,
          "time": 8.666671000000001,
          "velocity": 0.7874015748031497
        },
        {
          "duration": 0.08333337500000049,
          "durationTicks": 15,
          "midi": 38,
          "name": "D2",
          "ticks": 1620,
          "time": 9.0000045,
          "velocity": 0.7874015748031497
        },
        {
          "duration": 0.08333337500000049,
          "durationTicks": 15,
          "midi": 42,
          "name": "F#2",
          "ticks": 1620,
          "time": 9.0000045,
          "velocity": 0.7874015748031497
        },
        {
          "duration": 0.08333337500000049,
          "durationTicks": 15,
          "midi": 80,
          "name": "G#5",
          "ticks": 1620,
          "time": 9.0000045,
          "velocity": 0.7874015748031497
        },
        {
          "duration": 0.08333337500000049,
          "durationTicks": 15,
          "midi": 36,
          "name": "C2",
          "ticks": 1680,
          "time": 9.333338,
          "velocity": 0.7874015748031497
        },
        {
          "duration": 0.08333337500000049,
          "durationTicks": 15,
          "midi": 42,
          "name": "F#2",
          "ticks": 1680,
          "time": 9.333338,
          "velocity": 0.7874015748031497
        },
        {
          "duration": 0.08333337500000049,
          "durationTicks": 15,
          "midi": 80,
          "name": "G#5",
          "ticks": 1680,
          "time": 9.333338,
          "velocity": 0.7874015748031497
        },
        {
          "duration": 0.08333337500000049,
          "durationTicks": 15,
          "midi": 38,
          "name": "D2",
          "ticks": 1740,
          "time": 9.6666715,
          "velocity": 0.7874015748031497
        },
        {
          "duration": 0.08333337500000049,
          "durationTicks": 15,
          "midi": 42,
          "name": "F#2",
          "ticks": 1740,
          "time": 9.6666715,
          "velocity": 0.7874015748031497
        },
        {
          "duration": 0.08333337500000049,
          "durationTicks": 15,
          "midi": 80,
          "name": "G#5",
          "ticks": 1740,
          "time": 9.6666715,
          "velocity": 0.7874015748031497
        },
        {
          "duration": 0.08333337500000049,
          "durationTicks": 15,
          "midi": 36,
          "name": "C2",
          "ticks": 1800,
          "time": 10.000005,
          "velocity": 0.7874015748031497
        },
        {
          "duration": 0.08333337500000049,
          "durationTicks": 15,
          "midi": 42,
          "name": "F#2",
          "ticks": 1800,
          "time": 10.000005,
          "velocity": 0.7874015748031497
        },
        {
          "duration": 0.08333337500000049,
          "durationTicks": 15,
          "midi": 80,
          "name": "G#5",
          "ticks": 1800,
          "time": 10.000005,
          "velocity": 0.7874015748031497
        },
        {
          "duration": 0.08333337500000049,
          "durationTicks": 15,
          "midi": 80,
          "name": "G#5",
          "ticks": 1860,
          "time": 10.3333385,
          "velocity": 0.7874015748031497
        },
        {
          "duration": 0.08333337500000049,
          "durationTicks": 15,
          "midi": 42,
          "name": "F#2",
          "ticks": 1860,
          "time": 10.3333385,
          "velocity": 0.7874015748031497
        },
        {
          "duration": 0.08333337500000049,
          "durationTicks": 15,
          "midi": 38,
          "name": "D2",
          "ticks": 1860,
          "time": 10.3333385,
          "velocity": 0.7874015748031497
        },
        {
          "duration": 0.08333337500000049,
          "durationTicks": 15,
          "midi": 36,
          "name": "C2",
          "ticks": 1920,
          "time": 10.666672,
          "velocity": 0.7874015748031497
        },
        {
          "duration": 0.08333337500000049,
          "durationTicks": 15,
          "midi": 80,
          "name": "G#5",
          "ticks": 1920,
          "time": 10.666672,
          "velocity": 0.7874015748031497
        },
        {
          "duration": 0.08333337500000049,
          "durationTicks": 15,
          "midi": 42,
          "name": "F#2",
          "ticks": 1920,
          "time": 10.666672,
          "velocity": 0.7874015748031497
        },
        {
          "duration": 0.08333337500000049,
          "durationTicks": 15,
          "midi": 36,
          "name": "C2",
          "ticks": 1950,
          "time": 10.83333875,
          "velocity": 0.7874015748031497
        },
        {
          "duration": 0.08333337500000049,
          "durationTicks": 15,
          "midi": 80,
          "name": "G#5",
          "ticks": 1980,
          "time": 11.0000055,
          "velocity": 0.7874015748031497
        },
        {
          "duration": 0.08333337500000049,
          "durationTicks": 15,
          "midi": 42,
          "name": "F#2",
          "ticks": 1980,
          "time": 11.0000055,
          "velocity": 0.7874015748031497
        },
        {
          "duration": 0.08333337500000049,
          "durationTicks": 15,
          "midi": 36,
          "name": "C2",
          "ticks": 2010,
          "time": 11.16667225,
          "velocity": 0.7874015748031497
        },
        {
          "duration": 0.08333337500000049,
          "durationTicks": 15,
          "midi": 38,
          "name": "D2",
          "ticks": 2040,
          "time": 11.333339,
          "velocity": 0.7874015748031497
        },
        {
          "duration": 0.08333337500000049,
          "durationTicks": 15,
          "midi": 80,
          "name": "G#5",
          "ticks": 2040,
          "time": 11.333339,
          "velocity": 0.7874015748031497
        },
        {
          "duration": 0.08333337500000049,
          "durationTicks": 15,
          "midi": 42,
          "name": "F#2",
          "ticks": 2040,
          "time": 11.333339,
          "velocity": 0.7874015748031497
        },
        {
          "duration": 0.08333337499999871,
          "durationTicks": 15,
          "midi": 80,
          "name": "G#5",
          "ticks": 2100,
          "time": 11.6666725,
          "velocity": 0.7874015748031497
        },
        {
          "duration": 0.08333337499999871,
          "durationTicks": 15,
          "midi": 42,
          "name": "F#2",
          "ticks": 2100,
          "time": 11.6666725,
          "velocity": 0.7874015748031497
        },
        {
          "duration": 0.08333337499999871,
          "durationTicks": 15,
          "midi": 36,
          "name": "C2",
          "ticks": 2160,
          "time": 12.000006,
          "velocity": 0.7874015748031497
        },
        {
          "duration": 0.08333337499999871,
          "durationTicks": 15,
          "midi": 80,
          "name": "G#5",
          "ticks": 2160,
          "time": 12.000006,
          "velocity": 0.7874015748031497
        },
        {
          "duration": 0.08333337499999871,
          "durationTicks": 15,
          "midi": 42,
          "name": "F#2",
          "ticks": 2160,
          "time": 12.000006,
          "velocity": 0.7874015748031497
        },
        {
          "duration": 0.08333337499999871,
          "durationTicks": 15,
          "midi": 36,
          "name": "C2",
          "ticks": 2220,
          "time": 12.333339500000001,
          "velocity": 0.7874015748031497
        },
        {
          "duration": 0.08333337499999871,
          "durationTicks": 15,
          "midi": 80,
          "name": "G#5",
          "ticks": 2220,
          "time": 12.333339500000001,
          "velocity": 0.7874015748031497
        },
        {
          "duration": 0.08333337499999871,
          "durationTicks": 15,
          "midi": 42,
          "name": "F#2",
          "ticks": 2220,
          "time": 12.333339500000001,
          "velocity": 0.7874015748031497
        },
        {
          "duration": 0.08333337500000049,
          "durationTicks": 15,
          "midi": 80,
          "name": "G#5",
          "ticks": 2280,
          "time": 12.666673,
          "velocity": 0.7874015748031497
        },
        {
          "duration": 0.08333337500000049,
          "durationTicks": 15,
          "midi": 38,
          "name": "D2",
          "ticks": 2280,
          "time": 12.666673,
          "velocity": 0.7874015748031497
        },
        {
          "duration": 0.08333337500000049,
          "durationTicks": 15,
          "midi": 42,
          "name": "F#2",
          "ticks": 2280,
          "time": 12.666673,
          "velocity": 0.7874015748031497
        },
        {
          "duration": 0.08333337500000049,
          "durationTicks": 15,
          "midi": 80,
          "name": "G#5",
          "ticks": 2340,
          "time": 13.0000065,
          "velocity": 0.7874015748031497
        },
        {
          "duration": 0.08333337500000049,
          "durationTicks": 15,
          "midi": 42,
          "name": "F#2",
          "ticks": 2340,
          "time": 13.0000065,
          "velocity": 0.7874015748031497
        },
        {
          "duration": 0.08333337500000049,
          "durationTicks": 15,
          "midi": 38,
          "name": "D2",
          "ticks": 2370,
          "time": 13.16667325,
          "velocity": 0.7874015748031497
        },
        {
          "duration": 0.08333337500000049,
          "durationTicks": 15,
          "midi": 80,
          "name": "G#5",
          "ticks": 2400,
          "time": 13.33334,
          "velocity": 0.7874015748031497
        },
        {
          "duration": 0.08333337500000049,
          "durationTicks": 15,
          "midi": 36,
          "name": "C2",
          "ticks": 2400,
          "time": 13.33334,
          "velocity": 0.7874015748031497
        },
        {
          "duration": 0.08333337500000049,
          "durationTicks": 15,
          "midi": 42,
          "name": "F#2",
          "ticks": 2400,
          "time": 13.33334,
          "velocity": 0.7874015748031497
        },
        {
          "duration": 0.08333337500000049,
          "durationTicks": 15,
          "midi": 80,
          "name": "G#5",
          "ticks": 2460,
          "time": 13.6666735,
          "velocity": 0.7874015748031497
        },
        {
          "duration": 0.08333337500000049,
          "durationTicks": 15,
          "midi": 42,
          "name": "F#2",
          "ticks": 2460,
          "time": 13.6666735,
          "velocity": 0.7874015748031497
        },
        {
          "duration": 0.08333337499999871,
          "durationTicks": 15,
          "midi": 36,
          "name": "C2",
          "ticks": 2490,
          "time": 13.833340250000001,
          "velocity": 0.7874015748031497
        },
        {
          "duration": 0.08333337500000049,
          "durationTicks": 15,
          "midi": 80,
          "name": "G#5",
          "ticks": 2520,
          "time": 14.000007,
          "velocity": 0.7874015748031497
        },
        {
          "duration": 0.08333337500000049,
          "durationTicks": 15,
          "midi": 38,
          "name": "D2",
          "ticks": 2520,
          "time": 14.000007,
          "velocity": 0.7874015748031497
        },
        {
          "duration": 0.08333337500000049,
          "durationTicks": 15,
          "midi": 42,
          "name": "F#2",
          "ticks": 2520,
          "time": 14.000007,
          "velocity": 0.7874015748031497
        },
        {
          "duration": 0.08333337500000049,
          "durationTicks": 15,
          "midi": 80,
          "name": "G#5",
          "ticks": 2580,
          "time": 14.3333405,
          "velocity": 0.7874015748031497
        },
        {
          "duration": 0.08333337500000049,
          "durationTicks": 15,
          "midi": 42,
          "name": "F#2",
          "ticks": 2580,
          "time": 14.3333405,
          "velocity": 0.7874015748031497
        },
        {
          "duration": 0.08333337500000049,
          "durationTicks": 15,
          "midi": 80,
          "name": "G#5",
          "ticks": 2640,
          "time": 14.666674,
          "velocity": 0.7874015748031497
        },
        {
          "duration": 0.08333337500000049,
          "durationTicks": 15,
          "midi": 36,
          "name": "C2",
          "ticks": 2640,
          "time": 14.666674,
          "velocity": 0.7874015748031497
        },
        {
          "duration": 0.08333337500000049,
          "durationTicks": 15,
          "midi": 42,
          "name": "F#2",
          "ticks": 2640,
          "time": 14.666674,
          "velocity": 0.7874015748031497
        },
        {
          "duration": 0.08333337500000049,
          "durationTicks": 15,
          "midi": 80,
          "name": "G#5",
          "ticks": 2700,
          "time": 15.0000075,
          "velocity": 0.7874015748031497
        },
        {
          "duration": 0.08333337500000049,
          "durationTicks": 15,
          "midi": 36,
          "name": "C2",
          "ticks": 2700,
          "time": 15.0000075,
          "velocity": 0.7874015748031497
        },
        {
          "duration": 0.08333337500000049,
          "durationTicks": 15,
          "midi": 42,
          "name": "F#2",
          "ticks": 2700,
          "time": 15.0000075,
          "velocity": 0.7874015748031497
        },
        {
          "duration": 0.08333337499999871,
          "durationTicks": 15,
          "midi": 80,
          "name": "G#5",
          "ticks": 2760,
          "time": 15.333341,
          "velocity": 0.7874015748031497
        },
        {
          "duration": 0.08333337499999871,
          "durationTicks": 15,
          "midi": 38,
          "name": "D2",
          "ticks": 2760,
          "time": 15.333341,
          "velocity": 0.7874015748031497
        },
        {
          "duration": 0.08333337499999871,
          "durationTicks": 15,
          "midi": 42,
          "name": "F#2",
          "ticks": 2760,
          "time": 15.333341,
          "velocity": 0.7874015748031497
        },
        {
          "duration": 0.08333337499999871,
          "durationTicks": 15,
          "midi": 80,
          "name": "G#5",
          "ticks": 2820,
          "time": 15.666674500000001,
          "velocity": 0.7874015748031497
        },
        {
          "duration": 0.08333337499999871,
          "durationTicks": 15,
          "midi": 42,
          "name": "F#2",
          "ticks": 2820,
          "time": 15.666674500000001,
          "velocity": 0.7874015748031497
        },
        {
          "duration": 0.08333337499999871,
          "durationTicks": 15,
          "midi": 80,
          "name": "G#5",
          "ticks": 2880,
          "time": 16.000008,
          "velocity": 0.7874015748031497
        },
        {
          "duration": 0.08333337499999871,
          "durationTicks": 15,
          "midi": 36,
          "name": "C2",
          "ticks": 2880,
          "time": 16.000008,
          "velocity": 0.7874015748031497
        },
        {
          "duration": 0.08333337499999871,
          "durationTicks": 15,
          "midi": 42,
          "name": "F#2",
          "ticks": 2880,
          "time": 16.000008,
          "velocity": 0.7874015748031497
        },
        {
          "duration": 0.08333337500000226,
          "durationTicks": 15,
          "midi": 80,
          "name": "G#5",
          "ticks": 2940,
          "time": 16.3333415,
          "velocity": 0.7874015748031497
        },
        {
          "duration": 0.08333337500000226,
          "durationTicks": 15,
          "midi": 42,
          "name": "F#2",
          "ticks": 2940,
          "time": 16.3333415,
          "velocity": 0.7874015748031497
        },
        {
          "duration": 0.08333337499999871,
          "durationTicks": 15,
          "midi": 36,
          "name": "C2",
          "ticks": 2970,
          "time": 16.50000825,
          "velocity": 0.7874015748031497
        },
        {
          "duration": 0.08333337499999871,
          "durationTicks": 15,
          "midi": 38,
          "name": "D2",
          "ticks": 3000,
          "time": 16.666675,
          "velocity": 0.7874015748031497
        },
        {
          "duration": 0.08333337499999871,
          "durationTicks": 15,
          "midi": 80,
          "name": "G#5",
          "ticks": 3000,
          "time": 16.666675,
          "velocity": 0.7874015748031497
        },
        {
          "duration": 0.08333337499999871,
          "durationTicks": 15,
          "midi": 42,
          "name": "F#2",
          "ticks": 3000,
          "time": 16.666675,
          "velocity": 0.7874015748031497
        },
        {
          "duration": 0.08333337499999871,
          "durationTicks": 15,
          "midi": 80,
          "name": "G#5",
          "ticks": 3060,
          "time": 17.0000085,
          "velocity": 0.7874015748031497
        },
        {
          "duration": 0.08333337499999871,
          "durationTicks": 15,
          "midi": 42,
          "name": "F#2",
          "ticks": 3060,
          "time": 17.0000085,
          "velocity": 0.7874015748031497
        },
        {
          "duration": 0.08333337499999871,
          "durationTicks": 15,
          "midi": 80,
          "name": "G#5",
          "ticks": 3120,
          "time": 17.333342000000002,
          "velocity": 0.7874015748031497
        },
        {
          "duration": 0.08333337499999871,
          "durationTicks": 15,
          "midi": 36,
          "name": "C2",
          "ticks": 3120,
          "time": 17.333342000000002,
          "velocity": 0.7874015748031497
        },
        {
          "duration": 0.08333337499999871,
          "durationTicks": 15,
          "midi": 42,
          "name": "F#2",
          "ticks": 3120,
          "time": 17.333342000000002,
          "velocity": 0.7874015748031497
        },
        {
          "duration": 0.08333337499999871,
          "durationTicks": 15,
          "midi": 80,
          "name": "G#5",
          "ticks": 3180,
          "time": 17.6666755,
          "velocity": 0.7874015748031497
        },
        {
          "duration": 0.08333337499999871,
          "durationTicks": 15,
          "midi": 42,
          "name": "F#2",
          "ticks": 3180,
          "time": 17.6666755,
          "velocity": 0.7874015748031497
        },
        {
          "duration": 0.08333337499999871,
          "durationTicks": 15,
          "midi": 36,
          "name": "C2",
          "ticks": 3180,
          "time": 17.6666755,
          "velocity": 0.7874015748031497
        },
        {
          "duration": 0.08333337500000226,
          "durationTicks": 15,
          "midi": 38,
          "name": "D2",
          "ticks": 3240,
          "time": 18.000009,
          "velocity": 0.7874015748031497
        },
        {
          "duration": 0.08333337500000226,
          "durationTicks": 15,
          "midi": 80,
          "name": "G#5",
          "ticks": 3240,
          "time": 18.000009,
          "velocity": 0.7874015748031497
        },
        {
          "duration": 0.08333337500000226,
          "durationTicks": 15,
          "midi": 42,
          "name": "F#2",
          "ticks": 3240,
          "time": 18.000009,
          "velocity": 0.7874015748031497
        },
        {
          "duration": 0.08333337499999871,
          "durationTicks": 15,
          "midi": 80,
          "name": "G#5",
          "ticks": 3300,
          "time": 18.3333425,
          "velocity": 0.7874015748031497
        },
        {
          "duration": 0.08333337499999871,
          "durationTicks": 15,
          "midi": 42,
          "name": "F#2",
          "ticks": 3300,
          "time": 18.3333425,
          "velocity": 0.7874015748031497
        },
        {
          "duration": 0.08333337500000226,
          "durationTicks": 15,
          "midi": 80,
          "name": "G#5",
          "ticks": 3360,
          "time": 18.666676,
          "velocity": 0.7874015748031497
        },
        {
          "duration": 0.08333337500000226,
          "durationTicks": 15,
          "midi": 42,
          "name": "F#2",
          "ticks": 3360,
          "time": 18.666676,
          "velocity": 0.7874015748031497
        },
        {
          "duration": 0.08333337500000226,
          "durationTicks": 15,
          "midi": 36,
          "name": "C2",
          "ticks": 3360,
          "time": 18.666676,
          "velocity": 0.7874015748031497
        },
        {
          "duration": 0.08333337499999871,
          "durationTicks": 15,
          "midi": 80,
          "name": "G#5",
          "ticks": 3420,
          "time": 19.0000095,
          "velocity": 0.7874015748031497
        },
        {
          "duration": 0.08333337499999871,
          "durationTicks": 15,
          "midi": 42,
          "name": "F#2",
          "ticks": 3420,
          "time": 19.0000095,
          "velocity": 0.7874015748031497
        },
        {
          "duration": 0.08333337499999871,
          "durationTicks": 15,
          "midi": 36,
          "name": "C2",
          "ticks": 3450,
          "time": 19.166676250000002,
          "velocity": 0.7874015748031497
        },
        {
          "duration": 0.08333337500000226,
          "durationTicks": 15,
          "midi": 80,
          "name": "G#5",
          "ticks": 3480,
          "time": 19.333343,
          "velocity": 0.7874015748031497
        },
        {
          "duration": 0.08333337500000226,
          "durationTicks": 15,
          "midi": 42,
          "name": "F#2",
          "ticks": 3480,
          "time": 19.333343,
          "velocity": 0.7874015748031497
        },
        {
          "duration": 0.08333337500000226,
          "durationTicks": 15,
          "midi": 38,
          "name": "D2",
          "ticks": 3480,
          "time": 19.333343,
          "velocity": 0.7874015748031497
        },
        {
          "duration": 0.08333337499999871,
          "durationTicks": 15,
          "midi": 80,
          "name": "G#5",
          "ticks": 3540,
          "time": 19.6666765,
          "velocity": 0.7874015748031497
        },
        {
          "duration": 0.08333337499999871,
          "durationTicks": 15,
          "midi": 42,
          "name": "F#2",
          "ticks": 3540,
          "time": 19.6666765,
          "velocity": 0.7874015748031497
        },
        {
          "duration": 0.08333337500000226,
          "durationTicks": 15,
          "midi": 80,
          "name": "G#5",
          "ticks": 3600,
          "time": 20.00001,
          "velocity": 0.7874015748031497
        },
        {
          "duration": 0.08333337500000226,
          "durationTicks": 15,
          "midi": 42,
          "name": "F#2",
          "ticks": 3600,
          "time": 20.00001,
          "velocity": 0.7874015748031497
        },
        {
          "duration": 0.08333337500000226,
          "durationTicks": 15,
          "midi": 36,
          "name": "C2",
          "ticks": 3600,
          "time": 20.00001,
          "velocity": 0.7874015748031497
        },
        {
          "duration": 0.08333337499999871,
          "durationTicks": 15,
          "midi": 80,
          "name": "G#5",
          "ticks": 3660,
          "time": 20.3333435,
          "velocity": 0.7874015748031497
        },
        {
          "duration": 0.08333337499999871,
          "durationTicks": 15,
          "midi": 42,
          "name": "F#2",
          "ticks": 3660,
          "time": 20.3333435,
          "velocity": 0.7874015748031497
        },
        {
          "duration": 0.08333337500000226,
          "durationTicks": 15,
          "midi": 36,
          "name": "C2",
          "ticks": 3690,
          "time": 20.50001025,
          "velocity": 0.7874015748031497
        },
        {
          "duration": 0.08333337499999871,
          "durationTicks": 15,
          "midi": 80,
          "name": "G#5",
          "ticks": 3720,
          "time": 20.666677,
          "velocity": 0.7874015748031497
        },
        {
          "duration": 0.08333337499999871,
          "durationTicks": 15,
          "midi": 42,
          "name": "F#2",
          "ticks": 3720,
          "time": 20.666677,
          "velocity": 0.7874015748031497
        },
        {
          "duration": 0.08333337499999871,
          "durationTicks": 15,
          "midi": 38,
          "name": "D2",
          "ticks": 3720,
          "time": 20.666677,
          "velocity": 0.7874015748031497
        },
        {
          "duration": 0.08333337499999871,
          "durationTicks": 15,
          "midi": 80,
          "name": "G#5",
          "ticks": 3780,
          "time": 21.000010500000002,
          "velocity": 0.7874015748031497
        },
        {
          "duration": 0.08333337499999871,
          "durationTicks": 15,
          "midi": 42,
          "name": "F#2",
          "ticks": 3780,
          "time": 21.000010500000002,
          "velocity": 0.7874015748031497
        },
        {
          "duration": 0.08333337499999871,
          "durationTicks": 15,
          "midi": 36,
          "name": "C2",
          "ticks": 3780,
          "time": 21.000010500000002,
          "velocity": 0.7874015748031497
        },
        {
          "duration": 0.08333337499999871,
          "durationTicks": 15,
          "midi": 36,
          "name": "C2",
          "ticks": 3840,
          "time": 21.333344,
          "velocity": 0.7874015748031497
        },
        {
          "duration": 0.08333337499999871,
          "durationTicks": 15,
          "midi": 80,
          "name": "G#5",
          "ticks": 3840,
          "time": 21.333344,
          "velocity": 0.7874015748031497
        },
        {
          "duration": 0.08333337499999871,
          "durationTicks": 15,
          "midi": 42,
          "name": "F#2",
          "ticks": 3840,
          "time": 21.333344,
          "velocity": 0.7874015748031497
        },
        {
          "duration": 0.08333337499999871,
          "durationTicks": 15,
          "midi": 36,
          "name": "C2",
          "ticks": 3870,
          "time": 21.50001075,
          "velocity": 0.7874015748031497
        },
        {
          "duration": 0.08333337500000226,
          "durationTicks": 15,
          "midi": 80,
          "name": "G#5",
          "ticks": 3900,
          "time": 21.6666775,
          "velocity": 0.7874015748031497
        },
        {
          "duration": 0.08333337500000226,
          "durationTicks": 15,
          "midi": 42,
          "name": "F#2",
          "ticks": 3900,
          "time": 21.6666775,
          "velocity": 0.7874015748031497
        },
        {
          "duration": 0.08333337500000226,
          "durationTicks": 15,
          "midi": 36,
          "name": "C2",
          "ticks": 3930,
          "time": 21.83334425,
          "velocity": 0.7874015748031497
        },
        {
          "duration": 0.08333337499999871,
          "durationTicks": 15,
          "midi": 38,
          "name": "D2",
          "ticks": 3960,
          "time": 22.000011,
          "velocity": 0.7874015748031497
        },
        {
          "duration": 0.08333337499999871,
          "durationTicks": 15,
          "midi": 80,
          "name": "G#5",
          "ticks": 3960,
          "time": 22.000011,
          "velocity": 0.7874015748031497
        },
        {
          "duration": 0.08333337499999871,
          "durationTicks": 15,
          "midi": 42,
          "name": "F#2",
          "ticks": 3960,
          "time": 22.000011,
          "velocity": 0.7874015748031497
        },
        {
          "duration": 0.08333337500000226,
          "durationTicks": 15,
          "midi": 80,
          "name": "G#5",
          "ticks": 4020,
          "time": 22.3333445,
          "velocity": 0.7874015748031497
        },
        {
          "duration": 0.08333337500000226,
          "durationTicks": 15,
          "midi": 42,
          "name": "F#2",
          "ticks": 4020,
          "time": 22.3333445,
          "velocity": 0.7874015748031497
        },
        {
          "duration": 0.08333337499999871,
          "durationTicks": 15,
          "midi": 36,
          "name": "C2",
          "ticks": 4080,
          "time": 22.666678,
          "velocity": 0.7874015748031497
        },
        {
          "duration": 0.08333337499999871,
          "durationTicks": 15,
          "midi": 80,
          "name": "G#5",
          "ticks": 4080,
          "time": 22.666678,
          "velocity": 0.7874015748031497
        },
        {
          "duration": 0.08333337499999871,
          "durationTicks": 15,
          "midi": 42,
          "name": "F#2",
          "ticks": 4080,
          "time": 22.666678,
          "velocity": 0.7874015748031497
        },
        {
          "duration": 0.08333337500000226,
          "durationTicks": 15,
          "midi": 36,
          "name": "C2",
          "ticks": 4140,
          "time": 23.0000115,
          "velocity": 0.7874015748031497
        },
        {
          "duration": 0.08333337500000226,
          "durationTicks": 15,
          "midi": 80,
          "name": "G#5",
          "ticks": 4140,
          "time": 23.0000115,
          "velocity": 0.7874015748031497
        },
        {
          "duration": 0.08333337500000226,
          "durationTicks": 15,
          "midi": 42,
          "name": "F#2",
          "ticks": 4140,
          "time": 23.0000115,
          "velocity": 0.7874015748031497
        },
        {
          "duration": 0.08333337499999871,
          "durationTicks": 15,
          "midi": 80,
          "name": "G#5",
          "ticks": 4200,
          "time": 23.333345,
          "velocity": 0.7874015748031497
        },
        {
          "duration": 0.08333337499999871,
          "durationTicks": 15,
          "midi": 38,
          "name": "D2",
          "ticks": 4200,
          "time": 23.333345,
          "velocity": 0.7874015748031497
        },
        {
          "duration": 0.08333337499999871,
          "durationTicks": 15,
          "midi": 42,
          "name": "F#2",
          "ticks": 4200,
          "time": 23.333345,
          "velocity": 0.7874015748031497
        },
        {
          "duration": 0.08333337500000226,
          "durationTicks": 15,
          "midi": 80,
          "name": "G#5",
          "ticks": 4260,
          "time": 23.6666785,
          "velocity": 0.7874015748031497
        },
        {
          "duration": 0.08333337500000226,
          "durationTicks": 15,
          "midi": 42,
          "name": "F#2",
          "ticks": 4260,
          "time": 23.6666785,
          "velocity": 0.7874015748031497
        },
        {
          "duration": 0.08333337499999871,
          "durationTicks": 15,
          "midi": 38,
          "name": "D2",
          "ticks": 4290,
          "time": 23.83334525,
          "velocity": 0.7874015748031497
        },
        {
          "duration": 0.08333337499999871,
          "durationTicks": 15,
          "midi": 80,
          "name": "G#5",
          "ticks": 4320,
          "time": 24.000012,
          "velocity": 0.7874015748031497
        },
        {
          "duration": 0.08333337499999871,
          "durationTicks": 15,
          "midi": 36,
          "name": "C2",
          "ticks": 4320,
          "time": 24.000012,
          "velocity": 0.7874015748031497
        },
        {
          "duration": 0.08333337499999871,
          "durationTicks": 15,
          "midi": 42,
          "name": "F#2",
          "ticks": 4320,
          "time": 24.000012,
          "velocity": 0.7874015748031497
        },
        {
          "duration": 0.08333337499999871,
          "durationTicks": 15,
          "midi": 80,
          "name": "G#5",
          "ticks": 4380,
          "time": 24.3333455,
          "velocity": 0.7874015748031497
        },
        {
          "duration": 0.08333337499999871,
          "durationTicks": 15,
          "midi": 42,
          "name": "F#2",
          "ticks": 4380,
          "time": 24.3333455,
          "velocity": 0.7874015748031497
        },
        {
          "duration": 0.08333337499999871,
          "durationTicks": 15,
          "midi": 36,
          "name": "C2",
          "ticks": 4410,
          "time": 24.50001225,
          "velocity": 0.7874015748031497
        },
        {
          "duration": 0.08333337499999871,
          "durationTicks": 15,
          "midi": 80,
          "name": "G#5",
          "ticks": 4440,
          "time": 24.666679000000002,
          "velocity": 0.7874015748031497
        },
        {
          "duration": 0.08333337499999871,
          "durationTicks": 15,
          "midi": 38,
          "name": "D2",
          "ticks": 4440,
          "time": 24.666679000000002,
          "velocity": 0.7874015748031497
        },
        {
          "duration": 0.08333337499999871,
          "durationTicks": 15,
          "midi": 42,
          "name": "F#2",
          "ticks": 4440,
          "time": 24.666679000000002,
          "velocity": 0.7874015748031497
        },
        {
          "duration": 0.08333337499999871,
          "durationTicks": 15,
          "midi": 80,
          "name": "G#5",
          "ticks": 4500,
          "time": 25.0000125,
          "velocity": 0.7874015748031497
        },
        {
          "duration": 0.08333337499999871,
          "durationTicks": 15,
          "midi": 42,
          "name": "F#2",
          "ticks": 4500,
          "time": 25.0000125,
          "velocity": 0.7874015748031497
        },
        {
          "duration": 0.08333337500000226,
          "durationTicks": 15,
          "midi": 80,
          "name": "G#5",
          "ticks": 4560,
          "time": 25.333346,
          "velocity": 0.7874015748031497
        },
        {
          "duration": 0.08333337500000226,
          "durationTicks": 15,
          "midi": 36,
          "name": "C2",
          "ticks": 4560,
          "time": 25.333346,
          "velocity": 0.7874015748031497
        },
        {
          "duration": 0.08333337500000226,
          "durationTicks": 15,
          "midi": 42,
          "name": "F#2",
          "ticks": 4560,
          "time": 25.333346,
          "velocity": 0.7874015748031497
        },
        {
          "duration": 0.08333337499999871,
          "durationTicks": 15,
          "midi": 80,
          "name": "G#5",
          "ticks": 4620,
          "time": 25.6666795,
          "velocity": 0.7874015748031497
        },
        {
          "duration": 0.08333337499999871,
          "durationTicks": 15,
          "midi": 36,
          "name": "C2",
          "ticks": 4620,
          "time": 25.6666795,
          "velocity": 0.7874015748031497
        },
        {
          "duration": 0.08333337499999871,
          "durationTicks": 15,
          "midi": 42,
          "name": "F#2",
          "ticks": 4620,
          "time": 25.6666795,
          "velocity": 0.7874015748031497
        },
        {
          "duration": 0.08333337500000226,
          "durationTicks": 15,
          "midi": 80,
          "name": "G#5",
          "ticks": 4680,
          "time": 26.000013,
          "velocity": 0.7874015748031497
        },
        {
          "duration": 0.08333337500000226,
          "durationTicks": 15,
          "midi": 38,
          "name": "D2",
          "ticks": 4680,
          "time": 26.000013,
          "velocity": 0.7874015748031497
        },
        {
          "duration": 0.08333337500000226,
          "durationTicks": 15,
          "midi": 42,
          "name": "F#2",
          "ticks": 4680,
          "time": 26.000013,
          "velocity": 0.7874015748031497
        },
        {
          "duration": 0.08333337499999871,
          "durationTicks": 15,
          "midi": 80,
          "name": "G#5",
          "ticks": 4740,
          "time": 26.3333465,
          "velocity": 0.7874015748031497
        },
        {
          "duration": 0.08333337499999871,
          "durationTicks": 15,
          "midi": 42,
          "name": "F#2",
          "ticks": 4740,
          "time": 26.3333465,
          "velocity": 0.7874015748031497
        },
        {
          "duration": 0.08333337500000226,
          "durationTicks": 15,
          "midi": 80,
          "name": "G#5",
          "ticks": 4800,
          "time": 26.66668,
          "velocity": 0.7874015748031497
        },
        {
          "duration": 0.08333337500000226,
          "durationTicks": 15,
          "midi": 36,
          "name": "C2",
          "ticks": 4800,
          "time": 26.66668,
          "velocity": 0.7874015748031497
        },
        {
          "duration": 0.08333337500000226,
          "durationTicks": 15,
          "midi": 42,
          "name": "F#2",
          "ticks": 4800,
          "time": 26.66668,
          "velocity": 0.7874015748031497
        },
        {
          "duration": 0.08333337499999871,
          "durationTicks": 15,
          "midi": 80,
          "name": "G#5",
          "ticks": 4860,
          "time": 27.0000135,
          "velocity": 0.7874015748031497
        },
        {
          "duration": 0.08333337499999871,
          "durationTicks": 15,
          "midi": 42,
          "name": "F#2",
          "ticks": 4860,
          "time": 27.0000135,
          "velocity": 0.7874015748031497
        },
        {
          "duration": 0.08333337500000226,
          "durationTicks": 15,
          "midi": 36,
          "name": "C2",
          "ticks": 4890,
          "time": 27.16668025,
          "velocity": 0.7874015748031497
        },
        {
          "duration": 0.08333337500000226,
          "durationTicks": 15,
          "midi": 38,
          "name": "D2",
          "ticks": 4920,
          "time": 27.333347,
          "velocity": 0.7874015748031497
        },
        {
          "duration": 0.08333337500000226,
          "durationTicks": 15,
          "midi": 80,
          "name": "G#5",
          "ticks": 4920,
          "time": 27.333347,
          "velocity": 0.7874015748031497
        },
        {
          "duration": 0.08333337500000226,
          "durationTicks": 15,
          "midi": 42,
          "name": "F#2",
          "ticks": 4920,
          "time": 27.333347,
          "velocity": 0.7874015748031497
        },
        {
          "duration": 0.08333337499999871,
          "durationTicks": 15,
          "midi": 80,
          "name": "G#5",
          "ticks": 4980,
          "time": 27.666680500000002,
          "velocity": 0.7874015748031497
        },
        {
          "duration": 0.08333337499999871,
          "durationTicks": 15,
          "midi": 42,
          "name": "F#2",
          "ticks": 4980,
          "time": 27.666680500000002,
          "velocity": 0.7874015748031497
        },
        {
          "duration": 0.08333337499999871,
          "durationTicks": 15,
          "midi": 80,
          "name": "G#5",
          "ticks": 5040,
          "time": 28.000014,
          "velocity": 0.7874015748031497
        },
        {
          "duration": 0.08333337499999871,
          "durationTicks": 15,
          "midi": 36,
          "name": "C2",
          "ticks": 5040,
          "time": 28.000014,
          "velocity": 0.7874015748031497
        },
        {
          "duration": 0.08333337499999871,
          "durationTicks": 15,
          "midi": 42,
          "name": "F#2",
          "ticks": 5040,
          "time": 28.000014,
          "velocity": 0.7874015748031497
        },
        {
          "duration": 0.08333337499999871,
          "durationTicks": 15,
          "midi": 80,
          "name": "G#5",
          "ticks": 5100,
          "time": 28.333347500000002,
          "velocity": 0.7874015748031497
        },
        {
          "duration": 0.08333337499999871,
          "durationTicks": 15,
          "midi": 42,
          "name": "F#2",
          "ticks": 5100,
          "time": 28.333347500000002,
          "velocity": 0.7874015748031497
        },
        {
          "duration": 0.08333337499999871,
          "durationTicks": 15,
          "midi": 36,
          "name": "C2",
          "ticks": 5100,
          "time": 28.333347500000002,
          "velocity": 0.7874015748031497
        },
        {
          "duration": 0.08333337499999871,
          "durationTicks": 15,
          "midi": 38,
          "name": "D2",
          "ticks": 5160,
          "time": 28.666681,
          "velocity": 0.7874015748031497
        },
        {
          "duration": 0.08333337499999871,
          "durationTicks": 15,
          "midi": 80,
          "name": "G#5",
          "ticks": 5160,
          "time": 28.666681,
          "velocity": 0.7874015748031497
        },
        {
          "duration": 0.08333337499999871,
          "durationTicks": 15,
          "midi": 42,
          "name": "F#2",
          "ticks": 5160,
          "time": 28.666681,
          "velocity": 0.7874015748031497
        },
        {
          "duration": 0.08333337500000226,
          "durationTicks": 15,
          "midi": 80,
          "name": "G#5",
          "ticks": 5220,
          "time": 29.0000145,
          "velocity": 0.7874015748031497
        },
        {
          "duration": 0.08333337500000226,
          "durationTicks": 15,
          "midi": 42,
          "name": "F#2",
          "ticks": 5220,
          "time": 29.0000145,
          "velocity": 0.7874015748031497
        },
        {
          "duration": 0.08333337499999871,
          "durationTicks": 15,
          "midi": 80,
          "name": "G#5",
          "ticks": 5280,
          "time": 29.333348,
          "velocity": 0.7874015748031497
        },
        {
          "duration": 0.08333337499999871,
          "durationTicks": 15,
          "midi": 42,
          "name": "F#2",
          "ticks": 5280,
          "time": 29.333348,
          "velocity": 0.7874015748031497
        },
        {
          "duration": 0.08333337499999871,
          "durationTicks": 15,
          "midi": 36,
          "name": "C2",
          "ticks": 5280,
          "time": 29.333348,
          "velocity": 0.7874015748031497
        },
        {
          "duration": 0.08333337500000226,
          "durationTicks": 15,
          "midi": 80,
          "name": "G#5",
          "ticks": 5340,
          "time": 29.6666815,
          "velocity": 0.7874015748031497
        },
        {
          "duration": 0.08333337500000226,
          "durationTicks": 15,
          "midi": 42,
          "name": "F#2",
          "ticks": 5340,
          "time": 29.6666815,
          "velocity": 0.7874015748031497
        },
        {
          "duration": 0.08333337499999871,
          "durationTicks": 15,
          "midi": 36,
          "name": "C2",
          "ticks": 5370,
          "time": 29.83334825,
          "velocity": 0.7874015748031497
        },
        {
          "duration": 0.08333337499999871,
          "durationTicks": 15,
          "midi": 80,
          "name": "G#5",
          "ticks": 5400,
          "time": 30.000015,
          "velocity": 0.7874015748031497
        },
        {
          "duration": 0.08333337499999871,
          "durationTicks": 15,
          "midi": 42,
          "name": "F#2",
          "ticks": 5400,
          "time": 30.000015,
          "velocity": 0.7874015748031497
        },
        {
          "duration": 0.08333337499999871,
          "durationTicks": 15,
          "midi": 38,
          "name": "D2",
          "ticks": 5400,
          "time": 30.000015,
          "velocity": 0.7874015748031497
        },
        {
          "duration": 0.08333337500000226,
          "durationTicks": 15,
          "midi": 80,
          "name": "G#5",
          "ticks": 5460,
          "time": 30.3333485,
          "velocity": 0.7874015748031497
        },
        {
          "duration": 0.08333337500000226,
          "durationTicks": 15,
          "midi": 42,
          "name": "F#2",
          "ticks": 5460,
          "time": 30.3333485,
          "velocity": 0.7874015748031497
        },
        {
          "duration": 0.08333337499999871,
          "durationTicks": 15,
          "midi": 80,
          "name": "G#5",
          "ticks": 5520,
          "time": 30.666682,
          "velocity": 0.7874015748031497
        },
        {
          "duration": 0.08333337499999871,
          "durationTicks": 15,
          "midi": 42,
          "name": "F#2",
          "ticks": 5520,
          "time": 30.666682,
          "velocity": 0.7874015748031497
        },
        {
          "duration": 0.08333337499999871,
          "durationTicks": 15,
          "midi": 36,
          "name": "C2",
          "ticks": 5520,
          "time": 30.666682,
          "velocity": 0.7874015748031497
        },
        {
          "duration": 0.08333337500000226,
          "durationTicks": 15,
          "midi": 80,
          "name": "G#5",
          "ticks": 5580,
          "time": 31.0000155,
          "velocity": 0.7874015748031497
        },
        {
          "duration": 0.08333337500000226,
          "durationTicks": 15,
          "midi": 42,
          "name": "F#2",
          "ticks": 5580,
          "time": 31.0000155,
          "velocity": 0.7874015748031497
        },
        {
          "duration": 0.08333337499999871,
          "durationTicks": 15,
          "midi": 36,
          "name": "C2",
          "ticks": 5610,
          "time": 31.16668225,
          "velocity": 0.7874015748031497
        },
        {
          "duration": 0.08333337499999871,
          "durationTicks": 15,
          "midi": 80,
          "name": "G#5",
          "ticks": 5640,
          "time": 31.333349000000002,
          "velocity": 0.7874015748031497
        },
        {
          "duration": 0.08333337499999871,
          "durationTicks": 15,
          "midi": 42,
          "name": "F#2",
          "ticks": 5640,
          "time": 31.333349000000002,
          "velocity": 0.7874015748031497
        },
        {
          "duration": 0.08333337499999871,
          "durationTicks": 15,
          "midi": 38,
          "name": "D2",
          "ticks": 5640,
          "time": 31.333349000000002,
          "velocity": 0.7874015748031497
        },
        {
          "duration": 0.08333337499999871,
          "durationTicks": 15,
          "midi": 80,
          "name": "G#5",
          "ticks": 5700,
          "time": 31.6666825,
          "velocity": 0.7874015748031497
        },
        {
          "duration": 0.08333337499999871,
          "durationTicks": 15,
          "midi": 42,
          "name": "F#2",
          "ticks": 5700,
          "time": 31.6666825,
          "velocity": 0.7874015748031497
        },
        {
          "duration": 0.08333337499999871,
          "durationTicks": 15,
          "midi": 36,
          "name": "C2",
          "ticks": 5700,
          "time": 31.6666825,
          "velocity": 0.7874015748031497
        },
        {
          "duration": 0.08333337499999516,
          "durationTicks": 15,
          "midi": 36,
          "name": "C2",
          "ticks": 5760,
          "time": 32.000016,
          "velocity": 0.7874015748031497
        },
        {
          "duration": 0.08333337499999516,
          "durationTicks": 15,
          "midi": 80,
          "name": "G#5",
          "ticks": 5760,
          "time": 32.000016,
          "velocity": 0.7874015748031497
        },
        {
          "duration": 0.08333337499999516,
          "durationTicks": 15,
          "midi": 42,
          "name": "F#2",
          "ticks": 5760,
          "time": 32.000016,
          "velocity": 0.7874015748031497
        },
        {
          "duration": 0.08333337500000226,
          "durationTicks": 15,
          "midi": 36,
          "name": "C2",
          "ticks": 5790,
          "time": 32.16668275,
          "velocity": 0.7874015748031497
        },
        {
          "duration": 0.08333337500000226,
          "durationTicks": 15,
          "midi": 80,
          "name": "G#5",
          "ticks": 5820,
          "time": 32.3333495,
          "velocity": 0.7874015748031497
        },
        {
          "duration": 0.08333337500000226,
          "durationTicks": 15,
          "midi": 42,
          "name": "F#2",
          "ticks": 5820,
          "time": 32.3333495,
          "velocity": 0.7874015748031497
        },
        {
          "duration": 0.08333337500000226,
          "durationTicks": 15,
          "midi": 36,
          "name": "C2",
          "ticks": 5850,
          "time": 32.50001625,
          "velocity": 0.7874015748031497
        },
        {
          "duration": 0.08333337500000226,
          "durationTicks": 15,
          "midi": 38,
          "name": "D2",
          "ticks": 5880,
          "time": 32.666683,
          "velocity": 0.7874015748031497
        },
        {
          "duration": 0.08333337500000226,
          "durationTicks": 15,
          "midi": 80,
          "name": "G#5",
          "ticks": 5880,
          "time": 32.666683,
          "velocity": 0.7874015748031497
        },
        {
          "duration": 0.08333337500000226,
          "durationTicks": 15,
          "midi": 42,
          "name": "F#2",
          "ticks": 5880,
          "time": 32.666683,
          "velocity": 0.7874015748031497
        },
        {
          "duration": 0.08333337500000226,
          "durationTicks": 15,
          "midi": 80,
          "name": "G#5",
          "ticks": 5940,
          "time": 33.0000165,
          "velocity": 0.7874015748031497
        },
        {
          "duration": 0.08333337500000226,
          "durationTicks": 15,
          "midi": 42,
          "name": "F#2",
          "ticks": 5940,
          "time": 33.0000165,
          "velocity": 0.7874015748031497
        },
        {
          "duration": 0.08333337499999516,
          "durationTicks": 15,
          "midi": 36,
          "name": "C2",
          "ticks": 6000,
          "time": 33.33335,
          "velocity": 0.7874015748031497
        },
        {
          "duration": 0.08333337499999516,
          "durationTicks": 15,
          "midi": 80,
          "name": "G#5",
          "ticks": 6000,
          "time": 33.33335,
          "velocity": 0.7874015748031497
        },
        {
          "duration": 0.08333337499999516,
          "durationTicks": 15,
          "midi": 42,
          "name": "F#2",
          "ticks": 6000,
          "time": 33.33335,
          "velocity": 0.7874015748031497
        },
        {
          "duration": 0.08333337500000226,
          "durationTicks": 15,
          "midi": 36,
          "name": "C2",
          "ticks": 6060,
          "time": 33.6666835,
          "velocity": 0.7874015748031497
        },
        {
          "duration": 0.08333337500000226,
          "durationTicks": 15,
          "midi": 80,
          "name": "G#5",
          "ticks": 6060,
          "time": 33.6666835,
          "velocity": 0.7874015748031497
        },
        {
          "duration": 0.08333337500000226,
          "durationTicks": 15,
          "midi": 42,
          "name": "F#2",
          "ticks": 6060,
          "time": 33.6666835,
          "velocity": 0.7874015748031497
        },
        {
          "duration": 0.08333337500000226,
          "durationTicks": 15,
          "midi": 80,
          "name": "G#5",
          "ticks": 6120,
          "time": 34.000017,
          "velocity": 0.7874015748031497
        },
        {
          "duration": 0.08333337500000226,
          "durationTicks": 15,
          "midi": 38,
          "name": "D2",
          "ticks": 6120,
          "time": 34.000017,
          "velocity": 0.7874015748031497
        },
        {
          "duration": 0.08333337500000226,
          "durationTicks": 15,
          "midi": 42,
          "name": "F#2",
          "ticks": 6120,
          "time": 34.000017,
          "velocity": 0.7874015748031497
        },
        {
          "duration": 0.08333337500000226,
          "durationTicks": 15,
          "midi": 80,
          "name": "G#5",
          "ticks": 6180,
          "time": 34.3333505,
          "velocity": 0.7874015748031497
        },
        {
          "duration": 0.08333337500000226,
          "durationTicks": 15,
          "midi": 42,
          "name": "F#2",
          "ticks": 6180,
          "time": 34.3333505,
          "velocity": 0.7874015748031497
        },
        {
          "duration": 0.08333337500000226,
          "durationTicks": 15,
          "midi": 38,
          "name": "D2",
          "ticks": 6210,
          "time": 34.50001725,
          "velocity": 0.7874015748031497
        },
        {
          "duration": 0.08333337499999516,
          "durationTicks": 15,
          "midi": 80,
          "name": "G#5",
          "ticks": 6240,
          "time": 34.666684000000004,
          "velocity": 0.7874015748031497
        },
        {
          "duration": 0.08333337499999516,
          "durationTicks": 15,
          "midi": 36,
          "name": "C2",
          "ticks": 6240,
          "time": 34.666684000000004,
          "velocity": 0.7874015748031497
        },
        {
          "duration": 0.08333337499999516,
          "durationTicks": 15,
          "midi": 42,
          "name": "F#2",
          "ticks": 6240,
          "time": 34.666684000000004,
          "velocity": 0.7874015748031497
        },
        {
          "duration": 0.08333337500000226,
          "durationTicks": 15,
          "midi": 80,
          "name": "G#5",
          "ticks": 6300,
          "time": 35.0000175,
          "velocity": 0.7874015748031497
        },
        {
          "duration": 0.08333337500000226,
          "durationTicks": 15,
          "midi": 42,
          "name": "F#2",
          "ticks": 6300,
          "time": 35.0000175,
          "velocity": 0.7874015748031497
        },
        {
          "duration": 0.08333337499999516,
          "durationTicks": 15,
          "midi": 36,
          "name": "C2",
          "ticks": 6330,
          "time": 35.16668425,
          "velocity": 0.7874015748031497
        },
        {
          "duration": 0.08333337500000226,
          "durationTicks": 15,
          "midi": 80,
          "name": "G#5",
          "ticks": 6360,
          "time": 35.333351,
          "velocity": 0.7874015748031497
        },
        {
          "duration": 0.08333337500000226,
          "durationTicks": 15,
          "midi": 38,
          "name": "D2",
          "ticks": 6360,
          "time": 35.333351,
          "velocity": 0.7874015748031497
        },
        {
          "duration": 0.08333337500000226,
          "durationTicks": 15,
          "midi": 42,
          "name": "F#2",
          "ticks": 6360,
          "time": 35.333351,
          "velocity": 0.7874015748031497
        },
        {
          "duration": 0.08333337499999516,
          "durationTicks": 15,
          "midi": 80,
          "name": "G#5",
          "ticks": 6420,
          "time": 35.6666845,
          "velocity": 0.7874015748031497
        },
        {
          "duration": 0.08333337499999516,
          "durationTicks": 15,
          "midi": 42,
          "name": "F#2",
          "ticks": 6420,
          "time": 35.6666845,
          "velocity": 0.7874015748031497
        },
        {
          "duration": 0.08333337500000226,
          "durationTicks": 15,
          "midi": 80,
          "name": "G#5",
          "ticks": 6480,
          "time": 36.000018,
          "velocity": 0.7874015748031497
        },
        {
          "duration": 0.08333337500000226,
          "durationTicks": 15,
          "midi": 36,
          "name": "C2",
          "ticks": 6480,
          "time": 36.000018,
          "velocity": 0.7874015748031497
        },
        {
          "duration": 0.08333337500000226,
          "durationTicks": 15,
          "midi": 42,
          "name": "F#2",
          "ticks": 6480,
          "time": 36.000018,
          "velocity": 0.7874015748031497
        },
        {
          "duration": 0.08333337500000226,
          "durationTicks": 15,
          "midi": 80,
          "name": "G#5",
          "ticks": 6540,
          "time": 36.3333515,
          "velocity": 0.7874015748031497
        },
        {
          "duration": 0.08333337500000226,
          "durationTicks": 15,
          "midi": 36,
          "name": "C2",
          "ticks": 6540,
          "time": 36.3333515,
          "velocity": 0.7874015748031497
        },
        {
          "duration": 0.08333337500000226,
          "durationTicks": 15,
          "midi": 42,
          "name": "F#2",
          "ticks": 6540,
          "time": 36.3333515,
          "velocity": 0.7874015748031497
        },
        {
          "duration": 0.08333337500000226,
          "durationTicks": 15,
          "midi": 80,
          "name": "G#5",
          "ticks": 6600,
          "time": 36.666685,
          "velocity": 0.7874015748031497
        },
        {
          "duration": 0.08333337500000226,
          "durationTicks": 15,
          "midi": 38,
          "name": "D2",
          "ticks": 6600,
          "time": 36.666685,
          "velocity": 0.7874015748031497
        },
        {
          "duration": 0.08333337500000226,
          "durationTicks": 15,
          "midi": 42,
          "name": "F#2",
          "ticks": 6600,
          "time": 36.666685,
          "velocity": 0.7874015748031497
        },
        {
          "duration": 0.08333337499999516,
          "durationTicks": 15,
          "midi": 80,
          "name": "G#5",
          "ticks": 6660,
          "time": 37.0000185,
          "velocity": 0.7874015748031497
        },
        {
          "duration": 0.08333337499999516,
          "durationTicks": 15,
          "midi": 42,
          "name": "F#2",
          "ticks": 6660,
          "time": 37.0000185,
          "velocity": 0.7874015748031497
        },
        {
          "duration": 0.08333337500000226,
          "durationTicks": 15,
          "midi": 80,
          "name": "G#5",
          "ticks": 6720,
          "time": 37.333352,
          "velocity": 0.7874015748031497
        },
        {
          "duration": 0.08333337500000226,
          "durationTicks": 15,
          "midi": 36,
          "name": "C2",
          "ticks": 6720,
          "time": 37.333352,
          "velocity": 0.7874015748031497
        },
        {
          "duration": 0.08333337500000226,
          "durationTicks": 15,
          "midi": 42,
          "name": "F#2",
          "ticks": 6720,
          "time": 37.333352,
          "velocity": 0.7874015748031497
        },
        {
          "duration": 0.08333337500000226,
          "durationTicks": 15,
          "midi": 80,
          "name": "G#5",
          "ticks": 6780,
          "time": 37.6666855,
          "velocity": 0.7874015748031497
        },
        {
          "duration": 0.08333337500000226,
          "durationTicks": 15,
          "midi": 42,
          "name": "F#2",
          "ticks": 6780,
          "time": 37.6666855,
          "velocity": 0.7874015748031497
        },
        {
          "duration": 0.08333337500000226,
          "durationTicks": 15,
          "midi": 36,
          "name": "C2",
          "ticks": 6810,
          "time": 37.83335225,
          "velocity": 0.7874015748031497
        },
        {
          "duration": 0.08333337500000226,
          "durationTicks": 15,
          "midi": 38,
          "name": "D2",
          "ticks": 6840,
          "time": 38.000019,
          "velocity": 0.7874015748031497
        },
        {
          "duration": 0.08333337500000226,
          "durationTicks": 15,
          "midi": 80,
          "name": "G#5",
          "ticks": 6840,
          "time": 38.000019,
          "velocity": 0.7874015748031497
        },
        {
          "duration": 0.08333337500000226,
          "durationTicks": 15,
          "midi": 42,
          "name": "F#2",
          "ticks": 6840,
          "time": 38.000019,
          "velocity": 0.7874015748031497
        },
        {
          "duration": 0.08333337499999516,
          "durationTicks": 15,
          "midi": 80,
          "name": "G#5",
          "ticks": 6900,
          "time": 38.333352500000004,
          "velocity": 0.7874015748031497
        },
        {
          "duration": 0.08333337499999516,
          "durationTicks": 15,
          "midi": 42,
          "name": "F#2",
          "ticks": 6900,
          "time": 38.333352500000004,
          "velocity": 0.7874015748031497
        },
        {
          "duration": 0.08333337500000226,
          "durationTicks": 15,
          "midi": 80,
          "name": "G#5",
          "ticks": 6960,
          "time": 38.666686,
          "velocity": 0.7874015748031497
        },
        {
          "duration": 0.08333337500000226,
          "durationTicks": 15,
          "midi": 36,
          "name": "C2",
          "ticks": 6960,
          "time": 38.666686,
          "velocity": 0.7874015748031497
        },
        {
          "duration": 0.08333337500000226,
          "durationTicks": 15,
          "midi": 42,
          "name": "F#2",
          "ticks": 6960,
          "time": 38.666686,
          "velocity": 0.7874015748031497
        },
        {
          "duration": 0.08333337500000226,
          "durationTicks": 15,
          "midi": 80,
          "name": "G#5",
          "ticks": 7020,
          "time": 39.0000195,
          "velocity": 0.7874015748031497
        },
        {
          "duration": 0.08333337500000226,
          "durationTicks": 15,
          "midi": 42,
          "name": "F#2",
          "ticks": 7020,
          "time": 39.0000195,
          "velocity": 0.7874015748031497
        },
        {
          "duration": 0.08333337500000226,
          "durationTicks": 15,
          "midi": 36,
          "name": "C2",
          "ticks": 7020,
          "time": 39.0000195,
          "velocity": 0.7874015748031497
        },
        {
          "duration": 0.08333337499999516,
          "durationTicks": 15,
          "midi": 38,
          "name": "D2",
          "ticks": 7080,
          "time": 39.333353,
          "velocity": 0.7874015748031497
        },
        {
          "duration": 0.08333337499999516,
          "durationTicks": 15,
          "midi": 80,
          "name": "G#5",
          "ticks": 7080,
          "time": 39.333353,
          "velocity": 0.7874015748031497
        },
        {
          "duration": 0.08333337499999516,
          "durationTicks": 15,
          "midi": 42,
          "name": "F#2",
          "ticks": 7080,
          "time": 39.333353,
          "velocity": 0.7874015748031497
        },
        {
          "duration": 0.08333337500000226,
          "durationTicks": 15,
          "midi": 80,
          "name": "G#5",
          "ticks": 7140,
          "time": 39.6666865,
          "velocity": 0.7874015748031497
        },
        {
          "duration": 0.08333337500000226,
          "durationTicks": 15,
          "midi": 42,
          "name": "F#2",
          "ticks": 7140,
          "time": 39.6666865,
          "velocity": 0.7874015748031497
        },
        {
          "duration": 0.08333337500000226,
          "durationTicks": 15,
          "midi": 80,
          "name": "G#5",
          "ticks": 7200,
          "time": 40.00002,
          "velocity": 0.7874015748031497
        },
        {
          "duration": 0.08333337500000226,
          "durationTicks": 15,
          "midi": 42,
          "name": "F#2",
          "ticks": 7200,
          "time": 40.00002,
          "velocity": 0.7874015748031497
        },
        {
          "duration": 0.08333337500000226,
          "durationTicks": 15,
          "midi": 36,
          "name": "C2",
          "ticks": 7200,
          "time": 40.00002,
          "velocity": 0.7874015748031497
        },
        {
          "duration": 0.08333337500000226,
          "durationTicks": 15,
          "midi": 80,
          "name": "G#5",
          "ticks": 7260,
          "time": 40.3333535,
          "velocity": 0.7874015748031497
        },
        {
          "duration": 0.08333337500000226,
          "durationTicks": 15,
          "midi": 42,
          "name": "F#2",
          "ticks": 7260,
          "time": 40.3333535,
          "velocity": 0.7874015748031497
        },
        {
          "duration": 0.08333337500000226,
          "durationTicks": 15,
          "midi": 36,
          "name": "C2",
          "ticks": 7290,
          "time": 40.50002025,
          "velocity": 0.7874015748031497
        },
        {
          "duration": 0.08333337499999516,
          "durationTicks": 15,
          "midi": 80,
          "name": "G#5",
          "ticks": 7320,
          "time": 40.666687,
          "velocity": 0.7874015748031497
        },
        {
          "duration": 0.08333337499999516,
          "durationTicks": 15,
          "midi": 42,
          "name": "F#2",
          "ticks": 7320,
          "time": 40.666687,
          "velocity": 0.7874015748031497
        },
        {
          "duration": 0.08333337499999516,
          "durationTicks": 15,
          "midi": 38,
          "name": "D2",
          "ticks": 7320,
          "time": 40.666687,
          "velocity": 0.7874015748031497
        },
        {
          "duration": 0.08333337500000226,
          "durationTicks": 15,
          "midi": 80,
          "name": "G#5",
          "ticks": 7380,
          "time": 41.0000205,
          "velocity": 0.7874015748031497
        },
        {
          "duration": 0.08333337500000226,
          "durationTicks": 15,
          "midi": 42,
          "name": "F#2",
          "ticks": 7380,
          "time": 41.0000205,
          "velocity": 0.7874015748031497
        },
        {
          "duration": 0.08333337500000226,
          "durationTicks": 15,
          "midi": 80,
          "name": "G#5",
          "ticks": 7440,
          "time": 41.333354,
          "velocity": 0.7874015748031497
        },
        {
          "duration": 0.08333337500000226,
          "durationTicks": 15,
          "midi": 42,
          "name": "F#2",
          "ticks": 7440,
          "time": 41.333354,
          "velocity": 0.7874015748031497
        },
        {
          "duration": 0.08333337500000226,
          "durationTicks": 15,
          "midi": 36,
          "name": "C2",
          "ticks": 7440,
          "time": 41.333354,
          "velocity": 0.7874015748031497
        },
        {
          "duration": 0.08333337500000226,
          "durationTicks": 15,
          "midi": 80,
          "name": "G#5",
          "ticks": 7500,
          "time": 41.6666875,
          "velocity": 0.7874015748031497
        },
        {
          "duration": 0.08333337500000226,
          "durationTicks": 15,
          "midi": 42,
          "name": "F#2",
          "ticks": 7500,
          "time": 41.6666875,
          "velocity": 0.7874015748031497
        },
        {
          "duration": 0.08333337500000226,
          "durationTicks": 15,
          "midi": 36,
          "name": "C2",
          "ticks": 7530,
          "time": 41.83335425,
          "velocity": 0.7874015748031497
        },
        {
          "duration": 0.08333337499999516,
          "durationTicks": 15,
          "midi": 80,
          "name": "G#5",
          "ticks": 7560,
          "time": 42.000021000000004,
          "velocity": 0.7874015748031497
        },
        {
          "duration": 0.08333337499999516,
          "durationTicks": 15,
          "midi": 42,
          "name": "F#2",
          "ticks": 7560,
          "time": 42.000021000000004,
          "velocity": 0.7874015748031497
        },
        {
          "duration": 0.08333337499999516,
          "durationTicks": 15,
          "midi": 38,
          "name": "D2",
          "ticks": 7560,
          "time": 42.000021000000004,
          "velocity": 0.7874015748031497
        },
        {
          "duration": 0.08333337500000226,
          "durationTicks": 15,
          "midi": 80,
          "name": "G#5",
          "ticks": 7620,
          "time": 42.3333545,
          "velocity": 0.7874015748031497
        },
        {
          "duration": 0.08333337500000226,
          "durationTicks": 15,
          "midi": 42,
          "name": "F#2",
          "ticks": 7620,
          "time": 42.3333545,
          "velocity": 0.7874015748031497
        },
        {
          "duration": 0.08333337500000226,
          "durationTicks": 15,
          "midi": 36,
          "name": "C2",
          "ticks": 7620,
          "time": 42.3333545,
          "velocity": 0.7874015748031497
        },
        {
          "duration": 0.08333337500000226,
          "durationTicks": 15,
          "midi": 36,
          "name": "C2",
          "ticks": 7680,
          "time": 42.666688,
          "velocity": 0.7874015748031497
        },
        {
          "duration": 0.08333337500000226,
          "durationTicks": 15,
          "midi": 80,
          "name": "G#5",
          "ticks": 7680,
          "time": 42.666688,
          "velocity": 0.7874015748031497
        },
        {
          "duration": 0.08333337500000226,
          "durationTicks": 15,
          "midi": 42,
          "name": "F#2",
          "ticks": 7680,
          "time": 42.666688,
          "velocity": 0.7874015748031497
        },
        {
          "duration": 0.08333337500000226,
          "durationTicks": 15,
          "midi": 36,
          "name": "C2",
          "ticks": 7710,
          "time": 42.83335475,
          "velocity": 0.7874015748031497
        },
        {
          "duration": 0.08333337499999516,
          "durationTicks": 15,
          "midi": 80,
          "name": "G#5",
          "ticks": 7740,
          "time": 43.0000215,
          "velocity": 0.7874015748031497
        },
        {
          "duration": 0.08333337499999516,
          "durationTicks": 15,
          "midi": 42,
          "name": "F#2",
          "ticks": 7740,
          "time": 43.0000215,
          "velocity": 0.7874015748031497
        },
        {
          "duration": 0.08333337500000226,
          "durationTicks": 15,
          "midi": 36,
          "name": "C2",
          "ticks": 7770,
          "time": 43.16668825,
          "velocity": 0.7874015748031497
        },
        {
          "duration": 0.08333337500000226,
          "durationTicks": 15,
          "midi": 38,
          "name": "D2",
          "ticks": 7800,
          "time": 43.333355,
          "velocity": 0.7874015748031497
        },
        {
          "duration": 0.08333337500000226,
          "durationTicks": 15,
          "midi": 80,
          "name": "G#5",
          "ticks": 7800,
          "time": 43.333355,
          "velocity": 0.7874015748031497
        },
        {
          "duration": 0.08333337500000226,
          "durationTicks": 15,
          "midi": 42,
          "name": "F#2",
          "ticks": 7800,
          "time": 43.333355,
          "velocity": 0.7874015748031497
        },
        {
          "duration": 0.08333337500000226,
          "durationTicks": 15,
          "midi": 80,
          "name": "G#5",
          "ticks": 7860,
          "time": 43.6666885,
          "velocity": 0.7874015748031497
        },
        {
          "duration": 0.08333337500000226,
          "durationTicks": 15,
          "midi": 42,
          "name": "F#2",
          "ticks": 7860,
          "time": 43.6666885,
          "velocity": 0.7874015748031497
        },
        {
          "duration": 0.08333337500000226,
          "durationTicks": 15,
          "midi": 36,
          "name": "C2",
          "ticks": 7920,
          "time": 44.000022,
          "velocity": 0.7874015748031497
        },
        {
          "duration": 0.08333337500000226,
          "durationTicks": 15,
          "midi": 80,
          "name": "G#5",
          "ticks": 7920,
          "time": 44.000022,
          "velocity": 0.7874015748031497
        },
        {
          "duration": 0.08333337500000226,
          "durationTicks": 15,
          "midi": 42,
          "name": "F#2",
          "ticks": 7920,
          "time": 44.000022,
          "velocity": 0.7874015748031497
        },
        {
          "duration": 0.08333337499999516,
          "durationTicks": 15,
          "midi": 36,
          "name": "C2",
          "ticks": 7980,
          "time": 44.3333555,
          "velocity": 0.7874015748031497
        },
        {
          "duration": 0.08333337499999516,
          "durationTicks": 15,
          "midi": 80,
          "name": "G#5",
          "ticks": 7980,
          "time": 44.3333555,
          "velocity": 0.7874015748031497
        },
        {
          "duration": 0.08333337499999516,
          "durationTicks": 15,
          "midi": 42,
          "name": "F#2",
          "ticks": 7980,
          "time": 44.3333555,
          "velocity": 0.7874015748031497
        },
        {
          "duration": 0.08333337500000226,
          "durationTicks": 15,
          "midi": 80,
          "name": "G#5",
          "ticks": 8040,
          "time": 44.666689,
          "velocity": 0.7874015748031497
        },
        {
          "duration": 0.08333337500000226,
          "durationTicks": 15,
          "midi": 38,
          "name": "D2",
          "ticks": 8040,
          "time": 44.666689,
          "velocity": 0.7874015748031497
        },
        {
          "duration": 0.08333337500000226,
          "durationTicks": 15,
          "midi": 42,
          "name": "F#2",
          "ticks": 8040,
          "time": 44.666689,
          "velocity": 0.7874015748031497
        },
        {
          "duration": 0.08333337500000226,
          "durationTicks": 15,
          "midi": 80,
          "name": "G#5",
          "ticks": 8100,
          "time": 45.0000225,
          "velocity": 0.7874015748031497
        },
        {
          "duration": 0.08333337500000226,
          "durationTicks": 15,
          "midi": 42,
          "name": "F#2",
          "ticks": 8100,
          "time": 45.0000225,
          "velocity": 0.7874015748031497
        },
        {
          "duration": 0.08333337500000226,
          "durationTicks": 15,
          "midi": 38,
          "name": "D2",
          "ticks": 8130,
          "time": 45.16668925,
          "velocity": 0.7874015748031497
        },
        {
          "duration": 0.08333337499999516,
          "durationTicks": 15,
          "midi": 80,
          "name": "G#5",
          "ticks": 8160,
          "time": 45.333356,
          "velocity": 0.7874015748031497
        },
        {
          "duration": 0.08333337499999516,
          "durationTicks": 15,
          "midi": 36,
          "name": "C2",
          "ticks": 8160,
          "time": 45.333356,
          "velocity": 0.7874015748031497
        },
        {
          "duration": 0.08333337499999516,
          "durationTicks": 15,
          "midi": 42,
          "name": "F#2",
          "ticks": 8160,
          "time": 45.333356,
          "velocity": 0.7874015748031497
        },
        {
          "duration": 0.08333337499999516,
          "durationTicks": 15,
          "midi": 80,
          "name": "G#5",
          "ticks": 8220,
          "time": 45.666689500000004,
          "velocity": 0.7874015748031497
        },
        {
          "duration": 0.08333337499999516,
          "durationTicks": 15,
          "midi": 42,
          "name": "F#2",
          "ticks": 8220,
          "time": 45.666689500000004,
          "velocity": 0.7874015748031497
        },
        {
          "duration": 0.08333337500000226,
          "durationTicks": 15,
          "midi": 36,
          "name": "C2",
          "ticks": 8250,
          "time": 45.83335625,
          "velocity": 0.7874015748031497
        },
        {
          "duration": 0.08333337500000226,
          "durationTicks": 15,
          "midi": 80,
          "name": "G#5",
          "ticks": 8280,
          "time": 46.000023,
          "velocity": 0.7874015748031497
        },
        {
          "duration": 0.08333337500000226,
          "durationTicks": 15,
          "midi": 38,
          "name": "D2",
          "ticks": 8280,
          "time": 46.000023,
          "velocity": 0.7874015748031497
        },
        {
          "duration": 0.08333337500000226,
          "durationTicks": 15,
          "midi": 42,
          "name": "F#2",
          "ticks": 8280,
          "time": 46.000023,
          "velocity": 0.7874015748031497
        },
        {
          "duration": 0.08333337500000226,
          "durationTicks": 15,
          "midi": 80,
          "name": "G#5",
          "ticks": 8340,
          "time": 46.3333565,
          "velocity": 0.7874015748031497
        },
        {
          "duration": 0.08333337500000226,
          "durationTicks": 15,
          "midi": 42,
          "name": "F#2",
          "ticks": 8340,
          "time": 46.3333565,
          "velocity": 0.7874015748031497
        },
        {
          "duration": 0.08333337499999516,
          "durationTicks": 15,
          "midi": 80,
          "name": "G#5",
          "ticks": 8400,
          "time": 46.66669,
          "velocity": 0.7874015748031497
        },
        {
          "duration": 0.08333337499999516,
          "durationTicks": 15,
          "midi": 36,
          "name": "C2",
          "ticks": 8400,
          "time": 46.66669,
          "velocity": 0.7874015748031497
        },
        {
          "duration": 0.08333337499999516,
          "durationTicks": 15,
          "midi": 42,
          "name": "F#2",
          "ticks": 8400,
          "time": 46.66669,
          "velocity": 0.7874015748031497
        },
        {
          "duration": 0.08333337500000226,
          "durationTicks": 15,
          "midi": 80,
          "name": "G#5",
          "ticks": 8460,
          "time": 47.0000235,
          "velocity": 0.7874015748031497
        },
        {
          "duration": 0.08333337500000226,
          "durationTicks": 15,
          "midi": 36,
          "name": "C2",
          "ticks": 8460,
          "time": 47.0000235,
          "velocity": 0.7874015748031497
        },
        {
          "duration": 0.08333337500000226,
          "durationTicks": 15,
          "midi": 42,
          "name": "F#2",
          "ticks": 8460,
          "time": 47.0000235,
          "velocity": 0.7874015748031497
        },
        {
          "duration": 0.08333337500000226,
          "durationTicks": 15,
          "midi": 80,
          "name": "G#5",
          "ticks": 8520,
          "time": 47.333357,
          "velocity": 0.7874015748031497
        },
        {
          "duration": 0.08333337500000226,
          "durationTicks": 15,
          "midi": 38,
          "name": "D2",
          "ticks": 8520,
          "time": 47.333357,
          "velocity": 0.7874015748031497
        },
        {
          "duration": 0.08333337500000226,
          "durationTicks": 15,
          "midi": 42,
          "name": "F#2",
          "ticks": 8520,
          "time": 47.333357,
          "velocity": 0.7874015748031497
        },
        {
          "duration": 0.08333337500000226,
          "durationTicks": 15,
          "midi": 80,
          "name": "G#5",
          "ticks": 8580,
          "time": 47.6666905,
          "velocity": 0.7874015748031497
        },
        {
          "duration": 0.08333337500000226,
          "durationTicks": 15,
          "midi": 42,
          "name": "F#2",
          "ticks": 8580,
          "time": 47.6666905,
          "velocity": 0.7874015748031497
        },
        {
          "duration": 0.08333337499999516,
          "durationTicks": 15,
          "midi": 80,
          "name": "G#5",
          "ticks": 8640,
          "time": 48.000024,
          "velocity": 0.7874015748031497
        },
        {
          "duration": 0.08333337499999516,
          "durationTicks": 15,
          "midi": 36,
          "name": "C2",
          "ticks": 8640,
          "time": 48.000024,
          "velocity": 0.7874015748031497
        },
        {
          "duration": 0.08333337499999516,
          "durationTicks": 15,
          "midi": 42,
          "name": "F#2",
          "ticks": 8640,
          "time": 48.000024,
          "velocity": 0.7874015748031497
        },
        {
          "duration": 0.08333337500000226,
          "durationTicks": 15,
          "midi": 80,
          "name": "G#5",
          "ticks": 8700,
          "time": 48.3333575,
          "velocity": 0.7874015748031497
        },
        {
          "duration": 0.08333337500000226,
          "durationTicks": 15,
          "midi": 42,
          "name": "F#2",
          "ticks": 8700,
          "time": 48.3333575,
          "velocity": 0.7874015748031497
        },
        {
          "duration": 0.08333337499999516,
          "durationTicks": 15,
          "midi": 36,
          "name": "C2",
          "ticks": 8730,
          "time": 48.50002425,
          "velocity": 0.7874015748031497
        },
        {
          "duration": 0.08333337500000226,
          "durationTicks": 15,
          "midi": 38,
          "name": "D2",
          "ticks": 8760,
          "time": 48.666691,
          "velocity": 0.7874015748031497
        },
        {
          "duration": 0.08333337500000226,
          "durationTicks": 15,
          "midi": 80,
          "name": "G#5",
          "ticks": 8760,
          "time": 48.666691,
          "velocity": 0.7874015748031497
        },
        {
          "duration": 0.08333337500000226,
          "durationTicks": 15,
          "midi": 42,
          "name": "F#2",
          "ticks": 8760,
          "time": 48.666691,
          "velocity": 0.7874015748031497
        },
        {
          "duration": 0.08333337499999516,
          "durationTicks": 15,
          "midi": 80,
          "name": "G#5",
          "ticks": 8820,
          "time": 49.0000245,
          "velocity": 0.7874015748031497
        },
        {
          "duration": 0.08333337499999516,
          "durationTicks": 15,
          "midi": 42,
          "name": "F#2",
          "ticks": 8820,
          "time": 49.0000245,
          "velocity": 0.7874015748031497
        },
        {
          "duration": 0.08333337499999516,
          "durationTicks": 15,
          "midi": 80,
          "name": "G#5",
          "ticks": 8880,
          "time": 49.333358000000004,
          "velocity": 0.7874015748031497
        },
        {
          "duration": 0.08333337499999516,
          "durationTicks": 15,
          "midi": 36,
          "name": "C2",
          "ticks": 8880,
          "time": 49.333358000000004,
          "velocity": 0.7874015748031497
        },
        {
          "duration": 0.08333337499999516,
          "durationTicks": 15,
          "midi": 42,
          "name": "F#2",
          "ticks": 8880,
          "time": 49.333358000000004,
          "velocity": 0.7874015748031497
        },
        {
          "duration": 0.08333337500000226,
          "durationTicks": 15,
          "midi": 80,
          "name": "G#5",
          "ticks": 8940,
          "time": 49.6666915,
          "velocity": 0.7874015748031497
        },
        {
          "duration": 0.08333337500000226,
          "durationTicks": 15,
          "midi": 42,
          "name": "F#2",
          "ticks": 8940,
          "time": 49.6666915,
          "velocity": 0.7874015748031497
        },
        {
          "duration": 0.08333337500000226,
          "durationTicks": 15,
          "midi": 36,
          "name": "C2",
          "ticks": 8940,
          "time": 49.6666915,
          "velocity": 0.7874015748031497
        },
        {
          "duration": 0.08333337500000226,
          "durationTicks": 15,
          "midi": 38,
          "name": "D2",
          "ticks": 9000,
          "time": 50.000025,
          "velocity": 0.7874015748031497
        },
        {
          "duration": 0.08333337500000226,
          "durationTicks": 15,
          "midi": 80,
          "name": "G#5",
          "ticks": 9000,
          "time": 50.000025,
          "velocity": 0.7874015748031497
        },
        {
          "duration": 0.08333337500000226,
          "durationTicks": 15,
          "midi": 42,
          "name": "F#2",
          "ticks": 9000,
          "time": 50.000025,
          "velocity": 0.7874015748031497
        },
        {
          "duration": 0.08333337499999516,
          "durationTicks": 15,
          "midi": 80,
          "name": "G#5",
          "ticks": 9060,
          "time": 50.3333585,
          "velocity": 0.7874015748031497
        },
        {
          "duration": 0.08333337499999516,
          "durationTicks": 15,
          "midi": 42,
          "name": "F#2",
          "ticks": 9060,
          "time": 50.3333585,
          "velocity": 0.7874015748031497
        },
        {
          "duration": 0.08333337500000226,
          "durationTicks": 15,
          "midi": 80,
          "name": "G#5",
          "ticks": 9120,
          "time": 50.666692,
          "velocity": 0.7874015748031497
        },
        {
          "duration": 0.08333337500000226,
          "durationTicks": 15,
          "midi": 42,
          "name": "F#2",
          "ticks": 9120,
          "time": 50.666692,
          "velocity": 0.7874015748031497
        },
        {
          "duration": 0.08333337500000226,
          "durationTicks": 15,
          "midi": 36,
          "name": "C2",
          "ticks": 9120,
          "time": 50.666692,
          "velocity": 0.7874015748031497
        },
        {
          "duration": 0.08333337500000226,
          "durationTicks": 15,
          "midi": 80,
          "name": "G#5",
          "ticks": 9180,
          "time": 51.0000255,
          "velocity": 0.7874015748031497
        },
        {
          "duration": 0.08333337500000226,
          "durationTicks": 15,
          "midi": 42,
          "name": "F#2",
          "ticks": 9180,
          "time": 51.0000255,
          "velocity": 0.7874015748031497
        },
        {
          "duration": 0.08333337499999516,
          "durationTicks": 15,
          "midi": 36,
          "name": "C2",
          "ticks": 9210,
          "time": 51.166692250000004,
          "velocity": 0.7874015748031497
        },
        {
          "duration": 0.08333337500000226,
          "durationTicks": 15,
          "midi": 80,
          "name": "G#5",
          "ticks": 9240,
          "time": 51.333359,
          "velocity": 0.7874015748031497
        },
        {
          "duration": 0.08333337500000226,
          "durationTicks": 15,
          "midi": 42,
          "name": "F#2",
          "ticks": 9240,
          "time": 51.333359,
          "velocity": 0.7874015748031497
        },
        {
          "duration": 0.08333337500000226,
          "durationTicks": 15,
          "midi": 38,
          "name": "D2",
          "ticks": 9240,
          "time": 51.333359,
          "velocity": 0.7874015748031497
        },
        {
          "duration": 0.08333337499999516,
          "durationTicks": 15,
          "midi": 42,
          "name": "F#2",
          "ticks": 9480,
          "time": 52.666693,
          "velocity": 0.7874015748031497
        },
        {
          "duration": 0.08333337500000226,
          "durationTicks": 15,
          "midi": 36,
          "name": "C2",
          "ticks": 9600,
          "time": 53.33336,
          "velocity": 0.7874015748031497
        },
        {
          "duration": 0.08333337499999516,
          "durationTicks": 15,
          "midi": 36,
          "name": "C2",
          "ticks": 9630,
          "time": 53.50002675,
          "velocity": 0.7874015748031497
        },
        {
          "duration": 0.08333337500000226,
          "durationTicks": 15,
          "midi": 36,
          "name": "C2",
          "ticks": 9690,
          "time": 53.83336025,
          "velocity": 0.7874015748031497
        },
        {
          "duration": 0.08333337499999516,
          "durationTicks": 15,
          "midi": 38,
          "name": "D2",
          "ticks": 9720,
          "time": 54.000027,
          "velocity": 0.7874015748031497
        },
        {
          "duration": 0.08333337500000226,
          "durationTicks": 15,
          "midi": 36,
          "name": "C2",
          "ticks": 9840,
          "time": 54.666694,
          "velocity": 0.7874015748031497
        },
        {
          "duration": 0.08333337500000226,
          "durationTicks": 15,
          "midi": 69,
          "name": "A4",
          "ticks": 9840,
          "time": 54.666694,
          "velocity": 0.7874015748031497
        },
        {
          "duration": 0.08333337500000226,
          "durationTicks": 15,
          "midi": 36,
          "name": "C2",
          "ticks": 9900,
          "time": 55.0000275,
          "velocity": 0.7874015748031497
        },
        {
          "duration": 0.08333337499999516,
          "durationTicks": 15,
          "midi": 38,
          "name": "D2",
          "ticks": 9960,
          "time": 55.333361000000004,
          "velocity": 0.7874015748031497
        },
        {
          "duration": 0.08333337499999516,
          "durationTicks": 15,
          "midi": 69,
          "name": "A4",
          "ticks": 9960,
          "time": 55.333361000000004,
          "velocity": 0.7874015748031497
        },
        {
          "duration": 0.08333337499999516,
          "durationTicks": 15,
          "midi": 38,
          "name": "D2",
          "ticks": 10050,
          "time": 55.83336125,
          "velocity": 0.7874015748031497
        },
        {
          "duration": 0.08333337500000226,
          "durationTicks": 15,
          "midi": 69,
          "name": "A4",
          "ticks": 10080,
          "time": 56.000028,
          "velocity": 0.7874015748031497
        },
        {
          "duration": 0.08333337500000226,
          "durationTicks": 15,
          "midi": 36,
          "name": "C2",
          "ticks": 10080,
          "time": 56.000028,
          "velocity": 0.7874015748031497
        },
        {
          "duration": 0.08333337500000226,
          "durationTicks": 15,
          "midi": 36,
          "name": "C2",
          "ticks": 10170,
          "time": 56.50002825,
          "velocity": 0.7874015748031497
        },
        {
          "duration": 0.08333337499999516,
          "durationTicks": 15,
          "midi": 69,
          "name": "A4",
          "ticks": 10200,
          "time": 56.666695000000004,
          "velocity": 0.7874015748031497
        },
        {
          "duration": 0.08333337499999516,
          "durationTicks": 15,
          "midi": 38,
          "name": "D2",
          "ticks": 10200,
          "time": 56.666695000000004,
          "velocity": 0.7874015748031497
        },
        {
          "duration": 0.08333337500000226,
          "durationTicks": 15,
          "midi": 69,
          "name": "A4",
          "ticks": 10320,
          "time": 57.333362,
          "velocity": 0.7874015748031497
        },
        {
          "duration": 0.08333337500000226,
          "durationTicks": 15,
          "midi": 36,
          "name": "C2",
          "ticks": 10320,
          "time": 57.333362,
          "velocity": 0.7874015748031497
        },
        {
          "duration": 0.08333337499999516,
          "durationTicks": 15,
          "midi": 36,
          "name": "C2",
          "ticks": 10380,
          "time": 57.6666955,
          "velocity": 0.7874015748031497
        },
        {
          "duration": 0.08333337500000226,
          "durationTicks": 15,
          "midi": 69,
          "name": "A4",
          "ticks": 10410,
          "time": 57.83336225,
          "velocity": 0.7874015748031497
        },
        {
          "duration": 0.08333337500000226,
          "durationTicks": 15,
          "midi": 69,
          "name": "A4",
          "ticks": 10440,
          "time": 58.000029,
          "velocity": 0.7874015748031497
        },
        {
          "duration": 0.08333337500000226,
          "durationTicks": 15,
          "midi": 38,
          "name": "D2",
          "ticks": 10440,
          "time": 58.000029,
          "velocity": 0.7874015748031497
        },
        {
          "duration": 0.08333337499999516,
          "durationTicks": 15,
          "midi": 69,
          "name": "A4",
          "ticks": 10530,
          "time": 58.500029250000004,
          "velocity": 0.7874015748031497
        },
        {
          "duration": 0.08333337500000226,
          "durationTicks": 15,
          "midi": 69,
          "name": "A4",
          "ticks": 10560,
          "time": 58.666696,
          "velocity": 0.7874015748031497
        },
        {
          "duration": 0.08333337500000226,
          "durationTicks": 15,
          "midi": 36,
          "name": "C2",
          "ticks": 10560,
          "time": 58.666696,
          "velocity": 0.7874015748031497
        },
        {
          "duration": 0.08333337500000226,
          "durationTicks": 15,
          "midi": 36,
          "name": "C2",
          "ticks": 10650,
          "time": 59.16669625,
          "velocity": 0.7874015748031497
        },
        {
          "duration": 0.08333337500000226,
          "durationTicks": 15,
          "midi": 69,
          "name": "A4",
          "ticks": 10680,
          "time": 59.333363,
          "velocity": 0.7874015748031497
        },
        {
          "duration": 0.08333337500000226,
          "durationTicks": 15,
          "midi": 38,
          "name": "D2",
          "ticks": 10680,
          "time": 59.333363,
          "velocity": 0.7874015748031497
        },
        {
          "duration": 0.08333337500000226,
          "durationTicks": 15,
          "midi": 69,
          "name": "A4",
          "ticks": 10770,
          "time": 59.83336325,
          "velocity": 0.7874015748031497
        },
        {
          "duration": 0.08333337499999516,
          "durationTicks": 15,
          "midi": 69,
          "name": "A4",
          "ticks": 10800,
          "time": 60.00003,
          "velocity": 0.7874015748031497
        },
        {
          "duration": 0.08333337499999516,
          "durationTicks": 15,
          "midi": 36,
          "name": "C2",
          "ticks": 10800,
          "time": 60.00003,
          "velocity": 0.7874015748031497
        },
        {
          "duration": 0.08333337499999516,
          "durationTicks": 15,
          "midi": 36,
          "name": "C2",
          "ticks": 10860,
          "time": 60.333363500000004,
          "velocity": 0.7874015748031497
        },
        {
          "duration": 0.08333337500000226,
          "durationTicks": 15,
          "midi": 69,
          "name": "A4",
          "ticks": 10920,
          "time": 60.666697,
          "velocity": 0.7874015748031497
        },
        {
          "duration": 0.08333337500000226,
          "durationTicks": 15,
          "midi": 38,
          "name": "D2",
          "ticks": 10920,
          "time": 60.666697,
          "velocity": 0.7874015748031497
        },
        {
          "duration": 0.08333337499999516,
          "durationTicks": 15,
          "midi": 69,
          "name": "A4",
          "ticks": 11040,
          "time": 61.333364,
          "velocity": 0.7874015748031497
        },
        {
          "duration": 0.08333337499999516,
          "durationTicks": 15,
          "midi": 36,
          "name": "C2",
          "ticks": 11040,
          "time": 61.333364,
          "velocity": 0.7874015748031497
        },
        {
          "duration": 0.08333337499999516,
          "durationTicks": 15,
          "midi": 36,
          "name": "C2",
          "ticks": 11130,
          "time": 61.83336425,
          "velocity": 0.7874015748031497
        },
        {
          "duration": 0.08333337500000226,
          "durationTicks": 15,
          "midi": 69,
          "name": "A4",
          "ticks": 11160,
          "time": 62.000031,
          "velocity": 0.7874015748031497
        },
        {
          "duration": 0.08333337500000226,
          "durationTicks": 15,
          "midi": 38,
          "name": "D2",
          "ticks": 11160,
          "time": 62.000031,
          "velocity": 0.7874015748031497
        },
        {
          "duration": 0.08333337499999516,
          "durationTicks": 15,
          "midi": 69,
          "name": "A4",
          "ticks": 11280,
          "time": 62.666698000000004,
          "velocity": 0.7874015748031497
        },
        {
          "duration": 0.08333337499999516,
          "durationTicks": 15,
          "midi": 36,
          "name": "C2",
          "ticks": 11280,
          "time": 62.666698000000004,
          "velocity": 0.7874015748031497
        },
        {
          "duration": 0.08333337499999516,
          "durationTicks": 15,
          "midi": 36,
          "name": "C2",
          "ticks": 11370,
          "time": 63.16669825,
          "velocity": 0.7874015748031497
        },
        {
          "duration": 0.08333337500000226,
          "durationTicks": 15,
          "midi": 69,
          "name": "A4",
          "ticks": 11400,
          "time": 63.333365,
          "velocity": 0.7874015748031497
        },
        {
          "duration": 0.08333337500000226,
          "durationTicks": 15,
          "midi": 38,
          "name": "D2",
          "ticks": 11400,
          "time": 63.333365,
          "velocity": 0.7874015748031497
        },
        {
          "duration": 0.08333337499999516,
          "durationTicks": 15,
          "midi": 36,
          "name": "C2",
          "ticks": 11460,
          "time": 63.6666985,
          "velocity": 0.7874015748031497
        },
        {
          "duration": 0.08333337499999516,
          "durationTicks": 15,
          "midi": 69,
          "name": "A4",
          "ticks": 11520,
          "time": 64.000032,
          "velocity": 0.7874015748031497
        },
        {
          "duration": 0.08333337499999516,
          "durationTicks": 15,
          "midi": 36,
          "name": "C2",
          "ticks": 11520,
          "time": 64.000032,
          "velocity": 0.7874015748031497
        },
        {
          "duration": 0.08333337500000937,
          "durationTicks": 15,
          "midi": 36,
          "name": "C2",
          "ticks": 11550,
          "time": 64.16669875,
          "velocity": 0.7874015748031497
        },
        {
          "duration": 0.08333337499999516,
          "durationTicks": 15,
          "midi": 69,
          "name": "A4",
          "ticks": 11580,
          "time": 64.3333655,
          "velocity": 0.7874015748031497
        },
        {
          "duration": 0.08333337499999516,
          "durationTicks": 15,
          "midi": 36,
          "name": "C2",
          "ticks": 11610,
          "time": 64.50003225,
          "velocity": 0.7874015748031497
        },
        {
          "duration": 0.08333337500000937,
          "durationTicks": 15,
          "midi": 69,
          "name": "A4",
          "ticks": 11640,
          "time": 64.666699,
          "velocity": 0.7874015748031497
        },
        {
          "duration": 0.08333337500000937,
          "durationTicks": 15,
          "midi": 38,
          "name": "D2",
          "ticks": 11640,
          "time": 64.666699,
          "velocity": 0.7874015748031497
        },
        {
          "duration": 0.08333337499999516,
          "durationTicks": 15,
          "midi": 69,
          "name": "A4",
          "ticks": 11700,
          "time": 65.0000325,
          "velocity": 0.7874015748031497
        },
        {
          "duration": 0.08333337500000937,
          "durationTicks": 15,
          "midi": 69,
          "name": "A4",
          "ticks": 11760,
          "time": 65.333366,
          "velocity": 0.7874015748031497
        },
        {
          "duration": 0.08333337500000937,
          "durationTicks": 15,
          "midi": 36,
          "name": "C2",
          "ticks": 11760,
          "time": 65.333366,
          "velocity": 0.7874015748031497
        },
        {
          "duration": 0.08333337499999516,
          "durationTicks": 15,
          "midi": 36,
          "name": "C2",
          "ticks": 11820,
          "time": 65.66669950000001,
          "velocity": 0.7874015748031497
        },
        {
          "duration": 0.08333337499999516,
          "durationTicks": 15,
          "midi": 69,
          "name": "A4",
          "ticks": 11820,
          "time": 65.66669950000001,
          "velocity": 0.7874015748031497
        },
        {
          "duration": 0.08333337499999516,
          "durationTicks": 15,
          "midi": 69,
          "name": "A4",
          "ticks": 11880,
          "time": 66.000033,
          "velocity": 0.7874015748031497
        },
        {
          "duration": 0.08333337499999516,
          "durationTicks": 15,
          "midi": 38,
          "name": "D2",
          "ticks": 11880,
          "time": 66.000033,
          "velocity": 0.7874015748031497
        },
        {
          "duration": 0.08333337500000937,
          "durationTicks": 15,
          "midi": 69,
          "name": "A4",
          "ticks": 11940,
          "time": 66.3333665,
          "velocity": 0.7874015748031497
        },
        {
          "duration": 0.08333337499999516,
          "durationTicks": 15,
          "midi": 38,
          "name": "D2",
          "ticks": 11970,
          "time": 66.50003325,
          "velocity": 0.7874015748031497
        },
        {
          "duration": 0.08333337499999516,
          "durationTicks": 15,
          "midi": 69,
          "name": "A4",
          "ticks": 12000,
          "time": 66.6667,
          "velocity": 0.7874015748031497
        },
        {
          "duration": 0.08333337499999516,
          "durationTicks": 15,
          "midi": 36,
          "name": "C2",
          "ticks": 12000,
          "time": 66.6667,
          "velocity": 0.7874015748031497
        },
        {
          "duration": 0.08333337500000937,
          "durationTicks": 15,
          "midi": 69,
          "name": "A4",
          "ticks": 12030,
          "time": 66.83336675,
          "velocity": 0.7874015748031497
        },
        {
          "duration": 0.08333337499999516,
          "durationTicks": 15,
          "midi": 69,
          "name": "A4",
          "ticks": 12060,
          "time": 67.0000335,
          "velocity": 0.7874015748031497
        },
        {
          "duration": 0.08333337499999516,
          "durationTicks": 15,
          "midi": 36,
          "name": "C2",
          "ticks": 12090,
          "time": 67.16670025,
          "velocity": 0.7874015748031497
        },
        {
          "duration": 0.08333337500000937,
          "durationTicks": 15,
          "midi": 69,
          "name": "A4",
          "ticks": 12120,
          "time": 67.333367,
          "velocity": 0.7874015748031497
        },
        {
          "duration": 0.08333337500000937,
          "durationTicks": 15,
          "midi": 38,
          "name": "D2",
          "ticks": 12120,
          "time": 67.333367,
          "velocity": 0.7874015748031497
        },
        {
          "duration": 0.08333337499999516,
          "durationTicks": 15,
          "midi": 69,
          "name": "A4",
          "ticks": 12480,
          "time": 69.33336800000001,
          "velocity": 0.7874015748031497
        },
        {
          "duration": 0.08333337499999516,
          "durationTicks": 15,
          "midi": 36,
          "name": "C2",
          "ticks": 12480,
          "time": 69.33336800000001,
          "velocity": 0.7874015748031497
        },
        {
          "duration": 0.08333337499999516,
          "durationTicks": 15,
          "midi": 69,
          "name": "A4",
          "ticks": 12570,
          "time": 69.83336825,
          "velocity": 0.7874015748031497
        },
        {
          "duration": 0.08333337499999516,
          "durationTicks": 15,
          "midi": 36,
          "name": "C2",
          "ticks": 12570,
          "time": 69.83336825,
          "velocity": 0.7874015748031497
        },
        {
          "duration": 0.08333337500000937,
          "durationTicks": 15,
          "midi": 69,
          "name": "A4",
          "ticks": 12600,
          "time": 70.000035,
          "velocity": 0.7874015748031497
        },
        {
          "duration": 0.08333337500000937,
          "durationTicks": 15,
          "midi": 38,
          "name": "D2",
          "ticks": 12600,
          "time": 70.000035,
          "velocity": 0.7874015748031497
        },
        {
          "duration": 0.08333337499999516,
          "durationTicks": 15,
          "midi": 69,
          "name": "A4",
          "ticks": 12660,
          "time": 70.3333685,
          "velocity": 0.7874015748031497
        },
        {
          "duration": 0.08333337500000937,
          "durationTicks": 15,
          "midi": 69,
          "name": "A4",
          "ticks": 12690,
          "time": 70.50003525,
          "velocity": 0.7874015748031497
        },
        {
          "duration": 0.08333337499999516,
          "durationTicks": 15,
          "midi": 69,
          "name": "A4",
          "ticks": 12840,
          "time": 71.333369,
          "velocity": 0.7874015748031497
        },
        {
          "duration": 0.08333337499999516,
          "durationTicks": 15,
          "midi": 38,
          "name": "D2",
          "ticks": 12840,
          "time": 71.333369,
          "velocity": 0.7874015748031497
        },
        {
          "duration": 0.08333337500000937,
          "durationTicks": 15,
          "midi": 69,
          "name": "A4",
          "ticks": 12960,
          "time": 72.000036,
          "velocity": 0.7874015748031497
        },
        {
          "duration": 0.08333337500000937,
          "durationTicks": 15,
          "midi": 36,
          "name": "C2",
          "ticks": 12960,
          "time": 72.000036,
          "velocity": 0.7874015748031497
        },
        {
          "duration": 0.08333337499999516,
          "durationTicks": 15,
          "midi": 36,
          "name": "C2",
          "ticks": 13050,
          "time": 72.50003625000001,
          "velocity": 0.7874015748031497
        },
        {
          "duration": 0.08333337499999516,
          "durationTicks": 15,
          "midi": 69,
          "name": "A4",
          "ticks": 13050,
          "time": 72.50003625000001,
          "velocity": 0.7874015748031497
        },
        {
          "duration": 0.08333337500000937,
          "durationTicks": 15,
          "midi": 69,
          "name": "A4",
          "ticks": 13080,
          "time": 72.666703,
          "velocity": 0.7874015748031497
        },
        {
          "duration": 0.08333337500000937,
          "durationTicks": 15,
          "midi": 38,
          "name": "D2",
          "ticks": 13080,
          "time": 72.666703,
          "velocity": 0.7874015748031497
        },
        {
          "duration": 0.08333337499999516,
          "durationTicks": 15,
          "midi": 36,
          "name": "C2",
          "ticks": 13200,
          "time": 73.33337,
          "velocity": 0.7874015748031497
        },
        {
          "duration": 0.08333337500000937,
          "durationTicks": 15,
          "midi": 36,
          "name": "C2",
          "ticks": 13440,
          "time": 74.666704,
          "velocity": 0.7874015748031497
        },
        {
          "duration": 0.08333337500000937,
          "durationTicks": 15,
          "midi": 80,
          "name": "G#5",
          "ticks": 13440,
          "time": 74.666704,
          "velocity": 0.7874015748031497
        },
        {
          "duration": 0.08333337500000937,
          "durationTicks": 15,
          "midi": 42,
          "name": "F#2",
          "ticks": 13440,
          "time": 74.666704,
          "velocity": 0.7874015748031497
        },
        {
          "duration": 0.08333337499999516,
          "durationTicks": 15,
          "midi": 36,
          "name": "C2",
          "ticks": 13470,
          "time": 74.83337075,
          "velocity": 0.7874015748031497
        },
        {
          "duration": 0.08333337499999516,
          "durationTicks": 15,
          "midi": 80,
          "name": "G#5",
          "ticks": 13500,
          "time": 75.0000375,
          "velocity": 0.7874015748031497
        },
        {
          "duration": 0.08333337499999516,
          "durationTicks": 15,
          "midi": 42,
          "name": "F#2",
          "ticks": 13500,
          "time": 75.0000375,
          "velocity": 0.7874015748031497
        },
        {
          "duration": 0.08333337500000937,
          "durationTicks": 15,
          "midi": 36,
          "name": "C2",
          "ticks": 13530,
          "time": 75.16670425,
          "velocity": 0.7874015748031497
        },
        {
          "duration": 0.08333337499999516,
          "durationTicks": 15,
          "midi": 38,
          "name": "D2",
          "ticks": 13560,
          "time": 75.333371,
          "velocity": 0.7874015748031497
        },
        {
          "duration": 0.08333337499999516,
          "durationTicks": 15,
          "midi": 80,
          "name": "G#5",
          "ticks": 13560,
          "time": 75.333371,
          "velocity": 0.7874015748031497
        },
        {
          "duration": 0.08333337499999516,
          "durationTicks": 15,
          "midi": 42,
          "name": "F#2",
          "ticks": 13560,
          "time": 75.333371,
          "velocity": 0.7874015748031497
        },
        {
          "duration": 0.08333337500000937,
          "durationTicks": 15,
          "midi": 80,
          "name": "G#5",
          "ticks": 13620,
          "time": 75.6667045,
          "velocity": 0.7874015748031497
        },
        {
          "duration": 0.08333337500000937,
          "durationTicks": 15,
          "midi": 42,
          "name": "F#2",
          "ticks": 13620,
          "time": 75.6667045,
          "velocity": 0.7874015748031497
        },
        {
          "duration": 0.08333337499999516,
          "durationTicks": 15,
          "midi": 36,
          "name": "C2",
          "ticks": 13680,
          "time": 76.000038,
          "velocity": 0.7874015748031497
        },
        {
          "duration": 0.08333337499999516,
          "durationTicks": 15,
          "midi": 80,
          "name": "G#5",
          "ticks": 13680,
          "time": 76.000038,
          "velocity": 0.7874015748031497
        },
        {
          "duration": 0.08333337499999516,
          "durationTicks": 15,
          "midi": 42,
          "name": "F#2",
          "ticks": 13680,
          "time": 76.000038,
          "velocity": 0.7874015748031497
        },
        {
          "duration": 0.08333337500000937,
          "durationTicks": 15,
          "midi": 36,
          "name": "C2",
          "ticks": 13740,
          "time": 76.3333715,
          "velocity": 0.7874015748031497
        },
        {
          "duration": 0.08333337500000937,
          "durationTicks": 15,
          "midi": 80,
          "name": "G#5",
          "ticks": 13740,
          "time": 76.3333715,
          "velocity": 0.7874015748031497
        },
        {
          "duration": 0.08333337500000937,
          "durationTicks": 15,
          "midi": 42,
          "name": "F#2",
          "ticks": 13740,
          "time": 76.3333715,
          "velocity": 0.7874015748031497
        },
        {
          "duration": 0.08333337499999516,
          "durationTicks": 15,
          "midi": 80,
          "name": "G#5",
          "ticks": 13800,
          "time": 76.66670500000001,
          "velocity": 0.7874015748031497
        },
        {
          "duration": 0.08333337499999516,
          "durationTicks": 15,
          "midi": 38,
          "name": "D2",
          "ticks": 13800,
          "time": 76.66670500000001,
          "velocity": 0.7874015748031497
        },
        {
          "duration": 0.08333337499999516,
          "durationTicks": 15,
          "midi": 42,
          "name": "F#2",
          "ticks": 13800,
          "time": 76.66670500000001,
          "velocity": 0.7874015748031497
        },
        {
          "duration": 0.08333337499999516,
          "durationTicks": 15,
          "midi": 80,
          "name": "G#5",
          "ticks": 13860,
          "time": 77.0000385,
          "velocity": 0.7874015748031497
        },
        {
          "duration": 0.08333337499999516,
          "durationTicks": 15,
          "midi": 42,
          "name": "F#2",
          "ticks": 13860,
          "time": 77.0000385,
          "velocity": 0.7874015748031497
        },
        {
          "duration": 0.08333337499999516,
          "durationTicks": 15,
          "midi": 38,
          "name": "D2",
          "ticks": 13890,
          "time": 77.16670525,
          "velocity": 0.7874015748031497
        },
        {
          "duration": 0.08333337500000937,
          "durationTicks": 15,
          "midi": 80,
          "name": "G#5",
          "ticks": 13920,
          "time": 77.333372,
          "velocity": 0.7874015748031497
        },
        {
          "duration": 0.08333337500000937,
          "durationTicks": 15,
          "midi": 36,
          "name": "C2",
          "ticks": 13920,
          "time": 77.333372,
          "velocity": 0.7874015748031497
        },
        {
          "duration": 0.08333337500000937,
          "durationTicks": 15,
          "midi": 42,
          "name": "F#2",
          "ticks": 13920,
          "time": 77.333372,
          "velocity": 0.7874015748031497
        },
        {
          "duration": 0.08333337499999516,
          "durationTicks": 15,
          "midi": 80,
          "name": "G#5",
          "ticks": 13980,
          "time": 77.6667055,
          "velocity": 0.7874015748031497
        },
        {
          "duration": 0.08333337499999516,
          "durationTicks": 15,
          "midi": 42,
          "name": "F#2",
          "ticks": 13980,
          "time": 77.6667055,
          "velocity": 0.7874015748031497
        },
        {
          "duration": 0.08333337500000937,
          "durationTicks": 15,
          "midi": 36,
          "name": "C2",
          "ticks": 14010,
          "time": 77.83337225,
          "velocity": 0.7874015748031497
        },
        {
          "duration": 0.08333337499999516,
          "durationTicks": 15,
          "midi": 80,
          "name": "G#5",
          "ticks": 14040,
          "time": 78.000039,
          "velocity": 0.7874015748031497
        },
        {
          "duration": 0.08333337499999516,
          "durationTicks": 15,
          "midi": 38,
          "name": "D2",
          "ticks": 14040,
          "time": 78.000039,
          "velocity": 0.7874015748031497
        },
        {
          "duration": 0.08333337499999516,
          "durationTicks": 15,
          "midi": 42,
          "name": "F#2",
          "ticks": 14040,
          "time": 78.000039,
          "velocity": 0.7874015748031497
        },
        {
          "duration": 0.08333337500000937,
          "durationTicks": 15,
          "midi": 80,
          "name": "G#5",
          "ticks": 14100,
          "time": 78.3333725,
          "velocity": 0.7874015748031497
        },
        {
          "duration": 0.08333337500000937,
          "durationTicks": 15,
          "midi": 42,
          "name": "F#2",
          "ticks": 14100,
          "time": 78.3333725,
          "velocity": 0.7874015748031497
        },
        {
          "duration": 0.08333337499999516,
          "durationTicks": 15,
          "midi": 80,
          "name": "G#5",
          "ticks": 14160,
          "time": 78.666706,
          "velocity": 0.7874015748031497
        },
        {
          "duration": 0.08333337499999516,
          "durationTicks": 15,
          "midi": 36,
          "name": "C2",
          "ticks": 14160,
          "time": 78.666706,
          "velocity": 0.7874015748031497
        },
        {
          "duration": 0.08333337499999516,
          "durationTicks": 15,
          "midi": 42,
          "name": "F#2",
          "ticks": 14160,
          "time": 78.666706,
          "velocity": 0.7874015748031497
        },
        {
          "duration": 0.08333337499999516,
          "durationTicks": 15,
          "midi": 80,
          "name": "G#5",
          "ticks": 14220,
          "time": 79.0000395,
          "velocity": 0.7874015748031497
        },
        {
          "duration": 0.08333337499999516,
          "durationTicks": 15,
          "midi": 36,
          "name": "C2",
          "ticks": 14220,
          "time": 79.0000395,
          "velocity": 0.7874015748031497
        },
        {
          "duration": 0.08333337499999516,
          "durationTicks": 15,
          "midi": 42,
          "name": "F#2",
          "ticks": 14220,
          "time": 79.0000395,
          "velocity": 0.7874015748031497
        },
        {
          "duration": 0.08333337500000937,
          "durationTicks": 15,
          "midi": 80,
          "name": "G#5",
          "ticks": 14280,
          "time": 79.333373,
          "velocity": 0.7874015748031497
        },
        {
          "duration": 0.08333337500000937,
          "durationTicks": 15,
          "midi": 38,
          "name": "D2",
          "ticks": 14280,
          "time": 79.333373,
          "velocity": 0.7874015748031497
        },
        {
          "duration": 0.08333337500000937,
          "durationTicks": 15,
          "midi": 42,
          "name": "F#2",
          "ticks": 14280,
          "time": 79.333373,
          "velocity": 0.7874015748031497
        },
        {
          "duration": 0.08333337499999516,
          "durationTicks": 15,
          "midi": 80,
          "name": "G#5",
          "ticks": 14340,
          "time": 79.6667065,
          "velocity": 0.7874015748031497
        },
        {
          "duration": 0.08333337499999516,
          "durationTicks": 15,
          "midi": 42,
          "name": "F#2",
          "ticks": 14340,
          "time": 79.6667065,
          "velocity": 0.7874015748031497
        },
        {
          "duration": 0.08333337500000937,
          "durationTicks": 15,
          "midi": 80,
          "name": "G#5",
          "ticks": 14400,
          "time": 80.00004,
          "velocity": 0.7874015748031497
        },
        {
          "duration": 0.08333337500000937,
          "durationTicks": 15,
          "midi": 36,
          "name": "C2",
          "ticks": 14400,
          "time": 80.00004,
          "velocity": 0.7874015748031497
        },
        {
          "duration": 0.08333337500000937,
          "durationTicks": 15,
          "midi": 42,
          "name": "F#2",
          "ticks": 14400,
          "time": 80.00004,
          "velocity": 0.7874015748031497
        },
        {
          "duration": 0.08333337499999516,
          "durationTicks": 15,
          "midi": 80,
          "name": "G#5",
          "ticks": 14460,
          "time": 80.33337350000001,
          "velocity": 0.7874015748031497
        },
        {
          "duration": 0.08333337499999516,
          "durationTicks": 15,
          "midi": 42,
          "name": "F#2",
          "ticks": 14460,
          "time": 80.33337350000001,
          "velocity": 0.7874015748031497
        },
        {
          "duration": 0.08333337500000937,
          "durationTicks": 15,
          "midi": 36,
          "name": "C2",
          "ticks": 14490,
          "time": 80.50004025,
          "velocity": 0.7874015748031497
        },
        {
          "duration": 0.08333337499999516,
          "durationTicks": 15,
          "midi": 38,
          "name": "D2",
          "ticks": 14520,
          "time": 80.666707,
          "velocity": 0.7874015748031497
        },
        {
          "duration": 0.08333337499999516,
          "durationTicks": 15,
          "midi": 80,
          "name": "G#5",
          "ticks": 14520,
          "time": 80.666707,
          "velocity": 0.7874015748031497
        },
        {
          "duration": 0.08333337499999516,
          "durationTicks": 15,
          "midi": 42,
          "name": "F#2",
          "ticks": 14520,
          "time": 80.666707,
          "velocity": 0.7874015748031497
        },
        {
          "duration": 0.08333337500000937,
          "durationTicks": 15,
          "midi": 80,
          "name": "G#5",
          "ticks": 14580,
          "time": 81.0000405,
          "velocity": 0.7874015748031497
        },
        {
          "duration": 0.08333337500000937,
          "durationTicks": 15,
          "midi": 42,
          "name": "F#2",
          "ticks": 14580,
          "time": 81.0000405,
          "velocity": 0.7874015748031497
        },
        {
          "duration": 0.08333337499999516,
          "durationTicks": 15,
          "midi": 80,
          "name": "G#5",
          "ticks": 14640,
          "time": 81.333374,
          "velocity": 0.7874015748031497
        },
        {
          "duration": 0.08333337499999516,
          "durationTicks": 15,
          "midi": 36,
          "name": "C2",
          "ticks": 14640,
          "time": 81.333374,
          "velocity": 0.7874015748031497
        },
        {
          "duration": 0.08333337499999516,
          "durationTicks": 15,
          "midi": 42,
          "name": "F#2",
          "ticks": 14640,
          "time": 81.333374,
          "velocity": 0.7874015748031497
        },
        {
          "duration": 0.08333337499999516,
          "durationTicks": 15,
          "midi": 80,
          "name": "G#5",
          "ticks": 14700,
          "time": 81.6667075,
          "velocity": 0.7874015748031497
        },
        {
          "duration": 0.08333337499999516,
          "durationTicks": 15,
          "midi": 42,
          "name": "F#2",
          "ticks": 14700,
          "time": 81.6667075,
          "velocity": 0.7874015748031497
        },
        {
          "duration": 0.08333337499999516,
          "durationTicks": 15,
          "midi": 36,
          "name": "C2",
          "ticks": 14700,
          "time": 81.6667075,
          "velocity": 0.7874015748031497
        },
        {
          "duration": 0.08333337500000937,
          "durationTicks": 15,
          "midi": 38,
          "name": "D2",
          "ticks": 14760,
          "time": 82.000041,
          "velocity": 0.7874015748031497
        },
        {
          "duration": 0.08333337500000937,
          "durationTicks": 15,
          "midi": 80,
          "name": "G#5",
          "ticks": 14760,
          "time": 82.000041,
          "velocity": 0.7874015748031497
        },
        {
          "duration": 0.08333337500000937,
          "durationTicks": 15,
          "midi": 42,
          "name": "F#2",
          "ticks": 14760,
          "time": 82.000041,
          "velocity": 0.7874015748031497
        },
        {
          "duration": 0.08333337499999516,
          "durationTicks": 15,
          "midi": 80,
          "name": "G#5",
          "ticks": 14820,
          "time": 82.3333745,
          "velocity": 0.7874015748031497
        },
        {
          "duration": 0.08333337499999516,
          "durationTicks": 15,
          "midi": 42,
          "name": "F#2",
          "ticks": 14820,
          "time": 82.3333745,
          "velocity": 0.7874015748031497
        },
        {
          "duration": 0.08333337499999516,
          "durationTicks": 15,
          "midi": 80,
          "name": "G#5",
          "ticks": 14880,
          "time": 82.666708,
          "velocity": 0.7874015748031497
        },
        {
          "duration": 0.08333337499999516,
          "durationTicks": 15,
          "midi": 42,
          "name": "F#2",
          "ticks": 14880,
          "time": 82.666708,
          "velocity": 0.7874015748031497
        },
        {
          "duration": 0.08333337499999516,
          "durationTicks": 15,
          "midi": 36,
          "name": "C2",
          "ticks": 14880,
          "time": 82.666708,
          "velocity": 0.7874015748031497
        },
        {
          "duration": 0.08333337500000937,
          "durationTicks": 15,
          "midi": 80,
          "name": "G#5",
          "ticks": 14940,
          "time": 83.0000415,
          "velocity": 0.7874015748031497
        },
        {
          "duration": 0.08333337500000937,
          "durationTicks": 15,
          "midi": 42,
          "name": "F#2",
          "ticks": 14940,
          "time": 83.0000415,
          "velocity": 0.7874015748031497
        },
        {
          "duration": 0.08333337499999516,
          "durationTicks": 15,
          "midi": 36,
          "name": "C2",
          "ticks": 14970,
          "time": 83.16670825,
          "velocity": 0.7874015748031497
        },
        {
          "duration": 0.08333337499999516,
          "durationTicks": 15,
          "midi": 80,
          "name": "G#5",
          "ticks": 15000,
          "time": 83.333375,
          "velocity": 0.7874015748031497
        },
        {
          "duration": 0.08333337499999516,
          "durationTicks": 15,
          "midi": 42,
          "name": "F#2",
          "ticks": 15000,
          "time": 83.333375,
          "velocity": 0.7874015748031497
        },
        {
          "duration": 0.08333337499999516,
          "durationTicks": 15,
          "midi": 38,
          "name": "D2",
          "ticks": 15000,
          "time": 83.333375,
          "velocity": 0.7874015748031497
        },
        {
          "duration": 0.08333337500000937,
          "durationTicks": 15,
          "midi": 80,
          "name": "G#5",
          "ticks": 15060,
          "time": 83.6667085,
          "velocity": 0.7874015748031497
        },
        {
          "duration": 0.08333337500000937,
          "durationTicks": 15,
          "midi": 42,
          "name": "F#2",
          "ticks": 15060,
          "time": 83.6667085,
          "velocity": 0.7874015748031497
        },
        {
          "duration": 0.08333337499999516,
          "durationTicks": 15,
          "midi": 80,
          "name": "G#5",
          "ticks": 15120,
          "time": 84.00004200000001,
          "velocity": 0.7874015748031497
        },
        {
          "duration": 0.08333337499999516,
          "durationTicks": 15,
          "midi": 42,
          "name": "F#2",
          "ticks": 15120,
          "time": 84.00004200000001,
          "velocity": 0.7874015748031497
        },
        {
          "duration": 0.08333337499999516,
          "durationTicks": 15,
          "midi": 36,
          "name": "C2",
          "ticks": 15120,
          "time": 84.00004200000001,
          "velocity": 0.7874015748031497
        },
        {
          "duration": 0.08333337499999516,
          "durationTicks": 15,
          "midi": 80,
          "name": "G#5",
          "ticks": 15180,
          "time": 84.3333755,
          "velocity": 0.7874015748031497
        },
        {
          "duration": 0.08333337499999516,
          "durationTicks": 15,
          "midi": 42,
          "name": "F#2",
          "ticks": 15180,
          "time": 84.3333755,
          "velocity": 0.7874015748031497
        },
        {
          "duration": 0.08333337499999516,
          "durationTicks": 15,
          "midi": 36,
          "name": "C2",
          "ticks": 15210,
          "time": 84.50004225,
          "velocity": 0.7874015748031497
        },
        {
          "duration": 0.08333337500000937,
          "durationTicks": 15,
          "midi": 80,
          "name": "G#5",
          "ticks": 15240,
          "time": 84.666709,
          "velocity": 0.7874015748031497
        },
        {
          "duration": 0.08333337500000937,
          "durationTicks": 15,
          "midi": 42,
          "name": "F#2",
          "ticks": 15240,
          "time": 84.666709,
          "velocity": 0.7874015748031497
        },
        {
          "duration": 0.08333337500000937,
          "durationTicks": 15,
          "midi": 38,
          "name": "D2",
          "ticks": 15240,
          "time": 84.666709,
          "velocity": 0.7874015748031497
        },
        {
          "duration": 0.08333337499999516,
          "durationTicks": 15,
          "midi": 80,
          "name": "G#5",
          "ticks": 15300,
          "time": 85.0000425,
          "velocity": 0.7874015748031497
        },
        {
          "duration": 0.08333337499999516,
          "durationTicks": 15,
          "midi": 42,
          "name": "F#2",
          "ticks": 15300,
          "time": 85.0000425,
          "velocity": 0.7874015748031497
        },
        {
          "duration": 0.08333337499999516,
          "durationTicks": 15,
          "midi": 36,
          "name": "C2",
          "ticks": 15300,
          "time": 85.0000425,
          "velocity": 0.7874015748031497
        },
        {
          "duration": 0.08333337499999516,
          "durationTicks": 15,
          "midi": 36,
          "name": "C2",
          "ticks": 15360,
          "time": 85.333376,
          "velocity": 0.7874015748031497
        },
        {
          "duration": 0.08333337499999516,
          "durationTicks": 15,
          "midi": 80,
          "name": "G#5",
          "ticks": 15360,
          "time": 85.333376,
          "velocity": 0.7874015748031497
        },
        {
          "duration": 0.08333337499999516,
          "durationTicks": 15,
          "midi": 42,
          "name": "F#2",
          "ticks": 15360,
          "time": 85.333376,
          "velocity": 0.7874015748031497
        },
        {
          "duration": 0.08333337499999516,
          "durationTicks": 15,
          "midi": 36,
          "name": "C2",
          "ticks": 15390,
          "time": 85.50004275,
          "velocity": 0.7874015748031497
        },
        {
          "duration": 0.08333337500000937,
          "durationTicks": 15,
          "midi": 80,
          "name": "G#5",
          "ticks": 15420,
          "time": 85.6667095,
          "velocity": 0.7874015748031497
        },
        {
          "duration": 0.08333337500000937,
          "durationTicks": 15,
          "midi": 42,
          "name": "F#2",
          "ticks": 15420,
          "time": 85.6667095,
          "velocity": 0.7874015748031497
        },
        {
          "duration": 0.08333337499999516,
          "durationTicks": 15,
          "midi": 36,
          "name": "C2",
          "ticks": 15450,
          "time": 85.83337625,
          "velocity": 0.7874015748031497
        },
        {
          "duration": 0.08333337499999516,
          "durationTicks": 15,
          "midi": 38,
          "name": "D2",
          "ticks": 15480,
          "time": 86.000043,
          "velocity": 0.7874015748031497
        },
        {
          "duration": 0.08333337499999516,
          "durationTicks": 15,
          "midi": 80,
          "name": "G#5",
          "ticks": 15480,
          "time": 86.000043,
          "velocity": 0.7874015748031497
        },
        {
          "duration": 0.08333337499999516,
          "durationTicks": 15,
          "midi": 42,
          "name": "F#2",
          "ticks": 15480,
          "time": 86.000043,
          "velocity": 0.7874015748031497
        },
        {
          "duration": 0.08333337499999516,
          "durationTicks": 15,
          "midi": 80,
          "name": "G#5",
          "ticks": 15540,
          "time": 86.3333765,
          "velocity": 0.7874015748031497
        },
        {
          "duration": 0.08333337499999516,
          "durationTicks": 15,
          "midi": 42,
          "name": "F#2",
          "ticks": 15540,
          "time": 86.3333765,
          "velocity": 0.7874015748031497
        },
        {
          "duration": 0.08333337500000937,
          "durationTicks": 15,
          "midi": 36,
          "name": "C2",
          "ticks": 15600,
          "time": 86.66671,
          "velocity": 0.7874015748031497
        },
        {
          "duration": 0.08333337500000937,
          "durationTicks": 15,
          "midi": 80,
          "name": "G#5",
          "ticks": 15600,
          "time": 86.66671,
          "velocity": 0.7874015748031497
        },
        {
          "duration": 0.08333337500000937,
          "durationTicks": 15,
          "midi": 42,
          "name": "F#2",
          "ticks": 15600,
          "time": 86.66671,
          "velocity": 0.7874015748031497
        },
        {
          "duration": 0.08333337499999516,
          "durationTicks": 15,
          "midi": 36,
          "name": "C2",
          "ticks": 15660,
          "time": 87.0000435,
          "velocity": 0.7874015748031497
        },
        {
          "duration": 0.08333337499999516,
          "durationTicks": 15,
          "midi": 80,
          "name": "G#5",
          "ticks": 15660,
          "time": 87.0000435,
          "velocity": 0.7874015748031497
        },
        {
          "duration": 0.08333337499999516,
          "durationTicks": 15,
          "midi": 42,
          "name": "F#2",
          "ticks": 15660,
          "time": 87.0000435,
          "velocity": 0.7874015748031497
        },
        {
          "duration": 0.08333337500000937,
          "durationTicks": 15,
          "midi": 80,
          "name": "G#5",
          "ticks": 15720,
          "time": 87.333377,
          "velocity": 0.7874015748031497
        },
        {
          "duration": 0.08333337500000937,
          "durationTicks": 15,
          "midi": 38,
          "name": "D2",
          "ticks": 15720,
          "time": 87.333377,
          "velocity": 0.7874015748031497
        },
        {
          "duration": 0.08333337500000937,
          "durationTicks": 15,
          "midi": 42,
          "name": "F#2",
          "ticks": 15720,
          "time": 87.333377,
          "velocity": 0.7874015748031497
        },
        {
          "duration": 0.08333337499999516,
          "durationTicks": 15,
          "midi": 80,
          "name": "G#5",
          "ticks": 15780,
          "time": 87.66671050000001,
          "velocity": 0.7874015748031497
        },
        {
          "duration": 0.08333337499999516,
          "durationTicks": 15,
          "midi": 42,
          "name": "F#2",
          "ticks": 15780,
          "time": 87.66671050000001,
          "velocity": 0.7874015748031497
        },
        {
          "duration": 0.08333337500000937,
          "durationTicks": 15,
          "midi": 38,
          "name": "D2",
          "ticks": 15810,
          "time": 87.83337725,
          "velocity": 0.7874015748031497
        },
        {
          "duration": 0.08333337499999516,
          "durationTicks": 15,
          "midi": 80,
          "name": "G#5",
          "ticks": 15840,
          "time": 88.000044,
          "velocity": 0.7874015748031497
        },
        {
          "duration": 0.08333337499999516,
          "durationTicks": 15,
          "midi": 36,
          "name": "C2",
          "ticks": 15840,
          "time": 88.000044,
          "velocity": 0.7874015748031497
        },
        {
          "duration": 0.08333337499999516,
          "durationTicks": 15,
          "midi": 42,
          "name": "F#2",
          "ticks": 15840,
          "time": 88.000044,
          "velocity": 0.7874015748031497
        },
        {
          "duration": 0.08333337500000937,
          "durationTicks": 15,
          "midi": 80,
          "name": "G#5",
          "ticks": 15900,
          "time": 88.3333775,
          "velocity": 0.7874015748031497
        },
        {
          "duration": 0.08333337500000937,
          "durationTicks": 15,
          "midi": 42,
          "name": "F#2",
          "ticks": 15900,
          "time": 88.3333775,
          "velocity": 0.7874015748031497
        },
        {
          "duration": 0.08333337499999516,
          "durationTicks": 15,
          "midi": 36,
          "name": "C2",
          "ticks": 15930,
          "time": 88.50004425,
          "velocity": 0.7874015748031497
        },
        {
          "duration": 0.08333337499999516,
          "durationTicks": 15,
          "midi": 80,
          "name": "G#5",
          "ticks": 15960,
          "time": 88.666711,
          "velocity": 0.7874015748031497
        },
        {
          "duration": 0.08333337499999516,
          "durationTicks": 15,
          "midi": 38,
          "name": "D2",
          "ticks": 15960,
          "time": 88.666711,
          "velocity": 0.7874015748031497
        },
        {
          "duration": 0.08333337499999516,
          "durationTicks": 15,
          "midi": 42,
          "name": "F#2",
          "ticks": 15960,
          "time": 88.666711,
          "velocity": 0.7874015748031497
        },
        {
          "duration": 0.08333337499999516,
          "durationTicks": 15,
          "midi": 80,
          "name": "G#5",
          "ticks": 16020,
          "time": 89.0000445,
          "velocity": 0.7874015748031497
        },
        {
          "duration": 0.08333337499999516,
          "durationTicks": 15,
          "midi": 42,
          "name": "F#2",
          "ticks": 16020,
          "time": 89.0000445,
          "velocity": 0.7874015748031497
        },
        {
          "duration": 0.08333337500000937,
          "durationTicks": 15,
          "midi": 80,
          "name": "G#5",
          "ticks": 16080,
          "time": 89.333378,
          "velocity": 0.7874015748031497
        },
        {
          "duration": 0.08333337500000937,
          "durationTicks": 15,
          "midi": 36,
          "name": "C2",
          "ticks": 16080,
          "time": 89.333378,
          "velocity": 0.7874015748031497
        },
        {
          "duration": 0.08333337500000937,
          "durationTicks": 15,
          "midi": 42,
          "name": "F#2",
          "ticks": 16080,
          "time": 89.333378,
          "velocity": 0.7874015748031497
        },
        {
          "duration": 0.08333337499999516,
          "durationTicks": 15,
          "midi": 80,
          "name": "G#5",
          "ticks": 16140,
          "time": 89.6667115,
          "velocity": 0.7874015748031497
        },
        {
          "duration": 0.08333337499999516,
          "durationTicks": 15,
          "midi": 36,
          "name": "C2",
          "ticks": 16140,
          "time": 89.6667115,
          "velocity": 0.7874015748031497
        },
        {
          "duration": 0.08333337499999516,
          "durationTicks": 15,
          "midi": 42,
          "name": "F#2",
          "ticks": 16140,
          "time": 89.6667115,
          "velocity": 0.7874015748031497
        },
        {
          "duration": 0.08333337499999516,
          "durationTicks": 15,
          "midi": 80,
          "name": "G#5",
          "ticks": 16200,
          "time": 90.000045,
          "velocity": 0.7874015748031497
        },
        {
          "duration": 0.08333337499999516,
          "durationTicks": 15,
          "midi": 38,
          "name": "D2",
          "ticks": 16200,
          "time": 90.000045,
          "velocity": 0.7874015748031497
        },
        {
          "duration": 0.08333337499999516,
          "durationTicks": 15,
          "midi": 42,
          "name": "F#2",
          "ticks": 16200,
          "time": 90.000045,
          "velocity": 0.7874015748031497
        },
        {
          "duration": 0.08333337500000937,
          "durationTicks": 15,
          "midi": 80,
          "name": "G#5",
          "ticks": 16260,
          "time": 90.3333785,
          "velocity": 0.7874015748031497
        },
        {
          "duration": 0.08333337500000937,
          "durationTicks": 15,
          "midi": 42,
          "name": "F#2",
          "ticks": 16260,
          "time": 90.3333785,
          "velocity": 0.7874015748031497
        },
        {
          "duration": 0.08333337499999516,
          "durationTicks": 15,
          "midi": 80,
          "name": "G#5",
          "ticks": 16320,
          "time": 90.666712,
          "velocity": 0.7874015748031497
        },
        {
          "duration": 0.08333337499999516,
          "durationTicks": 15,
          "midi": 36,
          "name": "C2",
          "ticks": 16320,
          "time": 90.666712,
          "velocity": 0.7874015748031497
        },
        {
          "duration": 0.08333337499999516,
          "durationTicks": 15,
          "midi": 42,
          "name": "F#2",
          "ticks": 16320,
          "time": 90.666712,
          "velocity": 0.7874015748031497
        },
        {
          "duration": 0.08333337500000937,
          "durationTicks": 15,
          "midi": 80,
          "name": "G#5",
          "ticks": 16380,
          "time": 91.0000455,
          "velocity": 0.7874015748031497
        },
        {
          "duration": 0.08333337500000937,
          "durationTicks": 15,
          "midi": 42,
          "name": "F#2",
          "ticks": 16380,
          "time": 91.0000455,
          "velocity": 0.7874015748031497
        },
        {
          "duration": 0.08333337499999516,
          "durationTicks": 15,
          "midi": 36,
          "name": "C2",
          "ticks": 16410,
          "time": 91.16671225,
          "velocity": 0.7874015748031497
        },
        {
          "duration": 0.08333337499999516,
          "durationTicks": 15,
          "midi": 38,
          "name": "D2",
          "ticks": 16440,
          "time": 91.33337900000001,
          "velocity": 0.7874015748031497
        },
        {
          "duration": 0.08333337499999516,
          "durationTicks": 15,
          "midi": 80,
          "name": "G#5",
          "ticks": 16440,
          "time": 91.33337900000001,
          "velocity": 0.7874015748031497
        },
        {
          "duration": 0.08333337499999516,
          "durationTicks": 15,
          "midi": 42,
          "name": "F#2",
          "ticks": 16440,
          "time": 91.33337900000001,
          "velocity": 0.7874015748031497
        },
        {
          "duration": 0.08333337499999516,
          "durationTicks": 15,
          "midi": 80,
          "name": "G#5",
          "ticks": 16500,
          "time": 91.6667125,
          "velocity": 0.7874015748031497
        },
        {
          "duration": 0.08333337499999516,
          "durationTicks": 15,
          "midi": 42,
          "name": "F#2",
          "ticks": 16500,
          "time": 91.6667125,
          "velocity": 0.7874015748031497
        },
        {
          "duration": 0.08333337500000937,
          "durationTicks": 15,
          "midi": 80,
          "name": "G#5",
          "ticks": 16560,
          "time": 92.000046,
          "velocity": 0.7874015748031497
        },
        {
          "duration": 0.08333337500000937,
          "durationTicks": 15,
          "midi": 36,
          "name": "C2",
          "ticks": 16560,
          "time": 92.000046,
          "velocity": 0.7874015748031497
        },
        {
          "duration": 0.08333337500000937,
          "durationTicks": 15,
          "midi": 42,
          "name": "F#2",
          "ticks": 16560,
          "time": 92.000046,
          "velocity": 0.7874015748031497
        },
        {
          "duration": 0.08333337499999516,
          "durationTicks": 15,
          "midi": 80,
          "name": "G#5",
          "ticks": 16620,
          "time": 92.3333795,
          "velocity": 0.7874015748031497
        },
        {
          "duration": 0.08333337499999516,
          "durationTicks": 15,
          "midi": 42,
          "name": "F#2",
          "ticks": 16620,
          "time": 92.3333795,
          "velocity": 0.7874015748031497
        },
        {
          "duration": 0.08333337499999516,
          "durationTicks": 15,
          "midi": 36,
          "name": "C2",
          "ticks": 16620,
          "time": 92.3333795,
          "velocity": 0.7874015748031497
        },
        {
          "duration": 0.08333337499999516,
          "durationTicks": 15,
          "midi": 38,
          "name": "D2",
          "ticks": 16680,
          "time": 92.666713,
          "velocity": 0.7874015748031497
        },
        {
          "duration": 0.08333337499999516,
          "durationTicks": 15,
          "midi": 80,
          "name": "G#5",
          "ticks": 16680,
          "time": 92.666713,
          "velocity": 0.7874015748031497
        },
        {
          "duration": 0.08333337499999516,
          "durationTicks": 15,
          "midi": 42,
          "name": "F#2",
          "ticks": 16680,
          "time": 92.666713,
          "velocity": 0.7874015748031497
        },
        {
          "duration": 0.08333337500000937,
          "durationTicks": 15,
          "midi": 80,
          "name": "G#5",
          "ticks": 16740,
          "time": 93.0000465,
          "velocity": 0.7874015748031497
        },
        {
          "duration": 0.08333337500000937,
          "durationTicks": 15,
          "midi": 42,
          "name": "F#2",
          "ticks": 16740,
          "time": 93.0000465,
          "velocity": 0.7874015748031497
        },
        {
          "duration": 0.08333337499999516,
          "durationTicks": 15,
          "midi": 80,
          "name": "G#5",
          "ticks": 16800,
          "time": 93.33338,
          "velocity": 0.7874015748031497
        },
        {
          "duration": 0.08333337499999516,
          "durationTicks": 15,
          "midi": 42,
          "name": "F#2",
          "ticks": 16800,
          "time": 93.33338,
          "velocity": 0.7874015748031497
        },
        {
          "duration": 0.08333337499999516,
          "durationTicks": 15,
          "midi": 36,
          "name": "C2",
          "ticks": 16800,
          "time": 93.33338,
          "velocity": 0.7874015748031497
        },
        {
          "duration": 0.08333337499999516,
          "durationTicks": 15,
          "midi": 80,
          "name": "G#5",
          "ticks": 16860,
          "time": 93.6667135,
          "velocity": 0.7874015748031497
        },
        {
          "duration": 0.08333337499999516,
          "durationTicks": 15,
          "midi": 42,
          "name": "F#2",
          "ticks": 16860,
          "time": 93.6667135,
          "velocity": 0.7874015748031497
        },
        {
          "duration": 0.08333337499999516,
          "durationTicks": 15,
          "midi": 36,
          "name": "C2",
          "ticks": 16890,
          "time": 93.83338025,
          "velocity": 0.7874015748031497
        },
        {
          "duration": 0.08333337500000937,
          "durationTicks": 15,
          "midi": 80,
          "name": "G#5",
          "ticks": 16920,
          "time": 94.000047,
          "velocity": 0.7874015748031497
        },
        {
          "duration": 0.08333337500000937,
          "durationTicks": 15,
          "midi": 42,
          "name": "F#2",
          "ticks": 16920,
          "time": 94.000047,
          "velocity": 0.7874015748031497
        },
        {
          "duration": 0.08333337500000937,
          "durationTicks": 15,
          "midi": 38,
          "name": "D2",
          "ticks": 16920,
          "time": 94.000047,
          "velocity": 0.7874015748031497
        },
        {
          "duration": 0.08333337499999516,
          "durationTicks": 15,
          "midi": 80,
          "name": "G#5",
          "ticks": 16980,
          "time": 94.3333805,
          "velocity": 0.7874015748031497
        },
        {
          "duration": 0.08333337499999516,
          "durationTicks": 15,
          "midi": 42,
          "name": "F#2",
          "ticks": 16980,
          "time": 94.3333805,
          "velocity": 0.7874015748031497
        },
        {
          "duration": 0.08333337500000937,
          "durationTicks": 15,
          "midi": 80,
          "name": "G#5",
          "ticks": 17040,
          "time": 94.666714,
          "velocity": 0.7874015748031497
        },
        {
          "duration": 0.08333337500000937,
          "durationTicks": 15,
          "midi": 42,
          "name": "F#2",
          "ticks": 17040,
          "time": 94.666714,
          "velocity": 0.7874015748031497
        },
        {
          "duration": 0.08333337500000937,
          "durationTicks": 15,
          "midi": 36,
          "name": "C2",
          "ticks": 17040,
          "time": 94.666714,
          "velocity": 0.7874015748031497
        },
        {
          "duration": 0.08333337499999516,
          "durationTicks": 15,
          "midi": 80,
          "name": "G#5",
          "ticks": 17100,
          "time": 95.00004750000001,
          "velocity": 0.7874015748031497
        },
        {
          "duration": 0.08333337499999516,
          "durationTicks": 15,
          "midi": 42,
          "name": "F#2",
          "ticks": 17100,
          "time": 95.00004750000001,
          "velocity": 0.7874015748031497
        },
        {
          "duration": 0.08333337500000937,
          "durationTicks": 15,
          "midi": 36,
          "name": "C2",
          "ticks": 17130,
          "time": 95.16671425,
          "velocity": 0.7874015748031497
        },
        {
          "duration": 0.08333337499999516,
          "durationTicks": 15,
          "midi": 80,
          "name": "G#5",
          "ticks": 17160,
          "time": 95.333381,
          "velocity": 0.7874015748031497
        },
        {
          "duration": 0.08333337499999516,
          "durationTicks": 15,
          "midi": 42,
          "name": "F#2",
          "ticks": 17160,
          "time": 95.333381,
          "velocity": 0.7874015748031497
        },
        {
          "duration": 0.08333337499999516,
          "durationTicks": 15,
          "midi": 38,
          "name": "D2",
          "ticks": 17160,
          "time": 95.333381,
          "velocity": 0.7874015748031497
        },
        {
          "duration": 0.08333337500000937,
          "durationTicks": 15,
          "midi": 80,
          "name": "G#5",
          "ticks": 17220,
          "time": 95.6667145,
          "velocity": 0.7874015748031497
        },
        {
          "duration": 0.08333337500000937,
          "durationTicks": 15,
          "midi": 42,
          "name": "F#2",
          "ticks": 17220,
          "time": 95.6667145,
          "velocity": 0.7874015748031497
        },
        {
          "duration": 0.08333337500000937,
          "durationTicks": 15,
          "midi": 36,
          "name": "C2",
          "ticks": 17220,
          "time": 95.6667145,
          "velocity": 0.7874015748031497
        },
        {
          "duration": 0.08333337499999516,
          "durationTicks": 15,
          "midi": 36,
          "name": "C2",
          "ticks": 17280,
          "time": 96.000048,
          "velocity": 0.7874015748031497
        },
        {
          "duration": 0.08333337499999516,
          "durationTicks": 15,
          "midi": 80,
          "name": "G#5",
          "ticks": 17280,
          "time": 96.000048,
          "velocity": 0.7874015748031497
        },
        {
          "duration": 0.08333337499999516,
          "durationTicks": 15,
          "midi": 42,
          "name": "F#2",
          "ticks": 17280,
          "time": 96.000048,
          "velocity": 0.7874015748031497
        },
        {
          "duration": 0.08333337500000937,
          "durationTicks": 15,
          "midi": 36,
          "name": "C2",
          "ticks": 17310,
          "time": 96.16671475,
          "velocity": 0.7874015748031497
        },
        {
          "duration": 0.08333337499999516,
          "durationTicks": 15,
          "midi": 80,
          "name": "G#5",
          "ticks": 17340,
          "time": 96.3333815,
          "velocity": 0.7874015748031497
        },
        {
          "duration": 0.08333337499999516,
          "durationTicks": 15,
          "midi": 42,
          "name": "F#2",
          "ticks": 17340,
          "time": 96.3333815,
          "velocity": 0.7874015748031497
        },
        {
          "duration": 0.08333337499999516,
          "durationTicks": 15,
          "midi": 36,
          "name": "C2",
          "ticks": 17370,
          "time": 96.50004825,
          "velocity": 0.7874015748031497
        },
        {
          "duration": 0.08333337500000937,
          "durationTicks": 15,
          "midi": 38,
          "name": "D2",
          "ticks": 17400,
          "time": 96.666715,
          "velocity": 0.7874015748031497
        },
        {
          "duration": 0.08333337500000937,
          "durationTicks": 15,
          "midi": 80,
          "name": "G#5",
          "ticks": 17400,
          "time": 96.666715,
          "velocity": 0.7874015748031497
        },
        {
          "duration": 0.08333337500000937,
          "durationTicks": 15,
          "midi": 42,
          "name": "F#2",
          "ticks": 17400,
          "time": 96.666715,
          "velocity": 0.7874015748031497
        },
        {
          "duration": 0.08333337499999516,
          "durationTicks": 15,
          "midi": 80,
          "name": "G#5",
          "ticks": 17460,
          "time": 97.0000485,
          "velocity": 0.7874015748031497
        },
        {
          "duration": 0.08333337499999516,
          "durationTicks": 15,
          "midi": 42,
          "name": "F#2",
          "ticks": 17460,
          "time": 97.0000485,
          "velocity": 0.7874015748031497
        },
        {
          "duration": 0.08333337499999516,
          "durationTicks": 15,
          "midi": 36,
          "name": "C2",
          "ticks": 17520,
          "time": 97.333382,
          "velocity": 0.7874015748031497
        },
        {
          "duration": 0.08333337499999516,
          "durationTicks": 15,
          "midi": 80,
          "name": "G#5",
          "ticks": 17520,
          "time": 97.333382,
          "velocity": 0.7874015748031497
        },
        {
          "duration": 0.08333337499999516,
          "durationTicks": 15,
          "midi": 42,
          "name": "F#2",
          "ticks": 17520,
          "time": 97.333382,
          "velocity": 0.7874015748031497
        },
        {
          "duration": 0.08333337500000937,
          "durationTicks": 15,
          "midi": 36,
          "name": "C2",
          "ticks": 17580,
          "time": 97.6667155,
          "velocity": 0.7874015748031497
        },
        {
          "duration": 0.08333337500000937,
          "durationTicks": 15,
          "midi": 80,
          "name": "G#5",
          "ticks": 17580,
          "time": 97.6667155,
          "velocity": 0.7874015748031497
        },
        {
          "duration": 0.08333337500000937,
          "durationTicks": 15,
          "midi": 42,
          "name": "F#2",
          "ticks": 17580,
          "time": 97.6667155,
          "velocity": 0.7874015748031497
        },
        {
          "duration": 0.08333337499999516,
          "durationTicks": 15,
          "midi": 80,
          "name": "G#5",
          "ticks": 17640,
          "time": 98.000049,
          "velocity": 0.7874015748031497
        },
        {
          "duration": 0.08333337499999516,
          "durationTicks": 15,
          "midi": 38,
          "name": "D2",
          "ticks": 17640,
          "time": 98.000049,
          "velocity": 0.7874015748031497
        },
        {
          "duration": 0.08333337499999516,
          "durationTicks": 15,
          "midi": 42,
          "name": "F#2",
          "ticks": 17640,
          "time": 98.000049,
          "velocity": 0.7874015748031497
        },
        {
          "duration": 0.08333337500000937,
          "durationTicks": 15,
          "midi": 80,
          "name": "G#5",
          "ticks": 17700,
          "time": 98.3333825,
          "velocity": 0.7874015748031497
        },
        {
          "duration": 0.08333337500000937,
          "durationTicks": 15,
          "midi": 42,
          "name": "F#2",
          "ticks": 17700,
          "time": 98.3333825,
          "velocity": 0.7874015748031497
        },
        {
          "duration": 0.08333337499999516,
          "durationTicks": 15,
          "midi": 38,
          "name": "D2",
          "ticks": 17730,
          "time": 98.50004925,
          "velocity": 0.7874015748031497
        },
        {
          "duration": 0.08333337499999516,
          "durationTicks": 15,
          "midi": 80,
          "name": "G#5",
          "ticks": 17760,
          "time": 98.66671600000001,
          "velocity": 0.7874015748031497
        },
        {
          "duration": 0.08333337499999516,
          "durationTicks": 15,
          "midi": 36,
          "name": "C2",
          "ticks": 17760,
          "time": 98.66671600000001,
          "velocity": 0.7874015748031497
        },
        {
          "duration": 0.08333337499999516,
          "durationTicks": 15,
          "midi": 42,
          "name": "F#2",
          "ticks": 17760,
          "time": 98.66671600000001,
          "velocity": 0.7874015748031497
        },
        {
          "duration": 0.08333337499999516,
          "durationTicks": 15,
          "midi": 80,
          "name": "G#5",
          "ticks": 17820,
          "time": 99.0000495,
          "velocity": 0.7874015748031497
        },
        {
          "duration": 0.08333337499999516,
          "durationTicks": 15,
          "midi": 42,
          "name": "F#2",
          "ticks": 17820,
          "time": 99.0000495,
          "velocity": 0.7874015748031497
        },
        {
          "duration": 0.08333337499999516,
          "durationTicks": 15,
          "midi": 36,
          "name": "C2",
          "ticks": 17850,
          "time": 99.16671625000001,
          "velocity": 0.7874015748031497
        },
        {
          "duration": 0.08333337500000937,
          "durationTicks": 15,
          "midi": 80,
          "name": "G#5",
          "ticks": 17880,
          "time": 99.333383,
          "velocity": 0.7874015748031497
        },
        {
          "duration": 0.08333337500000937,
          "durationTicks": 15,
          "midi": 38,
          "name": "D2",
          "ticks": 17880,
          "time": 99.333383,
          "velocity": 0.7874015748031497
        },
        {
          "duration": 0.08333337500000937,
          "durationTicks": 15,
          "midi": 42,
          "name": "F#2",
          "ticks": 17880,
          "time": 99.333383,
          "velocity": 0.7874015748031497
        },
        {
          "duration": 0.08333337500000937,
          "durationTicks": 15,
          "midi": 80,
          "name": "G#5",
          "ticks": 18240,
          "time": 101.333384,
          "velocity": 0.7874015748031497
        },
        {
          "duration": 0.08333337500000937,
          "durationTicks": 15,
          "midi": 36,
          "name": "C2",
          "ticks": 18240,
          "time": 101.333384,
          "velocity": 0.7874015748031497
        },
        {
          "duration": 0.08333337500000937,
          "durationTicks": 15,
          "midi": 42,
          "name": "F#2",
          "ticks": 18240,
          "time": 101.333384,
          "velocity": 0.7874015748031497
        },
        {
          "duration": 0.08333337499999516,
          "durationTicks": 15,
          "midi": 80,
          "name": "G#5",
          "ticks": 18300,
          "time": 101.6667175,
          "velocity": 0.7874015748031497
        },
        {
          "duration": 0.08333337499999516,
          "durationTicks": 15,
          "midi": 42,
          "name": "F#2",
          "ticks": 18300,
          "time": 101.6667175,
          "velocity": 0.7874015748031497
        },
        {
          "duration": 0.08333337500000937,
          "durationTicks": 15,
          "midi": 36,
          "name": "C2",
          "ticks": 18330,
          "time": 101.83338425,
          "velocity": 0.7874015748031497
        },
        {
          "duration": 0.08333337500000937,
          "durationTicks": 15,
          "midi": 38,
          "name": "D2",
          "ticks": 18360,
          "time": 102.000051,
          "velocity": 0.7874015748031497
        },
        {
          "duration": 0.08333337500000937,
          "durationTicks": 15,
          "midi": 80,
          "name": "G#5",
          "ticks": 18360,
          "time": 102.000051,
          "velocity": 0.7874015748031497
        },
        {
          "duration": 0.08333337500000937,
          "durationTicks": 15,
          "midi": 42,
          "name": "F#2",
          "ticks": 18360,
          "time": 102.000051,
          "velocity": 0.7874015748031497
        },
        {
          "duration": 0.08333337499999516,
          "durationTicks": 15,
          "midi": 80,
          "name": "G#5",
          "ticks": 18420,
          "time": 102.33338450000001,
          "velocity": 0.7874015748031497
        },
        {
          "duration": 0.08333337499999516,
          "durationTicks": 15,
          "midi": 42,
          "name": "F#2",
          "ticks": 18420,
          "time": 102.33338450000001,
          "velocity": 0.7874015748031497
        },
        {
          "duration": 0.08333337499999516,
          "durationTicks": 15,
          "midi": 80,
          "name": "G#5",
          "ticks": 18480,
          "time": 102.666718,
          "velocity": 0.7874015748031497
        },
        {
          "duration": 0.08333337499999516,
          "durationTicks": 15,
          "midi": 36,
          "name": "C2",
          "ticks": 18480,
          "time": 102.666718,
          "velocity": 0.7874015748031497
        },
        {
          "duration": 0.08333337499999516,
          "durationTicks": 15,
          "midi": 42,
          "name": "F#2",
          "ticks": 18480,
          "time": 102.666718,
          "velocity": 0.7874015748031497
        },
        {
          "duration": 0.08333337500000937,
          "durationTicks": 15,
          "midi": 80,
          "name": "G#5",
          "ticks": 18540,
          "time": 103.0000515,
          "velocity": 0.7874015748031497
        },
        {
          "duration": 0.08333337500000937,
          "durationTicks": 15,
          "midi": 42,
          "name": "F#2",
          "ticks": 18540,
          "time": 103.0000515,
          "velocity": 0.7874015748031497
        },
        {
          "duration": 0.08333337500000937,
          "durationTicks": 15,
          "midi": 36,
          "name": "C2",
          "ticks": 18540,
          "time": 103.0000515,
          "velocity": 0.7874015748031497
        },
        {
          "duration": 0.08333337499999516,
          "durationTicks": 15,
          "midi": 38,
          "name": "D2",
          "ticks": 18600,
          "time": 103.333385,
          "velocity": 0.7874015748031497
        },
        {
          "duration": 0.08333337499999516,
          "durationTicks": 15,
          "midi": 80,
          "name": "G#5",
          "ticks": 18600,
          "time": 103.333385,
          "velocity": 0.7874015748031497
        },
        {
          "duration": 0.08333337499999516,
          "durationTicks": 15,
          "midi": 42,
          "name": "F#2",
          "ticks": 18600,
          "time": 103.333385,
          "velocity": 0.7874015748031497
        },
        {
          "duration": 0.08333337499999516,
          "durationTicks": 15,
          "midi": 80,
          "name": "G#5",
          "ticks": 18660,
          "time": 103.6667185,
          "velocity": 0.7874015748031497
        },
        {
          "duration": 0.08333337499999516,
          "durationTicks": 15,
          "midi": 42,
          "name": "F#2",
          "ticks": 18660,
          "time": 103.6667185,
          "velocity": 0.7874015748031497
        },
        {
          "duration": 0.08333337500000937,
          "durationTicks": 15,
          "midi": 80,
          "name": "G#5",
          "ticks": 18720,
          "time": 104.000052,
          "velocity": 0.7874015748031497
        },
        {
          "duration": 0.08333337500000937,
          "durationTicks": 15,
          "midi": 42,
          "name": "F#2",
          "ticks": 18720,
          "time": 104.000052,
          "velocity": 0.7874015748031497
        },
        {
          "duration": 0.08333337500000937,
          "durationTicks": 15,
          "midi": 36,
          "name": "C2",
          "ticks": 18720,
          "time": 104.000052,
          "velocity": 0.7874015748031497
        },
        {
          "duration": 0.08333337499999516,
          "durationTicks": 15,
          "midi": 80,
          "name": "G#5",
          "ticks": 18780,
          "time": 104.3333855,
          "velocity": 0.7874015748031497
        },
        {
          "duration": 0.08333337499999516,
          "durationTicks": 15,
          "midi": 42,
          "name": "F#2",
          "ticks": 18780,
          "time": 104.3333855,
          "velocity": 0.7874015748031497
        },
        {
          "duration": 0.08333337500000937,
          "durationTicks": 15,
          "midi": 36,
          "name": "C2",
          "ticks": 18810,
          "time": 104.50005225,
          "velocity": 0.7874015748031497
        },
        {
          "duration": 0.08333337499999516,
          "durationTicks": 15,
          "midi": 80,
          "name": "G#5",
          "ticks": 18840,
          "time": 104.666719,
          "velocity": 0.7874015748031497
        },
        {
          "duration": 0.08333337499999516,
          "durationTicks": 15,
          "midi": 42,
          "name": "F#2",
          "ticks": 18840,
          "time": 104.666719,
          "velocity": 0.7874015748031497
        },
        {
          "duration": 0.08333337499999516,
          "durationTicks": 15,
          "midi": 38,
          "name": "D2",
          "ticks": 18840,
          "time": 104.666719,
          "velocity": 0.7874015748031497
        },
        {
          "duration": 0.08333337500000937,
          "durationTicks": 15,
          "midi": 69,
          "name": "A4",
          "ticks": 19200,
          "time": 106.66672,
          "velocity": 0.7874015748031497
        },
        {
          "duration": 0.08333337500000937,
          "durationTicks": 15,
          "midi": 36,
          "name": "C2",
          "ticks": 19200,
          "time": 106.66672,
          "velocity": 0.7874015748031497
        },
        {
          "duration": 0.08333337499999516,
          "durationTicks": 15,
          "midi": 36,
          "name": "C2",
          "ticks": 19230,
          "time": 106.83338675,
          "velocity": 0.7874015748031497
        },
        {
          "duration": 0.08333337499999516,
          "durationTicks": 15,
          "midi": 69,
          "name": "A4",
          "ticks": 19260,
          "time": 107.0000535,
          "velocity": 0.7874015748031497
        },
        {
          "duration": 0.08333337500000937,
          "durationTicks": 15,
          "midi": 36,
          "name": "C2",
          "ticks": 19290,
          "time": 107.16672025,
          "velocity": 0.7874015748031497
        },
        {
          "duration": 0.08333337499999516,
          "durationTicks": 15,
          "midi": 69,
          "name": "A4",
          "ticks": 19320,
          "time": 107.333387,
          "velocity": 0.7874015748031497
        },
        {
          "duration": 0.08333337499999516,
          "durationTicks": 15,
          "midi": 38,
          "name": "D2",
          "ticks": 19320,
          "time": 107.333387,
          "velocity": 0.7874015748031497
        },
        {
          "duration": 0.08333337500000937,
          "durationTicks": 15,
          "midi": 69,
          "name": "A4",
          "ticks": 19380,
          "time": 107.6667205,
          "velocity": 0.7874015748031497
        },
        {
          "duration": 0.08333337499999516,
          "durationTicks": 15,
          "midi": 69,
          "name": "A4",
          "ticks": 19440,
          "time": 108.000054,
          "velocity": 0.7874015748031497
        },
        {
          "duration": 0.08333337499999516,
          "durationTicks": 15,
          "midi": 36,
          "name": "C2",
          "ticks": 19440,
          "time": 108.000054,
          "velocity": 0.7874015748031497
        },
        {
          "duration": 0.08333337499999516,
          "durationTicks": 15,
          "midi": 36,
          "name": "C2",
          "ticks": 19500,
          "time": 108.3333875,
          "velocity": 0.7874015748031497
        },
        {
          "duration": 0.08333337499999516,
          "durationTicks": 15,
          "midi": 69,
          "name": "A4",
          "ticks": 19500,
          "time": 108.3333875,
          "velocity": 0.7874015748031497
        },
        {
          "duration": 0.08333337500000937,
          "durationTicks": 15,
          "midi": 69,
          "name": "A4",
          "ticks": 19560,
          "time": 108.666721,
          "velocity": 0.7874015748031497
        },
        {
          "duration": 0.08333337500000937,
          "durationTicks": 15,
          "midi": 38,
          "name": "D2",
          "ticks": 19560,
          "time": 108.666721,
          "velocity": 0.7874015748031497
        },
        {
          "duration": 0.08333337499999516,
          "durationTicks": 15,
          "midi": 69,
          "name": "A4",
          "ticks": 19620,
          "time": 109.0000545,
          "velocity": 0.7874015748031497
        },
        {
          "duration": 0.08333337500000937,
          "durationTicks": 15,
          "midi": 38,
          "name": "D2",
          "ticks": 19650,
          "time": 109.16672125,
          "velocity": 0.7874015748031497
        },
        {
          "duration": 0.08333337499999516,
          "durationTicks": 15,
          "midi": 69,
          "name": "A4",
          "ticks": 19680,
          "time": 109.333388,
          "velocity": 0.7874015748031497
        },
        {
          "duration": 0.08333337499999516,
          "durationTicks": 15,
          "midi": 36,
          "name": "C2",
          "ticks": 19680,
          "time": 109.333388,
          "velocity": 0.7874015748031497
        },
        {
          "duration": 0.08333337499999516,
          "durationTicks": 15,
          "midi": 69,
          "name": "A4",
          "ticks": 19710,
          "time": 109.50005475,
          "velocity": 0.7874015748031497
        },
        {
          "duration": 0.08333337499999516,
          "durationTicks": 15,
          "midi": 69,
          "name": "A4",
          "ticks": 19740,
          "time": 109.66672150000001,
          "velocity": 0.7874015748031497
        },
        {
          "duration": 0.08333337500000937,
          "durationTicks": 15,
          "midi": 36,
          "name": "C2",
          "ticks": 19770,
          "time": 109.83338825,
          "velocity": 0.7874015748031497
        },
        {
          "duration": 0.08333337499999516,
          "durationTicks": 15,
          "midi": 69,
          "name": "A4",
          "ticks": 19800,
          "time": 110.000055,
          "velocity": 0.7874015748031497
        },
        {
          "duration": 0.08333337499999516,
          "durationTicks": 15,
          "midi": 38,
          "name": "D2",
          "ticks": 19800,
          "time": 110.000055,
          "velocity": 0.7874015748031497
        },
        {
          "duration": 0.08333337499999516,
          "durationTicks": 15,
          "midi": 69,
          "name": "A4",
          "ticks": 20160,
          "time": 112.000056,
          "velocity": 0.7874015748031497
        },
        {
          "duration": 0.08333337499999516,
          "durationTicks": 15,
          "midi": 36,
          "name": "C2",
          "ticks": 20160,
          "time": 112.000056,
          "velocity": 0.7874015748031497
        },
        {
          "duration": 0.08333337499999516,
          "durationTicks": 15,
          "midi": 69,
          "name": "A4",
          "ticks": 20250,
          "time": 112.50005625,
          "velocity": 0.7874015748031497
        },
        {
          "duration": 0.08333337499999516,
          "durationTicks": 15,
          "midi": 36,
          "name": "C2",
          "ticks": 20250,
          "time": 112.50005625,
          "velocity": 0.7874015748031497
        },
        {
          "duration": 0.08333337499999516,
          "durationTicks": 15,
          "midi": 69,
          "name": "A4",
          "ticks": 20280,
          "time": 112.666723,
          "velocity": 0.7874015748031497
        },
        {
          "duration": 0.08333337499999516,
          "durationTicks": 15,
          "midi": 38,
          "name": "D2",
          "ticks": 20280,
          "time": 112.666723,
          "velocity": 0.7874015748031497
        },
        {
          "duration": 0.08333337499999516,
          "durationTicks": 15,
          "midi": 69,
          "name": "A4",
          "ticks": 20340,
          "time": 113.0000565,
          "velocity": 0.7874015748031497
        },
        {
          "duration": 0.08333337499999516,
          "durationTicks": 15,
          "midi": 69,
          "name": "A4",
          "ticks": 20370,
          "time": 113.16672325,
          "velocity": 0.7874015748031497
        },
        {
          "duration": 0.08333337500000937,
          "durationTicks": 15,
          "midi": 69,
          "name": "A4",
          "ticks": 20520,
          "time": 114.000057,
          "velocity": 0.7874015748031497
        },
        {
          "duration": 0.08333337500000937,
          "durationTicks": 15,
          "midi": 38,
          "name": "D2",
          "ticks": 20520,
          "time": 114.000057,
          "velocity": 0.7874015748031497
        },
        {
          "duration": 0.08333337499999516,
          "durationTicks": 15,
          "midi": 69,
          "name": "A4",
          "ticks": 20640,
          "time": 114.666724,
          "velocity": 0.7874015748031497
        },
        {
          "duration": 0.08333337499999516,
          "durationTicks": 15,
          "midi": 36,
          "name": "C2",
          "ticks": 20640,
          "time": 114.666724,
          "velocity": 0.7874015748031497
        },
        {
          "duration": 0.08333337499999516,
          "durationTicks": 15,
          "midi": 36,
          "name": "C2",
          "ticks": 20730,
          "time": 115.16672425,
          "velocity": 0.7874015748031497
        },
        {
          "duration": 0.08333337499999516,
          "durationTicks": 15,
          "midi": 69,
          "name": "A4",
          "ticks": 20730,
          "time": 115.16672425,
          "velocity": 0.7874015748031497
        },
        {
          "duration": 0.08333337499999516,
          "durationTicks": 15,
          "midi": 69,
          "name": "A4",
          "ticks": 20760,
          "time": 115.333391,
          "velocity": 0.7874015748031497
        },
        {
          "duration": 0.08333337499999516,
          "durationTicks": 15,
          "midi": 38,
          "name": "D2",
          "ticks": 20760,
          "time": 115.333391,
          "velocity": 0.7874015748031497
        },
        {
          "duration": 0.08333337500000937,
          "durationTicks": 15,
          "midi": 36,
          "name": "C2",
          "ticks": 20880,
          "time": 116.000058,
          "velocity": 0.7874015748031497
        },
        {
          "duration": 0.08333337499999516,
          "durationTicks": 15,
          "midi": 36,
          "name": "C2",
          "ticks": 21120,
          "time": 117.333392,
          "velocity": 0.7874015748031497
        },
        {
          "duration": 0.08333337499999516,
          "durationTicks": 15,
          "midi": 80,
          "name": "G#5",
          "ticks": 21120,
          "time": 117.333392,
          "velocity": 0.7874015748031497
        },
        {
          "duration": 0.08333337499999516,
          "durationTicks": 15,
          "midi": 42,
          "name": "F#2",
          "ticks": 21120,
          "time": 117.333392,
          "velocity": 0.7874015748031497
        },
        {
          "duration": 0.08333337499999516,
          "durationTicks": 15,
          "midi": 36,
          "name": "C2",
          "ticks": 21150,
          "time": 117.50005875000001,
          "velocity": 0.7874015748031497
        },
        {
          "duration": 0.08333337500000937,
          "durationTicks": 15,
          "midi": 80,
          "name": "G#5",
          "ticks": 21180,
          "time": 117.6667255,
          "velocity": 0.7874015748031497
        },
        {
          "duration": 0.08333337500000937,
          "durationTicks": 15,
          "midi": 42,
          "name": "F#2",
          "ticks": 21180,
          "time": 117.6667255,
          "velocity": 0.7874015748031497
        },
        {
          "duration": 0.08333337499999516,
          "durationTicks": 15,
          "midi": 36,
          "name": "C2",
          "ticks": 21210,
          "time": 117.83339225,
          "velocity": 0.7874015748031497
        },
        {
          "duration": 0.08333337499999516,
          "durationTicks": 15,
          "midi": 38,
          "name": "D2",
          "ticks": 21240,
          "time": 118.00005900000001,
          "velocity": 0.7874015748031497
        },
        {
          "duration": 0.08333337499999516,
          "durationTicks": 15,
          "midi": 80,
          "name": "G#5",
          "ticks": 21240,
          "time": 118.00005900000001,
          "velocity": 0.7874015748031497
        },
        {
          "duration": 0.08333337499999516,
          "durationTicks": 15,
          "midi": 42,
          "name": "F#2",
          "ticks": 21240,
          "time": 118.00005900000001,
          "velocity": 0.7874015748031497
        },
        {
          "duration": 0.08333337499999516,
          "durationTicks": 15,
          "midi": 80,
          "name": "G#5",
          "ticks": 21300,
          "time": 118.3333925,
          "velocity": 0.7874015748031497
        },
        {
          "duration": 0.08333337499999516,
          "durationTicks": 15,
          "midi": 42,
          "name": "F#2",
          "ticks": 21300,
          "time": 118.3333925,
          "velocity": 0.7874015748031497
        },
        {
          "duration": 0.08333337500000937,
          "durationTicks": 15,
          "midi": 36,
          "name": "C2",
          "ticks": 21360,
          "time": 118.666726,
          "velocity": 0.7874015748031497
        },
        {
          "duration": 0.08333337500000937,
          "durationTicks": 15,
          "midi": 80,
          "name": "G#5",
          "ticks": 21360,
          "time": 118.666726,
          "velocity": 0.7874015748031497
        },
        {
          "duration": 0.08333337500000937,
          "durationTicks": 15,
          "midi": 42,
          "name": "F#2",
          "ticks": 21360,
          "time": 118.666726,
          "velocity": 0.7874015748031497
        },
        {
          "duration": 0.08333337499999516,
          "durationTicks": 15,
          "midi": 36,
          "name": "C2",
          "ticks": 21420,
          "time": 119.0000595,
          "velocity": 0.7874015748031497
        },
        {
          "duration": 0.08333337499999516,
          "durationTicks": 15,
          "midi": 80,
          "name": "G#5",
          "ticks": 21420,
          "time": 119.0000595,
          "velocity": 0.7874015748031497
        },
        {
          "duration": 0.08333337499999516,
          "durationTicks": 15,
          "midi": 42,
          "name": "F#2",
          "ticks": 21420,
          "time": 119.0000595,
          "velocity": 0.7874015748031497
        },
        {
          "duration": 0.08333337499999516,
          "durationTicks": 15,
          "midi": 80,
          "name": "G#5",
          "ticks": 21480,
          "time": 119.333393,
          "velocity": 0.7874015748031497
        },
        {
          "duration": 0.08333337499999516,
          "durationTicks": 15,
          "midi": 38,
          "name": "D2",
          "ticks": 21480,
          "time": 119.333393,
          "velocity": 0.7874015748031497
        },
        {
          "duration": 0.08333337499999516,
          "durationTicks": 15,
          "midi": 42,
          "name": "F#2",
          "ticks": 21480,
          "time": 119.333393,
          "velocity": 0.7874015748031497
        },
        {
          "duration": 0.08333337500000937,
          "durationTicks": 15,
          "midi": 80,
          "name": "G#5",
          "ticks": 21540,
          "time": 119.6667265,
          "velocity": 0.7874015748031497
        },
        {
          "duration": 0.08333337500000937,
          "durationTicks": 15,
          "midi": 42,
          "name": "F#2",
          "ticks": 21540,
          "time": 119.6667265,
          "velocity": 0.7874015748031497
        },
        {
          "duration": 0.08333337499999516,
          "durationTicks": 15,
          "midi": 38,
          "name": "D2",
          "ticks": 21570,
          "time": 119.83339325,
          "velocity": 0.7874015748031497
        },
        {
          "duration": 0.08333337499999516,
          "durationTicks": 15,
          "midi": 80,
          "name": "G#5",
          "ticks": 21600,
          "time": 120.00006,
          "velocity": 0.7874015748031497
        },
        {
          "duration": 0.08333337499999516,
          "durationTicks": 15,
          "midi": 36,
          "name": "C2",
          "ticks": 21600,
          "time": 120.00006,
          "velocity": 0.7874015748031497
        },
        {
          "duration": 0.08333337499999516,
          "durationTicks": 15,
          "midi": 42,
          "name": "F#2",
          "ticks": 21600,
          "time": 120.00006,
          "velocity": 0.7874015748031497
        },
        {
          "duration": 0.08333337499999516,
          "durationTicks": 15,
          "midi": 80,
          "name": "G#5",
          "ticks": 21660,
          "time": 120.3333935,
          "velocity": 0.7874015748031497
        },
        {
          "duration": 0.08333337499999516,
          "durationTicks": 15,
          "midi": 42,
          "name": "F#2",
          "ticks": 21660,
          "time": 120.3333935,
          "velocity": 0.7874015748031497
        },
        {
          "duration": 0.08333337499999516,
          "durationTicks": 15,
          "midi": 36,
          "name": "C2",
          "ticks": 21690,
          "time": 120.50006025,
          "velocity": 0.7874015748031497
        },
        {
          "duration": 0.08333337499999516,
          "durationTicks": 15,
          "midi": 80,
          "name": "G#5",
          "ticks": 21720,
          "time": 120.66672700000001,
          "velocity": 0.7874015748031497
        },
        {
          "duration": 0.08333337499999516,
          "durationTicks": 15,
          "midi": 38,
          "name": "D2",
          "ticks": 21720,
          "time": 120.66672700000001,
          "velocity": 0.7874015748031497
        },
        {
          "duration": 0.08333337499999516,
          "durationTicks": 15,
          "midi": 42,
          "name": "F#2",
          "ticks": 21720,
          "time": 120.66672700000001,
          "velocity": 0.7874015748031497
        },
        {
          "duration": 0.08333337499999516,
          "durationTicks": 15,
          "midi": 80,
          "name": "G#5",
          "ticks": 21780,
          "time": 121.0000605,
          "velocity": 0.7874015748031497
        },
        {
          "duration": 0.08333337499999516,
          "durationTicks": 15,
          "midi": 42,
          "name": "F#2",
          "ticks": 21780,
          "time": 121.0000605,
          "velocity": 0.7874015748031497
        },
        {
          "duration": 0.08333337500000937,
          "durationTicks": 15,
          "midi": 80,
          "name": "G#5",
          "ticks": 21840,
          "time": 121.333394,
          "velocity": 0.7874015748031497
        },
        {
          "duration": 0.08333337500000937,
          "durationTicks": 15,
          "midi": 36,
          "name": "C2",
          "ticks": 21840,
          "time": 121.333394,
          "velocity": 0.7874015748031497
        },
        {
          "duration": 0.08333337500000937,
          "durationTicks": 15,
          "midi": 42,
          "name": "F#2",
          "ticks": 21840,
          "time": 121.333394,
          "velocity": 0.7874015748031497
        },
        {
          "duration": 0.08333337499999516,
          "durationTicks": 15,
          "midi": 80,
          "name": "G#5",
          "ticks": 21900,
          "time": 121.66672750000001,
          "velocity": 0.7874015748031497
        },
        {
          "duration": 0.08333337499999516,
          "durationTicks": 15,
          "midi": 36,
          "name": "C2",
          "ticks": 21900,
          "time": 121.66672750000001,
          "velocity": 0.7874015748031497
        },
        {
          "duration": 0.08333337499999516,
          "durationTicks": 15,
          "midi": 42,
          "name": "F#2",
          "ticks": 21900,
          "time": 121.66672750000001,
          "velocity": 0.7874015748031497
        },
        {
          "duration": 0.08333337499999516,
          "durationTicks": 15,
          "midi": 80,
          "name": "G#5",
          "ticks": 21960,
          "time": 122.000061,
          "velocity": 0.7874015748031497
        },
        {
          "duration": 0.08333337499999516,
          "durationTicks": 15,
          "midi": 42,
          "name": "F#2",
          "ticks": 21960,
          "time": 122.000061,
          "velocity": 0.7874015748031497
        },
        {
          "duration": 0.08333337500000937,
          "durationTicks": 15,
          "midi": 80,
          "name": "G#5",
          "ticks": 22020,
          "time": 122.3333945,
          "velocity": 0.7874015748031497
        },
        {
          "duration": 0.08333337500000937,
          "durationTicks": 15,
          "midi": 42,
          "name": "F#2",
          "ticks": 22020,
          "time": 122.3333945,
          "velocity": 0.7874015748031497
        },
        {
          "duration": 0.08333337499999516,
          "durationTicks": 15,
          "midi": 80,
          "name": "G#5",
          "ticks": 22080,
          "time": 122.666728,
          "velocity": 0.7874015748031497
        },
        {
          "duration": 0.08333337499999516,
          "durationTicks": 15,
          "midi": 36,
          "name": "C2",
          "ticks": 22080,
          "time": 122.666728,
          "velocity": 0.7874015748031497
        },
        {
          "duration": 0.08333337499999516,
          "durationTicks": 15,
          "midi": 42,
          "name": "F#2",
          "ticks": 22080,
          "time": 122.666728,
          "velocity": 0.7874015748031497
        },
        {
          "duration": 0.08333337499999516,
          "durationTicks": 15,
          "midi": 80,
          "name": "G#5",
          "ticks": 22140,
          "time": 123.0000615,
          "velocity": 0.7874015748031497
        },
        {
          "duration": 0.08333337499999516,
          "durationTicks": 15,
          "midi": 42,
          "name": "F#2",
          "ticks": 22140,
          "time": 123.0000615,
          "velocity": 0.7874015748031497
        },
        {
          "duration": 0.08333337499999516,
          "durationTicks": 15,
          "midi": 36,
          "name": "C2",
          "ticks": 22170,
          "time": 123.16672825,
          "velocity": 0.7874015748031497
        },
        {
          "duration": 0.08333337500000937,
          "durationTicks": 15,
          "midi": 80,
          "name": "G#5",
          "ticks": 22200,
          "time": 123.333395,
          "velocity": 0.7874015748031497
        },
        {
          "duration": 0.08333337500000937,
          "durationTicks": 15,
          "midi": 42,
          "name": "F#2",
          "ticks": 22200,
          "time": 123.333395,
          "velocity": 0.7874015748031497
        },
        {
          "duration": 0.08333337499999516,
          "durationTicks": 15,
          "midi": 80,
          "name": "G#5",
          "ticks": 22260,
          "time": 123.6667285,
          "velocity": 0.7874015748031497
        },
        {
          "duration": 0.08333337499999516,
          "durationTicks": 15,
          "midi": 42,
          "name": "F#2",
          "ticks": 22260,
          "time": 123.6667285,
          "velocity": 0.7874015748031497
        },
        {
          "duration": 0.08333337499999516,
          "durationTicks": 15,
          "midi": 80,
          "name": "G#5",
          "ticks": 22320,
          "time": 124.000062,
          "velocity": 0.7874015748031497
        },
        {
          "duration": 0.08333337499999516,
          "durationTicks": 15,
          "midi": 36,
          "name": "C2",
          "ticks": 22320,
          "time": 124.000062,
          "velocity": 0.7874015748031497
        },
        {
          "duration": 0.08333337499999516,
          "durationTicks": 15,
          "midi": 42,
          "name": "F#2",
          "ticks": 22320,
          "time": 124.000062,
          "velocity": 0.7874015748031497
        },
        {
          "duration": 0.08333337499999516,
          "durationTicks": 15,
          "midi": 80,
          "name": "G#5",
          "ticks": 22380,
          "time": 124.33339550000001,
          "velocity": 0.7874015748031497
        },
        {
          "duration": 0.08333337499999516,
          "durationTicks": 15,
          "midi": 42,
          "name": "F#2",
          "ticks": 22380,
          "time": 124.33339550000001,
          "velocity": 0.7874015748031497
        },
        {
          "duration": 0.08333337499999516,
          "durationTicks": 15,
          "midi": 36,
          "name": "C2",
          "ticks": 22380,
          "time": 124.33339550000001,
          "velocity": 0.7874015748031497
        },
        {
          "duration": 0.08333337499999516,
          "durationTicks": 15,
          "midi": 80,
          "name": "G#5",
          "ticks": 22440,
          "time": 124.666729,
          "velocity": 0.7874015748031497
        },
        {
          "duration": 0.08333337499999516,
          "durationTicks": 15,
          "midi": 42,
          "name": "F#2",
          "ticks": 22440,
          "time": 124.666729,
          "velocity": 0.7874015748031497
        },
        {
          "duration": 0.08333337500000937,
          "durationTicks": 15,
          "midi": 80,
          "name": "G#5",
          "ticks": 22500,
          "time": 125.0000625,
          "velocity": 0.7874015748031497
        },
        {
          "duration": 0.08333337500000937,
          "durationTicks": 15,
          "midi": 42,
          "name": "F#2",
          "ticks": 22500,
          "time": 125.0000625,
          "velocity": 0.7874015748031497
        },
        {
          "duration": 0.08333337499999516,
          "durationTicks": 15,
          "midi": 80,
          "name": "G#5",
          "ticks": 22560,
          "time": 125.33339600000001,
          "velocity": 0.7874015748031497
        },
        {
          "duration": 0.08333337499999516,
          "durationTicks": 15,
          "midi": 42,
          "name": "F#2",
          "ticks": 22560,
          "time": 125.33339600000001,
          "velocity": 0.7874015748031497
        },
        {
          "duration": 0.08333337499999516,
          "durationTicks": 15,
          "midi": 36,
          "name": "C2",
          "ticks": 22560,
          "time": 125.33339600000001,
          "velocity": 0.7874015748031497
        },
        {
          "duration": 0.08333337499999516,
          "durationTicks": 15,
          "midi": 80,
          "name": "G#5",
          "ticks": 22620,
          "time": 125.6667295,
          "velocity": 0.7874015748031497
        },
        {
          "duration": 0.08333337499999516,
          "durationTicks": 15,
          "midi": 42,
          "name": "F#2",
          "ticks": 22620,
          "time": 125.6667295,
          "velocity": 0.7874015748031497
        },
        {
          "duration": 0.08333337499999516,
          "durationTicks": 15,
          "midi": 36,
          "name": "C2",
          "ticks": 22650,
          "time": 125.83339625,
          "velocity": 0.7874015748031497
        },
        {
          "duration": 0.08333337500000937,
          "durationTicks": 15,
          "midi": 80,
          "name": "G#5",
          "ticks": 22680,
          "time": 126.000063,
          "velocity": 0.7874015748031497
        },
        {
          "duration": 0.08333337500000937,
          "durationTicks": 15,
          "midi": 42,
          "name": "F#2",
          "ticks": 22680,
          "time": 126.000063,
          "velocity": 0.7874015748031497
        },
        {
          "duration": 0.08333337499999516,
          "durationTicks": 15,
          "midi": 80,
          "name": "G#5",
          "ticks": 22740,
          "time": 126.3333965,
          "velocity": 0.7874015748031497
        },
        {
          "duration": 0.08333337499999516,
          "durationTicks": 15,
          "midi": 42,
          "name": "F#2",
          "ticks": 22740,
          "time": 126.3333965,
          "velocity": 0.7874015748031497
        },
        {
          "duration": 0.08333337499999516,
          "durationTicks": 15,
          "midi": 80,
          "name": "G#5",
          "ticks": 22800,
          "time": 126.66673,
          "velocity": 0.7874015748031497
        },
        {
          "duration": 0.08333337499999516,
          "durationTicks": 15,
          "midi": 42,
          "name": "F#2",
          "ticks": 22800,
          "time": 126.66673,
          "velocity": 0.7874015748031497
        },
        {
          "duration": 0.08333337499999516,
          "durationTicks": 15,
          "midi": 36,
          "name": "C2",
          "ticks": 22800,
          "time": 126.66673,
          "velocity": 0.7874015748031497
        },
        {
          "duration": 0.08333337500000937,
          "durationTicks": 15,
          "midi": 80,
          "name": "G#5",
          "ticks": 22860,
          "time": 127.0000635,
          "velocity": 0.7874015748031497
        },
        {
          "duration": 0.08333337500000937,
          "durationTicks": 15,
          "midi": 42,
          "name": "F#2",
          "ticks": 22860,
          "time": 127.0000635,
          "velocity": 0.7874015748031497
        },
        {
          "duration": 0.08333337499999516,
          "durationTicks": 15,
          "midi": 36,
          "name": "C2",
          "ticks": 22890,
          "time": 127.16673025,
          "velocity": 0.7874015748031497
        },
        {
          "duration": 0.08333337499999516,
          "durationTicks": 15,
          "midi": 80,
          "name": "G#5",
          "ticks": 22920,
          "time": 127.333397,
          "velocity": 0.7874015748031497
        },
        {
          "duration": 0.08333337499999516,
          "durationTicks": 15,
          "midi": 42,
          "name": "F#2",
          "ticks": 22920,
          "time": 127.333397,
          "velocity": 0.7874015748031497
        },
        {
          "duration": 0.08333337499999516,
          "durationTicks": 15,
          "midi": 38,
          "name": "D2",
          "ticks": 22920,
          "time": 127.333397,
          "velocity": 0.7874015748031497
        },
        {
          "duration": 0.08333337499999516,
          "durationTicks": 15,
          "midi": 80,
          "name": "G#5",
          "ticks": 22980,
          "time": 127.6667305,
          "velocity": 0.7874015748031497
        },
        {
          "duration": 0.08333337499999516,
          "durationTicks": 15,
          "midi": 42,
          "name": "F#2",
          "ticks": 22980,
          "time": 127.6667305,
          "velocity": 0.7874015748031497
        },
        {
          "duration": 0.08333337499999516,
          "durationTicks": 15,
          "midi": 36,
          "name": "C2",
          "ticks": 22980,
          "time": 127.6667305,
          "velocity": 0.7874015748031497
        },
        {
          "duration": 0.08333337499999516,
          "durationTicks": 15,
          "midi": 36,
          "name": "C2",
          "ticks": 23040,
          "time": 128.000064,
          "velocity": 0.7874015748031497
        },
        {
          "duration": 0.08333337499999516,
          "durationTicks": 15,
          "midi": 80,
          "name": "G#5",
          "ticks": 23040,
          "time": 128.000064,
          "velocity": 0.7874015748031497
        },
        {
          "duration": 0.08333337499999516,
          "durationTicks": 15,
          "midi": 42,
          "name": "F#2",
          "ticks": 23040,
          "time": 128.000064,
          "velocity": 0.7874015748031497
        },
        {
          "duration": 0.08333337499999516,
          "durationTicks": 15,
          "midi": 36,
          "name": "C2",
          "ticks": 23070,
          "time": 128.16673075,
          "velocity": 0.7874015748031497
        },
        {
          "duration": 0.08333337500002358,
          "durationTicks": 15,
          "midi": 80,
          "name": "G#5",
          "ticks": 23100,
          "time": 128.3333975,
          "velocity": 0.7874015748031497
        },
        {
          "duration": 0.08333337500002358,
          "durationTicks": 15,
          "midi": 42,
          "name": "F#2",
          "ticks": 23100,
          "time": 128.3333975,
          "velocity": 0.7874015748031497
        },
        {
          "duration": 0.08333337499999516,
          "durationTicks": 15,
          "midi": 36,
          "name": "C2",
          "ticks": 23130,
          "time": 128.50006425,
          "velocity": 0.7874015748031497
        },
        {
          "duration": 0.08333337499999516,
          "durationTicks": 15,
          "midi": 38,
          "name": "D2",
          "ticks": 23160,
          "time": 128.666731,
          "velocity": 0.7874015748031497
        },
        {
          "duration": 0.08333337499999516,
          "durationTicks": 15,
          "midi": 80,
          "name": "G#5",
          "ticks": 23160,
          "time": 128.666731,
          "velocity": 0.7874015748031497
        },
        {
          "duration": 0.08333337499999516,
          "durationTicks": 15,
          "midi": 42,
          "name": "F#2",
          "ticks": 23160,
          "time": 128.666731,
          "velocity": 0.7874015748031497
        },
        {
          "duration": 0.08333337499999516,
          "durationTicks": 15,
          "midi": 80,
          "name": "G#5",
          "ticks": 23220,
          "time": 129.0000645,
          "velocity": 0.7874015748031497
        },
        {
          "duration": 0.08333337499999516,
          "durationTicks": 15,
          "midi": 42,
          "name": "F#2",
          "ticks": 23220,
          "time": 129.0000645,
          "velocity": 0.7874015748031497
        },
        {
          "duration": 0.08333337500002358,
          "durationTicks": 15,
          "midi": 36,
          "name": "C2",
          "ticks": 23280,
          "time": 129.333398,
          "velocity": 0.7874015748031497
        },
        {
          "duration": 0.08333337500002358,
          "durationTicks": 15,
          "midi": 80,
          "name": "G#5",
          "ticks": 23280,
          "time": 129.333398,
          "velocity": 0.7874015748031497
        },
        {
          "duration": 0.08333337500002358,
          "durationTicks": 15,
          "midi": 42,
          "name": "F#2",
          "ticks": 23280,
          "time": 129.333398,
          "velocity": 0.7874015748031497
        },
        {
          "duration": 0.08333337499999516,
          "durationTicks": 15,
          "midi": 36,
          "name": "C2",
          "ticks": 23340,
          "time": 129.6667315,
          "velocity": 0.7874015748031497
        },
        {
          "duration": 0.08333337499999516,
          "durationTicks": 15,
          "midi": 80,
          "name": "G#5",
          "ticks": 23340,
          "time": 129.6667315,
          "velocity": 0.7874015748031497
        },
        {
          "duration": 0.08333337499999516,
          "durationTicks": 15,
          "midi": 42,
          "name": "F#2",
          "ticks": 23340,
          "time": 129.6667315,
          "velocity": 0.7874015748031497
        },
        {
          "duration": 0.08333337499999516,
          "durationTicks": 15,
          "midi": 80,
          "name": "G#5",
          "ticks": 23400,
          "time": 130.000065,
          "velocity": 0.7874015748031497
        },
        {
          "duration": 0.08333337499999516,
          "durationTicks": 15,
          "midi": 38,
          "name": "D2",
          "ticks": 23400,
          "time": 130.000065,
          "velocity": 0.7874015748031497
        },
        {
          "duration": 0.08333337499999516,
          "durationTicks": 15,
          "midi": 42,
          "name": "F#2",
          "ticks": 23400,
          "time": 130.000065,
          "velocity": 0.7874015748031497
        },
        {
          "duration": 0.08333337499999516,
          "durationTicks": 15,
          "midi": 80,
          "name": "G#5",
          "ticks": 23460,
          "time": 130.33339850000002,
          "velocity": 0.7874015748031497
        },
        {
          "duration": 0.08333337499999516,
          "durationTicks": 15,
          "midi": 42,
          "name": "F#2",
          "ticks": 23460,
          "time": 130.33339850000002,
          "velocity": 0.7874015748031497
        },
        {
          "duration": 0.08333337499999516,
          "durationTicks": 15,
          "midi": 38,
          "name": "D2",
          "ticks": 23490,
          "time": 130.50006525,
          "velocity": 0.7874015748031497
        },
        {
          "duration": 0.08333337499999516,
          "durationTicks": 15,
          "midi": 80,
          "name": "G#5",
          "ticks": 23520,
          "time": 130.666732,
          "velocity": 0.7874015748031497
        },
        {
          "duration": 0.08333337499999516,
          "durationTicks": 15,
          "midi": 36,
          "name": "C2",
          "ticks": 23520,
          "time": 130.666732,
          "velocity": 0.7874015748031497
        },
        {
          "duration": 0.08333337499999516,
          "durationTicks": 15,
          "midi": 42,
          "name": "F#2",
          "ticks": 23520,
          "time": 130.666732,
          "velocity": 0.7874015748031497
        },
        {
          "duration": 0.08333337499999516,
          "durationTicks": 15,
          "midi": 80,
          "name": "G#5",
          "ticks": 23580,
          "time": 131.0000655,
          "velocity": 0.7874015748031497
        },
        {
          "duration": 0.08333337499999516,
          "durationTicks": 15,
          "midi": 42,
          "name": "F#2",
          "ticks": 23580,
          "time": 131.0000655,
          "velocity": 0.7874015748031497
        },
        {
          "duration": 0.08333337499999516,
          "durationTicks": 15,
          "midi": 36,
          "name": "C2",
          "ticks": 23610,
          "time": 131.16673225,
          "velocity": 0.7874015748031497
        },
        {
          "duration": 0.08333337499999516,
          "durationTicks": 15,
          "midi": 80,
          "name": "G#5",
          "ticks": 23640,
          "time": 131.33339900000001,
          "velocity": 0.7874015748031497
        },
        {
          "duration": 0.08333337499999516,
          "durationTicks": 15,
          "midi": 38,
          "name": "D2",
          "ticks": 23640,
          "time": 131.33339900000001,
          "velocity": 0.7874015748031497
        },
        {
          "duration": 0.08333337499999516,
          "durationTicks": 15,
          "midi": 42,
          "name": "F#2",
          "ticks": 23640,
          "time": 131.33339900000001,
          "velocity": 0.7874015748031497
        },
        {
          "duration": 0.08333337499999516,
          "durationTicks": 15,
          "midi": 80,
          "name": "G#5",
          "ticks": 23700,
          "time": 131.6667325,
          "velocity": 0.7874015748031497
        },
        {
          "duration": 0.08333337499999516,
          "durationTicks": 15,
          "midi": 42,
          "name": "F#2",
          "ticks": 23700,
          "time": 131.6667325,
          "velocity": 0.7874015748031497
        },
        {
          "duration": 0.08333337499999516,
          "durationTicks": 15,
          "midi": 80,
          "name": "G#5",
          "ticks": 23760,
          "time": 132.000066,
          "velocity": 0.7874015748031497
        },
        {
          "duration": 0.08333337499999516,
          "durationTicks": 15,
          "midi": 36,
          "name": "C2",
          "ticks": 23760,
          "time": 132.000066,
          "velocity": 0.7874015748031497
        },
        {
          "duration": 0.08333337499999516,
          "durationTicks": 15,
          "midi": 42,
          "name": "F#2",
          "ticks": 23760,
          "time": 132.000066,
          "velocity": 0.7874015748031497
        },
        {
          "duration": 0.08333337499999516,
          "durationTicks": 15,
          "midi": 80,
          "name": "G#5",
          "ticks": 23820,
          "time": 132.3333995,
          "velocity": 0.7874015748031497
        },
        {
          "duration": 0.08333337499999516,
          "durationTicks": 15,
          "midi": 36,
          "name": "C2",
          "ticks": 23820,
          "time": 132.3333995,
          "velocity": 0.7874015748031497
        },
        {
          "duration": 0.08333337499999516,
          "durationTicks": 15,
          "midi": 42,
          "name": "F#2",
          "ticks": 23820,
          "time": 132.3333995,
          "velocity": 0.7874015748031497
        },
        {
          "duration": 0.08333337499999516,
          "durationTicks": 15,
          "midi": 80,
          "name": "G#5",
          "ticks": 23880,
          "time": 132.666733,
          "velocity": 0.7874015748031497
        },
        {
          "duration": 0.08333337499999516,
          "durationTicks": 15,
          "midi": 38,
          "name": "D2",
          "ticks": 23880,
          "time": 132.666733,
          "velocity": 0.7874015748031497
        },
        {
          "duration": 0.08333337499999516,
          "durationTicks": 15,
          "midi": 42,
          "name": "F#2",
          "ticks": 23880,
          "time": 132.666733,
          "velocity": 0.7874015748031497
        },
        {
          "duration": 0.08333337499999516,
          "durationTicks": 15,
          "midi": 80,
          "name": "G#5",
          "ticks": 23940,
          "time": 133.0000665,
          "velocity": 0.7874015748031497
        },
        {
          "duration": 0.08333337499999516,
          "durationTicks": 15,
          "midi": 42,
          "name": "F#2",
          "ticks": 23940,
          "time": 133.0000665,
          "velocity": 0.7874015748031497
        },
        {
          "duration": 0.08333337499999516,
          "durationTicks": 15,
          "midi": 36,
          "name": "C2",
          "ticks": 24000,
          "time": 133.3334,
          "velocity": 0.7874015748031497
        },
        {
          "duration": 0.08333337499999516,
          "durationTicks": 15,
          "midi": 36,
          "name": "C2",
          "ticks": 24090,
          "time": 133.83340025,
          "velocity": 0.7874015748031497
        },
        {
          "duration": 0.08333337499999516,
          "durationTicks": 15,
          "midi": 38,
          "name": "D2",
          "ticks": 24120,
          "time": 134.000067,
          "velocity": 0.7874015748031497
        },
        {
          "duration": 0.08333337500002358,
          "durationTicks": 15,
          "midi": 80,
          "name": "G#5",
          "ticks": 24240,
          "time": 134.666734,
          "velocity": 0.7874015748031497
        },
        {
          "duration": 0.08333337500002358,
          "durationTicks": 15,
          "midi": 36,
          "name": "C2",
          "ticks": 24240,
          "time": 134.666734,
          "velocity": 0.7874015748031497
        },
        {
          "duration": 0.08333337500002358,
          "durationTicks": 15,
          "midi": 42,
          "name": "F#2",
          "ticks": 24240,
          "time": 134.666734,
          "velocity": 0.7874015748031497
        },
        {
          "duration": 0.08333337499999516,
          "durationTicks": 15,
          "midi": 80,
          "name": "G#5",
          "ticks": 24300,
          "time": 135.0000675,
          "velocity": 0.7874015748031497
        },
        {
          "duration": 0.08333337499999516,
          "durationTicks": 15,
          "midi": 42,
          "name": "F#2",
          "ticks": 24300,
          "time": 135.0000675,
          "velocity": 0.7874015748031497
        },
        {
          "duration": 0.08333337499999516,
          "durationTicks": 15,
          "midi": 36,
          "name": "C2",
          "ticks": 24300,
          "time": 135.0000675,
          "velocity": 0.7874015748031497
        },
        {
          "duration": 0.08333337499999516,
          "durationTicks": 15,
          "midi": 38,
          "name": "D2",
          "ticks": 24360,
          "time": 135.333401,
          "velocity": 0.7874015748031497
        },
        {
          "duration": 0.08333337499999516,
          "durationTicks": 15,
          "midi": 80,
          "name": "G#5",
          "ticks": 24360,
          "time": 135.333401,
          "velocity": 0.7874015748031497
        },
        {
          "duration": 0.08333337499999516,
          "durationTicks": 15,
          "midi": 42,
          "name": "F#2",
          "ticks": 24360,
          "time": 135.333401,
          "velocity": 0.7874015748031497
        },
        {
          "duration": 0.08333337500002358,
          "durationTicks": 15,
          "midi": 80,
          "name": "G#5",
          "ticks": 24420,
          "time": 135.6667345,
          "velocity": 0.7874015748031497
        },
        {
          "duration": 0.08333337500002358,
          "durationTicks": 15,
          "midi": 42,
          "name": "F#2",
          "ticks": 24420,
          "time": 135.6667345,
          "velocity": 0.7874015748031497
        },
        {
          "duration": 0.08333337499999516,
          "durationTicks": 15,
          "midi": 80,
          "name": "G#5",
          "ticks": 24480,
          "time": 136.000068,
          "velocity": 0.7874015748031497
        },
        {
          "duration": 0.08333337499999516,
          "durationTicks": 15,
          "midi": 42,
          "name": "F#2",
          "ticks": 24480,
          "time": 136.000068,
          "velocity": 0.7874015748031497
        },
        {
          "duration": 0.08333337499999516,
          "durationTicks": 15,
          "midi": 36,
          "name": "C2",
          "ticks": 24480,
          "time": 136.000068,
          "velocity": 0.7874015748031497
        },
        {
          "duration": 0.08333337499999516,
          "durationTicks": 15,
          "midi": 80,
          "name": "G#5",
          "ticks": 24540,
          "time": 136.3334015,
          "velocity": 0.7874015748031497
        },
        {
          "duration": 0.08333337499999516,
          "durationTicks": 15,
          "midi": 42,
          "name": "F#2",
          "ticks": 24540,
          "time": 136.3334015,
          "velocity": 0.7874015748031497
        },
        {
          "duration": 0.08333337499999516,
          "durationTicks": 15,
          "midi": 36,
          "name": "C2",
          "ticks": 24570,
          "time": 136.50006825,
          "velocity": 0.7874015748031497
        },
        {
          "duration": 0.08333337500002358,
          "durationTicks": 15,
          "midi": 80,
          "name": "G#5",
          "ticks": 24600,
          "time": 136.666735,
          "velocity": 0.7874015748031497
        },
        {
          "duration": 0.08333337500002358,
          "durationTicks": 15,
          "midi": 42,
          "name": "F#2",
          "ticks": 24600,
          "time": 136.666735,
          "velocity": 0.7874015748031497
        },
        {
          "duration": 0.08333337500002358,
          "durationTicks": 15,
          "midi": 38,
          "name": "D2",
          "ticks": 24600,
          "time": 136.666735,
          "velocity": 0.7874015748031497
        },
        {
          "duration": 0.08333337499999516,
          "durationTicks": 15,
          "midi": 80,
          "name": "G#5",
          "ticks": 24660,
          "time": 137.0000685,
          "velocity": 0.7874015748031497
        },
        {
          "duration": 0.08333337499999516,
          "durationTicks": 15,
          "midi": 42,
          "name": "F#2",
          "ticks": 24660,
          "time": 137.0000685,
          "velocity": 0.7874015748031497
        },
        {
          "duration": 0.08333337499999516,
          "durationTicks": 15,
          "midi": 36,
          "name": "C2",
          "ticks": 24720,
          "time": 137.333402,
          "velocity": 0.7874015748031497
        },
        {
          "duration": 0.08333337499999516,
          "durationTicks": 15,
          "midi": 36,
          "name": "C2",
          "ticks": 24810,
          "time": 137.83340225,
          "velocity": 0.7874015748031497
        },
        {
          "duration": 0.08333337499999516,
          "durationTicks": 15,
          "midi": 38,
          "name": "D2",
          "ticks": 24840,
          "time": 138.000069,
          "velocity": 0.7874015748031497
        },
        {
          "duration": 0.08333337499999516,
          "durationTicks": 15,
          "midi": 36,
          "name": "C2",
          "ticks": 24900,
          "time": 138.3334025,
          "velocity": 0.7874015748031497
        },
        {
          "duration": 0.08333337499999516,
          "durationTicks": 15,
          "midi": 69,
          "name": "A4",
          "ticks": 24960,
          "time": 138.66673600000001,
          "velocity": 0.7874015748031497
        },
        {
          "duration": 0.08333337499999516,
          "durationTicks": 15,
          "midi": 36,
          "name": "C2",
          "ticks": 24960,
          "time": 138.66673600000001,
          "velocity": 0.7874015748031497
        },
        {
          "duration": 0.08333337499999516,
          "durationTicks": 15,
          "midi": 36,
          "name": "C2",
          "ticks": 24990,
          "time": 138.83340275,
          "velocity": 0.7874015748031497
        },
        {
          "duration": 0.08333337499999516,
          "durationTicks": 15,
          "midi": 69,
          "name": "A4",
          "ticks": 25020,
          "time": 139.0000695,
          "velocity": 0.7874015748031497
        },
        {
          "duration": 0.08333337499999516,
          "durationTicks": 15,
          "midi": 36,
          "name": "C2",
          "ticks": 25050,
          "time": 139.16673625,
          "velocity": 0.7874015748031497
        },
        {
          "duration": 0.08333337499999516,
          "durationTicks": 15,
          "midi": 69,
          "name": "A4",
          "ticks": 25080,
          "time": 139.333403,
          "velocity": 0.7874015748031497
        },
        {
          "duration": 0.08333337499999516,
          "durationTicks": 15,
          "midi": 38,
          "name": "D2",
          "ticks": 25080,
          "time": 139.333403,
          "velocity": 0.7874015748031497
        },
        {
          "duration": 0.08333337499999516,
          "durationTicks": 15,
          "midi": 69,
          "name": "A4",
          "ticks": 25140,
          "time": 139.6667365,
          "velocity": 0.7874015748031497
        },
        {
          "duration": 0.08333337499999516,
          "durationTicks": 15,
          "midi": 69,
          "name": "A4",
          "ticks": 25200,
          "time": 140.00007,
          "velocity": 0.7874015748031497
        },
        {
          "duration": 0.08333337499999516,
          "durationTicks": 15,
          "midi": 36,
          "name": "C2",
          "ticks": 25200,
          "time": 140.00007,
          "velocity": 0.7874015748031497
        },
        {
          "duration": 0.08333337499999516,
          "durationTicks": 15,
          "midi": 69,
          "name": "A4",
          "ticks": 25260,
          "time": 140.3334035,
          "velocity": 0.7874015748031497
        },
        {
          "duration": 0.08333337499999516,
          "durationTicks": 15,
          "midi": 36,
          "name": "C2",
          "ticks": 25260,
          "time": 140.3334035,
          "velocity": 0.7874015748031497
        },
        {
          "duration": 0.08333337499999516,
          "durationTicks": 15,
          "midi": 69,
          "name": "A4",
          "ticks": 25320,
          "time": 140.666737,
          "velocity": 0.7874015748031497
        },
        {
          "duration": 0.08333337499999516,
          "durationTicks": 15,
          "midi": 38,
          "name": "D2",
          "ticks": 25320,
          "time": 140.666737,
          "velocity": 0.7874015748031497
        },
        {
          "duration": 0.08333337500002358,
          "durationTicks": 15,
          "midi": 69,
          "name": "A4",
          "ticks": 25380,
          "time": 141.0000705,
          "velocity": 0.7874015748031497
        },
        {
          "duration": 0.08333337499999516,
          "durationTicks": 15,
          "midi": 69,
          "name": "A4",
          "ticks": 25410,
          "time": 141.16673725,
          "velocity": 0.7874015748031497
        },
        {
          "duration": 0.08333337499999516,
          "durationTicks": 15,
          "midi": 38,
          "name": "D2",
          "ticks": 25410,
          "time": 141.16673725,
          "velocity": 0.7874015748031497
        },
        {
          "duration": 0.08333337499999516,
          "durationTicks": 15,
          "midi": 69,
          "name": "A4",
          "ticks": 25440,
          "time": 141.333404,
          "velocity": 0.7874015748031497
        },
        {
          "duration": 0.08333337499999516,
          "durationTicks": 15,
          "midi": 36,
          "name": "C2",
          "ticks": 25440,
          "time": 141.333404,
          "velocity": 0.7874015748031497
        },
        {
          "duration": 0.08333337499999516,
          "durationTicks": 15,
          "midi": 69,
          "name": "A4",
          "ticks": 25500,
          "time": 141.6667375,
          "velocity": 0.7874015748031497
        },
        {
          "duration": 0.08333337499999516,
          "durationTicks": 15,
          "midi": 36,
          "name": "C2",
          "ticks": 25530,
          "time": 141.83340425,
          "velocity": 0.7874015748031497
        },
        {
          "duration": 0.08333337500002358,
          "durationTicks": 15,
          "midi": 69,
          "name": "A4",
          "ticks": 25560,
          "time": 142.000071,
          "velocity": 0.7874015748031497
        },
        {
          "duration": 0.08333337500002358,
          "durationTicks": 15,
          "midi": 38,
          "name": "D2",
          "ticks": 25560,
          "time": 142.000071,
          "velocity": 0.7874015748031497
        },
        {
          "duration": 0.08333337500002358,
          "durationTicks": 15,
          "midi": 69,
          "name": "A4",
          "ticks": 25920,
          "time": 144.000072,
          "velocity": 0.7874015748031497
        },
        {
          "duration": 0.08333337500002358,
          "durationTicks": 15,
          "midi": 36,
          "name": "C2",
          "ticks": 25920,
          "time": 144.000072,
          "velocity": 0.7874015748031497
        },
        {
          "duration": 0.08333337499999516,
          "durationTicks": 15,
          "midi": 69,
          "name": "A4",
          "ticks": 25980,
          "time": 144.3334055,
          "velocity": 0.7874015748031497
        },
        {
          "duration": 0.08333337500002358,
          "durationTicks": 15,
          "midi": 36,
          "name": "C2",
          "ticks": 26010,
          "time": 144.50007225,
          "velocity": 0.7874015748031497
        },
        {
          "duration": 0.08333337499999516,
          "durationTicks": 15,
          "midi": 69,
          "name": "A4",
          "ticks": 26040,
          "time": 144.666739,
          "velocity": 0.7874015748031497
        },
        {
          "duration": 0.08333337499999516,
          "durationTicks": 15,
          "midi": 38,
          "name": "D2",
          "ticks": 26040,
          "time": 144.666739,
          "velocity": 0.7874015748031497
        },
        {
          "duration": 0.08333337499999516,
          "durationTicks": 15,
          "midi": 69,
          "name": "A4",
          "ticks": 26100,
          "time": 145.00007250000002,
          "velocity": 0.7874015748031497
        },
        {
          "duration": 0.08333337499999516,
          "durationTicks": 15,
          "midi": 69,
          "name": "A4",
          "ticks": 26130,
          "time": 145.16673925,
          "velocity": 0.7874015748031497
        },
        {
          "duration": 0.08333337499999516,
          "durationTicks": 15,
          "midi": 38,
          "name": "D2",
          "ticks": 26280,
          "time": 146.00007300000001,
          "velocity": 0.7874015748031497
        },
        {
          "duration": 0.08333337499999516,
          "durationTicks": 15,
          "midi": 36,
          "name": "C2",
          "ticks": 26400,
          "time": 146.66674,
          "velocity": 0.7874015748031497
        },
        {
          "duration": 0.08333337499999516,
          "durationTicks": 15,
          "midi": 36,
          "name": "C2",
          "ticks": 26490,
          "time": 147.16674025,
          "velocity": 0.7874015748031497
        },
        {
          "duration": 0.08333337499999516,
          "durationTicks": 15,
          "midi": 38,
          "name": "D2",
          "ticks": 26520,
          "time": 147.333407,
          "velocity": 0.7874015748031497
        },
        {
          "duration": 0.08333337500002358,
          "durationTicks": 15,
          "midi": 44,
          "name": "G#2",
          "ticks": 26880,
          "time": 149.333408,
          "velocity": 0.7874015748031497
        },
        {
          "duration": 0.08333337499999516,
          "durationTicks": 15,
          "midi": 36,
          "name": "C2",
          "ticks": 28320,
          "time": 157.333412,
          "velocity": 0.7874015748031497
        },
        {
          "duration": 0.08333337499999516,
          "durationTicks": 15,
          "midi": 42,
          "name": "F#2",
          "ticks": 28320,
          "time": 157.333412,
          "velocity": 0.7874015748031497
        },
        {
          "duration": 0.08333337499999516,
          "durationTicks": 15,
          "midi": 80,
          "name": "G#5",
          "ticks": 28320,
          "time": 157.333412,
          "velocity": 0.7874015748031497
        },
        {
          "duration": 0.08333337500002358,
          "durationTicks": 15,
          "midi": 38,
          "name": "D2",
          "ticks": 28380,
          "time": 157.6667455,
          "velocity": 0.7874015748031497
        },
        {
          "duration": 0.08333337500002358,
          "durationTicks": 15,
          "midi": 42,
          "name": "F#2",
          "ticks": 28380,
          "time": 157.6667455,
          "velocity": 0.7874015748031497
        },
        {
          "duration": 0.08333337500002358,
          "durationTicks": 15,
          "midi": 80,
          "name": "G#5",
          "ticks": 28380,
          "time": 157.6667455,
          "velocity": 0.7874015748031497
        },
        {
          "duration": 0.08333337499999516,
          "durationTicks": 15,
          "midi": 36,
          "name": "C2",
          "ticks": 28440,
          "time": 158.000079,
          "velocity": 0.7874015748031497
        },
        {
          "duration": 0.08333337499999516,
          "durationTicks": 15,
          "midi": 42,
          "name": "F#2",
          "ticks": 28440,
          "time": 158.000079,
          "velocity": 0.7874015748031497
        },
        {
          "duration": 0.08333337499999516,
          "durationTicks": 15,
          "midi": 80,
          "name": "G#5",
          "ticks": 28440,
          "time": 158.000079,
          "velocity": 0.7874015748031497
        },
        {
          "duration": 0.08333337499999516,
          "durationTicks": 15,
          "midi": 38,
          "name": "D2",
          "ticks": 28500,
          "time": 158.3334125,
          "velocity": 0.7874015748031497
        },
        {
          "duration": 0.08333337499999516,
          "durationTicks": 15,
          "midi": 42,
          "name": "F#2",
          "ticks": 28500,
          "time": 158.3334125,
          "velocity": 0.7874015748031497
        },
        {
          "duration": 0.08333337499999516,
          "durationTicks": 15,
          "midi": 80,
          "name": "G#5",
          "ticks": 28500,
          "time": 158.3334125,
          "velocity": 0.7874015748031497
        },
        {
          "duration": 0.08333337500002358,
          "durationTicks": 15,
          "midi": 36,
          "name": "C2",
          "ticks": 28560,
          "time": 158.666746,
          "velocity": 0.7874015748031497
        },
        {
          "duration": 0.08333337500002358,
          "durationTicks": 15,
          "midi": 42,
          "name": "F#2",
          "ticks": 28560,
          "time": 158.666746,
          "velocity": 0.7874015748031497
        },
        {
          "duration": 0.08333337500002358,
          "durationTicks": 15,
          "midi": 80,
          "name": "G#5",
          "ticks": 28560,
          "time": 158.666746,
          "velocity": 0.7874015748031497
        },
        {
          "duration": 0.08333337499999516,
          "durationTicks": 15,
          "midi": 38,
          "name": "D2",
          "ticks": 28620,
          "time": 159.0000795,
          "velocity": 0.7874015748031497
        },
        {
          "duration": 0.08333337499999516,
          "durationTicks": 15,
          "midi": 42,
          "name": "F#2",
          "ticks": 28620,
          "time": 159.0000795,
          "velocity": 0.7874015748031497
        },
        {
          "duration": 0.08333337499999516,
          "durationTicks": 15,
          "midi": 80,
          "name": "G#5",
          "ticks": 28620,
          "time": 159.0000795,
          "velocity": 0.7874015748031497
        },
        {
          "duration": 0.08333337499999516,
          "durationTicks": 15,
          "midi": 36,
          "name": "C2",
          "ticks": 28680,
          "time": 159.333413,
          "velocity": 0.7874015748031497
        },
        {
          "duration": 0.08333337499999516,
          "durationTicks": 15,
          "midi": 42,
          "name": "F#2",
          "ticks": 28680,
          "time": 159.333413,
          "velocity": 0.7874015748031497
        },
        {
          "duration": 0.08333337499999516,
          "durationTicks": 15,
          "midi": 80,
          "name": "G#5",
          "ticks": 28680,
          "time": 159.333413,
          "velocity": 0.7874015748031497
        },
        {
          "duration": 0.08333337499999516,
          "durationTicks": 15,
          "midi": 80,
          "name": "G#5",
          "ticks": 28740,
          "time": 159.66674650000002,
          "velocity": 0.7874015748031497
        },
        {
          "duration": 0.08333337499999516,
          "durationTicks": 15,
          "midi": 42,
          "name": "F#2",
          "ticks": 28740,
          "time": 159.66674650000002,
          "velocity": 0.7874015748031497
        },
        {
          "duration": 0.08333337499999516,
          "durationTicks": 15,
          "midi": 38,
          "name": "D2",
          "ticks": 28740,
          "time": 159.66674650000002,
          "velocity": 0.7874015748031497
        },
        {
          "duration": 0.08333337499999516,
          "durationTicks": 15,
          "midi": 36,
          "name": "C2",
          "ticks": 28800,
          "time": 160.00008,
          "velocity": 0.7874015748031497
        },
        {
          "duration": 0.08333337499999516,
          "durationTicks": 15,
          "midi": 80,
          "name": "G#5",
          "ticks": 28800,
          "time": 160.00008,
          "velocity": 0.7874015748031497
        },
        {
          "duration": 0.08333337499999516,
          "durationTicks": 15,
          "midi": 42,
          "name": "F#2",
          "ticks": 28800,
          "time": 160.00008,
          "velocity": 0.7874015748031497
        },
        {
          "duration": 0.08333337499999516,
          "durationTicks": 15,
          "midi": 36,
          "name": "C2",
          "ticks": 28830,
          "time": 160.16674675000002,
          "velocity": 0.7874015748031497
        },
        {
          "duration": 0.08333337499999516,
          "durationTicks": 15,
          "midi": 80,
          "name": "G#5",
          "ticks": 28860,
          "time": 160.3334135,
          "velocity": 0.7874015748031497
        },
        {
          "duration": 0.08333337499999516,
          "durationTicks": 15,
          "midi": 42,
          "name": "F#2",
          "ticks": 28860,
          "time": 160.3334135,
          "velocity": 0.7874015748031497
        },
        {
          "duration": 0.08333337499999516,
          "durationTicks": 15,
          "midi": 36,
          "name": "C2",
          "ticks": 28890,
          "time": 160.50008025,
          "velocity": 0.7874015748031497
        },
        {
          "duration": 0.08333337499999516,
          "durationTicks": 15,
          "midi": 38,
          "name": "D2",
          "ticks": 28920,
          "time": 160.66674700000002,
          "velocity": 0.7874015748031497
        },
        {
          "duration": 0.08333337499999516,
          "durationTicks": 15,
          "midi": 80,
          "name": "G#5",
          "ticks": 28920,
          "time": 160.66674700000002,
          "velocity": 0.7874015748031497
        },
        {
          "duration": 0.08333337499999516,
          "durationTicks": 15,
          "midi": 42,
          "name": "F#2",
          "ticks": 28920,
          "time": 160.66674700000002,
          "velocity": 0.7874015748031497
        },
        {
          "duration": 0.08333337499999516,
          "durationTicks": 15,
          "midi": 80,
          "name": "G#5",
          "ticks": 28980,
          "time": 161.0000805,
          "velocity": 0.7874015748031497
        },
        {
          "duration": 0.08333337499999516,
          "durationTicks": 15,
          "midi": 42,
          "name": "F#2",
          "ticks": 28980,
          "time": 161.0000805,
          "velocity": 0.7874015748031497
        },
        {
          "duration": 0.08333337499999516,
          "durationTicks": 15,
          "midi": 36,
          "name": "C2",
          "ticks": 29040,
          "time": 161.333414,
          "velocity": 0.7874015748031497
        },
        {
          "duration": 0.08333337499999516,
          "durationTicks": 15,
          "midi": 80,
          "name": "G#5",
          "ticks": 29040,
          "time": 161.333414,
          "velocity": 0.7874015748031497
        },
        {
          "duration": 0.08333337499999516,
          "durationTicks": 15,
          "midi": 42,
          "name": "F#2",
          "ticks": 29040,
          "time": 161.333414,
          "velocity": 0.7874015748031497
        },
        {
          "duration": 0.08333337499999516,
          "durationTicks": 15,
          "midi": 36,
          "name": "C2",
          "ticks": 29100,
          "time": 161.6667475,
          "velocity": 0.7874015748031497
        },
        {
          "duration": 0.08333337499999516,
          "durationTicks": 15,
          "midi": 80,
          "name": "G#5",
          "ticks": 29100,
          "time": 161.6667475,
          "velocity": 0.7874015748031497
        },
        {
          "duration": 0.08333337499999516,
          "durationTicks": 15,
          "midi": 42,
          "name": "F#2",
          "ticks": 29100,
          "time": 161.6667475,
          "velocity": 0.7874015748031497
        },
        {
          "duration": 0.08333337499999516,
          "durationTicks": 15,
          "midi": 80,
          "name": "G#5",
          "ticks": 29160,
          "time": 162.000081,
          "velocity": 0.7874015748031497
        },
        {
          "duration": 0.08333337499999516,
          "durationTicks": 15,
          "midi": 38,
          "name": "D2",
          "ticks": 29160,
          "time": 162.000081,
          "velocity": 0.7874015748031497
        },
        {
          "duration": 0.08333337499999516,
          "durationTicks": 15,
          "midi": 42,
          "name": "F#2",
          "ticks": 29160,
          "time": 162.000081,
          "velocity": 0.7874015748031497
        },
        {
          "duration": 0.08333337499999516,
          "durationTicks": 15,
          "midi": 80,
          "name": "G#5",
          "ticks": 29220,
          "time": 162.3334145,
          "velocity": 0.7874015748031497
        },
        {
          "duration": 0.08333337499999516,
          "durationTicks": 15,
          "midi": 42,
          "name": "F#2",
          "ticks": 29220,
          "time": 162.3334145,
          "velocity": 0.7874015748031497
        },
        {
          "duration": 0.08333337499999516,
          "durationTicks": 15,
          "midi": 80,
          "name": "G#5",
          "ticks": 29280,
          "time": 162.666748,
          "velocity": 0.7874015748031497
        },
        {
          "duration": 0.08333337499999516,
          "durationTicks": 15,
          "midi": 36,
          "name": "C2",
          "ticks": 29280,
          "time": 162.666748,
          "velocity": 0.7874015748031497
        },
        {
          "duration": 0.08333337499999516,
          "durationTicks": 15,
          "midi": 42,
          "name": "F#2",
          "ticks": 29280,
          "time": 162.666748,
          "velocity": 0.7874015748031497
        },
        {
          "duration": 0.08333337499999516,
          "durationTicks": 15,
          "midi": 80,
          "name": "G#5",
          "ticks": 29340,
          "time": 163.0000815,
          "velocity": 0.7874015748031497
        },
        {
          "duration": 0.08333337499999516,
          "durationTicks": 15,
          "midi": 42,
          "name": "F#2",
          "ticks": 29340,
          "time": 163.0000815,
          "velocity": 0.7874015748031497
        },
        {
          "duration": 0.08333337499999516,
          "durationTicks": 15,
          "midi": 36,
          "name": "C2",
          "ticks": 29370,
          "time": 163.16674825,
          "velocity": 0.7874015748031497
        },
        {
          "duration": 0.08333337499999516,
          "durationTicks": 15,
          "midi": 80,
          "name": "G#5",
          "ticks": 29400,
          "time": 163.333415,
          "velocity": 0.7874015748031497
        },
        {
          "duration": 0.08333337499999516,
          "durationTicks": 15,
          "midi": 38,
          "name": "D2",
          "ticks": 29400,
          "time": 163.333415,
          "velocity": 0.7874015748031497
        },
        {
          "duration": 0.08333337499999516,
          "durationTicks": 15,
          "midi": 42,
          "name": "F#2",
          "ticks": 29400,
          "time": 163.333415,
          "velocity": 0.7874015748031497
        },
        {
          "duration": 0.08333337499999516,
          "durationTicks": 15,
          "midi": 80,
          "name": "G#5",
          "ticks": 29460,
          "time": 163.6667485,
          "velocity": 0.7874015748031497
        },
        {
          "duration": 0.08333337499999516,
          "durationTicks": 15,
          "midi": 42,
          "name": "F#2",
          "ticks": 29460,
          "time": 163.6667485,
          "velocity": 0.7874015748031497
        },
        {
          "duration": 0.08333337500002358,
          "durationTicks": 15,
          "midi": 80,
          "name": "G#5",
          "ticks": 29520,
          "time": 164.000082,
          "velocity": 0.7874015748031497
        },
        {
          "duration": 0.08333337500002358,
          "durationTicks": 15,
          "midi": 36,
          "name": "C2",
          "ticks": 29520,
          "time": 164.000082,
          "velocity": 0.7874015748031497
        },
        {
          "duration": 0.08333337500002358,
          "durationTicks": 15,
          "midi": 42,
          "name": "F#2",
          "ticks": 29520,
          "time": 164.000082,
          "velocity": 0.7874015748031497
        },
        {
          "duration": 0.08333337499999516,
          "durationTicks": 15,
          "midi": 80,
          "name": "G#5",
          "ticks": 29580,
          "time": 164.3334155,
          "velocity": 0.7874015748031497
        },
        {
          "duration": 0.08333337499999516,
          "durationTicks": 15,
          "midi": 36,
          "name": "C2",
          "ticks": 29580,
          "time": 164.3334155,
          "velocity": 0.7874015748031497
        },
        {
          "duration": 0.08333337499999516,
          "durationTicks": 15,
          "midi": 42,
          "name": "F#2",
          "ticks": 29580,
          "time": 164.3334155,
          "velocity": 0.7874015748031497
        },
        {
          "duration": 0.08333337499999516,
          "durationTicks": 15,
          "midi": 80,
          "name": "G#5",
          "ticks": 29640,
          "time": 164.666749,
          "velocity": 0.7874015748031497
        },
        {
          "duration": 0.08333337499999516,
          "durationTicks": 15,
          "midi": 38,
          "name": "D2",
          "ticks": 29640,
          "time": 164.666749,
          "velocity": 0.7874015748031497
        },
        {
          "duration": 0.08333337499999516,
          "durationTicks": 15,
          "midi": 42,
          "name": "F#2",
          "ticks": 29640,
          "time": 164.666749,
          "velocity": 0.7874015748031497
        },
        {
          "duration": 0.08333337500002358,
          "durationTicks": 15,
          "midi": 80,
          "name": "G#5",
          "ticks": 29700,
          "time": 165.0000825,
          "velocity": 0.7874015748031497
        },
        {
          "duration": 0.08333337500002358,
          "durationTicks": 15,
          "midi": 42,
          "name": "F#2",
          "ticks": 29700,
          "time": 165.0000825,
          "velocity": 0.7874015748031497
        },
        {
          "duration": 0.08333337499999516,
          "durationTicks": 15,
          "midi": 80,
          "name": "G#5",
          "ticks": 29760,
          "time": 165.333416,
          "velocity": 0.7874015748031497
        },
        {
          "duration": 0.08333337499999516,
          "durationTicks": 15,
          "midi": 36,
          "name": "C2",
          "ticks": 29760,
          "time": 165.333416,
          "velocity": 0.7874015748031497
        },
        {
          "duration": 0.08333337499999516,
          "durationTicks": 15,
          "midi": 42,
          "name": "F#2",
          "ticks": 29760,
          "time": 165.333416,
          "velocity": 0.7874015748031497
        },
        {
          "duration": 0.08333337499999516,
          "durationTicks": 15,
          "midi": 80,
          "name": "G#5",
          "ticks": 29820,
          "time": 165.6667495,
          "velocity": 0.7874015748031497
        },
        {
          "duration": 0.08333337499999516,
          "durationTicks": 15,
          "midi": 42,
          "name": "F#2",
          "ticks": 29820,
          "time": 165.6667495,
          "velocity": 0.7874015748031497
        },
        {
          "duration": 0.08333337499999516,
          "durationTicks": 15,
          "midi": 36,
          "name": "C2",
          "ticks": 29850,
          "time": 165.83341625,
          "velocity": 0.7874015748031497
        },
        {
          "duration": 0.08333337500002358,
          "durationTicks": 15,
          "midi": 38,
          "name": "D2",
          "ticks": 29880,
          "time": 166.000083,
          "velocity": 0.7874015748031497
        },
        {
          "duration": 0.08333337500002358,
          "durationTicks": 15,
          "midi": 80,
          "name": "G#5",
          "ticks": 29880,
          "time": 166.000083,
          "velocity": 0.7874015748031497
        },
        {
          "duration": 0.08333337500002358,
          "durationTicks": 15,
          "midi": 42,
          "name": "F#2",
          "ticks": 29880,
          "time": 166.000083,
          "velocity": 0.7874015748031497
        },
        {
          "duration": 0.08333337499999516,
          "durationTicks": 15,
          "midi": 80,
          "name": "G#5",
          "ticks": 29940,
          "time": 166.3334165,
          "velocity": 0.7874015748031497
        },
        {
          "duration": 0.08333337499999516,
          "durationTicks": 15,
          "midi": 42,
          "name": "F#2",
          "ticks": 29940,
          "time": 166.3334165,
          "velocity": 0.7874015748031497
        },
        {
          "duration": 0.08333337499999516,
          "durationTicks": 15,
          "midi": 80,
          "name": "G#5",
          "ticks": 30000,
          "time": 166.66675,
          "velocity": 0.7874015748031497
        },
        {
          "duration": 0.08333337499999516,
          "durationTicks": 15,
          "midi": 36,
          "name": "C2",
          "ticks": 30000,
          "time": 166.66675,
          "velocity": 0.7874015748031497
        },
        {
          "duration": 0.08333337499999516,
          "durationTicks": 15,
          "midi": 42,
          "name": "F#2",
          "ticks": 30000,
          "time": 166.66675,
          "velocity": 0.7874015748031497
        },
        {
          "duration": 0.08333337499999516,
          "durationTicks": 15,
          "midi": 80,
          "name": "G#5",
          "ticks": 30060,
          "time": 167.00008350000002,
          "velocity": 0.7874015748031497
        },
        {
          "duration": 0.08333337499999516,
          "durationTicks": 15,
          "midi": 42,
          "name": "F#2",
          "ticks": 30060,
          "time": 167.00008350000002,
          "velocity": 0.7874015748031497
        },
        {
          "duration": 0.08333337499999516,
          "durationTicks": 15,
          "midi": 36,
          "name": "C2",
          "ticks": 30060,
          "time": 167.00008350000002,
          "velocity": 0.7874015748031497
        },
        {
          "duration": 0.08333337499999516,
          "durationTicks": 15,
          "midi": 38,
          "name": "D2",
          "ticks": 30120,
          "time": 167.333417,
          "velocity": 0.7874015748031497
        },
        {
          "duration": 0.08333337499999516,
          "durationTicks": 15,
          "midi": 80,
          "name": "G#5",
          "ticks": 30120,
          "time": 167.333417,
          "velocity": 0.7874015748031497
        },
        {
          "duration": 0.08333337499999516,
          "durationTicks": 15,
          "midi": 42,
          "name": "F#2",
          "ticks": 30120,
          "time": 167.333417,
          "velocity": 0.7874015748031497
        },
        {
          "duration": 0.08333337499999516,
          "durationTicks": 15,
          "midi": 80,
          "name": "G#5",
          "ticks": 30180,
          "time": 167.6667505,
          "velocity": 0.7874015748031497
        },
        {
          "duration": 0.08333337499999516,
          "durationTicks": 15,
          "midi": 42,
          "name": "F#2",
          "ticks": 30180,
          "time": 167.6667505,
          "velocity": 0.7874015748031497
        },
        {
          "duration": 0.08333337499999516,
          "durationTicks": 15,
          "midi": 80,
          "name": "G#5",
          "ticks": 30240,
          "time": 168.00008400000002,
          "velocity": 0.7874015748031497
        },
        {
          "duration": 0.08333337499999516,
          "durationTicks": 15,
          "midi": 42,
          "name": "F#2",
          "ticks": 30240,
          "time": 168.00008400000002,
          "velocity": 0.7874015748031497
        },
        {
          "duration": 0.08333337499999516,
          "durationTicks": 15,
          "midi": 36,
          "name": "C2",
          "ticks": 30240,
          "time": 168.00008400000002,
          "velocity": 0.7874015748031497
        },
        {
          "duration": 0.08333337499999516,
          "durationTicks": 15,
          "midi": 80,
          "name": "G#5",
          "ticks": 30300,
          "time": 168.3334175,
          "velocity": 0.7874015748031497
        },
        {
          "duration": 0.08333337499999516,
          "durationTicks": 15,
          "midi": 42,
          "name": "F#2",
          "ticks": 30300,
          "time": 168.3334175,
          "velocity": 0.7874015748031497
        },
        {
          "duration": 0.08333337499999516,
          "durationTicks": 15,
          "midi": 36,
          "name": "C2",
          "ticks": 30330,
          "time": 168.50008425000001,
          "velocity": 0.7874015748031497
        },
        {
          "duration": 0.08333337499999516,
          "durationTicks": 15,
          "midi": 80,
          "name": "G#5",
          "ticks": 30360,
          "time": 168.666751,
          "velocity": 0.7874015748031497
        },
        {
          "duration": 0.08333337499999516,
          "durationTicks": 15,
          "midi": 42,
          "name": "F#2",
          "ticks": 30360,
          "time": 168.666751,
          "velocity": 0.7874015748031497
        },
        {
          "duration": 0.08333337499999516,
          "durationTicks": 15,
          "midi": 38,
          "name": "D2",
          "ticks": 30360,
          "time": 168.666751,
          "velocity": 0.7874015748031497
        },
        {
          "duration": 0.08333337499999516,
          "durationTicks": 15,
          "midi": 80,
          "name": "G#5",
          "ticks": 30420,
          "time": 169.0000845,
          "velocity": 0.7874015748031497
        },
        {
          "duration": 0.08333337499999516,
          "durationTicks": 15,
          "midi": 42,
          "name": "F#2",
          "ticks": 30420,
          "time": 169.0000845,
          "velocity": 0.7874015748031497
        },
        {
          "duration": 0.08333337499999516,
          "durationTicks": 15,
          "midi": 80,
          "name": "G#5",
          "ticks": 30480,
          "time": 169.333418,
          "velocity": 0.7874015748031497
        },
        {
          "duration": 0.08333337499999516,
          "durationTicks": 15,
          "midi": 42,
          "name": "F#2",
          "ticks": 30480,
          "time": 169.333418,
          "velocity": 0.7874015748031497
        },
        {
          "duration": 0.08333337499999516,
          "durationTicks": 15,
          "midi": 36,
          "name": "C2",
          "ticks": 30480,
          "time": 169.333418,
          "velocity": 0.7874015748031497
        },
        {
          "duration": 0.08333337499999516,
          "durationTicks": 15,
          "midi": 80,
          "name": "G#5",
          "ticks": 30540,
          "time": 169.6667515,
          "velocity": 0.7874015748031497
        },
        {
          "duration": 0.08333337499999516,
          "durationTicks": 15,
          "midi": 42,
          "name": "F#2",
          "ticks": 30540,
          "time": 169.6667515,
          "velocity": 0.7874015748031497
        },
        {
          "duration": 0.08333337499999516,
          "durationTicks": 15,
          "midi": 36,
          "name": "C2",
          "ticks": 30570,
          "time": 169.83341825,
          "velocity": 0.7874015748031497
        },
        {
          "duration": 0.08333337499999516,
          "durationTicks": 15,
          "midi": 80,
          "name": "G#5",
          "ticks": 30600,
          "time": 170.000085,
          "velocity": 0.7874015748031497
        },
        {
          "duration": 0.08333337499999516,
          "durationTicks": 15,
          "midi": 42,
          "name": "F#2",
          "ticks": 30600,
          "time": 170.000085,
          "velocity": 0.7874015748031497
        },
        {
          "duration": 0.08333337499999516,
          "durationTicks": 15,
          "midi": 38,
          "name": "D2",
          "ticks": 30600,
          "time": 170.000085,
          "velocity": 0.7874015748031497
        },
        {
          "duration": 0.08333337499999516,
          "durationTicks": 15,
          "midi": 80,
          "name": "G#5",
          "ticks": 30660,
          "time": 170.3334185,
          "velocity": 0.7874015748031497
        },
        {
          "duration": 0.08333337499999516,
          "durationTicks": 15,
          "midi": 42,
          "name": "F#2",
          "ticks": 30660,
          "time": 170.3334185,
          "velocity": 0.7874015748031497
        },
        {
          "duration": 0.08333337499999516,
          "durationTicks": 15,
          "midi": 36,
          "name": "C2",
          "ticks": 30660,
          "time": 170.3334185,
          "velocity": 0.7874015748031497
        },
        {
          "duration": 0.08333337499999516,
          "durationTicks": 15,
          "midi": 36,
          "name": "C2",
          "ticks": 30720,
          "time": 170.666752,
          "velocity": 0.7874015748031497
        },
        {
          "duration": 0.08333337499999516,
          "durationTicks": 15,
          "midi": 80,
          "name": "G#5",
          "ticks": 30720,
          "time": 170.666752,
          "velocity": 0.7874015748031497
        },
        {
          "duration": 0.08333337499999516,
          "durationTicks": 15,
          "midi": 42,
          "name": "F#2",
          "ticks": 30720,
          "time": 170.666752,
          "velocity": 0.7874015748031497
        },
        {
          "duration": 0.08333337500002358,
          "durationTicks": 15,
          "midi": 36,
          "name": "C2",
          "ticks": 30750,
          "time": 170.83341875,
          "velocity": 0.7874015748031497
        },
        {
          "duration": 0.08333337499999516,
          "durationTicks": 15,
          "midi": 80,
          "name": "G#5",
          "ticks": 30780,
          "time": 171.0000855,
          "velocity": 0.7874015748031497
        },
        {
          "duration": 0.08333337499999516,
          "durationTicks": 15,
          "midi": 42,
          "name": "F#2",
          "ticks": 30780,
          "time": 171.0000855,
          "velocity": 0.7874015748031497
        },
        {
          "duration": 0.08333337499999516,
          "durationTicks": 15,
          "midi": 36,
          "name": "C2",
          "ticks": 30810,
          "time": 171.16675225,
          "velocity": 0.7874015748031497
        },
        {
          "duration": 0.08333337500002358,
          "durationTicks": 15,
          "midi": 38,
          "name": "D2",
          "ticks": 30840,
          "time": 171.333419,
          "velocity": 0.7874015748031497
        },
        {
          "duration": 0.08333337500002358,
          "durationTicks": 15,
          "midi": 80,
          "name": "G#5",
          "ticks": 30840,
          "time": 171.333419,
          "velocity": 0.7874015748031497
        },
        {
          "duration": 0.08333337500002358,
          "durationTicks": 15,
          "midi": 42,
          "name": "F#2",
          "ticks": 30840,
          "time": 171.333419,
          "velocity": 0.7874015748031497
        },
        {
          "duration": 0.08333337499999516,
          "durationTicks": 15,
          "midi": 80,
          "name": "G#5",
          "ticks": 30900,
          "time": 171.6667525,
          "velocity": 0.7874015748031497
        },
        {
          "duration": 0.08333337499999516,
          "durationTicks": 15,
          "midi": 42,
          "name": "F#2",
          "ticks": 30900,
          "time": 171.6667525,
          "velocity": 0.7874015748031497
        },
        {
          "duration": 0.08333337499999516,
          "durationTicks": 15,
          "midi": 36,
          "name": "C2",
          "ticks": 30960,
          "time": 172.000086,
          "velocity": 0.7874015748031497
        },
        {
          "duration": 0.08333337499999516,
          "durationTicks": 15,
          "midi": 80,
          "name": "G#5",
          "ticks": 30960,
          "time": 172.000086,
          "velocity": 0.7874015748031497
        },
        {
          "duration": 0.08333337499999516,
          "durationTicks": 15,
          "midi": 42,
          "name": "F#2",
          "ticks": 30960,
          "time": 172.000086,
          "velocity": 0.7874015748031497
        },
        {
          "duration": 0.08333337500002358,
          "durationTicks": 15,
          "midi": 36,
          "name": "C2",
          "ticks": 31020,
          "time": 172.3334195,
          "velocity": 0.7874015748031497
        },
        {
          "duration": 0.08333337500002358,
          "durationTicks": 15,
          "midi": 80,
          "name": "G#5",
          "ticks": 31020,
          "time": 172.3334195,
          "velocity": 0.7874015748031497
        },
        {
          "duration": 0.08333337500002358,
          "durationTicks": 15,
          "midi": 42,
          "name": "F#2",
          "ticks": 31020,
          "time": 172.3334195,
          "velocity": 0.7874015748031497
        },
        {
          "duration": 0.08333337499999516,
          "durationTicks": 15,
          "midi": 80,
          "name": "G#5",
          "ticks": 31080,
          "time": 172.666753,
          "velocity": 0.7874015748031497
        },
        {
          "duration": 0.08333337499999516,
          "durationTicks": 15,
          "midi": 38,
          "name": "D2",
          "ticks": 31080,
          "time": 172.666753,
          "velocity": 0.7874015748031497
        },
        {
          "duration": 0.08333337499999516,
          "durationTicks": 15,
          "midi": 42,
          "name": "F#2",
          "ticks": 31080,
          "time": 172.666753,
          "velocity": 0.7874015748031497
        },
        {
          "duration": 0.08333337499999516,
          "durationTicks": 15,
          "midi": 80,
          "name": "G#5",
          "ticks": 31140,
          "time": 173.0000865,
          "velocity": 0.7874015748031497
        },
        {
          "duration": 0.08333337499999516,
          "durationTicks": 15,
          "midi": 42,
          "name": "F#2",
          "ticks": 31140,
          "time": 173.0000865,
          "velocity": 0.7874015748031497
        },
        {
          "duration": 0.08333337499999516,
          "durationTicks": 15,
          "midi": 38,
          "name": "D2",
          "ticks": 31170,
          "time": 173.16675325,
          "velocity": 0.7874015748031497
        },
        {
          "duration": 0.08333337500002358,
          "durationTicks": 15,
          "midi": 80,
          "name": "G#5",
          "ticks": 31200,
          "time": 173.33342,
          "velocity": 0.7874015748031497
        },
        {
          "duration": 0.08333337500002358,
          "durationTicks": 15,
          "midi": 36,
          "name": "C2",
          "ticks": 31200,
          "time": 173.33342,
          "velocity": 0.7874015748031497
        },
        {
          "duration": 0.08333337500002358,
          "durationTicks": 15,
          "midi": 42,
          "name": "F#2",
          "ticks": 31200,
          "time": 173.33342,
          "velocity": 0.7874015748031497
        },
        {
          "duration": 0.08333337499999516,
          "durationTicks": 15,
          "midi": 80,
          "name": "G#5",
          "ticks": 31260,
          "time": 173.6667535,
          "velocity": 0.7874015748031497
        },
        {
          "duration": 0.08333337499999516,
          "durationTicks": 15,
          "midi": 42,
          "name": "F#2",
          "ticks": 31260,
          "time": 173.6667535,
          "velocity": 0.7874015748031497
        },
        {
          "duration": 0.08333337500002358,
          "durationTicks": 15,
          "midi": 36,
          "name": "C2",
          "ticks": 31290,
          "time": 173.83342025,
          "velocity": 0.7874015748031497
        },
        {
          "duration": 0.08333337499999516,
          "durationTicks": 15,
          "midi": 80,
          "name": "G#5",
          "ticks": 31320,
          "time": 174.000087,
          "velocity": 0.7874015748031497
        },
        {
          "duration": 0.08333337499999516,
          "durationTicks": 15,
          "midi": 38,
          "name": "D2",
          "ticks": 31320,
          "time": 174.000087,
          "velocity": 0.7874015748031497
        },
        {
          "duration": 0.08333337499999516,
          "durationTicks": 15,
          "midi": 42,
          "name": "F#2",
          "ticks": 31320,
          "time": 174.000087,
          "velocity": 0.7874015748031497
        },
        {
          "duration": 0.08333337499999516,
          "durationTicks": 15,
          "midi": 80,
          "name": "G#5",
          "ticks": 31680,
          "time": 176.000088,
          "velocity": 0.7874015748031497
        },
        {
          "duration": 0.08333337499999516,
          "durationTicks": 15,
          "midi": 36,
          "name": "C2",
          "ticks": 31680,
          "time": 176.000088,
          "velocity": 0.7874015748031497
        },
        {
          "duration": 0.08333337499999516,
          "durationTicks": 15,
          "midi": 42,
          "name": "F#2",
          "ticks": 31680,
          "time": 176.000088,
          "velocity": 0.7874015748031497
        },
        {
          "duration": 0.08333337499999516,
          "durationTicks": 15,
          "midi": 80,
          "name": "G#5",
          "ticks": 31740,
          "time": 176.33342150000001,
          "velocity": 0.7874015748031497
        },
        {
          "duration": 0.08333337499999516,
          "durationTicks": 15,
          "midi": 42,
          "name": "F#2",
          "ticks": 31740,
          "time": 176.33342150000001,
          "velocity": 0.7874015748031497
        },
        {
          "duration": 0.08333337499999516,
          "durationTicks": 15,
          "midi": 36,
          "name": "C2",
          "ticks": 31770,
          "time": 176.50008825,
          "velocity": 0.7874015748031497
        },
        {
          "duration": 0.08333337499999516,
          "durationTicks": 15,
          "midi": 38,
          "name": "D2",
          "ticks": 31800,
          "time": 176.666755,
          "velocity": 0.7874015748031497
        },
        {
          "duration": 0.08333337499999516,
          "durationTicks": 15,
          "midi": 80,
          "name": "G#5",
          "ticks": 31800,
          "time": 176.666755,
          "velocity": 0.7874015748031497
        },
        {
          "duration": 0.08333337499999516,
          "durationTicks": 15,
          "midi": 42,
          "name": "F#2",
          "ticks": 31800,
          "time": 176.666755,
          "velocity": 0.7874015748031497
        },
        {
          "duration": 0.08333337499999516,
          "durationTicks": 15,
          "midi": 80,
          "name": "G#5",
          "ticks": 31860,
          "time": 177.0000885,
          "velocity": 0.7874015748031497
        },
        {
          "duration": 0.08333337499999516,
          "durationTicks": 15,
          "midi": 42,
          "name": "F#2",
          "ticks": 31860,
          "time": 177.0000885,
          "velocity": 0.7874015748031497
        },
        {
          "duration": 0.08333337499999516,
          "durationTicks": 15,
          "midi": 80,
          "name": "G#5",
          "ticks": 31920,
          "time": 177.333422,
          "velocity": 0.7874015748031497
        },
        {
          "duration": 0.08333337499999516,
          "durationTicks": 15,
          "midi": 36,
          "name": "C2",
          "ticks": 31920,
          "time": 177.333422,
          "velocity": 0.7874015748031497
        },
        {
          "duration": 0.08333337499999516,
          "durationTicks": 15,
          "midi": 42,
          "name": "F#2",
          "ticks": 31920,
          "time": 177.333422,
          "velocity": 0.7874015748031497
        },
        {
          "duration": 0.08333337499999516,
          "durationTicks": 15,
          "midi": 80,
          "name": "G#5",
          "ticks": 31980,
          "time": 177.6667555,
          "velocity": 0.7874015748031497
        },
        {
          "duration": 0.08333337499999516,
          "durationTicks": 15,
          "midi": 42,
          "name": "F#2",
          "ticks": 31980,
          "time": 177.6667555,
          "velocity": 0.7874015748031497
        },
        {
          "duration": 0.08333337499999516,
          "durationTicks": 15,
          "midi": 36,
          "name": "C2",
          "ticks": 31980,
          "time": 177.6667555,
          "velocity": 0.7874015748031497
        },
        {
          "duration": 0.08333337499999516,
          "durationTicks": 15,
          "midi": 38,
          "name": "D2",
          "ticks": 32040,
          "time": 178.000089,
          "velocity": 0.7874015748031497
        },
        {
          "duration": 0.08333337499999516,
          "durationTicks": 15,
          "midi": 80,
          "name": "G#5",
          "ticks": 32040,
          "time": 178.000089,
          "velocity": 0.7874015748031497
        },
        {
          "duration": 0.08333337499999516,
          "durationTicks": 15,
          "midi": 42,
          "name": "F#2",
          "ticks": 32040,
          "time": 178.000089,
          "velocity": 0.7874015748031497
        },
        {
          "duration": 0.08333337499999516,
          "durationTicks": 15,
          "midi": 80,
          "name": "G#5",
          "ticks": 32100,
          "time": 178.3334225,
          "velocity": 0.7874015748031497
        },
        {
          "duration": 0.08333337499999516,
          "durationTicks": 15,
          "midi": 42,
          "name": "F#2",
          "ticks": 32100,
          "time": 178.3334225,
          "velocity": 0.7874015748031497
        },
        {
          "duration": 0.08333337500002358,
          "durationTicks": 15,
          "midi": 80,
          "name": "G#5",
          "ticks": 32160,
          "time": 178.666756,
          "velocity": 0.7874015748031497
        },
        {
          "duration": 0.08333337500002358,
          "durationTicks": 15,
          "midi": 42,
          "name": "F#2",
          "ticks": 32160,
          "time": 178.666756,
          "velocity": 0.7874015748031497
        },
        {
          "duration": 0.08333337500002358,
          "durationTicks": 15,
          "midi": 36,
          "name": "C2",
          "ticks": 32160,
          "time": 178.666756,
          "velocity": 0.7874015748031497
        },
        {
          "duration": 0.08333337499999516,
          "durationTicks": 15,
          "midi": 80,
          "name": "G#5",
          "ticks": 32220,
          "time": 179.0000895,
          "velocity": 0.7874015748031497
        },
        {
          "duration": 0.08333337499999516,
          "durationTicks": 15,
          "midi": 42,
          "name": "F#2",
          "ticks": 32220,
          "time": 179.0000895,
          "velocity": 0.7874015748031497
        },
        {
          "duration": 0.08333337500002358,
          "durationTicks": 15,
          "midi": 36,
          "name": "C2",
          "ticks": 32250,
          "time": 179.16675625,
          "velocity": 0.7874015748031497
        },
        {
          "duration": 0.08333337499999516,
          "durationTicks": 15,
          "midi": 80,
          "name": "G#5",
          "ticks": 32280,
          "time": 179.333423,
          "velocity": 0.7874015748031497
        },
        {
          "duration": 0.08333337499999516,
          "durationTicks": 15,
          "midi": 42,
          "name": "F#2",
          "ticks": 32280,
          "time": 179.333423,
          "velocity": 0.7874015748031497
        },
        {
          "duration": 0.08333337499999516,
          "durationTicks": 15,
          "midi": 38,
          "name": "D2",
          "ticks": 32280,
          "time": 179.333423,
          "velocity": 0.7874015748031497
        },
        {
          "duration": 0.08333337500002358,
          "durationTicks": 15,
          "midi": 80,
          "name": "G#5",
          "ticks": 32340,
          "time": 179.6667565,
          "velocity": 0.7874015748031497
        },
        {
          "duration": 0.08333337500002358,
          "durationTicks": 15,
          "midi": 42,
          "name": "F#2",
          "ticks": 32340,
          "time": 179.6667565,
          "velocity": 0.7874015748031497
        },
        {
          "duration": 0.08333337499999516,
          "durationTicks": 15,
          "midi": 80,
          "name": "G#5",
          "ticks": 32400,
          "time": 180.00009,
          "velocity": 0.7874015748031497
        },
        {
          "duration": 0.08333337499999516,
          "durationTicks": 15,
          "midi": 42,
          "name": "F#2",
          "ticks": 32400,
          "time": 180.00009,
          "velocity": 0.7874015748031497
        },
        {
          "duration": 0.08333337499999516,
          "durationTicks": 15,
          "midi": 36,
          "name": "C2",
          "ticks": 32400,
          "time": 180.00009,
          "velocity": 0.7874015748031497
        },
        {
          "duration": 0.08333337499999516,
          "durationTicks": 15,
          "midi": 80,
          "name": "G#5",
          "ticks": 32460,
          "time": 180.3334235,
          "velocity": 0.7874015748031497
        },
        {
          "duration": 0.08333337499999516,
          "durationTicks": 15,
          "midi": 42,
          "name": "F#2",
          "ticks": 32460,
          "time": 180.3334235,
          "velocity": 0.7874015748031497
        },
        {
          "duration": 0.08333337499999516,
          "durationTicks": 15,
          "midi": 36,
          "name": "C2",
          "ticks": 32490,
          "time": 180.50009025,
          "velocity": 0.7874015748031497
        },
        {
          "duration": 0.08333337500002358,
          "durationTicks": 15,
          "midi": 80,
          "name": "G#5",
          "ticks": 32520,
          "time": 180.666757,
          "velocity": 0.7874015748031497
        },
        {
          "duration": 0.08333337500002358,
          "durationTicks": 15,
          "midi": 42,
          "name": "F#2",
          "ticks": 32520,
          "time": 180.666757,
          "velocity": 0.7874015748031497
        },
        {
          "duration": 0.08333337500002358,
          "durationTicks": 15,
          "midi": 38,
          "name": "D2",
          "ticks": 32520,
          "time": 180.666757,
          "velocity": 0.7874015748031497
        },
        {
          "duration": 0.08333337499999516,
          "durationTicks": 15,
          "midi": 80,
          "name": "G#5",
          "ticks": 32580,
          "time": 181.0000905,
          "velocity": 0.7874015748031497
        },
        {
          "duration": 0.08333337499999516,
          "durationTicks": 15,
          "midi": 42,
          "name": "F#2",
          "ticks": 32580,
          "time": 181.0000905,
          "velocity": 0.7874015748031497
        },
        {
          "duration": 0.08333337499999516,
          "durationTicks": 15,
          "midi": 36,
          "name": "C2",
          "ticks": 32580,
          "time": 181.0000905,
          "velocity": 0.7874015748031497
        },
        {
          "duration": 0.08333337499999516,
          "durationTicks": 15,
          "midi": 36,
          "name": "C2",
          "ticks": 32640,
          "time": 181.333424,
          "velocity": 0.7874015748031497
        },
        {
          "duration": 0.08333337499999516,
          "durationTicks": 15,
          "midi": 80,
          "name": "G#5",
          "ticks": 32640,
          "time": 181.333424,
          "velocity": 0.7874015748031497
        },
        {
          "duration": 0.08333337499999516,
          "durationTicks": 15,
          "midi": 42,
          "name": "F#2",
          "ticks": 32640,
          "time": 181.333424,
          "velocity": 0.7874015748031497
        },
        {
          "duration": 0.08333337499999516,
          "durationTicks": 15,
          "midi": 36,
          "name": "C2",
          "ticks": 32670,
          "time": 181.50009075,
          "velocity": 0.7874015748031497
        },
        {
          "duration": 0.08333337500002358,
          "durationTicks": 15,
          "midi": 80,
          "name": "G#5",
          "ticks": 32700,
          "time": 181.6667575,
          "velocity": 0.7874015748031497
        },
        {
          "duration": 0.08333337500002358,
          "durationTicks": 15,
          "midi": 42,
          "name": "F#2",
          "ticks": 32700,
          "time": 181.6667575,
          "velocity": 0.7874015748031497
        },
        {
          "duration": 0.08333337499999516,
          "durationTicks": 15,
          "midi": 36,
          "name": "C2",
          "ticks": 32730,
          "time": 181.83342425,
          "velocity": 0.7874015748031497
        },
        {
          "duration": 0.08333337499999516,
          "durationTicks": 15,
          "midi": 38,
          "name": "D2",
          "ticks": 32760,
          "time": 182.000091,
          "velocity": 0.7874015748031497
        },
        {
          "duration": 0.08333337499999516,
          "durationTicks": 15,
          "midi": 80,
          "name": "G#5",
          "ticks": 32760,
          "time": 182.000091,
          "velocity": 0.7874015748031497
        },
        {
          "duration": 0.08333337499999516,
          "durationTicks": 15,
          "midi": 42,
          "name": "F#2",
          "ticks": 32760,
          "time": 182.000091,
          "velocity": 0.7874015748031497
        },
        {
          "duration": 0.08333337499999516,
          "durationTicks": 15,
          "midi": 80,
          "name": "G#5",
          "ticks": 32820,
          "time": 182.3334245,
          "velocity": 0.7874015748031497
        },
        {
          "duration": 0.08333337499999516,
          "durationTicks": 15,
          "midi": 42,
          "name": "F#2",
          "ticks": 32820,
          "time": 182.3334245,
          "velocity": 0.7874015748031497
        },
        {
          "duration": 0.08333337499999516,
          "durationTicks": 15,
          "midi": 36,
          "name": "C2",
          "ticks": 32880,
          "time": 182.66675800000002,
          "velocity": 0.7874015748031497
        },
        {
          "duration": 0.08333337499999516,
          "durationTicks": 15,
          "midi": 80,
          "name": "G#5",
          "ticks": 32880,
          "time": 182.66675800000002,
          "velocity": 0.7874015748031497
        },
        {
          "duration": 0.08333337499999516,
          "durationTicks": 15,
          "midi": 42,
          "name": "F#2",
          "ticks": 32880,
          "time": 182.66675800000002,
          "velocity": 0.7874015748031497
        },
        {
          "duration": 0.08333337499999516,
          "durationTicks": 15,
          "midi": 36,
          "name": "C2",
          "ticks": 32940,
          "time": 183.0000915,
          "velocity": 0.7874015748031497
        },
        {
          "duration": 0.08333337499999516,
          "durationTicks": 15,
          "midi": 80,
          "name": "G#5",
          "ticks": 32940,
          "time": 183.0000915,
          "velocity": 0.7874015748031497
        },
        {
          "duration": 0.08333337499999516,
          "durationTicks": 15,
          "midi": 42,
          "name": "F#2",
          "ticks": 32940,
          "time": 183.0000915,
          "velocity": 0.7874015748031497
        },
        {
          "duration": 0.08333337499999516,
          "durationTicks": 15,
          "midi": 80,
          "name": "G#5",
          "ticks": 33000,
          "time": 183.333425,
          "velocity": 0.7874015748031497
        },
        {
          "duration": 0.08333337499999516,
          "durationTicks": 15,
          "midi": 38,
          "name": "D2",
          "ticks": 33000,
          "time": 183.333425,
          "velocity": 0.7874015748031497
        },
        {
          "duration": 0.08333337499999516,
          "durationTicks": 15,
          "midi": 42,
          "name": "F#2",
          "ticks": 33000,
          "time": 183.333425,
          "velocity": 0.7874015748031497
        },
        {
          "duration": 0.08333337499999516,
          "durationTicks": 15,
          "midi": 80,
          "name": "G#5",
          "ticks": 33060,
          "time": 183.66675850000001,
          "velocity": 0.7874015748031497
        },
        {
          "duration": 0.08333337499999516,
          "durationTicks": 15,
          "midi": 42,
          "name": "F#2",
          "ticks": 33060,
          "time": 183.66675850000001,
          "velocity": 0.7874015748031497
        },
        {
          "duration": 0.08333337499999516,
          "durationTicks": 15,
          "midi": 38,
          "name": "D2",
          "ticks": 33090,
          "time": 183.83342525,
          "velocity": 0.7874015748031497
        },
        {
          "duration": 0.08333337499999516,
          "durationTicks": 15,
          "midi": 80,
          "name": "G#5",
          "ticks": 33120,
          "time": 184.000092,
          "velocity": 0.7874015748031497
        },
        {
          "duration": 0.08333337499999516,
          "durationTicks": 15,
          "midi": 36,
          "name": "C2",
          "ticks": 33120,
          "time": 184.000092,
          "velocity": 0.7874015748031497
        },
        {
          "duration": 0.08333337499999516,
          "durationTicks": 15,
          "midi": 42,
          "name": "F#2",
          "ticks": 33120,
          "time": 184.000092,
          "velocity": 0.7874015748031497
        },
        {
          "duration": 0.08333337499999516,
          "durationTicks": 15,
          "midi": 80,
          "name": "G#5",
          "ticks": 33180,
          "time": 184.3334255,
          "velocity": 0.7874015748031497
        },
        {
          "duration": 0.08333337499999516,
          "durationTicks": 15,
          "midi": 42,
          "name": "F#2",
          "ticks": 33180,
          "time": 184.3334255,
          "velocity": 0.7874015748031497
        },
        {
          "duration": 0.08333337499999516,
          "durationTicks": 15,
          "midi": 36,
          "name": "C2",
          "ticks": 33210,
          "time": 184.50009225,
          "velocity": 0.7874015748031497
        },
        {
          "duration": 0.08333337499999516,
          "durationTicks": 15,
          "midi": 80,
          "name": "G#5",
          "ticks": 33240,
          "time": 184.666759,
          "velocity": 0.7874015748031497
        },
        {
          "duration": 0.08333337499999516,
          "durationTicks": 15,
          "midi": 38,
          "name": "D2",
          "ticks": 33240,
          "time": 184.666759,
          "velocity": 0.7874015748031497
        },
        {
          "duration": 0.08333337499999516,
          "durationTicks": 15,
          "midi": 42,
          "name": "F#2",
          "ticks": 33240,
          "time": 184.666759,
          "velocity": 0.7874015748031497
        },
        {
          "duration": 0.08333337499999516,
          "durationTicks": 15,
          "midi": 80,
          "name": "G#5",
          "ticks": 33600,
          "time": 186.66676,
          "velocity": 0.7874015748031497
        },
        {
          "duration": 0.08333337499999516,
          "durationTicks": 15,
          "midi": 36,
          "name": "C2",
          "ticks": 33600,
          "time": 186.66676,
          "velocity": 0.7874015748031497
        },
        {
          "duration": 0.08333337499999516,
          "durationTicks": 15,
          "midi": 42,
          "name": "F#2",
          "ticks": 33600,
          "time": 186.66676,
          "velocity": 0.7874015748031497
        },
        {
          "duration": 0.08333337500002358,
          "durationTicks": 15,
          "midi": 80,
          "name": "G#5",
          "ticks": 33660,
          "time": 187.0000935,
          "velocity": 0.7874015748031497
        },
        {
          "duration": 0.08333337500002358,
          "durationTicks": 15,
          "midi": 42,
          "name": "F#2",
          "ticks": 33660,
          "time": 187.0000935,
          "velocity": 0.7874015748031497
        },
        {
          "duration": 0.08333337499999516,
          "durationTicks": 15,
          "midi": 36,
          "name": "C2",
          "ticks": 33690,
          "time": 187.16676025,
          "velocity": 0.7874015748031497
        },
        {
          "duration": 0.08333337499999516,
          "durationTicks": 15,
          "midi": 38,
          "name": "D2",
          "ticks": 33720,
          "time": 187.333427,
          "velocity": 0.7874015748031497
        },
        {
          "duration": 0.08333337499999516,
          "durationTicks": 15,
          "midi": 80,
          "name": "G#5",
          "ticks": 33720,
          "time": 187.333427,
          "velocity": 0.7874015748031497
        },
        {
          "duration": 0.08333337499999516,
          "durationTicks": 15,
          "midi": 42,
          "name": "F#2",
          "ticks": 33720,
          "time": 187.333427,
          "velocity": 0.7874015748031497
        },
        {
          "duration": 0.08333337499999516,
          "durationTicks": 15,
          "midi": 80,
          "name": "G#5",
          "ticks": 33780,
          "time": 187.6667605,
          "velocity": 0.7874015748031497
        },
        {
          "duration": 0.08333337499999516,
          "durationTicks": 15,
          "midi": 42,
          "name": "F#2",
          "ticks": 33780,
          "time": 187.6667605,
          "velocity": 0.7874015748031497
        },
        {
          "duration": 0.08333337500002358,
          "durationTicks": 15,
          "midi": 80,
          "name": "G#5",
          "ticks": 33840,
          "time": 188.000094,
          "velocity": 0.7874015748031497
        },
        {
          "duration": 0.08333337500002358,
          "durationTicks": 15,
          "midi": 36,
          "name": "C2",
          "ticks": 33840,
          "time": 188.000094,
          "velocity": 0.7874015748031497
        },
        {
          "duration": 0.08333337500002358,
          "durationTicks": 15,
          "midi": 42,
          "name": "F#2",
          "ticks": 33840,
          "time": 188.000094,
          "velocity": 0.7874015748031497
        },
        {
          "duration": 0.08333337499999516,
          "durationTicks": 15,
          "midi": 80,
          "name": "G#5",
          "ticks": 33900,
          "time": 188.3334275,
          "velocity": 0.7874015748031497
        },
        {
          "duration": 0.08333337499999516,
          "durationTicks": 15,
          "midi": 42,
          "name": "F#2",
          "ticks": 33900,
          "time": 188.3334275,
          "velocity": 0.7874015748031497
        },
        {
          "duration": 0.08333337499999516,
          "durationTicks": 15,
          "midi": 36,
          "name": "C2",
          "ticks": 33900,
          "time": 188.3334275,
          "velocity": 0.7874015748031497
        },
        {
          "duration": 0.08333337499999516,
          "durationTicks": 15,
          "midi": 38,
          "name": "D2",
          "ticks": 33960,
          "time": 188.666761,
          "velocity": 0.7874015748031497
        },
        {
          "duration": 0.08333337499999516,
          "durationTicks": 15,
          "midi": 80,
          "name": "G#5",
          "ticks": 33960,
          "time": 188.666761,
          "velocity": 0.7874015748031497
        },
        {
          "duration": 0.08333337499999516,
          "durationTicks": 15,
          "midi": 42,
          "name": "F#2",
          "ticks": 33960,
          "time": 188.666761,
          "velocity": 0.7874015748031497
        },
        {
          "duration": 0.08333337500002358,
          "durationTicks": 15,
          "midi": 80,
          "name": "G#5",
          "ticks": 34020,
          "time": 189.0000945,
          "velocity": 0.7874015748031497
        },
        {
          "duration": 0.08333337500002358,
          "durationTicks": 15,
          "midi": 42,
          "name": "F#2",
          "ticks": 34020,
          "time": 189.0000945,
          "velocity": 0.7874015748031497
        },
        {
          "duration": 0.08333337499999516,
          "durationTicks": 15,
          "midi": 80,
          "name": "G#5",
          "ticks": 34080,
          "time": 189.333428,
          "velocity": 0.7874015748031497
        },
        {
          "duration": 0.08333337499999516,
          "durationTicks": 15,
          "midi": 42,
          "name": "F#2",
          "ticks": 34080,
          "time": 189.333428,
          "velocity": 0.7874015748031497
        },
        {
          "duration": 0.08333337499999516,
          "durationTicks": 15,
          "midi": 36,
          "name": "C2",
          "ticks": 34080,
          "time": 189.333428,
          "velocity": 0.7874015748031497
        },
        {
          "duration": 0.08333337499999516,
          "durationTicks": 15,
          "midi": 80,
          "name": "G#5",
          "ticks": 34140,
          "time": 189.6667615,
          "velocity": 0.7874015748031497
        },
        {
          "duration": 0.08333337499999516,
          "durationTicks": 15,
          "midi": 42,
          "name": "F#2",
          "ticks": 34140,
          "time": 189.6667615,
          "velocity": 0.7874015748031497
        },
        {
          "duration": 0.08333337499999516,
          "durationTicks": 15,
          "midi": 36,
          "name": "C2",
          "ticks": 34170,
          "time": 189.83342825,
          "velocity": 0.7874015748031497
        },
        {
          "duration": 0.08333337499999516,
          "durationTicks": 15,
          "midi": 80,
          "name": "G#5",
          "ticks": 34200,
          "time": 190.00009500000002,
          "velocity": 0.7874015748031497
        },
        {
          "duration": 0.08333337499999516,
          "durationTicks": 15,
          "midi": 42,
          "name": "F#2",
          "ticks": 34200,
          "time": 190.00009500000002,
          "velocity": 0.7874015748031497
        },
        {
          "duration": 0.08333337499999516,
          "durationTicks": 15,
          "midi": 38,
          "name": "D2",
          "ticks": 34200,
          "time": 190.00009500000002,
          "velocity": 0.7874015748031497
        },
        {
          "duration": 0.08333337499999516,
          "durationTicks": 15,
          "midi": 80,
          "name": "G#5",
          "ticks": 34260,
          "time": 190.3334285,
          "velocity": 0.7874015748031497
        },
        {
          "duration": 0.08333337499999516,
          "durationTicks": 15,
          "midi": 42,
          "name": "F#2",
          "ticks": 34260,
          "time": 190.3334285,
          "velocity": 0.7874015748031497
        },
        {
          "duration": 0.08333337499999516,
          "durationTicks": 15,
          "midi": 80,
          "name": "G#5",
          "ticks": 34320,
          "time": 190.666762,
          "velocity": 0.7874015748031497
        },
        {
          "duration": 0.08333337499999516,
          "durationTicks": 15,
          "midi": 42,
          "name": "F#2",
          "ticks": 34320,
          "time": 190.666762,
          "velocity": 0.7874015748031497
        },
        {
          "duration": 0.08333337499999516,
          "durationTicks": 15,
          "midi": 36,
          "name": "C2",
          "ticks": 34320,
          "time": 190.666762,
          "velocity": 0.7874015748031497
        },
        {
          "duration": 0.08333337499999516,
          "durationTicks": 15,
          "midi": 80,
          "name": "G#5",
          "ticks": 34380,
          "time": 191.00009550000001,
          "velocity": 0.7874015748031497
        },
        {
          "duration": 0.08333337499999516,
          "durationTicks": 15,
          "midi": 42,
          "name": "F#2",
          "ticks": 34380,
          "time": 191.00009550000001,
          "velocity": 0.7874015748031497
        },
        {
          "duration": 0.08333337499999516,
          "durationTicks": 15,
          "midi": 36,
          "name": "C2",
          "ticks": 34410,
          "time": 191.16676225,
          "velocity": 0.7874015748031497
        },
        {
          "duration": 0.08333337499999516,
          "durationTicks": 15,
          "midi": 80,
          "name": "G#5",
          "ticks": 34440,
          "time": 191.333429,
          "velocity": 0.7874015748031497
        },
        {
          "duration": 0.08333337499999516,
          "durationTicks": 15,
          "midi": 42,
          "name": "F#2",
          "ticks": 34440,
          "time": 191.333429,
          "velocity": 0.7874015748031497
        },
        {
          "duration": 0.08333337499999516,
          "durationTicks": 15,
          "midi": 38,
          "name": "D2",
          "ticks": 34440,
          "time": 191.333429,
          "velocity": 0.7874015748031497
        },
        {
          "duration": 0.08333337499999516,
          "durationTicks": 15,
          "midi": 80,
          "name": "G#5",
          "ticks": 34500,
          "time": 191.6667625,
          "velocity": 0.7874015748031497
        },
        {
          "duration": 0.08333337499999516,
          "durationTicks": 15,
          "midi": 42,
          "name": "F#2",
          "ticks": 34500,
          "time": 191.6667625,
          "velocity": 0.7874015748031497
        },
        {
          "duration": 0.08333337499999516,
          "durationTicks": 15,
          "midi": 36,
          "name": "C2",
          "ticks": 34500,
          "time": 191.6667625,
          "velocity": 0.7874015748031497
        },
        {
          "duration": 0.08333337499999516,
          "durationTicks": 15,
          "midi": 36,
          "name": "C2",
          "ticks": 34560,
          "time": 192.000096,
          "velocity": 0.7874015748031497
        },
        {
          "duration": 0.08333337499999516,
          "durationTicks": 15,
          "midi": 36,
          "name": "C2",
          "ticks": 34590,
          "time": 192.16676275,
          "velocity": 0.7874015748031497
        },
        {
          "duration": 0.08333337499999516,
          "durationTicks": 15,
          "midi": 36,
          "name": "C2",
          "ticks": 34650,
          "time": 192.50009625,
          "velocity": 0.7874015748031497
        },
        {
          "duration": 0.08333337499999516,
          "durationTicks": 15,
          "midi": 38,
          "name": "D2",
          "ticks": 34680,
          "time": 192.666763,
          "velocity": 0.7874015748031497
        },
        {
          "duration": 0.08333337500002358,
          "durationTicks": 15,
          "midi": 69,
          "name": "A4",
          "ticks": 34800,
          "time": 193.33343,
          "velocity": 0.7874015748031497
        },
        {
          "duration": 0.08333337500002358,
          "durationTicks": 15,
          "midi": 36,
          "name": "C2",
          "ticks": 34800,
          "time": 193.33343,
          "velocity": 0.7874015748031497
        },
        {
          "duration": 0.08333337499999516,
          "durationTicks": 15,
          "midi": 36,
          "name": "C2",
          "ticks": 34860,
          "time": 193.6667635,
          "velocity": 0.7874015748031497
        },
        {
          "duration": 0.08333337499999516,
          "durationTicks": 15,
          "midi": 69,
          "name": "A4",
          "ticks": 34920,
          "time": 194.000097,
          "velocity": 0.7874015748031497
        },
        {
          "duration": 0.08333337499999516,
          "durationTicks": 15,
          "midi": 38,
          "name": "D2",
          "ticks": 34920,
          "time": 194.000097,
          "velocity": 0.7874015748031497
        },
        {
          "duration": 0.08333337499999516,
          "durationTicks": 15,
          "midi": 69,
          "name": "A4",
          "ticks": 35010,
          "time": 194.50009725,
          "velocity": 0.7874015748031497
        },
        {
          "duration": 0.08333337499999516,
          "durationTicks": 15,
          "midi": 69,
          "name": "A4",
          "ticks": 35040,
          "time": 194.666764,
          "velocity": 0.7874015748031497
        },
        {
          "duration": 0.08333337499999516,
          "durationTicks": 15,
          "midi": 36,
          "name": "C2",
          "ticks": 35040,
          "time": 194.666764,
          "velocity": 0.7874015748031497
        },
        {
          "duration": 0.08333337499999516,
          "durationTicks": 15,
          "midi": 36,
          "name": "C2",
          "ticks": 35130,
          "time": 195.16676425,
          "velocity": 0.7874015748031497
        },
        {
          "duration": 0.08333337500002358,
          "durationTicks": 15,
          "midi": 69,
          "name": "A4",
          "ticks": 35160,
          "time": 195.333431,
          "velocity": 0.7874015748031497
        },
        {
          "duration": 0.08333337500002358,
          "durationTicks": 15,
          "midi": 38,
          "name": "D2",
          "ticks": 35160,
          "time": 195.333431,
          "velocity": 0.7874015748031497
        },
        {
          "duration": 0.08333337500002358,
          "durationTicks": 15,
          "midi": 69,
          "name": "A4",
          "ticks": 35250,
          "time": 195.83343125,
          "velocity": 0.7874015748031497
        },
        {
          "duration": 0.08333337499999516,
          "durationTicks": 15,
          "midi": 69,
          "name": "A4",
          "ticks": 35280,
          "time": 196.000098,
          "velocity": 0.7874015748031497
        },
        {
          "duration": 0.08333337499999516,
          "durationTicks": 15,
          "midi": 36,
          "name": "C2",
          "ticks": 35280,
          "time": 196.000098,
          "velocity": 0.7874015748031497
        },
        {
          "duration": 0.08333337500002358,
          "durationTicks": 15,
          "midi": 36,
          "name": "C2",
          "ticks": 35340,
          "time": 196.3334315,
          "velocity": 0.7874015748031497
        },
        {
          "duration": 0.08333337499999516,
          "durationTicks": 15,
          "midi": 36,
          "name": "C2",
          "ticks": 35520,
          "time": 197.33343200000002,
          "velocity": 0.7874015748031497
        },
        {
          "duration": 0.08333337499999516,
          "durationTicks": 15,
          "midi": 36,
          "name": "C2",
          "ticks": 35610,
          "time": 197.83343225000002,
          "velocity": 0.7874015748031497
        },
        {
          "duration": 0.08333337499999516,
          "durationTicks": 15,
          "midi": 38,
          "name": "D2",
          "ticks": 35640,
          "time": 198.000099,
          "velocity": 0.7874015748031497
        },
        {
          "duration": 0.08333337499999516,
          "durationTicks": 15,
          "midi": 36,
          "name": "C2",
          "ticks": 35760,
          "time": 198.666766,
          "velocity": 0.7874015748031497
        },
        {
          "duration": 0.08333337499999516,
          "durationTicks": 15,
          "midi": 69,
          "name": "A4",
          "ticks": 35760,
          "time": 198.666766,
          "velocity": 0.7874015748031497
        },
        {
          "duration": 0.08333337499999516,
          "durationTicks": 15,
          "midi": 36,
          "name": "C2",
          "ticks": 35820,
          "time": 199.0000995,
          "velocity": 0.7874015748031497
        },
        {
          "duration": 0.08333337499999516,
          "durationTicks": 15,
          "midi": 38,
          "name": "D2",
          "ticks": 35880,
          "time": 199.333433,
          "velocity": 0.7874015748031497
        },
        {
          "duration": 0.08333337499999516,
          "durationTicks": 15,
          "midi": 69,
          "name": "A4",
          "ticks": 35880,
          "time": 199.333433,
          "velocity": 0.7874015748031497
        },
        {
          "duration": 0.08333337499999516,
          "durationTicks": 15,
          "midi": 69,
          "name": "A4",
          "ticks": 35970,
          "time": 199.83343325,
          "velocity": 0.7874015748031497
        },
        {
          "duration": 0.08333337499999516,
          "durationTicks": 15,
          "midi": 69,
          "name": "A4",
          "ticks": 36000,
          "time": 200.0001,
          "velocity": 0.7874015748031497
        },
        {
          "duration": 0.08333337499999516,
          "durationTicks": 15,
          "midi": 36,
          "name": "C2",
          "ticks": 36000,
          "time": 200.0001,
          "velocity": 0.7874015748031497
        },
        {
          "duration": 0.08333337499999516,
          "durationTicks": 15,
          "midi": 36,
          "name": "C2",
          "ticks": 36090,
          "time": 200.50010025,
          "velocity": 0.7874015748031497
        },
        {
          "duration": 0.08333337500002358,
          "durationTicks": 15,
          "midi": 69,
          "name": "A4",
          "ticks": 36120,
          "time": 200.666767,
          "velocity": 0.7874015748031497
        },
        {
          "duration": 0.08333337500002358,
          "durationTicks": 15,
          "midi": 38,
          "name": "D2",
          "ticks": 36120,
          "time": 200.666767,
          "velocity": 0.7874015748031497
        },
        {
          "duration": 0.08333337500002358,
          "durationTicks": 15,
          "midi": 69,
          "name": "A4",
          "ticks": 36210,
          "time": 201.16676725,
          "velocity": 0.7874015748031497
        },
        {
          "duration": 0.08333337499999516,
          "durationTicks": 15,
          "midi": 69,
          "name": "A4",
          "ticks": 36240,
          "time": 201.333434,
          "velocity": 0.7874015748031497
        },
        {
          "duration": 0.08333337499999516,
          "durationTicks": 15,
          "midi": 36,
          "name": "C2",
          "ticks": 36240,
          "time": 201.333434,
          "velocity": 0.7874015748031497
        },
        {
          "duration": 0.08333337499999516,
          "durationTicks": 15,
          "midi": 36,
          "name": "C2",
          "ticks": 36330,
          "time": 201.83343425,
          "velocity": 0.7874015748031497
        },
        {
          "duration": 0.08333337499999516,
          "durationTicks": 15,
          "midi": 38,
          "name": "D2",
          "ticks": 36360,
          "time": 202.000101,
          "velocity": 0.7874015748031497
        },
        {
          "duration": 0.08333337499999516,
          "durationTicks": 15,
          "midi": 36,
          "name": "C2",
          "ticks": 36420,
          "time": 202.3334345,
          "velocity": 0.7874015748031497
        },
        {
          "duration": 0.08333337500002358,
          "durationTicks": 15,
          "midi": 36,
          "name": "C2",
          "ticks": 36480,
          "time": 202.666768,
          "velocity": 0.7874015748031497
        },
        {
          "duration": 0.08333337500002358,
          "durationTicks": 15,
          "midi": 80,
          "name": "G#5",
          "ticks": 36480,
          "time": 202.666768,
          "velocity": 0.7874015748031497
        },
        {
          "duration": 0.08333337500002358,
          "durationTicks": 15,
          "midi": 42,
          "name": "F#2",
          "ticks": 36480,
          "time": 202.666768,
          "velocity": 0.7874015748031497
        },
        {
          "duration": 0.08333337499999516,
          "durationTicks": 15,
          "midi": 36,
          "name": "C2",
          "ticks": 36510,
          "time": 202.83343475,
          "velocity": 0.7874015748031497
        },
        {
          "duration": 0.08333337499999516,
          "durationTicks": 15,
          "midi": 80,
          "name": "G#5",
          "ticks": 36540,
          "time": 203.0001015,
          "velocity": 0.7874015748031497
        },
        {
          "duration": 0.08333337499999516,
          "durationTicks": 15,
          "midi": 42,
          "name": "F#2",
          "ticks": 36540,
          "time": 203.0001015,
          "velocity": 0.7874015748031497
        },
        {
          "duration": 0.08333337500002358,
          "durationTicks": 15,
          "midi": 36,
          "name": "C2",
          "ticks": 36570,
          "time": 203.16676825,
          "velocity": 0.7874015748031497
        },
        {
          "duration": 0.08333337499999516,
          "durationTicks": 15,
          "midi": 38,
          "name": "D2",
          "ticks": 36600,
          "time": 203.333435,
          "velocity": 0.7874015748031497
        },
        {
          "duration": 0.08333337499999516,
          "durationTicks": 15,
          "midi": 80,
          "name": "G#5",
          "ticks": 36600,
          "time": 203.333435,
          "velocity": 0.7874015748031497
        },
        {
          "duration": 0.08333337499999516,
          "durationTicks": 15,
          "midi": 42,
          "name": "F#2",
          "ticks": 36600,
          "time": 203.333435,
          "velocity": 0.7874015748031497
        },
        {
          "duration": 0.08333337500002358,
          "durationTicks": 15,
          "midi": 80,
          "name": "G#5",
          "ticks": 36660,
          "time": 203.6667685,
          "velocity": 0.7874015748031497
        },
        {
          "duration": 0.08333337500002358,
          "durationTicks": 15,
          "midi": 42,
          "name": "F#2",
          "ticks": 36660,
          "time": 203.6667685,
          "velocity": 0.7874015748031497
        },
        {
          "duration": 0.08333337499999516,
          "durationTicks": 15,
          "midi": 36,
          "name": "C2",
          "ticks": 36720,
          "time": 204.000102,
          "velocity": 0.7874015748031497
        },
        {
          "duration": 0.08333337499999516,
          "durationTicks": 15,
          "midi": 80,
          "name": "G#5",
          "ticks": 36720,
          "time": 204.000102,
          "velocity": 0.7874015748031497
        },
        {
          "duration": 0.08333337499999516,
          "durationTicks": 15,
          "midi": 42,
          "name": "F#2",
          "ticks": 36720,
          "time": 204.000102,
          "velocity": 0.7874015748031497
        },
        {
          "duration": 0.08333337499999516,
          "durationTicks": 15,
          "midi": 36,
          "name": "C2",
          "ticks": 36780,
          "time": 204.3334355,
          "velocity": 0.7874015748031497
        },
        {
          "duration": 0.08333337499999516,
          "durationTicks": 15,
          "midi": 80,
          "name": "G#5",
          "ticks": 36780,
          "time": 204.3334355,
          "velocity": 0.7874015748031497
        },
        {
          "duration": 0.08333337499999516,
          "durationTicks": 15,
          "midi": 42,
          "name": "F#2",
          "ticks": 36780,
          "time": 204.3334355,
          "velocity": 0.7874015748031497
        },
        {
          "duration": 0.08333337499999516,
          "durationTicks": 15,
          "midi": 80,
          "name": "G#5",
          "ticks": 36840,
          "time": 204.66676900000002,
          "velocity": 0.7874015748031497
        },
        {
          "duration": 0.08333337499999516,
          "durationTicks": 15,
          "midi": 38,
          "name": "D2",
          "ticks": 36840,
          "time": 204.66676900000002,
          "velocity": 0.7874015748031497
        },
        {
          "duration": 0.08333337499999516,
          "durationTicks": 15,
          "midi": 42,
          "name": "F#2",
          "ticks": 36840,
          "time": 204.66676900000002,
          "velocity": 0.7874015748031497
        },
        {
          "duration": 0.08333337499999516,
          "durationTicks": 15,
          "midi": 80,
          "name": "G#5",
          "ticks": 36900,
          "time": 205.0001025,
          "velocity": 0.7874015748031497
        },
        {
          "duration": 0.08333337499999516,
          "durationTicks": 15,
          "midi": 42,
          "name": "F#2",
          "ticks": 36900,
          "time": 205.0001025,
          "velocity": 0.7874015748031497
        },
        {
          "duration": 0.08333337499999516,
          "durationTicks": 15,
          "midi": 38,
          "name": "D2",
          "ticks": 36930,
          "time": 205.16676925000002,
          "velocity": 0.7874015748031497
        },
        {
          "duration": 0.08333337499999516,
          "durationTicks": 15,
          "midi": 80,
          "name": "G#5",
          "ticks": 36960,
          "time": 205.333436,
          "velocity": 0.7874015748031497
        },
        {
          "duration": 0.08333337499999516,
          "durationTicks": 15,
          "midi": 36,
          "name": "C2",
          "ticks": 36960,
          "time": 205.333436,
          "velocity": 0.7874015748031497
        },
        {
          "duration": 0.08333337499999516,
          "durationTicks": 15,
          "midi": 42,
          "name": "F#2",
          "ticks": 36960,
          "time": 205.333436,
          "velocity": 0.7874015748031497
        },
        {
          "duration": 0.08333337499999516,
          "durationTicks": 15,
          "midi": 80,
          "name": "G#5",
          "ticks": 37020,
          "time": 205.66676950000002,
          "velocity": 0.7874015748031497
        },
        {
          "duration": 0.08333337499999516,
          "durationTicks": 15,
          "midi": 42,
          "name": "F#2",
          "ticks": 37020,
          "time": 205.66676950000002,
          "velocity": 0.7874015748031497
        },
        {
          "duration": 0.08333337499999516,
          "durationTicks": 15,
          "midi": 36,
          "name": "C2",
          "ticks": 37050,
          "time": 205.83343625,
          "velocity": 0.7874015748031497
        },
        {
          "duration": 0.08333337499999516,
          "durationTicks": 15,
          "midi": 80,
          "name": "G#5",
          "ticks": 37080,
          "time": 206.000103,
          "velocity": 0.7874015748031497
        },
        {
          "duration": 0.08333337499999516,
          "durationTicks": 15,
          "midi": 38,
          "name": "D2",
          "ticks": 37080,
          "time": 206.000103,
          "velocity": 0.7874015748031497
        },
        {
          "duration": 0.08333337499999516,
          "durationTicks": 15,
          "midi": 42,
          "name": "F#2",
          "ticks": 37080,
          "time": 206.000103,
          "velocity": 0.7874015748031497
        },
        {
          "duration": 0.08333337499999516,
          "durationTicks": 15,
          "midi": 80,
          "name": "G#5",
          "ticks": 37140,
          "time": 206.3334365,
          "velocity": 0.7874015748031497
        },
        {
          "duration": 0.08333337499999516,
          "durationTicks": 15,
          "midi": 42,
          "name": "F#2",
          "ticks": 37140,
          "time": 206.3334365,
          "velocity": 0.7874015748031497
        },
        {
          "duration": 0.08333337499999516,
          "durationTicks": 15,
          "midi": 80,
          "name": "G#5",
          "ticks": 37200,
          "time": 206.66677,
          "velocity": 0.7874015748031497
        },
        {
          "duration": 0.08333337499999516,
          "durationTicks": 15,
          "midi": 36,
          "name": "C2",
          "ticks": 37200,
          "time": 206.66677,
          "velocity": 0.7874015748031497
        },
        {
          "duration": 0.08333337499999516,
          "durationTicks": 15,
          "midi": 42,
          "name": "F#2",
          "ticks": 37200,
          "time": 206.66677,
          "velocity": 0.7874015748031497
        },
        {
          "duration": 0.08333337499999516,
          "durationTicks": 15,
          "midi": 80,
          "name": "G#5",
          "ticks": 37260,
          "time": 207.0001035,
          "velocity": 0.7874015748031497
        },
        {
          "duration": 0.08333337499999516,
          "durationTicks": 15,
          "midi": 36,
          "name": "C2",
          "ticks": 37260,
          "time": 207.0001035,
          "velocity": 0.7874015748031497
        },
        {
          "duration": 0.08333337499999516,
          "durationTicks": 15,
          "midi": 42,
          "name": "F#2",
          "ticks": 37260,
          "time": 207.0001035,
          "velocity": 0.7874015748031497
        },
        {
          "duration": 0.08333337499999516,
          "durationTicks": 15,
          "midi": 80,
          "name": "G#5",
          "ticks": 37320,
          "time": 207.333437,
          "velocity": 0.7874015748031497
        },
        {
          "duration": 0.08333337499999516,
          "durationTicks": 15,
          "midi": 38,
          "name": "D2",
          "ticks": 37320,
          "time": 207.333437,
          "velocity": 0.7874015748031497
        },
        {
          "duration": 0.08333337499999516,
          "durationTicks": 15,
          "midi": 42,
          "name": "F#2",
          "ticks": 37320,
          "time": 207.333437,
          "velocity": 0.7874015748031497
        },
        {
          "duration": 0.08333337499999516,
          "durationTicks": 15,
          "midi": 80,
          "name": "G#5",
          "ticks": 37380,
          "time": 207.6667705,
          "velocity": 0.7874015748031497
        },
        {
          "duration": 0.08333337499999516,
          "durationTicks": 15,
          "midi": 42,
          "name": "F#2",
          "ticks": 37380,
          "time": 207.6667705,
          "velocity": 0.7874015748031497
        }
      ],
      "endOfTrackTicks": 37395
    },
    {
      "channel": 0,
      "controlChanges": {},
      "pitchBends": [],
      "instrument": {
        "family": "piano",
        "name": "acoustic grand piano",
        "number": 0
      },
      "name": "Ruff Ryder's Anthem",
      "notes": [],
      "endOfTrackTicks": 0
    },
    {
      "channel": 0,
      "controlChanges": {},
      "pitchBends": [],
      "instrument": {
        "family": "piano",
        "name": "acoustic grand piano",
        "number": 0
      },
      "name": "DMX",
      "notes": [],
      "endOfTrackTicks": 0
    },
    {
      "channel": 0,
      "controlChanges": {},
      "pitchBends": [],
      "instrument": {
        "family": "piano",
        "name": "acoustic grand piano",
        "number": 0
      },
      "name": "http://skit.8m.com",
      "notes": [],
      "endOfTrackTicks": 0
    }
  ]
}